<svg width="100%" height="100%" overflow="visible" style="display: block;" viewBox="0 0 500 222" fill="none" xmlns="http://www.w3.org/2000/svg">
<path id="Vector" d="M373.22 95.1429C389.311 97.6445 408.923 91.1602 415.471 95.1429C419.768 100.463 422.373 125.483 415.471 130.381C369.312 125.166 324.384 103.424 274.634 98.667C186.787 90.2799 111.721 54.8306 31.6882 74C35.8078 100.428 35.6319 131.157 35.2095 162.095C59.7151 166.571 87.3196 159.664 119.712 162.095C121.825 153.638 124.783 146.027 123.234 133.905C110.029 124.496 83.7278 135.49 73.9392 130.38C74.8904 118.398 71.23 101.802 77.4605 95.1419C211.293 109.203 312.379 156.033 457.724 158.571C456.526 125.693 460.786 87.3535 454.202 59.9034C419.943 62.3722 348.258 45.032 373.22 95.1429ZM492.933 0C497.652 72.5199 500.291 156.423 499.974 214.954C323.715 222.494 169.077 218.902 7.04151 222C-0.104348 154.273 2.11195 88.4487 0 10.5714C167.315 14.3771 324.173 3.17004 492.933 0Z" fill="var(--fill-0, white)"/>
</svg>
