<svg width="100%" height="100%" overflow="visible" style="display: block;" viewBox="0 0 243.822 307.61" fill="none" xmlns="http://www.w3.org/2000/svg">
<g id="Doodle">
<g id="path">
<path d="M8.02707 59.5095C8.02708 26.0109 50.8993 23.3354 57.9617 48.4593C61.0709 58.8472 65.6574 88.9619 67.1203 106.382C77.7195 89.717 104.073 93.4234 110.802 115.34C107.773 76.6297 155.649 76.4934 158.933 111.965C162.246 88.7017 167.958 52.4842 174.201 30.1982C183.976 -4.69625 223.509 5.58457 222.219 33.5276C220.929 61.4706 215.983 99.0862 206.48 141.441C227.547 149.034 238.708 162.898 235.139 193.224C227.303 259.802 192.702 299.583 125.326 299.583C12.2783 299.583 10.8199 137.673 8.02707 59.5095Z" fill="var(--fill-0, black)"/>
<path d="M172.09 193.224C153.235 193.224 119.503 198.369 111.296 176.057C108.521 168.512 109.658 159.731 114.844 152.332C117.826 148.079 122.146 144.282 127.831 141.441C134.772 137.972 146.857 135.178 159.543 134.377M159.543 134.377C174.503 134.377 192.14 136.272 206.48 141.441M110.802 115.34C107.773 76.6297 155.649 76.4934 158.933 111.965C159.515 118.246 159.543 124.332 159.543 134.377M110.802 115.34L114.844 152.332M111.296 176.057C101.057 189.022 78.4263 183.734 72.2624 169.776C66.0985 155.818 64.3497 137.804 62.9559 126.725C61.9358 118.617 63.715 111.736 67.1203 106.382C77.7195 89.717 104.073 93.4234 110.802 115.34M197.847 193.224H172.09M139.29 239.565C140.428 219.838 151.253 193.224 172.09 193.224M206.48 141.441C227.547 149.034 238.708 162.898 235.139 193.224C227.303 259.802 192.702 299.583 125.326 299.583C12.2783 299.583 10.8199 137.673 8.02707 59.5095C8.02708 26.0109 50.8993 23.3354 57.9617 48.4593C61.0709 58.8472 65.6574 88.9619 67.1203 106.382M206.48 141.441C215.983 99.0862 220.929 61.4706 222.219 33.5276C223.509 5.58457 183.976 -4.69625 174.201 30.1982C167.958 52.4842 162.246 88.7017 158.933 111.965" stroke="var(--stroke-0, #DE350B)" stroke-width="16.0541"/>
</g>
</g>
</svg>
