<svg width="100%" height="100%" overflow="visible" style="display: block;" viewBox="0 0 317 310" fill="none" xmlns="http://www.w3.org/2000/svg">
<path id="Vector" d="M311.529 176.507L248.378 188.138C243.745 188.993 241.428 194.209 243.916 198.228L278.151 252.36C281.669 258.004 275.663 264.846 269.571 261.938L211.655 234.316C207.364 232.264 202.388 235.171 202.045 239.875L197.84 303.755C197.326 310.426 188.402 312.392 185.227 306.492L154.596 250.222C152.279 246.032 146.531 245.519 143.527 249.111L102.428 298.368C98.138 303.499 89.8151 299.907 90.6732 293.237L99.0818 229.784C99.6824 225.08 95.3923 221.232 90.759 222.43L28.4664 238.165C21.9455 239.875 17.3121 232.007 21.9454 227.133L66.2195 180.698C69.48 177.277 68.1929 171.633 63.817 169.923L4.18433 146.235C-1.99344 143.755 -1.1354 134.69 5.47138 133.493L68.6219 121.862C73.2553 121.007 75.5719 115.791 73.0837 111.772L38.8485 57.6398C35.3306 51.9957 41.3368 45.1546 47.4287 48.0622L105.345 75.6839C109.635 77.7363 114.612 74.8286 114.955 70.1252L119.16 6.24478C119.674 -0.425478 128.598 -2.3923 131.773 3.50831L162.404 59.7778C164.721 63.9681 170.469 64.4813 173.473 60.8896L214.572 11.6322C218.862 6.50119 227.185 10.0928 226.327 16.7631L217.918 80.2162C217.318 84.9196 221.608 88.7677 226.241 87.5704L288.534 71.8355C295.055 70.1251 299.688 77.9929 295.055 82.8673L250.781 129.302C247.52 132.723 248.807 138.367 253.183 140.077L312.816 163.765C318.993 166.245 318.135 175.31 311.529 176.507Z" fill="url(#paint0_linear_0_13)"/>
<defs>
<linearGradient id="paint0_linear_0_13" x1="-306.077" y1="-400.641" x2="5714.25" y2="-400.641" gradientUnits="userSpaceOnUse">
<stop stop-color="#FFC942"/>
<stop offset="0.95" stop-color="#FFB600"/>
</linearGradient>
</defs>
</svg>
