<svg width="100%" height="100%" overflow="visible" style="display: block;" viewBox="0 0 319.255 329.282" fill="none" xmlns="http://www.w3.org/2000/svg">
<g id="Vector">
<path d="M183.963 14.6334C183.963 31.3574 178.389 56.4433 164.452 70.3799C153.303 81.5292 150.515 106.615 150.515 117.764C150.515 126.126 144.941 117.764 139.366 112.19C131.596 104.42 133.791 75.9545 133.791 62.0179C133.791 48.0813 108.706 17.4207 103.131 20.2081C97.5563 22.9954 100.344 25.7827 105.918 36.932C111.493 48.0813 117.068 56.4433 114.28 89.8911C111.493 123.339 125.43 126.126 122.642 134.488C119.855 142.85 94.769 128.914 83.6197 120.552C50.1718 95.4658 27.8732 101.04 19.5113 103.828C11.1493 106.615 16.7239 112.19 22.2986 109.402C41.8098 106.615 64.1084 126.126 66.8957 131.701C94.769 170.723 117.068 162.361 111.493 176.298C105.918 190.235 72.4704 179.085 44.5972 179.085C16.7239 179.085 0 195.809 0 201.384C0 206.959 33.4479 193.022 44.5972 193.022C55.7465 193.022 78.045 212.533 103.131 206.959C128.217 201.384 125.43 201.384 125.43 206.959C125.43 226.47 89.1943 251.556 78.045 259.918C66.8957 268.28 61.3211 301.728 69.6831 298.94C78.045 296.153 86.407 262.705 111.493 257.13C136.579 251.556 144.941 226.47 150.515 226.47C156.09 226.47 158.877 251.556 153.303 257.13C147.728 262.705 139.366 296.153 150.515 315.664C161.665 335.175 167.239 329.601 164.452 324.026C158.877 310.09 161.665 282.216 167.239 273.854C183.963 243.194 181.176 232.045 178.389 223.683C175.601 215.321 172.814 209.746 181.176 212.533C200.687 220.895 195.113 245.981 197.9 265.492C200.687 285.004 214.624 304.515 228.56 310.09C242.497 315.664 222.986 287.791 217.411 273.854C211.837 259.918 214.624 251.556 214.624 226.47C214.624 201.384 200.687 195.809 203.475 193.022C206.262 190.235 222.986 193.022 239.71 215.321C256.434 237.619 273.158 243.194 287.094 245.981C301.031 248.768 303.818 240.407 295.456 237.619C273.158 229.257 259.221 218.108 248.072 193.022C236.922 167.936 214.624 167.936 209.049 165.149C203.475 162.361 214.624 145.638 245.284 154C275.945 162.361 289.882 156.787 301.031 154C312.18 151.212 328.904 134.488 312.18 140.063C295.456 145.638 267.583 145.638 248.072 134.488C228.56 123.339 211.837 134.488 214.624 126.126C222.986 101.04 231.348 101.04 242.497 98.2531C281.52 89.8911 289.882 70.3799 292.669 64.8052C295.456 59.2306 298.243 36.932 289.882 48.0813C281.52 59.2306 256.434 81.5292 222.986 84.3165C189.538 87.1038 189.538 117.764 183.963 120.552C178.389 123.339 172.814 89.8911 189.538 67.5926C206.262 45.294 197.9 20.2081 195.113 11.8461C192.325 3.48414 183.963 -2.0905 183.963 14.6334Z" fill="var(--stroke-0, #F9451C)"/>
<path d="M167.404 11.1982C169.056 27.8403 165.987 53.3543 153.496 68.5996C143.502 80.7958 143.207 106.034 144.309 117.129C145.135 125.45 138.761 117.68 132.663 112.683C124.164 105.719 123.536 77.176 122.159 63.3076C120.782 49.4392 92.7899 21.407 87.5179 24.7314C82.2459 28.0558 85.2949 30.5542 91.9438 41.0982C98.5926 51.6422 104.966 59.4125 105.497 92.9721C106.028 126.532 120.172 127.928 118.224 136.525C116.276 145.121 89.9364 133.731 78.0155 126.512C42.2529 104.853 20.6141 112.603 12.5685 116.203C4.52277 119.803 10.6209 124.8 15.8929 121.475C35.0333 116.774 59.1504 133.987 62.4749 139.259C94.067 175.337 115.43 164.813 111.26 179.232C107.089 193.651 72.7036 185.861 44.9667 188.614C17.2299 191.368 2.23997 209.662 2.79072 215.21C3.34147 220.757 35.2488 203.584 46.3436 202.483C57.4383 201.381 81.5554 218.594 105.968 210.568C130.38 202.543 127.607 202.818 128.157 208.365C130.085 227.781 96.5054 256.324 86.2368 265.747C75.9682 275.169 73.7253 309.004 81.771 305.405C89.8166 301.805 94.8332 267.694 119.246 259.669C143.658 251.643 149.501 225.854 155.048 225.303C160.596 224.752 165.848 249.44 160.851 255.538C155.854 261.636 150.838 295.747 163.86 314.061C176.882 332.375 181.879 326.277 178.555 321.005C171.63 307.687 171.65 279.675 176.372 270.803C189.985 238.64 186.109 227.821 182.51 219.775C178.91 211.73 175.585 206.458 184.182 208.405C204.424 214.799 201.355 240.313 206.056 259.453C210.757 278.594 226.553 296.633 240.973 300.803C255.392 304.974 233.222 279.164 226.298 265.847C219.374 252.529 221.321 243.932 218.843 218.969C216.365 194.006 201.945 189.836 204.444 186.787C206.942 183.737 223.86 184.859 242.705 205.396C261.55 225.933 278.743 229.829 292.886 231.225C307.03 232.622 308.978 224.026 300.381 222.078C277.366 215.96 262.396 206.242 248.823 182.381C235.25 158.519 213.06 160.722 207.237 158.499C201.415 156.276 210.857 138.532 242.194 143.824C273.53 149.116 286.848 142.192 297.668 138.317C308.487 134.442 323.477 116.147 307.385 123.347C291.294 130.547 263.557 133.3 243.04 124.133C222.523 114.966 206.982 127.713 208.93 119.117C214.772 93.3273 223.093 92.5011 233.913 88.626C271.918 76.4497 278.312 56.2078 280.534 50.385C282.757 44.5623 283.328 22.0974 276.109 34.0183C268.889 45.9391 246.129 70.607 213.12 76.6851C180.111 82.7633 183.14 113.274 177.868 116.598C172.596 119.923 163.744 87.1892 178.183 63.3475C192.623 39.5058 181.823 15.3687 178.223 7.32304C174.624 -0.722642 165.752 -5.44389 167.404 11.1982Z" fill="var(--fill-0, #FFBD14)"/>
</g>
</svg>
