<svg width="100%" height="100%" overflow="visible" style="display: block;" viewBox="0 0 116.774 223.929" fill="none" xmlns="http://www.w3.org/2000/svg">
<g id="Group">
<path id="Vector" d="M111.45 5.01896C119.745 43.7373 104.039 74.8268 99.9732 108.595C99.416 113.199 100.728 118.822 99.9732 123.392C97.8098 136.512 92.5969 156.487 90.1378 174.358C89.2849 180.573 81.4977 193.922 93.4164 195.731C101.663 195.238 97.2526 182.036 98.3341 174.358C106.269 173.865 105.023 172.697 114.729 172.714C117.024 186.771 117.09 210.248 116.367 222.036C103.662 225.735 84.2353 222.693 68.8256 223.68C65.1207 154.465 86.842 97.2846 91.7769 31.3253C87.1377 32.6887 87.5306 29.0068 83.5796 29.6811C76.399 33.6749 85.383 46.5319 80.301 54.3413H63.9069C58.6121 42.1098 61.2512 21.9371 60.6288 5.01896C71.6942 -0.339689 96.5474 3.81978 111.45 5.01896Z" fill="var(--fill-0, white)"/>
<path id="Vector_2" d="M48.022 1.7314C52.7926 42.3394 46.4487 82.5048 38.1858 116.816C36.53 123.689 32.2995 150.404 31.6276 157.917C31.0867 164 28.5785 171.859 28.349 179.29C28.2014 184.041 22.8079 194.481 33.2672 194.088C40.3496 192.969 34.7757 179.159 36.5458 172.714C40.8573 171.004 46.6116 170.74 52.9407 171.07C55.3988 185.587 56.186 201.781 56.2188 218.748C42.1039 222.118 21.6441 219.159 7.03677 222.036C1.20097 188.036 10.5454 158.18 15.2345 120.104C18.9888 89.574 27.4809 59.5208 29.989 29.6801H18.5131C14.1359 33.7407 22.3817 45.6279 16.8736 51.0534C15.7125 53.1505 13.8143 52.6024 11.8314 51.8581C9.41487 50.9517 6.73921 52.5927 4.77898 52.0771C2.81923 51.5629 1.27871 44.2338 0.562831 38.1665C-0.899014 25.7782 0.798374 9.86609 2.11908 0.0871826C18.5946 2.04463 32.431 -2.18072 48.022 1.7314Z" fill="var(--fill-0, white)"/>
</g>
</svg>
