<svg width="100%" height="100%" overflow="visible" style="display: block;" viewBox="0 0 213.574 207.926" fill="none" xmlns="http://www.w3.org/2000/svg">
<g id="Vector">
<path d="M44.4038 13.9909C31.2753 14.0494 9.26913 12.2922 0 17.7799C1.80927 32.4915 0.996628 50.2865 6.53177 60.5646L20.868 59.3374C24.7318 52.1427 15.9155 41.6038 21.8952 37.5845C25.2991 36.6948 25.2378 39.947 29.1783 38.4129C29.7763 96.3235 15.0415 147.822 23.4285 207.926C36.8294 205.917 54.0481 207.113 64.8731 202.94C64.6278 192.601 62.8185 172.121 59.7673 160.033C51.2729 160.739 52.4535 161.674 45.5538 162.687C45.1858 169.467 50.0156 180.651 42.8398 181.694C32.2909 181.003 38.102 168.777 38.378 163.3C39.1906 147.53 42.2725 129.705 43.1772 118.107C43.4992 114.057 41.9352 109.256 42.0732 105.206C43.1158 75.4451 54.5387 47.1418 44.4038 13.9909Z" fill="url(#paint0_linear_0_19)"/>
<path d="M159.32 5.2569C172.26 3.04019 193.629 -2.5026 203.709 1.29635C204.476 16.0989 208.359 33.4841 204.688 44.5658L190.356 45.8406C185.304 39.424 192.161 27.5172 185.576 24.5946C182.069 24.308 182.693 27.5003 178.546 26.6721C187.989 83.8108 211.422 131.978 213.574 192.626C200.028 192.969 183.277 197.13 171.893 194.896C170.343 184.67 168.577 164.187 169.488 151.752C177.976 150.976 176.976 152.102 183.947 151.904C185.484 158.518 182.664 170.369 189.912 170.153C200.182 167.646 192.341 156.611 191.12 151.265C187.588 135.874 181.465 118.852 178.565 107.586C177.546 103.654 178.254 98.6536 177.417 94.6889C171.234 65.5588 155.081 39.6623 159.32 5.2569Z" fill="url(#paint1_linear_0_19)"/>
<path d="M53.9965 12.4572C66.8618 9.84099 88.0491 3.63938 98.2415 7.12451C99.466 21.8963 103.885 39.1529 100.559 50.3429L86.2735 52.0608C81.0255 45.8036 87.511 33.6902 80.838 30.9729C77.3243 30.7949 78.0466 33.9665 73.8762 33.267C85.0835 90.086 109.997 137.505 114.025 198.057C100.495 198.819 83.8811 203.497 72.4333 201.616C70.568 191.443 68.1689 171.024 68.6946 158.568C77.1547 157.529 76.1893 158.685 83.1507 158.272C84.8917 164.835 82.4405 176.768 89.6783 176.328C99.8656 173.504 91.6865 162.717 90.301 157.411C86.2941 142.137 79.6468 125.312 76.3994 114.142C75.2594 110.243 75.8129 105.223 74.853 101.286C67.7719 72.3614 50.8247 46.9773 53.9965 12.4572Z" fill="url(#paint2_linear_0_19)"/>
<path d="M149.607 5.40823C136.483 5.0603 114.542 2.6228 105.107 7.8209C106.46 22.5815 105.097 40.3428 110.311 50.7874L124.679 50.0045C128.763 42.9328 120.277 32.1261 126.379 28.2939C129.809 27.5099 129.647 30.7586 133.633 29.3473C132.438 87.2486 116.116 138.266 122.638 198.601C136.095 197.007 153.269 198.736 164.217 194.901C164.292 184.559 163.118 164.033 160.442 151.856C151.93 152.298 153.081 153.27 146.153 154.068C145.576 160.834 150.057 172.162 142.852 172.982C132.33 171.966 138.517 159.925 138.962 154.46C140.263 138.722 143.895 121.001 145.158 109.437C145.605 105.399 144.191 100.551 144.454 96.5072C146.417 66.7931 158.711 38.857 149.607 5.40823Z" fill="url(#paint3_linear_0_19)"/>
</g>
<defs>
<linearGradient id="paint0_linear_0_19" x1="325.361" y1="390.239" x2="120.162" y2="-244.92" gradientUnits="userSpaceOnUse">
<stop stop-color="#FFB600"/>
<stop offset="1" stop-color="#FF7BAC"/>
</linearGradient>
<linearGradient id="paint1_linear_0_19" x1="325.361" y1="390.239" x2="120.162" y2="-244.92" gradientUnits="userSpaceOnUse">
<stop stop-color="#FFB600"/>
<stop offset="1" stop-color="#FF7BAC"/>
</linearGradient>
<linearGradient id="paint2_linear_0_19" x1="325.361" y1="390.239" x2="120.162" y2="-244.92" gradientUnits="userSpaceOnUse">
<stop stop-color="#FFB600"/>
<stop offset="1" stop-color="#FF7BAC"/>
</linearGradient>
<linearGradient id="paint3_linear_0_19" x1="325.361" y1="390.239" x2="120.162" y2="-244.92" gradientUnits="userSpaceOnUse">
<stop stop-color="#FFB600"/>
<stop offset="1" stop-color="#FF7BAC"/>
</linearGradient>
</defs>
</svg>
