<svg width="418" height="541" viewBox="0 0 418 541" fill="none" xmlns="http://www.w3.org/2000/svg">
    <path d="M313.44 540.382C247.73 457.774 207.259 360.961 178.871 274.281C173.234 256.92 146.261 192.467 137.589 175.012C130.563 160.905 125.448 140.262 115.876 123.645C109.755 113.063 107.571 82.7193 84.902 97.8705C70.7268 110.021 101.813 132.768 106.677 149.339C99.4737 159.008 86.972 167.447 72.5862 175.361C47.4244 146.835 23.6849 112.359 0.577579 75.2378C27.2496 48.4534 76.6036 26.9355 105.097 0.573926C164.152 67.1544 184.029 145.576 225.355 235.521C258.522 307.694 280.434 385.28 315.423 454.211L340.852 438.48C345.046 423.488 310.558 408.763 315.385 389.295C315.112 383.124 320.072 381.746 325.49 380.648C332.082 379.387 335.76 372.041 340.76 370.497C345.76 368.953 359.204 382.893 368.999 395.287C389.108 420.458 406.932 457.749 417.195 480.982C378.211 499.325 353.288 527.562 313.44 540.382Z" stroke="#FFFFFF" stroke-width="4" />
</svg>