<svg width="681" height="600" viewBox="0 0 681 600" fill="none" xmlns="http://www.w3.org/2000/svg">
<path d="M327.142 200.943L332.495 187.108L338.728 173.582L348.505 162.242L357.831 150.713L365.754 138.257L372.938 125.254L385.214 116.125L391.519 102.742L395.135 87.3138L407.91 78.6371L413.858 64.8019L422.898 53.3201L433.294 42.9556L445.927 34.588L456.133 24.3423L464.745 22.9398L470.479 36.7512L470.336 50.6577L466.411 64.065L466.173 77.9477L458.607 90.6418L460.082 104.881L459.488 118.835L455.753 132.147L446.736 144.223L445.951 158.178L446.117 173.534L434.65 185.206L435.103 200.895L430.701 214.873L420.138 227.377L431.367 236.434L444.975 229.707L459.559 230.372L474 230.182L488.25 228.494L502.215 223.693L517.037 227.805L531.049 223.407L545.49 223.312L560.145 225.713L574.157 220.959L588.336 217.607L602.872 218.962L617.289 218.891L631.754 219.58L646.052 218.582L660.635 215.396L675.79 214.303L681 227.139L668.819 235.697L660.017 248.534L648.122 257.544L635.227 264.723L622.452 272.021L607.226 274.826L595.355 283.621L583.103 291.775L567.758 294.033L558.218 307.393L544.99 313.669L532.12 320.515L517.774 324.746L507.425 335.349L490.582 340.792L498.67 356.173L504.594 369.461L511.636 382.179L522.294 392.686L526.41 407.187L537.163 417.552L539.59 433.241L552.651 442.108L558.313 455.777L566.164 467.995L573.491 480.571L586.742 489.319L590.644 504.081L599.684 515.61L609.32 526.973L614.292 540.808L622.928 552.979L616.528 562.417L601.159 562.987L590.906 549.937L574.395 550.888L561.168 544.588L551.913 532.036L538.091 528.352L524.626 523.645L513.944 514.35L500.883 508.716L490.415 499.279L480.685 488.938L466.625 484.35L458.536 471.965L445.309 466.212L438.409 452.449L426.966 444.366L411.74 441.775L401.106 435.808L388.64 440.61L382.502 453.399L374.366 464.786L370.726 478.597L362.851 490.151L361.138 504.77L355.381 517.393L345.365 527.948L339.941 540.761L335.421 554.002L329.116 566.387L318.863 576.751L317.887 591.918L304.66 600L293.026 598.645L287.84 579.033L289.434 564.319L284.39 550.365L291.313 536.601L290.885 522.718L291.028 508.835L293.121 495L288.696 480.998L291.099 467.139L284.652 453.352L289.363 439.374L289.291 425.396L286.246 411.68L281.155 398.677L275.207 388.384L260.6 388.241L248.3 396.062L234.05 397.964L222.393 406.593L206.976 407.258L193.463 412.559L180.498 419.144L167.246 425.087L153.757 430.412L141.933 439.612L128.397 444.865L113.837 447.718L100.895 454.231L89.9753 465.262L76.8668 471.442L63.7345 476.101L62.1881 458.32L69.7296 447.385L75.7486 435L83.6708 424.041L93.1156 414.414L103.75 405.832L110.673 391.997L120.593 380.8L122.449 362.377L143.67 360.666L149.404 346.26L155.946 332.639L163.297 319.707L174.36 308.796L183.448 295.222L168.817 285.975L162.179 273.328L149.451 267.052L143.052 253.193L127.635 250.412L120.784 236.862L106.795 232.441L98.5636 220.531L87.7152 211.997L76.5337 203.914L65.1381 196.117L53.4094 188.724L44.2977 178.051L29.5952 174.033L22.1013 161.672L16.0109 149.144L4.09195 141.799L0 127.655L15.1069 123.019L26.7404 133.051L39.5872 136.07L51.3397 142.631L66.8986 142.702L80.2926 148.764L94.3051 153.209L106.557 162.195L122.116 162.789L136.319 166.783L149.356 173.7L160.752 184.731L174.883 188.986L190.276 189.77L202.314 199.731L216.469 204.342L227.531 189.675L224.51 174.414L222.393 159.746L228.126 145.388L227.817 130.792L224.748 116.197L230.933 101.553L228.507 86.9572L230.648 72.2662L221.703 57.9081L228.649 43.0745L222.726 28.645L221.988 14.1204L229.125 0L242.353 0.380349L249.752 12.8605L252.131 27.599L256.889 41.1252L269.712 51.8225L273.09 66.0618L272.9 80.4913L279.823 92.6862L278.11 107.544L290.195 118.146L290.504 132.433L299.069 144.057L300.044 158.178L308.633 169.54L308.3 184.517L317.626 194.952L327.142 200.943Z" fill="#FFB600"/>
</svg>
