<svg width="800" height="165" viewBox="0 0 800 165" fill="none" xmlns="http://www.w3.org/2000/svg">
    <path d="M0.000236928 164.995L0.000244141 -3.49685e-05C1.41224 0.384965 2.95129 1.36298 4.92529 3.73898C10.3913 10.319 15.9123 8.11096 26.4093 11.521C36.9063 14.931 36.5002 8.79501 45.0962 15.592C53.6922 22.389 48.1022 14.9671 59.5962 22.7041C71.0902 30.4411 70.4193 21.418 79.9683 26.52C89.5173 31.622 84.0583 26.2491 90.8273 30.0481C97.5963 33.8471 105.777 33.306 109.977 31.468C114.177 29.63 114.428 31.3142 128.184 35.7832C141.94 40.2522 133.697 32.3721 144.33 37.8281C154.963 43.2841 150.445 35.0131 157.452 38.0881C164.459 41.1631 163.207 35.1561 169.252 38.7221C175.297 42.2881 176.672 33.128 188.618 37.01C200.564 40.892 197.396 35.8601 206.572 39.6421C215.748 43.4241 209.295 33.7242 220.662 40.6172C232.029 47.5102 227.739 37.317 235.125 42.917C242.511 48.517 239.825 43.2422 248.735 44.1382C257.645 45.0342 262.935 43.5482 264.291 47.9922C265.647 52.4362 267.091 52.9051 271.291 51.0681C275.491 49.2311 283.091 51.6991 288.783 56.3511C294.475 61.0031 297.744 63.266 302.183 61.907C306.622 60.548 306.429 66.088 311.115 65.207C315.801 64.326 318.6 68.039 326.302 67.74C334.004 67.441 339.478 75.224 343.922 73.865C348.366 72.506 345.858 75.294 352.022 78.498C358.186 81.702 366.312 73.9362 371.045 79.0752C375.778 84.2142 376.457 78.433 382.411 85.97C388.365 93.507 391.311 84.4591 394.818 87.2021C398.325 89.9451 400.474 87.0371 410.497 91.2961C414.18 92.8601 416.774 93.535 419.537 93.032C422.3 92.529 424.419 94.019 425.184 91.666C425.949 89.313 422.514 88.7962 424.541 86.2532C426.568 83.7102 429.961 86.8152 432.989 89.2002C436.017 91.5852 434.589 93.521 438.008 92.23C441.427 90.939 444.727 97.415 447.12 95.591C449.513 93.767 451.143 94.296 454.338 94.935C456.987 95.5277 459.478 96.6779 461.647 98.3091C463.1 99.3821 466.647 98.3311 468.347 101.087C470.047 103.843 470.175 104.082 472.696 103.1C473.841 102.574 475.138 102.481 476.346 102.837C477.555 103.193 478.593 103.975 479.27 105.037C480.732 107.312 481.339 107.91 483.316 106.751C483.678 106.495 484.095 106.327 484.534 106.26C484.972 106.193 485.42 106.23 485.842 106.367C486.264 106.504 486.648 106.738 486.964 107.049C487.279 107.361 487.518 107.742 487.66 108.162C488.334 109.783 487.487 109.307 493.446 109.442C499.405 109.577 495.805 111.41 498.879 111.808C501.953 112.206 504.662 112.486 505.454 113.744C506.246 115.002 507.354 117.763 509.809 116.36C512.264 114.957 515.373 112.16 516.238 115.048C517.103 117.936 519.292 121.042 520.304 119.77C521.316 118.498 522.604 121.318 523.424 118.785C524.244 116.252 525.324 114.798 526.91 117.915C528.496 121.032 528.802 121.331 530.901 120.415C533 119.499 536.411 125.006 538.682 122.943C540.953 120.88 541.84 126.771 543.56 123.327C545.28 119.883 546.668 128.541 548.574 125.758C550.48 122.975 553.361 122.109 554.225 124.992C555.089 127.875 557.565 128.878 559.185 128.203C560.805 127.528 558.674 132.24 562.768 132.569C566.862 132.898 565.685 136.521 569.78 136.851C573.875 137.181 572.222 141.043 575.349 140.66C578.476 140.277 580.779 142.425 583.964 141.86C587.149 141.295 589.869 142.778 590.639 141.027C591.409 139.276 591.875 145.227 594.571 143.704C597.267 142.181 598.379 146.143 600.171 144.324C601.963 142.505 604.583 146.758 606.86 145.296C609.137 143.834 609.91 142.686 612.086 143.996C614.262 145.306 615.567 142.526 619.317 145.146C623.067 147.766 624.577 148.055 627.271 146.53C629.965 145.005 631.06 146.56 633.886 145.878C636.712 145.196 635.912 151.336 639.198 148.003C642.484 144.67 645.353 150.003 646.898 147.703C648.443 145.403 649.677 149.003 650.21 147.979C650.743 146.955 652.241 146.036 655.263 147.82C658.285 149.604 659.403 146.164 662.425 147.946C665.447 149.728 664.988 144.376 669.703 147.109C674.418 149.842 674.657 149.719 673.317 147.683C671.977 145.647 675.028 143.037 677.941 146.383C680.854 149.729 682.977 143.817 684.036 148.564C685.095 153.311 686.59 151.794 689.11 150.813C691.63 149.832 693.41 154.813 695.075 152.151C696.74 149.489 697.386 147.5 701.446 151.019C705.506 154.538 706.458 153.45 708.315 152.052C710.172 150.654 712.786 154.303 713.669 151.588C714.552 148.873 715.748 147.661 718.715 150.226C721.682 152.791 724.936 153.249 725.348 151.982C725.76 150.715 727.248 156.603 729.333 153.882C731.418 151.161 732.397 153.076 736.682 154.668C740.967 156.26 738.338 158.809 740.966 156.26C743.594 153.711 745.883 154.06 748.309 156.447C750.735 158.834 753.693 159.595 755.126 158.26C756.559 156.925 759.713 160.741 762.479 159.649C767.76 157.562 769.607 162.965 773.57 161.849C777.533 160.733 775.87 163.396 782.123 162.627C788.376 161.858 789.247 165.341 794.287 163.377C797.257 162.219 798.517 161.21 799.987 161.448L799.987 165L0.000236928 164.995Z" fill="white" />
</svg>