<svg viewBox="0 0 11339 1418" xmlns="http://www.w3.org/2000/svg" xml:space="preserve"
    style="fill-rule:evenodd;clip-rule:evenodd;stroke-linejoin:round;stroke-miterlimit:2"><path d="M13050.1 311.076c-13.536 13.539-23.593-10.491-35.373-3.901-11.878 6.644-6.854-11.131-24.553-2.456-17.699 8.674-12.318-12.984-36.674 6.776-24.356 19.76-35.756-15.326-45.123.71-9.368 16.034-35.439 5.595-41.894 2.337-6.457-3.257-6.378-16.305-17.019-10.841-10.646 5.463-1.836-28.909-18.019-12.247-16.185 16.657-28.663-6.787-36.076.307-7.412 7.092-18.856-3.19-27.864 8.964-9.005 12.158-10.043-1.003-20.287 12.333-10.247 13.335-28.304-10.664-41.298-4.13-12.996 6.532-32.686 12.399-35.516 18.643-2.833 6.245-17.622-4.373-29.5 2.27-11.879 6.647-24.953-10.329-31.887-8.411-6.937 1.918-20.29-24.224-57.958-18.852-37.671 5.369-62.505-6.252-75.737 2.868-13.236 9.121-24.436-3.75-35.439 5.596-11.001 9.345-36.311 2.896-44.364 4.703-8.052 1.803-35.957-.987-37.712-6.383-1.753-5.4-37.706-6.383-43.008 2.224-5.302 8.61-30.174-14.768-37.191.197-7.015 14.966-27.146 1.201-32.326 8.517-5.184 7.313-29.419-10.777-32.129-5.824-2.711 4.95-26.149 2.604-26.149 2.604s-26.668-3.972-46.361 1.891c-19.69 5.866 5.623-24.242-20.247-12.468-25.871 11.772-30.774-8.299-50.703.151-19.932 8.45-10.444-8.88-34.441 7-23.777 15.732-16.698-3.441-31.692 5.619-4.645 2.805-6.03 5.807-10.854-1.086-4.825-6.892-3.504 3.422-15.976-4.058-3.229-1.936-7.55-3.503-19.666 4.514-23.997 15.879-14.509-1.451-34.439 7-19.931 8.45-24.834-11.622-50.704.151-25.871 11.773-.558-18.336-20.248-12.47-19.691 5.863-46.361 1.891-46.361 1.891s-23.436-2.342-26.149 2.606c-2.71 4.952-26.945-13.138-32.129-5.825-5.181 7.316-25.311-6.448-32.326 8.519-7.017 14.965-31.889-8.414-37.191.197-5.302 8.607-41.255 7.624-43.01 2.224-1.753-5.396-29.656-8.188-37.71-6.383-8.052 1.806-33.364-4.642-44.364 4.702-11.004 9.345-22.204-3.525-35.44 5.595-13.232 9.121-38.065-2.502-75.736 2.868-37.669 5.372-51.021-20.771-57.959-18.852-6.934 1.917-20.008-15.058-31.886-8.41-11.88 6.644-26.667-3.976-29.5 2.27-2.83 6.243-22.519 12.11-35.518 18.643-12.992 6.532-31.049-17.467-41.296-4.132-10.244 13.336-11.28.177-20.287 12.333-9.009 12.155-20.452 1.874-27.864 8.963-7.413 7.093-19.892-16.35-36.076.309-16.184 16.66-7.372-17.71-18.017-12.246-10.641 5.463-10.564-7.585-17.021-10.841-6.455-3.26-32.526-13.701-41.896 2.337-9.367 16.036-20.767-19.051-45.121.709-24.357 19.76-18.975-1.896-36.674 6.776-17.698 8.674-12.674-9.101-24.553-2.456-11.879 6.645-22.005-17.868-35.717-3.571-13.714 14.295-11.799-6.404-26.028 1.311-14.231 7.717-29.658-8.186-40.661 1.156-10.999 9.345-31.608.756-46.079 11.059-14.469 10.302-25.549-3.861-32.843 1.937-7.297 5.797-27.784-4.085-35.2 3.006-7.413 7.094-20.208-.715-26.507 6.487-6.298 7.206-15.267-5.443-26.268 3.903-11.003 9.342-22.442-.94-28.62 4.969-6.178 5.908-18.576-30.581-30.055-16.063-11.482 14.519-11.043-2.409-17.698 8.677-6.657 11.082-16.066-21.19-21.487-11.288-5.422 9.906-27.184-10.555-34.959.42-7.773 10.973-32.566 11.102-40.499 11.617-7.934.51-35.755-15.328-35.755-15.328s-41.217-17.179-51.741-13.009c-10.522 4.171-12.077-15.57-26.068-10.442-13.992 5.13-12.676-9.101-33.482-3.349-20.811 5.755-17.899-13.54-41.178-5.423-23.279 8.117-29.619 3.566-29.619 3.566s-18.255-9.659-30.252-1.722c-12 7.938-22.682 1.651-35.679 8.185-12.992 6.529-6.216-5.846-34.836-.876-28.621 4.97-21.926 5.64-39.863 16.903-17.938 11.26-31.491-.539-40.141 7.734-8.651 8.273-14.389-2.748-18.456 4.681-4.066 7.426-13.671-10.506-22.563.354-8.89 10.861-13.154-3.927-17.22 3.499-4.067 7.429-22.204-3.527-28.621 4.973-6.419 8.495-21.883 17.394-37.11 23.706-15.23 6.306-18.019-12.25-39.065-3.908-21.05 8.337-10.724-18.047-18.616-5.778-7.894 12.264-29.497 2.267-35.157 14.759-5.662 12.488-20.808 5.752-28.104 11.552-7.293 5.796-20.964-4.707-28.74 6.263-7.772 10.973-14.628-.157-28.86 7.56-14.231 7.713-21.724-8.703-30.494.867-8.767 9.565-24.274 6.71-29.458 14.022-5.182 7.318-14.786-10.617-24.553-2.455-9.769 8.166-15.148-6.738-25.792-1.273-10.641 5.464-25.671-2.567-40.14 7.734-14.47 10.306-13.434-13.091-21.726-8.698-8.289 4.394-31.371-1.832-48.95 5.547-17.58 7.383-26.785-2.679-36.792 8.07-10.005 10.75-28.381 2.386-34.561 8.294-6.179 5.91-20.447 1.873-26.268 3.901-5.82 2.03-22.48-12.695-40.299-2.726-17.819 9.97-33.364-4.642-43.65-3.059-10.282 1.581-30.652-9.595-42.172-6.83-11.521 2.767-18.497-7.072-30.137-3.013-11.639 4.058-9.805-3.592-25.631 9.187-15.825 12.778-.914-14.453-14.787-10.617-13.872 3.836-2.031-14.565-17.141-9.549-15.107 5.017 3.07-8.83-18.374-8.364-21.447.465-29.299-12.07-53.217-9.238-23.915 2.825-7.77-25.586-23.237-16.689-15.469 8.9-15.745-.267-27.625 6.377-11.877 6.646-14.746 1.136-26.266 3.901-11.521 2.762-19.613-7.184-35.597-4.865-15.986 2.318-7.613-15.127-25.431-5.158-17.819 9.968-5.862-9.725-28.142-.201-22.283 9.518-32.169-17.583-46.52-8.571-14.35 9.01-25.231-19.499-46.638-7.277-21.404 12.218-29.495 2.272-40.141 7.734-10.64 5.465-5.738-11.017-14.031-6.622-8.292 4.389-10.683-6.292-34.081 3.119-23.4 9.407-2.511-9.392-17.498-5.668-14.992 3.72-32.528-13.702-40.819-9.307-8.291 4.395-32.887-9.816-44.526-5.757-11.639 4.057-18.137-10.955-34.601-3.462-16.46 7.49-16.582 8.787-21.563 1.762-4.983-7.028-11.121 10.633-18.098.799-6.974-9.837-14.51-1.451-23.357-15.394-8.85-13.941-18.975-1.897-29.179-13.365-10.204-11.465-24.078-7.629-41.895 2.339-17.819 9.969-9.808-3.591-15.507-2.855-5.701.734-8.452-6.069-23.317-3.639-14.868 2.43-22.241-15.28-36.233-10.15-13.992 5.127-22.244-15.282-37.233-11.559-14.988 3.724-19.49-8.478-33.125-7.231-13.631 1.248-22.6-11.401-22.6-11.401l-4.823 3.434c-4.823 3.436-23.479-14.095-33.005-8.52-9.526 5.574-9.446-7.472-20.727-7.297-11.281.179-19.056 11.149-24.795.132-5.741-11.021-18.018-12.248-26.429-6.561-2.48 1.679-5.315 4.274-8.6 3.829-7.057-.957-20.243 8.408-16.291 6.064-1.163.739-2.887 1.868-3.702 2.546-9.766 8.162-17.459 6.088-35.196 3.008-17.741-3.079-26.708 20.831-46.959 8.362-20.247-12.472-23.436-2.344-44.005.818-20.571 3.165-14.87 2.43-22.363-13.985-7.495-16.416-14.429-14.501-31.371-1.833-16.941 12.666-14.51-1.451-30.494.866-15.983 2.316-3.626-9.502-20.768-19.051-17.139-9.547-33.92 13.58-41.136 6.331-7.214-7.251-25.67-2.568-34.759-13.922-9.09-11.352-24.514 9.299-34.838-.874-10.325-10.17-27.266 2.496-49.35-2.325-22.082-4.819-27.224 14.252-36.434 4.191-9.205-10.062-14.867 2.429-34.718-2.169-19.851-4.596-13.474 11.709-33.564 9.7-20.09-2.01-25.789-1.274-41.136 6.331-15.346 7.601-22.323-2.233-36.832-3.685-14.512-1.451-19.654 17.617-34.68 9.586-15.027-8.029-18.456 4.681-41.775 1.045-23.32-3.64-28.701 18.016-38.267 11.839-9.568-6.18-29.379.976-33.842.529-4.466-.445-25.991 13.07-35.318 4.302-9.327-8.769-23.437-2.345-30.137-3.015-6.695-.669-20.448 1.873-43.01 2.228-22.561.354-23.997 15.878-46.318 13.646-22.323-2.233-24.676-1.164-38.785 5.26-14.111 6.419-12.399.064-29.858 6.154-17.459 6.084-16.862-.383-30.017-4.312-13.152-3.923-19.808 7.158-33.202 5.819-13.393-1.34-10.404 2.877-21.207-2.121-10.803-4.997-27.384 3.791-43.01 2.227-15.627-1.562-13.353 10.417-26.747 9.076-13.392-1.339-24.157 5.417-45.084 12.463-20.927 7.046-15.585 10.188-36.792 8.067-21.205-2.121-17.819 9.969-33.443 8.407-15.627-1.564-19.572 4.571-29.219 11.437-9.646 6.87-25.071-9.033-45.362 3.298-20.29 12.331-21.326-.827-34.082 3.121-12.757 3.945-12.956 18.289-35.277 16.056-22.323-2.232-11.362 13.221-35.918 10.765-24.553-2.456-11 9.346-25.509 7.895-14.512-1.45-18.219 2.098-31.613.758-13.391-1.339-22.442-.94-33.083 4.523-10.644 5.463-19.095-.603-34.321 5.707-15.227 6.311-15.866 1.024-28.741 6.264-12.877 5.243-25.272 5.307-31.571 12.51-6.299 7.204-22.92 4.236-22.92 4.236s-19.094-.604-23.16 6.823c-4.067 7.429-15.466 8.897-35.159 14.762-19.692 5.864-9.846-15.346-29.021-2.901-19.175 12.439-15.985 2.316-20.209-.719-4.226-3.035-14.154-5.333-25.554-3.86-11.4 1.468-12.276-1.229-20.568 3.164-8.292 4.393-10.684-6.29-21.443.466-10.764 6.759-12.518 1.359-20.811 5.753-8.288 4.39-9.803-3.593-13.51-.048-3.71 3.546-14.789-10.617-27.904-2.791-13.117 7.828-14.789-10.618-29.739 4.858-14.949 15.481-20.449 1.875-32.686 12.398-12.238 10.529-18.336 3.391-39.743 15.61-21.405 12.22-16.342 6.2-36.432 4.191-20.093-2.009-14.631-.16-35.797 9.476-21.166 9.629-22.323-2.233-35.197 3.009-12.877 5.24-12.317-12.984-29.14-1.611-16.819 11.373-28.261 1.088-36.072.307-7.813-.782-9.172 1.692-28.463 15.434-19.292 13.736-24.155 5.415-39.504 13.021-15.347 7.605-12.874 5.24-29.736 4.859-16.861-.38-9.167 1.693-28.62 4.971-19.452 3.274-13.791-9.213-21.087-3.415-7.294 5.797-9.168 1.692-17.818 9.966-8.648 8.276-19.492-8.476-34.12-8.635-14.629-.157-16.264-6.846-34.082 3.119-17.819 9.969-18.096.8-35.794 9.477-17.699 8.674-22.044 6.932-37.27 13.247-15.227 6.309-21.206-2.121-37.548 4.076-16.345 6.198-12.436-11.689-33.723-.761-21.288 10.926-22.323-2.233-39.901 5.147-17.579 7.381-22.682 1.649-34.441 7.001-11.759 5.352-27.505 5.079-38.388 13.132-10.881 8.051-32.605-.652-40.5 11.617-7.891 12.267-17.378-6.962-38.825-6.496-21.444.467-2.669 16.706-22.759 14.695-20.09-2.009-7.535 8.387-24.277 6.713-16.742-1.674-15.705 11.485-31.329 9.921-15.627-1.562-20.452 1.872-31.493-.54-11.041-2.409-38.665 3.967-38.665 3.967s-26.387 5.196-41.138 6.329c-14.748 1.136-39.383 11.729-48.032 20.003-8.65 8.274-16.464 7.492-29.338 12.734-12.875 5.242-20.33.579-28.86 7.557-8.531 6.98-25.909.02-43.847 11.283-17.939 11.261-20.689 4.46-32.328 8.516-11.639 4.059-18.099.799-30.217 10.034-12.118 9.234-18.178 13.849-35.794 9.475-17.62-4.371-18.578 5.977-27.146 1.203-8.569-4.774-22.682 1.649-32.246-4.532-9.567-6.177-24.836-11.622-25.912.019-1.077 11.646-9.647 6.87-23.877 14.583-14.229 7.719-14.906-9.323-33.364-4.64-18.455 4.681 4.624 10.906-13.195 20.877-17.819 9.966-23.079-6.226-38.664 3.962-15.586 10.192-10.684-6.289-23.92 2.831-13.233 9.123-12.036-3.815-25.03 2.718-12.997 6.537-9.806-3.592-20.212-.716-10.402 2.877 1.036 13.161-13.832 15.588-14.868 2.432-9.009 12.157-22.403 10.818-13.391-1.34-15.586 10.188-25.27 5.302-9.688-4.882-25.793-1.27-45.882-3.279-20.088-2.009-26.746 9.072-42.373 7.51-15.623-1.564-19.809 7.158-32.088 5.93-12.276-1.227-19.693 5.864-27.742 7.669-8.053 1.808-15.637 8.091-21.412 12.274-5.779 4.183-5.794-2.618-10.526-5.801-2.763-1.857-8.96-3.065-13.148-7.877-11.198-12.872-9.009 12.157-27.783-4.085-18.773-16.239-31.409-13.589-39.82-7.9-8.411 5.688-20.688 4.461-26.429-6.56-5.738-11.018-13.513-.047-24.795.13-11.281.176-11.2-12.87-20.726-7.297-9.526 5.577-28.183-11.955-33.005-8.519l-4.823 3.433s-8.968-12.648-22.601-11.399c-13.633 1.247-18.138-10.953-33.126-7.229-14.987 3.721-23.239-16.688-37.231-11.561-13.99 5.128-21.365-12.58-36.233-10.15-14.868 2.431-17.618-4.372-23.317-3.638-5.701.737 2.31-12.825-15.507-2.855-17.819 9.966-31.691 13.802-41.895 2.338-10.204-11.466-20.329.576-29.179-13.364-8.848-13.944-16.383-5.557-23.356-15.395-6.977-9.834-13.117 7.828-18.099.801-4.983-7.027-5.103-5.73-21.563 1.762-16.464 7.491-22.962-7.52-34.601-3.462-11.64 4.061-36.234-10.15-44.525-5.758-8.291 4.395-25.829-13.027-40.819-9.304-14.987 3.724 5.901-15.076-17.498-5.67-23.398 9.411-25.789-1.27-34.081 3.119-8.292 4.395-3.39-12.085-14.031-6.622-10.644 5.462-18.735-4.485-40.14 7.734-21.406 12.222-32.288-16.287-46.639-7.275-14.35 9.012-24.235-18.089-46.518-8.571-22.281 9.524-10.325-10.169-28.142-.203-17.819 9.969-9.446-7.473-25.432-5.156-15.985 2.318-24.077-7.626-35.595-4.866-11.521 2.765-14.389-2.746-26.268 3.901-11.879 6.648-12.158-2.522-27.625 6.378-15.466 8.895.678-19.516-23.237-16.689-23.918 2.83-31.77-9.705-53.215-9.238-21.445.467-3.269-13.381-18.376-8.365-15.109 5.017-3.269-13.384-17.141-9.547-13.873 3.834 1.037-23.397-14.786-10.619-15.828 12.779-13.993 5.13-25.632 9.189-11.639 4.058-18.616-5.779-30.135-3.014-11.522 2.766-31.892-8.412-42.174-6.829-10.285 1.583-25.831-13.032-43.65-3.061s-34.479-4.755-40.298-2.726c-5.82 2.028-20.09-2.009-26.268 3.902-6.179 5.91-24.556-2.457-34.56 8.293-10.008 10.751-19.214.689-36.794 8.072-17.579 7.378-40.659 1.151-48.949 5.546-8.292 4.393-7.257-19.004-21.725-8.7-14.471 10.301-29.499 2.27-40.14 7.734-10.644 5.465-16.024-9.437-25.793-1.273-9.766 8.164-19.372-9.771-24.553-2.455-5.183 7.312-20.69 4.457-29.458 14.023-8.771 9.569-16.264-6.847-30.495.866-14.231 7.717-21.087-3.415-28.86 7.56-7.774 10.972-21.447.466-28.74 6.263-7.297 5.8-22.442-.937-28.104 11.552-5.658 12.49-27.263 2.493-35.158 14.759-7.892 12.269 2.434-14.115-18.616-5.778-21.047 8.341-23.835-10.214-39.063-3.907-15.227 6.311-30.693 15.211-37.111 23.706-6.418 8.498-24.555-2.456-28.62 4.973-4.066 7.427-8.331-7.36-17.221 3.498-8.892 10.861-18.498-7.071-22.564.354-4.065 7.429-9.804-3.592-18.454 4.683-8.651 8.275-22.204-3.525-40.141 7.735-17.938 11.263-11.243 11.933-39.864 16.902-28.62 4.972-21.844-7.406-34.836-.875-12.997 6.534-23.679.246-35.677 8.185-12 7.937-30.254-1.722-30.254-1.722s-6.34-4.551-29.619 3.566c-23.28 8.115-20.366-11.176-41.176-5.422-20.808 5.75-19.493-8.478-33.484-3.35-13.989 5.128-15.545-14.612-26.068-10.442-10.525 4.169-51.74-13.009-51.74-13.009s-27.822-15.84-35.754-15.328c-7.934.514-32.728.643-40.5 11.618-7.774 10.973-29.538-9.484-34.96.419-5.419 9.902-14.829-22.373-21.485-11.29-6.657 11.087-6.218-5.841-17.699 8.679-11.479 14.517-23.876-21.973-30.056-16.062-6.179 5.908-17.616-4.374-28.62 4.97-10.999 9.344-19.969-3.304-26.268 3.901-6.299 7.202-19.094-.605-26.507 6.489-7.417 7.091-27.904-2.791-35.199 3.006-7.294 5.8-18.375-8.365-32.844 1.936-14.471 10.305-35.08 1.714-46.08 11.059-11.003 9.344-26.43-6.56-40.66 1.156-14.229 7.717-12.315-12.982-26.03 1.313-13.71 14.297-23.836-10.215-35.715-3.571-11.879 6.644-6.854-11.13-24.553-2.455-17.699 8.674-12.318-12.985-36.674 6.775-24.356 19.762-35.755-15.325-45.123.711-9.368 16.035-35.439 5.595-41.894 2.337-6.457-3.257-6.378-16.304-17.021-10.841-10.644 5.465-1.833-28.907-18.018-12.245-16.183 16.657-28.661-6.787-36.075.307-7.413 7.091-18.856-3.19-27.864 8.966-9.006 12.156-10.043-1.005-20.287 12.331-10.247 13.334-28.304-10.664-41.298-4.13-12.996 6.532-32.687 12.399-35.516 18.643-2.832 6.245-17.621-4.373-29.499 2.272-11.879 6.645-24.953-10.331-31.889-8.411-6.937 1.917-20.288-24.224-57.958-18.852-37.67 5.37-62.505-6.253-75.737 2.868-13.235 9.12-24.436-3.75-35.439 5.595-11 9.344-36.312 2.896-44.364 4.704-8.053 1.803-35.956-.987-37.711-6.384-1.753-5.399-37.706-6.382-43.008 2.224-5.303 8.61-30.174-14.768-37.191.198-7.016 14.965-27.148 1.201-32.328 8.517-5.183 7.313-29.418-10.778-32.129-5.825-2.711 4.95-26.149 2.604-26.149 2.604s-26.668-3.972-46.361 1.892c-19.69 5.865 5.623-24.243-20.247-12.469-25.871 11.774-30.774-8.299-50.704.151-19.932 8.45-10.444-8.88-34.441 7-23.777 15.732-16.698-3.441-31.692 5.619-4.645 2.805-6.03 5.807-10.855-1.086-4.824-6.892-3.503 3.421-15.975-4.058-3.229-1.935-7.551-3.503-19.666 4.514-23.997 15.88-14.509-1.45-34.44 7-19.93 8.45-24.833-11.621-50.704.152-25.871 11.774-.557-18.335-20.247-12.471-19.692 5.864-46.361 1.892-46.361 1.892s-23.436-2.345-26.149 2.605c-2.71 4.951-26.946-13.137-32.129-5.825-5.182 7.316-25.311-6.448-32.327 8.519-7.017 14.965-31.888-8.414-37.19.197-5.302 8.607-41.256 7.624-43.01 2.224-1.753-5.396-29.657-8.187-37.71-6.383-8.052 1.806-33.364-4.642-44.364 4.702-11.004 9.345-22.205-3.525-35.44 5.595-13.232 9.121-38.065-2.502-75.736 2.868-37.669 5.372-51.021-20.771-57.959-18.853-6.934 1.918-20.008-15.057-31.886-8.409-11.88 6.644-26.667-3.975-29.5 2.27-2.83 6.244-22.519 12.111-35.518 18.643-12.992 6.532-31.049-17.466-41.296-4.13-10.244 13.336-11.281.177-20.287 12.331-9.009 12.155-20.452 1.874-27.865 8.964-7.412 7.092-19.891-16.35-36.075.309-16.184 16.66-7.372-17.71-18.017-12.247-10.642 5.463-10.564-7.584-17.021-10.839-6.455-3.26-32.528-13.701-41.896 2.337-9.367 16.036-20.767-19.051-45.122.709-24.357 19.76-18.974-1.897-36.673 6.776-17.698 8.674-12.675-9.1-24.553-2.454-11.879 6.644-22.005-17.868-35.717-3.572-13.715 14.295-11.8-6.403-26.028 1.312-14.232 7.716-29.659-8.186-40.662 1.156-10.998 9.344-31.608.756-46.079 11.06-14.469 10.302-25.548-3.863-32.842 1.936-7.298 5.796-27.785-4.086-35.2 3.007-7.413 7.093-20.208-.715-26.507 6.487-6.298 7.206-15.268-5.443-26.268 3.903-11.003 9.342-22.443-.94-28.621 4.969-6.179 5.91-18.576-30.581-30.055-16.063-11.482 14.519-11.042-2.411-17.698 8.677-6.656 11.082-16.066-21.19-21.486-11.288-5.422 9.904-27.185-10.555-34.959.42-7.773 10.973-32.567 11.102-40.5 11.617-7.933.51-35.754-15.328-35.754-15.328s-41.217-17.179-51.742-13.01c-10.521 4.171-12.077-15.571-26.067-10.442-13.993 5.129-12.676-9.102-33.483-3.35-20.81 5.754-17.899-13.538-41.178-5.423-23.278 8.116-29.618 3.565-29.618 3.565s-18.254-9.657-30.253-1.721c-11.999 7.94-22.682 1.651-35.678 8.185-12.992 6.53-6.216-5.846-34.837-.876-28.62 4.97-21.925 5.64-39.862 16.904-17.939 11.26-31.492-.54-40.142 7.735-8.649 8.273-14.389-2.748-18.454 4.681-4.066 7.426-13.671-10.505-22.563.354-8.89 10.862-13.155-3.927-17.222 3.499-4.065 7.429-22.202-3.525-28.621 4.972-6.418 8.496-21.883 17.395-37.11 23.707-15.228 6.308-18.017-12.248-39.065-3.906-21.049 8.337-10.724-18.047-18.615-5.778-7.894 12.264-29.498 2.267-35.158 14.761-5.662 12.487-20.808 5.752-28.104 11.552-7.293 5.797-20.964-4.708-28.74 6.262-7.771 10.973-14.628-.156-28.86 7.56-14.231 7.713-21.724-8.703-30.494.866-8.767 9.564-24.274 6.709-29.458 14.022-5.181 7.318-14.786-10.616-24.553-2.456-9.768 8.166-15.148-6.735-25.793-1.272-10.641 5.463-25.67-2.568-40.139 7.734-14.47 10.306-13.433-13.09-21.726-8.699-8.289 4.395-31.37-1.832-48.95 5.548-17.579 7.383-26.784-2.681-36.792 8.07-10.005 10.75-28.381 2.384-34.56 8.294-6.18 5.91-20.448 1.873-26.268 3.901-5.821 2.029-22.481-12.695-40.299-2.726-17.819 9.969-33.364-4.642-43.651-3.06-10.282 1.582-30.652-9.595-42.172-6.829-11.521 2.766-18.497-7.073-30.136-3.013-11.64 4.057-9.805-3.592-25.632 9.187-15.825 12.778-.914-14.453-14.786-10.618-13.873 3.836-2.032-14.565-17.142-9.548-15.108 5.016 3.071-8.83-18.374-8.365-21.447.467-29.299-12.07-53.217-9.238-23.915 2.826-7.77-25.586-23.236-16.689-15.469 8.9-15.745-.266-27.625 6.378-11.878 6.645-14.747 1.136-26.268 3.901-11.52 2.762-19.611-7.184-35.597-4.866-15.986 2.318-7.613-15.127-25.431-5.157-17.819 9.967-5.862-9.726-28.144-.202-22.283 9.518-32.167-17.583-46.519-8.571-14.35 9.011-25.232-19.499-46.638-7.276-21.406 12.219-29.495 2.272-40.142 7.733-10.64 5.465-5.737-11.016-14.03-6.622-8.292 4.389-10.683-6.292-34.082 3.119-23.399 9.408-2.51-9.392-17.498-5.668-14.991 3.721-32.528-13.702-40.818-9.306-8.292 4.394-32.887-9.817-44.526-5.758-11.64 4.058-18.137-10.954-34.602-3.461-16.46 7.49-16.581 8.787-21.564 1.761-4.981-7.027-11.121 10.635-18.097.799-6.975-9.837-14.51-1.451-23.358-15.393-8.85-13.942-18.975-1.898-29.179-13.364-5.211-5.856-11.381-7.713-18.542-6.809l136.828-1944.08 15376.4 1082.22-32.48 461.477.015.001.039.007Z" style="fill:#fff1f7;fill-rule:nonzero"/><path d="M11347.6 252.861c-9.934 8.414-17.351-6.998-26.002-2.975-8.724 4.056-5.049-7.17-18.049-1.905-12.999 5.264-9.067-8.424-26.948 3.793-17.881 12.216-26.295-10.242-33.163-.182-6.87 10.059-26.042 3.059-30.79.898-4.749-2.16-4.704-10.451-12.52-7.128-7.818 3.323-1.379-18.397-13.256-8.035-11.879 10.359-21.073-4.715-26.514-.31-5.441 4.402-13.863-2.292-20.471 5.306-6.607 7.6-7.383-.779-14.898 7.553-7.518 8.331-20.814-7.174-30.357-3.203-9.546 3.969-24.012 7.422-26.086 11.35-2.075 3.929-12.956-3.026-21.679 1.029-8.724 4.058-18.351-6.914-23.446-5.792-5.096 1.122-14.937-15.679-42.617-12.792-27.682 2.884-45.947-4.85-55.662.761-9.719 5.611-17.964-2.726-26.042 3.059-8.075 5.785-26.685 1.332-32.602 2.368-5.916 1.033-26.429-1.131-27.724-4.585-1.294-3.456-27.72-4.585-31.608.81-3.888 5.398-22.192-9.808-27.334-.395-5.141 9.412-19.951.383-23.751 4.959-3.802 4.575-21.633-7.261-23.62-4.151-1.988 3.107-19.217 1.288-19.217 1.288s-19.604-2.898-34.072.553c-14.466 3.451 4.108-15.328-14.895-8.208-19.002 7.119-22.626-5.706-37.265-.615-14.641 5.091-7.685-5.789-25.307 3.966-17.459 9.665-12.276-2.42-23.287 3.127-3.411 1.718-4.426 3.606-7.979-.842-3.553-4.447-2.571 2.126-11.746-2.803-2.375-1.275-5.553-2.332-14.449 2.593-17.622 9.756-10.666-1.125-25.306 3.966s-18.264-7.733-37.266-.614c-19.003 7.119-.429-11.661-14.895-8.209-14.467 3.451-34.072.553-34.072.553s-17.228-1.818-19.217 1.289c-1.987 3.109-19.818-8.727-23.62-4.152-3.801 4.577-18.61-4.452-23.751 4.961-5.142 9.412-23.446-5.794-27.334-.396-3.888 5.396-30.314 4.267-31.609.811-1.294-3.454-21.806-5.619-27.723-4.585-5.916 1.035-24.527-3.418-32.602 2.366-8.079 5.785-16.324-2.551-26.043 3.059-9.715 5.611-27.979-2.123-55.661.762-27.681 2.886-37.521-13.915-42.618-12.793-5.095 1.121-14.722-9.85-23.445-5.792-8.724 4.056-19.604-2.9-21.679 1.03-2.074 3.928-16.539 7.381-26.087 11.35-9.542 3.969-22.838-11.535-30.356-3.205-7.515 8.332-8.29-.045-14.898 7.554-6.609 7.598-15.03.904-20.47 5.306-5.442 4.403-14.637-10.67-26.515-.309-11.878 10.36-5.437-11.359-13.255-8.036-7.816 3.323-7.772-4.968-12.521-7.128-4.748-2.162-23.92-9.162-30.791.898-6.868 10.06-15.282-12.398-33.162-.181-17.882 12.216-13.949-1.471-26.948 3.792-12.999 5.265-9.325-5.961-18.049-1.904-8.724 4.055-16.191-11.664-26.255-2.771-10.065 8.893-8.679-4.235-19.129.469-10.452 4.704-21.806-5.618-29.884.165-8.074 5.784-23.231.037-33.856 6.382-10.624 6.344-18.781-2.812-24.137.771-5.357 3.582-20.425-2.986-25.868 1.417-5.441 4.404-14.853-.738-19.476 3.751-4.621 4.491-11.227-3.673-19.302 2.112-8.078 5.783-16.496-.912-21.031 2.757-4.534 3.668-13.684-19.695-22.106-10.629-8.424 9.066-8.119-1.686-12.999 5.266-4.881 6.95-11.83-13.692-15.804-7.474-3.975 6.219-19.991-7.089-25.694-.224-5.702 6.865-23.924 6.599-29.754 6.816-5.831.213-26.295-10.243-26.295-10.243s-30.312-11.495-38.042-8.992c-7.729 2.504-8.893-10.064-19.171-7.001-10.278 3.064-9.325-5.962-24.612-2.598-15.29 3.366-13.169-8.855-30.271-4.023-17.101 4.832-21.765 1.851-21.765 1.851s-13.428-6.394-22.237-1.518c-8.811 4.877-16.669.731-26.215 4.702-9.542 3.967-4.574-3.803-25.605-1.045-21.03 2.757-16.109 3.277-29.281 10.183-13.173 6.905-23.146-.784-29.496 4.353-6.349 5.136-10.578-1.948-13.559 2.716-2.981 4.663-10.059-6.868-16.584-.091-6.522 6.778-9.672-2.68-12.653 1.982-2.981 4.665-16.322-2.552-21.03 2.76-4.709 5.308-16.067 10.747-27.252 14.545-11.186 3.794-13.256-8.037-28.715-3.031-15.463 5.003-7.901-11.619-13.689-3.933-5.789 7.683-21.677 1.028-25.825 8.887-4.149 7.857-15.287 3.364-20.644 6.948-5.354 3.581-15.413-3.286-21.117 3.577-5.701 6.865-10.752-.305-21.204 4.4-10.451 4.702-15.976-5.835-22.412.124-6.434 5.955-17.834 3.924-21.637 8.498-3.8 4.578-10.878-6.954-18.048-1.905-7.171 5.053-11.141-4.493-18.958-1.169-7.816 3.323-18.871-1.992-29.495 4.352-10.624 6.347-9.886-8.508-15.977-5.832-6.087 2.676-23.058-1.604-35.971 2.839-12.913 4.446-19.689-2.078-27.034 4.613-7.342 6.692-20.857 1.118-25.393 4.787-4.535 3.669-15.026.904-19.302 2.111-4.276 1.208-16.536-8.383-29.622-2.297-13.087 6.086-24.527-3.418-32.086-2.556-7.555.861-22.538-6.527-31.002-4.931-8.465 1.596-13.603-4.754-22.154-2.338-8.55 2.416-7.21-2.42-18.829 5.48-11.618 7.898-.686-9.198-10.879-6.955-10.192 2.243-1.508-9.284-12.608-6.308-11.098 2.976 2.248-5.569-13.513-5.573-15.763-.005-21.547-8.081-39.123-6.617-17.575 1.461-5.738-16.369-17.096-10.932-11.36 5.44-11.573-.39-20.297 3.666-8.723 4.057-10.838.516-19.302 2.111-8.465 1.594-14.422-4.84-26.168-3.591-11.747 1.25-5.611-9.719-18.697-3.634-13.086 6.085-4.318-6.262-20.684-.522-16.368 5.737-23.661-11.625-34.2-6.099-10.537 5.526-18.565-12.745-34.285-5.278-15.72 7.465-21.676 1.031-29.496 4.353-7.814 3.324-4.228-7.082-10.319-4.405-6.09 2.673-7.858-4.148-25.046 1.504-17.189 5.651-1.855-6.003-12.867-3.847-11.014 2.155-23.921-9.163-30.01-6.486-6.09 2.676-24.181-6.7-32.732-4.283-8.551 2.415-13.342-7.216-25.435-2.685-12.09 4.53-12.178 5.352-15.847.818-3.669-4.536-8.162 6.601-13.3.254-5.137-6.35-10.666-1.125-17.183-10.11-6.519-8.984-13.948-1.472-21.46-8.903-7.511-7.429-17.704-5.186-30.79.899-13.086 6.086-7.212-2.419-11.4-2.031-4.189.386-6.218-3.975-17.141-2.639-10.926 1.336-16.363-10.022-26.642-6.959-10.278 3.062-16.364-10.023-27.377-7.867-11.012 2.156-14.334-5.661-24.353-5.059-10.018.601-16.623-7.563-16.623-7.563l-3.542 2.115c-3.54 2.116-17.271-9.286-24.267-5.877-6.995 3.409-6.95-4.881-15.24-4.928-8.292-.044-13.995 6.818-18.224-.263-4.231-7.085-13.256-8.037-19.432-4.54-1.821 1.032-3.902 2.641-6.317 2.313-5.188-.708-14.87 5.059-11.968 3.625-.853.453-2.12 1.147-2.718 1.566-7.169 5.05-12.825 3.624-25.865 1.418-13.043-2.205-19.609 12.864-34.506 4.657-14.894-8.21-17.228-1.819-32.342-.097-15.116 1.723-10.927 1.336-16.451-9.201-5.525-10.538-10.62-9.418-23.059-1.605-12.438 7.812-10.666-1.125-22.412.123-11.744 1.249-2.674-6.089-15.284-12.398-12.606-6.307-24.916 8.155-30.227 3.447-5.31-4.709-18.87-1.991-25.562-9.335-6.692-7.341-18.007 5.567-25.606-1.043-7.599-6.608-20.038 1.204-36.274-2.169-16.235-3.372-19.994 8.676-26.774 2.153-6.776-6.524-10.924 1.335-25.52-1.865-14.594-3.199-9.891 7.252-24.659 5.694-14.767-1.558-18.956-1.171-30.227 3.447-11.272 4.616-16.409-1.732-27.075-2.858-10.668-1.125-14.427 10.921-25.479 5.606-11.053-5.313-13.561 2.717-30.703.079-17.144-2.64-21.077 11.047-28.114 6.987-7.039-4.061-21.592.209-24.873-.137-3.283-.346-19.089 7.941-25.954 2.238-6.863-5.703-17.228-1.818-22.153-2.338-4.921-.519-15.027.904-31.609.814-16.582-.091-17.621 9.754-34.03 8.022-16.409-1.731-18.137-1.085-28.5 2.8-10.365 3.882-9.113-.133-21.939 3.492-12.826 3.622-12.394-.479-22.066-3.16-9.671-2.678-14.552 4.271-24.397 3.232-9.846-1.039-7.645 1.683-15.59-1.645-7.945-3.327-20.122 2.026-31.609.813-11.487-1.212-9.804 6.432-19.649 5.393-9.845-1.039-17.75 3.104-33.124 7.288-15.373 4.185-11.444 6.257-27.033 4.612-15.588-1.645-13.087 6.085-24.572 4.874-11.486-1.213-14.38 2.631-21.463 6.859-7.083 4.23-18.436-6.092-33.337 1.46-14.9 7.552-15.676-.825-25.047 1.505-9.372 2.329-9.504 11.442-25.912 9.71-16.409-1.732-8.337 8.243-26.388 6.338-18.048-1.905-8.075 5.785-18.74 4.66-10.668-1.125-13.389 1.078-23.234.038-9.844-1.038-16.496-.912-24.312 2.411-7.817 3.323-14.034-.651-25.219 3.146-11.185 3.798-11.66.429-21.117 3.579-9.46 3.151-18.57 3.018-23.192 7.507-4.623 4.49-16.842 2.371-16.842 2.371s-14.034-.651-17.015 4.011c-2.981 4.665-11.358 5.438-25.826 8.889-14.467 3.451-7.253-9.89-21.333-2.25-14.081 7.636-11.747 1.248-14.854-.74-3.11-1.988-10.408-3.587-18.786-2.811-8.377.773-9.024-.953-15.114 1.722-6.09 2.676-7.859-4.147-15.76-.004-7.904 4.144-9.199.688-15.289 3.365-6.088 2.673-7.209-2.421-9.93-.22-2.723 2.201-10.881-6.955-20.512-2.165-9.632 4.791-10.881-6.955-21.852 2.671-10.972 9.628-15.028.904-24.012 7.421-8.984 6.52-13.473 1.897-29.195 9.363-15.719 7.466-12.004 3.711-26.772 2.153-14.77-1.559-10.754-.307-26.3 5.52-15.548 5.823-16.41-1.731-25.867 1.419-9.459 3.15-9.065-8.424-21.419-1.431-12.35 6.991-20.77.295-26.512-.311-5.743-.607-6.739.947-20.904 9.409-14.165 8.46-17.748 3.103-29.022 7.722-11.271 4.618-9.456 3.15-21.85 2.671-12.393-.478-6.736.947-21.03 2.758-14.294 1.809-10.146-6.048-15.502-2.465-5.355 3.581-6.737.946-13.086 6.084-6.348 5.137-14.335-5.66-25.087-5.967-10.752-.304-11.96-4.578-25.046 1.505-13.087 6.086-13.3.255-26.299 5.521-12.999 5.265-16.194 4.096-27.379 7.897-11.185 3.796-15.588-1.645-27.593 2.064-12.006 3.709-9.152-7.603-24.786-.956-15.635 6.645-16.41-1.732-29.322 2.711-12.913 4.445-16.669.731-25.306 3.967s-20.211 2.842-28.202 7.807c-7.988 4.965-23.964-.87-29.754 6.816-5.788 7.685-12.78-4.668-28.543-4.673-15.76-.003-1.944 10.58-16.712 9.021-14.768-1.559-5.53 5.224-17.837 3.925-12.306-1.298-11.531 7.079-23.016 5.866-11.487-1.211-15.03.903-23.147-.784-8.118-1.686-28.414 1.979-28.414 1.979s-19.389 2.933-30.23 3.446c-10.838.515-28.933 6.902-35.282 12.039-6.349 5.137-12.093 4.531-21.55 7.681-9.457 3.151-14.941.083-21.204 4.398-6.263 4.317-19.042-.35-32.216 6.557-13.172 6.904-15.2 2.544-23.751 4.958-8.551 2.417-13.302.255-22.199 5.954-8.897 5.698-13.346 8.546-26.298 5.52-12.955-3.025-13.648 3.538-19.951.384-6.303-3.155-16.669.73-23.705-3.332-7.038-4.06-18.266-7.734-19.045-.352-.779 7.387-7.083 4.232-17.534 8.934-10.45 4.706-10.965-6.134-24.527-3.417-13.559 2.717 3.41 6.996-9.677 13.083-13.086 6.084-16.969-4.28-28.413 1.976-11.445 6.259-7.859-4.146-17.578 1.464-9.717 5.612-8.85-2.593-18.394 1.377-9.546 3.972-7.211-2.421-14.856-.738-7.643 1.682.775 8.378-10.15 9.712-10.925 1.337-6.61 7.6-16.455 6.561-9.844-1.039-11.445 6.256-18.567 3.016-7.126-3.239-18.96-1.169-33.726-2.728-14.767-1.558-19.649 5.391-31.136 4.179-11.485-1.212-14.553 4.272-23.578 3.32-9.024-.952-14.468 3.45-20.383 4.484-5.917 1.036-11.484 4.923-15.725 7.501-4.243 2.577-4.26-1.745-7.742-3.834-2.033-1.219-6.589-2.074-9.671-5.19-8.245-8.338-6.61 7.599-20.425-2.986-13.814-10.583-23.099-9.076-29.275-5.579-6.176 3.498-15.201 2.546-19.431-4.539-4.23-7.082-9.932-.219-18.224-.264-8.292-.047-8.245-8.337-15.241-4.928-6.996 3.41-20.726-7.993-24.267-5.877l-3.542 2.115s-6.603-8.164-16.622-7.562c-10.019.602-13.343-7.214-24.355-5.058-11.011 2.155-17.097-10.93-27.376-7.868-10.278 3.063-15.716-8.295-26.641-6.959-10.925 1.337-12.953-3.025-17.141-2.639-4.19.389 1.685-8.117-11.401-2.031-13.086 6.084-23.278 8.327-30.789.899-7.512-7.43-14.941.081-21.46-8.902-6.517-8.986-12.047-3.761-17.183-10.111-5.137-6.347-9.632 4.791-13.301.255-3.67-4.535-3.756-3.713-15.847.818-12.093 4.53-16.884-5.1-25.435-2.685-8.55 2.418-26.641-6.958-32.73-4.283-6.09 2.677-18.998-8.641-30.011-6.485-11.012 2.157 4.321-9.498-12.867-3.848-17.188 5.653-18.956-1.169-25.046 1.504-6.09 2.677-2.503-7.728-10.319-4.405-7.817 3.322-13.775-3.113-29.494 4.353-15.721 7.467-23.748-10.803-34.287-5.277-10.538 5.526-17.831-11.835-34.199-6.099-16.366 5.741-7.599-6.607-20.684-.523-13.086 6.086-6.95-4.882-18.697-3.633-11.747 1.249-17.704-5.184-26.167-3.591-8.465 1.596-10.579-1.947-19.302 2.111-8.724 4.058-8.939-1.774-20.298 3.666-11.358 5.436.479-12.394-17.096-10.932-17.576 1.464-23.36-6.613-39.122-6.616-15.761-.004-2.415-8.55-13.514-5.574-11.1 2.977-2.416-8.551-12.608-6.307-10.192 2.242.738-14.854-10.879-6.956-11.62 7.9-10.279 3.064-18.829 5.481-8.551 2.415-13.688-3.934-22.152-2.338-8.466 1.596-23.449-5.793-31.004-4.931-7.558.862-18.999-8.644-32.085-2.557-13.087 6.087-25.347-3.505-29.622-2.297-4.275 1.208-14.767-1.558-19.302 2.111-4.536 3.67-18.051-1.905-25.393 4.787-7.345 6.692-14.121.168-27.035 4.614-12.913 4.442-29.882.162-35.971 2.839-6.09 2.675-5.353-12.18-15.976-5.834-10.625 6.344-21.679 1.03-29.495 4.353-7.817 3.323-11.786-6.222-18.959-1.17-7.169 5.051-14.248-6.482-18.048-1.905-3.802 4.575-15.202 2.543-21.637 8.499-6.436 5.959-11.96-4.579-22.412.123-10.452 4.705-15.502-2.465-21.204 4.4-5.703 6.864-15.763-.004-21.117 3.577-5.358 3.584-16.496-.91-20.644 6.948-4.146 7.859-20.036 1.203-25.826 8.887-5.788 7.686 1.774-8.936-13.688-3.933-15.461 5.006-17.529-6.825-28.715-3.03-11.185 3.797-22.544 9.237-27.251 14.545-4.709 5.311-18.051-1.905-21.031 2.76-2.981 4.662-6.131-4.795-12.653 1.981-6.525 6.778-13.604-4.752-16.585-.091-2.98 4.664-7.209-2.42-13.558 2.717-6.35 5.138-16.323-2.551-29.495 4.354-13.173 6.906-8.251 7.426-29.282 10.183-21.03 2.758-16.063-5.013-25.605-1.044-9.546 3.97-17.403-.176-26.214 4.701-8.811 4.876-22.238-1.518-22.238-1.518s-4.664-2.981-21.765 1.851c-17.102 4.831-14.98-7.388-30.27-4.023-15.287 3.363-14.336-5.661-24.613-2.598-10.277 3.063-11.441-9.503-19.17-7.001-7.732 2.502-38.042-8.992-38.042-8.992s-20.465-10.457-26.295-10.242c-5.83.215-24.053-.051-29.754 6.815-5.703 6.865-21.72-6.441-25.695-.224-3.973 6.218-10.922-14.425-15.803-7.475-4.881 6.952-4.576-3.8-13 5.267-8.421 9.065-17.57-14.298-22.106-10.629-4.536 3.669-12.952-3.026-21.031 2.758-8.074 5.784-14.68-2.379-19.302 2.111-4.622 4.489-14.035-.652-19.476 3.752-5.444 4.403-20.512-2.165-25.867 1.417-5.356 3.584-13.514-5.573-24.138.771-10.625 6.346-25.782.597-33.857 6.382-8.078 5.784-19.432-4.539-29.883.165-10.45 4.705-9.065-8.423-19.13.47-10.063 8.893-17.53-6.826-26.254-2.77-8.724 4.056-5.049-7.169-18.049-1.904-13 5.264-9.067-8.425-26.948 3.791-17.881 12.218-26.294-10.24-33.164-.18-6.869 10.059-26.041 3.059-30.789.898-4.749-2.16-4.704-10.451-12.521-7.128-7.818 3.324-1.377-18.396-13.255-8.034-11.878 10.358-21.073-4.715-26.515-.311-5.441 4.403-13.862-2.291-20.47 5.308-6.607 7.598-7.383-.78-14.898 7.552-7.518 8.33-20.814-7.174-30.358-3.204-9.545 3.97-24.011 7.422-26.085 11.351-2.074 3.929-12.955-3.026-21.679 1.03-8.724 4.057-18.35-6.915-23.446-5.792-5.096 1.121-14.936-15.679-42.617-12.793-27.682 2.885-45.947-4.849-55.663.762-9.719 5.61-17.964-2.726-26.041 3.059-8.076 5.784-26.686 1.331-32.602 2.367-5.917 1.033-26.428-1.131-27.724-4.585-1.294-3.456-27.72-4.584-31.608.811-3.889 5.397-22.193-9.808-27.335-.396-5.141 9.413-19.952.383-23.751 4.96-3.803 4.575-21.634-7.261-23.621-4.152-1.987 3.108-19.216 1.288-19.216 1.288s-19.605-2.897-34.073.553c-14.465 3.452 4.108-15.327-14.894-8.208-19.003 7.12-22.626-5.705-37.267-.614-14.641 5.091-7.685-5.79-25.306 3.966-17.459 9.665-12.276-2.421-23.287 3.127-3.412 1.717-4.426 3.605-7.979-.843-3.553-4.447-2.572 2.125-11.746-2.802-2.375-1.276-5.553-2.332-14.45 2.593-17.621 9.755-10.665-1.125-25.305 3.966s-18.264-7.734-37.267-.614c-19.002 7.12-.428-11.66-14.894-8.21-14.467 3.451-34.072.553-34.072.553s-17.228-1.818-19.217 1.289c-1.987 3.109-19.818-8.726-23.62-4.151-3.801 4.576-18.61-4.453-23.751 4.96-5.142 9.413-23.446-5.794-27.334-.395-3.889 5.395-30.315 4.266-31.609.81-1.294-3.454-21.806-5.619-27.723-4.585-5.917 1.035-24.527-3.417-32.602 2.367-8.079 5.785-16.324-2.552-26.043 3.059-9.716 5.611-27.98-2.124-55.661.761-27.681 2.887-37.521-13.915-42.619-12.793-5.094 1.122-14.721-9.849-23.444-5.791-8.725 4.056-19.604-2.9-21.68 1.029-2.073 3.928-16.538 7.381-26.086 11.35-9.542 3.97-22.839-11.535-30.356-3.203-7.516 8.332-8.291-.046-14.898 7.552-6.609 7.599-15.03.905-20.471 5.306-5.441 4.404-14.636-10.669-26.514-.309-11.879 10.361-5.437-11.358-13.255-8.035-7.816 3.323-7.772-4.968-12.522-7.127-4.747-2.162-23.921-9.163-30.79.898-6.868 10.06-15.283-12.398-33.163-.182-17.882 12.217-13.948-1.471-26.948 3.793-12.998 5.264-9.324-5.961-18.048-1.904-8.724 4.056-16.192-11.664-26.255-2.77-10.065 8.892-8.679-4.235-19.129.468-10.452 4.705-21.807-5.618-29.884.165-8.075 5.785-23.231.038-33.856 6.384-10.624 6.344-18.782-2.813-24.137.769-5.358 3.582-20.425-2.985-25.869 1.418-5.441 4.404-14.853-.737-19.475 3.752-4.622 4.491-11.227-3.673-19.303 2.112-8.077 5.783-16.496-.912-21.03 2.756-4.536 3.67-13.685-19.694-22.107-10.628-8.424 9.065-8.118-1.688-12.999 5.266-4.881 6.949-11.83-13.692-15.803-7.475-3.975 6.218-19.991-7.089-25.694-.223-5.702 6.864-23.925 6.599-29.755 6.815-5.83.213-26.294-10.242-26.294-10.242s-30.312-11.495-38.043-8.993c-7.729 2.503-8.893-10.064-19.17-7.001-10.279 3.064-9.326-5.962-24.612-2.598-15.29 3.364-13.17-8.855-30.271-4.023-17.101 4.831-21.766 1.85-21.766 1.85s-13.426-6.393-22.236-1.518c-8.812 4.878-16.67.732-26.215 4.702-9.543 3.968-4.575-3.802-25.605-1.045-21.031 2.758-16.11 3.277-29.282 10.184-13.173 6.905-23.146-.784-29.495 4.353s-10.579-1.948-13.559 2.717c-2.981 4.662-10.059-6.868-16.583-.092-6.523 6.778-9.672-2.68-12.654 1.983-2.98 4.664-16.322-2.552-21.031 2.758-4.709 5.31-16.066 10.748-27.251 14.547-11.186 3.795-13.255-8.037-28.716-3.031-15.463 5.004-7.901-11.619-13.688-3.932-5.79 7.683-21.678 1.027-25.825 8.888-4.149 7.856-15.288 3.363-20.644 6.947-5.355 3.582-15.414-3.285-21.118 3.577-5.7 6.865-10.751-.304-21.203 4.4-10.452 4.703-15.976-5.835-22.412.123-6.434 5.956-17.835 3.924-21.637 8.499-3.801 4.578-10.879-6.954-18.049-1.905-7.171 5.053-11.14-4.493-18.959-1.17-7.815 3.323-18.869-1.991-29.493 4.352-10.625 6.347-9.887-8.506-15.977-5.832-6.088 2.677-23.059-1.604-35.972 2.84-12.913 4.445-19.689-2.079-27.033 4.613-7.343 6.691-20.858 1.117-25.393 4.786-4.536 3.67-15.027.904-19.303 2.111-4.276 1.209-16.536-8.383-29.622-2.297-13.086 6.086-24.527-3.417-32.085-2.556-7.556.861-22.539-6.527-31.003-4.931-8.465 1.597-13.603-4.754-22.153-2.337-8.551 2.415-7.21-2.42-18.83 5.479-11.618 7.899-.686-9.198-10.878-6.954-10.192 2.243-1.508-9.285-12.609-6.309-11.099 2.976 2.248-5.568-13.513-5.573-15.762-.004-21.546-8.081-39.123-6.617-17.574 1.461-5.737-16.369-17.095-10.931-11.361 5.439-11.573-.39-20.298 3.666-8.723 4.057-10.837.515-19.302 2.111-8.464 1.594-14.422-4.84-26.169-3.591-11.746 1.249-5.61-9.72-18.697-3.634-13.086 6.085-4.317-6.263-20.685-.523-16.368 5.737-23.66-11.624-34.2-6.098-10.537 5.525-18.564-12.746-34.285-5.278-15.721 7.465-21.676 1.03-29.495 4.352-7.815 3.324-4.229-7.081-10.319-4.405-6.091 2.673-7.859-4.148-25.047 1.505-17.189 5.65-1.854-6.004-12.866-3.848-11.015 2.155-23.922-9.163-30.011-6.486-6.089 2.677-24.181-6.699-32.732-4.283-8.55 2.416-13.341-7.216-25.435-2.684-12.09 4.529-12.178 5.351-15.847.817-3.669-4.536-8.163 6.602-13.301.254-5.136-6.349-10.666-1.125-17.183-10.11-6.519-8.984-13.948-1.472-21.46-8.902-3.836-3.794-8.372-5.061-13.635-4.586l98.578-1233.56 11302.6 903.228-23.4 292.817.011.001-.016-.004Z" style="fill:#de350b;fill-rule:nonzero"/></svg>