<svg width="1045" height="80" viewBox="0 0 1045 80" fill="none" xmlns="http://www.w3.org/2000/svg">
<path d="M0.000218107 0.5L0.0381861 49.8234C-0.00521782 50.2506 0.000218107 50.5523 0.000218107 50.5523L0.0381861 49.8234C0.179023 48.4375 0.834085 45.7318 3.85765 47.7334C5.63777 48.9118 6.28872 48.5801 7.06189 48.1861C8.00667 47.7047 9.13395 47.1303 12.7271 49.1048C16.3398 51.09 17.1938 50.7858 18.16 50.4417C18.9412 50.1635 19.7958 49.8592 22.2409 50.7174C24.7714 51.6056 26.4617 51.1201 28.2487 50.6069C30.3241 50.0109 32.5298 49.3775 36.3334 50.8148C40.0943 52.236 39.9475 50.9868 39.7968 49.7045C39.6639 48.5733 39.5279 47.4164 42.069 48.0442C47.4906 49.3838 54.9422 48.5243 54.9422 48.5243C54.9422 48.5243 61.4766 48.0281 62.1985 49.1408C62.5197 49.6358 64.0599 49.114 65.7922 48.5271C67.9537 47.7947 70.4143 46.961 71.1788 47.8751C71.7502 48.5583 73.0699 48.4314 74.548 48.2893C76.6327 48.0888 79.0325 47.858 80.0923 49.827C81.1118 51.7211 83.8149 50.898 86.2334 50.1616C88.1116 49.5897 89.8182 49.07 90.4314 49.9158C91.8343 51.8506 101.831 51.6788 102.366 50.4707C102.9 49.2626 110.683 48.6716 112.908 49.0864C113.63 49.2211 114.865 49.1628 116.306 49.0949C119.303 48.9535 123.189 48.7701 125.199 50.1945C126.682 51.2461 128.229 51.0598 129.853 50.8642C131.486 50.6674 133.198 50.4612 135.004 51.4949C136.881 52.5691 139.676 52.3843 143.4 52.1381C146.823 51.9118 151.031 51.6336 156.032 52.2332C163.188 53.0911 167.281 50.6165 169.764 49.1148C170.905 48.4249 171.707 47.9404 172.31 48.0783C173.075 48.2533 174.136 47.7544 175.342 47.1875C177.156 46.3347 179.297 45.3282 181.246 46.2322C182.979 47.0359 184.985 46.7362 186.59 46.4964C187.99 46.2872 189.085 46.1236 189.427 46.7786C189.928 47.7393 192.619 48.6675 195.408 49.6296C196.7 50.075 198.012 50.5277 199.138 50.9942C200.758 51.6654 202.723 50.922 204.642 50.1962C206.937 49.3279 209.166 48.4848 210.656 50.1196C212.056 51.6551 212.844 51.6339 213.6 51.6136C214.321 51.5943 215.014 51.5757 216.181 52.9125C217.531 54.4595 219.166 54.3996 220.693 54.3436C221.868 54.3006 222.979 54.2599 223.849 54.9554C224.645 55.5919 225.706 55.1454 226.969 54.6138C228.88 53.8095 231.254 52.8102 233.875 55.0715C236.323 57.1837 236.715 55.6665 237.105 54.1549C237.408 52.9787 237.711 51.8058 238.981 52.3487C240.831 53.1399 241.543 52.2353 242.287 51.2887C242.71 50.7507 243.143 50.1993 243.803 49.9377C245.622 49.2157 252.964 46.907 255.431 50.5158C256.52 52.1086 257.804 51.4681 259.467 50.6391C261.572 49.5898 264.282 48.2383 267.969 50.7313C271.751 53.2887 272.933 52.7832 274.167 52.2555C275.086 51.8624 276.033 51.4571 278.105 52.2966C280.749 53.3672 281.582 52.6718 282.316 52.0589C282.93 51.5461 283.475 51.0911 284.953 51.7766C286.38 52.4387 287.766 51.7481 289.185 51.0413C290.99 50.1415 292.849 49.2154 294.913 51.0203C296.883 52.7422 297.7 52.2184 298.629 51.6233C299.439 51.1047 300.333 50.532 302.147 51.3449C304.063 52.2032 306.106 51.7824 308.042 51.3836C310.043 50.9714 311.93 50.5827 313.444 51.6546C314.901 52.6858 317.032 52.7589 319.29 52.8363C321.649 52.9173 324.147 53.003 326.159 54.1916C328.424 55.5302 330.449 55.0525 332.134 54.6549C333.377 54.3615 334.436 54.1117 335.271 54.6672C336.21 55.292 338.021 55.1195 339.876 54.943C341.905 54.7498 343.985 54.5517 345.032 55.3872C346.031 56.1848 347.432 56.1527 348.797 56.1215C350.167 56.0901 351.502 56.0595 352.354 56.8725C353.137 57.6186 354.108 57.4245 355.218 57.2025C356.523 56.9418 358.02 56.6424 359.633 57.781C361.302 58.9593 363.057 58.7629 364.572 58.5934C365.767 58.4596 366.812 58.3426 367.548 58.9312C368.229 59.4755 369.258 58.4391 370.445 57.2427C372.17 55.5056 374.229 53.4311 376.043 55.3674C377.705 57.1413 378.473 56.8351 379.108 56.582C379.644 56.3686 380.084 56.1929 380.886 57.3347C381.797 58.6309 383.017 57.3037 384.177 56.0407C385.252 54.872 386.276 53.7583 386.957 54.8288C387.638 55.899 389.431 55.3983 391.339 54.8653C393.402 54.289 395.6 53.6751 396.674 54.9683C398.536 57.2103 404.309 57.465 407.047 57.5858C407.35 57.5992 407.615 57.6109 407.834 57.6234C410.037 57.7498 417.905 54.23 417.905 54.23C417.905 54.23 429.512 50.4299 432.403 51.3778C433.755 51.8211 434.607 51.09 435.523 50.3035C436.565 49.4081 437.692 48.4407 439.736 49.0521C441.511 49.583 442.415 49.1901 443.441 48.7441C444.633 48.2257 445.99 47.6357 449.073 48.343C451.806 48.97 453.089 48.3158 454.376 47.659C455.791 46.9373 457.213 46.2125 460.57 47.18C466.982 49.028 468.772 48.0147 468.772 48.0147C468.772 48.0147 473.922 45.8724 477.196 47.6687C478.921 48.6151 480.575 48.6742 482.274 48.7349C483.8 48.7894 485.362 48.8452 487.045 49.546C488.653 50.2152 489.175 50.0134 489.992 49.6973C490.983 49.3139 492.41 48.7624 496.736 49.3938C502.602 50.25 503.089 50.5472 504.961 51.6893C505.607 52.0838 506.419 52.5792 507.675 53.2332C510.332 54.6174 512.687 54.4734 514.658 54.3529C516.314 54.2517 517.699 54.167 518.765 55.0198C519.997 56.0046 521.048 55.7842 521.923 55.6007C522.707 55.4363 523.351 55.3014 523.855 56.0909C524.324 56.8241 525.131 56.4633 526.09 56.0345C527.316 55.4864 528.79 54.8272 530.124 56.1986C531.459 57.5696 532.457 57.131 533.265 56.776C533.898 56.498 534.414 56.2713 534.883 57.0048C535.396 57.8068 536.847 57.6631 538.405 57.5086C540.093 57.3414 541.907 57.1616 542.795 58.1553C544.503 60.0669 548.728 62.0847 552.908 63.5185C554.839 64.1809 556.076 63.6503 557.418 63.0744C558.981 62.4037 560.687 61.6715 563.8 62.6915C567.271 63.8286 567.707 62.1498 567.949 61.2201C568.11 60.6 568.185 60.3131 569.016 61.418C570.045 62.7868 572.064 62.9327 574.018 63.0739C576.004 63.2175 577.923 63.3561 578.662 64.7719C579.548 66.4695 581.46 66.6016 583.27 66.7267C584.453 66.8085 585.593 66.8873 586.374 67.3986C587.218 67.9506 588.41 67.844 589.66 67.7322C591.34 67.5821 593.124 67.4226 594.308 68.8376C595.405 70.1481 596.484 70.0627 597.838 69.9555C599.034 69.8609 600.443 69.7493 602.267 70.5683C604.226 71.4474 605.762 70.954 607.105 70.5226C608.43 70.0971 609.567 69.732 610.735 70.8026C611.972 71.9359 613.757 72.3015 615.373 72.6323C616.831 72.9309 618.151 73.2013 618.805 73.9825C619.443 74.7449 620.391 74.2954 621.488 73.7754C622.76 73.1722 624.232 72.4741 625.652 73.4626C627.035 74.4249 628.139 73.9732 629.295 73.5002C630.35 73.0684 631.449 72.6188 632.843 73.2102C634.078 73.7342 635.55 73.7178 637.134 73.7002C639.298 73.6761 641.671 73.6497 643.937 74.9929C646.208 76.3394 647.139 75.151 647.959 74.1032C648.557 73.3401 649.096 72.6516 650.052 73.071C651.037 73.5034 652.816 73.4896 654.907 73.4734C657.63 73.4523 660.883 73.427 663.61 74.3765C665.835 75.1512 667.597 75.0901 669.114 75.0375C670.884 74.9762 672.32 74.9264 673.768 76.2303C675.31 77.6194 677.674 77.602 679.723 77.587C681.246 77.5758 682.594 77.5659 683.304 78.1348C684.345 78.9693 686.3 78.9337 688.012 78.9025C689.039 78.8839 689.979 78.8668 690.582 79.0398C691.122 79.1944 692.013 78.9293 693.143 78.5932C695.386 77.9258 698.571 76.9786 701.809 78.4809C704.92 79.9239 707.858 79.1149 710.315 78.438C711.705 78.0553 712.941 77.7149 713.968 77.8477C715.287 78.0183 717.234 77.5765 719.259 77.1168C721.601 76.5854 724.047 76.0301 725.752 76.3692C727.269 76.6711 728.52 76.3291 729.764 75.9895C731.126 75.6174 732.478 75.2481 734.157 75.7309C735.334 76.0693 736.018 76.0533 736.624 76.0391C737.672 76.0146 738.485 75.9956 741.203 77.8246C743.418 79.3146 743.448 78.4028 743.484 77.2923C743.517 76.2514 743.557 75.0361 745.406 75.4605C747.272 75.8886 747.481 75.122 747.689 74.3576C747.908 73.5559 748.125 72.7566 750.254 73.3411C752.15 73.8617 752.156 73.4956 752.164 72.9557C752.175 72.3112 752.189 71.4189 755.426 71.4908C758.152 71.5513 760.112 70.9954 762.073 70.4393C764.392 69.7817 766.712 69.1238 770.3 69.4839C773.92 69.8472 774.295 68.1027 774.58 66.7752C774.817 65.6742 774.992 64.8601 776.905 65.7735C779.167 66.853 780.262 66.7634 781.291 66.6792C782.182 66.6063 783.023 66.5374 784.529 67.2359C786.442 68.1228 787.521 68.0591 788.738 67.9874C789.585 67.9374 790.499 67.8834 791.808 68.1444C793.343 68.4505 794.679 68.0935 796.146 67.7013C797.724 67.2796 799.453 66.8173 801.746 67.0961C803.764 67.3415 804.408 66.6597 804.975 66.0596C805.652 65.3443 806.218 64.7452 808.87 65.9714C811.22 67.0582 811.707 66.5925 812.264 66.0606C812.862 65.4889 813.54 64.8407 816.697 65.9608C819.947 67.1137 822.317 65.9286 824.414 64.8798C826.25 63.9616 827.878 63.1479 829.703 64.0993C831.486 65.0283 833.137 64.2081 834.958 63.3027C837.133 62.2219 839.551 61.0197 842.732 62.5262C846.227 64.1816 848.467 64.0527 850.325 63.9458C851.575 63.8739 852.652 63.812 853.822 64.3092C855.365 64.9651 855.747 64.2325 856.104 63.548C856.42 62.9419 856.716 62.3736 857.782 62.841C858.676 63.2331 859.335 63.0994 860.198 62.9242C861.526 62.6548 863.337 62.2873 867.23 63.5847C870.775 64.7664 870.644 64.0026 870.51 63.2245C870.401 62.5929 870.29 61.9518 872.144 62.3342C874.345 62.7884 876.798 61.9006 878.953 61.1207C880.847 60.4353 882.51 59.8334 883.57 60.299C884.677 60.7857 886.907 60.2808 889.271 59.7454C891.743 59.1857 894.362 58.5927 895.998 59.0652C897.411 59.4733 898.575 59.0468 899.824 58.5894C901.405 58.0105 903.122 57.3819 905.649 58.3324C906.184 58.5337 906.656 58.7152 907.074 58.8762C910.194 60.0763 910.353 60.1373 911.626 58.7523C912.288 58.0328 912.973 58.4762 913.716 58.9567C914.595 59.5253 915.554 60.1461 916.651 58.9546C917.569 57.9558 918.489 57.8011 919.461 57.6376C920.628 57.4412 921.87 57.2321 923.278 55.5326C924.633 53.8962 926.022 53.8686 927.463 53.8399C928.764 53.8139 930.108 53.7872 931.507 52.5727C934.455 50.0138 938.266 50.8919 943.132 53.1511C946.286 54.6157 946.51 53.8479 946.707 53.1731C946.814 52.807 946.913 52.4683 947.467 52.5282C948.059 52.5922 948.544 52.4181 949.138 52.2055C950.126 51.8514 951.413 51.3903 953.983 51.7433C955.957 52.0143 957.49 51.2434 958.975 50.4965C960.587 49.6862 962.142 48.9042 964.142 49.5107C966.088 50.1005 967.682 49.2233 969.318 48.3233C970.915 47.4446 972.551 46.5442 974.593 46.9659C976.825 47.4271 978.248 46.843 979.681 46.2552C980.9 45.7547 982.127 45.2515 983.864 45.388C987.643 45.6848 990.248 42.8583 990.248 42.8583L991.559 43.6362C992.121 43.9682 993.424 43.4394 994.933 42.8266C996.944 42.0102 999.323 41.0444 1000.81 41.7663C1002.2 42.4418 1002.87 41.9194 1003.67 41.2952C1004.37 40.7516 1005.17 40.1307 1006.63 40.1566C1007.78 40.177 1008.79 40.5214 1009.68 40.8284C1011.23 41.359 1012.45 41.7776 1013.52 40.217C1015.22 37.7536 1018.63 37.4943 1020.93 38.7774C1023.23 40.0605 1026.71 40.6736 1032.07 37.0577C1034.99 35.0863 1036.07 35.8562 1036.98 36.4986C1037.73 37.0346 1038.36 37.4817 1039.83 36.1747C1043.05 33.301 1044.6 33 1044.6 33V0.5H0.000218107Z" fill="#FFF1F7"/>
</svg>
