<svg viewBox="0 0 11339 1418" xmlns="http://www.w3.org/2000/svg" xml:space="preserve"
    style="fill-rule:evenodd;clip-rule:evenodd;stroke-linejoin:round;stroke-miterlimit:2"><path d="M11478 1021.24c-2.192.543-4.105 1.742-5.422 4.105-5.289 9.502-23.719-6.065-27.706-.624-3.988 5.44-30.768 4.077-32.05.563-1.289-3.514-22.063-5.874-28.071-4.876-6.006 1.001-24.837-3.665-33.073 2.132-8.233 5.798-16.526-2.719-26.422 2.887-9.897 5.61-28.352-2.381-56.438.317-28.087 2.7-37.926-14.414-43.103-13.319-5.172 1.097-14.841-10.107-23.719-6.064-8.879 4.041-19.851-3.099-21.988.867-2.133 3.965-16.828 7.346-26.538 11.294-9.707 3.945-23.059-11.882-30.752-3.499-7.685 8.386-8.404-.114-15.164 7.537-6.762 7.65-15.247.791-20.796 5.21-5.553 4.421-14.754-10.936-26.879-.532-12.128 10.41-5.42-11.558-13.371-8.253-7.951 3.304-7.839-5.099-12.635-7.329-4.797-2.229-24.176-9.483-31.224.658-7.045 10.142-15.392-12.694-33.62-.456-18.226 12.238-14.127-1.605-27.351 3.625-13.221 5.23-9.403-6.12-18.28-2.079-8.877 4.039-16.321-11.959-26.593-3.023-10.277 8.933-8.764-4.367-19.398.317-10.635 4.683-22.061-5.875-30.298-.076-8.233 5.798-23.551-.155-34.375 6.193-10.824 6.343-19.022-3.006-24.479.583-5.462 3.587-20.68-3.194-26.235 1.225-5.555 4.421-15.056-.866-19.778 3.644-4.72 4.516-11.352-3.816-19.585 1.981-8.236 5.798-16.716-1.058-21.345 2.624-4.625 3.68-13.71-20.079-22.324-10.957-8.612 9.123-8.216-1.777-13.224 5.233-5.004 7.006-11.879-13.978-15.957-7.709-4.081 6.271-20.212-7.349-26.047-.436-5.836 6.914-24.311 6.495-30.223 6.667-5.911.169-26.574-10.6-26.574-10.6s-30.633-11.9-38.492-9.426c-7.857 2.472-8.933-10.277-19.376-7.257-10.445 3.022-9.407-6.119-24.932-2.835-15.528 3.288-13.277-9.084-30.656-4.326-17.376 4.759-22.081 1.697-22.081 1.697s-13.56-6.592-22.534-1.721c-8.968 4.872-16.903.606-26.611 4.552-9.707 3.944-4.608-3.894-25.952-1.269-21.345 2.624-16.359 3.19-29.768 10.084-13.412 6.892-23.461-.986-29.937 4.172-6.481 5.155-10.71-2.061-13.768 2.644-3.062 4.701-10.142-7.047-16.813-.23-6.669 6.818-9.784-2.796-12.846 1.906-3.061 4.703-16.526-2.721-21.344 2.625-4.816 5.342-16.375 10.765-27.746 14.523-11.372 3.757-13.371-8.257-29.085-3.307-15.717 4.946-7.915-11.844-13.845-4.099-5.931 7.741-21.986.863-26.255 8.798-4.271 7.93-15.526 3.286-20.985 6.875-5.457 3.586-15.602-3.46-21.438 3.453-5.835 6.914-10.898-.398-21.531 4.287-10.633 4.682-16.149-6.049-22.722-.059-6.574 5.985-18.117 3.832-22.006 8.439-3.891 4.61-10.971-7.14-18.282-2.079-7.313 5.063-11.258-4.646-19.209-1.341-7.951 3.305-19.115-2.174-29.94 4.172-10.82 6.345-9.952-8.709-16.148-6.045-6.194 2.665-23.364-1.815-36.49 2.584-13.128 4.402-19.944-2.269-27.447 4.455-7.497 6.725-21.151.964-25.782 4.647-4.627 3.681-15.243.793-19.585 1.981-4.342 1.189-16.697-8.635-30.011-2.571-13.319 6.062-24.839-3.667-32.506-2.854-7.669.812-22.797-6.803-31.391-5.255-8.595 1.549-13.75-4.929-22.44-2.551-8.688 2.379-7.29-2.512-19.134 5.402-11.843 7.912-.623-9.332-10.971-7.143-10.353 2.191-1.456-9.423-12.731-6.497-11.277 2.926 2.323-5.628-13.655-5.762-15.981-.132-21.78-8.368-39.609-7.027-17.831 1.337-5.682-16.642-17.243-11.223-11.56 5.42-11.73-.493-20.609 3.549-8.876 4.042-10.988.435-19.584 1.983-8.594 1.547-14.58-5.025-26.5-3.855-11.919 1.169-5.61-9.9-18.925-3.837-13.318 6.062-4.327-6.384-20.966-.698-16.641 5.682-23.892-11.979-34.62-6.463-10.731 5.513-18.719-13.074-34.716-5.632-15.999 7.44-21.986.868-29.935 4.171-7.953 3.305-4.232-7.214-10.428-4.55-6.195 2.66-7.932-4.27-25.403 1.32-17.475 5.589-1.832-6.102-13.014-4.007-11.184 2.096-24.176-9.483-30.371-6.819-6.196 2.662-24.459-6.991-33.148-4.611-8.688 2.379-13.466-7.424-25.763-2.931-12.295 4.494-12.39 5.326-16.074.699-3.681-4.628-8.33 6.626-13.487.149-5.154-6.48-10.803-1.229-17.336-10.392-6.534-9.159-14.127-1.605-21.683-9.199-7.554-7.594-17.906-5.403-31.225.658-13.315 6.063-7.289-2.514-11.539-2.153-4.249.356-6.269-4.082-17.358-2.815-11.087 1.264-16.508-10.296-26.949-7.273-10.446 3.021-16.511-10.297-27.692-8.201-11.18 2.096-14.483-5.856-24.648-5.327-10.161.527-16.79-7.804-16.79-7.804l-3.61 2.114c-3.608 2.117-17.433-9.554-24.554-6.157-7.12 3.399-7.008-5.005-15.409-5.12-8.408-.113-14.244 6.797-18.475-.417-4.23-7.216-13.372-8.256-19.662-4.761-6.291 3.493-15.716 4.947-29.634-5.895-13.919-10.845-12.392 5.326-20.682-3.195-3.098-3.183-7.713-4.089-9.761-5.34-3.514-2.148-3.496-6.527-7.817-3.949-4.323 2.576-9.998 6.47-16.004 7.474-6.006 1.001-11.559 5.419-20.702 4.379-9.143-1.04-12.297 4.496-23.931 3.171-11.633-1.322-16.641 5.682-31.599 3.982-14.958-1.7-26.973.301-34.169-3.041-7.194-3.345-8.879 4.039-18.849 2.905-9.972-1.133-5.647 5.25-16.737 6.516-11.085 1.264-2.607 8.12-10.37 9.764-7.764 1.644-5.343-4.818-15.054-.87-9.708 3.947-8.762-4.366-18.66 1.245-9.899 5.607-6.177-4.912-17.832 1.341-11.655 6.25-15.506-4.289-28.821 1.771-13.317 6.063 3.852 10.542-9.916 13.183-13.77 2.644-14.206-8.349-24.839-3.663-10.633 4.68-16.996 1.432-17.849 8.913-.849 7.479-12.201 3.661-19.304-.512-7.101-4.175-17.641-.322-24.004-3.572-6.366-3.249-7.122 3.398-20.231.227-13.109-3.175-17.641-.325-26.706 5.379-9.069 5.706-13.865 3.475-22.556 5.854-8.689 2.379-10.707-2.058-24.12 4.833-13.41 6.893-26.329 2.058-32.713 6.381-6.386 4.324-11.92 1.168-21.533 4.287-9.614 3.116-15.432 2.454-21.91 7.611-6.48 5.153-24.875 11.48-35.869 11.913-10.994.433-30.672 3.248-30.672 3.248s-20.608 3.55-28.823 1.774c-8.217-1.776-11.827.337-23.461-.986-11.634-1.323-10.917 7.176-23.381 5.758-12.465-1.416-3.158 5.536-18.114 3.835-14.96-1.702-1.04 9.139-17.019 9.008-15.98-.134-22.967-12.713-28.897-4.971-5.935 7.745-22.08 1.699-30.222 6.665-8.143 4.969-19.872 4.476-28.655 7.686-8.784 3.21-12.561-.588-25.689 3.814-13.127 4.397-13.844-4.101-29.748 2.508-15.905 6.612-12.918-4.835-25.122-1.172-12.198 3.662-16.62-1.89-27.991 1.866-11.368 3.761-14.598 2.552-27.82 7.781-13.223 5.23-13.389-.681-26.708 5.383-13.314 6.061-14.506 1.718-25.403 1.321-10.899-.398-18.906-11.411-25.385-6.254-6.479 5.157-7.86 2.472-13.316 6.06-5.46 3.589-1.19-4.342-15.696-2.625-14.506 1.718-8.783 3.21-21.344 2.624-12.56-.587-10.709-2.061-22.172 2.528-11.469 4.592-15.058-.868-29.487 7.592-14.43 8.462-15.451 10.032-21.269 9.368-5.815-.662-14.297-7.519-26.876-.531-12.579 6.987-12.087-4.744-21.703-1.627-9.613 3.116-10.425-4.551-26.234 1.226-15.809 5.779-11.749 7.082-26.709 5.382-14.96-1.703-11.163-5.48-27.16 1.962-15.999 7.44-20.512 2.716-29.674 9.253-9.161 6.532-13.202-2.345-24.404 7.326-11.201 9.67-12.37-2.248-22.176 2.53-9.801 4.775-17.997-4.572-20.775-2.363-2.776 2.207-3.872-2.967-10.066-.305-6.195 2.664-7.48-.851-15.527 3.287-8.045 4.134-9.782-2.797-15.978-.135-6.195 2.664-6.838.908-15.337 1.624-8.501.718-15.886-.963-19.023-3.003-3.133-2.042-.714-8.499-15.054-.871-14.336 7.629-6.911-5.837-21.607-2.458-14.697 3.381-23.196 4.096-26.255 8.801-3.06 4.704-17.283 3.927-17.283 3.927s-12.372-2.249-17.092 2.266c-4.723 4.513-13.958 4.304-23.575 7.419-9.612 3.115-10.067-.302-21.437 3.455-11.371 3.757-17.641-.322-25.593 2.982-7.952 3.304-14.696 3.379-24.667 2.245-9.971-1.136-12.748 1.076-23.554-.151-10.805-1.23-.756 6.649-19.037 4.569-18.284-2.078-10.183 8.101-26.805 6.211-16.619-1.891-16.827 7.345-26.348 9.63-9.517 2.285-10.237-6.214-25.403 1.321-15.169 7.534-26.595-3.024-33.81 1.207-7.216 4.228-10.182 8.101-21.818 6.777-11.633-1.323-9.159 6.535-24.95 4.742-15.79-1.798-11.822.337-27.442 4.453-15.62 4.117-23.67 8.25-33.642 7.118-9.973-1.137-8.329 6.63-19.964 5.307-11.635-1.323-24.024 4.004-32.052.566-8.026-3.439-5.819-.662-15.79-1.796-9.976-1.133-14.981 5.873-24.763 3.078-9.783-2.798-9.314-6.952-22.342-3.385-13.033 3.57-11.732-.489-22.272 3.359-10.538 3.855-12.295 4.495-28.916 2.606-16.622-1.888-17.755 8.082-34.566 7.856-16.81-.229-27.065 1.13-32.051.565-4.99-.568-15.528 3.284-22.441-2.553-6.913-5.839-23.004 2.434-26.331 2.058-3.322-.378-18.112 3.832-25.215-.344-7.102-4.174-11.198 9.671-28.557 6.854-17.358-2.815-19.965 5.306-31.127-.173-11.161-5.477-15.072 6.705-25.877 5.477-10.802-1.23-15.959-7.707-27.426-3.118-11.464 4.588-15.714 4.947-30.673 3.247-14.959-1.7-10.278 8.933-25.046 5.57-14.769-3.364-19.041 4.568-25.855-2.099-6.821-6.669-10.731 5.514-27.162 1.962-16.432-3.552-29.107 4.266-36.757-2.494-7.65-6.765-19.227 6.23-25.951-1.268-6.726-7.499-20.496-4.857-25.838-9.673-5.346-4.818-17.943 9.744-30.674 3.245-12.731-6.498-3.476-13.861-15.394-12.693-11.919 1.17-10.046-7.878-22.72-.059-12.675 7.819-17.85 8.913-23.366-1.817-5.513-10.727-1.262-11.086-16.603-9.462-15.335 1.623-17.756 8.082-32.787-.362-15.035-8.443-21.818 6.781-35.019 4.437-13.201-2.343-18.924-3.836-26.234 1.225-.614.425-1.922 1.126-2.791 1.578 3.02-1.467-6.877 4.328-12.141 3.567-2.446-.355-4.569 1.261-6.421 2.293-6.293 3.494-15.434 2.454-19.665-4.762-4.228-7.214-10.068-.302-18.475-.415-8.404-.115-8.29-8.519-15.41-5.121-7.119 3.4-20.946-8.275-24.553-6.157l-3.609 2.113s-6.629-8.331-16.792-7.801c-10.161.528-13.465-7.425-24.647-5.328-11.183 2.095-17.245-11.221-27.691-8.201-10.445 3.021-15.864-8.539-26.953-7.272-11.084 1.265-13.106-3.174-17.355-2.818-4.25.359 1.775-8.215-11.541-2.152-13.317 6.062-23.667 8.252-31.223.658-7.554-7.594-15.146-.04-21.68-9.201-6.535-9.162-12.183-3.91-17.338-10.389-5.157-6.478-9.805 4.777-13.489.148-3.682-4.627-3.778-3.795-16.072.699-12.297 4.495-17.075-5.308-25.765-2.931-8.686 2.381-26.951-7.272-33.148-4.61-6.193 2.665-19.187-8.914-30.372-6.822-11.182 2.097 4.461-9.593-13.011-4.004-17.472 5.59-19.207-1.341-25.405 1.32-6.196 2.662-2.475-7.858-10.426-4.552-7.954 3.304-13.938-3.267-29.938 4.17-15.998 7.442-23.986-11.147-34.713-5.629-10.731 5.514-17.982-12.148-34.623-6.465-16.641 5.686-7.648-6.76-20.967-.699-13.314 6.063-7.004-5.007-18.923-3.837-11.918 1.171-17.906-5.401-26.5-3.854-8.596 1.548-10.711-2.059-19.586 1.982-8.881 4.04-9.046-1.872-20.61 3.549-11.558 5.42.588-12.559-17.241-11.222-17.833 1.34-23.631-6.896-39.611-7.029-15.978-.135-2.377-8.687-13.654-5.761-11.278 2.926-2.379-8.69-12.73-6.5-10.353 2.192.87-15.052-10.972-7.14-11.844 7.913-10.445 3.021-19.135 5.4-8.688 2.38-13.845-4.101-22.438-2.552-8.595 1.547-23.724-6.063-31.39-5.253-7.671.812-19.191-8.917-32.508-2.855-13.316 6.063-25.667-3.761-30.012-2.569-4.345 1.189-14.957-1.701-19.586 1.981-4.628 3.682-18.283-2.079-25.783 4.644-7.5 6.726-14.318.057-27.445 4.458-13.127 4.398-30.296-.081-36.49 2.582-6.196 2.662-5.326-12.391-16.15-6.042-10.821 6.343-21.985.865-29.935 4.17-7.954 3.305-11.9-6.407-19.212-1.342-7.309 5.062-14.39-6.689-18.281-2.079-3.893 4.607-15.433 2.454-22.006 8.439-6.573 5.988-12.088-4.74-22.721-.06-10.635 4.684-15.697-2.625-21.534 4.288-5.838 6.91-15.98-.132-21.436 3.453-5.461 3.589-16.716-1.057-20.987 6.876-4.268 7.934-20.322 1.056-26.254 8.797-5.931 7.745 1.873-9.045-13.846-4.1-15.713 4.949-17.715-7.063-29.086-3.306-11.371 3.758-22.931 9.177-27.745 14.523-4.819 5.344-18.285-2.079-21.345 2.625-3.059 4.702-6.176-4.912-12.844 1.905-6.671 6.819-13.753-4.929-16.812-.227-3.061 4.704-7.289-2.514-13.768 2.642-6.48 5.155-16.528-2.72-29.939 4.172-13.41 6.895-8.425 7.461-29.768 10.084-21.343 2.624-16.244-5.212-25.95-1.268-9.71 3.948-17.643-.321-26.615 4.552-8.971 4.87-22.532-1.722-22.532-1.722s-4.704-3.06-22.08 1.699c-17.377 4.758-15.127-7.613-30.654-4.327-15.526 3.285-14.487-5.857-24.933-2.835-10.442 3.021-11.521-9.73-19.375-7.255-7.859 2.475-38.494-9.429-38.494-9.429s-20.662-10.768-26.575-10.598c-5.911.171-24.385-.248-30.221 6.665-5.836 6.913-21.966-6.709-26.046-.437-4.079 6.27-10.955-14.715-15.961-7.709-5.004 7.009-4.606-3.889-13.22 5.233-8.613 9.121-17.696-14.638-22.326-10.957-4.627 3.682-13.107-3.174-21.343 2.621-8.235 5.798-14.864-2.532-19.587 1.984-4.724 4.514-14.222-.777-19.776 3.643-5.554 4.419-20.775-2.362-26.235 1.226-5.458 3.589-13.654-5.761-24.478.584-10.824 6.344-26.143.395-34.376 6.194-8.238 5.796-19.663-4.764-30.298-.079-10.634 4.683-9.121-8.614-19.397.318-10.274 8.934-17.718-7.063-26.595-3.023-8.877 4.04-5.06-7.309-18.282-2.078-13.222 5.23-9.121-8.615-27.349 3.623s-26.573-10.598-33.62-.455c-7.046 10.141-26.427 2.888-31.222.658-4.797-2.228-4.685-10.633-12.635-7.329-7.955 3.305-1.245-18.663-13.373-8.256-12.124 10.408-21.324-4.949-26.877-.529-5.551 4.416-14.034-2.436-20.796 5.212-6.761 7.65-7.479-.849-15.166 7.534-7.69 8.385-21.041-7.443-30.749-3.495-9.71 3.944-24.405 7.328-26.54 11.292-2.135 3.967-13.107-3.174-21.987.866-8.876 4.041-18.547-7.159-23.72-6.063-5.176 1.095-15.015-16.019-43.101-13.32-28.089 2.699-46.54-5.29-56.436.316-9.9 5.609-18.191-2.911-26.428 2.888-8.233 5.799-27.064 1.133-33.07 2.134-6.008.998-26.784-1.363-28.068-4.877-1.283-3.514-28.065-4.874-32.053.565-3.986 5.44-22.417-10.125-27.708-.626-5.291 9.501-20.228.226-24.12 4.835-3.892 4.605-21.872-7.537-23.912-4.402-2.042 3.133-19.493 1.15-19.493 1.15s-19.851-3.1-34.546.281c-14.694 3.379 4.29-15.507-15.032-8.446-19.324 7.063-22.894-5.969-37.777-.927-14.885 5.04-7.743-5.933-25.687 3.813-9.06 4.921-12.274 3.823-14.671 2.511-9.26-5.07-8.318 1.602-11.885-2.937-3.564-4.54-4.608-2.634-8.081-.92-11.209 5.534-5.854-6.676-23.635 2.979-17.942 9.747-10.803-1.227-25.687 3.813-14.884 5.042-18.452-7.989-37.775-.928-19.322 7.064-.339-11.823-15.034-8.442-14.695 3.378-34.546.281-34.546.281s-17.452-1.985-19.493 1.148c-2.04 3.136-20.019-9.008-23.911-4.4-3.892 4.607-18.831-4.668-24.122 4.833-5.288 9.5-23.719-6.065-27.707-.626-3.985 5.438-30.768 4.078-32.051.564-1.286-3.513-22.063-5.875-28.069-4.876-6.008 1.001-24.837-3.665-33.072 2.132-8.236 5.797-16.526-2.719-26.426 2.887-9.896 5.609-28.35-2.38-56.436.316-28.086 2.7-37.924-14.414-43.101-13.319-5.174 1.097-14.845-10.104-23.722-6.062-8.877 4.04-19.852-3.101-21.988.865-2.133 3.966-16.828 7.35-26.538 11.293-9.706 3.947-23.06-11.88-30.75-3.495-7.688 8.385-8.404-.117-15.164 7.536-6.762 7.647-15.246.79-20.799 5.211-5.55 4.418-14.75-10.939-26.877-.533-12.126 10.409-5.418-11.559-13.371-8.255-7.952 3.305-7.838-5.099-12.634-7.328-4.798-2.231-24.176-9.484-31.223.657-7.046 10.142-15.394-12.693-33.619-.454-18.229 12.237-14.13-1.607-27.352 3.623-13.221 5.231-9.405-6.12-18.283-2.078-8.877 4.04-16.319-11.959-26.593-3.024-10.278 8.933-8.765-4.365-19.396.319-10.637 4.685-22.064-5.874-30.299-.077-8.235 5.798-23.553-.154-34.377 6.193-10.824 6.344-19.02-3.006-24.478.584-5.459 3.586-20.679-3.193-26.236 1.225-5.552 4.419-15.052-.869-19.776 3.644-4.722 4.513-11.352-3.817-19.585 1.982-8.237 5.797-16.715-1.059-21.343 2.623-4.628 3.682-13.714-20.079-22.326-10.957-8.615 9.122-8.215-1.776-13.223 5.233-5.005 7.005-11.88-13.978-15.958-7.709-4.083 6.27-20.211-7.35-26.048-.438-5.836 6.913-24.308 6.496-30.221 6.667-5.913.169-26.574-10.6-26.574-10.6s-30.634-11.9-38.494-9.427c-7.856 2.475-8.934-10.275-19.377-7.255-10.445 3.021-9.405-6.12-24.932-2.836-15.528 3.288-13.278-9.084-30.654-4.326-17.377 4.757-22.081 1.697-22.081 1.697s-13.56-6.591-22.532-1.719-16.906.605-26.614 4.55c-9.707 3.946-4.607-3.891-25.95-1.267-21.343 2.622-16.358 3.19-29.771 10.083-13.41 6.892-23.456-.984-29.938 4.172-6.479 5.154-10.708-2.06-13.768 2.642-3.061 4.702-10.141-7.047-16.813-.229-6.666 6.818-9.784-2.797-12.844 1.907-3.06 4.703-16.525-2.721-21.343 2.624-4.815 5.344-16.374 10.767-27.746 14.522-11.371 3.758-13.372-8.256-29.086-3.307-15.716 4.947-7.914-11.844-13.844-4.099-5.934 7.745-21.988.865-26.258 8.798-4.268 7.934-15.523 3.287-20.983 6.876-5.458 3.587-15.6-3.459-21.438 3.453-5.836 6.913-10.898-.396-21.531 4.288-10.636 4.68-16.15-6.048-22.723-.059-6.572 5.984-18.114 3.831-22.006 8.438-3.89 4.612-10.971-7.14-18.281-2.077-7.312 5.063-11.258-4.648-19.211-1.344-7.95 3.305-19.113-2.172-29.937 4.172-10.821 6.347-9.953-8.705-16.148-6.043-6.194 2.662-23.365-1.815-36.491 2.583-13.128 4.401-19.944-2.268-27.445 4.457-7.5 6.722-21.155.961-25.783 4.643-4.628 3.683-15.241.793-19.586 1.982-4.345 1.19-16.695-8.635-30.012-2.571-13.316 6.064-24.837-3.666-32.506-2.853-7.668.811-22.798-6.803-31.392-5.254-8.595 1.545-13.751-4.932-22.438-2.553-8.689 2.379-7.289-2.512-19.136 5.401-11.842 7.913-.618-9.33-10.971-7.141-10.351 2.191-1.452-9.424-12.731-6.499-11.276 2.927 2.325-5.627-13.653-5.761-15.981-.132-21.777-8.368-39.61-7.029-17.828 1.337-5.681-16.641-17.24-11.222-11.562 5.42-11.731-.492-20.609 3.549-8.877 4.041-10.993.434-19.588 1.982-8.592 1.546-14.579-5.026-26.498-3.854-11.92 1.169-5.608-9.9-18.925-3.836-13.316 6.061-4.327-6.386-20.966-.699-16.642 5.682-23.892-11.98-34.621-6.464-10.729 5.517-18.717-13.073-34.717-5.63-15.996 7.438-21.983.866-29.937 4.17-7.951 3.305-4.229-7.215-10.426-4.551-6.195 2.66-7.933-4.27-25.404 1.319-17.471 5.589-1.832-6.101-13.012-4.005-11.183 2.094-24.176-9.484-30.372-6.821-6.196 2.662-24.459-6.99-33.149-4.61-8.686 2.378-13.465-7.425-25.764-2.931-12.294 4.492-12.39 5.326-16.072.698-3.683-4.628-8.331 6.629-13.489.149-5.154-6.478-10.803-1.228-17.334-10.389-6.536-9.16-14.13-1.607-21.685-9.2-7.555-7.594-17.905-5.405-31.22.658-13.318 6.064-7.294-2.513-11.543-2.154-4.25.358-6.27-4.081-17.356-2.814-11.089 1.264-16.507-10.295-26.952-7.274-10.446 3.02-16.51-10.296-27.69-8.199-11.182 2.095-14.487-5.857-24.648-5.329-10.163.527-16.791-7.801-16.791-7.801l-3.607 2.114c-3.608 2.115-17.435-9.557-24.555-6.158-7.121 3.399-7.005-5.007-15.411-5.12-8.405-.113-14.243 6.797-18.472-.417-4.233-7.217-13.373-8.255-19.664-4.76-6.291 3.493-15.714 4.944-29.634-5.898-13.917-10.842-12.392 5.328-20.681-3.194-3.099-3.185-7.711-4.088-9.761-5.341-3.511-2.143-3.494-6.526-7.818-3.948-4.32 2.577-9.996 6.471-16.004 7.474-6.004 1.001-11.559 5.419-20.7 4.379-9.144-1.04-12.297 4.495-23.932 3.169-11.635-1.321-16.641 5.685-31.599 3.986-14.959-1.703-26.973.298-34.169-3.043-7.195-3.345-8.877 4.039-18.85 2.906-9.972-1.134-5.648 5.249-16.735 6.517-11.088 1.261-2.607 8.119-10.369 9.762-7.764 1.644-5.346-4.816-15.057-.871-9.706 3.949-8.762-4.363-18.658 1.246-9.899 5.608-6.178-4.911-17.834 1.34-11.652 6.25-15.503-4.288-28.819 1.771-13.319 6.063 3.85 10.541-9.918 13.182-13.771 2.645-14.205-8.348-24.839-3.662-10.632 4.68-16.998 1.431-17.848 8.913-.851 7.477-12.204 3.661-19.305-.513-7.099-4.175-17.64-.32-24.005-3.571-6.365-3.25-7.119 3.4-20.23.226-13.107-3.176-17.639-.324-26.706 5.381-9.065 5.704-13.864 3.472-22.555 5.853-8.688 2.378-10.707-2.058-24.118 4.833-13.413 6.893-26.331 2.059-32.716 6.382-6.384 4.322-11.917 1.169-21.53 4.285-9.615 3.117-15.433 2.455-21.912 7.61-6.48 5.156-24.875 11.482-35.867 11.917-10.997.43-30.676 3.245-30.676 3.245s-20.607 3.549-28.823 1.774c-8.216-1.776-11.822.338-23.459-.984-10.695-1.209-10.953 5.882-20.629 5.922v342.223l11495.5 5.634V1021.24Z" style="fill:#de350b;fill-rule:nonzero"/><path d="M-375.961 1214.24c1.054.302 2.118.678 3.188 1.162 14.145 6.4 26.247-4.103 34.367-3.285 8.121.814 24.059-7.446 33.167-5.847 9.108 1.597 14.502-5.378 23.718-2.892 9.214 2.488 7.69-2.741 20.294 5.652 12.601 8.391.574-9.999 11.544-7.727 10.972 2.275 1.454-10.103 13.41-7.048 11.957 3.055-2.509-6.013 14.397-6.267 16.905-.254 22.967-9.116 41.843-7.805 18.877 1.306 5.864-17.865 18.143-12.143 12.28 5.726 12.407-.609 21.836 3.659 9.428 4.266 11.631.387 20.739 1.985 9.108 1.596 15.381-5.483 28.005-4.315 12.619 1.17 5.845-10.642 19.989-4.242 14.143 6.399 4.518-6.869 22.174-.896 17.659 5.97 25.172-12.997 36.572-7.164 11.403 5.832 19.688-14.134 36.681-6.274 16.994 7.853 23.27.773 31.713 4.256 8.441 3.484 4.411-7.758 10.989-4.948 6.58 2.806 8.354-4.629 26.891 1.236 18.537 5.863 1.882-6.549 13.732-4.383 11.851 2.166 25.492-10.328 32.072-7.518 6.579 2.808 25.816-7.659 35.03-5.17 9.214 2.486 14.183-8.046 27.232-3.32 13.049 4.726 13.157 5.619 17.014.634 3.854-4.982 8.872 7.04 14.27.067 5.395-6.976 11.419-1.392 18.251-11.253 6.83-9.856 14.931-1.818 22.857-10.005 7.927-8.185 18.897-5.912 33.042.485 14.142 6.402 7.692-2.742 12.19-2.387 4.5.353 6.597-4.416 18.34-3.137 11.74 1.277 17.372-11.143 28.448-7.979 11.078 3.161 17.375-11.144 29.225-8.977 11.85 2.166 15.271-6.375 26.03-5.879 10.757.494 17.694-8.475 17.694-8.475l3.837 2.238c3.835 2.243 18.359-10.355 25.924-6.765 7.563 3.589 7.368-5.411 16.258-5.592 8.894-.181 15.132 7.18 19.542-.577 4.411-7.758 14.075-8.936 20.76-5.237 6.688 3.698 16.672 5.189 31.302-6.523 14.629-11.712 13.158 5.617 21.853-3.566 3.249-3.433 8.124-4.434 10.281-5.789 3.697-2.323 3.64-7.016 8.236-4.285 4.594 2.73 10.637 6.863 17 7.894 6.362 1.031 12.278 5.723 21.943 4.545 9.662-1.176 13.049 4.729 25.346 3.23 12.298-1.497 17.659 5.97 33.47 4.043 15.811-1.926 28.541.133 36.126-3.497 7.581-3.633 9.43 4.264 19.969 2.98 10.541-1.285 6.022 5.584 17.765 6.86 11.74 1.276 2.832 8.679 11.06 10.385 8.229 1.707 5.611-5.197 15.921-1.036 10.305 4.158 9.23-4.738 19.753 1.201 10.522 5.937 6.492-5.303 18.878 1.312 12.386 6.612 16.368-4.703 30.51 1.694 14.142 6.401-3.982 11.319 10.609 14.052 14.594 2.734 14.955-9.043 26.248-4.099 11.292 4.94 17.995 1.415 18.965 9.421.966 8.003 12.943 3.837 20.421-.684 7.475-4.522 18.662-.468 25.365-3.994 6.705-3.524 7.565 3.59 21.405.101 13.84-3.493 18.662-.471 28.305 5.575 9.645 6.048 14.701 3.624 23.915 6.112 9.216 2.487 11.312-2.28 25.565 5.007 14.252 7.289 27.874 2.019 34.668 6.607 6.795 4.584 12.623 1.167 22.821 4.439 10.2 3.27 16.349 2.522 23.251 7.997 6.901 5.477 26.422 12.124 38.057 12.51 11.634.386 32.483 3.263 32.483 3.263s21.832 3.657 30.51 1.697 12.515.28 24.813-1.218c12.297-1.499 11.613 7.609 24.79 6.003 13.175-1.605 3.391 5.906 19.2 3.98 15.813-1.928 1.184 9.782 18.089 9.529 16.904-.256 24.185-13.778 30.529-5.527 6.348 8.254 23.376 1.665 32.035 6.927 8.659 5.264 21.064 4.653 30.386 8.03 9.324 3.377 13.283-.716 27.213 3.904 13.929 4.62 14.611-4.489 31.497 2.479 16.887 6.969 13.625-5.27 26.57-1.432 12.941 3.837 17.568-2.14 29.632 1.804 12.063 3.947 15.469 2.629 29.506 8.138 14.038 5.51 14.16-.823 28.305 5.577 14.143 6.398 15.362 1.739 26.889 1.237 11.527-.503 19.901-12.354 26.802-6.877 6.901 5.478 8.338 2.593 14.143 6.397 5.808 3.806 1.22-4.659 16.584-2.923 15.362 1.738 9.321 3.377 22.605 2.66 13.283-.715 11.313-2.281 23.484 2.554 12.173 4.836 15.923-1.037 31.265 7.923 15.344 8.962 16.438 10.635 22.589 9.883 6.147-.748 15.059-8.153 28.43-.757 13.374 7.394 12.747-5.166 22.949-1.896 10.199 3.27 10.989-4.947 27.768 1.13 16.778 6.08 12.494 7.503 28.307 5.576 15.813-1.928 11.761-5.945 28.754 1.913 16.995 7.855 21.726 2.765 31.478 9.702 9.752 6.933 13.948-2.604 25.887 7.676 11.938 10.278 13.067-2.495 23.486 2.553 10.414 5.048 19-5.023 21.959-2.676 2.957 2.347 4.07-3.203 10.649-.396 6.578 2.809 7.905-.965 16.458 3.41 8.547 4.372 10.325-3.064 16.904-.256 6.578 2.809 7.241.925 16.241 1.631 9 .71 16.799-1.142 20.099-3.351 3.299-2.207.68-9.107 15.919-1.038 15.238 8.071 7.262-6.299 22.841-2.782 15.58 3.516 24.577 4.224 27.857 9.241 3.279 5.016 18.322 4.084 18.322 4.084s13.069-2.495 18.105 2.309c5.037 4.8 14.808 4.51 25.01 7.781 10.198 3.269 10.649-.395 22.712 3.55 12.064 3.944 18.662-.468 27.105 3.014 8.444 3.485 15.581 3.516 26.119 2.232 10.54-1.285 13.497 1.064 24.921-.328 11.421-1.392.859 7.117 20.182 4.762 19.326-2.355 10.847 8.604 28.418 6.464 17.565-2.141 17.868 7.748 27.962 10.129 10.092 2.381 10.776-6.727 26.889 1.238 16.118 7.963 28.113-3.425 35.784 1.055 7.673 4.478 10.845 8.606 23.145 7.106 12.295-1.497 9.749 6.936 26.441 4.904 16.691-2.036 12.51.278 29.076 4.576 16.562 4.301 25.116 8.673 35.657 7.388 10.543-1.285 8.871 7.043 21.171 5.544 12.299-1.499 25.454 4.119 33.918.381 8.46-3.74 6.15-.75 16.689-2.034 10.545-1.285 15.904 6.185 26.227 3.122 10.326-3.063 9.792-7.511 23.61-3.781 13.822 3.732 12.408-.606 23.594 3.443 11.185 4.054 13.049 4.728 30.619 2.586 17.568-2.139 18.857 8.534 36.641 8.172 17.786-.363 28.648 1.02 33.918.379 5.273-.642 16.459 3.41 23.719-2.891 7.262-6.301 24.362 2.447 27.878 2.019 3.512-.427 19.198 3.979 26.675-.545 7.476-4.52 11.936 10.279 30.276 7.142 18.34-3.136 21.172 5.543 32.933-.402 11.759-5.946 16.007 7.074 27.429 5.683 11.417-1.392 16.816-8.366 28.989-3.532 12.17 4.834 16.669 5.189 32.481 3.261 15.812-1.926 10.955 9.495 26.55 5.79 15.598-3.706 20.187 4.761 27.337-2.429 7.156-7.19 11.403 5.83 28.756 1.913 17.353-3.92 30.834 4.363 38.867-2.931 8.035-7.299 20.399 6.538 27.446-1.54 7.048-8.08 21.641-5.346 27.251-10.542 5.613-5.198 19.073 10.31 32.483 3.261 13.41-7.049 3.553-14.872 16.174-13.704 12.62 1.169 10.559-8.506 24.037-.221 13.481 8.285 18.967 9.42 24.705-2.11 5.737-11.528 1.237-11.882 17.482-10.252 16.24 1.631 18.858 8.534 34.686-.617 15.832-9.147 23.144 7.109 37.092 4.508 13.946-2.602 19.988-4.241 27.768 1.128.646.446 2.012 1.177 2.936 1.655-3.116-1.498 7.363 4.599 12.909 3.749 2.585-.396 4.845 1.32 6.815 2.411 6.688 3.7 16.351 2.523 20.761-5.237 4.41-7.756 10.65-.395 19.544-.575 8.89-.182 8.695-9.183 16.259-5.593 7.564 3.591 22.087-9.009 25.923-6.766l3.837 2.239s6.937-8.969 17.694-8.474c10.757.494 14.181-8.047 26.03-5.879 11.85 2.166 18.145-12.14 29.224-8.978 11.079 3.162 16.709-9.258 28.451-7.98 11.739 1.278 13.839-3.489 18.338-3.138 4.5.354-1.952-8.787 12.191-2.386 14.144 6.399 25.114 8.672 33.041.487 7.924-8.188 16.024-.15 22.856-10.007 6.832-9.859 12.855-4.275 18.251-11.25 5.398-6.974 10.417 5.049 14.272.065 3.854-4.982 3.963-4.091 17.012.635 13.05 4.727 18.018-5.805 27.234-3.319 9.212 2.49 28.45-7.979 35.03-5.17 6.577 2.809 20.221-9.684 32.073-7.52 11.849 2.167-4.806-10.243 13.73-4.38 18.537 5.864 20.31-1.57 26.891 1.235 6.58 2.808 2.548-8.432 10.989-4.946 8.446 3.481 14.718-3.6 31.713 4.255 16.993 7.858 25.277-12.107 36.678-6.273 11.403 5.832 18.916-13.136 36.574-7.167 17.658 5.974 8.032-7.295 22.177-.896 14.143 6.401 7.367-5.412 19.987-4.242 12.622 1.17 18.897-5.911 28.004-4.314 9.108 1.597 11.314-2.282 20.74 1.986 9.432 4.265 9.555-2.067 21.838 3.657 12.277 5.725-.735-13.446 18.14-12.14 18.879 1.31 24.939-7.552 41.846-7.806 16.904-.256 2.438-9.321 14.395-6.266 11.96 3.054 2.439-9.326 13.41-7.052 10.974 2.274-1.056-16.115 11.545-7.724 12.603 8.393 11.079 3.164 20.294 5.65 9.214 2.488 14.611-4.489 23.717-2.889 9.107 1.597 25.046-6.662 33.165-5.848 8.123.815 20.224-9.685 34.369-3.286 14.142 6.402 27.123-4.207 31.73-2.963 4.607 1.244 15.81-1.927 20.74 1.985 4.93 3.912 19.326-2.355 27.321 4.794 7.996 7.149 15.149-.042 29.078 4.58 13.928 4.619 32.054-.299 38.631 2.512 6.581 2.808 5.524-13.309 17.033-6.586 11.506 6.719 23.268.773 31.71 4.257 8.445 3.485 12.532-6.944 20.314-1.571 7.779 5.37 15.167-7.265 19.324-2.355 4.159 4.908 16.351 2.52 23.358 8.884 7.01 6.367 12.748-5.161 24.039-.223 11.295 4.943 16.585-2.92 22.823 4.441 6.239 7.36 16.906-.253 22.711 3.549 5.81 3.806 17.677-1.248 22.267 7.216 4.588 8.467 21.511.989 27.857 9.24 6.345 8.254-2.063-9.675 14.613-4.488 16.67 5.19 18.68-7.69 30.744-3.747 12.066 3.946 24.345 9.669 29.487 15.361 5.147 5.691 19.327-2.354 22.606 2.662s6.491-5.304 13.607 1.951c7.119 7.256 14.506-5.377 17.786-.362 3.28 5.017 7.69-2.744 14.59 2.734 6.902 5.477 17.463-3.031 31.714 4.257 14.251 7.292 8.982 7.934 31.587 10.593 22.606 2.66 17.14-5.697 27.445-1.541 10.309 4.16 18.665-.467 28.202 4.69 9.535 5.154 23.824-2.001 23.824-2.001s4.95-3.312 23.377 1.663c18.429 4.975 15.937-8.26 32.395-4.848 16.456 3.409 15.274-6.375 26.354-3.212 11.076 3.163 12.103-10.502 20.435-7.907 8.338 2.594 40.645-10.368 40.645-10.368s21.764-11.678 28.021-11.539c6.255.142 25.797-.436 32.035 6.928 6.237 7.363 23.18-7.339 27.554-.651 4.373 6.688 11.459-15.836 16.818-8.367 5.358 7.472 4.839-4.199 14.035 5.513 9.195 9.708 18.592-15.804 23.522-11.892 4.928 3.91 13.84-3.492 22.604 2.659 8.765 6.153 15.705-2.817 20.742 1.986 5.038 4.8 15.041-.931 20.957 3.764 5.914 4.694 21.959-2.676 27.769 1.128 5.808 3.805 14.395-6.267 25.904.453 11.509 6.72 27.663.239 36.426 6.393 8.767 6.15 20.761-5.239 32.054-.298 11.293 4.942 9.573-9.289 20.526.207 10.95 9.497 18.682-7.691 28.111-3.425 9.429 4.266 5.287-7.865 19.324-2.354 14.037 5.509 9.573-9.29 28.969 3.689 19.396 12.98 28.021-11.538 35.567-.724 7.546 10.814 27.987 2.909 33.04.486 5.055-2.42 4.861-11.421 13.303-7.938 8.446 3.485 1.149-19.997 14.075-8.936 12.922 11.061 22.517-5.451 28.432-.757 5.913 4.693 14.827-2.709 22.05 5.436 7.223 8.146 7.905-.963 16.114 7.964 8.212 8.927 22.196-8.119 32.501-3.959 10.31 4.157 25.887 7.676 28.182 11.908 2.295 4.233 13.84-3.492 23.27.773 9.427 4.268 19.559-7.797 25.042-6.66 5.487 1.136 15.742-17.263 45.483-14.568 29.743 2.693 49.193-5.994 59.713-.058 10.525 5.938 19.221-3.245 27.988 2.907 8.763 6.154 28.645 1.023 35.009 2.052 6.365 1.029 28.327-1.647 29.653-5.419 1.326-3.773 29.65-5.417 33.919.379 4.265 5.8 23.627-11.002 29.31-.864 5.683 10.139 21.405.1 25.562 5.009 4.159 4.907 23.074-8.227 25.261-4.882 2.188 3.342 20.635 1.094 20.635 1.094s20.975-3.459 36.554.059c15.576 3.517-4.68-16.579 15.828-9.15 20.509 7.429 24.168-6.554 39.96-1.258 15.795 5.295 8.139-6.409 27.213 3.903 9.63 5.206 13.02 4.008 15.544 2.587 9.753-5.496 8.816 1.656 12.548-3.229 3.731-4.887 4.853-2.854 8.543-1.041 11.91 5.846 6.134-7.192 25.033 3.024 19.073 10.313 11.419-1.391 27.213 3.904 15.794 5.296 19.451-8.686 39.958-1.259 20.509 7.43.255-12.666 15.83-9.147 15.579 3.516 36.554.058 36.554.058s18.447-2.248 20.635 1.093c2.185 3.345 21.1-9.789 25.259-4.881 4.159 4.908 19.882-5.13 25.564 5.009 5.681 10.137 25.043-6.664 29.31-.865 4.266 5.798 32.589 4.152 33.917.38 1.329-3.773 23.291-6.448 29.653-5.42 6.365 1.031 26.246-4.099 35.012 2.054 8.764 6.151 17.46-3.03 27.984 2.906 10.52 5.939 29.974-2.748 59.714-.057 29.741 2.694 39.995-15.704 45.483-14.568 5.483 1.138 15.614-10.926 25.044-6.66 9.428 4.264 20.976-3.46 23.271.773 2.293 4.233 17.871 7.752 28.18 11.909 10.303 4.16 24.291-12.886 32.502-3.961 8.21 8.928 8.89-.181 16.112 7.965 7.224 8.145 16.138.742 22.052 5.436 5.913 4.695 15.509-11.818 28.433-.757 12.923 11.061 5.629-12.42 14.073-8.936 8.443 3.484 8.246-5.517 13.302-7.938 5.055-2.423 25.493-10.328 33.04.485 7.545 10.814 16.173-13.704 35.566-.723 19.396 12.978 14.935-1.821 28.971 3.69 14.035 5.509 9.896-6.621 19.325-2.355 9.428 4.265 17.158-12.923 28.109-3.426 10.955 9.496 9.235-4.737 20.525.206 11.296 4.941 23.29-6.447 32.056-.295 8.765 6.152 24.92-.331 36.428 6.391 11.509 6.72 20.096-3.352 25.904.453 5.808 3.804 21.851-3.565 27.769 1.127 5.914 4.696 15.919-1.034 20.957 3.767 5.037 4.8 11.977-4.168 20.739 1.984 8.767 6.151 17.676-1.251 22.606 2.66 4.929 3.912 14.328-21.601 23.522-11.892 9.196 9.71 8.677-1.96 14.037 5.512 5.359 7.468 12.444-15.055 16.816-8.368 4.376 6.688 21.317-8.013 27.555-.651 6.237 7.365 25.778 6.788 32.036 6.929 6.257.141 28.021-11.538 28.021-11.538s32.305-12.962 40.644-10.368c8.333 2.594 9.359-11.069 20.436-7.906 11.079 3.162 9.897-6.621 26.354-3.213 16.458 3.412 13.967-9.823 32.394-4.847 18.428 4.973 23.378 1.662 23.378 1.662s14.287-7.154 23.823-2c9.537 5.155 17.893.529 28.2 4.688 10.306 4.157 4.839-4.202 27.444-1.54 22.606 2.662 17.337 3.304 31.589 10.593 14.251 7.288 24.808-1.219 31.713 4.258 6.902 5.476 11.311-2.282 14.591 2.735 3.28 5.014 10.667-7.619 17.787-.364 7.115 7.255 10.327-3.062 13.607 1.951 3.28 5.017 17.46-3.029 22.605 2.662 5.143 5.69 17.421 11.416 29.487 15.36 12.064 3.944 14.075-8.937 30.745-3.746 16.672 5.188 8.267-12.741 14.611-4.488 6.346 8.251 23.271.773 27.86 9.239 4.587 8.466 16.454 3.411 22.262 7.216 5.808 3.804 16.475-3.813 22.715 3.549 6.237 7.362 11.527-.502 22.819 4.44 11.296 4.94 17.033-6.59 24.042-.221 7.008 6.365 19.198 3.977 23.358 8.885 4.157 4.911 11.543-7.725 19.323-2.355 7.781 5.371 11.87-5.055 20.315-1.573 8.44 3.486 20.202-2.461 31.711 4.258 11.507 6.721 10.453-9.395 17.031-6.587 6.578 2.809 24.705-2.108 38.633 2.511 13.929 4.623 21.082-2.569 29.076 4.582 7.997 7.148 22.393.882 27.323 4.793 4.928 3.912 16.132.743 20.739 1.985 4.608 1.244 17.586-9.363 31.731-2.965 14.143 6.402 26.245-4.1 34.366-3.284 8.121.814 24.061-7.446 33.167-5.847 9.107 1.597 14.505-5.378 23.718-2.891 9.215 2.488 7.689-2.741 20.294 5.651 12.601 8.392.571-9.998 11.544-7.725 10.972 2.274 1.451-10.104 13.41-7.05 11.957 3.055-2.509-6.011 14.394-6.266 16.907-.255 22.966-9.116 41.845-7.805 18.875 1.307 5.863-17.864 18.141-12.142 12.282 5.726 12.407-.608 21.837 3.658 9.428 4.268 11.634.388 20.741 1.985 9.105 1.597 15.38-5.483 28.002-4.313 12.623 1.168 5.845-10.643 19.989-4.242 14.144 6.398 4.521-6.87 22.176-.897 17.658 5.969 25.171-12.997 36.573-7.166 11.401 5.833 19.686-14.133 36.68-6.274 16.992 7.855 23.268.774 31.712 4.256 8.442 3.485 4.41-7.756 10.989-4.947 6.579 2.806 8.356-4.629 26.89 1.235 18.536 5.863 1.884-6.547 13.732-4.381 11.851 2.164 25.494-10.328 32.074-7.519 6.579 2.809 25.815-7.659 35.031-5.17 9.212 2.487 14.181-8.047 27.233-3.319 13.049 4.726 13.157 5.618 17.01.635 3.856-4.983 8.875 7.039 14.274.065 5.394-6.974 11.419-1.391 18.247-11.25 6.834-9.857 14.935-1.82 22.861-10.007 7.924-8.185 18.895-5.912 33.038.487 14.145 6.401 7.694-2.743 12.193-2.387 4.499.353 6.597-4.416 18.338-3.136 11.743 1.276 17.372-11.143 28.451-7.98 11.079 3.161 17.375-11.143 29.222-8.978 11.849 2.167 15.275-6.374 26.032-5.88 10.757.495 17.694-8.474 17.694-8.474l3.835 2.239c3.836 2.241 18.361-10.355 25.924-6.766 7.565 3.59 7.367-5.411 16.26-5.594 8.89-.18 15.13 7.181 19.54-.574 4.414-7.759 14.075-8.936 20.762-5.237 6.688 3.698 16.67 5.187 31.3-6.523 14.629-11.712 13.16 5.618 21.855-3.566 3.25-3.434 8.121-4.434 10.279-5.789 3.696-2.322 3.639-7.016 8.237-4.285 4.593 2.73 10.634 6.862 17 7.894 6.361 1.031 12.279 5.723 21.939 4.545 9.665-1.177 13.051 4.728 25.35 3.229 12.299-1.498 17.658 5.971 33.469 4.045 15.812-1.927 28.542.133 36.124-3.498 7.583-3.632 9.429 4.264 19.97 2.981 10.541-1.285 6.024 5.583 17.764 6.86 11.742 1.275 2.832 8.679 11.059 10.385 8.229 1.705 5.613-5.197 15.923-1.037 10.306 4.16 9.232-4.736 19.753 1.202 10.524 5.938 6.492-5.303 18.88 1.311 12.384 6.612 16.365-4.703 30.507 1.695 14.145 6.401-3.979 11.317 10.612 14.051 14.594 2.734 14.955-9.042 26.247-4.098 11.292 4.94 17.998 1.414 18.964 9.421.968 8.003 12.945 3.836 20.421-.684 7.473-4.522 18.66-.469 25.366-3.994 6.706-3.525 7.563 3.59 21.406.101 13.839-3.493 18.661-.472 28.305 5.575 9.643 6.047 14.701 3.623 23.916 6.111 9.213 2.487 11.31-2.28 25.561 5.008 14.253 7.288 27.877 2.019 34.67 6.606 6.794 4.586 12.621 1.168 22.82 4.44 10.201 3.269 16.35 2.521 23.252 7.996 6.901 5.478 26.42 12.124 38.055 12.511 11.638.385 32.487 3.261 32.487 3.261s21.833 3.658 30.51 1.698c8.677-1.959 12.512.279 24.811-1.218 12.298-1.498 11.616 7.609 24.792 6.003 13.176-1.604 3.39 5.906 19.2 3.979 15.812-1.927 1.181 9.783 18.086 9.53 16.906-.256 24.186-13.778 30.53-5.527 6.345 8.255 23.379 1.665 32.036 6.928 8.66 5.264 21.066 4.654 30.387 8.03 9.321 3.376 13.285-.716 27.214 3.905 13.928 4.621 14.608-4.489 31.496 2.479 16.886 6.968 13.625-5.27 26.567-1.432 12.943 3.836 17.57-2.142 29.633 1.804 12.063 3.947 15.471 2.627 29.505 8.137 14.037 5.511 14.163-.823 28.305 5.576 14.145 6.399 15.365 1.738 26.89 1.237 11.527-.503 19.903-12.355 26.803-6.877 6.9 5.479 8.335 2.595 14.142 6.398 5.809 3.806 1.219-4.659 16.583-2.923 15.365 1.738 9.322 3.377 22.606 2.66 13.285-.715 11.312-2.281 23.484 2.554 12.173 4.836 15.921-1.037 31.265 7.922 15.343 8.963 16.439 10.635 22.59 9.884 6.147-.748 15.058-8.153 28.428-.757 13.375 7.395 12.747-5.165 22.949-1.896 10.2 3.271 10.989-4.946 27.768 1.129 16.778 6.081 12.494 7.503 28.307 5.577 15.812-1.927 11.761-5.945 28.753 1.912 16.996 7.857 21.728 2.766 31.479 9.703 9.754 6.933 13.946-2.603 25.886 7.677 11.938 10.276 13.071-2.496 23.485 2.552 10.415 5.048 19.003-5.022 21.964-2.675 2.956 2.346 4.068-3.203 10.644-.397 6.582 2.809 7.908-.963 16.459 3.411 8.549 4.372 10.324-3.064 16.904-.256 6.58 2.809 7.242.925 16.241 1.63 8.999.711 16.798-1.142 20.098-3.35 3.298-2.207.681-9.107 15.92-1.038 15.238 8.07 7.261-6.3 22.84-2.782 15.579 3.516 24.577 4.224 27.858 9.241 3.28 5.016 18.322 4.086 18.322 4.086s13.07-2.496 18.104 2.306c5.039 4.8 14.807 4.511 25.008 7.783 10.202 3.267 10.651-.396 22.714 3.55 12.065 3.944 18.661-.469 27.106 3.015 8.443 3.483 15.577 3.514 26.119 2.229 10.54-1.284 13.499 1.064 24.92-.327 11.418-1.391.86 7.117 20.183 4.762 19.327-2.356 10.846 8.604 28.416 6.464 17.568-2.141 17.871 7.75 27.964 10.13 10.093 2.382 10.774-6.727 26.891 1.238 16.116 7.963 28.11-3.425 35.782 1.055 7.671 4.479 10.843 8.607 23.142 7.106 12.3-1.497 9.754 6.936 26.442 4.904 16.692-2.035 12.514.279 29.078 4.577 16.563 4.3 25.114 8.673 35.656 7.389 10.542-1.286 8.872 7.041 21.17 5.544 12.299-1.499 25.456 4.119 33.92.379 8.461-3.739 6.15-.748 16.69-2.033 10.542-1.284 15.901 6.184 26.226 3.123 10.327-3.064 9.792-7.511 23.612-3.783 13.82 3.735 12.405-.607 23.592 3.444 11.185 4.054 13.049 4.73 30.619 2.588 17.568-2.141 18.858 8.532 36.641 8.17 17.787-.362 28.649 1.022 33.919.38 5.271-.643 16.458 3.41 23.719-2.891 7.262-6.3 24.361 2.447 27.876 2.02 3.513-.429 19.198 3.977 26.675-.544 7.479-4.52 11.937 10.279 30.28 7.141 18.338-3.137 21.17 5.542 32.932-.402 11.76-5.946 16.007 7.075 27.429 5.682 11.419-1.391 16.817-8.364 28.988-3.532 12.172 4.834 16.671 5.19 32.483 3.262 15.811-1.926 10.954 9.496 26.548 5.791 9.839-2.338 15.297.165 19.781.529l27.393 118.948-11976.9-22.854-259.414-211.474-.008.001Z" style="fill:#fff1f7;fill-rule:nonzero"/></svg>