<svg viewBox="0 0 11339 1418" xmlns="http://www.w3.org/2000/svg" xml:space="preserve"
    style="fill-rule:evenodd;clip-rule:evenodd;stroke-linejoin:round;stroke-miterlimit:2"><path d="M14978.8 311.408c-3.069.89-5.747 2.858-7.591 6.735-7.406 15.587-33.211-9.95-38.793-1.025-5.584 8.925-43.08 6.689-44.875.925-1.805-5.765-30.892-9.637-39.304-8-8.41 1.641-34.776-6.013-46.307 3.498-11.528 9.511-23.139-4.461-36.995 4.736-13.858 9.203-39.697-3.907-79.022.519-39.326 4.429-53.102-23.646-60.35-21.849-7.243 1.799-20.781-16.581-33.211-9.948-12.433 6.63-27.795-5.084-30.787 1.422-2.987 6.505-23.561 12.052-37.157 18.528-13.591 6.472-32.286-19.492-43.058-5.739-10.76 13.756-11.766-.188-21.231 12.364-9.469 12.549-21.349 1.297-29.118 8.547-7.774 7.252-20.658-17.941-37.634-.873-16.982 17.078-7.589-18.961-18.722-13.539-11.132 5.419-10.976-8.366-17.692-12.023-6.716-3.657-33.85-15.558-43.717 1.079-9.864 16.637-21.551-20.825-47.074-.748-25.519 20.077-19.78-2.633-38.295 5.946-18.512 8.58-13.166-10.039-25.595-3.41-12.43 6.627-22.852-19.619-37.234-4.959-14.39 14.654-12.272-7.164-27.16.52-14.891 7.683-30.889-9.638-42.423-.124-11.528 9.511-32.975-.255-48.13 10.158-15.155 10.407-26.633-4.931-34.274.957-7.647 5.884-28.956-5.239-36.734 2.009-7.777 7.253-21.079-1.42-27.692 5.979-6.609 7.408-15.894-6.26-27.422 3.25-11.531 9.512-23.405-1.736-29.885 4.304-6.476 6.038-19.197-32.939-31.258-17.976-12.058 14.968-11.504-2.913-18.515 8.586-7.007 11.493-16.633-22.931-22.343-12.647-5.714 10.289-28.3-12.055-36.469-.715-8.171 11.343-34.039 10.656-42.318 10.937-8.276.278-37.207-17.389-37.207-17.389s-42.891-19.522-53.895-15.464c-11.002 4.056-12.508-16.858-27.129-11.904-14.625 4.957-13.172-10.039-34.909-4.652-21.741 5.394-18.59-14.902-42.923-7.097-24.33 7.807-30.916 2.785-30.916 2.785s-18.986-10.815-31.552-2.823c-12.557 7.992-23.666.993-37.26 7.466-13.59 6.472-6.451-6.387-36.337-2.08-29.885 4.304-22.904 5.232-41.678 16.542-18.779 11.306-32.85-1.617-41.918 6.844-9.075 8.457-14.995-3.381-19.277 4.337-4.287 7.713-14.201-11.56-23.541-.377-9.338 11.185-13.698-4.587-17.985 3.127-4.287 7.715-23.14-4.464-29.886 4.306-6.742 8.765-22.928 17.661-38.848 23.825-15.923 6.164-18.722-13.545-40.725-5.425-22.005 8.115-11.082-19.43-19.385-6.725-8.304 12.701-30.784 1.418-36.76 14.434-5.98 13.009-21.738 5.39-29.382 11.278-7.642 5.884-21.846-5.675-30.016 5.665-8.171 11.343-15.26-.652-30.148 7.033-14.888 7.681-22.61-9.924-31.815-.096-9.204 9.818-25.365 6.285-30.81 13.843-5.449 7.564-15.362-11.712-25.599-3.41-10.239 8.306-15.762-7.622-26.895-2.2-11.132 5.422-26.764-3.566-41.92 6.844-15.15 10.41-13.934-14.287-22.611-9.916-8.672 4.371-32.713-2.979-51.091 4.238-18.382 7.221-27.925-3.722-38.43 7.31-10.497 11.032-29.615 1.58-36.098 7.622-6.479 6.039-21.343 1.301-27.422 3.25-6.08 1.951-23.379-14.166-42.021-4.218-18.649 9.946-34.779-6.016-45.513-4.682-10.737 1.332-31.92-11.16-43.953-8.62-12.033 2.541-19.251-8.087-31.418-4.185-12.166 3.902-10.208-4.121-26.791 8.862-16.583 12.979-.873-15.31-15.362-11.718-14.495 3.595-2.038-15.459-17.825-10.659-15.789 4.8 3.252-9.233-19.12-9.452-22.374-.216-30.494-13.728-55.458-11.528-24.966 2.192-7.956-27.301-24.143-18.411-16.185 8.891-16.424-.809-28.856 5.821-12.427 6.631-15.385.713-27.42 3.253-12.033 2.538-20.414-8.243-37.105-6.323-16.687 1.917-7.854-16.242-26.496-6.296-18.649 9.946-6.059-10.473-29.356-1.144-23.3 9.321-33.453-19.652-48.474-10.603-15.024 9.045-26.209-21.449-48.607-9.239-22.402 12.205-30.784 1.424-41.915 6.842-11.135 5.422-5.925-11.835-14.6-7.464-8.674 4.364-11.106-7.005-35.569 2.165-24.467 9.17-2.565-10.01-18.221-6.572-15.658 3.437-33.85-15.558-42.524-11.187-8.675 4.366-34.246-11.47-46.412-7.564-12.165 3.901-18.855-12.18-36.073-4.809-17.214 7.372-17.348 8.737-22.505 1.146-5.154-7.592-11.664 10.871-18.884.245-7.217-10.63-15.126-2.016-24.274-17.048-9.149-15.026-19.779-2.633-30.359-15.092-10.577-12.457-25.072-8.863-43.72 1.079-18.643 9.948-10.205-4.123-16.156-3.531-5.949.584-8.778-6.696-24.303-4.618-15.524 2.074-23.115-16.89-37.734-11.93-14.626 4.954-23.117-16.894-38.773-13.456-15.653 3.44-20.278-9.606-34.51-8.738-14.228.865-23.509-12.802-23.509-12.802l-5.055 3.468c-5.052 3.473-24.409-15.674-34.379-10.101-9.97 5.575-9.812-8.211-21.576-8.399-11.772-.186-19.943 11.15-25.868-.685-5.922-11.837-18.722-13.544-27.529-7.811-8.808 5.732-22.005 8.117-41.492-9.669-19.489-17.792-17.351 8.736-28.959-5.243-4.336-5.221-10.798-6.708-13.665-8.76-4.922-3.523-4.896-10.708-10.946-6.478-6.053 4.226-13.998 10.614-22.408 12.261-8.409 1.642-16.185 8.89-28.986 7.183-12.802-1.704-17.218 7.377-33.507 5.203-16.289-2.169-23.3 9.322-44.244 6.533-20.943-2.789-37.766.494-47.842-4.99-10.073-5.487-12.432 6.626-26.392 4.767-13.962-1.859-7.906 8.612-23.433 10.689-15.521 2.073-3.651 13.321-14.52 16.017-10.871 2.698-7.481-7.903-21.078-1.427-13.593 6.475-12.269-7.162-26.127 2.042-13.861 9.2-8.648-8.058-24.967 2.201-16.319 10.254-21.712-7.035-40.354 2.905-18.646 9.946 5.393 17.294-13.885 21.627-19.28 4.338-19.89-13.696-34.778-6.009-14.888 7.677-23.797 2.348-24.991 14.621-1.189 12.27-17.084 6.006-27.029-.84-9.942-6.849-24.7-.527-33.609-5.859-8.913-5.331-9.972 5.575-28.326.372-18.355-5.209-24.7-.534-37.393 8.825-12.698 9.361-19.414 5.7-31.582 9.604-12.165 3.902-14.992-3.377-33.772 7.928-18.776 11.308-36.864 3.376-45.802 10.468-8.942 7.094-16.691 1.916-30.151 7.032-13.46 5.113-21.607 4.027-30.677 12.486-9.073 8.454-34.828 18.834-50.222 19.544-15.393.711-42.946 5.328-42.946 5.328s-28.853 5.824-40.356 2.91c-11.505-2.914-16.56.554-32.849-1.616-16.289-2.171-15.285 11.772-32.737 9.445-17.453-2.324-4.422 9.083-25.363 6.292-20.946-2.793-1.456 14.992-23.829 14.777-22.373-.219-32.157-20.856-40.46-8.154-8.309 12.705-30.915 2.786-42.316 10.934-11.401 8.151-27.824 7.343-40.121 12.608-12.299 5.266-17.587-.964-35.968 6.257-18.38 7.214-19.384-6.727-41.652 4.115-22.269 10.846-18.087-7.932-35.174-1.923-17.08 6.008-23.272-3.102-39.192 3.061-15.917 6.17-20.44 4.186-38.953 12.765-18.513 8.58-18.746-1.118-37.395 8.83-18.642 9.944-20.31 2.819-35.569 2.167-15.26-.652-26.471-18.72-35.542-10.259-9.072 8.459-11.005 4.055-18.645 9.941-7.644 5.888-1.665-7.123-21.976-4.306-20.31 2.818-12.299 5.266-29.885 4.304-17.587-.962-14.995-3.381-31.045 4.149-16.058 7.532-21.083-1.426-41.286 12.454-20.204 13.882-21.633 16.457-29.78 15.368-8.142-1.086-20.018-12.335-37.63-.872-17.613 11.463-16.924-7.782-30.388-2.668-13.46 5.111-14.597-7.466-36.731 2.011-22.135 9.48-16.451 11.618-37.398 8.828-20.945-2.792-15.629-8.989-38.027 3.22-22.402 12.205-28.72 4.456-41.549 15.179-12.826 10.716-18.485-3.847-34.169 12.018-15.683 15.864-17.32-3.687-31.049 4.151-13.724 7.834-25.2-7.501-29.089-3.877-3.887 3.621-5.421-4.866-14.095-.5-8.673 4.371-10.471-1.396-21.74 5.392-11.264 6.782-13.695-4.587-22.371-.221-8.674 4.371-9.574 1.49-21.474 2.664-11.902 1.178-22.243-1.58-26.635-4.926-4.387-3.35-1-13.943-21.078-1.429-20.073 12.516-9.677-9.575-30.253-4.032-20.578 5.546-32.478 6.72-36.761 14.437-4.284 7.717-24.199 6.443-24.199 6.443s-17.322-3.689-23.931 3.718c-6.614 7.403-19.544 7.06-33.009 12.171-13.458 5.109-14.095-.496-30.015 5.668-15.922 6.162-24.7-.529-35.835 4.892-11.133 5.42-20.576 5.543-34.537 3.682-13.961-1.863-17.849 1.766-32.98-.248-15.128-2.017-1.057 10.909-26.654 7.496-25.6-3.409-14.258 13.289-37.531 10.189-23.269-3.102-23.56 12.05-36.891 15.799-13.326 3.749-14.334-10.194-35.569 2.167-21.239 12.359-37.237-4.961-47.338 1.979-10.104 6.937-14.256 13.291-30.55 11.119-16.287-2.171-12.824 10.721-34.933 7.778-22.109-2.948-16.553.553-38.424 7.305-21.87 6.754-33.141 13.535-47.104 11.678-13.963-1.865-11.661 10.877-27.951 8.706-16.291-2.17-33.638 6.568-44.879.928-11.237-5.641-8.146-1.086-22.107-2.945-13.969-1.86-20.977 9.633-34.672 5.049-13.699-4.59-13.042-11.406-31.284-5.553-18.248 5.856-16.425-.803-31.184 5.51-14.755 6.324-17.215 7.375-40.486 4.275-23.273-3.097-24.86 13.259-48.398 12.888-23.537-.376-37.895 1.854-44.876.926-6.987-.931-21.742 5.389-31.422-4.188-9.678-9.578-32.209 3.994-36.866 3.377-4.652-.621-25.36 6.286-35.305-.564-9.944-6.848-15.68 15.865-39.985 11.243-24.304-4.617-27.954 8.705-43.583-.283-15.627-8.986-21.102 10.999-36.232 8.985-15.123-2.018-22.344-12.644-38.401-5.116-16.05 7.527-22.001 8.116-42.946 5.327-20.945-2.789-14.391 14.655-35.068 9.138-20.679-5.519-26.66 7.494-36.201-3.443-9.55-10.941-15.025 9.046-38.031 3.218-23.007-5.826-40.754 6.999-51.465-4.091-10.712-11.099-26.922 10.22-36.336-2.081-9.417-12.301-28.697-7.967-36.177-15.869-7.485-7.903-25.124 15.985-42.949 5.324-17.825-10.659-4.866-22.739-21.554-20.823-16.688 1.919-14.066-12.923-31.811-.096-17.747 12.826-24.993 14.621-32.716-2.981-7.72-17.598-1.767-18.187-23.246-15.523-21.472 2.663-24.862 13.259-45.908-.593-21.051-13.852-30.548 11.123-49.032 7.278-18.483-3.844-26.496-6.292-36.731 2.011-.86.697-2.692 1.846-3.908 2.588 4.229-2.407-9.629 7.1-16.999 5.851-3.425-.582-6.398 2.069-8.991 3.762-8.811 5.733-21.61 4.027-27.533-7.812-5.921-11.834-14.098-.496-25.868-.68-11.767-.19-11.608-13.976-21.577-8.401-9.968 5.576-29.328-13.575-34.378-10.101l-5.054 3.466s-9.281-13.666-23.51-12.798c-14.228.866-18.854-12.18-34.51-8.74-15.657 3.436-24.146-18.409-38.771-13.454-14.626 4.956-22.213-14.007-37.739-11.93-15.519 2.076-18.351-5.206-24.3-4.622-5.951.589 2.485-13.477-16.159-3.531-18.645 9.944-33.137 13.537-43.717 1.079-10.577-12.457-21.206-.065-30.355-15.093-9.15-15.031-17.059-6.415-24.277-17.045-7.22-10.626-13.728 7.837-18.885.243-5.156-7.589-5.291-6.225-22.504 1.148-17.217 7.373-23.908-8.709-36.076-4.809-12.161 3.906-37.735-11.93-46.411-7.562-8.672 4.371-26.865-14.625-42.526-11.192-15.656 3.44 6.246-15.737-18.217-6.57-24.464 9.171-26.893-2.198-35.572 2.166-8.675 4.368-3.465-12.89-14.597-7.466-11.137 5.419-19.516-5.361-41.918 6.841-22.399 12.207-33.584-18.287-48.604-9.236-15.025 9.046-25.178-19.929-48.478-10.605-23.298 9.327-10.707-11.09-29.356-1.147-18.642 9.947-9.807-8.213-26.495-6.294-16.688 1.921-25.072-8.861-37.105-6.323-12.035 2.539-14.996-3.378-27.422 3.251-12.435 6.628-12.667-3.07-28.858 5.823-16.183 8.891.823-20.604-24.14-18.41-24.968 2.199-33.087-11.313-55.461-11.531-22.372-.221-3.329-14.252-19.118-9.452-15.791 4.8-3.331-14.255-17.824-10.663-14.496 3.596 1.218-24.693-15.362-11.712-16.584 12.981-14.625 4.955-26.792 8.858-12.165 3.904-19.385-6.727-31.417-4.186-12.035 2.538-33.217-9.948-43.951-8.619-10.741 1.332-26.871-14.628-45.516-4.683-18.644 9.947-35.938-6.169-42.022-4.215-6.083 1.951-20.943-2.789-27.423 3.25-6.48 6.041-25.599-3.41-36.101 7.619-10.5 11.034-20.047.093-38.427 7.313-18.38 7.215-42.419-.133-51.091 4.236-8.676 4.368-7.457-20.327-22.613-9.912-15.151 10.406-30.783 1.42-41.913 6.84-11.138 5.422-16.662-10.509-26.9-2.2-10.233 8.304-20.149-10.974-25.597-3.411-5.45 7.557-21.608 4.026-30.811 13.844-9.204 9.823-16.925-7.775-31.813-.098-14.891 7.684-21.978-4.306-30.15 7.034-8.176 11.336-22.375-.216-30.015 5.665-7.645 5.887-23.405-1.733-29.384 11.28-5.976 13.016-28.454 1.733-36.76 14.431-8.304 12.707 2.622-14.837-19.387-6.726-22.001 8.12-24.803-11.586-40.724-5.424-15.922 6.166-32.107 15.056-38.848 23.826-6.747 8.767-25.602-3.41-29.886 4.306-4.284 7.714-8.648-8.058-17.984 3.125-9.34 11.187-19.256-8.085-23.54-.373-4.285 7.718-10.205-4.123-19.277 4.335-9.072 8.457-23.141-4.463-41.918 6.844-18.777 11.311-11.797 12.241-41.681 16.544-29.883 4.304-22.743-8.551-36.334-2.081-13.595 6.477-24.702-.525-37.265 7.468-12.56 7.99-31.548-2.824-31.548-2.824s-6.586-5.021-30.915 2.786c-24.331 7.805-21.181-12.489-42.921-7.099-21.739 5.391-20.284-9.608-34.909-4.65-14.621 4.956-16.132-15.962-27.129-11.902-11.004 4.06-53.898-15.468-53.898-15.468s-28.93-17.665-37.208-17.387c-8.276.281-34.143-.406-42.315 10.934-8.171 11.341-30.755-11.006-36.468-.717-5.712 10.287-15.339-24.14-22.347-12.645-7.007 11.497-6.45-6.38-18.511 8.583-12.06 14.964-24.778-24.013-31.259-17.974-6.479 6.039-18.353-5.207-29.884 4.3-11.531 9.511-20.812-4.155-27.425 3.254-6.614 7.405-19.913-1.275-27.689 5.976-7.777 7.25-29.089-3.875-36.733 2.011-7.643 5.888-19.119-9.45-34.273.958-15.155 10.409-36.604.649-48.132 10.162-11.534 9.509-27.532-7.815-42.421-.129-14.89 7.682-12.772-14.131-27.16.522-14.386 14.656-24.808-11.588-37.237-4.96-12.43 6.628-7.085-11.99-25.597-3.409-18.514 8.58-12.772-14.133-38.293 5.944-25.522 20.076-37.207-17.387-47.073-.747-9.866 16.637-37.003 4.739-43.716 1.08-6.717-3.656-6.559-17.444-17.691-12.024-11.138 5.422-1.743-30.616-18.724-13.543-16.976 17.074-29.857-8.12-37.633-.868-7.772 7.245-19.649-3.997-29.117 8.55-9.467 12.549-10.472-1.394-21.235 12.359-10.767 13.757-29.461-12.209-43.053-5.733-13.596 6.47-34.17 12.022-37.16 18.525-2.989 6.507-18.352-5.207-30.785 1.42-12.428 6.63-25.969-11.745-33.211-9.945-7.249 1.796-21.024-26.281-60.349-21.853-39.329 4.427-65.163-8.679-79.019.519-13.862 9.2-25.471-4.775-37.003 4.738-11.528 9.512-37.894 1.858-46.303 3.499-8.412 1.639-37.503-2.235-39.3-8-1.797-5.764-39.295-7.995-44.88.927-5.58 8.925-31.387-16.611-38.795-1.026-7.407 15.586-28.323.371-33.771 7.931-5.449 7.555-30.625-12.364-33.481-7.221-2.859 5.139-27.293 1.886-27.293 1.886s-27.794-5.084-48.37.461c-20.573 5.543 6.007-25.439-21.047-13.855-27.057 11.586-32.055-9.793-52.893-1.522-20.842 8.27-10.841-9.733-35.967 6.256-12.685 8.073-17.185 6.272-20.54 4.119-12.966-8.317-11.648 2.628-16.641-4.818-4.992-7.448-6.452-4.321-11.316-1.508-15.694 9.077-8.196-10.953-33.092 4.886-25.122 15.99-15.126-2.012-35.966 6.255-20.84 8.271-25.835-13.106-52.89-1.521-27.055 11.587-.476-19.397-21.05-13.85-20.576 5.542-48.371.461-48.371.461s-24.435-3.257-27.293 1.882c-2.856 5.146-28.03-14.777-33.479-7.218-5.448 7.558-26.367-7.657-33.774 7.929-7.404 15.586-33.211-9.95-38.794-1.027-5.58 8.922-43.08 6.69-44.877.925-1.8-5.763-30.891-9.638-39.301-7.998-8.412 1.641-34.775-6.013-46.306 3.498-11.531 9.51-23.138-4.461-37 4.735-13.856 9.202-39.694-3.904-79.019.519-39.325 4.429-53.099-23.646-60.349-21.85-7.243 1.8-20.784-16.575-33.214-9.946-12.429 6.628-27.795-5.086-30.786 1.421-2.987 6.506-23.562 12.056-37.158 18.526-13.589 6.475-32.287-19.489-43.054-5.735-10.764 13.757-11.766-.191-21.232 12.363-9.468 12.545-21.347 1.297-29.121 8.549-7.772 7.248-20.653-17.945-37.633-.873-16.978 17.076-7.586-18.964-18.721-13.544-11.135 5.422-10.974-8.364-17.69-12.022-6.717-3.659-33.85-15.557-43.717 1.078-9.865 16.639-21.554-20.823-47.072-.745-25.523 20.075-19.784-2.636-38.297 5.944-18.511 8.583-13.168-10.039-25.598-3.409-12.43 6.628-22.849-19.618-37.235-4.96-14.391 14.655-12.273-7.162-27.158.522-14.892 7.686-30.892-9.636-42.422-.126-11.531 9.512-32.979-.253-48.134 10.16-15.155 10.407-26.63-4.931-34.273.958-7.642 5.883-28.954-5.239-36.734 2.01-7.774 7.25-21.076-1.426-27.689 5.977-6.613 7.405-15.895-6.262-27.423 3.252-11.532 9.51-23.404-1.737-29.884 4.304-6.478 6.039-19.2-32.94-31.259-17.976-12.062 14.966-11.502-2.914-18.514 8.586-7.008 11.491-16.634-22.933-22.344-12.647-5.717 10.285-28.299-12.059-36.471-.719-8.172 11.342-34.036 10.656-42.314 10.937-8.279.278-37.208-17.388-37.208-17.388s-42.892-19.523-53.897-15.467c-11 4.06-12.509-16.856-27.13-11.901-14.626 4.956-13.169-10.039-34.909-4.652-21.742 5.393-18.592-14.903-42.921-7.097-24.331 7.803-30.917 2.784-30.917 2.784s-18.987-10.813-31.548-2.821c-12.563 7.994-23.671.993-37.264 7.465-13.592 6.473-6.45-6.384-36.334-2.079-29.884 4.302-22.904 5.234-41.684 16.542-18.777 11.306-32.843-1.615-41.918 6.844-9.072 8.456-14.993-3.38-19.277 4.334-4.285 7.714-14.199-11.561-23.541-.376-9.334 11.185-13.699-4.588-17.983 3.129-4.285 7.715-23.138-4.464-29.884 4.304-6.742 8.767-22.926 17.663-38.849 23.824-15.92 6.165-18.722-13.544-40.725-5.425-22.004 8.116-11.081-19.43-19.384-6.725-8.308 12.705-30.786 1.419-36.764 14.433-5.976 13.017-21.736 5.393-29.38 11.28-7.642 5.885-21.842-5.675-30.017 5.665-8.171 11.342-15.258-.65-30.146 7.034-14.893 7.679-22.612-9.921-31.816-.097-9.202 9.818-25.362 6.286-30.811 13.843-5.447 7.566-15.362-11.712-25.597-3.408-10.238 8.306-15.762-7.624-26.899-2.203-11.13 5.422-26.76-3.565-41.915 6.844-15.152 10.411-13.936-14.281-22.61-9.915-8.672 4.368-32.715-2.977-51.093 4.238-18.382 7.22-27.925-3.72-38.427 7.312-10.502 11.028-29.621 1.576-36.101 7.617-6.479 6.043-21.34 1.301-27.423 3.252-6.084 1.952-23.375-14.166-42.022-4.218-18.644 9.947-34.775-6.014-45.513-4.68-10.737 1.33-31.921-11.161-43.954-8.619-12.033 2.535-19.253-8.092-31.417-4.19-12.165 3.904-10.205-4.12-26.792 8.862-16.581 12.981-.866-15.307-15.362-11.716-14.492 3.594-2.033-15.459-17.825-10.661-15.788 4.802 3.255-9.231-19.117-9.452-22.376-.216-30.491-13.726-55.459-11.531-24.963 2.194-7.955-27.3-24.139-18.408-16.189 8.891-16.426-.809-28.856 5.821-12.43 6.629-15.392.712-27.426 3.251-12.03 2.537-20.412-8.244-37.102-6.321-16.689 1.917-7.851-16.242-26.498-6.294-18.644 9.943-6.057-10.476-29.354-1.146-23.302 9.321-33.453-19.654-48.476-10.604-15.023 9.049-26.207-21.447-48.609-9.236-22.397 12.201-30.779 1.42-41.917 6.841-11.132 5.422-5.921-11.837-14.597-7.467-8.674 4.363-11.108-7.005-35.57 2.164-24.461 9.169-2.565-10.009-18.218-6.571-15.659 3.436-33.85-15.558-42.527-11.188-8.674 4.365-34.246-11.468-46.412-7.565-12.163 3.902-18.854-12.179-36.075-4.808-17.213 7.37-17.348 8.738-22.502 1.146-5.157-7.593-11.666 10.874-18.887.244-7.217-10.627-15.126-2.014-24.271-17.042-9.152-15.027-19.784-2.637-30.362-15.094-10.578-12.457-25.07-8.867-43.713 1.079-18.647 9.948-10.212-4.123-16.161-3.532-5.951.587-8.78-6.696-24.303-4.617-15.525 2.074-23.111-16.89-37.736-11.934-14.626 4.955-23.116-16.89-38.77-13.45-15.656 3.438-20.284-9.608-34.512-8.742-14.229.865-23.508-12.798-23.508-12.798l-5.051 3.468c-5.052 3.471-24.412-15.678-34.381-10.103-9.971 5.577-9.809-8.213-21.578-8.399-11.768-.185-19.942 11.152-25.864-.683-5.927-11.839-18.724-13.542-27.532-7.809-8.809 5.73-22.002 8.111-41.492-9.677-19.486-17.786-17.351 8.742-28.957-5.239-4.34-5.224-10.797-6.706-13.668-8.762-4.915-3.516-4.891-10.706-10.945-6.476-6.049 4.228-13.997 10.616-22.409 12.261-8.407 1.642-16.184 8.89-28.983 7.183-12.802-1.706-17.217 7.375-33.507 5.2-16.292-2.168-23.301 9.325-44.244 6.538-20.945-2.793-37.767.489-47.842-4.992-10.075-5.487-12.43 6.627-26.394 4.767-13.962-1.859-7.908 8.612-23.43 10.691-15.526 2.069-3.651 13.321-14.519 16.015-10.871 2.698-7.485-7.9-21.082-1.429-13.59 6.479-12.269-7.156-26.125 2.045-13.86 9.2-8.65-8.057-24.969 2.198-16.315 10.252-21.707-7.035-40.351 2.906-18.649 9.946 5.389 17.292-13.888 21.625-19.281 4.339-19.889-13.695-34.778-6.008-14.887 7.678-23.8 2.347-24.989 14.622-1.193 12.266-17.089 6.005-27.031-.842-9.94-6.849-24.698-.526-33.61-5.858-8.912-5.332-9.968 5.577-28.325.371-18.352-5.211-24.699-.532-37.393 8.827-12.692 9.357-19.412 5.696-31.581 9.601-12.164 3.902-14.991-3.376-33.769 7.929-18.78 11.308-36.868 3.378-45.806 10.47-8.939 7.09-16.687 1.917-30.147 7.03-13.461 5.113-21.608 4.027-30.68 12.484-9.072 8.459-34.828 18.836-50.219 19.549-15.397.707-42.952 5.324-42.952 5.324s-28.851 5.823-40.355 2.911c-11.504-2.914-16.553.554-32.847-1.615-14.974-1.983-15.336 9.65-28.884 9.716v1455.21h16095.4V311.41l.006-.002Z" style="fill:#fff;fill-rule:nonzero"/><path d="M11338.6 524.223c-2.162.535-4.049 1.718-5.348 4.049-5.217 9.372-23.396-5.982-27.328-.616-3.934 5.366-30.348 4.022-31.613.556-1.271-3.466-21.762-5.794-27.688-4.81-5.924.987-24.498-3.615-32.621 2.103-8.121 5.719-16.301-2.682-26.062 2.848-9.762 5.533-27.965-2.349-55.668.312-27.703 2.663-37.408-14.217-42.514-13.137-5.102 1.082-14.639-9.969-23.396-5.981-8.758 3.986-19.58-3.057-21.688.855-2.104 3.911-16.598 7.246-26.176 11.14-9.574 3.891-22.744-11.72-30.332-3.451-7.58 8.271-8.289-.113-14.957 7.434-6.67 7.545-15.039.78-20.512 5.139-5.477 4.36-14.553-10.787-26.512-.525-11.963 10.268-5.346-11.4-13.189-8.14-7.842 3.258-7.732-5.03-12.463-7.229-4.731-2.199-23.846-9.354-30.797.649-6.949 10.003-15.182-12.521-33.162-.45-17.977 12.071-13.934-1.583-26.977 3.575-13.041 5.159-9.275-6.036-18.031-2.05-8.756 3.984-16.098-11.796-26.23-2.982-10.137 8.811-8.645-4.307-19.133.313-10.49 4.619-21.76-5.795-29.885-.075-8.121 5.719-23.23-.153-33.906 6.108-10.676 6.257-18.762-2.965-24.145.575-5.387 3.538-20.398-3.15-25.877 1.208-5.479 4.361-14.85-.854-19.508 3.595-4.656 4.454-11.197-3.764-19.318 1.954-8.123 5.719-16.488-1.044-21.053 2.588-4.562 3.63-13.523-19.805-22.02-10.808-8.494 8.999-8.104-1.752-13.043 5.162-4.936 6.91-11.717-13.787-15.74-7.604-4.025 6.186-19.936-7.248-25.691-.43-5.756 6.82-23.979 6.407-29.811 6.576-5.83.167-26.211-10.455-26.211-10.455s-30.215-11.738-37.967-9.298c-7.75 2.439-8.811-10.136-19.111-7.157-10.303 2.98-9.279-6.036-24.592-2.797-15.316 3.243-13.096-8.96-30.238-4.267-17.139 4.694-21.779 1.674-21.779 1.674s-13.375-6.502-22.227-1.697c-8.846 4.805-16.672.597-26.248 4.489-9.574 3.891-4.545-3.84-25.598-1.251-21.053 2.588-16.135 3.146-29.361 9.946-13.229 6.798-23.141-.972-29.529 4.115-6.393 5.085-10.564-2.033-13.58 2.608-3.02 4.637-10.004-6.951-16.584-.227-6.578 6.725-9.65-2.758-12.67 1.88-3.02 4.639-16.301-2.684-21.053 2.589-4.75 5.27-16.152 10.619-27.367 14.325-11.217 3.706-13.189-8.144-28.689-3.262-15.502 4.879-7.807-11.682-13.656-4.043-5.85 7.636-21.686.852-25.896 8.678-4.213 7.822-15.314 3.241-20.699 6.781-5.383 3.538-15.389-3.412-21.145 3.406-5.756 6.82-10.75-.392-21.238 4.229-10.488 4.618-15.928-5.967-22.412-.058-6.484 5.903-17.869 3.779-21.705 8.323-3.838 4.548-10.822-7.042-18.033-2.05-7.213 4.994-11.104-4.583-18.947-1.323-7.842 3.26-18.854-2.144-29.531 4.115-10.672 6.259-9.816-8.59-15.928-5.962-6.109 2.628-23.045-1.791-35.992 2.548-12.949 4.342-19.672-2.238-27.072 4.395-7.395 6.633-20.863.95-25.43 4.583-4.564 3.631-15.035.782-19.318 1.954-4.283 1.173-16.469-8.517-29.602-2.536-13.137 5.98-24.5-3.617-32.062-2.815-7.564.801-22.486-6.71-30.963-5.183-8.477 1.528-13.562-4.862-22.133-2.516-8.57 2.346-7.191-2.478-18.873 5.328-11.682 7.804-.615-9.205-10.822-7.045-10.211 2.161-1.436-9.295-12.557-6.409-11.123 2.886 2.291-5.551-13.469-5.683-15.762-.13-21.482-8.254-39.068-6.931-17.588 1.318-5.605-16.415-17.008-11.07-11.402 5.346-11.57-.486-20.328 3.5-8.754 3.987-10.838.429-19.316 1.956-8.477 1.526-14.381-4.956-26.139-3.802-11.756 1.153-5.533-9.765-18.666-3.785-13.137 5.98-4.268-6.297-20.68-.688-16.414 5.604-23.566-11.816-34.148-6.375-10.584 5.438-18.463-12.896-34.242-5.555-15.781 7.338-21.686.856-29.527 4.114-7.844 3.26-4.174-7.116-10.285-4.488-6.111 2.624-7.824-4.212-25.057 1.302-17.236 5.513-1.807-6.019-12.836-3.952-11.031 2.067-23.846-9.354-29.957-6.726-6.111 2.625-24.125-6.896-32.695-4.548-8.57 2.346-13.283-7.323-25.412-2.891-12.127 4.432-12.221 5.253-15.854.689-3.631-4.565-8.217 6.536-13.303.147-5.084-6.391-10.656-1.212-17.1-10.25-6.445-9.034-13.934-1.583-21.387-9.074-7.451-7.49-17.662-5.329-30.799.649-13.133 5.981-7.189-2.479-11.381-2.123-4.191.351-6.184-4.026-17.121-2.777-10.936 1.247-16.283-10.155-26.582-7.173-10.303 2.979-16.285-10.157-27.314-8.09-11.027 2.068-14.285-5.776-24.311-5.254-10.023.52-16.561-7.697-16.561-7.697l-3.561 2.085c-3.559 2.088-17.195-9.424-24.219-6.073-7.023 3.352-6.912-4.937-15.199-5.05-8.293-.112-14.049 6.704-18.223-.412-4.172-7.117-13.189-8.143-19.393-4.696-6.205 3.446-15.502 4.88-29.23-5.814-13.729-10.697-12.223 5.253-20.4-3.152-3.055-3.139-7.607-4.033-9.627-5.267-3.467-2.118-3.449-6.438-7.711-3.895-4.264 2.541-9.861 6.382-15.785 7.372-5.924.987-11.402 5.345-20.42 4.319-9.018-1.025-12.129 4.435-23.604 3.128-11.475-1.304-16.414 5.605-31.168 3.928-14.754-1.677-26.605.297-33.703-3-7.096-3.299-8.758 3.984-18.592 2.866-9.836-1.118-5.57 5.178-16.508 6.427-10.934 1.246-2.572 8.009-10.229 9.63-7.658 1.622-5.27-4.752-14.848-.858-9.576 3.893-8.643-4.306-18.406 1.228-9.764 5.531-6.092-4.845-17.588 1.323-11.496 6.165-15.295-4.23-28.428 1.747-13.135 5.98 3.799 10.398-9.781 13.003-13.582 2.608-14.012-8.235-24.5-3.613-10.488 4.616-16.764 1.412-17.605 8.791-.838 7.377-12.035 3.611-19.041-.505-7.004-4.118-17.4-.317-23.676-3.523-6.279-3.205-7.025 3.352-19.955.224-12.93-3.132-17.4-.321-26.342 5.306-8.945 5.628-13.676 3.427-22.248 5.774-8.57 2.346-10.561-2.03-23.791 4.767-13.227 6.799-25.969 2.03-32.266 6.294-6.299 4.265-11.758 1.152-21.24 4.228-9.482 3.074-15.221 2.421-21.611 7.507-6.391 5.083-24.535 11.324-35.379 11.751-10.844.427-30.254 3.203-30.254 3.203s-20.326 3.502-28.429 1.75c-8.105-1.752-11.666.333-23.141-.972-11.475-1.305-10.768 7.078-23.062 5.679-12.295-1.397-3.115 5.461-17.867 3.783-14.756-1.679-1.026 9.014-16.787 8.885-15.761-.132-22.653-12.54-28.502-4.903-5.854 7.639-21.779 1.675-29.81 6.574-8.032 4.901-19.601 4.415-28.264 7.581-8.664 3.166-12.389-.58-25.338 3.762-12.948 4.337-13.655-4.045-29.342 2.474-15.688 6.521-12.742-4.769-24.779-1.156-12.032 3.612-16.394-1.865-27.609 1.84-11.213 3.71-14.399 2.517-27.441 7.675-13.042 5.159-13.206-.672-26.343 5.309-13.133 5.979-14.308 1.695-25.057 1.303-10.75-.392-18.648-11.255-25.038-6.168-6.391 5.086-7.753 2.438-13.135 5.977-5.385 3.54-1.173-4.283-15.481-2.589-14.308 1.694-8.664 3.166-21.053 2.588-12.389-.579-10.563-2.033-21.87 2.494-11.312 4.529-14.852-.857-29.084 7.488-14.233 8.347-15.24 9.895-20.979 9.24-5.736-.653-14.102-7.416-26.509-.524-12.408 6.892-11.922-4.679-21.407-1.604-9.482 3.073-10.283-4.489-25.876 1.209-15.593 5.7-11.589 6.985-26.345 5.308-14.755-1.679-11.01-5.405-26.789 1.936-15.781 7.338-20.232 2.679-29.269 9.126-9.036 6.443-13.022-2.313-24.071 7.226-11.048 9.538-12.201-2.217-21.873 2.496-9.668 4.71-17.752-4.51-20.492-2.331-2.738 2.177-3.819-2.926-9.929-.301-6.11 2.628-7.377-.839-15.315 3.242-7.935 4.078-9.648-2.758-15.76-.133-6.11 2.628-6.744.896-15.127 1.602-8.385.708-15.67-.95-18.764-2.962-3.09-2.014-.704-8.383-14.848-.859-14.141 7.525-6.817-5.757-21.312-2.424-14.497 3.334-22.88 4.04-25.897 8.68-3.018 4.64-17.047 3.874-17.047 3.874s-12.203-2.218-16.859 2.235c-4.659 4.451-13.768 4.245-23.253 7.318-9.481 3.072-9.93-.298-21.145 3.408-11.216 3.705-17.4-.318-25.244 2.941-7.843 3.259-14.495 3.333-24.33 2.214-9.835-1.12-12.574 1.062-23.233-.149-10.657-1.213-.745 6.559-18.777 4.507-18.034-2.05-10.044 7.99-26.439 6.126-16.392-1.865-16.597 7.245-25.988 9.499-9.388 2.254-10.098-6.129-25.057 1.303-14.962 7.431-26.232-2.983-33.348 1.19-7.118 4.171-10.043 7.991-21.521 6.685-11.474-1.305-9.034 6.446-24.609 4.677-15.575-1.773-11.661.332-27.068 4.392-15.407 4.061-23.347 8.138-33.183 7.021-9.837-1.121-8.215 6.54-19.691 5.235-11.476-1.305-23.696 3.949-31.615.558-7.916-3.392-5.739-.653-15.574-1.771-9.84-1.118-14.777 5.792-24.425 3.036-9.65-2.76-9.187-6.858-22.038-3.339-12.855 3.521-11.571-.483-21.968 3.313-10.394 3.802-12.127 4.434-28.521 2.57-16.395-1.862-17.513 7.972-34.094 7.749-16.581-.226-26.696 1.115-31.614.557-4.922-.56-15.316 3.24-22.135-2.518-6.818-5.759-22.69 2.401-25.971 2.03-3.277-.373-17.865 3.78-24.871-.339-7.005-4.117-11.046 9.539-28.168 6.76-17.121-2.776-19.692 5.234-30.702-.17-11.009-5.403-14.866 6.613-25.524 5.402-10.654-1.213-15.741-7.602-27.052-3.076-11.307 4.526-15.499 4.88-30.254 3.203s-10.138 8.811-24.704 5.494c-14.568-3.318-18.781 4.506-25.502-2.07-6.728-6.578-10.585 5.439-26.792 1.935-16.207-3.503-28.709 4.208-36.255-2.46-7.546-6.673-18.965 6.145-25.597-1.251-6.634-7.396-20.216-4.79-25.485-9.541-5.273-4.752-17.699 9.611-30.256 3.201-12.557-6.409-3.428-13.672-15.184-12.52-11.756 1.154-9.909-7.77-22.41-.058-12.502 7.712-17.606 8.791-23.047-1.792-5.438-10.581-1.245-10.935-16.376-9.333-15.126 1.601-17.514 7.972-32.34-.357-14.83-8.328-21.52 6.688-34.541 4.376-13.021-2.311-18.666-3.783-25.876 1.209-.606.419-1.896 1.11-2.753 1.556 2.979-1.447-6.783 4.269-11.975 3.518-2.413-.35-4.507 1.244-6.334 2.262-6.207 3.447-15.223 2.421-19.396-4.697-4.171-7.115-9.931-.298-18.223-.409-8.289-.114-8.177-8.403-15.2-5.051-7.022 3.353-20.66-8.162-24.218-6.073l-3.56 2.084s-6.538-8.217-16.562-7.695c-10.023.521-13.282-7.323-24.311-5.255-11.03 2.066-17.01-11.068-27.313-8.089-10.303 2.98-15.648-8.422-26.585-7.173-10.933 1.248-12.928-3.13-17.119-2.779-4.192.354 1.751-8.103-11.383-2.123-13.135 5.979-23.344 8.139-30.797.649-7.451-7.49-14.939-.039-21.384-9.075-6.446-9.037-12.017-3.857-17.102-10.248-5.086-6.389-9.671 4.712-13.304.146-3.632-4.563-3.727-3.743-15.853.69-12.129 4.433-16.842-5.236-25.414-2.891-8.567 2.348-26.583-7.173-32.695-4.547-6.109 2.628-18.925-8.793-29.958-6.729-11.029 2.068 4.4-9.462-12.833-3.95-17.234 5.514-18.945-1.322-25.059 1.302-6.111 2.626-2.441-7.75-10.283-4.489-7.846 3.258-13.748-3.223-29.53 4.113-15.779 7.34-23.658-10.995-34.239-5.553-10.585 5.439-17.737-11.982-34.151-6.376-16.413 5.608-7.543-6.668-20.68-.69-13.133 5.981-6.909-4.938-18.665-3.784-11.756 1.155-17.662-5.328-26.139-3.802-8.478 1.527-10.564-2.031-19.318 1.955-8.76 3.985-8.923-1.846-20.329 3.501-11.4 5.346.58-12.388-17.006-11.069-17.589 1.322-23.308-6.802-39.07-6.933-15.76-.133-2.345-8.569-13.468-5.683-11.124 2.886-2.346-8.571-12.556-6.411-10.212 2.162.858-14.847-10.822-7.042-11.683 7.805-10.303 2.979-18.874 5.326-8.57 2.347-13.656-4.045-22.132-2.517-8.478 1.526-23.4-5.981-30.962-5.182-7.566.801-18.929-8.795-32.064-2.816-13.134 5.981-25.317-3.709-29.603-2.534-4.285 1.173-14.753-1.677-19.318 1.954-4.565 3.632-18.034-2.05-25.432 4.581-7.397 6.634-14.122.056-27.07 4.397-12.948 4.338-29.883-.08-35.992 2.547-6.112 2.626-5.253-12.222-15.93-5.96-10.673 6.257-21.685.854-29.526 4.113-7.846 3.26-11.738-6.319-18.95-1.323-7.209 4.993-14.194-6.598-18.032-2.051-3.839 4.544-15.222 2.421-21.705 8.324-6.484 5.906-11.923-4.675-22.411-.059-10.49 4.62-15.483-2.589-21.24 4.229-5.759 6.816-15.762-.13-21.144 3.406-5.386 3.54-16.488-1.042-20.7 6.782-4.21 7.826-20.045 1.042-25.896 8.677-5.85 7.64 1.847-8.921-13.657-4.044-15.499 4.882-17.473-6.966-28.689-3.261-11.216 3.707-22.618 9.052-27.367 14.325-4.753 5.271-18.035-2.05-21.053 2.589-3.018 4.638-6.092-4.845-12.669 1.879-6.58 6.726-13.565-4.861-16.583-.224-3.019 4.64-7.189-2.479-13.58 2.606s-16.302-2.683-29.53 4.115c-13.227 6.801-8.31 7.36-29.362 9.947-21.052 2.588-16.022-5.141-25.596-1.251-9.577 3.894-17.402-.316-26.252 4.49-8.848 4.804-22.224-1.698-22.224-1.698s-4.64-3.019-21.779 1.675c-17.14 4.693-14.921-7.509-30.236-4.268-15.314 3.241-14.289-5.777-24.592-2.796-10.3 2.98-11.364-9.597-19.111-7.156-7.752 2.441-37.969-9.3-37.969-9.3s-20.38-10.621-26.212-10.454c-5.83.169-24.052-.244-29.809 6.574-5.756 6.819-21.666-6.617-25.69-.431-4.024 6.185-10.806-14.514-15.743-7.603-4.936 6.913-4.544-3.836-13.04 5.161-8.496 8.997-17.455-14.438-22.021-10.807-4.564 3.631-12.929-3.131-21.052 2.585-8.123 5.719-14.661-2.498-19.32 1.957-4.659 4.452-14.028-.767-19.506 3.593-5.478 4.359-20.492-2.33-25.877 1.209-5.384 3.54-13.468-5.682-24.144.576-10.676 6.258-25.786.39-33.907 6.11-8.125 5.717-19.395-4.699-29.884-.078-10.489 4.619-8.997-8.496-19.133.314-10.134 8.812-17.476-6.967-26.232-2.982-8.756 3.985-4.991-7.209-18.032-2.05-13.042 5.159-8.997-8.497-26.976 3.574s-26.211-10.454-33.161-.449c-6.95 10.003-26.067 2.849-30.796.649-4.732-2.198-4.621-10.488-12.463-7.229-7.846 3.26-1.228-18.408-13.19-8.143-11.959 10.266-21.033-4.882-26.511-.522-5.475 4.356-13.842-2.403-20.512 5.141-6.669 7.545-7.377-.838-14.959 7.431-7.585 8.271-20.754-7.341-30.329-3.447-9.578 3.89-24.072 7.228-26.178 11.138-2.106 3.912-12.928-3.131-21.687.854-8.755 3.986-18.294-7.062-23.396-5.98-5.106 1.08-14.81-15.801-42.513-13.139-27.706 2.662-45.905-5.218-55.666.312-9.765 5.532-17.943-2.871-26.067 2.849-8.121 5.719-26.695 1.117-32.619 2.104-5.926.985-26.419-1.344-27.685-4.81-1.266-3.466-27.682-4.807-31.616.557-3.931 5.366-22.111-9.987-27.33-.617-5.218 9.371-19.952.223-23.79 4.769-3.839 4.542-21.574-7.434-23.586-4.342-2.014 3.09-19.227 1.134-19.227 1.134s-19.58-3.057-34.075.277c-14.493 3.333 4.232-15.295-14.827-8.33-19.06 6.966-22.581-5.888-37.261-.915-14.682 4.972-7.637-5.852-25.337 3.761-8.936 4.854-12.106 3.771-14.47 2.477-9.134-5.001-8.205 1.58-11.723-2.897-3.516-4.478-4.545-2.598-7.971-.907-11.056 5.458-5.774-6.585-23.312 2.938-17.698 9.614-10.656-1.21-25.337 3.761-14.681 4.973-18.2-7.88-37.259-.915-19.059 6.967-.335-11.662-14.829-8.327-14.495 3.332-34.075.277-34.075.277s-17.214-1.958-19.227 1.132c-2.012 3.094-19.746-8.885-23.585-4.34-3.838 4.544-18.574-4.604-23.792 4.767-5.216 9.371-23.396-5.982-27.329-.617-3.931 5.364-30.348 4.022-31.614.556-1.268-3.465-21.762-5.795-27.686-4.809-5.926.987-24.498-3.615-32.621 2.103-8.123 5.718-16.3-2.682-26.065 2.847-9.761 5.533-27.963-2.347-55.666.312-27.703 2.663-37.406-14.217-42.513-13.137-5.103 1.082-14.642-9.966-23.398-5.98-8.756 3.985-19.581-3.058-21.688.854-2.104 3.912-16.598 7.249-26.176 11.139-9.573 3.893-22.745-11.718-30.33-3.448-7.583 8.271-8.289-.115-14.957 7.433-6.67 7.543-15.038.78-20.515 5.14-5.475 4.358-14.549-10.789-26.511-.525-11.96 10.267-5.344-11.402-13.188-8.143-7.844 3.26-7.731-5.029-12.462-7.228-4.732-2.2-23.846-9.354-30.797.648-6.949 10.004-15.184-12.52-33.16-.448-17.98 12.07-13.937-1.585-26.979 3.574-13.04 5.16-9.276-6.036-18.033-2.05-8.756 3.985-16.096-11.795-26.23-2.982-10.138 8.811-8.646-4.306-19.132.314-10.491 4.621-21.762-5.794-29.885-.076-8.123 5.719-23.232-.152-33.908 6.109-10.676 6.257-18.76-2.965-24.144.576-5.384 3.537-20.397-3.15-25.878 1.208-5.476 4.359-14.847-.857-19.506 3.594-4.658 4.452-11.197-3.765-19.318 1.955-8.124 5.718-16.487-1.044-21.052 2.588-4.564 3.631-13.526-19.805-22.021-10.808-8.497 8.998-8.103-1.752-13.042 5.162-4.937 6.909-11.718-13.788-15.741-7.604-4.027 6.184-19.935-7.25-25.692-.432-5.757 6.819-23.977 6.407-29.809 6.576-5.832.167-26.211-10.455-26.211-10.455s-30.216-11.738-37.969-9.299c-7.749 2.441-8.812-10.135-19.112-7.156-10.303 2.98-9.277-6.036-24.592-2.797-15.316 3.243-13.097-8.96-30.236-4.267-17.14 4.692-21.78 1.674-21.78 1.674s-13.375-6.501-22.224-1.696c-8.85 4.806-16.675.597-26.251 4.488-9.575 3.892-4.544-3.838-25.596-1.25-21.052 2.587-16.135 3.147-29.365 9.946-13.227 6.798-23.136-.971-29.529 4.115-6.391 5.084-10.562-2.032-13.58 2.606-3.019 4.638-10.003-6.951-16.584-.226-6.575 6.725-9.65-2.759-12.668 1.881-3.019 4.639-16.3-2.684-21.052 2.588-4.75 5.271-16.151 10.62-27.368 14.324-11.215 3.707-13.189-8.143-28.689-3.262-15.501 4.88-7.806-11.682-13.655-4.043-5.853 7.639-21.688.853-25.899 8.678-4.21 7.826-15.312 3.242-20.697 6.782-5.384 3.538-15.387-3.412-21.146 3.406-5.756 6.819-10.749-.391-21.237 4.229-10.491 4.617-15.929-5.965-22.413-.058-6.482 5.903-17.866 3.779-21.705 8.323-3.837 4.549-10.822-7.042-18.032-2.049-7.212 4.994-11.104-4.584-18.949-1.325-7.841 3.26-18.852-2.143-29.528 4.115-10.674 6.26-9.817-8.586-15.928-5.961-6.109 2.626-23.046-1.79-35.993 2.548-12.949 4.341-19.672-2.237-27.07 4.396-7.398 6.631-20.867.948-25.432 4.58-4.564 3.633-15.033.782-19.318 1.955-4.286 1.174-16.467-8.517-29.603-2.536-13.134 5.981-24.498-3.616-32.062-2.814-7.564.8-22.487-6.71-30.964-5.182-8.477 1.524-13.563-4.865-22.132-2.519-8.57 2.347-7.189-2.477-18.874 5.328-11.681 7.805-.61-9.203-10.822-7.044-10.209 2.161-1.432-9.295-12.557-6.41-11.122 2.887 2.293-5.55-13.467-5.683-15.763-.13-21.48-8.253-39.069-6.933-17.585 1.319-5.604-16.414-17.005-11.068-11.404 5.346-11.571-.486-20.328 3.5-8.756 3.986-10.843.428-19.32 1.955-8.475 1.525-14.38-4.957-26.137-3.801-11.757 1.153-5.531-9.765-18.667-3.784-13.134 5.978-4.267-6.299-20.679-.689-16.415 5.604-23.566-11.817-34.149-6.376-10.583 5.441-18.462-12.895-34.243-5.553-15.778 7.336-21.683.854-29.529 4.113-7.842 3.26-4.171-7.117-10.283-4.489-6.111 2.623-7.825-4.212-25.058 1.301-17.232 5.513-1.807-6.018-12.834-3.951-11.031 2.066-23.846-9.354-29.958-6.727-6.111 2.625-24.125-6.895-32.696-4.548-8.568 2.346-13.282-7.323-25.413-2.891-12.126 4.431-12.221 5.254-15.852.689-3.633-4.565-8.218 6.538-13.305.147-5.084-6.39-10.656-1.211-17.098-10.247-6.447-9.035-13.937-1.585-21.389-9.075-7.452-7.49-17.661-5.331-30.794.649-13.136 5.981-7.194-2.479-11.385-2.124-4.192.353-6.185-4.026-17.12-2.776-10.937 1.247-16.281-10.155-26.584-7.175-10.303 2.979-16.284-10.155-27.312-8.087-11.029 2.067-14.289-5.777-24.312-5.256-10.024.52-16.561-7.695-16.561-7.695l-3.558 2.085c-3.559 2.087-17.197-9.426-24.22-6.074-7.024 3.353-6.91-4.938-15.201-5.05-8.29-.111-14.048 6.705-18.22-.411-4.175-7.118-13.19-8.142-19.395-4.695-6.206 3.445-15.5 4.877-29.23-5.818-13.727-10.694-12.223 5.256-20.399-3.15-3.057-3.141-7.606-4.032-9.628-5.268-3.463-2.114-3.446-6.437-7.711-3.894-4.261 2.542-9.86 6.383-15.786 7.372-5.922.987-11.401 5.345-20.417 4.319-9.019-1.026-12.129 4.434-23.605 3.126-11.477-1.303-16.414 5.607-31.168 3.931-14.755-1.679-26.605.294-33.703-3.001-7.097-3.299-8.756 3.984-18.593 2.866-9.836-1.118-5.571 5.178-16.506 6.428-10.937 1.244-2.572 8.009-10.228 9.629-7.658 1.622-5.273-4.75-14.851-.859-9.574 3.895-8.643-4.303-18.404 1.229-9.764 5.532-6.094-4.844-17.59 1.322-11.493 6.164-15.292-4.23-28.426 1.747-13.137 5.98 3.797 10.397-9.783 13.002-13.583 2.609-14.011-8.234-24.5-3.612-10.487 4.616-16.766 1.411-17.604 8.791-.84 7.375-12.038 3.611-19.042-.506-7.002-4.118-17.399-.316-23.677-3.522-6.278-3.206-7.022 3.353-19.954.223-12.928-3.133-17.399-.32-26.342 5.307-8.941 5.626-13.675 3.425-22.247 5.773-8.569 2.346-10.561-2.03-23.789 4.767-13.23 6.799-25.972 2.031-32.269 6.295-6.297 4.263-11.755 1.153-21.237 4.227-9.483 3.074-15.222 2.421-21.613 7.506-6.391 5.086-24.535 11.325-35.377 11.754-10.847.425-30.258 3.201-30.258 3.201s-20.325 3.501-28.429 1.75c-8.104-1.752-11.661.333-23.139-.971-10.549-1.192-10.804 5.802-20.348 5.842v874.942h11338.6V524.223h-.016Z" style="fill:#fff1f7;fill-rule:nonzero"/></svg>