<svg width="166" height="801" viewBox="0 0 166 801" fill="none" xmlns="http://www.w3.org/2000/svg">
    <path d="M165.489 800.493H0.493652C0.878652 799.081 1.85667 797.542 4.23267 795.568C10.8127 790.102 8.60465 784.581 12.0146 774.084C15.4246 763.587 9.28869 763.993 16.0857 755.397C22.8827 746.801 15.4608 752.391 23.1978 740.897C30.9348 729.403 21.9117 730.074 27.0137 720.525C32.1157 710.976 26.7427 716.435 30.5417 709.666C34.3407 702.897 33.7997 694.716 31.9617 690.516C30.1237 686.316 31.8079 686.065 36.2769 672.309C40.7459 658.553 32.8658 666.796 38.3218 656.163C43.7778 645.53 35.5068 650.048 38.5818 643.041C41.6568 636.034 35.6498 637.286 39.2158 631.241C42.7818 625.196 33.6217 623.821 37.5037 611.875C41.3857 599.929 36.3537 603.097 40.1357 593.921C43.9177 584.745 34.2178 591.198 41.1108 579.831C48.0038 568.464 37.8106 572.754 43.4106 565.368C49.0106 557.982 43.7358 560.668 44.6318 551.758C45.5278 542.848 44.0418 537.558 48.4858 536.202C52.9298 534.846 53.3988 533.402 51.5618 529.202C49.7248 525.002 52.1927 517.402 56.8447 511.71C61.4967 506.018 63.7596 502.749 62.4006 498.31C61.0416 493.871 66.5817 494.064 65.7007 489.378C64.8197 484.692 68.5326 481.893 68.2336 474.191C67.9346 466.489 75.7176 461.015 74.3586 456.571C72.9996 452.127 75.7877 454.635 78.9917 448.471C82.1957 442.307 74.4298 434.181 79.5688 429.448C84.7078 424.715 78.9266 424.036 86.4636 418.082C94.0006 412.128 84.9528 409.182 87.6958 405.675C90.4388 402.168 87.5308 400.019 91.7898 389.996C93.3538 386.313 94.0286 383.719 93.5256 380.956C93.0226 378.193 94.5127 376.074 92.1597 375.309C89.8067 374.544 89.2898 377.979 86.7468 375.952C84.2038 373.925 87.3088 370.532 89.6938 367.504C92.0788 364.476 94.0146 365.904 92.7236 362.485C91.4326 359.066 97.9087 355.766 96.0847 353.373C94.2607 350.98 94.7897 349.35 95.4287 346.155C96.0213 343.507 97.1716 341.015 98.8027 338.846C99.8757 337.393 98.8248 333.846 101.581 332.146C104.337 330.446 104.576 330.318 103.594 327.797C103.068 326.652 102.975 325.356 103.331 324.148C103.687 322.939 104.468 321.9 105.531 321.223C107.806 319.761 108.404 319.154 107.245 317.177C106.988 316.815 106.82 316.398 106.754 315.96C106.687 315.521 106.724 315.073 106.861 314.651C106.998 314.23 107.231 313.846 107.543 313.53C107.855 313.214 108.236 312.976 108.656 312.833C110.277 312.159 109.801 313.006 109.936 307.047C110.071 301.088 111.904 304.688 112.302 301.614C112.7 298.54 112.98 295.831 114.238 295.039C115.496 294.247 118.257 293.139 116.854 290.684C115.451 288.229 112.654 285.12 115.542 284.255C118.43 283.39 121.536 281.201 120.264 280.189C118.992 279.177 121.812 277.889 119.279 277.069C116.746 276.249 115.292 275.169 118.409 273.583C121.526 271.997 121.825 271.691 120.909 269.592C119.993 267.493 125.5 264.082 123.437 261.811C121.374 259.54 127.265 258.653 123.821 256.933C120.377 255.213 129.035 253.825 126.252 251.919C123.469 250.013 122.603 247.132 125.486 246.268C128.369 245.404 129.372 242.928 128.697 241.308C128.022 239.688 132.734 241.819 133.063 237.725C133.392 233.631 137.015 234.808 137.345 230.713C137.675 226.618 141.537 228.271 141.154 225.144C140.771 222.017 142.919 219.714 142.354 216.529C141.789 213.344 143.272 210.624 141.521 209.854C139.77 209.084 145.721 208.618 144.198 205.922C142.675 203.226 146.637 202.114 144.818 200.322C142.999 198.53 147.252 195.91 145.79 193.633C144.328 191.356 143.18 190.583 144.49 188.407C145.8 186.231 143.02 184.926 145.64 181.176C148.26 177.426 148.549 175.916 147.024 173.222C145.499 170.528 147.054 169.433 146.372 166.607C145.69 163.781 151.83 164.581 148.497 161.295C145.164 158.009 150.497 155.14 148.197 153.595C145.897 152.05 149.497 150.816 148.473 150.283C147.449 149.75 146.53 148.252 148.314 145.23C150.098 142.208 146.658 141.09 148.44 138.068C150.222 135.046 144.87 135.505 147.603 130.79C150.336 126.075 150.213 125.836 148.177 127.176C146.141 128.516 143.531 125.465 146.877 122.552C150.223 119.639 144.311 117.516 149.058 116.457C153.805 115.398 152.288 113.903 151.307 111.383C150.326 108.863 155.307 107.083 152.645 105.418C149.983 103.753 147.994 103.107 151.513 99.0474C155.032 94.9874 153.944 94.0355 152.546 92.1785C151.148 90.3215 154.797 87.7075 152.082 86.8245C149.367 85.9415 148.155 84.7454 150.72 81.7784C153.285 78.8114 153.743 75.5574 152.476 75.1454C151.209 74.7334 157.097 73.2454 154.376 71.1604C151.655 69.0754 153.57 68.0964 155.162 63.8114C156.754 59.5264 159.303 62.1555 156.754 59.5275C154.205 56.8995 154.554 54.6104 156.941 52.1844C159.328 49.7584 160.089 46.8004 158.754 45.3674C157.419 43.9344 161.235 40.7804 160.143 38.0144C158.056 32.7334 163.459 30.8865 162.343 26.9235C161.227 22.9605 163.89 24.6234 163.121 18.3704C162.352 12.1174 165.835 11.2464 163.871 6.20642C162.713 3.23642 161.704 1.97635 161.942 0.506348L165.494 0.506359L165.489 800.493Z" fill="white" />
</svg>