<svg viewBox="0 0 11339 1418" xmlns="http://www.w3.org/2000/svg" xml:space="preserve"
    style="fill-rule:evenodd;clip-rule:evenodd;stroke-linejoin:round;stroke-miterlimit:2"><path d="M6117.87 743.435c-.168-.082-.368-.182-.621-.311-.498-.256-.083-.054.621.311Z" style="fill-rule:nonzero"/><path d="M-262.192 911.309c2.259.56 4.23 1.796 5.587 4.23 5.451 9.792 24.445-6.25 28.553-.644 4.111 5.607 31.708 4.203 33.03.581 1.328-3.621 22.737-6.053 28.929-5.025 6.189 1.031 25.596-3.778 34.083 2.197 8.485 5.975 17.032-2.802 27.23 2.976 10.2 5.781 29.218-2.454 58.163.326 28.945 2.781 39.085-14.855 44.419-13.726 5.331 1.13 15.295-10.416 24.445-6.249 9.15 4.164 20.457-3.194 22.66.894 2.198 4.086 17.342 7.57 27.349 11.638 10.003 4.066 23.763-12.245 31.692-3.605 7.919 8.641 8.66-.118 15.627 7.767 6.969 7.883 15.713.815 21.431 5.369 5.723 4.556 15.205-11.27 27.7-.547 12.5 10.727 5.586-11.911 13.781-8.505 8.193 3.404 8.078-5.255 13.021-7.553 4.942-2.298 24.915-9.773 32.177.678 7.261 10.451 15.863-13.082 34.649-.47 18.782 12.612 14.558-1.654 28.186 3.735 13.625 5.39 9.69-6.306 18.839-2.143 9.148 4.163 16.819-12.323 27.405-3.115 10.592 9.205 9.033-4.5 19.991.327 10.96 4.826 22.735-6.055 31.224-.079 8.485 5.976 24.271-.16 35.426 6.382 11.154 6.537 19.603-3.098 25.227.601 5.628 3.696 21.312-3.291 27.037 1.262 5.724 4.556 15.515-.893 20.382 3.756 4.865 4.654 11.699-3.933 20.184 2.042 8.487 5.975 17.227-1.091 21.996 2.705 4.767 3.792 14.129-20.693 23.007-11.294 8.875 9.402 8.468-1.83 13.628 5.394 5.157 7.219 12.242-14.405 16.445-7.945 4.206 6.463 20.83-7.573 26.843-.45 6.014 7.125 25.053 6.694 31.147 6.87 6.091.175 27.386-10.923 27.386-10.923s31.569-12.265 39.668-9.715c8.097 2.548 9.206-10.59 19.968-7.478 10.764 3.114 9.695-6.306 25.694-2.922 16.002 3.388 13.683-9.362 31.593-4.459 17.907 4.905 22.755 1.749 22.755 1.749s13.975-6.793 23.223-1.773c9.243 5.021 17.42.624 27.425 4.691 10.003 4.065 4.748-4.012 26.745-1.307 21.996 2.704 16.858 3.288 30.677 10.391 13.822 7.103 24.178-1.014 30.852 4.3 6.68 5.313 11.038-2.124 14.189 2.725 3.155 4.846 10.452-7.263 17.327-.238 6.873 7.027 10.083-2.881 13.238 1.965 3.155 4.847 17.032-2.805 21.997 2.704 4.962 5.506 16.875 11.096 28.593 14.967 11.72 3.872 13.78-8.509 29.975-3.408 16.197 5.096 8.157-12.207 14.268-4.225 6.112 7.979 22.658.891 27.057 9.066 4.401 8.174 16 3.388 21.626 7.086 5.624 3.697 16.079-3.565 22.093 3.559 6.014 7.125 11.232-.41 22.19 4.418 10.958 4.825 16.642-6.233 23.416-.06 6.775 6.167 18.67 3.948 22.678 8.696 4.01 4.752 11.307-7.358 18.841-2.142 7.536 5.218 11.602-4.788 19.796-1.382 8.194 3.406 19.699-2.24 30.855 4.299 11.15 6.54 10.256-8.975 16.642-6.229 6.383 2.745 24.078-1.871 37.605 2.661 13.529 4.538 20.554-2.337 28.285 4.593 7.727 6.93 21.798.993 26.57 4.788 4.768 3.794 15.709.817 20.184 2.042 4.475 1.227 17.207-8.899 30.928-2.649 13.726 6.247 25.598-3.78 33.499-2.942 7.903.837 23.494-7.011 32.351-5.415 8.857 1.597 14.17-5.08 23.125-2.629 8.954 2.451 7.513-2.589 19.719 5.567 12.205 8.154.642-9.618 11.307-7.361 10.669 2.258 1.5-9.711 13.12-6.696 11.621 3.015-2.394-5.8 14.072-5.938 16.469-.136 22.445-8.624 40.819-7.241 18.377 1.377 5.856-17.151 17.771-11.567 11.913 5.586 12.088-.507 21.239 3.657 9.146 4.166 11.323.449 20.181 2.044 8.857 1.594 15.026-5.179 27.311-3.972 12.283 1.204 5.781-10.203 19.502-3.955 13.726 6.248 4.46-6.58 21.607-.72 17.15 5.855 24.622-12.344 35.679-6.661 11.058 5.683 19.29-13.473 35.776-5.804 16.489 7.668 22.658.895 30.851 4.299 8.195 3.406 4.361-7.435 10.746-4.689 6.385 2.741 8.174-4.401 26.18 1.36 18.008 5.76 1.888-6.289 13.411-4.129 11.525 2.159 24.915-9.773 31.3-7.028 6.384 2.743 25.206-7.205 34.16-4.75 8.954 2.451 13.878-7.652 26.551-3.021 12.67 4.631 12.769 5.488 16.564.72 3.794-4.77 8.586 6.829 13.9.154 5.311-6.678 11.133-1.267 17.866-10.71 6.734-9.439 14.558-1.654 22.345-9.481 7.785-7.825 18.454-5.567 32.18.679 13.721 6.249 7.511-2.591 11.891-2.219 4.379.367 6.461-4.206 17.888-2.9 11.426 1.303 17.013-10.61 27.774-7.495 10.764 3.113 17.014-10.612 28.538-8.452 11.521 2.161 14.925-6.034 25.4-5.49 10.473.544 17.304-8.042 17.304-8.042l3.72 2.179c3.719 2.181 17.966-9.846 25.305-6.345 7.337 3.502 7.221-5.159 15.88-5.277 8.664-.117 14.678 7.005 19.039-.429 4.359-7.437 13.781-8.508 20.263-4.908 6.483 3.601 16.196 5.099 30.54-6.074 14.344-11.177 12.77 5.488 21.314-3.293 3.192-3.28 7.948-4.213 10.058-5.503 3.623-2.213 3.604-6.727 8.057-4.07 4.455 2.655 10.303 6.668 16.492 7.702 6.19 1.033 11.913 5.585 21.336 4.513 9.422-1.071 12.672 4.634 24.662 3.268 11.989-1.362 17.149 5.856 32.564 4.104 15.416-1.752 27.798.311 35.214-3.134 7.414-3.446 9.15 4.162 19.425 2.994 10.277-1.168 5.82 5.41 17.248 6.715 11.424 1.302 2.687 8.368 10.688 10.062 8.001 1.695 5.506-4.965 15.513-.897 10.005 4.068 9.03-4.499 19.231 1.283 10.201 5.779 6.365-5.062 18.376 1.383 12.011 6.441 15.981-4.42 29.702 1.825 13.724 6.248-3.969 10.864 10.22 13.586 14.19 2.725 14.64-8.604 25.598-3.776 10.958 4.824 17.515 1.475 18.394 9.185.875 7.707 12.574 3.773 19.894-.528 7.318-4.302 18.18-.331 24.737-3.681 6.561-3.348 7.34 3.503 20.85.234 13.509-3.271 18.179-.335 27.522 5.544 9.346 5.88 14.289 3.581 23.245 6.033 8.954 2.451 11.035-2.121 24.857 4.981 13.82 7.103 27.133 2.121 33.713 6.576 6.581 4.456 12.285 1.204 22.192 4.417 9.906 3.212 15.903 2.53 22.579 7.844 6.678 5.31 25.635 11.831 36.965 12.277 11.33.446 31.61 3.347 31.61 3.347s21.237 3.659 29.703 1.828c8.468-1.83 12.189.348 24.178-1.015 11.989-1.364 11.251 7.395 24.096 5.933 12.846-1.459 3.254 5.706 18.667 3.953 15.418-1.755 1.072 9.418 17.54 9.283 16.467-.138 23.668-13.102 29.779-5.123 6.116 7.981 22.755 1.75 31.146 6.87 8.392 5.119 20.48 4.612 29.531 7.921 9.052 3.308 12.944-.606 26.473 3.93 13.529 4.532 14.267-4.226 30.657 2.585 16.392 6.813 13.314-4.983 25.89-1.208 12.571 3.774 17.129-1.948 28.846 1.923 11.716 3.876 15.045 2.63 28.671 8.019 13.627 5.39 13.798-.702 27.524 5.547 13.721 6.247 14.949 1.771 26.18 1.361 11.232-.409 19.484-11.759 26.16-6.444 6.677 5.314 8.101 2.547 13.724 6.245 5.626 3.698 1.225-4.475 16.175-2.705 14.949 1.769 9.052 3.307 21.996 2.703 12.944-.604 11.037-2.124 22.85 2.606 11.819 4.732 15.518-.895 30.388 7.824 14.871 8.721 15.923 10.338 21.919 9.654 5.993-.682 14.734-7.748 27.697-.547 12.964 7.199 12.456-4.889 22.367-1.677 9.906 3.21 10.743-4.69 27.035 1.264 16.292 5.955 12.109 7.298 27.526 5.546 15.416-1.755 11.503-5.648 27.99 2.022 16.488 7.667 21.138 2.8 30.58 9.535 9.441 6.733 13.606-2.416 25.15 7.55 11.543 9.966 12.748-2.316 22.854 2.608 10.101 4.921 18.547-4.712 21.41-2.435 2.861 2.275 3.99-3.057 10.374-.315 6.384 2.746 7.708-.876 16.001 3.388 8.291 4.259 10.081-2.882 16.467-.139 6.383 2.745 7.046.936 15.805 1.673 8.76.74 16.372-.992 19.605-3.094 3.228-2.105.735-8.759 15.513-.898 14.775 7.861 7.123-6.015 22.267-2.533 15.147 3.484 23.906 4.222 27.058 9.071 3.153 4.846 17.811 4.047 17.811 4.047s12.75-2.317 17.614 2.335c4.868 4.651 14.386 4.436 24.296 7.646 9.906 3.211 10.375-.311 22.092 3.562 11.719 3.871 18.18-.332 26.376 3.073 8.194 3.405 15.144 3.482 25.42 2.313 10.276-1.17 13.138 1.11 24.274-.156 11.135-1.267.779 6.853 19.619 4.709 18.842-2.141 10.494 8.349 27.624 6.401 17.127-1.948 17.341 7.57 27.153 9.926 9.808 2.355 10.55-6.404 26.18 1.361 15.632 7.764 27.407-3.117 34.842 1.244 7.437 4.357 10.493 8.35 22.486 6.984 11.988-1.363 9.439 6.735 25.712 4.887 16.273-1.853 12.183.347 28.281 4.589 16.097 4.243 24.393 8.502 34.67 7.335 10.278-1.171 8.583 6.833 20.573 5.469 11.992-1.364 24.758 4.126 33.032.583 8.271-3.544 5.997-.682 16.272-1.851 10.281-1.168 15.44 6.052 25.52 3.173 10.083-2.883 9.599-7.166 23.026-3.489 13.431 3.679 12.089-.505 22.952 3.461 10.86 3.973 12.671 4.634 29.8 2.686 17.129-1.946 18.298 8.329 35.622 8.096 17.324-.236 27.892 1.165 33.031.582 5.142-.585 16.002 3.385 23.127-2.631 7.123-6.016 23.706 2.509 27.135 2.121 3.423-.39 18.665 3.949 25.985-.354 7.319-4.302 11.541 9.966 29.431 7.063 17.888-2.901 20.574 5.468 32.078-.178 11.502-5.645 15.532 6.909 26.668 5.644 11.131-1.267 16.446-7.943 28.264-3.214 11.814 4.729 16.194 5.1 31.61 3.347 15.416-1.752 10.592 9.206 25.811 5.74 15.221-3.467 19.623 4.708 26.645-2.163 7.03-6.872 11.059 5.684 27.993 2.022 16.933-3.66 29.996 4.397 37.88-2.57 7.884-6.972 19.815 6.42 26.744-1.307 6.931-7.728 21.122-5.005 26.627-9.969 5.509-4.964 18.492 10.042 31.612 3.346 13.12-6.697 3.582-14.286 15.865-13.083 12.283 1.207 10.353-8.117 23.414-.059 13.062 8.058 18.395 9.185 24.08-1.872 5.682-11.056 1.301-11.425 17.11-9.752 15.804 1.673 18.299 8.33 33.789-.373 15.495-8.7 22.485 6.988 36.089 4.572 13.605-2.414 19.503-3.952 27.036 1.264.633.437 1.981 1.159 2.876 1.625-3.112-1.511 7.087 4.461 12.512 3.676 2.521-.366 4.709 1.3 6.618 2.363 6.485 3.601 15.905 2.53 20.265-4.908 4.358-7.434 10.376-.311 19.04-.427 8.661-.12 8.544-8.78 15.881-5.278 7.337 3.503 21.586-8.528 25.304-6.344l3.719 2.177s6.831-8.585 17.305-8.039c10.472.544 13.877-7.652 25.4-5.491 11.524 2.159 17.772-11.564 28.537-8.451 10.765 3.113 16.35-8.8 27.777-7.495 11.423 1.304 13.507-3.27 17.886-2.904 4.38.37-1.83-8.466 11.893-2.218 13.724 6.247 24.39 8.504 32.177.678 7.785-7.825 15.609-.04 22.343-9.481 6.735-9.442 12.555-4.03 17.868-10.708 5.314-6.675 10.105 4.924 13.901.153 3.794-4.768 3.894-3.91 16.563.721 12.673 4.63 17.597-5.472 26.553-3.021 8.951 2.454 27.774-7.494 34.16-4.75 6.383 2.746 19.774-9.188 31.301-7.031 11.523 2.161-4.597-9.886 13.408-4.127 18.007 5.761 19.794-1.381 26.182 1.36 6.385 2.744 2.551-8.097 10.744-4.69 8.198 3.404 14.364-3.367 30.854 4.297 16.486 7.67 24.718-11.487 35.773-5.801 11.06 5.682 18.532-12.519 35.682-6.663 17.148 5.859 7.881-6.967 21.607-.72 13.721 6.248 7.218-5.159 19.501-3.954 12.283 1.207 18.454-5.567 27.311-3.972 8.858 1.595 11.037-2.122 20.183 2.042 9.153 4.164 9.323-1.928 21.24 3.658 11.911 5.586-.606-12.943 17.769-11.565 18.377 1.382 24.352-7.107 40.821-7.243 16.466-.139 2.45-8.952 14.071-5.938 11.623 3.015 2.451-8.955 13.119-6.698 10.67 2.258-.896-15.513 11.307-7.358 12.207 8.155 10.765 3.113 19.72 5.566 8.954 2.452 14.268-4.227 23.124-2.63 8.858 1.594 24.449-6.249 32.35-5.414 7.905.837 19.777-9.19 33.501-2.943 13.722 6.248 26.451-3.875 30.929-2.648 4.477 1.225 15.415-1.752 20.184 2.041 4.77 3.795 18.842-2.142 26.572 4.787 7.728 6.93 14.755.058 28.283 4.593 13.528 4.532 31.222-.084 37.605 2.661 6.386 2.744 5.489-12.77 16.644-6.227 11.152 6.537 22.657.892 30.85 4.297 8.197 3.406 12.264-6.602 19.799-1.382 7.532 5.217 14.83-6.894 18.84-2.143 4.011 4.748 15.904 2.529 22.678 8.697 6.774 6.171 12.457-4.885 23.415-.062 10.96 4.827 16.177-2.705 22.192 4.419 6.017 7.121 16.469-.136 22.092 3.558 5.627 3.699 17.227-1.088 21.627 7.086 4.399 8.177 20.944 1.089 27.057 9.067 6.112 7.983-1.93-9.322 14.269-4.225 16.194 5.1 18.256-7.279 29.975-3.408 11.719 3.873 23.632 9.459 28.593 14.966 4.967 5.508 18.844-2.142 21.997 2.706 3.153 4.846 6.365-5.062 13.237 1.963 6.875 7.028 14.173-5.079 17.326-.234 3.154 4.848 7.511-2.59 14.189 2.723 6.677 5.314 17.032-2.804 30.853 4.299 13.82 7.106 8.683 7.69 30.678 10.393 21.996 2.704 16.74-5.371 26.743-1.307 10.007 4.069 18.182-.33 27.429 4.691 9.244 5.02 23.22-1.774 23.22-1.774s4.848-3.154 22.755 1.75c17.908 4.904 15.59-7.845 31.591-4.459 16 3.386 14.93-6.036 25.694-2.921 10.762 3.113 11.874-10.028 19.968-7.477 8.099 2.55 39.67-9.717 39.67-9.717s21.294-11.097 27.387-10.922c6.092.176 25.13-.255 31.145 6.868 6.014 7.125 22.637-6.913 26.842-.45 4.204 6.463 11.29-15.165 16.448-7.944 5.157 7.223 4.748-4.008 13.625 5.393 8.876 9.401 18.237-15.086 23.008-11.292 4.768 3.794 13.508-3.272 21.995 2.701 8.487 5.975 15.318-2.61 20.186 2.045 4.868 4.651 14.657-.802 20.38 3.754 5.724 4.554 21.411-2.435 27.037 1.263 5.625 3.7 14.072-5.937 25.226.602 11.154 6.539 26.942.407 35.427 6.384 8.489 5.973 20.264-4.91 31.223-.082 10.959 4.826 9.4-8.877 19.991.328 10.588 9.207 18.259-7.279 27.407-3.115 9.149 4.163 5.215-7.534 18.84-2.142 13.627 5.39 9.401-8.878 28.185 3.734 18.785 12.612 27.386-10.923 34.648-.469 7.261 10.451 27.235 2.976 32.176.678 4.944-2.297 4.828-10.958 13.021-7.553 8.198 3.406 1.283-19.233 13.782-8.508 12.494 10.726 21.975-5.101 27.699-.546 5.72 4.553 14.462-2.51 21.431 5.372 6.968 7.883 7.708-.876 15.629 7.764 7.925 8.642 21.685-7.67 31.689-3.602 10.007 4.065 25.151 7.552 27.351 11.638 2.2 4.087 13.507-3.272 22.659.892 9.147 4.165 19.114-7.379 24.444-6.248 5.335 1.128 15.474-16.509 44.419-13.728 28.948 2.781 47.962-5.452 58.161.326 10.202 5.78 18.747-3 27.235 2.977 8.485 5.975 27.891 1.168 34.081 2.198 6.191 1.029 27.603-1.405 28.926-5.026 1.322-3.621 28.922-5.022 33.033.581 4.107 5.607 23.102-10.434 28.555-.644 5.451 9.791 20.846.233 24.856 4.982 4.011 4.746 22.541-7.767 24.643-4.536 2.104 3.228 20.089 1.185 20.089 1.185s20.457-3.194 35.602.289c15.142 3.482-4.422-15.98 15.491-8.703 19.913 7.277 23.593-6.153 38.931-.956 15.34 5.195 7.979-6.115 26.473 3.929 9.336 5.072 12.648 3.94 15.118 2.588 9.544-5.225 8.573 1.651 12.249-3.027 3.673-4.678 4.748-2.714 8.328-.947 11.551 5.702 6.033-6.88 24.357 3.069 18.491 10.045 11.133-1.264 26.472 3.93 15.339 5.196 19.016-8.233 38.929-.956 19.913 7.279.35-12.185 15.494-8.7 15.144 3.481 35.602.289 35.602.289s17.985-2.046 20.089 1.183c2.102 3.233 20.631-9.283 24.642-4.535 4.01 4.748 19.406-4.81 24.858 4.981 5.45 9.791 24.445-6.25 28.554-.644 4.107 5.604 31.708 4.202 33.031.58 1.325-3.62 22.737-6.054 28.927-5.024 6.191 1.032 25.596-3.777 34.083 2.197 8.487 5.974 17.03-2.802 27.233 2.975 10.198 5.781 29.216-2.453 58.161.326 28.944 2.782 39.082-14.855 44.418-13.726 5.332 1.13 15.298-10.413 24.447-6.248 9.148 4.163 20.458-3.195 22.66.892 2.198 4.087 17.342 7.574 27.349 11.638 10.002 4.068 23.764-12.243 31.689-3.602 7.923 8.642 8.661-.12 15.627 7.766 6.969 7.881 15.712.815 21.435 5.37 5.72 4.554 15.201-11.271 27.699-.548 12.496 10.727 5.584-11.913 13.779-8.508 8.196 3.406 8.078-5.255 13.021-7.552 4.944-2.299 24.914-9.773 32.177.678 7.26 10.452 15.864-13.082 34.646-.468 18.786 12.611 14.562-1.656 28.188 3.734 13.625 5.391 9.692-6.306 18.841-2.142 9.149 4.164 16.818-12.323 27.406-3.115 10.592 9.205 9.034-4.499 19.989.328 10.962 4.828 22.738-6.054 31.225-.08 8.487 5.976 24.273-.158 35.428 6.383 11.154 6.537 19.6-3.098 25.226.602 5.625 3.695 21.311-3.291 27.037 1.262 5.722 4.555 15.513-.895 20.381 3.755 4.866 4.652 11.698-3.934 20.183 2.043 8.489 5.974 17.226-1.091 21.996 2.704 4.769 3.793 14.132-20.693 23.008-11.293 8.878 9.402 8.466-1.83 13.626 5.394 5.159 7.218 12.244-14.406 16.447-7.945 4.207 6.461 20.828-7.575 26.843-.452 6.015 7.126 25.052 6.696 31.145 6.871 6.094.175 27.386-10.923 27.386-10.923s31.57-12.264 39.671-9.716c8.096 2.55 9.207-10.589 19.968-7.477 10.765 3.114 9.693-6.306 25.695-2.922 16.002 3.388 13.683-9.362 31.591-4.458 17.908 4.902 22.756 1.749 22.756 1.749s13.974-6.793 23.22-1.772c9.246 5.021 17.422.623 27.427 4.689 10.004 4.066 4.748-4.01 26.743-1.305 21.996 2.702 16.859 3.287 30.682 10.391 13.819 7.103 24.172-1.014 30.852 4.3 6.677 5.312 11.035-2.123 14.189 2.723s10.451-7.263 17.327-.236c6.87 7.026 10.082-2.883 13.236 1.965 3.154 4.847 17.03-2.805 21.995 2.704 4.963 5.507 16.875 11.096 28.595 14.966 11.717 3.873 13.78-8.508 29.975-3.408 16.195 5.098 8.155-12.206 14.267-4.225 6.115 7.982 22.66.892 27.059 9.067 4.399 8.177 15.999 3.388 21.625 7.086 5.625 3.697 16.076-3.565 22.094 3.559 6.014 7.125 11.23-.409 22.188 4.419 10.962 4.823 16.643-6.233 23.418-.06 6.772 6.168 18.667 3.948 22.678 8.696 4.009 4.753 11.307-7.358 18.84-2.141 7.535 5.218 11.602-4.789 19.798-1.384 8.193 3.406 19.697-2.239 30.851 4.298 11.153 6.541 10.257-8.971 16.642-6.228 6.383 2.744 24.079-1.87 37.606 2.662 13.53 4.536 20.554-2.337 28.284 4.593 7.729 6.928 21.802.991 26.572 4.785 4.768 3.796 15.706.818 20.183 2.043 4.478 1.227 17.205-8.899 30.93-2.65 13.723 6.25 25.596-3.778 33.499-2.94 7.903.836 23.495-7.01 32.352-5.414 8.857 1.592 14.171-5.083 23.124-2.632 8.954 2.452 7.511-2.588 19.72 5.567 12.204 8.155.637-9.615 11.307-7.36 10.666 2.258 1.496-9.711 13.119-6.697 11.621 3.016-2.395-5.799 14.071-5.938 16.469-.136 22.443-8.623 40.82-7.243 18.373 1.378 5.855-17.15 17.767-11.564 11.915 5.586 12.09-.507 21.239 3.657 9.149 4.165 11.329.448 20.186 2.043 8.855 1.593 15.025-5.179 27.308-3.971 12.284 1.204 5.779-10.203 19.504-3.954 13.723 6.246 4.458-6.581 21.606-.72 17.151 5.855 24.622-12.346 35.679-6.662 11.058 5.685 19.29-13.472 35.778-5.801 16.485 7.664 22.655.892 30.853 4.297 8.193 3.406 4.357-7.436 10.743-4.69 6.385 2.74 8.176-4.401 26.181 1.36 18.006 5.761 1.888-6.288 13.41-4.128 11.525 2.159 24.914-9.773 31.3-7.03 6.385 2.744 25.207-7.204 34.162-4.75 8.952 2.451 13.877-7.653 26.552-3.021 12.669 4.63 12.768 5.49 16.562.72 3.796-4.77 8.586 6.831 13.901.154 5.312-6.677 11.134-1.266 17.865-10.707 6.736-9.44 14.561-1.656 22.347-9.481 7.786-7.826 18.453-5.57 32.174.678 13.725 6.249 7.517-2.59 11.896-2.219 4.38.368 6.462-4.207 17.887-2.901 11.427 1.303 17.011-10.61 27.775-7.496 10.765 3.112 17.014-10.611 28.536-8.45 11.524 2.16 14.93-6.036 25.402-5.491 10.473.543 17.303-8.04 17.303-8.04l3.718 2.178c3.718 2.181 17.968-9.848 25.305-6.346 7.339 3.503 7.22-5.159 15.883-5.276 8.661-.117 14.677 7.005 19.036-.43 4.362-7.437 13.781-8.507 20.264-4.905 6.485 3.599 16.195 5.095 30.54-6.079 14.343-11.173 12.771 5.49 21.314-3.291 3.194-3.282 7.947-4.213 10.059-5.504 3.618-2.209 3.601-6.726 8.057-4.069 4.452 2.656 10.302 6.67 16.493 7.703 6.188 1.032 11.912 5.584 21.332 4.513 9.424-1.072 12.673 4.632 24.663 3.266 11.992-1.361 17.15 5.859 32.565 4.107 15.416-1.754 27.798.308 35.214-3.135 7.415-3.447 9.148 4.162 19.426 2.994 10.277-1.168 5.821 5.41 17.246 6.716 11.427 1.3 2.687 8.368 10.686 10.061 8.001 1.695 5.509-4.963 15.517-.896 10.003 4.069 9.03-4.496 19.229 1.284 10.201 5.78 6.367-5.061 18.378 1.382 12.008 6.44 15.977-4.42 29.7 1.825 13.726 6.248-3.967 10.863 10.221 13.585 14.192 2.726 14.639-8.603 25.598-3.774 10.957 4.823 17.518 1.474 18.393 9.185.878 7.706 12.578 3.773 19.896-.529 7.316-4.302 18.179-.33 24.738-3.679 6.559-3.35 7.337 3.503 20.848.233 13.508-3.274 18.179-.335 27.523 5.544 9.342 5.879 14.288 3.579 23.244 6.032 8.953 2.451 11.034-2.121 24.855 4.981 13.823 7.103 27.136 2.122 33.715 6.577 6.58 4.454 12.282 1.205 22.189 4.416 9.908 3.212 15.904 2.53 22.582 7.843 6.677 5.314 25.634 11.832 36.962 12.282 11.333.444 31.614 3.343 31.614 3.343s21.236 3.658 29.704 1.828c8.467-1.83 12.183.348 24.176-1.014 11.021-1.252 11.288 6.056 21.26 6.097v914.156h-11846.8V911.309Z" style="fill:#fff1f7;fill-rule:nonzero"/><path d="M0 997.655c2.162.536 4.049 1.719 5.348 4.049 5.217 9.372 23.396-5.982 27.328-.616 3.934 5.366 30.348 4.022 31.613.556 1.271-3.466 21.762-5.794 27.688-4.81 5.924.987 24.498-3.616 32.621 2.103 8.121 5.719 16.301-2.682 26.062 2.848 9.762 5.533 27.965-2.348 55.668.312 27.703 2.662 37.408-14.217 42.514-13.137 5.102 1.082 14.639-9.969 23.396-5.981 8.758 3.986 19.58-3.057 21.688.856 2.104 3.911 16.598 7.245 26.176 11.139 9.574 3.891 22.744-11.72 30.332-3.451 7.58 8.271 8.289-.113 14.957 7.434 6.67 7.545 15.039.78 20.512 5.139 5.477 4.36 14.553-10.787 26.512-.524 11.963 10.267 5.346-11.4 13.189-8.14 7.842 3.258 7.732-5.03 12.463-7.229 4.73-2.199 23.846-9.354 30.797.649 6.949 10.003 15.182-12.521 33.162-.45 17.977 12.071 13.934-1.583 26.977 3.575 13.041 5.159 9.275-6.036 18.031-2.051 8.756 3.984 16.098-11.795 26.23-2.982 10.137 8.811 8.645-4.307 19.133.313 10.49 4.619 21.76-5.795 29.885-.075 8.121 5.719 23.23-.153 33.906 6.108 10.676 6.257 18.762-2.965 24.145.575 5.387 3.538 20.398-3.15 25.877 1.208 5.479 4.361 14.85-.855 19.508 3.595 4.656 4.454 11.197-3.764 19.318 1.954 8.123 5.719 16.488-1.044 21.053 2.589 4.562 3.63 13.523-19.805 22.02-10.809 8.494 8.999 8.104-1.752 13.043 5.162 4.936 6.91 11.717-13.787 15.74-7.604 4.025 6.186 19.936-7.248 25.691-.43 5.756 6.819 23.979 6.406 29.811 6.575 5.83.167 26.211-10.455 26.211-10.455s30.215-11.738 37.967-9.298c7.75 2.439 8.811-10.136 19.111-7.157 10.303 2.98 9.279-6.036 24.592-2.797 15.316 3.243 13.096-8.96 30.238-4.267 17.139 4.694 21.779 1.674 21.779 1.674s13.375-6.502 22.227-1.697c8.846 4.805 16.672.597 26.248 4.489 9.574 3.891 4.545-3.84 25.598-1.251 21.053 2.588 16.135 3.147 29.361 9.946 13.229 6.798 23.141-.971 29.529 4.115 6.393 5.085 10.564-2.033 13.58 2.608 3.02 4.638 10.004-6.951 16.584-.227 6.578 6.725 9.65-2.758 12.67 1.88 3.02 4.639 16.301-2.684 21.053 2.588 4.75 5.27 16.152 10.62 27.367 14.325 11.217 3.706 13.189-8.144 28.689-3.262 15.502 4.878 7.807-11.683 13.656-4.043 5.85 7.636 21.686.852 25.896 8.677 4.213 7.823 15.314 3.242 20.699 6.782 5.383 3.538 15.389-3.412 21.145 3.406 5.756 6.82 10.75-.392 21.238 4.229 10.488 4.618 15.928-5.966 22.412-.058 6.484 5.903 17.869 3.779 21.705 8.323 3.838 4.548 10.822-7.042 18.033-2.05 7.213 4.994 11.104-4.583 18.947-1.323 7.842 3.26 18.854-2.144 29.531 4.115 10.672 6.259 9.816-8.59 15.928-5.962 6.109 2.627 23.045-1.791 35.992 2.547 12.949 4.343 19.672-2.237 27.072 4.396 7.395 6.633 20.863.95 25.43 4.583 4.564 3.631 15.035.782 19.318 1.954 4.283 1.174 16.469-8.517 29.602-2.535 13.137 5.979 24.5-3.618 32.062-2.816 7.564.801 22.486-6.71 30.963-5.183 8.477 1.529 13.562-4.862 22.133-2.516 8.57 2.346 7.191-2.478 18.873 5.328 11.682 7.804.615-9.205 10.822-7.045 10.211 2.161 1.436-9.295 12.557-6.409 11.123 2.886-2.291-5.551 13.469-5.683 15.762-.13 21.482-8.254 39.068-6.931 17.588 1.318 5.605-16.415 17.008-11.07 11.402 5.346 11.57-.486 20.328 3.5 8.754 3.987 10.838.429 19.316 1.956 8.477 1.526 14.381-4.957 26.139-3.802 11.756 1.153 5.533-9.765 18.666-3.785 13.137 5.98 4.268-6.298 20.68-.689 16.414 5.604 23.566-11.815 34.148-6.375 10.584 5.439 18.463-12.895 34.242-5.555 15.781 7.339 21.686.856 29.527 4.114 7.844 3.26 4.174-7.116 10.285-4.488 6.111 2.624 7.824-4.212 25.057 1.302 17.236 5.513 1.807-6.019 12.836-3.952 11.031 2.067 23.846-9.354 29.957-6.726 6.111 2.625 24.125-6.896 32.695-4.547 8.57 2.346 13.283-7.323 25.412-2.891 12.127 4.432 12.221 5.253 15.854.689 3.631-4.565 8.217 6.536 13.303.147 5.084-6.391 10.656-1.212 17.1-10.25 6.445-9.034 13.934-1.583 21.387-9.074 7.451-7.49 17.662-5.329 30.799.649 13.133 5.981 7.189-2.479 11.381-2.123 4.191.351 6.184-4.026 17.121-2.776 10.936 1.247 16.283-10.155 26.582-7.173 10.303 2.979 16.285-10.157 27.314-8.09 11.027 2.068 14.285-5.775 24.311-5.254 10.023.52 16.561-7.697 16.561-7.697l3.561 2.085c3.559 2.088 17.195-9.424 24.219-6.073 7.023 3.352 6.912-4.937 15.199-5.05 8.293-.112 14.049 6.704 18.223-.411 4.172-7.118 13.189-8.143 19.393-4.697 6.205 3.446 15.502 4.88 29.23-5.814 13.729-10.697 12.223 5.253 20.4-3.152 3.055-3.139 7.607-4.032 9.627-5.267 3.467-2.118 3.449-6.438 7.711-3.895 4.264 2.541 9.861 6.382 15.785 7.372 5.924.988 11.402 5.345 20.42 4.319 9.018-1.025 12.129 4.435 23.604 3.128 11.475-1.304 16.414 5.605 31.168 3.928 14.754-1.677 26.605.297 33.703-3 7.096-3.298 8.758 3.984 18.592 2.866 9.836-1.118 5.57 5.178 16.508 6.427 10.934 1.246 2.572 8.009 10.229 9.63 7.658 1.622 5.27-4.752 14.848-.858 9.576 3.893 8.643-4.306 18.406 1.228 9.764 5.531 6.092-4.845 17.588 1.323 11.496 6.165 15.295-4.23 28.428 1.747 13.135 5.98-3.799 10.398 9.781 13.003 13.582 2.608 14.012-8.235 24.5-3.614 10.488 4.617 16.764 1.412 17.605 8.791.838 7.377 12.035 3.611 19.041-.505 7.004-4.118 17.4-.317 23.676-3.523 6.279-3.205 7.025 3.352 19.955.224 12.93-3.131 17.4-.321 26.342 5.306 8.945 5.628 13.676 3.427 22.248 5.774 8.57 2.346 10.561-2.03 23.791 4.767 13.227 6.799 25.969 2.03 32.266 6.294 6.299 4.265 11.758 1.153 21.24 4.228 9.482 3.074 15.221 2.421 21.611 7.507 6.391 5.083 24.535 11.324 35.379 11.751 10.844.427 30.254 3.203 30.254 3.203s20.326 3.502 28.429 1.75c8.105-1.752 11.666.333 23.141-.972 11.475-1.305 10.768 7.078 23.062 5.679 12.295-1.397 3.115 5.461 17.867 3.783 14.756-1.679 1.026 9.014 16.787 8.885 15.761-.132 22.653-12.54 28.502-4.903 5.854 7.638 21.779 1.675 29.81 6.575 8.032 4.9 19.601 4.414 28.264 7.581 8.664 3.166 12.389-.58 25.338 3.762 12.948 4.337 13.655-4.045 29.342 2.474 15.688 6.521 12.742-4.769 24.779-1.156 12.032 3.612 16.394-1.865 27.609 1.84 11.213 3.71 14.399 2.517 27.441 7.675 13.042 5.159 13.206-.672 26.343 5.309 13.133 5.979 14.308 1.695 25.057 1.303 10.75-.392 18.648-11.255 25.038-6.168 6.391 5.086 7.753 2.438 13.135 5.977 5.385 3.54 1.173-4.283 15.481-2.589 14.308 1.694 8.664 3.166 21.053 2.588 12.389-.579 10.563-2.033 21.87 2.494 11.312 4.529 14.852-.857 29.084 7.488 14.233 8.347 15.24 9.895 20.979 9.24 5.736-.653 14.102-7.416 26.509-.524 12.408 6.891 11.922-4.679 21.407-1.605 9.482 3.073 10.283-4.488 25.876 1.21 15.593 5.7 11.589 6.985 26.345 5.308 14.755-1.679 11.01-5.405 26.789 1.936 15.781 7.338 20.232 2.679 29.269 9.126 9.036 6.444 13.022-2.313 24.071 7.226 11.048 9.538 12.201-2.217 21.873 2.496 9.668 4.71 17.752-4.51 20.492-2.331 2.738 2.178 3.819-2.926 9.929-.301 6.11 2.628 7.377-.839 15.315 3.242 7.935 4.077 9.648-2.758 15.76-.133 6.11 2.628 6.744.896 15.127 1.602 8.385.708 15.67-.95 18.764-2.962 3.09-2.014.704-8.383 14.848-.859 14.141 7.524 6.817-5.757 21.312-2.424 14.497 3.334 22.88 4.04 25.897 8.681 3.018 4.639 17.047 3.874 17.047 3.874s12.203-2.218 16.859 2.235c4.659 4.451 13.768 4.245 23.253 7.318 9.481 3.073 9.93-.298 21.145 3.409 11.216 3.705 17.4-.318 25.244 2.941 7.843 3.259 14.495 3.333 24.33 2.214 9.835-1.12 12.574 1.062 23.233-.149 10.657-1.213.745 6.559 18.777 4.507 18.034-2.05 10.044 7.99 26.439 6.126 16.392-1.864 16.597 7.245 25.988 9.5 9.388 2.254 10.098-6.129 25.057 1.303 14.962 7.431 26.232-2.983 33.348 1.19 7.118 4.171 10.043 7.992 21.521 6.685 11.474-1.305 9.034 6.446 24.609 4.677 15.575-1.773 11.661.332 27.068 4.392 15.407 4.061 23.347 8.138 33.183 7.021 9.837-1.121 8.215 6.54 19.691 5.234 11.477-1.305 23.696 3.949 31.615.558 7.916-3.392 5.739-.653 15.574-1.771 9.84-1.118 14.777 5.792 24.425 3.036 9.65-2.759 9.187-6.858 22.038-3.339 12.855 3.521 11.571-.483 21.968 3.313 10.394 3.802 12.127 4.435 28.521 2.57 16.395-1.862 17.513 7.972 34.094 7.749 16.581-.226 26.696 1.115 31.614.557 4.922-.56 15.316 3.24 22.135-2.518 6.818-5.758 22.69 2.401 25.971 2.03 3.277-.373 17.865 3.78 24.871-.339 7.005-4.117 11.046 9.539 28.168 6.76 17.121-2.776 19.692 5.234 30.702-.17 11.009-5.403 14.866 6.613 25.524 5.402 10.654-1.213 15.741-7.602 27.052-3.076 11.307 4.526 15.499 4.881 30.254 3.203 14.755-1.677 10.138 8.811 24.704 5.494 14.568-3.318 18.781 4.506 25.502-2.07 6.728-6.578 10.585 5.44 26.792 1.935 16.207-3.503 28.709 4.208 36.255-2.46 7.546-6.673 18.965 6.145 25.597-1.251 6.634-7.396 20.216-4.79 25.485-9.541 5.273-4.751 17.699 9.611 30.256 3.202 12.557-6.409 3.428-13.673 15.184-12.521 11.756 1.155 9.909-7.769 22.41-.057 12.502 7.712 17.606 8.791 23.047-1.792 5.438-10.581 1.245-10.935 16.376-9.333 15.126 1.601 17.514 7.972 32.34-.357 14.83-8.327 21.52 6.688 34.541 4.376 13.021-2.311 18.666-3.783 25.876 1.209.606.419 1.896 1.11 2.753 1.556-2.979-1.447 6.783 4.269 11.975 3.518 2.413-.35 4.507 1.244 6.334 2.262 6.207 3.446 15.223 2.421 19.396-4.698 4.171-7.115 9.931-.298 18.223-.409 8.289-.114 8.177-8.403 15.2-5.051 7.022 3.353 20.66-8.162 24.218-6.072l3.56 2.084s6.538-8.217 16.562-7.695c10.023.521 13.282-7.323 24.311-5.255 11.03 2.066 17.01-11.068 27.313-8.089 10.303 2.98 15.648-8.422 26.585-7.173 10.933 1.248 12.928-3.13 17.119-2.779 4.192.354-1.751-8.103 11.383-2.123 13.135 5.979 23.344 8.139 30.797.649 7.451-7.49 14.939-.039 21.384-9.075 6.446-9.037 12.017-3.857 17.102-10.248 5.086-6.389 9.671 4.712 13.304.146 3.632-4.563 3.727-3.742 15.853.69 12.129 4.432 16.842-5.237 25.414-2.891 8.567 2.348 26.583-7.173 32.695-4.547 6.109 2.629 18.925-8.793 29.958-6.729 11.029 2.068-4.4-9.462 12.833-3.95 17.234 5.514 18.945-1.322 25.059 1.302 6.111 2.626 2.441-7.75 10.283-4.489 7.846 3.258 13.748-3.223 29.53 4.113 15.779 7.341 23.658-10.995 34.239-5.553 10.585 5.439 17.737-11.982 34.151-6.377 16.413 5.608 7.543-6.668 20.68-.689 13.133 5.98 6.909-4.938 18.665-3.784 11.756 1.155 17.662-5.328 26.139-3.802 8.478 1.527 10.564-2.031 19.318 1.955 8.76 3.985 8.923-1.846 20.329 3.501 11.4 5.346-.58-12.388 17.006-11.069 17.589 1.322 23.308-6.802 39.07-6.933 15.76-.133 2.345-8.568 13.468-5.683 11.124 2.886 2.346-8.571 12.556-6.411 10.212 2.162-.858-14.847 10.822-7.042 11.683 7.805 10.303 2.98 18.874 5.327 8.57 2.347 13.656-4.045 22.132-2.517 8.478 1.526 23.4-5.981 30.962-5.182 7.566.801 18.929-8.795 32.064-2.816 13.134 5.98 25.317-3.709 29.603-2.535 4.285 1.173 14.753-1.677 19.318 1.954 4.565 3.632 18.034-2.05 25.432 4.581 7.397 6.633 14.122.056 27.07 4.396 12.948 4.338 29.883-.08 35.992 2.547 6.112 2.626 5.253-12.222 15.93-5.96 10.673 6.257 21.685.854 29.526 4.113 7.846 3.26 11.738-6.319 18.95-1.323 7.209 4.993 14.194-6.598 18.032-2.051 3.839 4.544 15.222 2.421 21.705 8.324 6.484 5.906 11.923-4.675 22.411-.059 10.49 4.62 15.483-2.589 21.24 4.229 5.759 6.816 15.762-.13 21.144 3.406 5.386 3.54 16.488-1.042 20.7 6.782 4.21 7.826 20.045 1.042 25.896 8.678 5.85 7.64-1.847-8.922 13.657-4.044 15.499 4.881 17.473-6.967 28.689-3.262 11.216 3.707 22.618 9.053 27.367 14.324 4.753 5.272 18.035-2.05 21.053 2.59 3.018 4.638 6.092-4.845 12.669 1.879 6.58 6.726 13.565-4.861 16.583-.224 3.019 4.64 7.189-2.479 13.58 2.606 6.391 5.086 16.302-2.684 29.53 4.115 13.227 6.801 8.31 7.36 29.362 9.947 21.052 2.588 16.022-5.141 25.596-1.251 9.577 3.894 17.402-.316 26.252 4.49 8.848 4.804 22.224-1.698 22.224-1.698s4.64-3.019 21.779 1.675c17.14 4.693 14.921-7.509 30.236-4.268 15.314 3.241 14.289-5.777 24.592-2.796 10.3 2.98 11.364-9.598 19.111-7.156 7.752 2.441 37.969-9.3 37.969-9.3s20.38-10.621 26.212-10.454c5.83.169 24.052-.244 29.809 6.574 5.756 6.819 21.666-6.617 25.69-.431 4.024 6.186 10.806-14.514 15.743-7.603 4.936 6.913 4.544-3.836 13.04 5.161 8.496 8.998 17.455-14.438 22.021-10.807 4.564 3.631 12.929-3.132 21.052 2.585 8.123 5.719 14.661-2.498 19.32 1.957 4.659 4.452 14.028-.767 19.506 3.593 5.478 4.359 20.492-2.33 25.877 1.209 5.384 3.541 13.468-5.682 24.144.576 10.676 6.259 25.786.39 33.907 6.11 8.125 5.717 19.395-4.699 29.884-.078 10.489 4.619 8.997-8.496 19.133.314 10.134 8.812 17.476-6.967 26.232-2.982 8.756 3.985 4.991-7.21 18.032-2.05 13.042 5.159 8.997-8.497 26.976 3.574s26.211-10.454 33.161-.449c6.95 10.003 26.067 2.849 30.796.649 4.732-2.198 4.621-10.488 12.463-7.229 7.846 3.26 1.228-18.408 13.19-8.143 11.959 10.266 21.033-4.882 26.511-.522 5.475 4.357 13.842-2.403 20.512 5.141 6.669 7.545 7.377-.838 14.959 7.431 7.585 8.271 20.754-7.341 30.329-3.447 9.578 3.89 24.072 7.228 26.178 11.138 2.106 3.912 12.928-3.131 21.687.854 8.755 3.986 18.294-7.062 23.396-5.98 5.106 1.08 14.81-15.801 42.513-13.139 27.706 2.662 45.905-5.218 55.666.312 9.765 5.532 17.943-2.871 26.067 2.849 8.121 5.719 26.695 1.118 32.619 2.104 5.926.985 26.419-1.345 27.685-4.81 1.266-3.466 27.682-4.807 31.616.556 3.931 5.366 22.111-9.987 27.33-.617 5.218 9.371 19.952.223 23.79 4.769 3.839 4.542 21.574-7.434 23.586-4.342 2.014 3.09 19.227 1.134 19.227 1.134s19.58-3.057 34.075.277c14.493 3.333-4.232-15.295 14.827-8.33s22.581-5.889 37.261-.915c14.682 4.972 7.637-5.852 25.337 3.761 8.936 4.854 12.106 3.771 14.47 2.477 9.134-5.001 8.205 1.58 11.723-2.897 3.516-4.478 4.545-2.598 7.971-.907 11.056 5.458 5.774-6.585 23.312 2.938 17.698 9.614 10.656-1.21 25.337 3.761 14.681 4.973 18.2-7.88 37.259-.915 19.059 6.967.335-11.662 14.829-8.327 14.495 3.332 34.075.277 34.075.277s17.214-1.958 19.227 1.132c2.012 3.094 19.746-8.885 23.585-4.34 3.838 4.544 18.574-4.604 23.792 4.767 5.216 9.371 23.396-5.982 27.329-.616 3.931 5.363 30.348 4.021 31.614.555 1.268-3.465 21.762-5.795 27.686-4.809 5.926.988 24.498-3.615 32.621 2.103 8.123 5.718 16.3-2.682 26.065 2.847 9.761 5.533 27.963-2.347 55.666.312 27.703 2.663 37.406-14.217 42.513-13.137 5.103 1.082 14.642-9.966 23.398-5.98 8.756 3.985 19.581-3.058 21.688.854 2.104 3.912 16.598 7.249 26.176 11.139 9.573 3.893 22.745-11.718 30.33-3.448 7.583 8.271 8.289-.115 14.957 7.433 6.67 7.543 15.038.78 20.515 5.14 5.475 4.358 14.549-10.788 26.511-.525 11.96 10.267 5.344-11.402 13.188-8.143 7.844 3.26 7.731-5.029 12.462-7.228 4.732-2.2 23.846-9.354 30.797.649 6.949 10.004 15.184-12.521 33.16-.448 17.98 12.07 13.937-1.585 26.979 3.574 13.04 5.16 9.276-6.036 18.033-2.05 8.756 3.985 16.096-11.795 26.23-2.982 10.138 8.811 8.646-4.306 19.132.314 10.491 4.621 21.762-5.794 29.885-.076 8.123 5.719 23.232-.151 33.908 6.109 10.676 6.257 18.76-2.965 24.144.576 5.384 3.537 20.397-3.15 25.878 1.208 5.476 4.36 14.847-.857 19.506 3.594 4.658 4.452 11.197-3.765 19.318 1.955 8.124 5.718 16.487-1.044 21.052 2.588 4.564 3.631 13.526-19.805 22.021-10.808 8.497 8.998 8.103-1.752 13.042 5.162 4.937 6.909 11.718-13.788 15.741-7.604 4.027 6.184 19.935-7.25 25.692-.432 5.757 6.82 23.977 6.408 29.809 6.576 5.832.167 26.211-10.455 26.211-10.455s30.216-11.738 37.969-9.299c7.749 2.441 8.812-10.135 19.112-7.156 10.303 2.98 9.277-6.036 24.592-2.797 15.316 3.243 13.097-8.96 30.236-4.267 17.14 4.692 21.78 1.674 21.78 1.674s13.375-6.501 22.224-1.696c8.85 4.806 16.675.597 26.251 4.488 9.575 3.892 4.544-3.838 25.596-1.249 21.052 2.586 16.135 3.146 29.365 9.946 13.227 6.798 23.136-.971 29.529 4.115 6.391 5.084 10.562-2.032 13.58 2.606 3.019 4.638 10.003-6.951 16.584-.226 6.575 6.725 9.65-2.759 12.668 1.881 3.019 4.639 16.3-2.685 21.052 2.588 4.75 5.271 16.151 10.62 27.368 14.324 11.215 3.707 13.189-8.143 28.689-3.262 15.501 4.88 7.806-11.682 13.655-4.043 5.853 7.639 21.688.853 25.899 8.678 4.21 7.826 15.312 3.242 20.697 6.782 5.384 3.538 15.387-3.412 21.146 3.406 5.756 6.819 10.749-.391 21.237 4.229 10.491 4.617 15.929-5.965 22.413-.057 6.482 5.903 17.866 3.779 21.705 8.323 3.837 4.549 10.822-7.042 18.032-2.049 7.212 4.994 11.104-4.584 18.949-1.325 7.841 3.26 18.852-2.143 29.528 4.114 10.674 6.26 9.817-8.586 15.928-5.961 6.109 2.626 23.046-1.79 35.993 2.548 12.949 4.341 19.672-2.237 27.07 4.396 7.398 6.631 20.867.948 25.432 4.58 4.564 3.633 15.033.782 19.318 1.955 4.286 1.174 16.467-8.517 29.603-2.536 13.134 5.981 24.498-3.616 32.062-2.814 7.564.8 22.487-6.71 30.964-5.182 8.477 1.524 13.563-4.865 22.132-2.519 8.57 2.347 7.189-2.477 18.874 5.328 11.681 7.805.61-9.203 10.822-7.044 10.209 2.161 1.432-9.295 12.557-6.41 11.122 2.887-2.293-5.55 13.467-5.683 15.763-.13 21.48-8.253 39.069-6.933 17.585 1.319 5.604-16.414 17.005-11.068 11.404 5.347 11.571-.485 20.328 3.501 8.756 3.986 10.843.428 19.32 1.955 8.475 1.525 14.38-4.957 26.137-3.801 11.757 1.153 5.531-9.765 18.667-3.784 13.134 5.978 4.267-6.299 20.679-.689 16.415 5.604 23.566-11.817 34.149-6.376 10.583 5.441 18.462-12.895 34.243-5.553 15.778 7.336 21.683.854 29.529 4.113 7.842 3.26 4.171-7.117 10.283-4.489 6.111 2.623 7.825-4.212 25.058 1.302 17.233 5.514 1.807-6.018 12.834-3.951 11.031 2.066 23.846-9.354 29.958-6.728 6.111 2.626 24.125-6.895 32.696-4.547 8.568 2.346 13.282-7.324 25.413-2.891 12.126 4.431 12.221 5.254 15.852.689 3.633-4.565 8.218 6.538 13.305.147 5.084-6.39 10.656-1.211 17.098-10.247 6.447-9.035 13.937-1.585 21.389-9.075 7.452-7.49 17.661-5.331 30.794.649 13.136 5.981 7.194-2.479 11.385-2.124 4.192.353 6.185-4.026 17.12-2.776 10.937 1.247 16.281-10.155 26.584-7.175 10.303 2.979 16.284-10.155 27.312-8.087 11.029 2.067 14.289-5.777 24.312-5.256 10.024.52 16.561-7.695 16.561-7.695l3.558 2.085c3.559 2.087 17.197-9.426 24.22-6.074 7.024 3.353 6.91-4.938 15.201-5.05 8.29-.112 14.048 6.705 18.22-.411 4.175-7.118 13.19-8.142 19.395-4.695 6.206 3.445 15.5 4.877 29.23-5.818 13.727-10.694 12.223 5.255 20.399-3.15 3.057-3.141 7.606-4.032 9.628-5.268 3.463-2.114 3.446-6.437 7.711-3.894 4.261 2.542 9.86 6.384 15.786 7.372 5.922.988 11.401 5.345 20.417 4.32 9.019-1.026 12.129 4.433 23.605 3.126 11.477-1.303 16.414 5.607 31.168 3.931 14.755-1.679 26.605.294 33.703-3.001 7.097-3.299 8.756 3.984 18.593 2.866 9.836-1.118 5.571 5.178 16.506 6.428 10.937 1.244 2.572 8.009 10.228 9.629 7.658 1.622 5.273-4.75 14.851-.858 9.574 3.895 8.643-4.303 18.404 1.229 9.764 5.532 6.094-4.844 17.59 1.323 11.493 6.164 15.292-4.23 28.426 1.747 13.137 5.98-3.797 10.397 9.783 13.002 13.583 2.609 14.011-8.234 24.5-3.612 10.487 4.616 16.766 1.411 17.604 8.791.84 7.375 12.038 3.611 19.042-.506 7.002-4.118 17.399-.316 23.677-3.522 6.278-3.206 7.022 3.353 19.954.223 12.928-3.133 17.399-.32 26.342 5.307 8.941 5.626 13.675 3.425 22.247 5.773 8.569 2.346 10.561-2.03 23.789 4.767 13.23 6.799 25.972 2.031 32.269 6.295 6.297 4.263 11.755 1.153 21.237 4.227 9.483 3.074 15.222 2.421 21.613 7.506 6.391 5.086 24.535 11.325 35.377 11.755 10.847.425 30.258 3.2 30.258 3.2s20.325 3.501 28.429 1.75c8.104-1.752 11.661.333 23.139-.971 10.549-1.198 10.804 5.796 20.348 5.836v874.942H-.016V997.655Z" style="fill:#1a1a1a;fill-rule:nonzero"/></svg>