<svg viewBox="0 0 11339 1418" xmlns="http://www.w3.org/2000/svg" xml:space="preserve"
    style="fill-rule:evenodd;clip-rule:evenodd;stroke-linejoin:round;stroke-miterlimit:2"><path d="M14930.3-51.602c-1.505.556-3.016 1.22-4.524 2.041-19.94 10.85-38.839-2.935-50.614-.83-11.777 2.101-36.026-8.01-49.155-4.665-13.129 3.343-21.819-6.113-35.003-1.474-13.181 4.641-11.556-3.082-29.012 10.47-17.451 13.549-1.991-14.37-17.764-9.841-15.777 4.534-3.291-14.42-20.415-8.648-17.125 5.772 2.974-8.966-21.766-7.409-24.74 1.558-34.623-10.546-62.062-6.504-27.443 4.036-10.632-25.124-27.92-15.464-17.29 9.664-18.206.533-31.497 7.767-13.288 7.233-16.956 1.884-30.085 5.228-13.129 3.342-23.115-6.165-41.432-3.04-18.312 3.125-9.772-14.699-29.708-3.849-19.936 10.849-7.396-9.403-32.515 1.232-25.124 10.629-38.293-15.899-54.284-6.179-15.995 9.718-30.408-18.164-54.34-4.882-23.936 13.274-33.924 3.767-45.865 9.756-11.937 5.992-7.341-10.698-16.633-5.892-9.295 4.8-12.745-5.733-39.164 4.846-26.421 10.575-3.506-9.24-20.578-4.764s-38.452-12.008-47.747-7.202c-9.292 4.803-38.619-8.118-51.8-3.476-13.181 4.639-21.658-10.001-40.188-1.692-18.528 8.309-18.584 9.61-24.796 2.853-6.207-6.755-12.157 11.173-20.851 1.721-8.69-9.457-16.852-.71-27.975-14.168-11.119-13.451-22.034-.924-34.564-11.842-12.53-10.915-28.303-6.384-48.242 4.463-19.933 10.852-11.56-3.084-18.093-2.059-6.536 1.023-10.152-5.624-27.169-2.44-17.014 3.18-26.678-14.109-42.503-8.281-15.828 5.826-26.682-14.111-43.754-9.633-17.071 4.478-23.056-7.464-38.726-5.523-15.666 1.937-26.84-10.222-26.84-10.222l-5.351 3.67c-5.347 3.673-28.029-12.861-38.673-6.817-10.641 6.044-11.393-6.972-24.409-6.222-13.021.752-21.29 12.09-28.632 1.392-7.342-10.697-21.603-11.298-30.948-5.196-9.35 6.101-23.772 9.389-46.506-5.854-22.734-15.243-18.587 9.608-32.355-2.659-5.144-4.586-12.385-5.477-15.694-7.188-5.673-2.933-6.131-9.714-12.533-5.248-6.402 4.465-14.757 11.119-23.939 13.332-9.182 2.213-17.288 9.662-31.551 9.061-14.258-.598-18.528 8.313-36.676 7.549-18.148-.761-25.125 10.63-48.458 9.649-23.333-.982-41.703 3.441-53.209-.936-11.5-4.382-13.291 7.23-28.844 6.576-15.556-.655-8.16 8.747-25.177 11.927-17.014 3.179-3.139 12.853-14.969 16.253-11.832 3.4-8.801-6.865-23.391.316-14.584 7.177-14.039-5.789-28.736 3.984-14.696 9.77-10.1-6.917-27.443 4.043-17.342 10.956-24.467-4.925-44.401 5.92-19.933 10.852 7.126 15.888-13.888 21.495-21.016 5.61-22.902-11.352-38.839-2.929-15.936 8.418-26.14 4.093-26.635 15.761-.49 11.665-18.477 7.013-29.928 1.338-11.448-5.677-27.333 1.449-37.537-2.878-10.207-4.325-10.644 6.044-31.277 2.583-20.633-3.467-27.333 1.445-40.731 11.271-13.401 9.83-21.071 6.906-34.253 11.547-13.184 4.64-16.796-2.003-36.791 10.14-19.991 12.146-40.51 6.09-49.912 13.486-9.404 7.392-18.316 3.122-32.847 9.007-14.532 5.884-23.607 5.503-33.064 14.194-9.455 8.693-37.223 20.512-54.185 22.395-16.962 1.882-47.106 8.409-47.106 8.409s-31.491 7.766-44.401 5.925c-12.911-1.842-18.261 1.829-36.409 1.066-18.148-.764-16.099 12.308-35.544 11.489-19.444-.816-4.276 8.912-27.607 7.933-23.336-.983-.602 14.257-25.341 15.817-24.739 1.555-36.941-17.138-45.262-4.503-8.328 12.639-33.978 5.064-46.028 13.648-12.05 8.586-30.253 9.116-43.489 15.053-13.24 5.937-19.499.478-39.328 8.735-19.828 8.255-21.874-4.817-45.755 7.165-23.88 11.985-20.522-6.056-39.002.958-18.473 7.013-25.925-1.09-43.106 5.978-17.177 7.073-22.308 5.558-42.19 15.109-19.884 9.553-20.793.425-40.731 11.275-19.936 10.848-22.254 4.259-39.161 4.848-16.907.586-30.515-15.57-39.97-6.876-9.455 8.694-11.888 4.693-19.936 10.845-8.051 6.156-2.32-6.588-24.577-2.332-22.255 4.259-13.236 5.937-32.735 6.415-19.499.48-16.8-2.005-34.033 6.36-17.236 8.369-23.394.316-44.787 15-21.395 14.686-22.801 17.226-31.879 16.84-9.072-.38-22.953-10.056-41.645 2.144-18.695 12.198-19.227-6.006-33.762-.124-14.532 5.882-16.633-5.89-40.459 4.794-23.824 10.688-17.398 12.254-40.734 11.273-23.336-.983-17.877-7.244-41.81 6.036-23.935 13.276-31.439 6.466-44.894 17.591-13.454 11.12-20.687-2.172-36.953 14.029-16.265 16.199-19.388-2.114-34.035 6.36-14.641 8.474-28.352-5.088-32.407-1.362-4.051 3.725-6.319-4.161-15.611.64-9.292 4.805-11.666-.492-23.665 6.798-11.989 7.285-15.444-3.248-24.738 1.555-9.291 4.805-10.477 2.16-23.551 4.204-13.073 2.049-24.688.264-29.766-2.549-5.075-2.811-2.043-13.071-23.388.314-21.342 13.388-11.341-8.268-33.707-1.417-22.369 6.851-35.439 8.897-39.654 16.514-4.215 7.615-26.31 7.983-26.31 7.983s-19.392-2.113-26.199 5.395c-6.81 7.503-21.125 8.197-35.66 14.082-14.529 5.881-15.611.642-32.789 7.711-17.18 7.068-27.333 1.449-39.273 7.438-11.94 5.992-22.369 6.849-37.92 6.196-15.556-.655-19.608 3.074-36.466 2.364-16.855-.709-.435 10.372-28.951 9.172-28.521-1.198-14.864 13.658-40.794 12.57-25.922-1.092-25.225 13.22-39.705 17.806-14.477 4.588-16.526-8.485-39.161 4.849-22.642 13.332-41.488-1.742-52.184 5.599-10.699 7.339-14.861 13.659-33.012 12.893-18.144-.761-13.451 11.124-38.084 10.091-24.632-1.038-18.255 1.826-41.973 9.918-23.714 8.095-35.712 15.381-51.268 14.727-15.559-.656-12.156 11.178-30.307 10.415-18.151-.765-36.731 8.845-49.535 4.411-12.798-4.436-9.076-.382-24.629-1.036-15.563-.654-22.535 10.74-37.976 7.494-15.447-3.246-15.18-9.729-34.948-2.771-19.772 6.962-18.206.538-34.09 7.657-15.882 7.127-18.529 8.312-44.459 7.221-25.925-1.088-26.579 14.468-52.616 15.97-26.04 1.502-41.758 4.735-49.535 4.41-7.78-.328-23.665 6.797-35.003-1.474-11.341-8.27-35.328 6.307-40.517 6.09-5.182-.217-27.603 7.929-39.054 2.25-11.448-5.674-16.262 16.199-43.431 13.758-27.169-2.439-30.309 10.414-48.184 3.17-17.875-7.246-22.583 12.036-39.438 11.328-16.849-.709-25.545-10.163-42.782-1.799-17.231 8.365-23.767 9.391-47.102 8.408-23.335-.982-14.918 14.955-38.141 11.382-23.226-3.575-28.959 9.172-40.238-.395-11.29-9.566-15.997 9.716-41.813 6.036-25.817-3.683-44.567 9.811-57.151.195-12.585-9.624-29.062 11.761-40.295.901-11.234-10.863-32.249-5.254-41.048-12.116-8.805-6.867-26.691 17.056-47.106 8.406-20.414-8.65-6.907-21.067-25.22-17.943-18.313 3.125-16.415-11.079-35.162 2.417-18.75 13.497-26.637 15.76-36.354-.233-9.715-15.99-3.178-17.014-26.735-12.81-23.55 4.204-26.582 14.468-50.773 3.059-24.196-11.404-33.01 12.898-53.698 10.731-20.685-2.169-29.706-3.847-40.459 4.791-.893.717-2.805 1.928-4.1 2.724 4.382-2.518-10.232 7.478-18.437 6.882-3.825-.277-6.93 2.457-9.683 4.257-9.35 6.103-23.61 5.503-30.952-5.198-7.34-10.694-15.613.644-28.633 1.395-13.016.751-13.768-12.267-24.411-6.223-10.643 6.046-33.323-10.492-38.672-6.816l-5.35 3.669s-11.175-12.159-26.841-10.22c-15.666 1.94-21.657-10.002-38.726-5.523-17.072 4.476-27.922-15.46-43.752-9.635-15.829 5.827-25.491-11.462-42.508-8.28-17.01 3.181-20.629-3.462-27.166-2.443-6.536 1.024 1.84-12.909-18.094-2.057-19.938 10.849-35.711 15.38-48.241 4.465-12.527-10.918-23.44 1.609-34.562-11.844-11.123-13.456-19.284-4.709-27.975-14.164-8.694-9.454-14.645 8.475-20.854 1.719-6.208-6.754-6.265-5.454-24.793 2.854-18.532 8.311-27.007-6.33-40.191-1.69-13.178 4.642-42.505-8.281-51.8-3.476-9.29 4.805-30.673-11.679-47.749-7.205-17.07 4.478 5.845-15.336-20.574-4.761-26.419 10.577-29.868.046-39.165 4.846-9.293 4.803-4.696-11.884-16.633-5.89-11.943 5.988-21.927-3.521-45.864 9.754-23.933 13.281-38.344-14.601-54.335-4.88-15.997 9.718-29.165-16.811-54.288-6.182-25.122 10.635-12.581-9.618-32.52 1.231-19.934 10.852-11.391-6.975-29.704-3.848-18.315 3.126-28.303-6.383-41.431-3.041-13.129 3.344-16.8-2.005-30.087 5.23-13.296 7.231-14.205-1.897-31.499 7.766-17.286 9.663-.476-19.496-27.916-15.462-27.444 4.042-37.324-8.063-62.066-6.504-24.738 1.555-4.638-13.18-21.764-7.408-17.129 5.772-4.64-13.186-20.414-8.653-15.778 4.532-.315-23.387-17.766-9.838-17.454 13.553-15.83 5.83-29.012 10.468-13.181 4.642-21.876-4.817-35.002-1.47-13.127 3.342-37.377-6.766-49.151-4.666-11.78 2.101-30.678-11.681-50.616-.831-19.934 10.852-40.131-2.986-46.723-.665-6.589 2.32-23.331-.982-30.086 5.228-6.755 6.209-28.52-1.2-39.383 10.031-10.863 11.232-22.147 1.665-41.975 9.924-19.826 8.253-46.888 3.217-56.178 8.025-9.295 4.803-9.608-18.586-25.657-7.569-16.043 11.01-33.922 3.765-45.859 9.757-11.944 5.992-19.12-8.598-29.876.044-10.751 8.639-23.006-8.762-28.517-1.198-5.514 7.558-23.61 5.499-33.119 15.485-9.512 9.99-19.228-6-35.163 2.416-15.94 8.422-24.579-2.328-32.848 9.01-8.271 11.336-24.741 1.558-32.789 7.709-8.054 6.156-25.982.211-31.716 12.953-5.729 12.748-31.329 3.877-39.653 16.513-8.323 12.638 1.9-14.204-21.877-4.816-23.769 9.391-28.192-8.976-45.372-1.909-17.181 7.071-34.47 16.732-41.33 25.535-6.867 8.802-28.522-1.199-32.737 6.416-4.215 7.616-10.098-6.918-19.664 4.366-9.57 11.288-21.823-6.11-26.04 1.504-4.216 7.617-11.556-3.086-21.012 5.608-9.457 8.693-25.874-2.387-45.866 9.758-19.989 12.149-12.213 12.476-44.948 18.89-32.737 6.413-25.712-6.274-40.296.899-14.588 7.18-27.336 1.452-40.682 9.983-13.343 8.527-35.055-.176-35.055-.176s-7.616-4.219-33.979 5.062c-26.364 9.281-24.247-10.109-47.91-3.31-23.661 6.795-23.061-7.465-38.893-1.636-15.824 5.827-18.901-13.785-30.781-9.089-11.889 4.695-60.606-10.341-60.606-10.341s-33.16-14.381-42.289-13.469c-9.127.917-37.759 2.309-46.028 13.65-8.268 11.341-34.728-7.956-40.35 2.197-5.621 10.154-18.576-21.557-25.548-10.164-6.97 11.397-7.557-5.511-19.88 9.557-12.32 15.064-28.998-20.699-35.753-14.49-6.753 6.207-20.632-3.466-32.735 6.413-12.102 9.881-23.279-2.279-30.089 5.229-6.81 7.503-22.093.368-30.199 7.82-8.104 7.451-32.406-1.362-40.46 4.79-8.051 6.156-21.764-7.407-37.812 3.605s-40.408 3.495-52.507 13.376c-12.106 9.878-30.952-5.199-46.889 3.221-15.938 8.42-15.063-12.321-29.979 2.636-14.911 14.957-28.195-8.977-41.484-1.744-13.292 7.233-8.636-10.753-28.519-1.199-19.883 9.552-15.064-12.322-41.918 8.625-26.855 20.948-42.29-13.467-52.072 3.004-9.784 16.472-40.574 7.387-48.239 4.464-7.669-2.918-8.422-15.935-20.361-9.945-11.943 5.992-3.985-28.74-21.603-11.298-17.613 17.44-33.542-5.307-41.648 2.143-8.101 7.449-21.984-2.222-31.603 10.36-9.619 12.582-11.666-.491-22.636 13.332-10.975 13.823-33.38-9.194-47.964-2.015-14.59 7.175-36.955 14.029-39.82 20.4-2.867 6.373-20.633-3.464-33.926 3.767-13.288 7.235-29.489-9.031-37.371-6.764-7.891 2.265-25.001-23.131-68.163-15.853-43.166 7.273-72.598-3.053-87.29 6.715-14.701 9.772-28.47-2.496-40.576 7.384-12.099 9.882-41.753 4.739-50.936 6.949-9.185 2.209-41.596.847-43.969-4.448-2.373-5.296-43.965-4.445-49.535 4.41-5.566 8.859-35.805-13.194-42.944 2.09-7.137 15.285-31.276 2.581-36.786 10.143-5.514 7.557-34.676-9.251-37.487-4.173-2.813 5.074-30.036 3.929-30.036 3.929s-31.058-2.605-53.424 4.248c-22.363 6.851 4.929-24.469-24.192-11.409-29.121 13.062-36.082-6.709-58.555 2.735-22.478 9.443-12.635-8.326-39.328 8.734-13.475 8.612-18.569 7.269-22.423 5.504-14.889-6.824-12.695 3.394-18.714-3.233-6.015-6.631-7.421-3.567-12.607-.53-16.734 9.796-9.795-9.685-36.242 7.215-26.69 17.061-16.852-.707-39.328 8.735-22.475 9.445-29.432-10.325-58.552 2.734-29.121 13.061-1.832-18.258-24.193-11.404-22.366 6.849-53.425 4.246-53.425 4.246s-27.222-1.145-30.036 3.927c-2.809 5.079-31.971-11.729-37.485-4.171-5.512 7.561-29.652-5.142-36.789 10.143-7.136 15.282-37.373-6.769-42.942 2.089-5.568 8.856-47.157 9.705-49.534 4.41-2.376-5.296-34.787-6.656-43.969-4.448-9.185 2.213-38.836-2.93-50.94 6.951-12.102 9.879-25.871-2.385-40.57 7.383-14.693 9.771-44.13-.555-87.29 6.717-43.163 7.276-60.273-18.118-68.163-15.853-7.884 2.266-24.083-13.998-37.375-6.765-13.289 7.23-31.06-2.606-33.927 3.767-2.864 6.371-25.228 13.227-39.817 20.402-14.581 7.179-36.992-15.838-47.965-2.018-10.972 13.824-13.016.75-22.634 13.334-9.62 12.582-23.503 2.909-31.607 10.359-8.101 7.452-24.032-15.296-41.648 2.144-17.615 17.442-9.66-17.289-21.6-11.299-11.94 5.992-12.69-7.025-20.359-9.946-7.669-2.922-38.455-12.008-48.239 4.464-9.783 16.471-25.221-17.944-52.071 3.005-26.856 20.946-22.04-.928-41.923 8.627-19.879 9.551-15.227-8.433-28.518-1.2-13.29 7.231-26.57-16.704-41.483-1.746-14.917 14.957-14.044-5.788-29.978 2.634-15.941 8.421-34.786-6.655-46.89 3.224-12.102 9.88-36.464 2.361-52.51 13.375-16.049 11.012-29.761-2.551-37.812 3.605-8.051 6.152-32.351-2.66-40.46 4.789-8.103 7.453-23.389.319-30.199 7.824-6.81 7.504-17.987-4.654-30.086 5.226-12.106 9.879-25.982.206-32.737 6.414-6.753 6.209-23.434-29.555-35.753-14.49-12.322 15.066-12.909-1.841-19.883 9.556-6.972 11.392-19.925-20.318-25.544-10.166-5.626 10.154-32.084-9.142-40.354 2.197-8.267 11.343-36.896 12.735-46.027 13.652-9.13.915-42.29-13.468-42.29-13.468s-48.714-15.035-60.604-10.34c-11.882 4.694-14.957-14.915-30.783-9.088-15.83 5.827-15.231-8.431-38.893-1.637-23.663 6.799-21.548-12.591-47.91-3.309-26.362 9.278-33.979 5.061-33.979 5.061s-21.709-8.702-35.053-.175c-13.347 8.528-26.094 2.802-40.681 9.98-14.584 7.174-7.557-5.516-40.292.901-32.737 6.416-24.961 6.744-44.954 18.89-19.989 12.145-36.402 1.065-45.864 9.759-9.457 8.691-16.795-2.007-21.012 5.61-4.216 7.612-16.47-9.786-26.041 1.5-9.564 11.285-15.448-3.246-19.664 4.366-4.217 7.617-25.872-2.386-32.735 6.417-6.862 8.799-24.15 18.465-41.332 25.533-17.179 7.068-21.603-11.3-45.372-1.907-23.772 9.387-13.552-17.453-21.874-4.816-8.326 12.635-33.927 3.765-39.658 16.51-5.729 12.746-23.659 6.799-31.71 12.954-8.05 6.152-24.52-3.63-32.793 7.709-8.268 11.34-16.907.588-32.843 9.009-15.942 8.419-25.657-7.574-35.168 2.419-9.509 9.987-27.604 7.928-33.118 15.487-5.511 7.563-17.764-9.838-28.517-1.2-10.754 8.64-17.932-5.947-29.875.042-11.936 5.994-29.813-1.252-45.862 9.759-16.045 11.014-16.362-12.375-25.654-7.571-9.29 4.804-36.354-.23-56.18 8.024-19.828 8.26-31.112-1.309-41.973 9.925-10.865 11.231-32.63 3.824-39.385 10.031-6.753 6.209-23.495 2.91-30.087 5.228-6.591 2.321-26.785-11.516-46.723-.667-19.934 10.852-38.835-2.931-50.612-.829-11.777 2.1-36.028-8.01-49.155-4.664-13.127 3.342-21.821-6.114-35.001-1.474-13.183 4.641-11.555-3.081-29.012 10.47-17.453 13.55-1.988-14.37-17.766-9.839-15.775 4.532-3.285-14.422-20.414-8.65-17.126 5.772 2.975-8.965-21.762-7.408-24.743 1.557-34.621-10.547-62.065-6.505-27.438 4.037-10.629-25.123-27.916-15.463-17.293 9.664-18.207.535-31.498 7.768-13.289 7.234-16.962 1.884-30.089 5.227-13.125 3.343-23.113-6.165-41.428-3.038-18.316 3.123-9.77-14.7-29.708-3.849-19.936 10.848-7.399-9.403-32.518 1.23-25.123 10.629-38.291-15.899-54.284-6.181-15.994 9.72-30.405-18.163-54.34-4.881-23.931 13.275-33.921 3.766-45.863 9.755-11.937 5.993-7.34-10.696-16.633-5.891-9.294 4.8-12.747-5.731-39.163 4.846-26.417 10.575-3.509-9.239-20.578-4.763-17.072 4.475-38.455-12.008-47.748-7.203-9.294 4.805-38.617-8.118-51.802-3.476-13.179 4.64-21.656-10.002-40.19-1.69-18.528 8.308-18.583 9.609-24.791 2.854-6.21-6.755-12.16 11.173-20.856 1.719-8.689-9.455-16.852-.708-27.969-14.164-11.126-13.453-22.041-.928-34.569-11.844-12.527-10.915-28.302-6.384-48.236 4.465-19.938 10.852-11.563-3.084-18.098-2.059-6.536 1.022-10.152-5.624-27.167-2.439-17.017 3.18-26.677-14.109-42.507-8.282-15.83 5.825-26.681-14.109-43.749-9.633-17.07 4.477-23.063-7.465-38.729-5.525-15.667 1.939-26.84-10.22-26.84-10.22l-5.347 3.669c-5.349 3.672-28.033-12.86-38.674-6.816-10.644 6.044-11.393-6.974-24.412-6.225-13.016.752-21.289 12.09-28.629 1.395-7.346-10.699-21.603-11.299-30.951-5.196-9.35 6.1-23.769 9.387-46.505-5.854-22.732-15.243-18.588 9.609-32.356-2.66-5.146-4.587-12.382-5.476-15.693-7.187-5.669-2.932-6.127-9.715-12.533-5.248-6.399 4.465-14.754 11.117-23.94 13.332-9.179 2.213-17.288 9.661-31.545 9.06-14.263-.599-18.531 8.312-36.681 7.548-18.151-.761-25.123 10.632-48.456 9.652-23.335-.983-41.704 3.441-53.206-.937-11.503-4.381-13.291 7.229-28.847 6.577-15.556-.655-8.161 8.746-25.175 11.927-17.017 3.177-3.139 12.853-14.968 16.252-11.831 3.398-8.804-6.864-23.394.316-14.584 7.179-14.04-5.786-28.734 3.985-14.699 9.771-10.102-6.917-27.446 4.042-17.34 10.956-24.464-4.926-44.397 5.921-19.939 10.852 7.12 15.885-13.892 21.493-21.018 5.61-22.902-11.35-38.839-2.926-15.935 8.417-26.144 4.09-26.633 15.76-.492 11.665-18.479 7.013-29.929 1.338-11.445-5.677-27.33 1.447-37.538-2.878-10.209-4.326-10.641 6.044-31.277 2.583-20.632-3.467-27.331 1.443-40.731 11.272-13.398 9.828-21.072 6.904-34.255 11.545-13.179 4.64-16.795-2.004-36.784 10.141-19.995 12.145-40.516 6.09-49.918 13.485-9.402 7.395-18.313 3.123-32.843 9.008-14.534 5.883-23.609 5.502-33.066 14.193-9.456 8.694-37.222 20.512-54.184 22.396-16.966 1.881-47.11 8.406-47.11 8.406s-31.492 7.768-44.401 5.926c-12.909-1.84-18.257 1.828-36.408 1.066-18.148-.762-16.101 12.309-35.545 11.491-19.446-.816-4.275 8.913-27.607 7.93-23.334-.982-.599 14.258-25.338 15.818-24.741 1.556-36.941-17.138-45.263-4.502-8.323 12.64-33.981 5.065-46.028 13.649-12.052 8.586-30.257 9.118-43.491 15.053-13.237 5.936-19.502.48-39.33 8.737-19.826 8.257-21.871-4.818-45.753 7.165-23.879 11.983-20.522-6.057-38.997.958-18.477 7.011-25.93-1.092-43.108 5.978-17.177 7.072-22.311 5.555-42.19 15.108-19.883 9.554-20.796.424-40.731 11.273-19.938 10.849-22.257 4.259-39.163 4.847-16.907.587-30.516-15.57-39.969-6.876-9.456 8.696-11.886 4.695-19.935 10.847-8.052 6.156-2.32-6.588-24.577-2.332-22.259 4.259-13.236 5.937-32.737 6.415-19.5.48-16.797-2.005-34.032 6.36-17.236 8.369-23.392.317-44.787 14.998-21.394 14.688-22.803 17.226-31.88 16.843-9.071-.381-22.951-10.057-41.641 2.143-18.699 12.2-19.229-6.005-33.764-.124-14.532 5.884-16.633-5.89-40.459 4.792-23.824 10.69-17.397 12.255-40.734 11.275-23.334-.981-17.875-7.244-41.808 6.035-23.937 13.278-31.441 6.467-44.894 17.592-13.458 11.12-20.685-2.17-36.953 14.031-16.265 16.196-19.393-2.115-34.034 6.358-14.642 8.474-28.355-5.086-32.413-1.36-4.051 3.723-6.316-4.161-15.604.639-9.297 4.804-11.67-.491-23.666 6.799-11.992 7.284-15.444-3.248-24.737 1.555-9.295 4.805-10.479 2.159-23.552 4.202-13.073 2.051-24.686.265-29.764-2.548-5.075-2.812-2.046-13.071-23.39.313-21.344 13.388-11.339-8.267-33.707-1.415-22.366 6.851-35.437 8.897-39.655 16.514-4.215 7.615-26.31 7.985-26.31 7.985s-19.392-2.116-26.198 5.391c-6.811 7.504-21.123 8.199-35.657 14.084-14.535 5.879-15.614.642-32.792 7.711-17.18 7.068-27.331 1.449-39.272 7.439-11.941 5.991-22.365 6.848-37.922 6.194-15.555-.655-19.609 3.073-36.464 2.365-16.851-.709-.436 10.372-28.953 9.172-28.522-1.2-14.861 13.658-40.791 12.568-25.926-1.09-25.228 13.224-39.707 17.81-14.478 4.587-16.525-8.485-39.164 4.848-22.64 13.333-41.484-1.744-52.182 5.598-10.696 7.34-14.856 13.661-33.007 12.895-18.151-.761-13.458 11.124-38.086 10.09-24.634-1.038-18.259 1.828-41.975 9.92-23.715 8.093-35.71 15.381-51.268 14.727-15.558-.656-12.156 11.176-30.305 10.415-18.15-.765-36.735 8.845-49.537 4.41-12.799-4.436-9.076-.381-24.631-1.035-15.557-.655-22.529 10.738-37.975 7.494-15.447-3.248-15.178-9.729-34.949-2.773-19.771 6.966-18.203.536-34.088 7.659-15.882 7.126-18.529 8.314-44.458 7.222-25.925-1.09-26.581 14.466-52.616 15.968-26.042 1.502-41.76 4.738-49.537 4.41-7.779-.327-23.664 6.798-35.003-1.472-11.341-8.269-35.327 6.307-40.514 6.09-5.185-.219-27.603 7.928-39.054 2.252-11.453-5.674-16.264 16.199-43.438 13.758-27.166-2.44-30.305 10.412-48.182 3.17-17.876-7.246-22.583 12.036-39.438 11.326-16.852-.709-25.546-10.161-42.78-1.799-17.235 8.366-23.771 9.391-47.106 8.408-23.333-.98-14.916 14.957-38.137 11.384-14.652-2.256-22.341 1.98-28.854 3.016v249.678h17832.7V-51.601h.011l-.032-.001Z" style="fill:#fff1f7;fill-rule:nonzero"/><path d="M12313.5 546.703c-.967.325-1.941.717-2.915 1.21-12.882 6.51-24.627-2.616-32.151-1.507-7.526 1.108-22.741-5.787-31.15-3.915-8.408 1.871-13.748-4.307-22.217-1.614-8.467 2.695-7.285-2.182-18.641 6.093-11.353 8.273-.987-9.171-11.099-6.598-10.114 2.577-1.812-9.228-12.807-5.891-10.996 3.337 2.064-5.641-13.69-5.13-15.753.512-21.8-7.372-39.317-5.333-17.519 2.034-6.271-16.174-17.445-10.369-11.176 5.808-11.581-.013-20.168 4.328-8.585 4.339-10.812.869-19.221 2.74-8.409 1.87-14.571-4.365-26.273-2.733-11.698 1.631-5.926-9.531-18.806-3.021-12.88 6.509-4.519-6.119-20.688.154-16.173 6.269-24.029-10.845-34.381-4.977-10.353 5.866-18.973-12.132-34.44-4.154-15.469 7.973-21.633 1.738-29.337 5.313-7.703 3.577-4.459-6.941-10.458-4.066-6 2.871-7.989-3.89-24.984 2.322-16.996 6.21-2.049-5.94-12.986-3.426-10.936 2.515-24.205-8.375-30.205-5.5-5.998 2.873-24.387-5.907-32.854-3.211-8.467 2.693-13.571-6.775-25.508-1.853-11.936 4.922-11.997 5.748-15.814 1.334-3.815-4.413-7.943 6.865-13.285.69-5.34-6.178-10.697-.777-17.505-9.545-6.807-8.764-13.986-1.014-21.738-8.195-7.752-7.179-17.864-4.605-30.746 1.904-12.878 6.511-7.287-2.184-11.459-1.659-4.174.523-6.343-3.771-17.22-2.077-10.874 1.692-16.682-9.483-26.852-6.084-10.172 3.396-16.684-9.484-27.621-6.969-10.935 2.516-14.509-5.19-24.504-4.259-9.994.928-16.861-7.015-16.861-7.015l-3.471 2.228c-3.47 2.232-17.565-8.715-24.447-5.08-6.88 3.635-7.106-4.651-15.392-4.426-8.29.226-13.765 7.271-18.224.331-4.459-6.941-13.511-7.599-19.568-3.902-6.061 3.697-15.29 5.508-29.443-4.619-14.154-10.128-11.999 5.746-20.511-2.316-3.181-3.015-7.766-3.72-9.836-4.872-3.548-1.974-3.708-6.293-7.864-3.578-4.154 2.714-9.593 6.782-15.471 8.01-5.879 1.229-11.174 5.806-20.227 5.148-9.051-.655-11.937 4.926-23.456 4.089-11.519-.835-16.173 6.27-30.983 5.195-14.81-1.075-26.57 1.38-33.798-1.624-7.224-3.007-8.587 4.337-18.459 3.621-9.874-.717-5.355 5.401-16.231 7.093-10.875 1.691-2.244 8.108-9.828 10.04-7.586 1.932-5.461-4.533-14.872-.252-9.408 4.279-8.81-3.95-18.34 1.976-9.529 5.925-6.285-4.591-17.519 2.039-11.234 6.628-15.455-3.603-28.334 2.904-12.878 6.511 4.222 10.235-9.241 13.392-13.466 3.159-14.336-7.658-24.627-2.612-10.291 5.041-16.693 2.095-17.233 9.501-.537 7.404-11.878 4.099-19.046.271-7.166-3.829-17.399.392-23.801-2.555-6.403-2.946-6.881 3.636-19.927 1.037-13.046-2.603-17.399.389-26.104 6.375-8.708 5.988-13.526 3.982-21.993 6.676-8.469 2.694-10.636-1.598-23.578 5.733-12.94 7.333-25.864 3.086-31.982 7.605-6.119 4.516-11.701 1.63-21.05 5.089-9.349 3.459-15.109 3.041-21.288 8.382-6.177 5.341-24.053 12.316-34.87 13.184-10.816.868-30.1 4.433-30.1 4.433s-20.163 4.327-28.333 2.907c-8.17-1.42-11.641.809-23.16-.027-11.519-.837-10.469 7.511-22.812 6.614-12.341-.894-2.89 5.582-17.698 4.508-14.812-1.076-.659 9.049-16.412 9.562-15.752.51-23.145-11.606-28.678-3.737-5.537 7.871-21.692 2.561-29.517 7.784-7.824 5.223-19.403 5.208-27.93 8.725-8.529 3.517-12.401-.073-25.163 4.791-12.761 4.863-13.809-3.485-29.217 3.669-15.409 7.154-12.926-4.246-24.806-.146-11.877 4.1-16.456-1.194-27.511 2.966-11.054 4.162-14.285 3.1-27.106 8.786-12.822 5.687-13.223-.132-26.104 6.378-12.88 6.508-14.226 2.276-24.983 2.323-10.756.046-19.091-10.486-25.269-5.143-6.177 5.342-7.646 2.753-12.88 6.507-5.235 3.757-1.347-4.232-15.574-1.958-14.226 2.277-8.527 3.518-20.929 3.444-12.401-.072-10.638-1.599-21.752 3.384-11.116 4.985-14.874-.251-28.754 8.667-13.882 8.919-14.824 10.506-20.586 10.086-5.758-.417-14.393-6.835-26.508.557-12.118 7.391-12.104-4.189-21.455-.732-9.35 3.457-10.457-4.065-25.806 2.264-15.348 6.332-11.294 7.452-26.106 6.377-14.812-1.077-11.222-4.95-26.688 3.027-15.469 7.974-20.106 3.501-28.872 10.312-8.767 6.806-13.106-1.781-23.757 8.201-10.65 9.98-12.281-1.719-21.754 3.383-9.469 5.103-17.92-3.781-20.569-1.492-2.647 2.289-3.936-2.767-9.934.105-5.998 2.874-7.405-.539-15.171 3.862-7.761 4.398-9.753-2.363-15.752.51-5.998 2.874-6.701 1.17-15.05 2.216-8.347 1.05-15.694-.309-18.867-2.196-3.172-1.884-1.046-8.346-14.871-.252-13.822 8.095-7.047-5.474-21.394-1.553-14.349 3.922-22.695 4.969-25.521 9.729-2.826 4.758-16.876 4.564-16.876 4.564s-12.283-1.718-16.754 2.922c-4.474 4.637-13.585 4.801-22.936 8.26-9.348 3.456-9.934.106-20.988 4.267-11.055 4.159-17.399.391-25.103 3.967-7.704 3.577-14.349 3.92-24.22 3.204-9.874-.717-12.52 1.574-23.221.797-10.698-.776-.477 6.584-18.577 5.27-18.103-1.314-9.71 8.392-26.169 7.199-16.453-1.195-16.287 7.914-25.579 10.549-9.289 2.635-10.339-5.712-24.982 2.324-14.647 8.035-26.333-1.91-33.273 2.549-6.942 4.457-9.709 8.393-21.229 7.556-11.517-.835-8.765 6.809-24.399 5.676-15.635-1.136-11.637.807-26.868 5.491-15.227 4.686-22.994 9.085-32.868 8.368-9.875-.718-7.941 6.869-19.462 6.033-11.521-.837-23.515 4.911-31.567 1.845-8.047-3.067-5.761-.418-15.633-1.135-9.877-.716-14.529 6.39-24.279 4.029-9.755-2.362-9.46-6.477-22.158-2.438-12.7 4.043-11.581-.01-21.814 4.208-10.231 4.221-11.936 4.924-28.394 3.729-16.455-1.193-17.172 8.68-33.749 9.131-16.578.451-26.63 2.202-31.566 1.845-4.939-.359-15.172 3.862-22.217-1.614-7.048-5.475-22.575 3.325-25.868 3.087-3.29-.238-17.697 4.506-24.864.675-7.166-3.828-10.649 9.98-27.869 7.904-17.22-2.076-19.463 6.031-30.684 1.082-11.219-4.951-14.585 7.212-25.283 6.436-10.695-.776-16.038-6.953-27.155-1.97-11.113 4.983-15.287 5.508-30.098 4.432-14.811-1.075-9.77 9.216-24.46 6.496-14.692-2.721-18.582 5.269-25.565-1.029-6.99-6.298-10.354 5.865-26.691 3.027-16.336-2.84-28.513 5.373-36.325-.981-7.812-6.36-18.698 6.912-25.626-.207-6.93-7.121-20.394-3.963-25.854-8.494-5.462-4.535-17.293 10.323-30.099 4.431-12.807-5.892-3.983-13.522-15.682-11.892-11.699 1.632-10.218-7.358-22.393.857-12.178 8.215-17.234 9.501-23.1-.852-5.865-10.35-1.691-10.874-16.744-8.658-15.048 2.216-17.174 8.681-32.327.962-15.157-7.716-21.229 7.559-34.335 5.781-13.104-1.778-18.804-3.019-25.805 2.262-.582.439-1.821 1.172-2.659 1.652 2.834-1.515-6.647 4.555-11.85 4.018-2.426-.25-4.452 1.427-6.237 2.518-6.06 3.697-15.111 3.041-19.57-3.902-4.458-6.939-9.935.107-18.225.333-8.287.225-8.513-8.063-15.393-4.428-6.881 3.637-20.976-7.312-24.446-5.08l-3.471 2.229s-6.867-7.944-16.861-7.014c-9.994.929-13.57-6.776-24.505-4.26-10.936 2.515-17.446-10.365-27.619-6.969-10.174 3.397-15.979-7.778-26.856-6.085-10.872 1.693-13.044-2.599-17.218-2.078-4.173.524 1.42-8.168-11.459-1.657-12.881 6.509-22.993 9.084-30.746 1.904-7.75-7.181-14.928.57-21.736-8.196-6.809-8.767-12.165-3.365-17.505-9.543-5.343-6.176-9.472 5.104-13.287.69-3.815-4.413-3.876-3.588-15.812 1.334-11.938 4.923-17.042-4.545-25.511-1.852-8.465 2.696-26.853-6.084-32.853-3.211-5.997 2.874-19.268-8.016-30.207-5.502-10.935 2.515 4.011-9.634-12.984-3.424-16.994 6.211-18.983-.548-24.984 2.322-5.999 2.873-2.755-7.643-10.457-4.065-7.706 3.575-13.867-2.662-29.337 5.312-15.467 7.978-24.086-10.021-34.438-4.152-10.354 5.867-18.21-11.248-34.382-4.979-16.172 6.273-7.809-6.356-20.691.153-12.88 6.511-7.105-4.653-18.804-3.02-11.7 1.633-17.865-4.604-26.272-2.734-8.409 1.871-10.639-1.599-19.223 2.742-8.59 4.339-8.991-1.48-20.169 4.326-11.172 5.807.075-12.399-17.442-10.366-17.52 2.038-23.565-5.847-39.32-5.335-15.752.51-2.693-8.466-13.688-5.129-10.998 3.337-2.694-8.469-12.807-5.894-10.115 2.576.252-14.869-11.101-6.596-11.355 8.276-10.173 3.4-18.641 6.092-8.466 2.695-13.809-3.485-22.216-1.611-8.408 1.87-23.624-5.023-31.147-3.917-7.527 1.108-19.271-8.017-32.152-1.507-12.879 6.512-25.448-2.674-29.681-1.326-4.233 1.347-14.81-1.075-19.223 2.74-4.413 3.816-18.102-1.314-25.223 5.614-7.121 6.928-14.108.63-26.869 5.495-12.76 4.862-29.861 1.138-35.859 4.014-6 2.873-5.746-11.998-16.159-5.307-10.409 6.687-21.631 1.737-29.334 5.314-7.706 3.577-11.985-5.834-18.988-.55-7 5.283-14.452-6.013-18.1-1.313-3.651 4.697-15.112 3.039-21.348 9.201-6.238 6.165-12.104-4.185-22.394.855-10.294 5.044-15.576-1.955-21.051 5.091-5.476 7.045-15.754.512-20.988 4.265-5.237 3.757-16.516-.368-20.407 7.619-3.888 7.99-19.985 1.858-25.52 9.727-5.534 7.872 1.482-8.99-13.811-3.484-15.287 5.509-17.743-6.249-28.799-2.091-11.055 4.162-22.23 9.968-26.76 15.429-4.535 5.462-18.104-1.313-20.93 3.445-2.826 4.759-6.284-4.592-12.581 2.395-6.301 6.988-13.752-4.306-16.579.452-2.827 4.759-7.285-2.185-13.462 3.158-6.179 5.341-16.398-2.018-29.338 5.314-12.94 7.334-8.004 7.693-28.933 11.136-20.929 3.442-16.219-4.485-25.626-.208-9.411 4.281-17.401.394-26.048 5.557-8.645 5.161-22.275-.79-22.275-.79s-4.76-2.828-21.693 2.56c-16.935 5.389-15.215-6.894-30.385-3.03-15.169 3.861-14.512-5.19-24.686-1.792-10.17 3.397-11.746-9.127-19.387-6.372-7.647 2.754-38.317-7.744-38.317-7.744s-20.797-9.781-26.617-9.378c-5.818.406-24.041.737-29.516 7.785-5.474 7.047-21.917-5.729-25.687.615-3.768 6.345-11.388-14.06-16.039-6.954-4.651 7.109-4.697-3.648-12.82 5.69-8.121 9.335-18.029-13.716-22.442-9.9-4.412 3.813-13.046-2.602-20.928 3.442-7.883 6.046-14.751-1.899-19.224 2.741-4.474 4.637-14.048-.193-19.344 4.386-5.295 4.579-20.569-1.493-25.807 2.262-5.235 3.756-13.688-5.129-24.1 1.559-10.412 6.689-25.749 1.44-33.629 7.486-7.885 6.044-19.571-3.904-29.862 1.14-10.292 5.043-9.335-8.122-19.104 1.095-9.766 9.217-17.745-6.251-26.331-1.911-8.587 4.34-5.281-7.001-18.102-1.313-12.82 5.686-9.335-8.123-26.807 4.671-17.472 12.793-26.616-9.377-33.152.901-6.537 10.279-25.929 3.911-30.744 1.904-4.817-2.002-5.044-10.29-12.748-6.714-7.706 3.577-1.977-18.342-13.511-7.598-11.531 10.743-21.214-4.022-26.51.556-5.293 4.578-13.928-1.837-20.285 5.973-6.357 7.81-7.405-.537-14.644 8.035-7.242 8.573-21.037-6.489-30.444-2.208-9.412 4.278-23.758 8.201-25.702 12.195-1.945 3.995-13.046-2.601-21.634 1.738-8.585 4.341-18.567-6.31-23.62-5.022-5.059 1.287-15.441-15.184-43.013-11.394-27.574 3.788-46.08-3.344-55.607 2.58-9.531 5.925-18.045-2.137-25.929 3.908-7.881 6.046-26.628 2.204-32.507 3.43-5.88 1.227-26.452-.265-27.858-3.677-1.406-3.411-27.855-3.675-31.567 1.845-3.708 5.523-22.5-9.078-27.332.498-4.832 9.576-19.927 1.035-23.576 5.734-3.65 4.696-21.859-6.55-23.743-3.377-1.886 3.17-19.165 1.916-19.165 1.916s-19.689-2.256-34.036 1.666c-14.345 3.922 3.606-15.455-15.154-7.718-18.76 7.738-22.801-4.962-37.266.605-14.469 5.567-7.87-5.536-25.164 4.79-8.73 5.213-11.942 4.261-14.357 3.065-9.33-4.625-8.134 1.911-11.831-2.417-3.695-4.331-4.647-2.411-8.002-.581-10.824 5.903-6.037-6.344-23.173 3.885-17.292 10.327-10.696-.776-25.163 4.791-14.466 5.567-18.506-7.132-37.265.604-18.76 7.738-.811-11.639-15.155-7.715-14.347 3.92-34.035 1.665-34.035 1.665s-17.279-1.254-19.165 1.915c-1.884 3.173-20.092-8.073-23.743-3.376-3.649 4.698-18.746-3.842-23.577 5.735-4.831 9.574-23.621-5.025-27.332.496-3.71 5.521-30.158 5.256-31.566 1.845-1.407-3.411-21.98-4.903-27.858-3.677-5.88 1.229-24.625-2.613-32.508 3.432-7.883 6.045-16.396-2.016-25.927 3.908-9.527 5.926-28.035-1.207-55.606 2.58-27.572 3.789-37.955-12.68-43.014-11.394-5.054 1.288-15.035-9.361-23.622-5.021-8.586 4.337-19.689-2.258-21.635 1.737-1.943 3.994-16.289 7.918-25.699 12.196-9.406 4.281-23.204-10.781-30.445-2.21-7.24 8.574-8.287.225-14.643 8.036-6.357 7.81-14.993 1.395-20.288 5.973-5.292 4.579-14.977-10.187-26.51.556-11.532 10.745-5.805-11.174-13.509-7.598-7.704 3.577-7.929-4.71-12.747-6.715-4.817-2.005-24.207-8.375-30.744 1.904-6.535 10.279-15.681-11.892-33.151.903-17.473 12.792-13.989-1.016-26.81 4.671-12.819 5.686-9.514-5.654-18.101-1.314-8.586 4.339-16.564-11.13-26.33-1.912-9.77 9.217-8.814-3.95-19.104 1.095-10.294 5.043-21.979-4.903-29.862 1.142-7.883 6.045-23.22.795-33.631 7.484-10.413 6.688-18.865-2.197-24.101 1.56-5.236 3.754-20.509-2.316-25.807 2.261-5.294 4.58-14.87-.25-19.343 4.388-4.473 4.637-11.342-3.305-19.222 2.74-7.885 6.044-16.517-.372-20.93 3.443-4.412 3.815-14.321-19.237-22.442-9.901-8.123 9.336-8.169-1.42-12.821 5.689-4.651 7.105-12.27-13.299-16.038-6.955-3.772 6.344-20.214-6.431-25.688.616-5.474 7.048-23.696 7.379-29.517 7.785-5.82.405-26.616-9.377-26.616-9.377s-30.669-10.498-38.316-7.744c-7.643 2.754-9.217-9.768-19.388-6.371-10.173 3.397-9.517-5.653-24.686-1.792-15.171 3.863-13.451-8.42-30.385-3.03-16.934 5.386-21.693 2.559-21.693 2.559s-13.628-5.95-22.274-.789c-8.647 5.161-16.638 1.276-26.047 5.555-9.408 4.278-4.697-3.651-25.625-.206-20.929 3.445-15.994 3.803-28.935 11.136-12.939 7.331-23.156-.028-29.337 5.315-6.179 5.34-10.636-1.601-13.463 3.159-2.827 4.756-10.278-6.538-16.579.449-6.297 6.987-9.755-2.361-12.582 2.395-2.827 4.759-16.396-2.017-20.928 3.445-4.531 5.459-15.705 11.268-26.762 15.428-11.055 4.159-13.511-7.6-28.799-2.09-15.289 5.506-8.275-11.354-13.808-3.484-5.536 7.869-21.635 1.737-25.524 9.726-3.888 7.989-15.167 3.863-20.403 7.619-5.236 3.754-15.514-2.781-20.99 4.265-5.474 7.047-10.757.047-21.048 5.09-10.294 5.043-16.159-5.31-22.398.857-6.236 6.164-17.696 4.505-21.346 9.202-3.649 4.701-11.1-6.595-18.101-1.314-7.002 5.284-11.281-4.126-18.988-.551-7.701 3.579-18.923-1.372-29.335 5.315-10.41 6.69-10.16-8.181-16.158-5.308-5.997 2.874-23.1-.849-35.86 4.013-12.761 4.866-19.747-1.433-26.867 5.496-7.122 6.928-20.812 1.799-25.225 5.614-4.412 3.815-14.988 1.394-19.222 2.74-4.234 1.348-16.8-7.836-29.681-1.327-12.879 6.511-24.625-2.615-32.15-1.506-7.526 1.107-22.743-5.788-31.15-3.915-8.408 1.87-13.75-4.308-22.216-1.614-8.468 2.695-7.284-2.182-18.641 6.093-11.354 8.274-.985-9.171-11.1-6.597-10.113 2.576-1.809-9.229-12.807-5.892-10.996 3.337 2.064-5.64-13.687-5.129-15.755.511-21.799-7.373-39.319-5.335-17.516 2.035-6.269-16.172-17.443-10.367-11.177 5.808-11.581-.012-20.168 4.327-8.586 4.341-10.816.87-19.224 2.741-8.406 1.87-14.57-4.365-26.27-2.733-11.701 1.631-5.925-9.531-18.806-3.02-12.88 6.508-4.521-6.119-20.69.153-16.172 6.269-24.029-10.845-34.381-4.979-10.352 5.868-18.972-12.131-34.44-4.153-15.466 7.974-21.631 1.738-29.337 5.313-7.702 3.577-4.458-6.94-10.457-4.066-5.999 2.871-7.99-3.889-24.983 2.322-16.994 6.21-2.051-5.939-12.986-3.425-10.936 2.514-24.207-8.375-30.206-5.501-6 2.874-24.386-5.907-32.855-3.211-8.466 2.694-13.57-6.776-25.509-1.852-11.937 4.922-11.997 5.748-15.811 1.335-3.817-4.413-7.945 6.865-13.288.689-5.34-6.178-10.697-.776-17.502-9.543-6.811-8.765-13.99-1.016-21.741-8.196-7.75-7.179-17.863-4.605-30.742 1.904-12.881 6.512-7.289-2.183-11.462-1.658-4.174.523-6.343-3.771-17.219-2.076-10.876 1.692-16.681-9.483-26.854-6.086-10.173 3.397-16.684-9.482-27.618-6.968-10.935 2.516-14.513-5.19-24.507-4.26-9.995.929-16.86-7.015-16.86-7.015l-3.469 2.229c-3.471 2.23-17.567-8.715-24.447-5.08-6.882 3.635-7.106-4.652-15.395-4.428-8.286.226-13.763 7.271-18.221.332-4.462-6.942-13.511-7.598-19.571-3.901-6.06 3.697-15.287 5.507-29.442-4.62-14.152-10.127-11.999 5.748-20.512-2.316-3.181-3.015-7.763-3.72-9.834-4.871-3.547-1.973-3.706-6.293-7.864-3.578-4.153 2.714-9.592 6.78-15.473 8.01-5.876 1.229-11.173 5.806-20.223 5.148-9.053-.656-11.938 4.924-23.458 4.088-11.521-.835-16.172 6.27-30.982 5.196-14.811-1.076-26.572 1.381-33.796-1.624-7.226-3.007-8.587 4.337-18.461 3.622-9.874-.717-5.356 5.4-16.231 7.093-10.876 1.69-2.243 8.108-9.826 10.039-7.586 1.931-5.463-4.532-14.875-.252-9.407 4.281-8.811-3.949-18.338 1.977-9.531 5.926-6.287-4.591-17.521 2.038-11.232 6.628-15.453-3.603-28.331 2.905-12.882 6.511 4.218 10.233-9.245 13.391-13.466 3.159-14.335-7.657-24.626-2.612-10.291 5.042-16.695 2.095-17.231 9.502-.539 7.404-11.881 4.099-19.048.271-7.163-3.829-17.397.391-23.801-2.555-6.404-2.947-6.88 3.635-19.928 1.036-13.044-2.602-17.397.389-26.104 6.376-8.705 5.987-13.525 3.981-21.993 6.675-8.466 2.694-10.635-1.598-23.574 5.734-12.942 7.331-25.867 3.086-31.985 7.604-6.119 4.518-11.699 1.631-21.048 5.09-9.35 3.457-15.11 3.04-21.289 8.381-6.178 5.342-24.053 12.316-34.869 13.185-10.819.867-30.103 4.431-30.103 4.431s-20.165 4.328-28.333 2.908c-8.169-1.419-11.638.808-23.159-.027-11.519-.836-10.472 7.511-22.813 6.615-12.342-.895-2.889 5.582-17.698 4.506-14.811-1.075-.657 9.05-16.41 9.563-15.754.51-23.145-11.606-28.679-3.737-5.534 7.872-21.694 2.562-29.517 7.785-7.825 5.223-19.405 5.209-27.931 8.725-8.527 3.516-12.404-.072-25.165 4.792-12.759 4.864-13.806-3.485-29.216 3.669-15.407 7.153-12.926-4.247-24.803-.146-11.878 4.099-16.458-1.195-27.512 2.965-11.053 4.163-14.287 3.099-27.106 8.786-12.82 5.688-13.225-.132-26.104 6.377-12.881 6.509-14.227 2.276-24.983 2.323-10.756.046-19.093-10.486-25.269-5.143-6.177 5.343-7.644 2.754-12.879 6.508-5.237 3.756-1.347-4.232-15.575-1.958-14.228 2.277-8.527 3.518-20.929 3.444-12.403-.072-10.636-1.599-21.752 3.384-11.116 4.985-14.872-.251-28.754 8.665-13.881 8.921-14.825 10.507-20.586 10.088-5.758-.418-14.392-6.835-26.507.557-12.119 7.391-12.104-4.188-21.455-.732-9.35 3.458-10.457-4.065-25.806 2.263-15.348 6.333-11.294 7.452-26.106 6.377-14.811-1.075-11.221-4.949-26.688 3.027-15.469 7.976-20.106 3.502-28.872 10.312-8.768 6.807-13.104-1.779-23.756 8.203-10.651 9.978-12.285-1.72-21.753 3.382-9.47 5.103-17.922-3.781-20.573-1.491-2.647 2.287-3.934-2.767-9.93.104-6.001 2.874-7.407-.538-15.172 3.863-7.762 4.398-9.752-2.363-15.751.51-6.001 2.874-6.702 1.17-15.05 2.215-8.348 1.051-15.694-.309-18.867-2.195-3.171-1.885-1.047-8.346-14.871-.253-13.824 8.095-7.047-5.474-21.395-1.552-14.347 3.922-22.693 4.969-25.521 9.728-2.826 4.759-16.876 4.566-16.876 4.566s-12.283-1.719-16.754 2.92c-4.474 4.637-13.583 4.802-22.934 8.261-9.351 3.455-9.935.106-20.989 4.267-11.056 4.159-17.398.391-25.103 3.968-7.705 3.576-14.346 3.919-24.221 3.202-9.873-.716-12.522 1.574-23.22.798-10.695-.776-.478 6.584-18.578 5.27-18.103-1.315-9.709 8.392-26.167 7.198-16.456-1.194-16.289 7.916-25.58 10.551-9.29 2.635-10.338-5.712-24.984 2.324-14.646 8.035-26.331-1.911-33.272 2.548-6.94 4.458-9.706 8.394-21.227 7.557-11.521-.835-8.768 6.809-24.4 5.676-15.635-1.136-11.64.808-26.868 5.492-15.229 4.685-22.993 9.085-32.868 8.368-9.875-.718-7.942 6.868-19.461 6.033-11.52-.837-23.518 4.911-31.568 1.844-8.049-3.066-5.761-.417-15.634-1.134-9.875-.716-14.526 6.389-24.28 4.029-9.754-2.363-9.458-6.477-22.158-2.439-12.7 4.045-11.579-.011-21.812 4.209-10.231 4.221-11.936 4.925-28.395 3.73-16.455-1.194-17.173 8.679-33.748 9.13-16.579.451-26.631 2.203-31.568 1.845-4.937-.359-15.17 3.862-22.217-1.613-7.048-5.475-22.573 3.325-25.866 3.087-3.291-.24-17.696 4.504-24.864.676-7.169-3.828-10.649 9.98-27.872 7.903-17.218-2.076-19.462 6.031-30.683 1.083-11.221-4.951-14.585 7.212-25.284 6.435-10.696-.776-16.039-6.952-27.153-1.971-11.115 4.984-15.289 5.509-30.1 4.433-14.81-1.074-9.769 9.217-24.458 6.497-9.268-1.717-14.237.826-18.396 1.359l-4.829 158.679 11374.6 5.018-6.282-808.148.007.001-.016.002Z" style="fill:#fff;fill-rule:nonzero"/><path d="M11352 629.932c-.967.325-1.94.717-2.915 1.21-12.882 6.51-24.627-2.616-32.151-1.507-7.525 1.108-22.74-5.787-31.149-3.915-8.409 1.871-13.749-4.307-22.217-1.614-8.467 2.695-7.285-2.182-18.641 6.093-11.353 8.273-.988-9.171-11.1-6.598-10.114 2.577-1.812-9.228-12.807-5.891-10.995 3.337 2.064-5.641-13.69-5.13-15.753.512-21.8-7.372-39.317-5.333-17.519 2.034-6.271-16.174-17.444-10.369-11.176 5.808-11.581-.013-20.168 4.328-8.585 4.339-10.813.869-19.222 2.74-8.408 1.87-14.571-4.365-26.273-2.733-11.698 1.631-5.925-9.531-18.805-3.021-12.88 6.509-4.519-6.119-20.689.154-16.173 6.269-24.029-10.845-34.38-4.977-10.354 5.866-18.974-12.132-34.441-4.154-15.469 7.973-21.633 1.738-29.337 5.313-7.702 3.577-4.459-6.941-10.457-4.066-6 2.871-7.99-3.89-24.984 2.322-16.996 6.21-2.05-5.94-12.986-3.426-10.937 2.515-24.206-8.375-30.206-5.5-5.998 2.873-24.386-5.907-32.853-3.211-8.467 2.693-13.572-6.775-25.509-1.853-11.936 4.922-11.996 5.748-15.814 1.334-3.814-4.413-7.942 6.865-13.285.69-5.339-6.178-10.696-.777-17.505-9.545-6.806-8.764-13.985-1.014-21.737-8.195-7.753-7.179-17.865-4.605-30.746 1.904-12.879 6.511-7.287-2.184-11.459-1.659-4.174.523-6.344-3.771-17.22-2.077-10.875 1.692-16.682-9.482-26.852-6.084-10.172 3.396-16.685-9.484-27.621-6.969-10.936 2.516-14.509-5.19-24.505-4.259-9.994.928-16.86-7.015-16.86-7.015l-3.472 2.228c-3.469 2.232-17.565-8.715-24.447-5.08-6.879 3.635-7.105-4.651-15.392-4.426-8.29.226-13.765 7.271-18.224.331-4.458-6.941-13.511-7.599-19.568-3.902-6.06 3.697-15.29 5.508-29.443-4.619-14.153-10.128-11.998 5.746-20.511-2.316-3.181-3.015-7.765-3.72-9.835-4.872-3.549-1.974-3.709-6.293-7.864-3.578-4.155 2.714-9.594 6.782-15.472 8.01-5.878 1.229-11.174 5.806-20.227 5.148-9.05-.655-11.936 4.926-23.455 4.089-11.519-.835-16.173 6.27-30.984 5.195-14.81-1.075-26.57 1.38-33.798-1.624-7.224-3.007-8.587 4.337-18.459 3.621-9.873-.717-5.354 5.401-16.231 7.093-10.874 1.691-2.244 8.108-9.828 10.04-7.585 1.932-5.46-4.533-14.872-.252-9.408 4.279-8.81-3.95-18.34 1.976-9.528 5.925-6.285-4.591-17.519 2.039-11.234 6.628-15.454-3.603-28.333 2.904-12.878 6.511 4.221 10.235-9.242 13.392-13.465 3.159-14.336-7.658-24.627-2.612-10.291 5.041-16.692 2.095-17.233 9.501-.536 7.404-11.878 4.099-19.046.271-7.166-3.829-17.399.392-23.8-2.555-6.404-2.946-6.882 3.636-19.928 1.037-13.046-2.603-17.399.389-26.104 6.375-8.707 5.988-13.525 3.982-21.992 6.676-8.469 2.694-10.637-1.598-23.579 5.733-12.94 7.333-25.863 3.086-31.982 7.605-6.119 4.516-11.701 1.63-21.049 5.089-9.35 3.459-15.11 3.041-21.288 8.382-6.177 5.341-24.054 12.316-34.87 13.184-10.817.868-30.1 4.433-30.1 4.433s-20.164 4.327-28.334 2.907c-8.169-1.42-11.641.809-23.16-.027-11.518-.836-10.469 7.511-22.811 6.614-12.342-.894-2.89 5.582-17.699 4.508-14.812-1.076-.658 9.049-16.411 9.562-15.753.51-23.146-11.606-28.679-3.737-5.537 7.871-21.692 2.561-29.516 7.784-7.825 5.223-19.404 5.208-27.931 8.725-8.528 3.517-12.401-.073-25.163 4.791-12.761 4.863-13.808-3.485-29.217 3.669-15.409 7.154-12.926-4.246-24.806-.146-11.876 4.1-16.455-1.194-27.511 2.966-11.054 4.162-14.285 3.1-27.106 8.786-12.822 5.687-13.223-.132-26.104 6.378-12.88 6.508-14.226 2.276-24.982 2.323-10.757.046-19.092-10.486-25.269-5.143-6.178 5.343-7.647 2.753-12.88 6.507-5.236 3.757-1.347-4.232-15.575-1.958-14.226 2.277-8.527 3.518-20.928 3.444-12.402-.072-10.639-1.599-21.752 3.384-11.116 4.985-14.875-.251-28.754 8.667-13.882 8.919-14.825 10.506-20.587 10.086-5.758-.417-14.392-6.835-26.508.557-12.117 7.391-12.103-4.189-21.455-.732-9.349 3.457-10.457-4.065-25.805 2.264-15.348 6.332-11.294 7.452-26.107 6.377-14.812-1.076-11.221-4.95-26.688 3.027-15.469 7.974-20.106 3.501-28.872 10.312-8.766 6.806-13.106-1.781-23.756 8.201-10.651 9.98-12.282-1.719-21.754 3.383-9.469 5.103-17.921-3.781-20.57-1.492-2.646 2.289-3.935-2.767-9.933.105-5.999 2.874-7.405-.539-15.172 3.862-7.76 4.398-9.753-2.363-15.752.51-5.998 2.874-6.7 1.17-15.049 2.216-8.348 1.05-15.695-.309-18.868-2.196-3.171-1.884-1.046-8.346-14.87-.252-13.823 8.095-7.048-5.474-21.395-1.553-14.349 3.922-22.695 4.969-25.521 9.729-2.826 4.758-16.875 4.564-16.875 4.564s-12.284-1.718-16.755 2.922c-4.473 4.637-13.584 4.801-22.936 8.26-9.347 3.456-9.934.106-20.987 4.267-11.056 4.159-17.399.391-25.104 3.967-7.704 3.577-14.349 3.92-24.219 3.204-9.874-.717-12.521 1.574-23.221.797-10.699-.776-.478 6.584-18.577 5.27-18.104-1.314-9.711 8.392-26.169 7.199-16.454-1.195-16.288 7.914-25.579 10.549-9.29 2.635-10.339-5.712-24.982 2.324-14.648 8.035-26.333-1.91-33.273 2.549-6.942 4.457-9.709 8.393-21.23 7.556-11.517-.835-8.764 6.809-24.399 5.676-15.635-1.136-11.637.807-26.867 5.491-15.228 4.686-22.994 9.085-32.868 8.368-9.876-.718-7.942 6.869-19.463 6.033-11.521-.837-23.515 4.911-31.566 1.845-8.048-3.067-5.761-.418-15.633-1.135-9.878-.716-14.529 6.39-24.28 4.029-9.755-2.362-9.459-6.477-22.157-2.438-12.701 4.043-11.581-.01-21.814 4.208-10.231 4.222-11.936 4.924-28.395 3.729-16.455-1.193-17.172 8.68-33.748 9.131-16.579.451-26.63 2.202-31.567 1.845-4.938-.359-15.171 3.862-22.217-1.614-7.048-5.475-22.575 3.325-25.868 3.087-3.289-.238-17.696 4.506-24.864.675-7.166-3.828-10.649 9.98-27.868 7.904-17.22-2.076-19.464 6.031-30.684 1.082-11.22-4.951-14.586 7.212-25.284 6.437-10.694-.777-16.038-6.954-27.155-1.971-11.112 4.983-15.286 5.508-30.097 4.432-14.811-1.075-9.77 9.216-24.46 6.496-14.692-2.721-18.582 5.269-25.566-1.029-6.989-6.298-10.354 5.865-26.69 3.027-16.336-2.84-28.514 5.373-36.325-.981-7.812-6.36-18.698 6.912-25.627-.207-6.929-7.121-20.394-3.963-25.853-8.494-5.463-4.535-17.293 10.323-30.1 4.431-12.807-5.892-3.983-13.522-15.682-11.892-11.699 1.632-10.217-7.358-22.393.857-12.178 8.215-17.234 9.501-23.1-.852-5.865-10.35-1.691-10.874-16.743-8.658-15.049 2.216-17.174 8.681-32.327.962-15.158-7.715-21.229 7.559-34.335 5.781-13.104-1.778-18.805-3.019-25.806 2.262-.581.439-1.82 1.172-2.658 1.652 2.833-1.515-6.648 4.555-11.851 4.018-2.426-.25-4.452 1.427-6.237 2.518-6.06 3.697-15.111 3.041-19.57-3.902-4.458-6.939-9.935.107-18.224.333-8.287.225-8.513-8.063-15.394-4.428-6.881 3.637-20.975-7.312-24.446-5.08l-3.471 2.229s-6.867-7.944-16.861-7.014c-9.993.929-13.57-6.776-24.504-4.26-10.937 2.515-17.447-10.365-27.62-6.969-10.173 3.397-15.979-7.778-26.855-6.085-10.873 1.693-13.044-2.599-17.218-2.078-4.174.525 1.419-8.168-11.46-1.657-12.881 6.509-22.993 9.084-30.745 1.904-7.75-7.181-14.928.57-21.737-8.196-6.808-8.767-12.164-3.365-17.505-9.543-5.342-6.176-9.471 5.104-13.287.69-3.814-4.412-3.875-3.588-15.812 1.334-11.938 4.923-17.041-4.545-25.51-1.852-8.465 2.696-26.854-6.084-32.854-3.211-5.997 2.874-19.268-8.015-30.206-5.502-10.936 2.515 4.011-9.634-12.984-3.424-16.995 6.211-18.983-.548-24.984 2.322-6 2.873-2.755-7.643-10.458-4.065-7.706 3.575-13.867-2.662-29.337 5.312-15.467 7.978-24.086-10.021-34.437-4.152-10.355 5.867-18.211-11.248-34.383-4.979-16.171 6.273-7.809-6.356-20.691.153-12.879 6.511-7.105-4.653-18.804-3.02-11.7 1.633-17.864-4.604-26.272-2.734-8.409 1.871-10.638-1.599-19.222 2.742-8.59 4.339-8.991-1.48-20.169 4.326-11.173 5.807.074-12.399-17.443-10.366-17.52 2.038-23.565-5.847-39.32-5.335-15.752.51-2.692-8.466-13.688-5.129-10.998 3.337-2.694-8.469-12.807-5.894-10.115 2.576.253-14.869-11.1-6.596-11.355 8.276-10.173 3.4-18.641 6.092-8.467 2.695-13.809-3.485-22.216-1.611-8.408 1.87-23.625-5.023-31.148-3.917-7.527 1.108-19.271-8.017-32.152-1.507-12.879 6.512-25.447-2.674-29.681-1.326-4.233 1.347-14.809-1.075-19.222 2.74-4.413 3.816-18.103-1.314-25.224 5.614-7.121 6.928-14.107.63-26.868 5.495-12.76 4.862-29.862 1.138-35.859 4.014-6 2.873-5.747-11.998-16.159-5.307-10.409 6.687-21.632 1.737-29.334 5.314-7.707 3.577-11.985-5.834-18.988-.55-7 5.283-14.452-6.013-18.101-1.313-3.65 4.697-15.111 3.039-21.348 9.201-6.238 6.165-12.104-4.185-22.394.855-10.293 5.044-15.576-1.955-21.051 5.091-5.475 7.045-15.753.512-20.987 4.265-5.238 3.757-16.517-.368-20.407 7.619-3.888 7.991-19.986 1.858-25.521 9.727-5.534 7.872 1.482-8.99-13.81-3.483-15.288 5.508-17.744-6.25-28.799-2.092-11.056 4.162-22.231 9.968-26.761 15.43-4.534 5.461-18.103-1.314-20.929 3.444-2.826 4.759-6.285-4.592-12.582 2.395-6.301 6.988-13.751-4.306-16.578.452-2.828 4.759-7.285-2.185-13.463 3.158-6.178 5.341-16.398-2.018-29.338 5.314-12.939 7.334-8.004 7.693-28.932 11.136-20.93 3.442-16.219-4.485-25.627-.208-9.41 4.281-17.401.394-26.048 5.557-8.645 5.161-22.275-.79-22.275-.79s-4.759-2.828-21.693 2.56c-16.935 5.389-15.214-6.894-30.385-3.03-15.168 3.861-14.512-5.19-24.686-1.792-10.17 3.397-11.746-9.127-19.387-6.372-7.646 2.754-38.317-7.744-38.317-7.744s-20.796-9.781-26.616-9.378c-5.818.406-24.042.737-29.517 7.785-5.474 7.047-21.916-5.729-25.686.615-3.769 6.345-11.389-14.06-16.04-6.954-4.65 7.109-4.696-3.648-12.819 5.69-8.122 9.335-18.029-13.716-22.442-9.9-4.412 3.813-13.046-2.602-20.929 3.442-7.882 6.046-14.751-1.899-19.224 2.741-4.473 4.637-14.048-.193-19.343 4.386s-20.569-1.493-25.807 2.262c-5.236 3.756-13.688-5.129-24.101 1.559-10.412 6.689-25.748 1.44-33.629 7.486-7.884 6.044-19.57-3.904-29.861 1.14-10.293 5.043-9.336-8.122-19.105 1.095-9.766 9.217-17.745-6.251-26.331-1.911-8.587 4.34-5.28-7.001-18.101-1.313-12.821 5.686-9.335-8.123-26.808 4.671-17.472 12.793-26.616-9.377-33.151.901-6.537 10.279-25.929 3.911-30.745 1.904-4.817-2.002-5.044-10.29-12.747-6.714-7.707 3.577-1.977-18.342-13.511-7.598-11.531 10.743-21.215-4.022-26.511.556-5.292 4.578-13.928-1.837-20.285 5.973-6.356 7.81-7.405-.537-14.644 8.035-7.242 8.573-21.036-6.489-30.444-2.208-9.411 4.278-23.757 8.201-25.702 12.195-1.945 3.995-13.046-2.601-21.633 1.738-8.585 4.341-18.567-6.31-23.621-5.022-5.058 1.287-15.441-15.184-43.013-11.394-27.574 3.788-46.08-3.344-55.606 2.58-9.532 5.925-18.045-2.137-25.93 3.908-7.881 6.046-26.627 2.204-32.506 3.43-5.88 1.227-26.453-.265-27.858-3.677-1.406-3.411-27.856-3.675-31.567 1.845-3.709 5.523-22.5-9.078-27.333.498-4.832 9.576-19.927 1.035-23.575 5.734-3.651 4.696-21.859-6.55-23.744-3.377-1.886 3.17-19.165 1.916-19.165 1.916s-19.688-2.256-34.035 1.666c-14.345 3.922 3.606-15.455-15.154-7.718-18.76 7.738-22.802-4.962-37.267.605-14.468 5.567-7.869-5.535-25.163 4.79-8.731 5.213-11.943 4.261-14.357 3.065-9.331-4.625-8.134 1.911-11.831-2.417-3.695-4.331-4.648-2.411-8.002-.581-10.825 5.903-6.038-6.344-23.173 3.885-17.292 10.327-10.697-.776-25.164 4.791-14.466 5.567-18.505-7.132-37.264.604-18.76 7.738-.812-11.639-15.156-7.715-14.346 3.92-34.035 1.665-34.035 1.665s-17.279-1.254-19.165 1.915c-1.883 3.173-20.092-8.073-23.742-3.376-3.65 4.698-18.746-3.842-23.578 5.735-4.83 9.574-23.621-5.025-27.331.496-3.71 5.521-30.158 5.256-31.566 1.845-1.408-3.411-21.98-4.903-27.858-3.677-5.88 1.229-24.625-2.613-32.509 3.433-7.882 6.044-16.396-2.017-25.927 3.907-9.526 5.926-28.035-1.207-55.606 2.58-27.572 3.789-37.955-12.68-43.013-11.394-5.055 1.288-15.035-9.361-23.622-5.021-8.586 4.337-19.69-2.257-21.635 1.737-1.944 3.994-16.29 7.918-25.7 12.196-9.406 4.281-23.204-10.781-30.445-2.21-7.24 8.574-8.287.225-14.642 8.036-6.358 7.81-14.993 1.395-20.288 5.973-5.293 4.579-14.977-10.187-26.51.557-11.533 10.744-5.805-11.175-13.51-7.599-7.704 3.577-7.929-4.71-12.746-6.715s-24.208-8.375-30.744 1.904c-6.536 10.279-15.682-11.892-33.151.903-17.473 12.792-13.99-1.016-26.811 4.671-12.819 5.686-9.514-5.654-18.101-1.314-8.586 4.339-16.563-11.13-26.33-1.912-9.77 9.217-8.814-3.95-19.103 1.095-10.294 5.043-21.979-4.903-29.863 1.142-7.882 6.045-23.22.795-33.631 7.484-10.412 6.688-18.865-2.197-24.101 1.56-5.235 3.754-20.509-2.316-25.806 2.261-5.294 4.58-14.871-.25-19.344 4.388-4.473 4.637-11.341-3.305-19.222 2.74-7.885 6.044-16.516-.372-20.929 3.443s-14.322-19.237-22.443-9.901c-8.122 9.337-8.168-1.42-12.821 5.689-4.651 7.105-12.27-13.299-16.037-6.955-3.772 6.344-20.214-6.431-25.689.616-5.474 7.048-23.696 7.379-29.517 7.785-5.82.405-26.616-9.377-26.616-9.377s-30.668-10.498-38.316-7.744c-7.642 2.754-9.217-9.768-19.388-6.371-10.173 3.397-9.516-5.653-24.686-1.792-15.17 3.863-13.451-8.42-30.385-3.03-16.933 5.386-21.693 2.559-21.693 2.559s-13.628-5.95-22.274-.789c-8.647 5.161-16.637 1.276-26.047 5.555-9.407 4.278-4.696-3.651-25.625-.206-20.929 3.445-15.994 3.803-28.935 11.136-12.939 7.331-23.156-.028-29.337 5.315-6.178 5.34-10.635-1.601-13.462 3.159-2.827 4.756-10.278-6.538-16.58.449-6.296 6.987-9.754-2.361-12.581 2.395-2.827 4.759-16.397-2.017-20.929 3.445-4.531 5.459-15.705 11.268-26.762 15.428-11.054 4.159-13.511-7.6-28.798-2.09-15.29 5.506-8.276-11.354-13.809-3.484-5.536 7.869-21.635 1.737-25.523 9.726-3.888 7.99-15.168 3.863-20.404 7.619-5.235 3.754-15.513-2.781-20.99 4.265-5.474 7.047-10.756.047-21.048 5.09-10.294 5.043-16.159-5.31-22.397.857-6.236 6.164-17.696 4.505-21.347 9.202-3.649 4.701-11.099-6.595-18.1-1.314-7.002 5.284-11.282-4.126-18.988-.551-7.702 3.579-18.923-1.372-29.336 5.315-10.41 6.69-10.159-8.181-16.158-5.308-5.997 2.874-23.099-.849-35.859 4.013-12.761 4.866-19.748-1.433-26.868 5.496-7.122 6.928-20.811 1.799-25.224 5.614-4.412 3.815-14.989 1.394-19.223 2.74-4.234 1.348-16.8-7.836-29.681-1.327-12.879 6.511-24.625-2.615-32.15-1.506-7.525 1.107-22.743-5.788-31.149-3.915-8.408 1.87-13.751-4.308-22.217-1.614-8.467 2.695-7.284-2.182-18.641 6.093-11.353 8.274-.985-9.171-11.1-6.597-10.113 2.576-1.809-9.229-12.807-5.892-10.995 3.337 2.065-5.64-13.687-5.129-15.755.511-21.799-7.373-39.319-5.335-17.516 2.035-6.269-16.172-17.443-10.367-11.176 5.808-11.581-.012-20.168 4.327-8.586 4.341-10.816.87-19.224 2.741-8.406 1.87-14.57-4.365-26.27-2.733-11.701 1.631-5.925-9.531-18.806-3.02-12.88 6.508-4.521-6.119-20.69.153-16.172 6.269-24.028-10.845-34.38-4.979-10.353 5.868-18.972-12.131-34.441-4.153-15.466 7.974-21.631 1.738-29.336 5.313-7.703 3.577-4.458-6.94-10.457-4.066-5.999 2.871-7.991-3.889-24.983 2.322-16.994 6.21-2.052-5.939-12.986-3.425-10.937 2.514-24.208-8.375-30.207-5.501-5.999 2.874-24.386-5.907-32.854-3.211-8.466 2.694-13.571-6.776-25.51-1.852-11.936 4.922-11.996 5.748-15.811 1.335-3.816-4.413-7.944 6.865-13.288.689-5.34-6.178-10.696-.776-17.502-9.543-6.81-8.765-13.989-1.016-21.741-8.196-7.75-7.179-17.863-4.605-30.742 1.904-12.881 6.512-7.289-2.183-11.462-1.658-4.173.523-6.343-3.771-17.218-2.076-10.877 1.692-16.682-9.483-26.855-6.086-10.173 3.397-16.684-9.482-27.617-6.968-10.936 2.516-14.513-5.19-24.507-4.26-9.995.929-16.861-7.015-16.861-7.015l-3.469 2.229c-3.47 2.23-17.567-8.715-24.447-5.08-6.882 3.635-7.106-4.652-15.394-4.428-8.287.226-13.764 7.271-18.222.332-4.462-6.942-13.511-7.598-19.57-3.901-6.06 3.697-15.288 5.507-29.442-4.62-14.153-10.127-12 5.748-20.512-2.316-3.182-3.015-7.764-3.719-9.835-4.871-3.546-1.973-3.706-6.293-7.863-3.578-4.154 2.714-9.592 6.78-15.473 8.01-5.876 1.229-11.174 5.806-20.223 5.148-9.053-.656-11.939 4.924-23.458 4.088-11.521-.835-16.173 6.271-30.983 5.196-14.811-1.076-26.571 1.381-33.796-1.624-7.226-3.007-8.587 4.337-18.461 3.622-9.874-.717-5.356 5.4-16.23 7.093-10.877 1.69-2.244 8.108-9.827 10.039-7.585 1.931-5.463-4.532-14.874-.252-9.408 4.281-8.811-3.949-18.339 1.977-9.531 5.926-6.286-4.591-17.521 2.038-11.232 6.628-15.453-3.603-28.33 2.905-12.882 6.511 4.217 10.233-9.245 13.391-13.466 3.159-14.336-7.657-24.627-2.612-10.29 5.042-16.694 2.095-17.231 9.502-.539 7.404-11.88 4.099-19.047.271-7.164-3.829-17.397.391-23.801-2.555-6.405-2.947-6.88 3.636-19.928 1.036-13.045-2.602-17.398.389-26.104 6.376-8.705 5.987-13.526 3.981-21.993 6.675-8.466 2.694-10.636-1.598-23.575 5.734-12.942 7.331-25.867 3.086-31.985 7.604-6.118 4.518-11.699 1.631-21.048 5.09-9.35 3.458-15.11 3.04-21.288 8.381-6.179 5.342-24.053 12.316-34.87 13.185-10.819.867-30.102 4.431-30.102 4.431s-20.165 4.328-28.334 2.908c-8.168-1.419-11.638.808-23.159-.027-11.519-.836-10.471 7.511-22.813 6.615-12.342-.895-2.889 5.582-17.698 4.506-14.811-1.075-.656 9.05-16.409 9.563-15.754.51-23.146-11.606-28.68-3.737-5.534 7.872-21.694 2.562-29.516 7.785-7.826 5.223-19.406 5.209-27.932 8.725-8.527 3.516-12.403-.072-25.164 4.792-12.76 4.864-13.807-3.485-29.216 3.669-15.408 7.153-12.926-4.247-24.803-.146-11.879 4.099-16.459-1.195-27.512 2.965-11.054 4.163-14.287 3.099-27.106 8.786-12.821 5.688-13.225-.132-26.104 6.377-12.881 6.509-14.228 2.276-24.983 2.323-10.757.046-19.093-10.486-25.27-5.143-6.177 5.343-7.644 2.754-12.879 6.508-5.236 3.756-1.346-4.232-15.574-1.958-14.229 2.277-8.527 3.518-20.93 3.444-12.402-.072-10.636-1.599-21.752 3.384-11.115 4.985-14.872-.251-28.754 8.665-13.88 8.921-14.825 10.507-20.586 10.088-5.758-.418-14.392-6.835-26.506.557-12.12 7.391-12.104-4.188-21.456-.732-9.349 3.458-10.457-4.065-25.806 2.263-15.347 6.333-11.294 7.452-26.106 6.377-14.811-1.075-11.22-4.949-26.687 3.027-15.47 7.976-20.107 3.502-28.872 10.313-8.768 6.806-13.104-1.78-23.757 8.202-10.65 9.978-12.284-1.72-21.753 3.382-9.469 5.103-17.922-3.781-20.573-1.491-2.647 2.287-3.934-2.767-9.93.104-6.001 2.874-7.407-.538-15.171 3.863-7.763 4.398-9.753-2.363-15.752.51-6 2.874-6.702 1.17-15.049 2.215-8.348 1.051-15.694-.309-18.867-2.195-3.171-1.885-1.048-8.346-14.871-.253-13.824 8.095-7.047-5.474-21.395-1.552-14.347 3.922-22.694 4.969-25.522 9.728-2.826 4.759-16.876 4.566-16.876 4.566s-12.283-1.719-16.753 2.92c-4.474 4.637-13.584 4.802-22.934 8.261-9.352 3.455-9.936.106-20.99 4.267-11.055 4.159-17.398.391-25.103 3.968-7.704 3.576-14.346 3.919-24.221 3.202-9.872-.716-12.521 1.574-23.22.798-10.695-.776-.477 6.584-18.578 5.27-18.103-1.315-9.708 8.392-26.167 7.198-16.456-1.194-16.289 7.916-25.579 10.551-9.291 2.635-10.338-5.712-24.985 2.324-14.646 8.035-26.331-1.911-33.272 2.548-6.939 4.458-9.705 8.394-21.226 7.557-11.521-.835-8.768 6.809-24.4 5.676-15.636-1.136-11.64.808-26.869 5.492-15.228 4.685-22.993 9.085-32.868 8.368-9.874-.718-7.941 6.868-19.461 6.033-11.52-.837-23.517 4.911-31.568 1.844-8.048-3.066-5.761-.417-15.634-1.134-9.874-.716-14.526 6.389-24.279 4.029-9.755-2.363-9.459-6.477-22.158-2.439-12.7 4.045-11.579-.011-21.812 4.209-10.232 4.221-11.937 4.925-28.395 3.73-16.455-1.194-17.173 8.679-33.748 9.13-16.58.451-26.632 2.203-31.568 1.845-4.938-.359-15.171 3.862-22.217-1.613-7.048-5.475-22.574 3.325-25.866 3.087-3.292-.239-17.697 4.505-24.864.676-7.169-3.828-10.65 9.98-27.873 7.903-17.217-2.076-19.461 6.031-30.683 1.083-11.22-4.951-14.585 7.212-25.283 6.435-10.697-.776-16.039-6.952-27.154-1.971-11.115 4.984-15.289 5.509-30.1 4.433-14.81-1.074-9.769 9.217-24.458 6.497-9.268-1.717-14.236.826-18.396 1.359l-4.829 158.679 11374.6 5.018-6.282-808.148.007.001-.016.002Z" style="fill:#de350b;fill-rule:nonzero"/></svg>