<svg xmlns="http://www.w3.org/2000/svg" width="1400" height="90.709" viewBox="0 0 1400 90.709">
    <path id="Path_17804" data-name="Path 17804" d="M-3415.9,2480.384c-4.077.866-7.553.855-12.984,2.423-9.7,2.8-9-7.842-12.469-4.48s-11.084-2.244-13.856-2.244-24.248-5.6-40.18-.558-24.941-2.244-24.941-2.244-19.394-4.48-31.864,0-21.473-8.961-27.014-3.361-24.249-3.918-43.644-2.8-14.547-14-29.094-13.44-5.544-5.6-24.247-1.68-18.011-1.121-24.937-.558-14.547-8.963-30.479-7.843-16.629-6.72-25.632-3.919-24.249-6.721-27.709-7.843-18.7,1.682-23.553,7.282-11.079,5.039-20.781,5.039-18.7,5.6-26.322,7.282-11.086,2.8-22.169-2.24-13.854,10.078-18.011.558-15.239-3.36-17.314-5.6-18.014-.559-25.633-.559-15.243,0-15.243-4.48-9.7,0-18.009,2.8-.694-8.4-15.241-4.481-16.625,7.842-24.943,6.161-16.622.559-24.934-5.041-11.081-1.12-20.087,3.92-2.08-7.839-11.774-3.92-7.623-13.44-15.241-8.959-8.316-3.36-14.549,1.681-7.621-3.362-22.861-1.124-13.162,0-14.545-6.157-11.778-1.122-19.4,3.357-17.318-6.719-20.092-6.719-21.469-1.681-31.172,1.68-12.464-1.121-27.016-.561,3.462-6.722-13.16-6.157-36.716-5.6-54.033,1.117-2.77-6.72-17.318-2.8-35.326,6.162-45.717,10.082-9.7,3.919-16.628,0-10.391,10.64-18.013-.561-11.775,2.238-18.7,3.918-13.853-7.278-26.323-3.357-26.322,1.119-26.322,1.119l-6.93-2.239c-6.93-2.24-11.775,3.919-20.088,1.68s-9.7,3.359-21.477,1.118-11.775,2.243-20.088,1.125,0-7.281-11.083-7.281-18.7,7.281-33.25,0-18.013,1.681-27.019,1.681-11.773,7.278-24.94,5.6-22.859,8.4-36.02,8.4,0,0,7.622-5.6-18.011-6.72-21.476-6.72-15.933-1.68-31.174-6.161-7.617,2.24-30.478,2.24-43.644-1.12-51.957,1.68c-7.144,2.405-12.242,1.082-17.486-3.6V2503.9h1400Z" transform="translate(4815.897 -2413.187)" fill="#fff1f7" />
</svg>
  