<svg viewBox="0 0 1417 11339" xmlns="http://www.w3.org/2000/svg" xml:space="preserve"
    style="fill-rule:evenodd;clip-rule:evenodd;stroke-linejoin:round;stroke-miterlimit:2"><path d="M828.655 18271.3c.952-3.558 3.054-6.663 7.194-8.8 16.651-8.585-10.629-38.497-1.095-44.967 9.534-6.473 7.146-49.936.988-52.018-6.158-2.091-10.294-35.808-8.546-45.559 1.754-9.747-6.424-40.31 3.737-53.676 10.161-13.363-4.766-26.822 5.06-42.884 9.83-16.062-4.172-46.015.554-91.598 4.73-45.584-25.259-61.553-23.341-69.955 1.923-8.395-17.712-24.088-10.626-38.497 7.082-14.411-5.431-32.218 1.521-35.686 6.948-3.462 12.872-27.312 19.79-43.072 6.914-15.753-20.822-37.424-6.131-49.909 14.695-12.473-.201-13.64 13.208-24.611 13.405-10.976 1.386-24.746 9.131-33.752 7.746-9.012-19.166-23.946-.931-43.624 18.241-19.685-20.255-8.797-14.463-21.702 5.789-12.903-8.937-12.722-12.844-20.507-3.907-7.783-16.619-39.237 1.154-50.675 17.772-11.434-22.247-24.981-.8-54.566 21.447-29.581-2.813-22.928 6.352-44.39 9.166-21.458-10.724-15.261-3.644-29.669 7.078-14.407-20.956-26.488-5.298-43.16 15.654-16.68-7.653-14.225.556-31.482 8.206-17.261-10.296-35.805-.134-49.174 10.161-13.363-.271-38.224 10.853-55.791 11.116-17.567-5.268-30.872 1.021-39.729 6.286-8.864-5.596-33.564 2.146-42.58 7.749-9.015-1.519-24.434 6.388-32.099 7.913-7.661-6.688-18.424 3.471-31.787 10.161-13.366-1.855-27.13 4.6-34.641 6.45-7.507-35.187-22.252-19.204-36.233 15.988-13.977-3.113-13.335 9.171-21.462 12.277-8.122-24.495-19.279-13.51-25.899 10.991-6.623-12.877-32.804-.764-42.273 12.115-9.472 11.382-39.457 11.682-49.053.297-9.593-18.575-43.129-18.575-43.129s-20.855-49.717-16.52-62.472c4.333-12.753-18.009-14.498-12.716-31.447 5.294-16.953-10.724-15.268-4.97-40.464 5.762-25.202-15.919-21.549-7.581-49.755 8.34-28.202 2.974-35.837 2.974-35.837s-11.552-22.008-3.015-36.573c8.537-14.556 1.061-27.433 7.976-43.19 6.913-15.753-6.822-7.478-2.223-42.12 4.598-34.642 5.592-26.549 17.671-48.312 12.078-21.768-1.725-38.077 7.312-48.588 9.034-10.52-3.612-17.383 4.633-22.346 8.241-4.969-12.35-16.461-.403-27.288 11.948-10.824-4.9-15.878 3.34-20.848 8.242-4.969-4.769-26.822 4.598-34.641 9.363-7.816 18.869-26.578 25.451-45.031 6.585-18.457-14.469-21.702-5.795-47.207 8.667-25.507-20.757-12.846-7.183-22.47 13.567-9.626 1.513-35.683 15.416-42.61 13.899-6.933 5.76-25.199 12.05-34.059 6.286-8.858-6.062-25.322 6.051-34.793 12.117-9.472-.696-17.689 7.514-34.946 8.205-17.258-10.6-26.209-.103-36.878 10.488-10.669 6.714-29.403 14.787-35.715 8.081-6.315-12.511-17.807-3.642-29.672 8.873-11.869-8.143-18.271-2.351-31.176 5.792-12.904-3.809-31.024 7.312-48.592 11.12-17.56-15.262-16.152-10.593-26.209 4.667-10.052-3.182-37.919 4.525-59.223 7.716-21.307-3.974-32.369 7.81-44.545 11.785-12.169 1.688-34.329 8.143-41.844 6.451-7.51 1.389-24.739 3.472-31.787 2.086-7.047-15.132-27.099-4.504-48.709 10.623-21.616-6.428-40.313-5.003-52.756 1.423-12.446-11.922-36.999-9.209-50.948 2.717-13.948-8.638-22.315-4.47-36.419 4.168-14.101-4.403-11.832 9.466-31.054 13.865-19.222-16.354-1.012-12.517-17.807 3.84-16.802-16.514-2.363-11.387-20.662 5.128-18.302-9.862 3.77-10.097-22.163-.231-25.935-14.665-35.347-12.314-64.284 2.342-28.94-29.165-9.223-19.668-27.986 9.498-18.761-.864-19.038 6.218-33.449 7.084-14.404.763-17.833 3.476-31.783 2.711-13.948-8.807-23.663-6.755-43.01 2.048-19.344-17.35-9.105-6.725-30.714 10.624-21.617-11.19-7.023-1.224-34.028 9.956-27.009-20.992-38.777-11.327-56.189 9.664-17.415-22.91-30.38-9.869-56.343 13.039-25.967 1.52-35.684 7.309-48.586 5.792-12.906-12.643-6.868-7.974-16.923 4.662-10.055-7.483-12.874 2.313-41.23 9.795-28.361-10.694-2.973-7.021-21.121 3.672-18.151-16.619-39.237-11.95-49.293 4.664-10.055-12.252-39.696-8.079-53.798 4.168-14.101-13.011-21.856-5.136-41.814 7.874-19.954 9.333-20.109 1.224-26.087-8.111-5.974 11.612-13.52.261-21.889-11.355-8.366-2.153-17.534-18.211-28.137-16.051-10.605-2.813-22.928-16.122-35.191-13.307-12.261-9.468-29.062 1.153-50.679 10.627-21.609-4.404-11.829-3.772-18.727.624-6.896-7.153-10.175-4.932-28.171 2.216-17.995-18.042-26.793-12.744-43.74 5.293-16.953-18.046-26.796-14.374-44.943 3.674-18.145-10.26-23.506-9.335-40.003.924-16.492-13.675-27.25-13.675-27.25l3.705-5.86c3.709-5.856-16.744-28.293-10.79-39.851 5.955-11.556-8.772-11.373-8.973-25.009-.199-13.646 11.911-23.117-.73-29.985-12.646-6.865-14.467-21.702-8.345-31.91 6.123-10.21 8.67-25.508-10.33-48.096-19.005-22.591 9.333-20.113-5.6-33.568-5.577-5.026-7.164-12.517-9.358-15.84-3.763-5.705-11.438-5.676-6.92-12.688 4.515-7.017 11.339-16.226 13.098-25.974 1.755-9.747 9.496-18.761 7.673-33.6-1.821-14.839 7.88-19.958 5.558-38.839-2.317-18.882 9.958-27.008 6.979-51.285-2.98-24.277.527-43.778-5.33-55.457-5.86-11.676 7.078-14.411 5.092-30.592-1.987-16.185 9.199-9.165 11.419-27.163 2.213-17.992 14.229-4.232 17.109-16.831 2.882-12.601-8.443-8.672-1.524-24.432 6.916-15.757-7.651-14.222 2.182-30.286 9.827-16.066-8.609-10.024 2.35-28.94 10.954-18.916-7.515-25.168 3.104-46.777 10.625-21.613 18.474 6.251 23.102-16.094 4.634-22.349-14.631-23.056-6.421-40.314 8.204-17.257 2.509-27.584 15.619-28.968 13.107-1.379 6.416-19.803-.897-31.331-7.316-11.525-.563-28.631-6.259-38.958-5.694-10.331 5.955-11.559.398-32.834-5.563-21.276-.57-28.631 9.427-43.345 9.999-14.718 6.089-22.503 10.259-36.608 4.168-14.101-3.607-17.377 8.469-39.147 12.08-21.764 3.607-42.73 11.183-53.092 7.577-10.364 2.048-19.347 7.512-34.949 5.461-15.602 4.301-25.045 13.337-35.56 9.031-10.516 20.12-40.371 20.878-58.214.759-17.843 5.691-49.782 5.691-49.782s6.222-33.445 3.109-46.778c-3.112-13.336.592-19.196-1.727-38.077-2.318-18.882 12.576-17.719 10.09-37.948-2.482-20.23 9.703-5.125 6.722-29.399-2.983-24.28 16.015-1.688 15.786-27.622-.235-25.934-22.28-37.274-8.712-46.899 13.571-9.632 2.976-35.836 11.682-49.05 8.706-13.217 7.843-32.253 13.469-46.507 5.625-14.257-1.03-20.386 6.684-41.693 7.706-21.305-7.186-22.468 4.396-48.281 11.586-25.813-8.473-20.966-2.054-40.772 6.418-19.798-3.313-26.976 3.269-45.429 6.592-18.451 4.472-23.693 13.636-45.153 9.166-21.46-1.194-21.73 9.433-43.346 10.623-21.61 3.011-23.543 2.315-41.23-.697-17.689-19.997-30.684-10.959-41.199 9.037-10.516 4.332-12.757 10.62-21.613 6.289-8.861-7.61-1.93-4.6-25.473 3.009-23.543 5.625-14.256 4.598-34.642-1.029-20.385-3.612-17.381 4.431-35.986 8.047-18.613-1.523-24.438 13.304-47.856 14.83-23.419 17.58-25.076 16.417-34.52-1.161-9.438-13.176-23.204-.931-43.619 12.243-20.417-8.314-19.617-2.852-35.224 5.46-15.602-7.974-16.92 2.15-42.578 10.127-25.657 12.41-19.069 9.43-43.349-2.983-24.279-9.603-18.116 3.44-44.08 13.038-25.967 4.76-33.291 16.214-48.161 11.449-14.868-4.109-21.427 12.839-39.607 16.946-18.179-3.939-20.076 4.434-35.991 8.369-15.908-8.013-29.21-4.141-33.719 3.87-4.505-5.199-6.284-.535-16.337 4.669-10.054-1.491-12.139 5.76-25.2 7.244-13.057-4.9-15.876-.236-25.933 4.669-10.053 1.592-11.096 2.846-24.89 1.258-13.797-1.688-25.784-5.262-30.875-3.579-5.085-14.894-1.159-1.527-24.432 13.368-23.268-10.228-11.217-4.306-35.068 5.923-23.854 7.178-37.648 15.423-42.612 8.242-4.966 6.883-28.05 6.883-28.05s-3.941-20.079 3.971-27.741c7.908-7.666 7.542-22.654 13.002-38.261 5.46-15.601-.529-16.339 6.057-34.793 6.582-18.456-.565-28.631 5.225-41.538 5.79-12.905 5.922-23.851 3.934-40.034-1.99-16.183 1.887-20.69-.265-38.228-2.155-17.536 11.653-1.226 8.008-30.897-3.643-29.674 14.195-16.527 10.884-43.504-3.312-26.972 12.872-27.309 16.878-42.762 4.005-15.447-10.889-16.616 2.315-41.23 13.203-24.619-5.3-43.163 2.115-54.872 7.41-11.713 14.199-16.526 11.877-35.412-2.319-18.88 11.452-14.865 8.309-40.493-3.15-25.628.59-19.187 7.804-44.539 7.215-25.351 14.458-38.416 12.474-54.601-1.992-16.186 11.62-13.517 9.299-32.4-2.318-18.885 7.016-38.991.992-52.021-6.027-13.026-1.161-9.443-3.147-25.626-1.986-16.192 10.291-24.315 5.394-40.19-4.902-15.879-12.185-15.117-5.932-36.263 6.255-21.152-.858-19.039 5.886-36.147 6.755-17.103 7.88-19.954 4.566-46.93-3.308-26.977 14.164-28.817 13.768-56.1-.402-27.283 1.981-43.927.989-52.019-.995-8.099 5.757-25.202-4.473-36.422-10.231-11.219 4.265-37.335 3.606-42.734-.662-5.392 6.716-29.396-.602-40.924-7.315-11.526 16.948-18.176 12.01-46.349-4.932-28.172 9.3-32.402-.302-50.518-9.599-18.115 11.75-24.462 9.598-41.999-2.155-17.531-13.506-25.901-5.465-44.513 8.041-18.605 8.672-25.502 5.691-49.781-2.98-24.279 15.654-16.682 9.761-40.649-5.895-23.971 8.006-30.903-3.678-41.962-11.687-11.071 9.665-17.417 3.438-44.085-6.224-26.668 7.476-47.239-4.371-59.656-11.855-12.417 10.918-31.206-2.222-42.119-13.141-10.915-8.511-33.264-16.952-41.934-8.441-8.676 17.076-29.123 5.689-49.784-11.387-20.662-24.293-5.641-22.246-24.985 2.052-19.344-13.803-16.305-.101-36.874 13.702-20.572 15.619-28.97-3.184-37.923-18.799-8.948-19.428-2.049-16.582-26.946 2.845-24.889 14.164-28.818-.634-53.214-14.795-24.402 11.882-35.41 7.775-56.835-4.106-21.426-6.722-30.714 2.148-42.578.744-.997 1.972-3.12 2.764-4.53-2.571 4.902 7.585-11.161 6.251-19.704-.622-3.97 2.21-7.416 4.019-10.422 6.122-10.214 4.301-25.049-8.347-31.915-12.642-6.864-.53-16.341-.727-29.985-.203-13.64-14.93-13.455-8.974-25.011 5.957-11.555-14.502-33.995-10.788-39.85l3.702-5.857s-14.599-10.758-13.671-27.252c.925-16.493-13.011-21.855-9.337-40.003 3.671-18.149-19.664-27.989-14.372-44.942 5.295-16.953-14.963-25.748-12.744-43.744 2.217-17.99-5.561-21.273-4.937-28.169.629-6.897-14.397 2.881-3.772-18.73 10.623-21.613 14.46-38.411 1.153-50.675-13.308-12.26-.069-24.581-16.124-35.186-16.056-10.607-6.852-19.773-18.207-28.14-11.352-8.369 8.371-15.914.259-21.892-8.107-5.976-6.648-6.132 1.226-26.085 7.874-19.957-9.305-27.712-5.136-41.817 4.171-14.097-12.745-43.741-8.079-53.798 4.671-10.052-15.623-31.14-11.956-49.295 3.675-18.147-16.811 7.24-7.018-21.116 9.797-28.357-2.348-31.173 2.314-41.233 4.665-10.055-13.77-4.016-7.976-16.92 5.789-12.91-5.726-22.622 7.308-48.59 13.042-25.964-19.535-38.928-9.866-56.339 9.663-17.417-21.289-29.185-11.33-56.193 9.963-27.007-11.847-12.412-1.224-34.028 10.624-21.61-8.774-11.369-6.724-30.713 2.053-19.343-9.466-29.061-6.755-43.01 2.713-13.95-3.608-17.382 3.474-31.787 7.08-14.414-3.28-14.682 6.22-33.45 9.498-18.758-22.01.954-19.666-27.982 2.349-28.942-12.085-38.353-12.318-64.288-.236-25.932-15.223-3.859-10.097-22.161 5.128-18.304-15.228-3.86-11.39-20.66 3.841-16.804-26.379 1.411-12.512-17.807 13.867-19.224 5.295-16.953 9.465-31.057 4.169-14.101-7.187-22.47-4.472-36.417 2.711-13.95-10.627-38.503-9.207-50.946 1.423-12.449-15.626-31.147-5.004-52.76 10.625-21.611-6.589-41.657-4.503-48.71 2.084-7.051-2.98-24.275 3.471-31.787 6.453-7.511-3.642-29.674 8.139-41.847 11.785-12.171.1-23.237 7.811-44.542 7.707-21.305-.142-49.171 4.525-59.223 4.666-10.057-21.715-8.644-10.589-26.212 11.117-17.562 1.517-35.682 7.307-48.583 5.792-12.911-11.227-19.315-2.35-31.182 8.871-11.862-11.723-23.355-3.644-29.67 8.073-6.317 4.301-25.047 14.789-35.715 10.493-10.669-8.306-19.619-.105-36.876 8.209-17.261-4.6-25.477 7.514-34.949 12.11-9.477-.231-25.936 6.051-34.792 6.29-8.862-1.851-27.13 12.05-34.061 13.904-6.927 1.851-32.983 15.418-42.61 13.574-9.626-15.852 3.039-7.185-22.472 8.672-25.503-12.378-28.751-5.795-47.206 6.586-18.456 16.084-37.217 25.449-45.031 9.367-7.821-3.642-29.676 4.602-34.642 8.24-4.966-8.608-10.024 3.338-20.846 11.95-10.827-8.636-22.321-.398-27.287 8.244-4.967-4.404-11.829 4.63-22.345 9.036-10.516-4.768-26.824 7.311-48.59 12.084-21.764 13.077-13.673 17.673-48.313 4.598-34.64-9.134-26.364-2.223-42.117 6.919-15.759-.561-28.634 7.978-43.197 8.535-14.559-3.017-36.568-3.017-36.568s-5.364-7.635 2.976-35.836c8.338-28.203-13.341-24.552-7.583-49.752 5.758-25.199-10.264-23.512-4.968-40.465 5.295-16.948-17.052-18.699-12.714-31.446 4.337-12.756-16.523-62.476-16.523-62.476s-18.87-33.534-18.574-43.131c.301-9.593-.433-39.576 11.68-49.049 12.116-9.471-11.756-35.65-.765-42.271 10.99-6.622-25.787-17.781-13.509-25.905 12.283-8.122-6.815-7.477 9.17-21.456 15.987-13.98-25.652-28.722-19.201-36.235 6.451-7.51-5.564-21.274 4.593-34.64 10.161-13.366-4.438-24.124 3.477-31.79 7.91-7.666-1.363-23.082 6.384-32.096 7.744-9.014-4.14-33.719 2.148-42.579 6.291-8.859-10.096-22.161 1.023-39.728 11.12-17.567.693-42.43 10.856-55.792 10.157-13.369-8.349-31.914-.139-49.173 8.207-17.259-15.095-14.804.558-31.482 15.656-16.675-12.378-28.756-5.298-43.164 7.08-14.407-12.81-8.212-3.642-29.67 9.166-21.46-15.097-14.804 6.35-44.388 21.446-29.583-18.574-43.129-.798-54.565 17.772-11.435 5.062-42.892 1.153-50.673-3.905-7.786-18.634-7.603-12.844-20.507 5.792-12.91-32.705-2.021-14.468-21.704 18.24-19.677-8.673-34.608-.927-43.622 7.741-9.009-4.269-22.776 9.134-33.751 13.405-10.974-1.489-12.139 13.203-24.615 14.695-12.48-13.043-34.149-6.125-49.905 6.912-15.76 12.842-39.609 19.789-43.074 6.951-3.465-5.563-21.272 1.518-35.685 7.082-14.406-12.547-30.102-10.625-38.497 1.919-8.402-28.074-24.369-23.344-69.953 4.729-45.589-9.271-75.534.554-91.595 9.829-16.068-5.101-29.525 5.062-42.892 10.161-13.363 1.986-43.925 3.738-53.673 1.75-9.751-2.389-43.471-8.546-45.554-6.158-2.084-8.54-45.55.988-52.023 9.534-6.468-17.744-36.382-1.096-44.97 16.649-8.586.396-32.83 8.473-39.145 8.07-6.317-13.208-35.499-7.714-38.81 5.49-3.314 2.014-31.637 2.014-31.637s-5.431-32.218.492-56.068c5.922-23.848-27.174 6.963-14.799-24.398 12.374-31.36-10.463-37.155-1.626-61.311 8.834-24.158-10.397-12.566 6.682-41.69 8.624-14.704 6.7-19.92 4.401-23.81-8.885-15.029 2.807-13.501-5.147-19.29-7.956-5.785-4.616-7.478-1.612-13.115 9.698-18.192-11.699-9.501 5.22-38.359 17.081-29.121-2.15-17.534 6.682-41.691 8.836-24.157-14-29.947-1.625-61.308 12.378-31.36-20.72-.551-14.795-24.4 5.92-23.851.492-56.069.492-56.069s-3.478-28.324 2.012-31.637c5.497-3.31-15.786-32.491-7.711-38.808 8.073-6.315-8.18-30.562 8.469-39.148 16.65-8.583-10.628-38.497-1.094-44.969 9.528-6.468 7.144-49.936.986-52.019-6.156-2.086-10.296-35.808-8.544-45.556 1.755-9.751-6.423-40.31 3.736-53.676s-4.765-26.821 5.058-42.888c9.831-16.062-4.17-46.012.555-91.596 4.731-45.584-25.26-61.55-23.341-69.953 1.923-8.397-17.706-24.093-10.625-38.5 7.081-14.408-5.433-32.22 1.518-35.687 6.95-3.462 12.879-27.311 19.79-43.071 6.917-15.752-20.819-37.426-6.126-49.906 14.695-12.478-.204-13.639 13.207-24.611 13.401-10.975 1.385-24.745 9.132-33.757 7.743-9.008-19.167-23.939-.933-43.622 18.241-19.68-20.258-8.793-14.468-21.7 5.792-12.907-8.935-12.721-12.842-20.506-3.908-7.786-16.619-39.237 1.153-50.675 17.775-11.434-22.246-24.984-.795-54.563 21.444-29.585-2.817-22.932 6.349-44.392 9.168-21.457-10.724-15.264-3.642-29.673 7.08-14.407-20.956-26.485-5.298-43.16 15.655-16.681-7.65-14.226.558-31.481 8.21-17.262-10.294-35.808-.135-49.174 10.161-13.366-.268-38.227 10.854-55.794 11.117-17.567-5.268-30.868 1.023-39.727 6.284-8.86-5.596-33.563 2.146-42.581 7.747-9.011-1.522-24.43 6.386-32.096 7.91-7.665-6.689-18.425 3.473-31.787 10.16-13.368-1.855-27.129 4.598-34.64 6.452-7.51-35.187-22.257-19.202-36.235 15.987-13.981-3.113-13.333 9.171-21.46 12.275-8.123-24.497-19.281-13.51-25.901 10.987-6.626-12.881-32.802-.767-42.274 12.117-9.473 11.385-39.453 11.683-49.05.297-9.596-18.575-43.128-18.575-43.128s-20.855-49.719-16.522-62.477c4.337-12.75-18.007-14.499-12.714-31.447 5.295-16.953-10.724-15.265-4.969-40.465 5.762-25.202-15.919-21.551-7.581-49.752 8.336-28.203 2.974-35.838 2.974-35.838s-11.551-22.008-3.013-36.568c8.538-14.563 1.06-27.438 7.973-43.195 6.915-15.755-6.819-7.477-2.219-42.117 4.595-34.64 5.59-26.549 17.671-48.318 12.078-21.765-1.725-38.07 7.311-48.589 9.033-10.516-3.61-17.379 4.631-22.345 8.24-4.968-12.35-16.46-.402-27.288 11.948-10.819-4.902-15.879 3.342-20.845 8.242-4.967-4.77-26.821 4.598-34.64 9.365-7.816 18.869-26.575 25.45-45.032 6.586-18.454-14.468-21.702-5.796-47.207 8.67-25.506-20.756-12.844-7.183-22.468 13.572-9.631 1.515-35.687 15.418-42.616 13.904-6.927 5.76-25.195 12.05-34.056 6.285-8.859-6.063-25.318 6.051-34.794 12.115-9.471-.695-17.687 7.514-34.945 8.203-17.262-10.598-26.21-.102-36.879 10.488-10.666 6.715-29.398 14.788-35.715 8.082-6.313-12.512-17.807-3.641-29.67 8.873-11.867-8.144-18.271-2.354-31.18 5.792-12.902-3.807-31.02 7.31-48.587 11.122-17.563-15.255-16.153-10.591-26.208 4.665-10.052-3.181-37.921 4.527-59.225 7.712-21.307-3.975-32.369 7.81-44.542 11.781-12.173 1.684-34.336 8.137-41.847 6.455-7.51 1.39-24.736 3.474-31.787 2.086-7.052-15.132-27.096-4.506-48.71 10.627-21.612-6.424-40.311-5-52.757 1.422-12.446-11.921-37.001-9.206-50.949 2.707-13.949-8.644-22.318-4.476-36.417 4.17-14.102-4.401-11.83 9.466-31.057 13.868-19.22-16.351-1.003-12.515-17.807 3.84-16.798-16.514-2.356-11.388-20.662 5.129-18.3-9.861 3.773-10.097-22.159-.231-25.937-14.663-35.344-12.318-64.286 2.343-28.935-29.163-9.221-19.665-27.981 9.5-18.764-.861-19.039 6.22-33.448 7.082-14.408.761-17.842 3.474-31.79 2.709-13.946-8.807-23.662-6.753-43.008 2.048-19.345-17.35-9.101-6.723-30.715 10.621-21.611-11.192-7.021-1.224-34.026 9.956-27.01-20.996-38.777-11.329-56.191 9.667-17.414-22.91-30.378-9.866-56.345 13.034-25.962 1.518-35.678 7.308-48.588 5.792-12.904-12.645-6.863-7.976-16.92 4.66-10.056-7.483-12.876 2.313-41.232 9.797-28.356-10.692-2.973-7.019-21.118 3.67-18.151-16.62-39.237-11.954-49.294 4.666-10.055-12.25-39.697-8.079-53.8 4.169-14.098-13.012-21.855-5.136-41.816 7.873-19.952 9.335-20.109 1.224-26.083-8.111-5.978 11.616-13.522.261-21.893-11.353-8.365-2.151-17.534-18.206-28.134-16.052-10.608-2.816-22.932-16.123-35.194-13.308-12.262-9.472-29.06 1.153-50.67 10.626-21.615-4.404-11.838-3.774-18.734.627-6.897-7.153-10.177-4.932-28.17 2.216-17.996-18.042-26.789-12.748-43.742 5.293-16.953-18.042-26.795-14.368-44.941 3.673-18.147-10.264-23.512-9.338-40.004.924-16.494-13.672-27.25-13.672-27.25l3.704-5.855c3.708-5.856-16.747-28.296-10.791-39.852 5.957-11.558-8.774-11.371-8.973-25.013-.199-13.641 11.913-23.115-.73-29.98-12.646-6.87-14.466-21.703-8.341-31.913 6.12-10.212 8.665-25.505-10.337-48.097-19-22.587 9.336-20.112-5.597-33.565-5.58-5.031-7.163-12.516-9.359-15.843-3.756-5.698-11.437-5.67-6.919-12.688 4.516-7.011 11.343-16.224 13.098-25.975 1.755-9.744 9.496-18.76 7.675-33.595-1.823-14.84 7.876-19.958 5.554-38.841-2.315-18.885 9.962-27.008 6.984-51.285-2.983-24.279.523-43.777-5.331-55.457-5.862-11.677 7.078-14.407 5.092-30.594-1.987-16.184 9.199-9.166 11.42-27.159 2.21-17.997 14.23-4.232 17.108-16.83 2.882-12.601-8.439-8.676-1.524-24.437 6.92-15.753-7.646-14.221 2.183-30.282 9.829-16.067-8.606-10.028 2.351-28.944 10.951-18.911-7.516-25.162 3.104-46.773 10.624-21.617 18.472 6.247 23.1-16.098 4.636-22.35-14.629-23.054-6.417-40.313 8.201-17.256 2.507-27.588 15.619-28.967 13.103-1.382 6.416-19.808-.899-31.332-7.317-11.522-.562-28.63-6.258-38.96-5.696-10.33 5.958-11.554.397-32.833-5.567-21.272-.569-28.629 9.428-43.344 9.996-14.712 6.086-22.502 10.257-36.607 4.169-14.099-3.606-17.377 8.47-39.143 12.08-21.769 3.608-42.736 11.184-53.097 7.574-10.362 2.049-19.342 7.51-34.945 5.462-15.603 4.302-25.047 13.336-35.563 9.037-10.516 20.121-40.371 20.885-58.211.755-17.848 5.686-49.788 5.686-49.788s6.22-33.443 3.109-46.778c-3.113-13.335.592-19.188-1.725-38.074-2.129-17.358 10.298-17.778 10.369-33.482h1554.51v18657.1H828.65Z" style="fill:#e8e8e8;fill-rule:nonzero"/><path d="M921.376-32.245c.583 2.176 1.869 4.075 4.401 5.383 10.186 5.251-6.501 23.549-.669 27.507 5.832 3.959 4.371 30.546.604 31.82-3.767 1.279-6.297 21.904-5.228 27.869 1.073 5.963-3.93 24.658 2.286 32.834 6.215 8.175-2.915 16.408 3.095 26.233 6.014 9.826-2.552 28.148.339 56.033 2.893 27.884-15.451 37.652-14.278 42.792 1.176 5.135-10.834 14.735-6.5 23.549 4.332 8.815-3.322 19.708.93 21.83 4.251 2.118 7.875 16.707 12.107 26.347 4.229 9.637-12.738 22.893-3.751 30.531 8.989 7.63-.123 8.343 8.08 15.055 8.2 6.714.847 15.137 5.585 20.646 4.738 5.513-11.724 14.648-.57 26.686 11.159 12.041-12.39 5.381-8.847 13.275 3.541 7.893-5.466 7.783-7.856 12.545-2.39 4.761-10.167 24.002.705 30.998 10.872 6.995-13.608 15.282-.489 33.379 13.119 18.095-1.72 14.026 3.885 27.154 5.607 13.126-6.56 9.336-2.229 18.149 4.33 8.813-12.819 16.203-3.241 26.402 9.576 10.203-4.681 8.701.341 19.258 5.02 10.559-6.299 21.902-.082 30.081 6.216 8.174-.166 23.382 6.638 34.128 6.801 10.746-3.222 18.884.625 24.303 3.846 5.422-3.423 20.531 1.313 26.046 4.74 5.515-.929 14.947 3.907 19.636 4.841 4.686-4.09 11.27 2.124 19.444 6.216 8.176-1.135 16.596 2.814 21.191 3.945 4.592-21.525 13.612-11.748 22.164 9.781 8.55-1.904 8.157 5.611 13.129 7.51 4.968-14.985 11.793-8.265 15.843 6.723 4.051-7.877 20.066-.467 25.859 7.411 5.794 6.962 24.136 7.146 30.006.181 5.868-11.363 26.383-11.363 26.383s-12.757 30.413-10.105 38.215c2.65 7.801-11.017 8.869-7.779 19.236 3.239 10.371-6.56 9.34-3.04 24.753 3.525 15.417-9.738 13.182-4.637 30.436 5.101 17.252 1.819 21.922 1.819 21.922s-7.067 13.462-1.844 22.372c5.222 8.904.649 16.782 4.879 26.42 4.228 9.637-4.174 4.575-1.36 25.766 2.813 21.191 3.42 16.24 10.81 29.553 7.388 13.316-1.056 23.293 4.472 29.722 5.526 6.435-2.21 10.634 2.834 13.669 5.041 3.04-7.554 10.07-.246 16.693 7.309 6.621-2.998 9.713 2.043 12.753 5.042 3.04-2.917 16.408 2.813 21.191 5.727 4.781 11.542 16.257 15.569 27.546 4.027 11.29-8.852 13.275-3.546 28.877 5.302 15.603-12.697 7.858-4.394 13.745 8.299 5.888.926 21.828 9.431 26.066 8.502 4.24 3.523 15.414 7.371 20.834 3.845 5.418-3.709 15.49 3.701 21.284 7.413 5.793-.426 10.82 4.597 21.377 5.019 10.556-6.484 16.032-.063 22.558 6.415 6.527 4.107 17.986 9.045 21.847 4.943 3.863-7.653 10.893-2.228 18.151 5.428 7.261-4.981 11.177-1.438 19.071 3.543 7.894-2.33 18.978 4.473 29.725 6.802 10.742-9.336 9.88-6.48 16.032 2.855 6.149-1.947 23.196 2.768 36.228 4.72 13.033-2.431 19.8 4.778 27.249 7.209 7.443 1.032 21 4.981 25.596 3.946 4.594.85 15.134 2.124 19.445 1.276 4.311-9.257 16.577-2.756 29.796 6.499 13.223-3.932 24.66-3.06 32.272.87 7.613-7.293 22.633-5.633 31.165 1.662 8.533-5.284 13.651-2.735 22.278 2.55 8.626-2.693 7.238 5.791 18.997 8.482 11.758-10.004.619-7.657 10.893 2.349 10.277-10.102 1.445-6.965 12.639 3.136 11.196-6.033-2.306-6.177 13.557-.141 15.865-8.971 21.623-7.533 39.324 1.433 17.703-17.84 5.641-12.031 17.119 5.81 11.477-.528 11.646 3.804 20.461 4.333 8.812.466 10.909 2.126 19.443 1.658 8.532-5.388 14.475-4.132 26.31 1.253 11.833-10.613 5.569-4.114 18.788 6.499 13.223-6.845 4.296-.749 20.815 6.091 16.522-12.841 23.721-6.928 34.372 5.911 10.653-14.015 18.584-6.038 34.466 7.977 15.884.931 21.828 4.472 29.72 3.543 7.896-7.734 4.202-4.878 10.353 2.852 6.151-4.578 7.875 1.415 25.221 5.992 17.349-6.542 1.819-4.295 12.92 2.246 11.103-10.167 24.002-7.31 30.153 2.853 6.151-7.495 24.283-4.942 32.909 2.55 8.626-7.959 13.37-3.142 25.578 4.817 12.207 5.709 12.301.749 15.958-4.962 3.655 7.103 8.271.159 13.39-6.946 5.118-1.317 10.726-11.14 17.212-9.818 6.487-1.72 14.025-9.862 21.527-8.14 7.5-5.791 17.778.706 31.001 6.5 13.219-2.695 7.236-2.308 11.455.382 4.219-4.375 6.225-3.017 17.233 1.356 11.008-11.037 16.39-7.796 26.756 3.238 10.371-11.039 16.392-8.792 27.493 2.247 11.099-6.277 14.379-5.71 24.47.565 10.089-8.366 16.67-8.366 16.67l2.266 3.584c2.27 3.582-10.242 17.308-6.6 24.378 3.643 7.069-5.366 6.957-5.489 15.298-.121 8.348 7.287 14.141-.446 18.343-7.736 4.199-8.85 13.275-5.105 19.519 3.745 6.246 5.304 15.604-6.319 29.422-11.626 13.819 5.709 12.303-3.426 20.533-3.411 3.075-4.382 7.657-5.724 9.69-2.302 3.49-6.997 3.472-4.233 7.762 2.761 4.292 6.936 9.925 8.012 15.888 1.074 5.963 5.809 11.477 4.694 20.554-1.114 9.077 4.82 12.208 3.4 23.758-1.418 11.551 6.091 16.522 4.269 31.373-1.823 14.85.322 26.779-3.261 33.923-3.584 7.143 4.33 8.815 3.115 18.714-1.215 9.9 5.628 5.606 6.985 16.616 1.354 11.006 8.705 2.589 10.466 10.296 1.763 7.708-5.164 5.304-.932 14.945 4.231 9.639-4.68 8.7 1.334 18.527 6.012 9.828-5.265 6.132 1.438 17.703 6.701 11.571-4.597 15.395 1.899 28.614 6.499 13.221 11.301-3.824 14.132 9.845 2.835 13.671-8.95 14.104-3.928 24.66 5.018 10.557 1.535 16.874 9.555 17.721 8.017.843 3.924 12.113-.549 19.165-4.476 7.05-.345 17.514-3.829 23.831-3.483 6.32 3.643 7.071.243 20.086-3.402 13.015-.348 17.514 5.767 26.514 6.117 9.004 3.725 13.766 6.276 22.394 2.549 8.626-2.207 10.63 5.18 23.947 7.39 13.313 2.207 26.139 6.841 32.477 4.635 6.34 1.253 11.835 4.595 21.379 3.341 9.544 2.631 15.321 8.159 21.752 5.524 6.433 12.307 24.696 12.771 35.611.465 10.915 3.482 30.452 3.482 30.452s3.806 20.459 1.902 28.615c-1.905 8.158.361 11.743-1.057 23.293-1.418 11.55 7.693 10.838 6.172 23.213-1.518 12.375 5.936 3.135 4.112 17.984-1.825 14.852 9.797 1.032 9.656 16.897-.143 15.864-13.629 22.801-5.328 28.688 8.301 5.893 1.82 21.922 7.146 30.005 5.325 8.085 4.797 19.73 8.239 28.449 3.441 8.721-.631 12.471 4.089 25.504 4.713 13.033-4.397 13.745 2.688 29.534 7.088 15.791-5.183 12.826-1.256 24.942 3.926 12.11-2.027 16.501 2 27.789 4.032 11.287 2.735 14.494 8.341 27.621 5.607 13.127-.73 13.292 5.77 26.516 6.498 13.218 1.842 14.401 1.416 25.221-.426 10.82-12.232 18.77-6.703 25.201 5.527 6.433 2.649 7.804 6.496 13.221 3.847 5.421-4.655 1.181-2.814 15.583 1.841 14.401 3.441 8.721 2.813 21.191-.63 12.47-2.21 10.632 2.71 22.013 4.923 11.386-.931 14.949 8.138 29.274 9.072 14.326 10.755 15.34 10.043 21.117-.71 5.773-8.06 14.194-.57 26.682 7.49 12.489-5.085 12-1.744 21.547 3.34 9.544-4.878 10.351 1.315 26.046 6.195 15.695 7.592 11.665 5.769 26.517-1.825 14.852-5.874 11.082 2.104 26.965 7.975 15.884 2.912 20.364 9.919 29.46 7.003 9.095-2.514 13.107 7.853 24.229 10.366 11.12-2.409 12.281 2.713 22.016 5.119 9.731-4.902 17.868-2.534 20.626 2.367 2.756-3.18 3.844-.327 9.994 2.856 6.15-.912 7.425 3.524 15.415 4.431 7.987-2.998 9.711-.145 15.864 2.856 6.15.974 6.788 1.741 15.226.77 8.439-1.032 15.772-3.219 18.886-2.189 3.111-9.111.709-.934 14.946 8.178 14.233-6.256 6.861-2.634 21.451 3.624 14.592 4.391 23.03 9.435 26.067 5.042 3.037 4.21 17.158 4.21 17.158s-2.41 12.283 2.429 16.97c4.838 4.689 4.614 13.858 7.954 23.405 3.34 9.543-.324 9.995 3.705 21.283 4.027 11.29-.346 17.514 3.196 25.41 3.542 7.894 3.623 14.589 2.406 24.489-1.217 9.899 1.155 12.656-.162 23.385-1.318 10.727 7.129.75 4.899 18.9-2.228 18.152 8.684 10.11 6.658 26.612-2.026 16.499 7.874 16.706 10.325 26.158 2.449 9.45-6.661 10.164 1.416 25.221 8.076 15.06-3.242 26.404 1.293 33.566 4.533 7.165 8.686 10.109 7.266 21.662-1.419 11.549 7.005 9.094 5.083 24.77-1.927 15.677.361 11.738 4.773 27.246 4.414 15.508 8.845 23.5 7.631 33.4-1.218 9.901 7.108 8.269 5.688 19.82-1.418 11.552 4.292 23.851.607 31.822-3.687 7.968-.71 5.776-1.925 15.676-1.215 9.904 6.295 14.874 3.3 24.585-2.999 9.713-7.454 9.247-3.629 22.182 3.827 12.939-.525 11.647 3.6 22.112 4.133 10.462 4.821 12.206 2.794 28.707-2.024 16.503 8.664 17.628 8.422 34.318-.246 16.689 1.211 26.87.605 31.821-.609 4.954 3.521 15.416-2.737 22.28-6.258 6.862 2.61 22.838 2.207 26.141-.406 3.298 4.108 17.982-.369 25.033-4.474 7.051 10.367 11.119 7.347 28.353-3.017 17.233 5.689 19.821-.185 30.903-5.872 11.081 7.188 14.963 5.871 25.691-1.318 10.724-8.262 15.844-3.343 27.229 4.919 11.381 5.305 15.601 3.481 30.452-1.822 14.852 9.577 10.204 5.972 24.866-3.607 14.663 4.897 18.904-2.25 25.669-7.149 6.772 5.912 10.654 2.103 26.967-3.807 16.313 4.573 28.897-2.674 36.493-7.252 7.595 6.679 19.089-1.359 25.764-8.039 6.678-5.206 20.348-10.37 25.652-5.164 5.307 10.446 17.815 3.48 30.454-6.965 12.639-14.86 3.45-13.608 15.283 1.255 11.833-8.444 9.974-.062 22.557 8.382 12.584 9.554 17.721-1.948 23.198-11.5 5.474-11.884 1.253-10.143 16.483 1.74 15.225 8.664 17.629-.388 32.552-9.05 14.927 7.269 21.661 4.756 34.767-2.512 13.106-4.112 18.788 1.314 26.046.455.609 1.206 1.908 1.691 2.771-1.573-2.999 4.64 6.827 3.823 12.053-.38 2.429 1.352 4.536 2.459 6.375 3.745 6.248 2.631 15.323-5.106 19.523-7.733 4.199-.324 9.996-.445 18.343-.124 8.343-9.132 8.23-5.489 15.299 3.644 7.068-8.871 20.795-6.6 24.377l2.265 3.583s-8.93 6.581-8.363 16.67c.566 10.089-7.959 13.369-5.711 24.471 2.245 11.102-12.029 17.121-8.791 27.491 3.238 10.371-9.154 15.751-7.796 26.759 1.356 11.005-3.402 13.013-3.021 17.232.385 4.219-8.806-1.763-2.307 11.457 6.498 13.221 8.846 23.497.705 30.999-8.14 7.499-.042 15.037-9.863 21.524-9.821 6.488-4.192 12.095-11.138 17.214-6.943 5.119 5.122 9.734.159 13.391-4.959 3.656-4.067 3.751.75 15.957 4.817 12.208-5.692 16.952-3.142 25.58 2.552 8.623-7.796 26.757-4.942 32.909 2.857 6.149-9.556 19.049-7.313 30.154 2.247 11.101-10.284-4.429-4.293 12.917 5.993 17.347-1.437 19.069 1.415 25.223 2.854 6.151-8.423 2.457-4.879 10.35 3.541 7.898-3.503 13.838 4.47 29.724 7.979 15.882-11.95 23.813-6.035 34.463 5.911 10.654-13.022 17.853-6.931 34.375 6.095 16.52-7.247 7.592-.749 20.815 6.5 13.219-5.366 6.954-4.112 18.787 1.255 11.833-5.791 17.778-4.132 26.31 1.659 8.534-2.208 10.633 2.124 19.445 4.331 8.817-2.006 8.981 3.805 20.462 5.811 11.474-13.463-.584-12.03 17.117 1.437 17.704-7.392 23.461-7.535 39.326-.144 15.863-9.312 2.36-6.176 13.556 3.136 11.197-9.316 2.361-6.968 12.638 2.35 10.279-16.136-.863-7.653 10.893 8.482 11.76 3.238 10.371 5.789 18.998 2.551 8.626-4.396 13.745-2.735 22.277 1.658 8.533-6.501 23.553-5.632 31.164.87 7.616-9.559 19.053-3.061 32.274 6.499 13.22-4.031 25.483-2.755 29.797 1.275 4.313-1.823 14.85 2.124 19.445 3.947 4.594-2.228 18.152 4.978 25.598 7.209 7.445.061 14.214 4.778 27.247 4.715 13.033-.087 30.079 2.768 36.228 2.854 6.152-13.283 5.287-6.477 16.034 6.8 10.743.928 21.827 4.47 29.719 3.543 7.898-6.868 11.815-1.438 19.075 5.427 7.256-7.171 14.286-2.229 18.15 4.939 3.864 2.631 15.321 9.047 21.847 6.419 6.526-5.081 12.001-.064 22.557 5.021 10.559-2.814 15.585 4.596 21.379 7.408 5.797-.141 15.866 3.702 21.283 3.847 5.421-1.133 16.596 7.371 20.835 8.505 4.238 1.132 20.177 9.431 26.066 8.304 5.888-9.697-1.859-4.395 13.746 5.305 15.601-7.572 17.588-3.545 28.877 4.029 11.29 9.839 22.766 15.568 27.546 5.729 4.784-2.229 18.153 2.814 21.191 5.041 3.038-5.265 6.132 2.043 12.752 7.31 6.623-5.284 13.654-.244 16.692 5.043 3.038-2.694 7.236 2.832 13.669 5.528 6.432-2.917 16.408 4.473 29.723 7.391 13.313 7.999 8.364 10.811 29.554 2.812 21.19-5.588 16.127-1.36 25.764 4.232 9.639-.344 17.516 4.88 26.424 5.221 8.905-1.846 22.369-1.846 22.369s-3.281 4.67 1.821 21.922c5.1 17.252-8.161 15.018-4.639 30.434 3.523 15.414-6.278 14.382-3.039 24.753 3.239 10.367-10.431 11.438-7.777 19.236 2.653 7.802-10.108 38.217-10.108 38.217s-11.543 20.514-11.361 26.384c.183 5.868-.266 24.209 7.144 30.004 7.412 5.794-7.191 21.808-.468 25.858 6.723 4.051-15.774 10.877-8.263 15.846 7.513 4.969-4.169 4.574 5.609 13.126 9.779 8.551-15.692 17.569-11.745 22.165 3.946 4.594-3.404 13.013 2.809 21.19 6.216 8.176-2.715 14.757 2.127 19.446 4.839 4.69-.834 14.12 3.905 19.634 4.737 5.514-2.532 20.626 1.314 26.046 3.848 5.419-6.175 13.556.626 24.302 6.802 10.746.424 25.955 6.641 34.129 6.213 8.178-5.108 19.522-.085 30.08 5.02 10.558-9.234 9.056.341 19.258 9.577 10.2-7.572 17.591-3.241 26.404 4.331 8.813-7.836 5.024-2.228 18.15 5.607 13.127-9.235 9.056 3.884 27.153 13.12 18.096-11.361 26.382-.488 33.378 10.872 6.995 3.097 26.237.706 30.997-2.389 4.763-11.399 4.651-7.857 12.545 3.543 7.897-20.006 1.236-8.85 13.276 11.157 12.037-5.306 21.171-.567 26.685 4.735 5.511-2.612 13.932 5.587 20.646 8.2 6.713-.911 7.425 8.076 15.057 8.99 7.635-7.978 20.89-3.746 30.528 4.228 9.64 7.856 24.229 12.105 26.349 4.252 2.12-3.403 13.013.928 21.829 4.332 8.812-7.675 18.414-6.499 23.549 1.174 5.139-17.173 14.907-14.28 42.791 2.893 27.888-5.671 46.206.339 56.031 6.013 9.829-3.12 18.06 3.097 26.237 6.215 8.175 1.215 26.87 2.286 32.833 1.071 5.965-1.461 26.592-5.227 27.866-3.767 1.275-5.225 27.863.604 31.823 5.832 3.957-10.854 22.256-.671 27.509 10.185 5.252.243 20.083 5.183 23.946 4.937 3.864-8.079 21.715-4.719 23.74 3.359 2.028 1.233 19.353 1.233 19.353s-3.323 19.708.301 34.298c3.622 14.588-16.623-4.259-9.053 14.924 7.569 19.184-6.401 22.729-.995 37.505 5.404 14.778-6.36 7.687 4.088 25.503 5.275 8.995 4.098 12.185 2.692 14.565-5.435 9.194 1.717 8.259-3.149 11.8-4.867 3.539-2.823 4.574-.986 8.023 5.932 11.128-7.156 5.812 3.194 23.464 10.448 17.814-1.315 10.726 4.087 25.503 5.405 14.777-8.564 18.319-.994 37.503 7.572 19.184-12.675.337-9.05 14.926 3.621 14.59.301 34.298.301 34.298s-2.128 17.327 1.23 19.353c3.363 2.025-9.657 19.876-4.717 23.74 4.939 3.863-5.004 18.695 5.181 23.947 10.185 5.251-6.501 23.55-.669 27.508 5.828 3.957 4.37 30.547.603 31.821-3.766 1.277-6.298 21.905-5.227 27.868 1.074 5.964-3.929 24.658 2.286 32.834 6.214 8.176-2.915 16.407 3.094 26.236 6.014 9.825-2.551 28.146.339 56.03 2.894 27.885-15.451 37.651-14.278 42.792 1.176 5.136-10.831 14.737-6.499 23.551 4.331 8.813-3.323 19.709.928 21.83 4.252 2.117 7.879 16.706 12.107 26.347 4.231 9.636-12.736 22.894-3.748 30.529 8.989 7.632-.125 8.343 8.079 15.055 8.198 6.713.847 15.136 5.586 20.649 4.736 5.511-11.725 14.644-.571 26.684 11.159 12.039-12.392 5.379-8.85 13.275 3.543 7.895-5.465 7.781-7.855 12.543-2.391 4.763-10.167 24.002.705 30.999 10.873 6.994-13.608 15.283-.487 33.377 13.118 18.098-1.723 14.028 3.884 27.156 5.608 13.125-6.56 9.336-2.228 18.151 4.331 8.813-12.819 16.201-3.241 26.401 9.577 10.205-4.68 8.703.342 19.258 5.022 10.559-6.297 21.904-.083 30.08 6.216 8.177-.164 23.384 6.64 34.13 6.8 10.746-3.223 18.883.626 24.302 3.844 5.42-3.424 20.531 1.312 26.048 4.739 5.512-.931 14.944 3.907 19.634 4.838 4.688-4.092 11.27 2.124 19.444 6.215 8.177-1.134 16.595 2.813 21.19 3.946 4.594-21.525 13.614-11.746 22.165 9.779 8.553-1.905 8.156 5.61 13.127 7.509 4.97-14.986 11.795-8.265 15.844 6.721 4.054-7.879 20.066-.469 25.861 7.412 5.794 6.964 24.134 7.147 30.004.181 5.87-11.363 26.382-11.363 26.382s-12.757 30.414-10.106 38.218c2.653 7.8-11.015 8.87-7.778 19.237 3.239 10.371-6.56 9.338-3.04 24.753 3.525 15.416-9.738 13.183-4.637 30.434 5.099 17.252 1.819 21.923 1.819 21.923s-7.065 13.462-1.843 22.369c5.223 8.908.649 16.784 4.878 26.423 4.23 9.638-4.172 4.574-1.358 25.764 2.811 21.189 3.419 16.24 10.81 29.557 7.388 13.313-1.055 23.287 4.472 29.722 5.526 6.433-2.208 10.631 2.832 13.669 5.041 3.039-7.554 10.068-.245 16.693 7.309 6.618-2.999 9.713 2.044 12.751 5.042 3.038-2.918 16.406 2.813 21.189 5.729 4.781 11.542 16.257 15.568 27.548 4.029 11.288-8.85 13.275-3.546 28.876 5.304 15.603-12.696 7.857-4.394 13.745 8.303 5.891.927 21.83 9.432 26.068 8.506 4.238 3.524 15.413 7.371 20.833 3.845 5.419-3.708 15.488 3.702 21.284 7.411 5.794-.425 10.82 4.596 21.376 5.018 10.56-6.483 16.034-.062 22.56 6.416 6.524 4.107 17.983 9.046 21.847 4.944 3.862-7.654 10.893-2.227 18.15 5.427 7.259-4.982 11.177-1.44 19.073 3.543 7.893-2.329 18.976 4.471 29.722 6.804 10.743-9.332 9.881-6.479 16.032 2.854 6.149-1.945 23.197 2.77 36.228 4.718 13.034-2.432 19.801 4.777 27.248 7.207 7.446 1.031 21.003 4.978 25.598 3.948 4.594.85 15.132 2.125 19.445 1.276 4.314-9.257 16.574-2.756 29.796 6.5 13.22-3.93 24.659-3.059 32.272.87 7.614-7.292 22.635-5.632 31.167 1.657 8.533-5.287 13.652-2.738 22.277 2.551 8.626-2.692 7.236 5.791 18.997 8.483 11.758-10.002.614-7.656 10.893 2.349 10.276-10.102 1.442-6.966 12.64 3.138 11.194-6.032-2.308-6.177 13.555-.141 15.866-8.969 21.62-7.535 39.324 1.434 17.701-17.839 5.641-12.029 17.117 5.812 11.478-.527 11.647 3.805 20.461 4.332 8.813.465 10.914 2.125 19.446 1.657 8.531-5.387 14.475-4.131 26.308 1.253 11.834-10.613 5.568-4.113 18.79 6.497 13.22-6.846 4.295-.748 20.814 6.09 16.523-12.844 23.72-6.93 34.373 5.913 10.652-14.015 18.583-6.035 34.467 7.973 15.881.928 21.825 4.47 29.722 3.543 7.893-7.735 4.198-4.879 10.35 2.851 6.151-4.578 7.877 1.415 25.223 5.993 17.345-6.541 1.818-4.294 12.918 2.245 11.103-10.166 24.002-7.312 30.154 2.854 6.151-7.494 24.283-4.942 32.91 2.55 8.624-7.96 13.369-3.142 25.579 4.816 12.205 5.71 12.301.749 15.956-4.962 3.657 7.105 8.272.159 13.392-6.944 5.117-1.316 10.726-11.136 17.21-9.82 6.489-1.723 14.028-9.863 21.529-8.141 7.501-5.794 17.777.705 30.996 6.5 13.222-2.694 7.241-2.308 11.459.383 4.22-4.376 6.226-3.018 17.232 1.356 11.009-11.036 16.388-7.798 26.758 3.238 10.371-11.036 16.391-8.789 27.491 2.247 11.101-6.278 14.383-5.712 24.471.565 10.09-8.363 16.67-8.363 16.67l2.266 3.581c2.268 3.582-10.245 17.309-6.602 24.378 3.644 7.07-5.367 6.956-5.488 15.301-.122 8.344 7.287 14.14-.447 18.339-7.736 4.203-8.849 13.277-5.103 19.522 3.744 6.247 5.301 15.602-6.323 29.422-11.623 13.816 5.711 12.303-3.423 20.532-3.414 3.077-4.383 7.656-5.726 9.691-2.297 3.486-6.996 3.469-4.232 7.762 2.763 4.289 6.938 9.924 8.012 15.889 1.074 5.961 5.809 11.476 4.695 20.551-1.115 9.078 4.818 12.208 3.398 23.759-1.416 11.552 6.094 16.522 4.272 31.372-1.825 14.852.32 26.779-3.262 33.924-3.585 7.143 4.33 8.813 3.115 18.715-1.215 9.9 5.628 5.607 6.986 16.614 1.353 11.008 8.705 2.588 10.466 10.295 1.762 7.708-5.163 5.307-.933 14.948 4.233 9.637-4.677 8.699 1.336 18.524 6.012 9.828-5.265 6.134 1.438 17.705 6.699 11.569-4.598 15.393 1.898 28.613 6.5 13.223 11.3-3.822 14.131 9.847 2.836 13.672-8.949 14.102-3.925 24.66 5.017 10.556 1.533 16.876 9.554 17.719 8.016.846 3.925 12.117-.55 19.167-4.475 7.048-.343 17.513-3.828 23.832-3.484 6.319 3.645 7.068.243 20.085-3.405 13.012-.348 17.512 5.768 26.514 6.114 9 3.722 13.765 6.274 22.393 2.55 8.625-2.206 10.63 5.181 23.944 7.389 13.317 2.207 26.142 6.842 32.481 4.633 6.338 1.253 11.832 4.594 21.376 3.34 9.545 2.631 15.321 8.157 21.754 5.528 6.433 12.309 24.696 12.776 35.609.462 10.918 3.478 30.456 3.478 30.456s3.805 20.458 1.902 28.615c-1.904 8.157.362 11.737-1.055 23.291-1.302 10.618 6.299 10.874 6.342 20.481h950.919V-32.23H921.376Z" style="fill:#fff;fill-rule:nonzero"/></svg>