<svg viewBox="0 0 11339 1418" xmlns="http://www.w3.org/2000/svg" xml:space="preserve"
    style="fill-rule:evenodd;clip-rule:evenodd;stroke-linejoin:round;stroke-miterlimit:2"><path d="M-6845.96 748.879c3.534.877 6.619 2.81 8.743 6.619 8.528 15.321 38.246-9.779 44.674-1.007 6.431 8.772 49.611 6.575 51.679.909 2.078-5.666 35.575-9.471 45.263-7.863 9.684 1.614 40.048-5.911 53.327 3.438 13.276 9.349 26.648-4.384 42.605 4.656 15.958 9.045 45.715-3.839 91.003.51 45.287 4.352 61.152-23.241 69.499-21.476 8.341 1.769 23.931-16.297 38.247-9.777 14.317 6.516 32.008-4.998 35.454 1.399 3.44 6.394 27.134 11.844 42.791 18.21 15.651 6.36 37.181-19.16 49.586-5.642 12.391 13.521 13.55-.185 24.45 12.153 10.904 12.334 24.585 1.275 33.532 8.401 8.954 7.127 23.791-17.634 43.341-.857 19.556 16.784 8.739-18.636 21.56-13.307 12.82 5.326 12.64-8.223 20.374-11.817 7.733-3.595 38.982-15.292 50.346 1.061 11.359 16.352 24.818-20.469 54.211-.736 29.388 19.733 22.779-2.588 44.101 5.844 21.318 8.434 15.162-9.867 29.476-3.353 14.314 6.513 26.316-19.281 42.879-4.874 16.571 14.403 14.132-7.041 31.278.511 17.148 7.551 35.572-9.473 48.854-.122 13.276 9.349 37.975-.251 55.428 9.985 17.452 10.228 30.671-4.847 39.471.94 8.806 5.783 33.345-5.15 42.302 1.974 8.957 7.13 24.276-1.397 31.891 5.877 7.611 7.281 18.304-6.153 31.58 3.195 13.279 9.349 26.953-1.707 34.416 4.232 7.458 5.934 22.107-32.376 35.997-17.67 13.886 14.711 13.248-2.864 21.322 8.439 8.069 11.296 19.154-22.539 25.731-12.431 6.58 10.112 32.59-11.849 41.998-.703 9.41 11.147 39.2 10.472 48.734 10.748 9.53.273 42.848-17.091 42.848-17.091s49.394-19.188 62.066-15.2c12.67 3.987 14.404-16.569 31.242-11.7 16.843 4.872 15.169-9.867 40.202-4.572 25.038 5.302 21.408-14.647 49.431-6.975 28.018 7.673 35.603 2.736 35.603 2.736s21.865-10.629 36.336-2.774c14.461 7.855 27.254.976 42.909 7.338 15.651 6.361 7.43-6.277 41.846-2.045 34.416 4.231 26.377 5.145 47.998 16.259 21.626 11.113 37.829-1.587 48.272 6.727 10.451 8.313 17.27-3.323 22.2 4.264 4.937 7.582 16.354-11.363 27.111-.371 10.753 10.993 15.775-4.509 20.712 3.073 4.937 7.584 26.648-4.388 34.416 4.231 7.765 8.615 26.405 17.361 44.738 23.418 18.337 6.058 21.561-13.314 46.899-5.333 25.342 7.974 12.763-19.099 22.325-6.609 9.563 12.483 35.451 1.393 42.333 14.184 6.887 12.789 25.034 5.3 33.838 11.087 8.799 5.784 25.157-5.577 34.566 5.568 9.41 11.149 17.574-.641 34.719 6.914 17.145 7.549 26.038-9.753 36.638-.095 10.6 9.65 29.211 6.177 35.482 13.606 6.274 7.435 17.691-11.512 29.48-3.351 11.791 8.163 18.152-7.493 30.973-2.163 12.82 5.329 30.822-3.505 48.276 6.727 17.446 10.232 16.046-14.043 26.038-9.747 9.987 4.295 37.673-2.927 58.838 4.164 21.168 7.1 32.159-3.657 44.256 7.186 12.089 10.844 34.105 1.553 41.571 7.492 7.461 5.936 24.579 1.279 31.58 3.195 7.002 1.919 26.923-13.923 48.392-4.144 21.476 9.774 40.051-5.915 52.413-4.604 12.365 1.31 36.759-10.969 50.617-8.473 13.858 2.5 22.17-7.948 36.182-4.113 14.01 3.835 11.755-4.051 30.852 8.71 19.097 12.758 1.006-15.048 17.692-11.517 16.692 3.533 2.347-15.195 20.527-10.477 18.183 4.718-3.745-9.074 22.018-9.29 25.767-.212 35.118-13.493 63.867-11.33 28.752 2.154 9.162-26.835 27.803-18.097 18.64 8.739 18.914-.794 33.232 5.722 14.31 6.517 17.717.701 31.576 3.197 13.858 2.495 23.51-8.103 42.731-6.215 19.218 1.885 9.045-15.963 30.514-6.188 21.476 9.776 6.977-10.295 33.807-1.126 26.832 9.161 38.524-19.314 55.823-10.421 17.302 8.891 30.182-21.081 55.977-9.081 25.798 11.997 35.451 1.399 48.269 6.725 12.823 5.329 6.824-11.633 16.814-7.337 9.989 4.29 12.79-6.885 40.961 2.129 28.177 9.012 2.954-9.84 20.984-6.461 18.033 3.379 38.982-15.291 48.972-10.995 9.99 4.291 39.438-11.273 53.448-7.433 14.01 3.835 21.714-11.972 41.542-4.726 19.825 7.245 19.978 8.587 25.918 1.126 5.935-7.463 13.432 10.685 21.747.24 8.311-10.448 17.419-1.981 27.954-16.756 10.536-14.768 22.778-2.588 34.962-14.834 12.181-12.244 28.873-8.711 50.349 1.061 21.469 9.778 11.752-4.052 18.605-3.47 6.851.574 10.109-6.582 27.988-4.538 17.878 2.038 26.619-16.601 43.455-11.726 16.843 4.87 26.622-16.605 44.651-13.225 18.027 3.38 23.353-9.441 39.743-8.589 16.385.85 27.073-12.583 27.073-12.583l5.821 3.408c5.818 3.414 28.11-15.405 39.592-9.927 11.481 5.479 11.299-8.071 24.846-8.256 13.557-.183 22.967 10.959 29.79-.672 6.821-11.636 21.561-13.312 31.703-7.678 10.144 5.633 25.342 7.977 47.784-9.505 22.443-17.486 19.981 8.588 33.349-5.152 4.994-5.132 12.435-6.592 15.737-8.611 5.668-3.462 5.638-10.524 12.606-6.367 6.97 4.154 16.12 10.433 25.804 12.051 9.684 1.616 18.64 8.738 33.382 7.061 14.742-1.676 19.828 7.25 38.586 5.113 18.759-2.131 26.833 9.163 50.952 6.422 24.119-2.742 43.493.485 55.096-4.905 11.6-5.391 14.317 6.513 30.393 4.686 16.08-1.828 9.106 8.464 26.987 10.506 17.874 2.037 4.204 13.093 16.721 15.743 12.519 2.651 8.615-7.769 24.273-1.403 15.654 6.364 14.129-7.039 30.089 2.008 15.962 9.041 9.959-7.921 28.752 2.162 18.793 10.079 25.004-6.915 46.473 2.856 21.472 9.776-6.211 16.998 15.989 21.257 22.203 4.263 22.906-13.462 40.051-5.908 17.146 7.548 27.405 2.308 28.78 14.371 1.37 12.06 19.674 5.903 31.127-.826 11.45-6.731 28.445-.518 38.705-5.759 10.264-5.239 11.484 5.48 32.621.366 21.137-5.118 28.445-.524 43.062 8.674 14.623 9.201 22.357 5.603 36.37 9.439 14.01 3.836 17.265-3.318 38.893 7.793 21.622 11.115 42.452 3.319 52.746 10.289 10.298 6.973 19.222 1.885 34.722 6.912 15.501 5.025 24.883 3.958 35.329 12.272 10.447 8.309 40.108 18.512 57.835 19.21 17.728.698 49.458 5.236 49.458 5.236s33.228 5.725 46.474 2.861c13.25-2.864 19.071.544 37.83-1.589 18.759-2.133 17.603 11.571 37.7 9.284 20.1-2.284 5.093 8.927 29.208 6.184 24.123-2.745 1.678 14.735 27.443 14.525 25.765-.216 37.032-20.5 46.593-8.016 9.57 12.487 35.604 2.739 48.732 10.749 13.131 8.01 32.043 7.216 46.205 12.393 14.163 5.176 20.253-.948 41.421 6.15 21.167 7.09 22.322-6.613 47.967 4.044 25.646 10.66 20.83-7.796 40.507-1.89 19.669 5.905 26.8-3.048 45.134 3.008 18.33 6.065 23.538 4.115 44.859 12.547 21.32 8.434 21.588-1.099 43.064 8.679 21.469 9.774 23.39 2.771 40.962 2.13 17.573-.641 30.485-18.399 40.931-10.083 10.447 8.314 12.674 3.985 21.472 9.771 8.803 5.787 1.917-7.002 25.307-4.233 23.39 2.77 14.164 5.176 34.417 4.231 20.253-.946 17.268-3.323 35.752 4.077 18.492 7.404 24.279-1.401 47.545 12.241 23.267 13.645 24.913 16.176 34.295 15.105 9.377-1.067 23.053-12.123 43.335-.856 20.284 11.265 19.49-7.649 34.995-2.624 15.501 5.023 16.811-7.337 42.301 1.978 25.491 9.318 18.945 11.419 43.068 8.677 24.12-2.745 17.998-8.836 43.793 3.165 25.798 11.996 33.074 4.379 47.847 14.919 14.772 10.534 21.288-3.782 39.35 11.812 18.061 15.593 19.946-3.624 35.757 4.081 15.805 7.699 29.02-7.373 33.499-3.811 4.476 3.561 6.243-4.783 16.232-.492 9.988 4.296 12.059-1.372 25.036 5.3 12.971 6.665 15.772-4.509 25.763-.218 9.989 4.297 11.025 1.465 24.729 2.619 13.707 1.158 25.617-1.553 30.674-4.842 5.052-3.292 1.151-13.704 24.273-1.404 23.117 12.3 11.144-9.411 34.84-3.963 23.699 5.451 37.403 6.605 42.335 14.192 4.934 7.583 27.867 6.333 27.867 6.333s19.949-3.626 27.561 3.653c7.616 7.276 22.507 6.94 38.012 11.963 15.499 5.024 16.233-.487 34.567 5.573 18.335 6.057 28.445-.52 41.268 4.808 12.821 5.328 23.695 5.449 39.773 3.619 16.078-1.831 20.555 1.736 37.98-.243 17.422-1.983 1.218 10.722 30.696 7.367 29.481-3.351 16.419 13.062 43.221 10.015 26.796-3.047 27.132 11.844 42.484 15.53 15.347 3.685 16.507-10.019 40.961 2.13 24.459 12.148 42.883-4.876 54.516 1.945 11.636 6.819 16.418 13.065 35.181 10.929 18.757-2.134 14.769 10.537 40.23 7.645 25.461-2.898 19.062.543 44.249 7.18 25.187 6.639 38.166 13.304 54.246 11.478 16.081-1.833 13.429 10.691 32.19 8.556 18.762-2.133 38.737 6.456 51.682.912 12.941-5.545 9.382-1.067 25.46-2.895 16.086-1.828 24.156 9.469 39.928 4.963 15.776-4.51 15.019-11.211 36.027-5.458 21.015 5.756 18.916-.79 35.912 5.416 16.992 6.215 19.825 7.25 46.625 4.201 26.801-3.044 28.629 13.032 55.735 12.668 27.105-.37 43.641 1.822 51.68.91 8.047-.915 25.038 5.297 36.186-4.116 11.145-9.413 37.092 3.925 42.456 3.318 5.357-.609 29.204 6.18 40.657-.554 11.452-6.73 18.058 15.594 46.048 11.051 27.988-4.538 32.191 8.556 50.19-.278 17.997-8.832 24.302 10.811 41.725 8.831 17.417-1.983 25.733-12.427 44.223-5.028 18.484 7.398 25.337 7.979 49.458 5.236 24.121-2.742 16.573 14.403 40.385 8.981 23.815-5.424 30.702 7.366 41.689-3.384 10.999-10.753 17.304 8.893 43.798 3.163 26.494-5.726 46.932 6.879 59.268-4.021 12.336-10.909 31.003 10.045 41.844-2.045 10.845-12.091 33.048-7.831 41.662-15.597 8.62-7.767 28.933 15.711 49.461 5.234 20.527-10.477 5.604-22.352 24.822-20.469 19.218 1.889 16.198-12.7 36.634-.093 20.438 12.607 28.782 14.371 37.676-2.929 8.89-17.297 2.036-17.876 26.771-15.257 24.727 2.617 28.631 13.032 52.868-.584 24.243-13.612 35.179 10.933 56.466 7.154 21.286-3.778 30.514-6.184 42.3 1.976.991.685 3.1 1.815 4.501 2.544-4.87-2.366 11.088 6.979 19.576 5.751 3.944-.572 7.368 2.034 10.354 3.698 10.147 5.633 24.886 3.957 31.708-7.68 6.818-11.632 16.234-.487 29.79-.669 13.55-.186 13.367-13.737 24.848-8.257 11.479 5.481 33.774-13.343 39.59-9.926l5.82 3.407s10.688-13.433 27.075-12.58c16.385.852 21.712-11.971 39.742-8.59 18.031 3.377 27.807-18.094 44.65-13.224 16.842 4.872 25.58-13.768 43.459-11.726 17.873 2.04 21.134-5.117 27.986-4.543 6.852.579-2.863-13.246 18.608-3.47 21.472 9.774 38.161 13.305 50.345 1.061 12.181-12.245 24.422-.064 34.958-14.836 10.537-14.773 19.644-6.305 27.957-16.753 8.314-10.444 15.81 7.703 21.749.239 5.937-7.459 6.092-6.117 25.915 1.128 19.828 7.245 27.533-8.561 41.546-4.726 14.005 3.838 43.456-11.726 53.448-7.433 9.986 4.297 30.937-14.375 48.974-11 18.029 3.38-7.193-15.468 20.978-6.458 28.173 9.014 30.971-2.161 40.965 2.129 9.99 4.293 3.991-12.67 16.81-7.339 12.827 5.326 22.475-5.268 48.275 6.724 25.794 12.001 38.674-17.974 55.972-9.078 17.303 8.892 28.995-19.587 55.828-10.424 26.831 9.167 12.331-10.901 33.806-1.127 21.469 9.776 11.295-8.072 30.513-6.186 19.218 1.888 28.873-8.71 42.731-6.215 13.859 2.496 17.269-3.32 31.58 3.196 14.32 6.514 14.586-3.018 33.232 5.723 18.636 8.74-.948-20.251 27.801-18.095 28.753 2.161 38.102-11.119 63.869-11.334 25.764-.217 3.834-14.006 22.017-9.29 18.185 4.718 3.835-14.011 20.526-10.48 16.694 3.534-1.403-24.271 17.691-11.512 19.099 12.759 16.843 4.872 30.854 8.708 14.01 3.837 22.325-6.612 36.181-4.114 13.859 2.494 38.253-9.778 50.615-8.472 12.368 1.31 30.944-14.377 52.416-4.603 21.471 9.776 41.387-6.063 48.394-4.144 7.004 1.917 24.117-2.742 31.58 3.194 7.462 5.938 29.481-3.351 41.574 7.489 12.093 10.843 23.086.091 44.253 7.186 21.167 7.092 48.851-.131 58.838 4.164 9.991 4.293 8.587-19.98 26.041-9.743 17.448 10.228 35.45 1.396 48.268 6.724 12.826 5.329 19.188-10.33 30.978-2.163 11.785 8.162 23.204-10.786 29.478-3.353 6.276 7.428 24.884 3.958 35.482 13.608 10.6 9.654 19.491-7.643 36.636-.097 17.149 7.553 25.311-4.232 34.722 6.913 9.415 11.143 25.767-.212 34.566 5.568 8.804 5.787 26.953-1.703 33.839 11.087 6.882 12.794 32.768 1.704 42.333 14.187 9.563 12.489-3.019-14.586 22.326-6.611 25.337 7.979 28.564-11.39 46.899-5.333 18.335 6.06 36.975 14.799 44.738 23.416 7.77 8.619 29.483-3.351 34.417 4.234 4.933 7.582 9.958-7.92 20.71 3.072 10.757 10.995 22.175-7.947 27.109-.366 4.935 7.585 11.752-4.053 22.2 4.26 10.448 8.314 26.65-4.388 48.274 6.727 21.623 11.118 13.585 12.032 47.999 16.261 34.415 4.23 26.192-8.405 41.843-2.045 15.656 6.365 28.448-.517 42.916 7.34 14.464 7.853 36.33-2.776 36.33-2.776s7.586-4.935 35.604 2.738c28.019 7.672 24.392-12.275 49.428-6.977 25.034 5.298 23.359-9.444 40.201-4.571 16.838 4.872 18.578-15.69 31.242-11.698 12.673 3.99 62.07-15.203 62.07-15.203s33.316-17.363 42.85-17.09c9.53.276 39.319-.399 48.73 10.747 9.409 11.147 35.418-10.817 41.996-.705 6.579 10.113 17.666-23.726 25.736-12.429 8.069 11.301 7.429-6.27 21.317 8.437 13.889 14.71 28.535-23.602 35.999-17.666 7.461 5.935 21.136-5.12 34.415 4.225 13.279 9.35 23.967-4.083 31.583 3.2 7.616 7.278 22.932-1.254 31.887 5.873 8.956 7.126 33.5-3.809 42.303 1.977 8.801 5.788 22.017-9.289 39.469.941 17.453 10.232 42.154.638 55.429 9.989 13.283 9.345 31.706-7.682 48.853-.128 17.147 7.551 14.708-13.889 31.278.513 16.566 14.406 28.569-11.389 42.882-4.874 14.314 6.514 8.159-11.787 29.478-3.352 21.321 8.434 14.708-13.89 44.099 5.843s42.848-17.09 54.21-.734c11.361 16.352 42.613 4.657 50.344 1.061 7.735-3.593 7.554-17.145 20.373-11.818 12.827 5.33 2.008-30.092 21.563-13.311 19.55 16.782 34.383-7.981 43.338-.854 8.951 7.123 22.629-3.928 33.532 8.404 10.903 12.335 12.06-1.369 24.455 12.148 12.399 13.521 33.927-12 49.58-5.635 15.657 6.359 39.351 11.816 42.794 18.208 3.443 6.395 21.134-5.118 35.453 1.396 14.312 6.516 29.906-11.544 38.246-9.776 8.347 1.766 24.211-25.83 69.498-21.479 45.293 4.352 75.043-8.53 91 .511 15.963 9.043 29.332-4.694 42.613 4.657 13.276 9.349 43.64 1.828 53.324 3.439 9.687 1.611 43.188-2.198 45.258-7.863 2.069-5.666 45.253-7.858 51.684.909 6.426 8.772 36.146-16.326 44.678-1.008 8.53 15.319 32.616.364 38.89 7.796 6.276 7.425 35.268-12.153 38.557-7.098 3.293 5.051 31.432 1.853 31.432 1.853s32.008-4.997 55.704.453c23.692 5.449-6.919-25.003 24.238-13.617s36.914-9.627 60.912-1.496c24.002 8.128 12.485-9.567 41.42 6.148 14.608 7.935 19.79 6.165 23.655 4.05 14.931-8.176 13.413 2.582 19.164-4.736 5.748-7.321 7.43-4.247 13.03-1.483 18.074 8.922 9.439-10.765 38.11 4.803 28.931 15.716 17.419-1.978 41.419 6.148 24 8.13 29.752-12.882 60.909-1.496 31.157 11.39.548-19.064 24.242-13.612 23.695 5.447 55.704.453 55.704.453s28.14-3.201 31.431 1.85c3.289 5.058 32.28-14.525 38.555-7.095 6.275 7.429 30.364-7.526 38.894 7.793 8.527 15.319 38.247-9.779 44.676-1.007 6.427 8.767 49.612 6.574 51.681.907 2.073-5.664 35.576-9.473 45.26-7.861 9.687 1.615 40.048-5.91 53.327 3.438 13.279 9.347 26.646-4.385 42.61 4.654 15.956 9.045 45.712-3.837 90.999.51 45.288 4.353 61.15-23.241 69.498-21.476 8.342 1.769 23.936-16.292 38.25-9.775 14.314 6.514 32.01-4.999 35.454 1.396 3.44 6.395 27.134 11.85 42.792 18.209 15.649 6.364 37.182-19.156 49.581-5.637 12.397 13.521 13.551-.187 24.451 12.152 10.904 12.33 24.584 1.275 33.537 8.402 8.95 7.124 23.784-17.635 43.339-.858 19.551 16.784 8.736-18.639 21.559-13.312 12.823 5.329 12.638-8.221 20.372-11.816 7.736-3.596 38.982-15.291 50.345 1.061 11.36 16.354 24.822-20.468 54.209-.732 29.392 19.731 22.783-2.591 44.103 5.842 21.317 8.436 15.164-9.867 29.48-3.351 14.314 6.515 26.313-19.282 42.879-4.875 16.573 14.404 14.134-7.039 31.276.514 17.15 7.554 35.575-9.472 48.855-.125 13.279 9.35 37.978-.246 55.43 9.987 17.453 10.229 30.668-4.847 39.47.942 8.801 5.782 33.344-5.15 42.304 1.974 8.952 7.128 24.271-1.4 31.887 5.876 7.615 7.278 18.304-6.155 31.58 3.196 13.281 9.347 26.952-1.707 34.415 4.23 7.461 5.936 22.111-32.376 35.999-17.668 13.89 14.71 13.246-2.864 21.32 8.439 8.071 11.294 19.156-22.54 25.732-12.431 6.584 10.109 32.589-11.852 42-.706 9.412 11.149 39.197 10.475 48.731 10.75 9.533.273 42.848-17.091 42.848-17.091s49.395-19.189 62.07-15.202c12.667 3.991 14.405-16.568 31.243-11.698 16.843 4.871 15.165-9.867 40.202-4.573 25.037 5.302 21.41-14.647 49.428-6.975 28.019 7.67 35.604 2.737 35.604 2.737s21.865-10.628 36.331-2.773c14.468 7.857 27.259.976 42.914 7.337 15.652 6.362 7.428-6.274 41.843-2.042 34.414 4.227 26.376 5.143 48.004 16.259 21.623 11.113 37.822-1.587 48.272 6.727 10.448 8.311 17.267-3.322 22.2 4.26 4.936 7.582 16.353-11.363 27.111-.369 10.748 10.994 15.775-4.51 20.709 3.075 4.935 7.583 26.646-4.389 34.415 4.231 7.765 8.616 26.402 17.361 44.739 23.416 18.334 6.06 21.561-13.312 46.9-5.333 25.34 7.978 12.76-19.097 22.322-6.609 9.568 12.488 35.454 1.394 42.338 14.186 6.883 12.794 25.032 5.3 33.835 11.087 8.801 5.784 25.154-5.578 34.568 5.568 9.41 11.147 17.572-.639 34.717 6.913 17.15 7.548 26.04-9.751 36.64-.093 10.596 9.65 29.206 6.178 35.482 13.606 6.272 7.437 17.691-11.512 29.478-3.349 11.789 8.163 18.152-7.494 30.976-2.167 12.818 5.33 30.819-3.503 48.271 6.726 17.449 10.233 16.049-14.036 26.038-9.745 9.987 4.293 37.675-2.926 58.84 4.165 21.168 7.097 32.159-3.656 44.252 7.187 12.094 10.84 34.113 1.55 41.575 7.487 7.461 5.939 24.575 1.278 31.58 3.196 7.007 1.919 26.92-13.923 48.394-4.146 21.471 9.778 40.048-5.911 52.413-4.6 12.365 1.308 36.761-10.969 50.618-8.471 13.858 2.491 22.172-7.953 36.18-4.118 14.01 3.837 11.753-4.049 30.855 8.71 19.095 12.759.997-15.045 17.691-11.515 16.689 3.532 2.341-15.195 20.527-10.479 18.182 4.719-3.748-9.073 22.016-9.29 25.768-.213 35.114-13.492 63.867-11.334 28.747 2.156 9.162-26.833 27.799-18.093 18.643 8.74 18.916-.793 33.231 5.723 14.314 6.516 17.726.699 31.584 3.196 13.854 2.493 23.507-8.104 42.727-6.214 19.22 1.885 9.042-15.963 30.516-6.186 21.471 9.773 6.975-10.297 33.805-1.126 26.834 9.161 38.524-19.318 55.825-10.423 17.3 8.894 30.18-21.08 55.978-9.078 25.793 11.992 35.447 1.396 48.273 6.724 12.819 5.329 6.818-11.635 16.81-7.339 9.99 4.288 12.792-6.885 40.963 2.129 28.172 9.014 2.954-9.838 20.981-6.459 18.033 3.377 38.982-15.292 48.973-10.999 9.99 4.293 39.439-11.271 53.45-7.433 14.007 3.835 21.713-11.973 41.544-4.726 19.823 7.244 19.978 8.589 25.914 1.126 5.939-7.462 13.434 10.688 21.75.241 8.311-10.446 17.42-1.98 27.951-16.752 10.539-14.77 22.784-2.591 34.966-14.835 12.182-12.244 28.871-8.715 50.34 1.061 21.474 9.777 11.76-4.053 18.612-3.472 6.852.577 10.111-6.582 27.986-4.538 17.88 2.038 26.616-16.601 43.459-11.73 16.842 4.87 26.62-16.6 44.648-13.22 18.029 3.379 23.359-9.444 39.744-8.592 16.386.85 27.073-12.579 27.073-12.579l5.816 3.408c5.818 3.412 28.113-15.409 39.594-9.929 11.482 5.481 11.296-8.073 24.849-8.256 13.553-.183 22.965 10.961 29.786-.672 6.825-11.636 21.562-13.31 31.705-7.675 10.146 5.632 25.339 7.973 47.784-9.511 22.44-17.482 19.982 8.591 33.347-5.149 4.998-5.135 12.434-6.592 15.74-8.612 5.661-3.456 5.633-10.523 12.605-6.366 6.966 4.156 16.119 10.436 25.806 12.052 9.681 1.615 18.638 8.737 33.377 7.062 14.744-1.678 19.828 7.247 38.588 5.11 18.762-2.13 26.833 9.166 50.952 6.426 24.121-2.745 43.492.481 55.096-4.906 11.601-5.393 14.314 6.513 30.395 4.685 16.079-1.827 9.107 8.465 26.983 10.509 17.879 2.033 4.204 13.092 16.72 15.741 12.519 2.651 8.62-7.766 24.277-1.403 15.652 6.367 14.13-7.034 30.086 2.009 15.962 9.043 9.962-7.919 28.756 2.163 18.788 10.076 24.998-6.915 46.469 2.856 21.475 9.775-6.207 16.996 15.993 21.255 22.204 4.265 22.904-13.461 40.051-5.905 17.143 7.546 27.408 2.307 28.778 14.371 1.373 12.056 19.679 5.903 31.129-.827 11.446-6.732 28.443-.517 38.706-5.758 10.263-5.241 11.479 5.482 32.619.365 21.134-5.122 28.443-.523 43.063 8.675 14.616 9.197 22.355 5.599 36.368 9.438 14.008 3.835 17.265-3.319 38.889 7.793 21.628 11.114 42.458 3.32 52.752 10.29 10.294 6.969 19.216 1.885 34.717 6.91 15.502 5.026 24.884 3.958 35.331 12.271 10.448 8.314 40.109 18.513 57.833 19.216 17.732.695 49.464 5.231 49.464 5.231s33.226 5.724 46.474 2.861c13.248-2.864 19.063.545 37.827-1.587 17.245-1.959 17.661 9.475 33.263 9.54v1430.31h-18535.7v-1460Z" style="fill:#e8e8e8;fill-rule:nonzero"/><path d="M11338.6 834.193c-2.162.536-4.049 1.719-5.348 4.049-5.217 9.372-23.396-5.982-27.328-.616-3.934 5.366-30.348 4.022-31.613.556-1.271-3.466-21.762-5.794-27.688-4.81-5.924.987-24.498-3.616-32.621 2.103-8.121 5.719-16.301-2.682-26.062 2.848-9.762 5.533-27.965-2.348-55.668.312-27.703 2.662-37.408-14.217-42.514-13.137-5.102 1.082-14.639-9.969-23.396-5.981-8.758 3.986-19.58-3.057-21.688.856-2.104 3.911-16.598 7.245-26.176 11.139-9.574 3.891-22.744-11.72-30.332-3.451-7.58 8.271-8.289-.113-14.957 7.434-6.67 7.545-15.039.78-20.512 5.139-5.477 4.36-14.553-10.787-26.512-.524-11.963 10.267-5.346-11.4-13.189-8.14-7.842 3.258-7.732-5.03-12.463-7.229-4.73-2.199-23.846-9.354-30.797.649-6.949 10.003-15.182-12.521-33.162-.45-17.977 12.071-13.934-1.583-26.977 3.575-13.041 5.159-9.275-6.036-18.031-2.051-8.756 3.984-16.098-11.795-26.23-2.982-10.137 8.811-8.645-4.307-19.133.313-10.49 4.619-21.76-5.795-29.885-.075-8.121 5.719-23.23-.153-33.906 6.108-10.676 6.257-18.762-2.965-24.145.575-5.387 3.538-20.398-3.15-25.877 1.208-5.479 4.361-14.85-.855-19.508 3.595-4.656 4.454-11.197-3.764-19.318 1.954-8.123 5.719-16.488-1.044-21.053 2.589-4.562 3.63-13.523-19.805-22.02-10.809-8.494 8.999-8.104-1.752-13.043 5.162-4.936 6.91-11.717-13.787-15.74-7.604-4.025 6.186-19.936-7.248-25.691-.43-5.756 6.819-23.979 6.406-29.811 6.575-5.83.167-26.211-10.455-26.211-10.455s-30.215-11.738-37.967-9.298c-7.75 2.439-8.811-10.136-19.111-7.157-10.303 2.98-9.279-6.036-24.592-2.797-15.316 3.243-13.096-8.96-30.238-4.267-17.139 4.694-21.779 1.674-21.779 1.674s-13.375-6.502-22.227-1.697c-8.846 4.805-16.672.597-26.248 4.489-9.574 3.891-4.545-3.84-25.598-1.251-21.053 2.588-16.135 3.147-29.361 9.946-13.229 6.798-23.141-.971-29.529 4.115-6.393 5.085-10.564-2.033-13.58 2.608-3.02 4.638-10.004-6.951-16.584-.227-6.578 6.725-9.65-2.758-12.67 1.88-3.02 4.639-16.301-2.684-21.053 2.588-4.75 5.27-16.152 10.62-27.367 14.325-11.217 3.706-13.189-8.144-28.689-3.262-15.502 4.878-7.807-11.683-13.656-4.043-5.85 7.636-21.686.852-25.896 8.677-4.213 7.823-15.314 3.242-20.699 6.782-5.383 3.538-15.389-3.412-21.145 3.406-5.756 6.82-10.75-.392-21.238 4.229-10.488 4.618-15.928-5.966-22.412-.058-6.484 5.903-17.869 3.779-21.705 8.323-3.838 4.548-10.822-7.042-18.033-2.05-7.213 4.994-11.104-4.583-18.947-1.323-7.842 3.26-18.854-2.144-29.531 4.115-10.672 6.259-9.816-8.59-15.928-5.962-6.109 2.627-23.045-1.791-35.992 2.547-12.949 4.343-19.672-2.237-27.072 4.396-7.395 6.633-20.863.95-25.43 4.583-4.564 3.631-15.035.782-19.318 1.954-4.283 1.174-16.469-8.517-29.602-2.535-13.137 5.979-24.5-3.618-32.062-2.816-7.564.801-22.486-6.71-30.963-5.183-8.477 1.529-13.562-4.862-22.133-2.516-8.57 2.346-7.191-2.478-18.873 5.328-11.682 7.804-.615-9.205-10.822-7.045-10.211 2.161-1.436-9.295-12.557-6.409-11.123 2.886 2.291-5.551-13.469-5.683-15.762-.13-21.482-8.254-39.068-6.931-17.588 1.318-5.605-16.415-17.008-11.07-11.402 5.346-11.57-.486-20.328 3.5-8.754 3.987-10.838.429-19.316 1.956-8.477 1.526-14.381-4.957-26.139-3.802-11.756 1.153-5.533-9.765-18.666-3.785-13.137 5.98-4.268-6.298-20.68-.689-16.414 5.604-23.566-11.815-34.148-6.375-10.584 5.439-18.463-12.895-34.242-5.555-15.781 7.339-21.686.856-29.527 4.114-7.844 3.26-4.174-7.116-10.285-4.488-6.111 2.624-7.824-4.212-25.057 1.302-17.236 5.513-1.807-6.019-12.836-3.952-11.031 2.067-23.846-9.354-29.957-6.726-6.111 2.625-24.125-6.896-32.695-4.547-8.57 2.346-13.283-7.323-25.412-2.891-12.127 4.432-12.221 5.253-15.854.689-3.631-4.565-8.217 6.536-13.303.147-5.084-6.391-10.656-1.212-17.1-10.25-6.445-9.034-13.934-1.583-21.387-9.074-7.451-7.49-17.662-5.329-30.799.649-13.133 5.981-7.189-2.479-11.381-2.123-4.191.351-6.184-4.026-17.121-2.776-10.936 1.247-16.283-10.155-26.582-7.173-10.303 2.979-16.285-10.157-27.314-8.09-11.027 2.068-14.285-5.775-24.311-5.254-10.023.52-16.561-7.697-16.561-7.697l-3.561 2.085c-3.559 2.088-17.195-9.424-24.219-6.073-7.023 3.352-6.912-4.937-15.199-5.05-8.293-.112-14.049 6.704-18.223-.411-4.172-7.118-13.189-8.143-19.393-4.697-6.205 3.446-15.502 4.88-29.23-5.814-13.729-10.697-12.223 5.253-20.4-3.152-3.055-3.139-7.607-4.032-9.627-5.267-3.467-2.118-3.449-6.438-7.711-3.895-4.264 2.541-9.861 6.382-15.785 7.372-5.924.988-11.402 5.345-20.42 4.319-9.018-1.025-12.129 4.435-23.604 3.128-11.475-1.304-16.414 5.605-31.168 3.928-14.754-1.677-26.605.297-33.703-3-7.096-3.298-8.758 3.984-18.592 2.866-9.836-1.118-5.57 5.178-16.508 6.427-10.934 1.246-2.572 8.009-10.229 9.63-7.658 1.622-5.27-4.752-14.848-.858-9.576 3.893-8.643-4.306-18.406 1.228-9.764 5.531-6.092-4.845-17.588 1.323-11.496 6.165-15.295-4.23-28.428 1.747-13.135 5.98 3.799 10.398-9.781 13.003-13.582 2.608-14.012-8.235-24.5-3.614-10.488 4.617-16.764 1.412-17.605 8.791-.838 7.377-12.035 3.611-19.041-.505-7.004-4.118-17.4-.317-23.676-3.523-6.279-3.205-7.025 3.352-19.955.224-12.93-3.131-17.4-.321-26.342 5.306-8.945 5.628-13.676 3.427-22.248 5.774-8.57 2.346-10.561-2.03-23.791 4.767-13.227 6.799-25.969 2.03-32.266 6.294-6.299 4.265-11.758 1.153-21.24 4.228-9.482 3.074-15.221 2.421-21.611 7.507-6.391 5.083-24.535 11.324-35.379 11.751-10.844.427-30.254 3.203-30.254 3.203s-20.326 3.502-28.429 1.75c-8.105-1.752-11.666.333-23.141-.972-11.475-1.305-10.768 7.078-23.062 5.679-12.295-1.397-3.115 5.461-17.867 3.783-14.756-1.679-1.026 9.014-16.787 8.885-15.761-.132-22.653-12.54-28.502-4.903-5.854 7.638-21.779 1.675-29.81 6.575-8.032 4.9-19.601 4.414-28.264 7.581-8.664 3.166-12.389-.58-25.338 3.762-12.948 4.337-13.655-4.045-29.342 2.474-15.688 6.521-12.742-4.769-24.779-1.156-12.032 3.612-16.394-1.865-27.609 1.84-11.213 3.71-14.399 2.517-27.441 7.675-13.042 5.159-13.206-.672-26.343 5.309-13.133 5.979-14.308 1.695-25.057 1.303-10.75-.392-18.648-11.255-25.038-6.168-6.391 5.086-7.753 2.438-13.135 5.977-5.385 3.54-1.173-4.283-15.481-2.589-14.308 1.694-8.664 3.166-21.053 2.588-12.389-.579-10.563-2.033-21.87 2.494-11.312 4.529-14.852-.857-29.084 7.488-14.233 8.347-15.24 9.895-20.979 9.24-5.736-.653-14.102-7.416-26.509-.524-12.408 6.891-11.922-4.679-21.407-1.605-9.482 3.073-10.283-4.488-25.876 1.21-15.593 5.7-11.589 6.985-26.345 5.308-14.755-1.679-11.01-5.405-26.789 1.936-15.781 7.338-20.232 2.679-29.269 9.126-9.036 6.444-13.022-2.313-24.071 7.226-11.048 9.538-12.201-2.217-21.873 2.496-9.668 4.71-17.752-4.51-20.492-2.331-2.738 2.178-3.819-2.926-9.929-.301-6.11 2.628-7.377-.839-15.315 3.242-7.935 4.077-9.648-2.758-15.76-.133-6.11 2.628-6.744.896-15.127 1.602-8.385.708-15.67-.95-18.764-2.962-3.09-2.014-.704-8.383-14.848-.859-14.141 7.524-6.817-5.757-21.312-2.424-14.497 3.334-22.88 4.04-25.897 8.681-3.018 4.639-17.047 3.874-17.047 3.874s-12.203-2.218-16.859 2.235c-4.659 4.451-13.768 4.245-23.253 7.318-9.481 3.073-9.93-.298-21.145 3.409-11.216 3.705-17.4-.318-25.244 2.941-7.843 3.259-14.495 3.333-24.33 2.214-9.835-1.12-12.574 1.062-23.233-.149-10.657-1.213-.745 6.559-18.777 4.507-18.034-2.05-10.044 7.99-26.439 6.126-16.392-1.864-16.597 7.245-25.988 9.5-9.388 2.254-10.098-6.129-25.057 1.303-14.962 7.431-26.232-2.983-33.348 1.19-7.118 4.171-10.043 7.992-21.521 6.685-11.474-1.305-9.034 6.446-24.609 4.677-15.575-1.773-11.661.332-27.068 4.392-15.407 4.061-23.347 8.138-33.183 7.021-9.837-1.121-8.215 6.54-19.691 5.234-11.477-1.305-23.696 3.949-31.615.558-7.916-3.392-5.739-.653-15.574-1.771-9.84-1.118-14.777 5.792-24.425 3.036-9.65-2.759-9.187-6.858-22.038-3.339-12.855 3.521-11.571-.483-21.968 3.313-10.394 3.802-12.127 4.435-28.521 2.57-16.395-1.862-17.513 7.972-34.094 7.749-16.581-.226-26.696 1.115-31.614.557-4.922-.56-15.316 3.24-22.135-2.518-6.818-5.758-22.69 2.401-25.971 2.03-3.277-.373-17.865 3.78-24.871-.339-7.005-4.117-11.046 9.539-28.168 6.76-17.121-2.776-19.692 5.234-30.702-.17-11.009-5.403-14.866 6.613-25.524 5.402-10.654-1.213-15.741-7.602-27.052-3.076-11.307 4.526-15.499 4.881-30.254 3.203-14.755-1.677-10.138 8.811-24.704 5.494-14.568-3.318-18.781 4.506-25.502-2.07-6.728-6.578-10.585 5.44-26.792 1.935-16.207-3.503-28.709 4.208-36.255-2.46-7.546-6.673-18.965 6.145-25.597-1.251-6.634-7.396-20.216-4.79-25.485-9.541-5.273-4.751-17.699 9.611-30.256 3.202-12.557-6.409-3.428-13.673-15.184-12.521-11.756 1.155-9.909-7.769-22.41-.057-12.502 7.712-17.606 8.791-23.047-1.792-5.438-10.581-1.245-10.935-16.376-9.333-15.126 1.601-17.514 7.972-32.34-.357-14.83-8.327-21.52 6.688-34.541 4.376-13.021-2.311-18.666-3.783-25.876 1.209-.606.419-1.896 1.11-2.753 1.556 2.979-1.447-6.783 4.269-11.975 3.518-2.413-.35-4.507 1.244-6.334 2.262-6.207 3.446-15.223 2.421-19.396-4.698-4.171-7.115-9.931-.298-18.223-.409-8.289-.114-8.177-8.403-15.2-5.051-7.022 3.353-20.66-8.162-24.218-6.072l-3.56 2.084s-6.538-8.217-16.562-7.695c-10.023.521-13.282-7.323-24.311-5.255-11.03 2.066-17.01-11.068-27.313-8.089-10.303 2.98-15.648-8.422-26.585-7.173-10.933 1.248-12.928-3.13-17.119-2.779-4.192.354 1.751-8.103-11.383-2.123-13.135 5.979-23.344 8.139-30.797.649-7.451-7.49-14.939-.039-21.384-9.075-6.446-9.037-12.017-3.857-17.102-10.248-5.086-6.389-9.671 4.712-13.304.146-3.632-4.563-3.727-3.742-15.853.69-12.129 4.432-16.842-5.237-25.414-2.891-8.567 2.348-26.583-7.173-32.695-4.547-6.109 2.629-18.925-8.793-29.958-6.729-11.029 2.068 4.4-9.462-12.833-3.95-17.234 5.514-18.945-1.322-25.059 1.302-6.111 2.626-2.441-7.75-10.283-4.489-7.846 3.258-13.748-3.223-29.53 4.113-15.779 7.341-23.658-10.995-34.239-5.553-10.585 5.439-17.737-11.982-34.151-6.377-16.413 5.608-7.543-6.668-20.68-.689-13.133 5.98-6.909-4.938-18.665-3.784-11.756 1.155-17.662-5.328-26.139-3.802-8.478 1.527-10.564-2.031-19.318 1.955-8.76 3.985-8.923-1.846-20.329 3.501-11.4 5.346.58-12.388-17.006-11.069-17.589 1.322-23.308-6.802-39.07-6.933-15.76-.133-2.345-8.568-13.468-5.683-11.124 2.886-2.346-8.571-12.556-6.411-10.212 2.162.858-14.847-10.822-7.042-11.683 7.805-10.303 2.98-18.874 5.327-8.57 2.347-13.656-4.045-22.132-2.517-8.478 1.526-23.4-5.981-30.962-5.182-7.566.801-18.929-8.795-32.064-2.816-13.134 5.98-25.317-3.709-29.603-2.535-4.285 1.173-14.753-1.677-19.318 1.954-4.565 3.632-18.034-2.05-25.432 4.581-7.397 6.633-14.122.056-27.07 4.396-12.948 4.338-29.883-.08-35.992 2.547-6.112 2.626-5.253-12.222-15.93-5.96-10.673 6.257-21.685.854-29.526 4.113-7.846 3.26-11.738-6.319-18.95-1.323-7.209 4.993-14.194-6.598-18.032-2.051-3.839 4.544-15.222 2.421-21.705 8.324-6.484 5.906-11.923-4.675-22.411-.059-10.49 4.62-15.483-2.589-21.24 4.229-5.759 6.816-15.762-.13-21.144 3.406-5.386 3.54-16.488-1.042-20.7 6.782-4.21 7.826-20.045 1.042-25.896 8.678-5.85 7.64 1.847-8.922-13.657-4.044-15.499 4.881-17.473-6.967-28.689-3.262-11.216 3.707-22.618 9.053-27.367 14.324-4.753 5.272-18.035-2.05-21.053 2.59-3.018 4.638-6.092-4.845-12.669 1.879-6.58 6.726-13.565-4.861-16.583-.224-3.019 4.64-7.189-2.479-13.58 2.606-6.391 5.086-16.302-2.684-29.53 4.115-13.227 6.801-8.31 7.36-29.362 9.947-21.052 2.588-16.022-5.141-25.596-1.251-9.577 3.894-17.402-.316-26.252 4.49-8.848 4.804-22.224-1.698-22.224-1.698s-4.64-3.019-21.779 1.675c-17.14 4.693-14.921-7.509-30.236-4.268-15.314 3.241-14.289-5.777-24.592-2.796-10.3 2.98-11.364-9.598-19.111-7.156-7.752 2.441-37.969-9.3-37.969-9.3s-20.38-10.621-26.212-10.454c-5.83.169-24.052-.244-29.809 6.574-5.756 6.819-21.666-6.617-25.69-.431-4.024 6.186-10.806-14.514-15.743-7.603-4.936 6.913-4.544-3.836-13.04 5.161-8.496 8.998-17.455-14.438-22.021-10.807-4.564 3.631-12.929-3.132-21.052 2.585-8.123 5.719-14.661-2.498-19.32 1.957-4.659 4.452-14.028-.767-19.506 3.593-5.478 4.359-20.492-2.33-25.877 1.209-5.384 3.541-13.468-5.682-24.144.576-10.676 6.259-25.786.39-33.907 6.11-8.125 5.717-19.395-4.699-29.884-.078-10.489 4.619-8.997-8.496-19.133.314-10.134 8.812-17.476-6.967-26.232-2.982-8.756 3.985-4.991-7.21-18.032-2.05-13.042 5.159-8.997-8.497-26.976 3.574s-26.211-10.454-33.161-.449c-6.95 10.003-26.067 2.849-30.796.649-4.732-2.198-4.621-10.488-12.463-7.229-7.846 3.26-1.228-18.408-13.19-8.143-11.959 10.266-21.033-4.882-26.511-.522-5.475 4.357-13.842-2.403-20.512 5.141-6.669 7.545-7.377-.838-14.959 7.431-7.585 8.271-20.754-7.341-30.329-3.447-9.578 3.89-24.072 7.228-26.178 11.138-2.106 3.912-12.928-3.131-21.687.854-8.755 3.986-18.294-7.062-23.396-5.98-5.106 1.08-14.81-15.801-42.513-13.139-27.706 2.662-45.905-5.218-55.666.312-9.765 5.532-17.943-2.871-26.067 2.849-8.121 5.719-26.695 1.118-32.619 2.104-5.926.985-26.419-1.345-27.685-4.81-1.266-3.466-27.682-4.807-31.616.556-3.931 5.366-22.111-9.987-27.33-.617-5.218 9.371-19.952.223-23.79 4.769-3.839 4.542-21.574-7.434-23.586-4.342-2.014 3.09-19.227 1.134-19.227 1.134s-19.58-3.057-34.075.277c-14.493 3.333 4.232-15.295-14.827-8.33s-22.581-5.889-37.261-.915c-14.682 4.972-7.637-5.852-25.337 3.761-8.936 4.854-12.106 3.771-14.47 2.477-9.134-5.001-8.205 1.58-11.723-2.897-3.516-4.478-4.545-2.598-7.971-.907-11.056 5.458-5.774-6.585-23.312 2.938-17.698 9.614-10.656-1.21-25.337 3.761-14.681 4.973-18.2-7.88-37.259-.915-19.059 6.967-.335-11.662-14.829-8.327-14.495 3.332-34.075.277-34.075.277s-17.214-1.958-19.227 1.132c-2.012 3.094-19.746-8.885-23.585-4.34-3.838 4.544-18.574-4.604-23.792 4.767-5.216 9.371-23.396-5.982-27.329-.616-3.931 5.363-30.348 4.021-31.614.555-1.268-3.465-21.762-5.795-27.686-4.809-5.926.988-24.498-3.615-32.621 2.103-8.123 5.718-16.3-2.682-26.065 2.847-9.761 5.533-27.963-2.347-55.666.312-27.703 2.663-37.406-14.217-42.513-13.137-5.103 1.082-14.642-9.966-23.398-5.98-8.756 3.985-19.581-3.058-21.688.854-2.104 3.912-16.598 7.249-26.176 11.139-9.573 3.893-22.745-11.718-30.33-3.448-7.583 8.271-8.289-.115-14.957 7.433-6.67 7.543-15.038.78-20.515 5.14-5.475 4.358-14.549-10.788-26.511-.525-11.96 10.267-5.344-11.402-13.188-8.143-7.844 3.26-7.731-5.029-12.462-7.228-4.732-2.2-23.846-9.354-30.797.649-6.949 10.004-15.184-12.521-33.16-.448-17.98 12.07-13.937-1.585-26.979 3.574-13.04 5.16-9.276-6.036-18.033-2.05-8.756 3.985-16.096-11.795-26.23-2.982-10.138 8.811-8.646-4.306-19.132.314-10.491 4.621-21.762-5.794-29.885-.076-8.123 5.719-23.232-.151-33.908 6.109-10.676 6.257-18.76-2.965-24.144.576-5.384 3.537-20.397-3.15-25.878 1.208-5.476 4.36-14.847-.857-19.506 3.594-4.658 4.452-11.197-3.765-19.318 1.955-8.124 5.718-16.487-1.044-21.052 2.588-4.564 3.631-13.526-19.805-22.021-10.808-8.497 8.998-8.103-1.752-13.042 5.162-4.937 6.909-11.718-13.788-15.741-7.604-4.027 6.184-19.935-7.25-25.692-.432-5.757 6.82-23.977 6.408-29.809 6.576-5.832.167-26.211-10.455-26.211-10.455s-30.216-11.738-37.969-9.299c-7.749 2.441-8.812-10.135-19.112-7.156-10.303 2.98-9.277-6.036-24.592-2.797-15.316 3.243-13.097-8.96-30.236-4.267-17.14 4.692-21.78 1.674-21.78 1.674s-13.375-6.501-22.224-1.696c-8.85 4.806-16.675.597-26.251 4.488-9.575 3.892-4.544-3.838-25.596-1.249-21.052 2.586-16.135 3.146-29.365 9.946-13.227 6.798-23.136-.971-29.529 4.115-6.391 5.084-10.562-2.032-13.58 2.606-3.019 4.638-10.003-6.951-16.584-.226-6.575 6.725-9.65-2.759-12.668 1.881-3.019 4.639-16.3-2.685-21.052 2.588-4.75 5.271-16.151 10.62-27.368 14.324-11.215 3.707-13.189-8.143-28.689-3.262-15.501 4.88-7.806-11.682-13.655-4.043-5.853 7.639-21.688.853-25.899 8.678-4.21 7.826-15.312 3.242-20.697 6.782-5.384 3.538-15.387-3.412-21.146 3.406-5.756 6.819-10.749-.391-21.237 4.229-10.491 4.617-15.929-5.965-22.413-.057-6.482 5.903-17.866 3.779-21.705 8.323-3.837 4.549-10.822-7.042-18.032-2.049-7.212 4.994-11.104-4.584-18.949-1.325-7.841 3.26-18.852-2.143-29.528 4.114-10.674 6.26-9.817-8.586-15.928-5.961-6.109 2.626-23.046-1.79-35.993 2.548-12.949 4.341-19.672-2.237-27.07 4.396-7.398 6.631-20.867.948-25.432 4.58-4.564 3.633-15.033.782-19.318 1.955-4.286 1.174-16.467-8.517-29.603-2.536-13.134 5.981-24.498-3.616-32.062-2.814-7.564.8-22.487-6.71-30.964-5.182-8.477 1.524-13.563-4.865-22.132-2.519-8.57 2.347-7.189-2.477-18.874 5.328-11.681 7.805-.61-9.203-10.822-7.044-10.209 2.161-1.432-9.295-12.557-6.41-11.122 2.887 2.293-5.55-13.467-5.683-15.763-.13-21.48-8.253-39.069-6.933-17.585 1.319-5.604-16.414-17.005-11.068-11.404 5.347-11.571-.485-20.328 3.501-8.756 3.986-10.843.428-19.32 1.955-8.475 1.525-14.38-4.957-26.137-3.801-11.757 1.153-5.531-9.765-18.667-3.784-13.134 5.978-4.267-6.299-20.679-.689-16.415 5.604-23.566-11.817-34.149-6.376-10.583 5.441-18.462-12.895-34.243-5.553-15.778 7.336-21.683.854-29.529 4.113-7.842 3.26-4.171-7.117-10.283-4.489-6.111 2.623-7.825-4.212-25.058 1.302-17.233 5.514-1.807-6.018-12.834-3.951-11.031 2.066-23.846-9.354-29.958-6.728-6.111 2.626-24.125-6.895-32.696-4.547-8.568 2.346-13.282-7.324-25.413-2.891-12.126 4.431-12.221 5.254-15.852.689-3.633-4.565-8.218 6.538-13.305.147-5.084-6.39-10.656-1.211-17.098-10.247-6.447-9.035-13.937-1.585-21.389-9.075-7.452-7.49-17.661-5.331-30.794.649-13.136 5.981-7.194-2.479-11.385-2.124-4.192.353-6.185-4.026-17.12-2.776-10.937 1.247-16.281-10.155-26.584-7.175-10.303 2.979-16.284-10.155-27.312-8.087-11.029 2.067-14.289-5.777-24.312-5.256-10.024.52-16.561-7.695-16.561-7.695l-3.558 2.085c-3.559 2.087-17.197-9.426-24.22-6.074-7.024 3.353-6.91-4.938-15.201-5.05-8.29-.112-14.048 6.705-18.22-.411-4.175-7.118-13.19-8.142-19.395-4.695-6.206 3.445-15.5 4.877-29.23-5.818-13.727-10.694-12.223 5.255-20.399-3.15-3.057-3.141-7.606-4.032-9.628-5.268-3.463-2.114-3.446-6.437-7.711-3.894-4.261 2.542-9.86 6.384-15.786 7.372-5.922.988-11.401 5.345-20.417 4.32-9.019-1.026-12.129 4.433-23.605 3.126-11.477-1.303-16.414 5.607-31.168 3.931-14.755-1.679-26.605.294-33.703-3.001-7.097-3.299-8.756 3.984-18.593 2.866-9.836-1.118-5.571 5.178-16.506 6.428-10.937 1.244-2.572 8.009-10.228 9.629-7.658 1.622-5.273-4.75-14.851-.858-9.574 3.895-8.643-4.303-18.404 1.229-9.764 5.532-6.094-4.844-17.59 1.323-11.493 6.164-15.292-4.23-28.426 1.747-13.137 5.98 3.797 10.397-9.783 13.002-13.583 2.609-14.011-8.234-24.5-3.612-10.487 4.616-16.766 1.411-17.604 8.791-.84 7.375-12.038 3.611-19.042-.506-7.002-4.118-17.399-.316-23.677-3.522-6.278-3.206-7.022 3.353-19.954.223-12.928-3.133-17.399-.32-26.342 5.307-8.941 5.626-13.675 3.425-22.247 5.773-8.569 2.346-10.561-2.03-23.789 4.767-13.23 6.799-25.972 2.031-32.269 6.295-6.297 4.263-11.755 1.153-21.237 4.227-9.483 3.074-15.222 2.421-21.613 7.506-6.391 5.086-24.535 11.325-35.377 11.755-10.847.425-30.258 3.2-30.258 3.2s-20.325 3.501-28.429 1.75c-8.104-1.752-11.661.333-23.139-.971-10.549-1.198-10.804 5.796-20.348 5.836v874.942h11338.6V834.193Z" style="fill:#fff;fill-rule:nonzero"/></svg>