<svg xmlns="http://www.w3.org/2000/svg" id="Layer_1" viewBox="0 0 1147.6 917.7" preserveAspectRatio="xMidYMid slice">
    <defs>
        <style>.cls-2{fill:#3b84db}</style>
    </defs>
    <path d="m381.4 137 .2-.2-.2.2Zm.6-.7.2-.2-.2.2Zm.6-.6.2-.2-.2.2Zm-3 4.5Zm-1.6.8h.1Zm2-1.4Zm.4-.8.5-1-.5 1Zm2.8-3.6.3-.2-.3.2Zm138.6-27Zm.2 0Zm-.4 0ZM385.4 134Zm-1.5.7Zm.7-.3.2-.1h-.2Zm-133.3 24Zm2.3 1.6Zm-58.9 656.2Zm327.6-708ZM252 158.8Zm-1.3-.6Zm79.8-12.9ZM250 158.2Zm-.5.1Zm6.7 2.1Zm-7.2-1.9Zm81-13.1Zm-2-.1Zm-72.3 15.2Zm-1-.1Zm-.5-.1h.1-.1Zm334-68.3Zm2.4-2.1Zm.6-.4Zm.3-.1Zm-2.7 2.2Zm-66.2 16.7Zm67.6-18.1Zm.7-.5Zm2.7-.3Zm.4 0Zm-1-.1Zm-.4 0h.2-.2Zm-.4 0h.2-.2Zm-.3 0Zm-2 1.3ZM577.3 98Zm10.2-5.7Zm-9.9 5.7Zm-53.9 11h.1Zm54.2-11 .1-.2-.1.1Zm-53.1 11.1h.1Zm-.8-.1.2.1h-.1Zm1.6-.3Zm60.7-16.1Zm-8.2 5.2.2-.2-.2.2Zm8.8-5.3Zm-7 2.9Zm-1 1.6Zm-.3.3.2-.2-.2.2ZM66.7 189.6ZM116.2 805l-3.4 2 3.4-2Zm-50.4-8.6Zm50.9 8.4-.3.2.3-.2Zm.6-.3-.4.2.4-.2Zm-52.9-7.8-4.3.6c1.3 0 2.8-.4 4.3-.6Zm54 7.3Zm-.6.3ZM9.3 793.6Zm-1.7.4Zm-.8 0Zm-.8 0Zm43.9 2.2h-.1Zm-41.5-2.4ZM119 803.9Zm72.3 10.4h-.3.3Zm-2.6-.3h-.2.2Zm1.6 0Zm-2.3 0-.2.1h.1Zm4.1.6Zm.9.4-.3-.1.3.1Zm-52.3-8.4ZM5.3 793.8Zm243.2-635.1ZM121 803.7h-.1.2Zm-1 0h-.2.2Zm20.2 2.7Zm-18.6-2.6h-.2.2Zm11.6-.1Zm-13.7.1Zm18.8.8Zm1.3-621.6Zm55.8-8.8Zm384.2 686h-.1ZM194.1 174.8Zm-72.2 7.7Zm10.5-1Zm-9 1.3Zm73.6-9.2Zm50.6-14.1Zm-2.4 2ZM4.6 793.6ZM114.8 180l.8.3c-.3 0-.5-.2-.8-.3Zm129.8-18.3Zm-46 11.3Zm49.4-14ZM0 791.8h.1l-.1-2.3v2.3Zm1.2.2Zm112.4-612.3Zm-57 12.3ZM2.3 792.2h-.1Zm.9.4Zm54.1-601.4Zm9.7-.7Zm-9 .1Zm54.7-11.2Zm-45.5 11.4Zm-.3-.6ZM594.4 89.5Zm-341.3 70.2.2.1h-.2ZM1039.2 19c2.7-.4 2.2-3.9 1.9-7.2-.9.2-1.8.3-3 .1h-1.8c-.5 2.8-2.2 7.3 3 7.1Zm-65.7 13.8Zm-59.8-.1ZM1091.8 4Zm16.9 4.4h.1-.1Zm-9.1-4.1Zm-392.2 63ZM583.9 97.1c1.9-.3 2.1-2.2 2-4.5-2 .2-4 .2-5.6 2.2.2 1.4 1 2.4 3.6 2.3Zm70.6-22.8ZM1107.3 8ZM643.5 82h-.3.3Zm-53.6 8.6Zm55.2-15.4Zm-1.6 6.6Zm387.8-69.4Zm-.7.2Zm2.4-.6Zm-.8.2ZM579.4 96.1Zm396.4-64Zm.4-.2Zm53.8-19.1Zm57-10.1Zm-52.9 9.2Zm11.3-4.9Zm53.8-3.3Zm.7.9Zm-64.7 7.2Zm9.5-3.1Zm-924.4 795h.3-.3ZM768.1 788ZM711 799.4Zm73-8.8c.1 0 .2 0 .3-.2l-.3.2ZM578.1 861l.1-.2v.1Zm-3.1 10.5c.8-.4.6-1.6.9-3.8-.3 2.2-.1 3.4-.9 3.8Zm255.7-89.6Zm-250.9 78.3Zm531.4-125.1h.1-.1zM395.7 848.8l.2.7-.2-.7Z" class="cls-2" />
    <path d="m1110 8.8 3.4 1.2a213 213 0 0 1-6.3 43.8c-1 3.8-3.4 18.8-3.7 23-.3 3.4-1.7 7.8-1.9 12 0 2.7-3.1 8.5 2.8 8.3 4-.6.8-8.4 1.8-12 2.5-1 5.7-1 9.3-1 1.3 9 1.9 17.9 1.8 26.8-8 2-19.4.3-27.7 1.9-3.2-19 2-35.8 4.6-57.2 2.1-16.7 6.7-33.2 8.2-49.5l-2-1.2h-4.3c-2.5 2.3 2.2 9-1 12-.6 1.2-1.7.9-2.8.5-1.3-.5-2.8.4-4 0-1.1-.2-2-4.3-2.3-7.7a52 52 0 0 1-.3-8c-8-5-9.1 2.5-15.6-.2-6.6-2.8-11 3.8-18.7.5-3.8-1.6-4.5 1-5.5 4h4.5a165 165 0 0 1 1.8 26.8c-7.9 1.9-19.4.2-27.6 1.9-1.2-7.2-1.3-14-.7-21-1.2-.2-2.6-1-4.4-2.3-7.7-6-11 1-14.3-2.2s-2.7 10.4-9.9 7.7-9.9 11-12.6 11c-1.5 0-3.6 2.3-6 3.7 2-1.2 3.8-3 5.2-3.6-1.2 9-3 17.7-4.9 25.8a276 276 0 0 0-3.6 23c-.3 3.4-1.8 7.8-1.9 12 0 2.7-3.1 8.5 2.8 8.3 4-.6.8-8.4 1.8-12 2.4-1 5.7-1 9.2-1 1.4 9 2 17.9 1.9 26.8-8 2-19.4.3-27.6 1.9-3.3-19 2-35.8 4.6-57.2 1-8.7 2.8-17.3 4.4-25.9-4.5-5-9-11.2-14-.2-5.5 12.1-6.6 3.3-11.5-1s-4.4 12-11 6.5-2.2 4.4-12.1-1.6a11.6 11.6 0 0 0-.3-.1 72 72 0 0 1-7 .5c-2 2.8-2.4 7.8-5.4 6.2-5-2.8-6.6 2.7-14.3-.6-7.7-3.3-8.2-3.8-12.6-1.6-4.4 2.2-6.6 1-12.1 5-5.5 3.8-9.4-1.2-13.2 3.2-1.8 2-4.2 2-6.7 1.6l-1.5 6.2c-.9 3.8-3.3 18.8-3.7 23-.3 3.4-1.7 7.8-1.8 12 0 2.7-3.1 8.5 2.8 8.3 4-.6.8-8.3 1.8-12 2.4-1 5.7-1 9.2-1 1.4 9 2 17.9 1.9 26.8-8 2-19.5.3-27.7 1.9-3.3-19 2-35.8 4.6-57.2l.8-5.5c-3 .4-6 .4-9.4 3.1-5.5 4.4-10-3.3-14.9 2.2-5 5.5-8.2-1-17-1s-6.6-8.3-16-3.4-12.6 1.1-16.5 4.4c-3.8 3.3-5-5-12 2.2-7.2 7.2-5.6-2.2-11.6 1.7-6 3.8-10-.6-14.9 3.8a14 14 0 0 1-7.9 3L713 76.7c-.3 3.4-1.7 7.8-1.8 12 0 2.7-3.1 8.5 2.8 8.3 4-.6.8-8.3 1.8-12 2.4-1 5.7-1 9.2-1 1.4 9 2 17.9 1.9 26.8-8 2-19.5.3-27.7 1.9-2.8-16.4.7-31 3.4-48.4l.4.2c-1.1-.6-2.4-1-3.7-.4-3.8 1.7-7.1-3.8-12.6 1.1-3.3 3-7.8 4.2-12.1 3.3 0 0-7.7-3.3-13.2 2.8a8.5 8.5 0 0 1-3.6 2.4c1.4 20.5-2 40.6-6.1 58a290 290 0 0 0-3.7 23c-.3 3.4-1.7 7.9-1.9 12 0 2.7-3 8.6 2.8 8.3 4-.6.9-8.3 1.9-12 2.4-1 5.6-1 9.2-.9 1.3 8.9 2 17.8 1.8 26.7-8 2-19.4.3-27.6 1.9-3.3-19 2-35.8 4.6-57.2 2-17 6.9-34 8.3-50.7h-6.5c-2.5 2.3 2.2 9-1 12-.6 1.2-1.6 1-2.7.5-1.4-.5-3 .4-4 .1-1.2-.3-2-4.4-2.4-7.8a56 56 0 0 1-.3-8.3l.4-.2c-1 .5-2 1.5-3.3 3.2-5 6-8.8-8.3-17.6.5s-6.6 1.1-9.4 5.5c-1.2 2-3 1.9-4.6 1.5.8 7 1.1 14 1 21-7.9 2-19.4.3-27.6 1.9a75.4 75.4 0 0 1-1-15.2c4.2-2.9 6.8.4 9 .5-2.3-.1-4.9-3.5-9.2-.3-6 4.4-10 .5-13.2 3.8-3.3 3.3-9.4 2.2-11 1.1-1.7-1-7.7 2.8-11.6 0-2.7-2-4 3.1-6 5.4-1 8.3-2.7 16.3-4.5 23.7a290 290 0 0 0-3.7 23c-.3 3.4-1.7 7.9-1.9 12 0 2.7-3 8.6 2.8 8.3 4-.6.9-8.3 1.9-12 2.4-1 5.6-1 9.2-.9a165 165 0 0 1 1.8 26.7c-8 2-19.4.3-27.6 1.9-3.3-19 2-35.8 4.6-57.2.9-7.4 2.3-14.8 3.7-22v-.1c-8.3-3.3-5.5 8.2-12.2 5-6.6-3.4-7.7 3.8-12.6 2.1-5-1.6-3.9 6.6-8.3 3.9s-8.2 3.3-14.3-1.7c-6-5-1 5-7.1 2.8-6-2.2-7.2 5.5-11.6 3.8-4.4-1.6-3.8 8.3-12 2.8s-10.5 3.8-16 .5-12.7 2.2-16.5 0c-3.9-2.2-5.5-2.2-9.4.6l-1 .6c-.9 3.9-3.3 18.8-3.6 23-.3 3.3-1.7 7.8-1.9 12 0 2.6-3.1 8.5 2.8 8.2 4-.6.8-8.3 1.8-12 2.5-1 5.7-1 9.3-.9a165 165 0 0 1 1.8 26.7c-8 2-19.4.3-27.7 1.9-2.9-16.9 1-32 3.6-50-1.3-.3-3.5-1.5-8.2-3-10.5-3.2-4.4 6.7-16 4-11.5-2.8-9.3 7-14.3 3.2-3-2.4-5-.5-8 .2l.9.2a185 185 0 0 1-5.5 64.5c-1 3.9-3.3 18.8-3.7 23-.3 3.5-1.7 7.9-1.8 12-.1 2.7-3.1 8.6 2.7 8.3 4-.6.9-8.3 1.9-12 2.4-1 5.6-1 9.2-.9 1.3 8.9 2 17.8 1.8 26.8-7.9 1.8-19.4.2-27.6 1.8-3.3-19 2-35.8 4.6-57.1 2.1-17.2 6.9-34 8.3-50.8h-6.5c-2.4 2.3 2.2 9-.9 12-.6 1.2-1.7.9-2.8.5-1.4-.5-2.9.4-4 .1-1.1-.3-2-4.4-2.4-7.8a91 91 0 0 1 .9-21.3c7 .8 13.2-.4 19.6 0l-1-.6c-7.2-4.4-7.7 1.1-13.2-1.6-5.5-2.8-8.8 4.4-8.8 4.4v.2a6.7 6.7 0 0 1-8.8 3.6c-6.6-2.2-7.7 3.9-14.3 1.1-6.6-2.7-2.7 10.5-11 6.6-5.8-2.7-8.8 1-11.9 2-.4 2.2-.8 4.5-.9 6.6 0 2.7-3.1 8.6 2.8 8.3 4-.6.8-8.3 1.8-12 2.4-1 5.7-1 9.2-.9a165 165 0 0 1 1.9 26.7c-8 2-19.5.3-27.7 1.9a94 94 0 0 1 .3-29c-.7.1-1.5 0-2.5-.8-5-3.9-5.5 7.1-12 3.3s-11 6-14.4 2.7c-3.3-3.3 1.1 5-9.3 5-1.3 0-2.4 0-3.5.2-1 13.3-3.3 26.1-6.1 37.7-1 3.9-3.3 18.8-3.7 23-.3 3.5-1.7 7.9-1.8 12-.1 2.7-3.2 8.6 2.7 8.3 4-.6.9-8.3 1.9-12 2.4-1 5.6-1 9.2-.9 1.3 8.9 2 17.8 1.8 26.8-8 1.8-19.4.2-27.6 1.8-3.3-19 2-35.8 4.6-57.1 1.4-11.8 4.1-23.4 6.1-35a8 8 0 0 1-4.5.7c-5-1.1-18.2-1.1-27 .5-7.7 1.5-9.5 6.2-16.7 5.3v5.7c-7.9 1.8-19.4.2-27.6 1.8-.6-3.9-1-7.7-1-11.4-8.9-2.2-8 4.2-12 .8-4.4-3.8-4.9-9.3-10.4-1.6-5.5 7.7-5 4.4-15.4 3.3-8.8-1-7 9.4-7.6 9.1.5.3-.6-6.8 4-8.7-1.2 9.7-3 19-5.1 27.6-1 3.9-3.3 18.8-3.7 23-.3 3.5-1.7 7.9-1.8 12-.1 2.7-3.2 8.6 2.7 8.3 4-.6.9-8.3 1.9-12 2.4-1 5.6-1 9.2-.9a165 165 0 0 1 1.8 26.8c-8 1.8-19.4.2-27.6 1.8-3.3-19 2-35.8 4.6-57.1.8-6.7 2-13.2 3.3-19.8-3.2 3.5-7.9 8.5-10.8 4.7-3.9-5-5 2.8-12.7-1s-16 9.3-25.8 3.2a11.4 11.4 0 0 0-7.3-1.4v25c2.2 0 4.4.4 6.7 1 2.6 22.7-1 45.2-5.6 64.5L0 293.8V330c1.2-2.4-.6-8 .2-10.8 2.4-1 5.7-1.1 9.2-1 1.4 8.9 2 17.8 1.9 26.8A53 53 0 0 1 0 346v32.5c2.2.1 4.4.4 6.7 1 2.6 22.7-1 45.3-5.6 64.5L0 449.9v36.3c1.2-2.4-.6-8 .2-10.8 2.4-1 5.7-1.1 9.2-1 1.4 9 2 17.9 1.9 26.8a50 50 0 0 1-11.3 1v32.6c2.2 0 4.4.3 6.7.9 2.6 22.8-1 45.3-5.6 64.5L0 606v36.3c1.2-2.4-.6-7.9.2-10.8 2.4-1 5.7-1 9.2-.9 1.4 8.9 2 17.8 1.9 26.7a50 50 0 0 1-11.3 1V691c2.2 0 4.4.3 6.7 1 2.6 22.7-1 45.2-5.6 64.5L0 762.2v27.4c0-.7 0-1.4.2-2 2.4-1 5.7-1 9.2-.9l.9 6.6-.8.3c5.5-1.8 12.4-7.3 13.6-3.7 1.6 5 14-.8 17.3 5 1.8 3.2 5.2 2.4 8.5 1.5l-2.5.6a27 27 0 0 1-1.4-6.7c-.8-7 .1-15.9.9-21.4 9.2 1.1 17-1.2 25.8 1 1 8.8 1.1 17.7.6 26.3 2.7.3 5.3 1.3 7.7 3.7 8.2 8.2 12.4 0 12.4 2.4s9 0 13.2 5c1.9 2.3 4.5 1.3 7.2-.3-.8-15.8 3.3-30.6 5.5-48.8 2.1-17.2 7-34 8.3-50.7h-6.4c-2.5 2.2 2.2 8.9-1 12-.6 1.1-1.7.8-2.8.4-1.3-.5-2.8.4-4 .1-1.1-.3-2-4.4-2.4-7.8a91 91 0 0 1 1-21.3c9.2 1 17-1.3 25.7 1 2.8 22.7-.8 45.2-5.5 64.5-.9 3.8-3.3 18.8-3.7 23-.3 3.4-1.7 7.8-1.8 12 0 2.6-3.1 8.5 2.8 8.3 4-.7.8-8.4 1.8-12 2.4-1 5.7-1.1 9.2-1a165 165 0 0 1 1.8 20h-.5c4.2.8 12.7-9.8 13.4-1 .9 9.9 5.8 3.3 15.7 4.1s2.5 8.3 6.6 10c2.9 1 6.1-4.1 10.6-5.5 1.9-9.7 3.8-19.2 4.6-28.8h-6.5c-2.4 2.3 2.2 9-.9 12-.6 1.2-1.7.9-2.8.5-1.4-.5-2.9.4-4 .1s-2-4.4-2.4-7.8c-.8-7 .1-15.9.9-21.4 9.2 1.1 17-1.2 25.8 1 2 16.3.7 32.4-2 47.3-.3.2-.7.2-1.1.2 4 0 5.4-5.1 9.1-2.6 5 3.3 7.5-4.2 17.4 4 9.9 8.3 13.2-4.9 15.6 2.6 2.5 7.4 6.6 4 19.8-2.5 13.2-6.6 7.5 4.1 14.9 0s-5.8 7.4 8.2 7.4 15.7-9.9 22.3-4.1c4.5 4 9 .5 13-1.2l-3.4 1.6c2.3-12.4 5.2-24.8 6.2-37h-6.5c-2.4 2.2 2.2 8.9-.9 12-.6 1.1-1.7.8-2.8.4-1.4-.5-2.9.4-4 .1-1.1-.3-2-4.4-2.4-7.8-.8-7 .1-15.9.9-21.4 9.3 1.1 17-1.2 25.8 1 2 17 .6 33.8-2.2 49.2 3.2-2 7.6-4.2 16.7 1.4 14.9 9.2 15.7-.7 17.4 5 1.6 5.8 14 2.5 16.5 14.9 2.2 10.9 10.8 3.8 14.4 7.1l2.3.5.4 4.1c3 3.2 9-.3 20.8 3.1 14 4.2-6.6 11.6 8.3 19.8 14.8 8.3-10 8.3-5 11.6s-9.9 16.5 9 19.8c19 3.3-5.7 1.6 2.6 9 8.2 7.5 17.3-6.5 23-3.2 5.8 3.3 11.6-5 15.7-.9 4.2 4.2 8.3-5 12.4-4 4.1.7 9.1-5.9 16.5-3.4 6.5 2.2 7.3-7 10.7-6.6 2.2-11.3 4.6-22.5 5.6-33.7h-6.5c-2.5 2.3 2.2 9-1 12-.6 1.2-1.6.9-2.7.5-1.4-.5-3 .4-4 .1s-2-4.4-2.4-7.8a91 91 0 0 1 .9-21.3c9.2 1 17-1.3 25.8.9a160 160 0 0 1-1 42l.2-.1c4 0 7.4-3.3 14-3.3s6.6-7.4 12.4-7.4 0-10 13.2-8.3l2.7.3c1-11 3.5-22.1 5.1-35 2.1-17 6.9-34 8.3-50.7h-6.4c-2.5 2.3 2.1 9-1 12-.6 1.2-1.7.9-2.8.5-1.4-.5-2.9.4-4 .1s-2-4.4-2.4-7.8a98 98 0 0 1 .9-21.4c9.3 1.1 17-1.2 25.8 1 2.7 22.8-.8 45.3-5.5 64.5a299.7 299.7 0 0 0-4.2 26.3c2.5.7 6.3 2 12.3 2 14 0 .9-14.9 7.5-14s4-10 12.3-11.6 11.6-9 20.7-9.9c9-.8 6.6-9.9 16.5-8.2 9.9 1.6 11.5.8 21.4-9.1 10-10 .9 4.1 11.6 2.5 10.7-1.7 6.6-10 14.8-6.6 6.8 2.7 6.9-5.2 10.8-6.3.8-4.6 1.4-9.3 1.8-14h-6.4c-2.5 2.3 2.1 9-1 12-.6 1.2-1.7.9-2.8.5-1.4-.5-2.9.4-4 .1s-2-4.4-2.4-7.8a98 98 0 0 1 .9-21.4c9.3 1.1 17-1.2 25.8 1 1.2 9.9 1.2 19.7.4 29.3 4.6-1.9 9.4-4.8 14.9-3.3 9 2.4 8.2-5 19-1.7 3.4 1 5.5.2 7.3-1.3 1-11 3.5-22 5-34.7 2.2-17.2 7-34 8.4-50.7h-6.5c-2.4 2.2 2.2 8.9-1 12-.6 1.1-1.6.8-2.7.4-1.4-.5-3 .4-4 .1s-2-4.4-2.4-7.8c-.8-7 .1-15.8.9-21.3 9.2 1 17-1.3 25.8 1a186 186 0 0 1-5.5 64.5c-1 3.8-3.3 18.8-3.7 23-.2 2.1-.8 4.6-1.3 7.3h.3l3.6 1.8c0-.3 0-.6.2-.8a17 17 0 0 1 6.1-1l1.6-1.6c8.3-7.3-1.6 5 10.8 5s8.2-12.4 13.2-8.2c3.8 3.2 7.2-.7 12.8-.9.2-4.5.7-8.9 1.1-12 9.3 1 17-1.3 25.8.9.5 4 .8 7.9 1 11.8-.8.3-1.7.5-2.6.5 3.3 0 5.6-2.5 5.6-7 0-6.6 4.1 5 9-4 5-9.2 13.3 2.4 18.2-6.7 5-9 8.3-6.6 14.9-3.3l.2.1.4-3.1c2-17.2 6.9-34 8.3-50.7h-6.5c-2.4 2.2 2.2 8.9-.9 12-.6 1.1-1.7.8-2.8.4-1.4-.5-2.9.4-4 .1s-2-4.4-2.4-7.8a94 94 0 0 1 .9-21.3c9.2 1 17-1.3 25.8 1a185 185 0 0 1-5.5 64.3 12 12 0 0 1 6.3-2.4c6.6 0 7.4-10 17.3-6.6s6.6-6.6 19 1.6 9.9-6.6 20.6-2.4c10.8 4 10-5 19-1.7s12.4-6.6 19.8-2.5c7.4 4.2 16.5-1.6 16.5-1.6s.7-.4 1.7-.7c2-11 4.4-21.7 5.3-32.4h-6.5c-2.4 2.2 2.2 8.9-.9 12-.6 1.1-1.7.8-2.8.4-1.4-.5-2.9.4-4 .1-1.2-.3-2-4.4-2.4-7.8a94 94 0 0 1 .9-21.3c9.2 1 17-1.3 25.8 1 2 17 .5 34-2.3 49.5 4.3-.2 7.8-5 9.1-1.6 1.7 4 5.8-3.3 13.2 1.6 7.5 5 10.8-2.5 17.4.8 4.5 2.3 10.3-3 17-5.7-4.4 0-8.7 0-12.4.8-3.2-19 2-35.8 4.6-57.2 2.2-17 7-34 8.3-50.7h-6.4c-2.5 2.3 2.2 9-1 12-.6 1.2-1.7.9-2.8.5-1.3-.5-2.8.4-4 0s-2-4.3-2.3-7.7c-.9-7 0-15.9.8-21.4 9.3 1.1 17-1.2 25.8 1a185 185 0 0 1-5.4 64.5c-1 3.8-3.4 18.8-3.7 23-.3 3.4-1.7 7.9-1.9 12 0 2.7-3.1 8.5 2.8 8.3 4-.6.8-8.3 1.8-12 2.5-1 5.7-1 9.3-.9a165 165 0 0 1 1.8 25.6l-.3.1c3-1 5.5-2.5 9.8-.4 6.6 3.3 20.9-1.7 20.9-1.7V26.2s-13.8-5.4-22-11a69.7 69.7 0 0 0-15.7-6.4ZM76.2 735.4c-8 2-19.4.3-27.6 1.9-3.3-19 2-35.8 4.6-57.2 2-17 6.9-34 8.3-50.7H55c-2.5 2.3 2.2 9-1 12-.6 1.2-1.6.9-2.8.5-1.3-.5-2.8.4-4 0s-2-4.3-2.3-7.7c-.8-7 .1-15.9.9-21.4 9.2 1.1 17-1.2 25.8 1a185 185 0 0 1-5.5 64.5c-1 3.8-3.3 18.8-3.7 23-.3 3.4-1.7 7.9-1.8 12-.1 2.7-3.2 8.5 2.7 8.3 4-.6.9-8.3 1.9-12 2.4-1 5.6-1 9.2-.9a165 165 0 0 1 1.8 26.7Zm0-156c-8 1.8-19.4.1-27.6 1.8-3.3-19.1 2-35.8 4.6-57.2 2-17.1 6.9-34 8.3-50.7H55c-2.5 2.3 2.2 9-1 12-.6 1.2-1.6.9-2.8.4-1.3-.5-2.8.5-4 .2s-2-4.4-2.3-7.8c-.8-7 .1-15.9.9-21.4 9.2 1.1 17-1.3 25.8 1a185 185 0 0 1-5.5 64.5c-1 3.8-3.3 18.8-3.7 23-.3 3.4-1.7 7.8-1.8 12-.1 2.7-3.2 8.5 2.7 8.3 4-.6.9-8.4 1.9-12 2.4-1 5.6-1.1 9.2-1a165 165 0 0 1 1.8 26.8Zm0-156.2c-8 1.9-19.4.2-27.6 1.8-3.3-19 2-35.8 4.6-57.1 2-17.1 6.9-34 8.3-50.7H55c-2.5 2.2 2.2 9-1 12-.6 1.1-1.6.8-2.8.4-1.3-.5-2.8.4-4 .1s-2-4.4-2.3-7.8c-.8-7 .1-15.8.9-21.3 9.2 1 17-1.3 25.8 1v-.1a185 185 0 0 1-5.5 64.5 290 290 0 0 0-3.7 23c-.3 3.5-1.7 7.9-1.8 12-.1 2.7-3.2 8.6 2.7 8.4 4-.7.9-8.4 1.9-12 2.4-1 5.6-1.1 9.2-1 1.3 8.9 2 17.8 1.8 26.8Zm65 234.1c-7.9 2-19.4.3-27.6 1.9-3.3-19 2-35.8 4.6-57.2 2.1-17 7-34 8.3-50.7h-6.4c-2.5 2.3 2.2 9-1 12-.6 1.2-1.7.9-2.8.5-1.3-.5-2.8.4-4 .1-1.1-.3-2-4.4-2.4-7.8-.8-7 .2-15.9 1-21.3 9.2 1 17-1.3 25.7.9 2.8 22.8-.8 45.3-5.5 64.5-.9 3.9-3.3 18.9-3.7 23-.3 3.4-1.7 7.8-1.8 12 0 2.7-3.1 8.5 2.8 8.3 4-.6.8-8.3 1.8-12 2.4-1 5.7-1 9.2-.9a165 165 0 0 1 1.9 26.7Zm0-156c-7.9 1.8-19.4.1-27.6 1.8-3.3-19.1 2-35.9 4.6-57.2 2.1-17.1 7-34 8.3-50.7h-6.4c-2.5 2.3 2.2 9-1 12-.6 1.2-1.7.9-2.8.4-1.3-.5-2.8.5-4 .2-1.1-.3-2-4.4-2.4-7.8-.8-7 .2-15.9 1-21.4 9.2 1.1 17-1.3 25.7 1a181 181 0 0 1-5.5 64.5c-.9 3.8-3.3 18.8-3.7 23-.3 3.4-1.7 7.8-1.8 12 0 2.7-3.1 8.5 2.8 8.3 4-.6.8-8.4 1.8-12 2.4-1 5.7-1.1 9.2-1a165 165 0 0 1 1.9 26.8Zm0-156.2c-7.9 1.9-19.4.2-27.6 1.8-3.3-19 2-35.8 4.6-57.1 2.1-17.2 7-34 8.3-50.7h-6.4c-2.5 2.2 2.2 9-1 12-.6 1.1-1.7.8-2.8.4-1.3-.5-2.8.4-4 .1-1.1-.2-2-4.4-2.4-7.8-.8-6.9.2-15.8 1-21.3 9.2 1 17-1.3 25.7 1 2.8 22.7-.8 45.2-5.5 64.5-.9 3.8-3.3 18.8-3.7 23-.3 3.4-1.7 7.8-1.8 12 0 2.6-3.1 8.5 2.8 8.3 4-.7.8-8.4 1.8-12 2.4-1 5.7-1.1 9.2-1a165 165 0 0 1 1.9 26.8Zm65.1 390.3c-8 2-19.4.3-27.6 1.9-3.3-19 2-35.8 4.6-57.2 2-17 6.9-34 8.3-50.7h-6.5c-2.4 2.3 2.2 9-.9 12-.6 1.2-1.7.9-2.8.5-1.4-.5-2.9.4-4 0s-2-4.3-2.4-7.7c-.8-7 .1-15.9.9-21.4 9.2 1.1 17-1.2 25.8 1a186 186 0 0 1-5.5 64.5c-1 3.8-3.3 18.8-3.7 23-.3 3.4-1.7 7.9-1.8 12-.1 2.7-3.2 8.5 2.7 8.3 4-.6.9-8.3 1.9-12 2.4-1 5.6-1 9.2-.9 1.3 8.9 2 17.8 1.8 26.7Zm0-156c-8 1.8-19.4.1-27.6 1.8-3.3-19.1 2-35.8 4.6-57.2 2-17.1 6.9-34 8.3-50.7h-6.5c-2.4 2.3 2.2 9-.9 12-.6 1.2-1.7.9-2.8.4-1.4-.5-2.9.5-4 .2s-2-4.4-2.4-7.8c-.8-7 .1-15.9.9-21.4 9.2 1.1 17-1.3 25.8 1a186 186 0 0 1-5.5 64.5c-1 3.8-3.3 18.8-3.7 23-.3 3.4-1.7 7.8-1.8 12-.1 2.7-3.2 8.5 2.7 8.3 4-.6.9-8.4 1.9-12 2.4-1 5.6-1.1 9.2-1 1.3 9 2 17.9 1.8 26.8Zm0-156.2c-8 1.9-19.4.2-27.6 1.8-3.3-19 2-35.8 4.6-57.1 2-17.1 6.9-34 8.3-50.7h-6.5c-2.4 2.2 2.2 9-.9 12-.6 1.1-1.7.8-2.8.4-1.4-.5-2.9.4-4 .1s-2-4.4-2.4-7.8c-.8-7 .1-15.8.9-21.3 9.2 1 17-1.3 25.8 1v-.1c2.7 22.8-.9 45.3-5.5 64.5a290 290 0 0 0-3.7 23c-.3 3.5-1.7 7.9-1.8 12-.1 2.7-3.2 8.6 2.7 8.4 4-.7.9-8.4 1.9-12 2.4-1 5.6-1.1 9.2-1 1.3 8.9 2 17.8 1.8 26.8ZM241 222.5c9.3 1 17-1.3 25.8 1a185 185 0 0 1-5.5 64.5 276 276 0 0 0-3.6 23c-.3 3.4-1.8 7.8-1.9 12 0 2.6-3.1 8.5 2.8 8.3 4-.7.8-8.4 1.8-12 2.4-1 5.7-1.1 9.2-1a165 165 0 0 1 1.9 26.8c-8 1.9-19.5.2-27.7 1.8-3.2-19 2-35.8 4.6-57.1 2.2-17.2 7-34 8.3-50.7h-6.4c-2.5 2.2 2.2 9-1 12-.6 1.1-1.7.8-2.8.4-1.3-.5-2.8.4-4 .1-1.1-.2-2-4.4-2.4-7.8a94 94 0 0 1 1-21.3Zm0 156.1c9.3 1.1 17-1.3 25.8 1a185 185 0 0 1-5.5 64.5 276 276 0 0 0-3.6 23c-.3 3.4-1.8 7.8-1.9 12 0 2.7-3.1 8.5 2.8 8.3 4-.6.8-8.4 1.8-12 2.4-1 5.7-1.1 9.2-1a165 165 0 0 1 1.9 26.8c-8 1.9-19.5.2-27.7 1.9-3.2-19.1 2-35.9 4.6-57.2 2.2-17.1 7-34 8.3-50.7h-6.4c-2.5 2.3 2.2 9-1 12-.6 1.2-1.7.9-2.8.4-1.3-.5-2.8.5-4 .2s-2-4.4-2.4-7.8a94 94 0 0 1 1-21.4Zm0 156.2c9.3 1 17-1.3 25.8.9a185 185 0 0 1-5.5 64.5c-.9 3.9-3.3 18.9-3.6 23-.3 3.4-1.8 7.8-1.9 12 0 2.7-3.1 8.5 2.8 8.3 4-.6.8-8.3 1.8-12 2.4-1 5.7-1 9.2-.9a165 165 0 0 1 1.9 26.7c-8 2-19.5.3-27.7 1.9-3.2-19 2-35.8 4.6-57.2 2.2-17 7-34 8.3-50.7h-6.4c-2.5 2.3 2.2 9-1 12-.6 1.2-1.7.9-2.8.5-1.3-.5-2.8.4-4 .1s-2-4.4-2.4-7.8a94 94 0 0 1 1-21.3Zm30.5 278.7c-8 1.9-19.5.2-27.7 1.8-3.2-19 2-35.8 4.6-57.1 2.2-17.2 7-34 8.3-50.7h-6.4c-2.5 2.2 2.2 8.9-1 12-.6 1.1-1.7.8-2.8.4-1.3-.5-2.8.4-4 .1s-2-4.4-2.4-7.8a94 94 0 0 1 1-21.3c9.2 1 17-1.3 25.7 1a185 185 0 0 1-5.5 64.5 276 276 0 0 0-3.6 23c-.3 3.4-1.8 7.8-1.9 12 0 2.6-3.1 8.5 2.8 8.3 4-.7.8-8.4 1.8-12 2.4-1 5.7-1.1 9.2-1a165 165 0 0 1 1.9 26.8Zm65-78c-7.9 1.8-19.4.2-27.6 1.8-3.3-19 2-35.8 4.6-57.2 2.1-17 6.9-34 8.3-50.7h-6.5c-2.4 2.3 2.2 9-.9 12-.6 1.2-1.7.9-2.8.5-1.4-.5-2.9.4-4 0-1.1-.2-2-4.3-2.4-7.7-.8-7 .1-15.9.9-21.4 9.3 1.1 17-1.2 25.8 1a185 185 0 0 1-5.5 64.5c-1 3.8-3.3 18.8-3.7 23-.3 3.4-1.7 7.9-1.8 12-.1 2.7-3.1 8.5 2.7 8.3 4-.6.9-8.3 1.9-12 2.4-1 5.6-1 9.2-.9 1.3 8.9 2 17.8 1.8 26.7Zm0-156.2c-7.9 2-19.4.2-27.6 1.9-3.3-19.1 2-35.8 4.6-57.2 2.1-17.1 6.9-34 8.3-50.7h-6.5c-2.4 2.3 2.2 9-.9 12-.6 1.2-1.7.9-2.8.4-1.4-.5-2.9.5-4 .2s-2-4.4-2.4-7.8c-.8-7 .1-15.9.9-21.4 9.3 1.1 17-1.3 25.8 1a185 185 0 0 1-5.5 64.5c-1 3.8-3.3 18.8-3.7 23-.3 3.4-1.7 7.8-1.8 12-.1 2.7-3.1 8.5 2.7 8.3 4-.6.9-8.4 1.9-12 2.4-1 5.6-1.1 9.2-1 1.3 9 2 17.9 1.8 26.8Zm0-156.1c-7.9 1.9-19.4.2-27.6 1.8-3.3-19 2-35.8 4.6-57.1 2.1-17.1 6.9-34 8.3-50.7h-6.5c-2.4 2.2 2.2 9-.9 12-.6 1.1-1.7.8-2.8.4-1.4-.5-2.9.4-4 .1-1.1-.3-2-4.4-2.4-7.8-.8-7 .1-15.8.9-21.3 9.3 1 17-1.3 25.8 1v-.1a185 185 0 0 1-5.5 64.5 290 290 0 0 0-3.7 23c-.3 3.5-1.7 7.9-1.8 12-.1 2.7-3.1 8.6 2.7 8.4 4-.7.9-8.4 1.9-12 2.4-1 5.6-1.1 9.2-1 1.3 8.9 2 17.8 1.8 26.8Zm34.6-200.7c9.3 1 17-1.3 25.9 1a185 185 0 0 1-5.5 64.5c-1 3.8-3.4 18.8-3.7 23-.3 3.4-1.7 7.8-1.9 12 0 2.6-3.1 8.5 2.8 8.3 4-.7.8-8.4 1.8-12 2.5-1 5.7-1.1 9.3-1a165 165 0 0 1 1.8 26.8c-8 1.9-19.4.2-27.7 1.8-3.2-19 2-35.8 4.6-57.1 2.2-17.2 7-34 8.3-50.7h-6.4c-2.5 2.2 2.2 9-1 12-.6 1.1-1.6.8-2.8.4-1.3-.5-2.8.4-4 .1-1.1-.2-2-4.4-2.3-7.8a94 94 0 0 1 .8-21.3Zm0 156.1c9.3 1.1 17-1.3 25.9 1a185 185 0 0 1-5.5 64.5c-1 3.8-3.4 18.8-3.7 23-.3 3.4-1.7 7.8-1.9 12 0 2.7-3.1 8.5 2.8 8.3 4-.6.8-8.4 1.8-12 2.5-1 5.7-1.1 9.3-1a165 165 0 0 1 1.8 26.8c-8 1.9-19.4.2-27.7 1.9-3.2-19.1 2-35.9 4.6-57.2 2.2-17.1 7-34 8.3-50.7h-6.4c-2.5 2.3 2.2 9-1 12-.6 1.2-1.6.9-2.8.4-1.3-.5-2.8.5-4 .2s-2-4.4-2.3-7.8a94 94 0 0 1 .8-21.4Zm0 156.2c9.3 1 17-1.3 25.9.9a185 185 0 0 1-5.5 64.5c-1 3.9-3.4 18.9-3.7 23-.3 3.4-1.7 7.8-1.9 12 0 2.7-3.1 8.5 2.8 8.3 4-.6.8-8.3 1.8-12 2.5-1 5.7-1 9.3-.9a165 165 0 0 1 1.8 26.7c-8 2-19.4.3-27.7 1.9-3.2-19 2-35.8 4.6-57.2 2.2-17 7-34 8.3-50.7h-6.4c-2.5 2.3 2.2 9-1 12-.6 1.2-1.6.9-2.8.5-1.3-.5-2.8.4-4 .1s-2-4.4-2.3-7.8a94 94 0 0 1 .8-21.3Zm30.5 278.7c-8 1.9-19.4.2-27.7 1.8-3.2-19 2-35.8 4.6-57.1 2.2-17.2 7-34 8.3-50.7h-6.4c-2.5 2.2 2.2 8.9-1 12-.6 1.1-1.6.8-2.8.4-1.3-.5-2.8.4-4 .1s-2-4.4-2.3-7.8a94 94 0 0 1 .8-21.3c9.3 1 17-1.3 25.9 1a185 185 0 0 1-5.5 64.5c-1 3.8-3.4 18.8-3.7 23-.3 3.4-1.7 7.8-1.9 12 0 2.6-3.1 8.5 2.8 8.3 4-.7.8-8.4 1.8-12 2.5-1 5.7-1.1 9.3-1a165 165 0 0 1 1.8 26.8Zm34.6-669c9.3 1 17-1.3 25.8.9a185 185 0 0 1-5.5 64.5c-1 3.9-3.3 18.8-3.7 23-.3 3.5-1.7 7.9-1.8 12-.1 2.7-3.1 8.6 2.7 8.3 4-.6.9-8.3 1.9-12 2.4-1 5.6-1 9.2-.9a165 165 0 0 1 1.9 26.8c-8 1.8-19.5.2-27.7 1.8-3.3-19 2-35.8 4.6-57.2 2.1-17 6.9-34 8.3-50.7h-6.5c-2.4 2.3 2.2 9-.9 12-.6 1.2-1.7.9-2.8.5-1.4-.5-2.9.4-4 .1-1.2-.3-2-4.4-2.4-7.8a91 91 0 0 1 .9-21.3Zm30.5 747c-8 2-19.5.3-27.7 1.9-3.3-19 2-35.8 4.6-57.2 2.1-17 6.9-34 8.3-50.7h-6.5c-2.4 2.3 2.2 9-.9 12-.6 1.2-1.7.9-2.8.5-1.4-.5-2.9.4-4 .1-1.2-.3-2-4.4-2.4-7.8-.8-7 .1-15.9.9-21.4 9.3 1.1 17-1.2 25.8 1 2.7 22.8-.8 45.3-5.5 64.5a290 290 0 0 0-3.7 23c-.3 3.4-1.7 7.8-1.8 12-.1 2.7-3.1 8.5 2.7 8.3 4-.6.9-8.4 1.9-12 2.4-1 5.6-1 9.2-.9a165 165 0 0 1 1.9 26.7Zm0-156c-8 1.8-19.5.2-27.7 1.8-3.3-19 2-35.8 4.6-57.2 2.1-17 6.9-34 8.3-50.7h-6.5c-2.4 2.3 2.2 9-.9 12-.6 1.2-1.7.9-2.8.5-1.4-.5-2.9.4-4 0-1.2-.2-2-4.3-2.4-7.7-.8-7 .1-15.9.9-21.4 9.3 1.1 17-1.2 25.8 1a185 185 0 0 1-5.5 64.5c-1 3.8-3.3 18.8-3.7 23-.3 3.4-1.7 7.9-1.8 12-.1 2.7-3.1 8.5 2.7 8.3 4-.6.9-8.3 1.9-12 2.4-1 5.6-1 9.2-.9a165 165 0 0 1 1.9 26.7Zm0-156.2c-8 2-19.5.2-27.7 1.9-3.3-19.1 2-35.8 4.6-57.2 2.1-17.1 6.9-34 8.3-50.7h-6.5c-2.4 2.3 2.2 9-.9 12-.6 1.2-1.7.9-2.8.4-1.4-.5-2.9.5-4 .2-1.2-.3-2-4.4-2.4-7.8-.8-7 .1-15.9.9-21.4 9.3 1.1 17-1.3 25.8 1a185 185 0 0 1-5.5 64.5c-1 3.8-3.3 18.8-3.7 23-.3 3.4-1.7 7.8-1.8 12-.1 2.7-3.1 8.5 2.7 8.3 4-.6.9-8.4 1.9-12 2.4-1 5.6-1.1 9.2-1 1.3 9 2 17.9 1.9 26.8Zm0-156.1c-8 1.9-19.5.2-27.7 1.8-3.3-19 2-35.8 4.6-57.1 2.1-17.1 6.9-34 8.3-50.7h-6.5c-2.4 2.2 2.2 9-.9 12-.6 1.1-1.7.8-2.8.4-1.4-.5-2.9.4-4 .1-1.2-.3-2-4.4-2.4-7.8-.8-7 .1-15.8.9-21.3 9.3 1 17-1.3 25.8 1v-.1a185 185 0 0 1-5.5 64.5 290 290 0 0 0-3.7 23c-.3 3.5-1.7 7.9-1.8 12-.1 2.7-3.1 8.6 2.7 8.4 4-.7.9-8.4 1.9-12 2.4-1 5.6-1.1 9.2-1 1.3 8.9 2 17.8 1.9 26.8Zm42.9 140.1c-.7 1.2-1.7.9-2.8.5-1.4-.5-3 .4-4 .1s-2-4.4-2.4-7.8a91 91 0 0 1 .9-21.3c9.2 1 17-1.3 25.8.9 2.7 22.8-.9 45.3-5.5 64.5a290 290 0 0 0-3.7 23c-.3 3.4-1.7 7.8-1.9 12 0 2.7-3 8.5 2.8 8.3 4-.6.9-8.3 1.9-12 2.4-1 5.6-1 9.2-.9a165 165 0 0 1 1.8 26.7c-8 2-19.4.3-27.6 1.9-3.3-19 2-35.8 4.6-57.2 2-17 6.9-34 8.3-50.7h-6.5c-2.5 2.3 2.2 9-1 12Zm22.1-62c-8 1.8-19.4.1-27.6 1.8-3.3-19.1 2-35.9 4.6-57.2 2-17.1 6.9-34 8.3-50.7h-6.5c-2.5 2.3 2.2 9-1 12-.6 1.2-1.6.9-2.7.4-1.4-.5-3 .5-4 .2s-2-4.4-2.4-7.8c-.8-7 .1-15.9.9-21.4 9.2 1.1 17-1.3 25.8 1 2.7 22.7-.9 45.3-5.5 64.5-1 3.8-3.3 18.8-3.7 23-.3 3.4-1.7 7.8-1.9 12 0 2.7-3 8.5 2.8 8.3 4-.6.9-8.4 1.9-12 2.4-1 5.6-1.1 9.2-1a165 165 0 0 1 1.8 26.8Zm-30.4-278.8c9.2 1.1 17-1.2 25.8 1a186 186 0 0 1-5.5 64.5c-1 3.8-3.3 18.8-3.7 23-.3 3.4-1.7 7.8-1.9 12 0 2.6-3 8.5 2.8 8.3 4-.7.9-8.4 1.9-12 2.4-1 5.6-1.1 9.2-1a165 165 0 0 1 1.8 26.8c-8 2-19.4.3-27.7 1.9-3.2-19 2-35.8 4.7-57.2 2-17.1 6.8-34 8.3-50.7h-6.5c-2.5 2.3 2.2 9-1 12-.6 1.2-1.6.9-2.8.5-1.3-.5-2.8.4-4 .1-1-.3-2-4.4-2.3-7.8-.8-7 .1-15.9.9-21.4Zm30.4 591c-8 1.9-19.4.2-27.6 1.8-3.3-19 2-35.8 4.6-57.1 2-17.2 6.9-34 8.3-50.7h-6.5c-2.5 2.2 2.2 8.9-1 12-.6 1.1-1.6.8-2.7.4-1.4-.5-3 .4-4 .1s-2-4.4-2.4-7.8c-.8-7 .1-15.8.9-21.3 9.2 1 17-1.3 25.8 1a186 186 0 0 1-5.5 64.5c-1 3.8-3.3 18.8-3.7 23-.3 3.4-1.7 7.8-1.9 12 0 2.6-3 8.5 2.8 8.3 4-.7.9-8.4 1.9-12 2.4-1 5.6-1.1 9.2-1a165 165 0 0 1 1.8 26.8Zm34.6-669c9.3 1 17-1.3 25.8.9a185 185 0 0 1-5.5 64.5c-1 3.9-3.3 18.8-3.7 23-.3 3.5-1.7 7.9-1.8 12-.1 2.7-3.1 8.6 2.8 8.3 4-.6.8-8.3 1.8-12 2.4-1 5.7-1 9.2-.9 1.4 8.9 2 17.8 1.9 26.8-8 1.8-19.5.2-27.7 1.8-3.3-19 2-35.8 4.6-57.2 2.1-17 6.9-34 8.3-50.7h-6.4c-2.5 2.3 2.1 9-1 12-.6 1.2-1.7.9-2.8.5-1.4-.5-2.9.4-4 .1-1.1-.3-2-4.4-2.4-7.8-.8-7 .2-15.9.9-21.3Zm30.5 591c-8 1.8-19.5.2-27.7 1.8-3.3-19 2-35.8 4.6-57.2 2.1-17 6.9-34 8.3-50.7h-6.4c-2.5 2.3 2.1 9-1 12-.6 1.2-1.7.9-2.8.5-1.4-.5-2.9.4-4 0s-2-4.3-2.4-7.7a98 98 0 0 1 .9-21.4c9.3 1.1 17-1.2 25.8 1a185 185 0 0 1-5.5 64.5c-1 3.8-3.3 18.8-3.7 23-.3 3.4-1.7 7.9-1.8 12-.1 2.7-3.1 8.5 2.8 8.3 4-.6.8-8.3 1.8-12 2.4-1 5.7-1 9.2-.9 1.4 8.9 2 17.8 1.9 26.7Zm0-156.2c-8 2-19.5.2-27.7 1.9-3.3-19.1 2-35.8 4.6-57.2 2.1-17.1 6.9-34 8.3-50.7h-6.4c-2.5 2.3 2.1 9-1 12-.6 1.2-1.7.9-2.8.4-1.4-.5-2.9.5-4 .2s-2-4.4-2.4-7.8a98 98 0 0 1 .9-21.4c9.3 1.1 17-1.3 25.8 1a185 185 0 0 1-5.5 64.5c-1 3.8-3.3 18.8-3.7 23-.3 3.4-1.7 7.8-1.8 12-.1 2.7-3.1 8.5 2.8 8.3 4-.6.8-8.4 1.8-12 2.4-1 5.7-1.1 9.2-1 1.4 9 2 17.9 1.9 26.8Zm0-156.1c-8 1.9-19.5.2-27.7 1.8-3.3-19 2-35.8 4.6-57.1 2.1-17.1 6.9-34 8.3-50.7h-6.4c-2.5 2.2 2.1 9-1 12-.6 1.1-1.7.8-2.8.4-1.4-.5-2.9.4-4 .1s-2-4.4-2.4-7.8a97 97 0 0 1 .9-21.3c9.3 1 17-1.3 25.8 1v-.1a185 185 0 0 1-5.5 64.5 290 290 0 0 0-3.7 23c-.3 3.5-1.7 7.9-1.8 12-.1 2.7-3.1 8.6 2.8 8.4 4-.7.8-8.4 1.8-12 2.4-1 5.7-1.1 9.2-1 1.4 8.9 2 17.8 1.9 26.8Zm42.9 140.1c-.7 1.2-1.7.9-2.8.5-1.4-.5-3 .4-4 .1-1.2-.3-2-4.4-2.4-7.8a91 91 0 0 1 .9-21.3c9.2 1 17-1.3 25.8.9a185 185 0 0 1-5.5 64.5 290 290 0 0 0-3.7 23c-.3 3.4-1.7 7.8-1.9 12 0 2.7-3 8.5 2.8 8.3 4-.6.9-8.3 1.9-12 2.4-1 5.6-1 9.2-.9 1.3 8.9 2 17.8 1.8 26.7-8 2-19.4.3-27.6 1.9-3.3-19 2-35.8 4.6-57.2 2-17 6.9-34 8.3-50.7h-6.5c-2.5 2.3 2.2 9-1 12Zm22.1-62c-8 1.8-19.4.1-27.6 1.8-3.3-19.1 2-35.9 4.6-57.2 2-17.1 6.9-34 8.3-50.7h-6.5c-2.5 2.3 2.2 9-1 12-.6 1.2-1.6.9-2.7.4-1.4-.5-3 .5-4 .2-1.2-.3-2-4.4-2.4-7.8-.8-7 .1-15.9.9-21.4 9.2 1.1 17-1.3 25.8 1a185 185 0 0 1-5.5 64.5c-1 3.8-3.3 18.8-3.7 23-.3 3.4-1.7 7.8-1.9 12 0 2.7-3 8.5 2.8 8.3 4-.6.9-8.4 1.9-12 2.4-1 5.6-1.1 9.2-1 1.3 9 2 17.9 1.8 26.8Zm-30.4-278.8c9.2 1 17-1.3 25.8 1a185 185 0 0 1-5.5 64.5c-1 3.8-3.3 18.8-3.7 23-.3 3.4-1.7 7.8-1.9 12 0 2.6-3 8.5 2.8 8.3 4-.7.9-8.4 1.9-12 2.4-1 5.6-1.1 9.2-1 1.3 8.9 2 17.8 1.8 26.8-8 1.9-19.4.2-27.6 1.8-3.3-19 2-35.8 4.6-57.1 2-17.2 6.9-34 8.3-50.7h-6.5c-2.5 2.2 2.2 9-1 12-.6 1.1-1.6.8-2.7.4-1.4-.5-3 .4-4 .1-1.2-.2-2-4.4-2.4-7.8-.8-6.9.1-15.8.9-21.3Zm30.4 591c-8 1.9-19.4.2-27.6 1.8-3.3-19 2-35.8 4.6-57.1 2-17.2 6.9-34 8.3-50.7h-6.5c-2.5 2.2 2.2 8.9-1 12-.6 1.1-1.6.8-2.7.4-1.4-.5-3 .4-4 .1-1.2-.3-2-4.4-2.4-7.8-.8-7 .1-15.8.9-21.3 9.2 1 17-1.3 25.8 1a185 185 0 0 1-5.5 64.5c-1 3.8-3.3 18.8-3.7 23-.3 3.4-1.7 7.8-1.9 12 0 2.6-3 8.5 2.8 8.3 4-.7.9-8.4 1.9-12 2.4-1 5.6-1.1 9.2-1 1.3 8.9 2 17.8 1.8 26.8Zm34.6-669c9.3 1 17-1.3 25.8.9 2.7 22.7-.8 45.3-5.5 64.5-1 3.9-3.3 18.8-3.7 23-.3 3.5-1.7 7.9-1.8 12 0 2.7-3.1 8.6 2.8 8.3 4-.6.8-8.3 1.8-12 2.4-1 5.7-1 9.2-.9a165 165 0 0 1 1.9 26.8c-8 1.8-19.5.2-27.7 1.8-3.3-19 2-35.8 4.6-57.2 2.1-17 6.9-34 8.3-50.7h-6.4c-2.5 2.3 2.1 9-1 12-.6 1.2-1.7.9-2.8.5-1.4-.5-2.9.4-4 .1-1.1-.3-2-4.4-2.4-7.8-.8-7 .2-15.9.9-21.3Zm30.5 591c-8 1.8-19.5.2-27.7 1.8-3.3-19 2-35.8 4.6-57.2 2.1-17 6.9-34 8.3-50.7h-6.4c-2.5 2.3 2.1 9-1 12-.6 1.2-1.7.9-2.8.5-1.4-.5-2.9.4-4 0s-2-4.3-2.4-7.7a98 98 0 0 1 .9-21.4c9.3 1.1 17-1.2 25.8 1 2.7 22.7-.8 45.2-5.5 64.5-1 3.8-3.3 18.8-3.7 23-.3 3.4-1.7 7.9-1.8 12 0 2.7-3.1 8.5 2.8 8.3 4-.6.8-8.3 1.8-12 2.4-1 5.7-1 9.2-.9a165 165 0 0 1 1.9 26.7Zm0-156.2c-8 2-19.5.2-27.7 1.9-3.3-19.1 2-35.8 4.6-57.2 2.1-17.1 6.9-34 8.3-50.7h-6.4c-2.5 2.3 2.1 9-1 12-.6 1.2-1.7.9-2.8.4-1.4-.5-2.9.5-4 .2s-2-4.4-2.4-7.8a98 98 0 0 1 .9-21.4c9.3 1.1 17-1.3 25.8 1 2.7 22.7-.8 45.2-5.5 64.5-1 3.8-3.3 18.8-3.7 23-.3 3.4-1.7 7.8-1.8 12 0 2.7-3.1 8.5 2.8 8.3 4-.6.8-8.4 1.8-12 2.4-1 5.7-1.1 9.2-1a165 165 0 0 1 1.9 26.8Zm0-156.1c-8 1.9-19.5.2-27.7 1.8-3.3-19 2-35.8 4.6-57.1 2.1-17.1 6.9-34 8.3-50.7h-6.4c-2.5 2.2 2.1 9-1 12-.6 1.1-1.7.8-2.8.4-1.4-.5-2.9.4-4 .1s-2-4.4-2.4-7.8a97 97 0 0 1 .9-21.3c9.3 1 17-1.3 25.8 1v-.1c2.7 22.8-.8 45.3-5.5 64.5a290 290 0 0 0-3.7 23c-.3 3.5-1.7 7.9-1.8 12 0 2.7-3.1 8.6 2.8 8.4 4-.7.8-8.4 1.8-12 2.4-1 5.7-1.1 9.2-1 1.4 8.9 2 17.8 1.9 26.8Zm34.6-200.7c9.2 1 17-1.3 25.8 1a186 186 0 0 1-5.5 64.5c-1 3.8-3.3 18.8-3.7 23-.3 3.4-1.7 7.8-1.8 12-.1 2.6-3.2 8.5 2.7 8.3 4-.7.9-8.4 1.9-12 2.4-1 5.6-1.1 9.2-1a165 165 0 0 1 1.8 26.8c-8 1.9-19.4.2-27.6 1.8-3.3-19 2-35.8 4.6-57.1 2-17.2 6.9-34 8.3-50.7h-6.5c-2.4 2.2 2.2 9-1 12-.6 1.1-1.6.8-2.7.4-1.4-.5-3 .4-4 .1-1.2-.2-2-4.4-2.4-7.8-.8-6.9.1-15.8.9-21.3Zm30.4 434.8c-8 2-19.4.3-27.6 1.9-3.3-19 2-35.8 4.6-57.2 2-17 6.9-34 8.3-50.7h-6.5c-2.4 2.3 2.2 9-1 12-.6 1.2-1.6.9-2.7.5-1.4-.5-3 .4-4 .1s-2-4.4-2.4-7.8a91 91 0 0 1 .9-21.3c9.2 1 17-1.3 25.8.9 2.7 22.8-.9 45.3-5.5 64.5a290 290 0 0 0-3.7 23c-.3 3.4-1.7 7.8-1.8 12-.1 2.7-3.2 8.5 2.7 8.3 4-.6.9-8.3 1.9-12 2.4-1 5.6-1 9.2-.9a165 165 0 0 1 1.8 26.7Zm0-156c-8 1.8-19.4.1-27.6 1.8-3.3-19.1 2-35.9 4.6-57.2 2-17.1 6.9-34 8.3-50.7h-6.5c-2.4 2.3 2.2 9-1 12-.6 1.2-1.6.9-2.7.4-1.4-.5-3 .5-4 .2s-2-4.4-2.4-7.8c-.8-7 .1-15.9.9-21.4 9.2 1.1 17-1.3 25.8 1 2.7 22.7-.9 45.3-5.5 64.5-1 3.8-3.3 18.8-3.7 23-.3 3.4-1.7 7.8-1.8 12-.1 2.7-3.2 8.5 2.7 8.3 4-.6.9-8.4 1.9-12 2.4-1 5.6-1.1 9.2-1a165 165 0 0 1 1.8 26.8Zm0-312.4c-8 2-19.4.3-27.6 1.9-3.3-19 2-35.8 4.6-57.2 2-17 6.9-34 8.3-50.7h-6.5c-2.4 2.3 2.2 9-1 12-.6 1.2-1.6 1-2.7.5-1.4-.5-3 .4-4 .1s-2-4.4-2.4-7.8a91 91 0 0 1 .9-21.3c9.2 1 17-1.3 25.8.9 2.7 22.8-.9 45.3-5.5 64.5a290 290 0 0 0-3.7 23c-.3 3.4-1.7 7.9-1.8 12-.1 2.7-3.2 8.6 2.7 8.3 4-.6.9-8.3 1.9-12 2.4-1 5.6-1 9.2-.9a165 165 0 0 1 1.8 26.7Zm34.6-44.4c9.3 1 17-1.3 25.8.9a185 185 0 0 1-5.5 64.5c-.9 3.9-3.3 18.8-3.7 23-.3 3.5-1.7 7.9-1.8 12 0 2.7-3.1 8.6 2.8 8.3 4-.6.8-8.3 1.8-12 2.4-1 5.7-1 9.2-.9a165 165 0 0 1 1.9 26.8c-8 1.8-19.5.2-27.7 1.8-3.3-19 2-35.8 4.6-57.2 2.1-17 7-34 8.3-50.7h-6.4c-2.5 2.3 2.1 9-1 12-.6 1.2-1.7.9-2.8.5-1.3-.5-2.8.4-4 .1-1.1-.3-2-4.4-2.4-7.8-.8-7 .2-15.9 1-21.3Zm30.5 591c-8 1.8-19.5.2-27.7 1.8-3.3-19 2-35.8 4.6-57.2 2.1-17 7-34 8.3-50.7h-6.4c-2.5 2.3 2.1 9-1 12-.6 1.2-1.7.9-2.8.5-1.3-.5-2.8.4-4 0-1.1-.2-2-4.3-2.4-7.7-.8-7 .2-15.9 1-21.4 9.2 1.1 17-1.2 25.7 1a185 185 0 0 1-5.5 64.5c-.9 3.8-3.3 18.8-3.7 23-.3 3.4-1.7 7.9-1.8 12 0 2.7-3.1 8.5 2.8 8.3 4-.6.8-8.3 1.8-12 2.4-1 5.7-1 9.2-.9a165 165 0 0 1 1.9 26.7Zm0-156.2c-8 2-19.5.2-27.7 1.9-3.3-19.1 2-35.8 4.6-57.2 2.1-17.1 7-34 8.3-50.7h-6.4c-2.5 2.3 2.1 9-1 12-.6 1.2-1.7.9-2.8.4-1.3-.5-2.8.5-4 .2-1.1-.3-2-4.4-2.4-7.8-.8-7 .2-15.9 1-21.4 9.2 1.1 17-1.3 25.7 1a185 185 0 0 1-5.5 64.5c-.9 3.8-3.3 18.8-3.7 23-.3 3.4-1.7 7.8-1.8 12 0 2.7-3.1 8.5 2.8 8.3 4-.6.8-8.4 1.8-12 2.4-1 5.7-1.1 9.2-1a165 165 0 0 1 1.9 26.8Zm0-156.1c-8 1.9-19.5.2-27.7 1.8-3.3-19 2-35.8 4.6-57.1 2.1-17.1 7-34 8.3-50.7h-6.4c-2.5 2.2 2.1 9-1 12-.6 1.1-1.7.8-2.8.4-1.3-.5-2.8.4-4 .1-1.1-.3-2-4.4-2.4-7.8a91 91 0 0 1 1-21.3c9.2 1 17-1.3 25.7 1v-.1a185 185 0 0 1-5.5 64.5c-.9 3.9-3.3 18.9-3.7 23-.3 3.5-1.7 7.9-1.8 12 0 2.7-3.1 8.6 2.8 8.4 4-.7.8-8.4 1.8-12 2.4-1 5.7-1.1 9.2-1 1.4 8.9 2 17.8 1.9 26.8Zm34.6-200.7c9.2 1 17-1.3 25.8 1a186 186 0 0 1-5.5 64.5c-1 3.8-3.3 18.8-3.7 23-.3 3.4-1.7 7.8-1.8 12-.1 2.6-3.2 8.5 2.7 8.3 4-.7.9-8.4 1.9-12 2.4-1 5.6-1.1 9.2-1 1.3 8.9 2 17.8 1.8 26.8-8 1.9-19.4.2-27.6 1.8-3.3-19 2-35.8 4.6-57.1 2-17.2 6.9-34 8.3-50.7h-6.5c-2.4 2.2 2.2 9-.9 12-.6 1.1-1.7.8-2.8.4-1.4-.5-2.9.4-4 .1-1.2-.2-2-4.4-2.4-7.8a94 94 0 0 1 .9-21.3ZM922 657.3c-8 2-19.4.3-27.6 1.9-3.3-19 2-35.8 4.6-57.2 2-17 6.9-34 8.3-50.7h-6.5c-2.4 2.3 2.2 9-.9 12-.6 1.2-1.7.9-2.8.5-1.4-.5-2.9.4-4 .1s-2-4.4-2.4-7.8a94 94 0 0 1 .9-21.3c9.2 1 17-1.3 25.8.9 2.7 22.8-.9 45.3-5.5 64.5a290 290 0 0 0-3.7 23c-.3 3.4-1.7 7.8-1.8 12-.1 2.7-3.2 8.5 2.7 8.3 4-.6.9-8.3 1.9-12 2.4-1 5.6-1 9.2-.9 1.3 8.9 2 17.8 1.8 26.7Zm0-156c-8 1.8-19.4.1-27.6 1.8-3.3-19.1 2-35.9 4.6-57.2 2-17.1 6.9-34 8.3-50.7h-6.5c-2.4 2.3 2.2 9-.9 12-.6 1.2-1.7.9-2.8.4-1.4-.5-2.9.5-4 .2s-2-4.4-2.4-7.8a94 94 0 0 1 .9-21.4c9.2 1.1 17-1.3 25.8 1 2.7 22.7-.9 45.3-5.5 64.5-1 3.8-3.3 18.8-3.7 23-.3 3.4-1.7 7.8-1.8 12-.1 2.7-3.2 8.5 2.7 8.3 4-.6.9-8.4 1.9-12 2.4-1 5.6-1.1 9.2-1 1.3 9 2 17.9 1.8 26.8Zm0-312.4c-8 2-19.4.3-27.6 1.9-3.3-19 2-35.8 4.6-57.2 2-17 6.9-34 8.3-50.7h-6.5c-2.4 2.3 2.2 9-.9 12-.6 1.2-1.7 1-2.8.5-1.4-.5-2.9.4-4 .1s-2-4.4-2.4-7.8a91 91 0 0 1 .9-21.3c9.2 1 17-1.3 25.8.9 2.7 22.8-.9 45.3-5.5 64.5a290 290 0 0 0-3.7 23c-.3 3.4-1.7 7.9-1.8 12-.1 2.7-3.2 8.6 2.7 8.3 4-.6.9-8.3 1.9-12 2.4-1 5.6-1 9.2-.9 1.3 8.9 2 17.8 1.8 26.7Zm34.6-44.4c9.3 1 17-1.3 25.8.9a185 185 0 0 1-5.5 64.5c-.9 3.9-3.3 18.8-3.6 23-.3 3.5-1.8 7.9-1.9 12 0 2.7-3.1 8.6 2.8 8.3 4-.6.8-8.3 1.8-12 2.4-1 5.7-1 9.2-.9a165 165 0 0 1 1.9 26.8c-8 1.8-19.5.2-27.7 1.8-3.3-19 2-35.8 4.6-57.2 2.2-17 7-34 8.3-50.7H966c-2.5 2.3 2.2 9-1 12-.6 1.2-1.7.9-2.8.5-1.3-.5-2.8.4-4 .1-1.1-.3-2-4.4-2.3-7.8a94 94 0 0 1 .8-21.3Zm30.5 591c-8 1.8-19.5.2-27.7 1.8-3.3-19 2-35.8 4.6-57.2 2.2-17 7-34 8.3-50.7H966c-2.5 2.3 2.2 9-1 12-.6 1.2-1.7.9-2.8.5-1.3-.5-2.8.4-4 0s-2-4.3-2.3-7.7c-.9-7 0-15.9.8-21.4 9.3 1.1 17-1.2 25.8 1a185 185 0 0 1-5.5 64.5 276 276 0 0 0-3.6 23c-.3 3.4-1.8 7.9-1.9 12 0 2.7-3.1 8.5 2.8 8.3 4-.6.8-8.3 1.8-12 2.4-1 5.7-1 9.2-.9a165 165 0 0 1 1.9 26.7Zm0-156.2c-8 2-19.5.2-27.7 1.9-3.3-19.1 2-35.8 4.6-57.2 2.2-17.1 7-34 8.3-50.7H966c-2.5 2.3 2.2 9-1 12-.6 1.2-1.7.9-2.8.4-1.3-.5-2.8.5-4 .2s-2-4.4-2.3-7.8a94 94 0 0 1 .8-21.4c9.3 1.1 17-1.3 25.8 1a185 185 0 0 1-5.5 64.5 276 276 0 0 0-3.6 23c-.3 3.4-1.8 7.8-1.9 12 0 2.7-3.1 8.5 2.8 8.3 4-.6.8-8.4 1.8-12 2.4-1 5.7-1.1 9.2-1a165 165 0 0 1 1.9 26.8Zm0-156.1c-8 1.9-19.5.2-27.7 1.8-3.3-19 2-35.8 4.6-57.1 2.2-17.1 7-34 8.3-50.7H966c-2.5 2.2 2.2 9-1 12-.6 1.1-1.7.8-2.8.4-1.3-.5-2.8.4-4 .1s-2-4.4-2.3-7.8a94 94 0 0 1 .8-21.3c9.3 1 17-1.3 25.8 1v-.1A185 185 0 0 1 977 366c-.9 3.9-3.3 18.9-3.6 23-.3 3.5-1.8 7.9-1.9 12 0 2.7-3.1 8.6 2.8 8.4 4-.7.8-8.4 1.8-12 2.4-1 5.7-1.1 9.2-1 1.4 8.9 2 17.8 1.9 26.8Zm34.5-200.7c9.3 1.1 17-1.2 25.8 1h.1a185 185 0 0 1-5.5 64.5c-1 3.8-3.3 18.8-3.7 23-.3 3.4-1.7 7.8-1.8 12-.1 2.6-3.1 8.5 2.7 8.3 4-.7.9-8.4 1.9-12 2.4-1 5.6-1.1 9.2-1a165 165 0 0 1 1.8 26.8c-8 2-19.4.3-27.7 1.9-3.2-19 2-35.8 4.7-57.2 2-17.1 6.8-34 8.3-50.7h-6.5c-2.5 2.3 2.2 9-1 12-.6 1.2-1.6.9-2.8.5-1.3-.5-2.8.4-4 .1-1.1-.3-2-4.4-2.3-7.8a94 94 0 0 1 .8-21.4Zm30.5 434.8c-7.9 2-19.4.3-27.6 1.9-3.3-19 2-35.8 4.6-57.2 2.1-17 6.9-34 8.3-50.7h-6.5c-2.4 2.3 2.2 9-.9 12-.6 1.2-1.7.9-2.8.5-1.4-.5-2.9.4-4 .1-1.2-.3-2-4.4-2.4-7.8a94 94 0 0 1 .9-21.3c9.2 1 17-1.3 25.8.9a185 185 0 0 1-5.5 64.5 290 290 0 0 0-3.7 23c-.3 3.4-1.7 7.8-1.8 12-.1 2.7-3.1 8.5 2.7 8.3 4-.6.9-8.3 1.9-12 2.4-1 5.6-1 9.2-.9a165 165 0 0 1 1.8 26.7Zm0-156c-7.9 1.8-19.4.1-27.6 1.8-3.3-19.1 2-35.9 4.6-57.2 2.1-17.1 6.9-34 8.3-50.7h-6.5c-2.4 2.3 2.2 9-.9 12-.6 1.2-1.7.9-2.8.4-1.4-.5-2.9.5-4 .2-1.2-.3-2-4.4-2.4-7.8a94 94 0 0 1 .9-21.4c9.2 1.1 17-1.3 25.8 1a185 185 0 0 1-5.5 64.5c-1 3.8-3.3 18.8-3.7 23-.3 3.4-1.7 7.8-1.8 12-.1 2.7-3.1 8.5 2.7 8.3 4-.6.9-8.4 1.9-12 2.4-1 5.6-1.1 9.2-1a165 165 0 0 1 1.8 26.8Zm0-312.4c-7.9 2-19.4.3-27.6 1.9-3.3-19 2-35.8 4.6-57.2 2.1-17 6.9-34 8.3-50.7h-6.5c-2.4 2.3 2.2 9-.9 12-.6 1.2-1.7 1-2.8.5-1.4-.5-2.9.4-4 .1-1.2-.3-2-4.4-2.4-7.8a91 91 0 0 1 .9-21.3c9.2 1 17-1.3 25.8.9a185 185 0 0 1-5.5 64.5 290 290 0 0 0-3.7 23c-.3 3.4-1.7 7.9-1.8 12-.1 2.7-3.1 8.6 2.7 8.3 4-.6.9-8.3 1.9-12 2.4-1 5.6-1 9.2-.9a165 165 0 0 1 1.8 26.7Zm34.6-44.4c9.3 1 17-1.3 25.8.9a185 185 0 0 1-5.4 64.5 245 245 0 0 0-3.7 23c-.3 3.5-1.7 7.9-1.9 12 0 2.7-3.1 8.6 2.8 8.3 4-.6.8-8.3 1.8-12 2.5-1 5.7-1 9.3-.9a165 165 0 0 1 1.8 26.8c-8 1.8-19.4.2-27.7 1.8-3.2-19 2-35.8 4.6-57.2 2.2-17 7-34 8.3-50.7h-6.4c-2.5 2.3 2.2 9-1 12-.6 1.2-1.7.9-2.8.5-1.3-.5-2.8.4-4 .1-1.1-.3-2-4.4-2.3-7.8-.9-7 0-15.9.8-21.3Zm30.5 434.8c-8 2-19.4.2-27.7 1.9-3.2-19.1 2-35.8 4.6-57.2 2.2-17.1 7-34 8.3-50.7h-6.4c-2.5 2.3 2.2 9-1 12-.6 1.2-1.7.9-2.8.4-1.3-.5-2.8.5-4 .2s-2-4.4-2.3-7.8c-.9-7 0-15.9.8-21.4 9.3 1.1 17-1.3 25.8 1a185 185 0 0 1-5.4 64.5c-1 3.8-3.4 18.8-3.7 23-.3 3.4-1.7 7.8-1.9 12 0 2.7-3.1 8.5 2.8 8.3 4-.6.8-8.4 1.8-12 2.5-1 5.7-1.1 9.3-1a165 165 0 0 1 1.8 26.8Zm0-156.1c-8 1.9-19.4.2-27.7 1.8-3.2-19 2-35.8 4.6-57.1 2.2-17.1 7-34 8.3-50.7h-6.4c-2.5 2.2 2.2 9-1 12-.6 1.1-1.7.8-2.8.4-1.3-.5-2.8.4-4 .1s-2-4.4-2.3-7.8c-.9-7 0-15.8.8-21.3 9.3 1 17-1.3 25.8 1v-.1a185 185 0 0 1-5.4 64.5c-1 3.9-3.4 18.9-3.7 23-.3 3.5-1.7 7.9-1.9 12 0 2.7-3.1 8.6 2.8 8.4 4-.7.8-8.4 1.8-12 2.5-1 5.7-1.1 9.3-1 1.3 8.9 1.9 17.8 1.8 26.8ZM841 779.6Zm267.6-44.7Zm-72.8 4.2Z" class="cls-2" />
    <path d="M898.6 761.3c3.7 1.7 7.5-1 11.3-3.7-3.8 2.6-7.6 5.4-11.3 3.7Zm-374-652.2h-.1Zm-385.3 73.8-1.7-.5 1.7.5ZM378.6 141ZM120 182l-3.3-1.2 3.3 1.2Zm5.3 1Zm452-85Zm1.2-.6-.1.2.1-.2Zm-52.6 11ZM189.4 814ZM974.5 32.6Zm-836.2 772 1.1 1-1-1ZM322 820.2h.2-.2ZM67.3 191ZM55.1 785.5c-2.1 2 1 7.1 0 10.5.3.1.7.3 1 .6 1 .7 2.3.9 4 .7l1.5-11.8H55Zm8.7-599.2c-1.6 0-3.2 2-4.8 3.3 1.6-1.3 3.2-3.2 4.8-3.3ZM648 74.2Zm59.8-7Zm.9-.6.3-.1-.3.1Zm-.6.4Zm-.6.3ZM657 74Zm49.6-7Zm-3.6-2.4c1.4.8 2.6 1.9 3.6 2.4-1-.5-2.2-1.6-3.5-2.4ZM835.2 50Zm1.6-.2Zm-.8.2Zm1.8-.5ZM710.2 66.3h.2-.2Zm-.8.1h.3-.3Zm-54.1 7.8Zm-24 4.7Zm6.7 1.6Zm1.2.4Zm1.6.5Zm-7.7-2.6c1.2.2 2.6.9 4.7 1.6a26 26 0 0 0-4.7-1.6Zm205.5-29.7ZM651.4 74Zm-6.1 1.1Zm-12.7 3.6Zm17-4.7Zm-3.4.7Zm4.2-.7Zm-1.7 0Zm-1.7.4ZM630.8 79Zm213.3-32Zm126.4-15.3.3.2-.3-.2Zm-54.8.3Zm54.3-.8Zm-52.8 1Zm-3.4.4Zm.2-.2Zm1.2-.4Zm55.8 0Zm1.8.7Zm-133.4 16Zm134.2-15.9Zm-1.3-.2Zm-.4-.1Zm-.5-.2ZM846.7 47.4Zm-5.1 0h.3-.2Zm-.4.2.2-.1-.2.1Zm.9-.3Zm.5-.1Zm-2.5 1Zm.6-.4.3-.1-.3.1Zm4.4-.7Zm-.5 0Zm-1.5 0Zm2.6.1h.3-.3Zm.5.1Zm-2.6-.3ZM974 32.7ZM133 181.5Zm443 685.1Zm5.3-6.2Zm-2.5 0Zm2-.1h-.1.1Zm-4.6 5.7-.1.4v-.5Zm-256-45.4-.4.1.4-.1Zm256.1 44.7v.4-.4Zm135.4-65.8Zm-135.1 64.9Zm-2.3 7.3Zm2.7-8.4-.2.2.1-.2Zm-255.8-43h-.3.3ZM574 871.8Zm1-.3Zm-1.4.3Zm.9-.1Zm.3-.1Zm-254.1-51.2-.4.1.4-.1ZM578 861.2h-.1Zm-258.4-40.4Zm403-21.6Zm41.8-6.9Zm-187 69.7Zm.3-.4Zm-.5 1-.1.2v-.2Zm-4 9.2ZM766.3 790l-1.9 2.2 2-2.2Zm-187.8 70.6Zm136-60.3Zm2.3.4Zm4.6-1Zm-8.7 0Zm3 .9Zm4.5-.6Zm-2.2.6Zm1.2-.2ZM576 867.1Zm-251.2-46.3Zm72.6 31.3Zm-.4-.5Zm-73.3-31.3h-.2.2Zm256.7 39.9h-.2.2Zm-66.7 38.3h-.1Zm-190.5-78.3h-.2.2Zm189.4 77.6Zm-.4-.3Zm-184-77.5Zm.6-.3Zm67.8 31.2Zm-70.5-30.1Zm.7-.1Zm68.3 27.2Zm.4.5Zm-70-27.5ZM518 897.7Zm.8-.7Zm52.8-25.4h-.4.4Zm-53.2 25.7Zm-.8.7h-.1.1Zm53.4-26.5h-.5.4Zm-1.8-.2h-.6.6Zm-52 27h-.1Zm52.9-26.9Zm-53.7 27.3h-.2.2Zm.4-.2-.2.1h.2Zm-1.8.5h-.1.2Zm-.4 0-.1-.1h.1Zm-191.9-78.9h-.2.2Zm-1 .1h-.3.3Zm192.5 78.6h-.2.2Zm1.8.1h-.2.1Zm-.5.1h-.2.2Zm-319.9-82.4Zm838.2-77.2Zm.9-.2Zm-1.7.4h-.2.3Zm-122.6 17.6-.2.2.2-.2Zm.8-.5Zm124.6-17.6Zm2.8.2Zm4.1 1.7Zm-.7-.4Zm-1.2-.6Zm-190.1 42.2Zm187-43Zm5.9 2Zm-203.9 39.3-.7.5.7-.5Zm-11.7.7Zm21.7.9Zm-270.5 78.1Zm-251.8-39.8Zm-131-3.4Zm633-35.5h-.2.2Zm18.3 0Zm-650.4 35.8Zm651.4-35.4Zm-2.1-.9Zm-5.6-1.4Zm-14.3 1.4h-.2.2Zm-628.1 36.4ZM784 790.6l-.6-.4.6.4Zm323.8-55.6h-.3.3Zm-1.2 0h-.2.2ZM198 817.4Zm917.5-82.6-.2.1h.2Zm-2.9.4h-.3.3Zm.9 0h-.3.3Zm.9-.2-.1.1h.1Zm-70 6.3Zm-268.9 44.9Zm334.6-51.2-.3-.1h.3Zm-64.9 6.4Zm59-5.8h-.2.2Zm-336.7 53.1Zm16.9 1.5Zm332-55.6h-.3.3Zm-13.3 1.4h-.2.2Zm2.2-.7Z" class="cls-2" />
    <path fill="#ff8faa" d="M455.6 865.7c-1 3.6 2.1 11.4-1.9 12-5.8.2-2.8-5.6-2.7-8.3.1-4.2 1.5-8.6 1.8-12 .4-4.1 2.8-19.1 3.7-23 4.7-19.2 8.2-41.7 5.5-64.5-8.8-2.2-16.5.1-25.8-1a93.6 93.6 0 0 0-.9 21.4c.4 3.4 1.2 7.5 2.4 7.8 1.1.3 2.6-.6 4-.1 1.1.4 2.2.7 2.8-.5 3.1-3-1.5-9.7 1-12h6.4c-1.4 16.7-6.2 33.6-8.3 50.7-2.6 21.4-7.9 38.1-4.6 57.2 8.2-1.6 19.7 0 27.7-1.9 0-9-.6-17.8-1.9-26.7-3.6-.2-6.8 0-9.2 1Zm0-468.3c-1 3.6 2.1 11.3-1.9 12-5.8.2-2.8-5.7-2.7-8.3.1-4.2 1.5-8.6 1.8-12 .4-4.2 2.8-19.2 3.7-23a185 185 0 0 0 5.5-64.6c-8.8-2.2-16.5.2-25.8-1a93.5 93.5 0 0 0-.9 21.4c.4 3.4 1.2 7.5 2.4 7.8 1.1.3 2.6-.6 4 0 1.1.3 2.2.6 2.8-.5 3.1-3-1.5-9.8 1-12h6.4c-1.4 16.7-6.2 33.6-8.3 50.7-2.6 21.3-7.9 38-4.6 57.1 8.2-1.6 19.7 0 27.7-1.8 0-9-.6-17.9-1.9-26.7-3.6-.2-6.8-.1-9.2.9Zm0 312.2c-1 3.7 2.1 11.4-1.9 12-5.8.2-2.8-5.6-2.7-8.3.1-4.1 1.5-8.6 1.8-12 .4-4.2 2.8-19.2 3.7-23a185 185 0 0 0 5.5-64.5c-8.8-2.2-16.5.1-25.8-1a93.6 93.6 0 0 0-.9 21.4c.4 3.4 1.2 7.5 2.4 7.8 1.1.3 2.6-.6 4-.1 1.1.4 2.2.7 2.8-.5 3.1-3-1.5-9.7 1-12h6.4c-1.4 16.7-6.2 33.6-8.3 50.7-2.6 21.4-7.9 38.1-4.6 57.2 8.2-1.6 19.7 0 27.7-1.9 0-9-.6-17.8-1.9-26.7-3.6-.2-6.8 0-9.2 1Zm0-156.1c-1 3.6 2.1 11.4-1.9 12-5.8.2-2.8-5.6-2.7-8.3.1-4.2 1.5-8.6 1.8-12 .4-4.2 2.8-19.2 3.7-23a185 185 0 0 0 5.5-64.6c-8.8-2.2-16.5.2-25.8-.9a93.5 93.5 0 0 0-.9 21.4c.4 3.4 1.2 7.5 2.4 7.8 1.1.3 2.6-.7 4-.2 1.1.5 2.2.8 2.8-.4 3.1-3-1.5-9.7 1-12h6.4c-1.4 16.7-6.2 33.6-8.3 50.7-2.6 21.4-7.9 38.1-4.6 57.2 8.2-1.7 19.7 0 27.7-1.9 0-9-.6-17.9-1.9-26.7-3.6-.2-6.8 0-9.2 1Zm-17.9-379.9c1.1.3 2.6-.6 4-.1 1.1.4 2.2.7 2.8-.5 3.1-3-1.5-9.7 1-12h6.4c-1.4 16.7-6.2 33.6-8.3 50.7-2.6 21.4-7.9 38.1-4.6 57.2 8.2-1.6 19.7 0 27.7-1.8 0-9-.6-18-1.9-26.8-3.6-.2-6.8 0-9.2 1-1 3.6 2.1 11.3-1.9 12-5.8.2-2.8-5.7-2.7-8.4.1-4.1 1.5-8.5 1.8-12 .4-4.2 2.8-19.1 3.7-23a185 185 0 0 0 5.5-64.5c-8.8-2.2-16.5.2-25.8-1a93.5 93.5 0 0 0-.9 21.4c.4 3.4 1.2 7.5 2.4 7.8ZM372.6 564c1.2.2 2.7-.7 4-.2 1.2.4 2.2.7 2.9-.5 3-3-1.6-9.7.9-12h6.4c-1.4 16.7-6.1 33.6-8.3 50.7-2.6 21.4-7.8 38.1-4.6 57.2 8.3-1.6 19.8 0 27.7-1.9.1-9-.5-17.8-1.8-26.7-3.6-.2-6.8 0-9.3 1-1 3.6 2.2 11.3-1.8 12-5.9.1-2.9-5.7-2.8-8.4.2-4.2 1.6-8.6 1.9-12 .3-4.1 2.7-19.1 3.7-23a185 185 0 0 0 5.5-64.5c-8.9-2.2-16.6.1-25.9-1a94 94 0 0 0-.8 21.4c.3 3.4 1.2 7.5 2.3 7.8Zm0-312.4c1.2.3 2.7-.6 4 0 1.2.3 2.2.6 2.9-.5 3-3-1.6-9.8.9-12h6.4c-1.4 16.7-6.1 33.5-8.3 50.7-2.6 21.3-7.8 38-4.6 57.1 8.3-1.6 19.8 0 27.7-1.8.1-9-.5-18-1.8-26.8-3.6-.1-6.8 0-9.3 1-1 3.6 2.2 11.3-1.8 12-5.9.2-2.9-5.7-2.8-8.3.2-4.2 1.6-8.6 1.9-12 .3-4.2 2.7-19.2 3.7-23a185 185 0 0 0 5.5-64.6c-8.9-2.2-16.6.2-25.9-.9a94 94 0 0 0-.8 21.3c.3 3.4 1.2 7.6 2.3 7.8Zm17.9 536.1c-1 3.6 2.2 11.3-1.8 12-5.9.2-2.9-5.7-2.8-8.3.2-4.2 1.6-8.6 1.9-12 .3-4.2 2.7-19.2 3.7-23a185 185 0 0 0 5.5-64.6c-8.9-2.2-16.6.2-25.9-1a94 94 0 0 0-.8 21.4c.3 3.4 1.2 7.5 2.3 7.8s2.7-.6 4 0c1.2.3 2.2.6 2.9-.5 3-3.1-1.6-9.8.9-12h6.4c-1.4 16.7-6.1 33.5-8.3 50.7-2.6 21.3-7.8 38-4.6 57.1 8.3-1.6 19.8 0 27.7-1.8.1-9-.5-18-1.8-26.8-3.6-.1-6.8 0-9.3 1ZM374 190.8c8.2-1.6 19.7 0 27.6-1.9.1-8.9-.5-17.8-1.8-26.7-3.6-.2-6.8 0-9.3 1-1 3.6 2.2 11.3-1.8 12-5.9.2-2.9-5.7-2.8-8.4.2-4.1 1.6-8.6 1.9-12 .3-4.1 2.7-19 3.6-23-1.9 1.1-4 1.5-6 2.2a12.6 12.6 0 0 0-2 1l-.2.2-.4.3-.2.2-.4.4-.2.2-.4.5-.2.2-.5.9-.5.9-.4.8-.4.6c-.4.5-.7.7-1 .8h-.5l-.6-.1c-2.7 18-6.5 33-3.6 49.9Zm128.7 60.9c1.2.3 2.7-.6 4-.1 1.2.4 2.2.7 2.9-.5 3-3-1.6-9.7.9-12h6.5c-1.5 16.7-6.2 33.6-8.3 50.7-2.7 21.4-8 38.1-4.7 57.2 8.3-1.6 19.8 0 27.7-1.9.1-9-.5-17.9-1.8-26.8-3.6-.1-6.8 0-9.2 1-1 3.6 2.1 11.3-1.9 12-5.9.2-2.8-5.7-2.8-8.3.2-4.2 1.6-8.6 1.9-12 .4-4.2 2.7-19.2 3.7-23 4.6-19.3 8.2-41.8 5.5-64.6-8.8-2.1-16.6.2-25.8-.9a93.5 93.5 0 0 0-1 21.4c.4 3.4 1.3 7.5 2.4 7.8ZM372.6 407.8c1.2.3 2.7-.7 4-.2 1.2.5 2.2.8 2.9-.4 3-3-1.6-9.7.9-12h6.4c-1.4 16.7-6.1 33.6-8.3 50.7-2.6 21.3-7.8 38-4.6 57.2 8.3-1.7 19.8 0 27.7-1.9.1-9-.5-17.9-1.8-26.7-3.6-.2-6.8-.1-9.3.9-1 3.6 2.2 11.4-1.8 12-5.9.2-2.9-5.6-2.8-8.3.2-4.2 1.6-8.6 1.9-12 .3-4.2 2.7-19.2 3.7-23a185 185 0 0 0 5.5-64.5c-8.9-2.3-16.6.1-25.9-1a94 94 0 0 0-.8 21.4c.3 3.4 1.2 7.5 2.3 7.8Zm195.2-234.2c1.1.3 2.6-.6 4-.1 1.1.4 2.2.7 2.8-.5 3.1-3-1.5-9.7 1-12h6.4c-1.4 16.7-6.2 33.6-8.3 50.7-2.6 21.4-7.9 38.1-4.6 57.2 8.2-1.6 19.7 0 27.7-1.8 0-9-.5-18-1.9-26.8-3.5-.2-6.8 0-9.2 1-1 3.6 2.2 11.3-1.8 12-6 .2-2.9-5.7-2.8-8.4.1-4.1 1.5-8.5 1.8-12 .4-4.2 2.8-19.1 3.7-23a185 185 0 0 0 5.6-64.5c-8.9-2.2-16.6.2-26-1a93.5 93.5 0 0 0-.8 21.4c.4 3.4 1.3 7.5 2.4 7.8Zm18.8 660.8c4.7-19.2 8.2-41.7 5.6-64.5-8.9-2.2-16.6.1-26-1a93.5 93.5 0 0 0-.8 21.4c.4 3.4 1.3 7.5 2.4 7.8s2.6-.6 4-.1c1.1.4 2.2.7 2.8-.5 3.1-3-1.5-9.7 1-12h6.4c-1.4 16.7-6.2 33.6-8.3 50.7-1.6 12.9-4 24-5.1 35l.6.1a661.4 661.4 0 0 0 1 .1h.3l.4.1h.3l.4.1h.2l1.4.2h1.1l.2-.1h.3l.2-.2c.8-.4.6-1.6.9-3.8v-.7l.1-.4v-.2l.2-.5v-.2l.1-.4v-.3l.3-.6.2-.9.1-.2.2-.5v-.2a11.4 11.4 0 0 1 .8-1.3v-.1l.2-.3h.1l.3-.3.3-.2.3-.1h.1l.3-.1a3 3 0 0 1 .7 0h.6l.4.2h.1l1.1.3.5-3.3c.4-4.1 2.8-19.1 3.7-23ZM568.1 97.6c-.1 5 .1 10 1 15.2 8.2-1.6 19.7 0 27.7-1.9 0-7-.3-14-1.1-21l-1.3-.4h-.4l-.3-.1a8 8 0 0 0-.6-.1H592a3.3 3.3 0 0 0-.9.2 2.6 2.6 0 0 0-.3.2h-.2l-.1.2h-.2l-.2.3-.3.4-.5.6-.2.1c-.1.2-.2.3-.4.3l-.2.2-.4.2-.1.1a5 5 0 0 1-.6.2h-.2a7 7 0 0 1-1 .3h-.4c.1 2.3-.1 4.2-2 4.5-2.6.1-3.4-1-3.6-2.3a7.5 7.5 0 0 0-.9 1.3l-.2.5h-.1l-.2.4-.3.3v.1l-.2.2h-.1l-.2.2-.2.1h-.1l-.2.1h-.6c-2.1 0-4.7-3.3-8.9-.4ZM397 848a30 30 0 0 0-2.3-.5l.4.4.3.4v.1a4.5 4.5 0 0 1 .5 1l.3.8.1.2c0 .2.2.3.3.5v.2l.4.5.4.5a130 130 0 0 0-.4-4.1Zm188.7-450.6c-1 3.6 2.2 11.3-1.8 12-6 .2-2.9-5.7-2.8-8.3.1-4.2 1.5-8.6 1.8-12 .4-4.2 2.8-19.2 3.7-23a185 185 0 0 0 5.6-64.6c-8.9-2.2-16.6.2-26-1a93.5 93.5 0 0 0-.8 21.4c.4 3.4 1.3 7.5 2.4 7.8s2.6-.6 4 0c1.1.3 2.2.6 2.8-.5 3.1-3-1.5-9.8 1-12h6.4c-1.4 16.7-6.2 33.6-8.3 50.7-2.6 21.3-7.9 38-4.6 57.1 8.2-1.6 19.7 0 27.7-1.8 0-9-.5-17.9-1.9-26.7a22 22 0 0 0-9.2.9Zm0 156.1c-1 3.6 2.2 11.4-1.8 12-6 .2-2.9-5.6-2.8-8.3.1-4.2 1.5-8.6 1.8-12 .4-4.2 2.8-19.2 3.7-23a185 185 0 0 0 5.6-64.6c-8.9-2.2-16.6.2-26-.9a93.5 93.5 0 0 0-.8 21.4c.4 3.4 1.3 7.5 2.4 7.8s2.6-.7 4-.2c1.1.5 2.2.8 2.8-.4 3.1-3-1.5-9.7 1-12h6.4c-1.4 16.7-6.2 33.6-8.3 50.7-2.6 21.4-7.9 38.1-4.6 57.2 8.2-1.7 19.7 0 27.7-1.9 0-9-.5-17.9-1.9-26.7-3.5-.2-6.8 0-9.2 1Zm-55.8-79c-3.6-.2-6.8-.1-9.2.9-1 3.6 2.1 11.4-1.9 12-5.9.2-2.8-5.6-2.8-8.3.2-4.2 1.6-8.6 1.9-12 .4-4.2 2.7-19.2 3.7-23 4.6-19.2 8.2-41.8 5.5-64.5-8.8-2.3-16.6.1-25.8-1a93.5 93.5 0 0 0-1 21.4c.5 3.4 1.3 7.5 2.5 7.8s2.6-.7 4-.2c1 .5 2.1.8 2.8-.4 3-3-1.6-9.7 1-12h6.4c-1.4 16.7-6.2 33.6-8.3 50.7-2.6 21.3-8 38-4.6 57.2 8.2-1.7 19.7 0 27.6-1.9.1-9-.5-17.9-1.8-26.7ZM517 551.3c-1.4 16.7-6.2 33.6-8.3 50.7-2.6 21.4-8 38.1-4.6 57.2 8.2-1.6 19.7 0 27.6-1.9.1-9-.5-17.8-1.8-26.7-3.6-.2-6.8 0-9.2 1-1 3.6 2.1 11.3-1.9 12-5.9.1-2.8-5.7-2.8-8.4.2-4.2 1.6-8.6 1.9-12a290 290 0 0 1 3.7-23c4.6-19.2 8.2-41.7 5.5-64.5-8.8-2.2-16.6.1-25.8-1a93.4 93.4 0 0 0-1 21.4c.5 3.4 1.3 7.5 2.5 7.8s2.6-.6 4-.1c1 .4 2.1.7 2.8-.5 3-3-1.6-9.7 1-12h6.4ZM527.1 848c-8.8-2.2-16.6.1-25.8-1a93.4 93.4 0 0 0-1 21.4c.5 3.4 1.3 7.5 2.5 7.8s2.6-.6 4-.1c1 .4 2.1.7 2.8-.5 3-3-1.6-9.7 1-12h6.4c-1 11.2-3.4 22.4-5.6 33.7l.8.2.4.3c.2 0 .3.2.5.3l.5.4.4.2h.2l.3.2h1.4l.3-.1h.2l.2-.2h.2l.3-.2v-.1l.4-.2.1-.1.3-.3h.1l.3-.4h.1l.4-.4c2.5-2.6 4.9-6.7 7.2-7a160 160 0 0 0 1.1-42Zm-18.4-714.4c-2.6 21.4-8 38.1-4.6 57.2 8.2-1.6 19.7 0 27.6-1.9.1-8.9-.5-17.8-1.8-26.7-3.6-.2-6.8 0-9.2 1-1 3.6 2.1 11.3-1.9 12-5.9.2-2.8-5.7-2.8-8.4.2-4.1 1.6-8.6 1.9-12a290 290 0 0 1 3.7-23c1.8-7.4 3.4-15.4 4.6-23.7a3.3 3.3 0 0 1-.6.6 2 2 0 0 1-.7.4h-.4a1.5 1.5 0 0 1-.4 0l-.3-.1-.5-.3-.6-.4h-.4l-.2-.1h-.5c-2 .7-2.6 5.9-9.2 3.3-1.4 7.3-2.8 14.7-3.7 22.1Zm12 654.1c-1 3.6 2.1 11.3-1.9 12-5.9.2-2.8-5.7-2.8-8.3.2-4.2 1.6-8.6 1.9-12 .4-4.2 2.7-19.2 3.7-23 4.6-19.3 8.2-41.8 5.5-64.6-8.8-2.2-16.6.2-25.8-1a93.4 93.4 0 0 0-1 21.4c.5 3.4 1.3 7.5 2.5 7.8s2.6-.6 4 0c1 .3 2.1.6 2.8-.5 3-3.1-1.6-9.8 1-12h6.4c-1.4 16.7-6.2 33.5-8.3 50.7-2.6 21.3-8 38-4.6 57.1 8.2-1.6 19.7 0 27.6-1.8.1-9-.5-18-1.8-26.8-3.6-.1-6.8 0-9.2 1ZM141.4 189v-5.7l-.6-.1-1.2-.2-.3-.1-1.7-.5a24.7 24.7 0 0 0-4.7-.9 10.3 10.3 0 0 0-2.1.2l-3 .8a11.6 11.6 0 0 1-3 .4 12.4 12.4 0 0 1-3-.4 24.9 24.9 0 0 1-5-1.7h-.1a36.5 36.5 0 0 0-1.9-.8h-.2l-1-.3-.9-.3c0 3.7.4 7.5 1 11.4 8.2-1.6 19.7 0 27.7-1.9Zm-11.1 130.3c-1 3.6 2.2 11.3-1.8 12-6 .2-2.9-5.7-2.8-8.3.1-4.2 1.5-8.6 1.8-12 .4-4.2 2.8-19.2 3.7-23 4.7-19.3 8.3-41.8 5.6-64.6-8.8-2.2-16.6.2-25.9-.9a93.5 93.5 0 0 0-.9 21.3c.4 3.4 1.3 7.6 2.4 7.8 1.2.3 2.7-.6 4 0 1.1.3 2.2.6 2.9-.5 3-3-1.6-9.8.9-12h6.4c-1.4 16.7-6.2 33.5-8.3 50.7-2.6 21.3-7.9 38-4.6 57.1 8.2-1.6 19.7 0 27.7-1.8 0-9-.5-18-1.9-26.8-3.5-.1-6.8 0-9.2 1Zm455.4 390.3c-1 3.7 2.2 11.4-1.8 12-6 .2-2.9-5.6-2.8-8.3.1-4.1 1.5-8.6 1.8-12 .4-4.2 2.8-19.2 3.7-23a185 185 0 0 0 5.6-64.5c-8.9-2.2-16.6.1-26-1a93.6 93.6 0 0 0-.8 21.4c.4 3.4 1.3 7.5 2.4 7.8s2.6-.6 4-.1c1.1.4 2.2.7 2.8-.5 3.1-3-1.5-9.7 1-12h6.4c-1.4 16.7-6.2 33.6-8.3 50.7-2.6 21.4-7.9 38.1-4.6 57.2 8.2-1.6 19.7 0 27.7-1.9 0-9-.5-17.8-1.9-26.7-3.5-.2-6.8 0-9.2 1Zm-446.2 77.1c-3.5-.1-6.8 0-9.2 1-1 3.6 2.2 11.3-1.8 12-6 .2-2.9-5.7-2.8-8.3.1-4.2 1.5-8.6 1.8-12 .4-4.2 2.8-19.2 3.7-23 4.7-19.3 8.3-41.8 5.6-64.6-8.8-2.2-16.6.2-25.9-1a93.4 93.4 0 0 0-.9 21.4c.4 3.4 1.3 7.5 2.4 7.8 1.2.3 2.7-.6 4 0 1.1.3 2.2.6 2.9-.5 3-3.1-1.6-9.8.9-12h6.4c-1.4 16.7-6.2 33.5-8.3 50.7-2.2 18.2-6.3 33-5.5 48.8l3.4-2h.2l.3-.2.2-.1.4-.2a14.4 14.4 0 0 1 2.2-.7h.3l.2-.1h1.4l.2.1.5.2c2.6 1.3 6.4.3 9.9-.2l1.2-.1c1.6-.2 3-.1 4.3.4a4.4 4.4 0 0 1 1.9 1.6l.4.4v.1l.4.2.1.1.4.1h.1l.5.1a165 165 0 0 0-1.8-20Zm55.9-389.3c-1 3.6 2.1 11.3-1.9 12-5.9.2-2.8-5.7-2.7-8.3 0-4.2 1.5-8.6 1.8-12 .4-4.2 2.8-19.2 3.7-23 4.6-19.3 8.2-41.8 5.5-64.6-8.8-2.2-16.6.2-25.8-1a94.1 94.1 0 0 0-.9 21.4c.4 3.4 1.2 7.5 2.4 7.8s2.6-.6 4 0c1 .3 2.2.6 2.8-.5 3.1-3-1.5-9.8 1-12h6.4c-1.4 16.7-6.2 33.6-8.3 50.7-2.6 21.3-8 38-4.6 57.1 8.2-1.6 19.7 0 27.6-1.8.1-9-.5-17.9-1.8-26.7-3.6-.2-6.8-.1-9.2.9Zm6.4 372.5c-8.8-2.2-16.6.1-25.8-1a94.1 94.1 0 0 0-.9 21.4c.4 3.4 1.2 7.5 2.4 7.8s2.6-.6 4-.1c1 .4 2.2.7 2.8-.5 3.1-3-1.5-9.7 1-12h6.4c-.8 9.6-2.7 19.1-4.6 28.8l.7-.2h.1l.6-.1h1.8l.7.2h.3a7.9 7.9 0 0 1 1.4.7l.3.1.8.6 1 .6.2.1.6.3.2.1.6.3h.1l.8.3a5.8 5.8 0 0 0 1.3.1c.5 0 .9 0 1.3-.2 2.6-14.9 3.8-31 2-47.3Zm-130.1 0c-8.8-2.2-16.6.1-25.8-1a93.5 93.5 0 0 0-1 21.4 32 32 0 0 0 1.5 6.7l2.5-.6.9-.2c2-.5 3.8-.8 5.3-.2 1-3.4-2.1-8.5 0-10.5h6.5c-.4 4-.9 7.9-1.5 11.8 1.3 0 2.8-.4 4.3-.6l1.4-.2c2.1-.4 4.3-.6 6.5-.3.5-8.6.5-17.5-.6-26.3Zm-6.4-216.4c-1 3.6 2.1 11.4-1.9 12-5.9.2-2.8-5.6-2.7-8.3 0-4.2 1.5-8.6 1.8-12 .4-4.2 2.8-19.2 3.7-23a185 185 0 0 0 5.5-64.6c-8.8-2.2-16.6.2-25.8-.9a93.5 93.5 0 0 0-1 21.4c.4 3.4 1.3 7.5 2.4 7.8s2.7-.7 4-.2c1.2.5 2.2.8 2.9-.4 3-3-1.6-9.7 1-12h6.4c-1.4 16.7-6.2 33.6-8.3 50.7-2.6 21.4-8 38.1-4.6 57.2 8.2-1.7 19.7 0 27.6-1.9.1-9-.5-17.9-1.8-26.7-3.6-.2-6.8 0-9.2 1Zm65 78c-1 3.7 2.2 11.4-1.8 12-6 .2-2.9-5.6-2.8-8.3.1-4.2 1.5-8.6 1.8-12 .4-4.1 2.8-19.1 3.7-23a183 183 0 0 0 5.6-64.5c-8.8-2.2-16.6.1-25.9-1a93.4 93.4 0 0 0-.9 21.4c.4 3.4 1.3 7.5 2.4 7.8 1.2.3 2.7-.6 4-.1 1.1.4 2.2.7 2.9-.5 3-3-1.6-9.7.9-12h6.4c-1.4 16.7-6.2 33.6-8.3 50.7-2.6 21.4-7.9 38.1-4.6 57.2 8.2-1.6 19.7 0 27.7-1.9 0-9-.5-17.8-1.9-26.7-3.5-.2-6.8 0-9.2 1ZM48.7 268.9c8.2-1.6 19.7 0 27.6-1.8.1-9-.5-18-1.8-26.8-3.6-.2-6.8 0-9.2 1-1 3.6 2.1 11.3-1.9 12-5.9.2-2.8-5.7-2.7-8.4 0-4.1 1.5-8.5 1.8-12 .4-4.2 2.8-19.1 3.7-23 2-8.6 4-18 5.1-27.6-4.6 1.8-3.5 9-4 8.7v-.1a1.8 1.8 0 0 1-.2-.2v-.2H67l-.1-.3v-.2l-.2-.4c-1-2.5-1.9-3.3-3-3.3-1.5 0-3 2-4.7 3.3a19 19 0 0 0-1 1h-.1l-.6.6-.1.1-.6.7c-1.3 6.6-2.5 13.1-3.3 19.7-2.6 21.4-8 38.1-4.6 57.2Zm146.7 440.7c-1 3.7 2.1 11.4-1.9 12-5.9.2-2.8-5.6-2.7-8.3 0-4.1 1.5-8.6 1.8-12 .4-4.2 2.8-19.2 3.7-23a186 186 0 0 0 5.5-64.5c-8.8-2.2-16.6.1-25.8-1a94.2 94.2 0 0 0-.9 21.4c.4 3.4 1.2 7.5 2.4 7.8s2.6-.6 4-.1c1 .4 2.2.7 2.8-.5 3.1-3-1.5-9.7 1-12h6.4c-1.4 16.7-6.2 33.6-8.3 50.7-2.6 21.4-8 38.1-4.6 57.2 8.2-1.6 19.7 0 27.6-1.9.1-9-.5-17.8-1.8-26.7-3.6-.2-6.8 0-9.2 1Zm-65.1-234.2c-1 3.6 2.2 11.4-1.8 12-6 .2-2.9-5.6-2.8-8.3.1-4.2 1.5-8.6 1.8-12 .4-4.2 2.8-19.2 3.7-23 4.7-19.2 8.3-41.8 5.6-64.5-8.8-2.3-16.6.1-25.9-1a93.5 93.5 0 0 0-.9 21.4c.4 3.4 1.3 7.5 2.4 7.8 1.2.3 2.7-.7 4-.2 1.1.5 2.2.8 2.9-.4 3-3-1.6-9.7.9-12h6.4c-1.4 16.7-6.2 33.6-8.3 50.7-2.6 21.3-7.9 38-4.6 57.2 8.2-1.7 19.7 0 27.7-1.9 0-9-.5-17.9-1.9-26.7a22 22 0 0 0-9.2.9Zm48.5-206.5c8.2-1.6 19.7 0 27.6-1.8.1-9-.5-18-1.8-26.8-3.6-.2-6.8 0-9.2 1-1 3.6 2.1 11.3-1.9 12-5.9.2-2.8-5.7-2.7-8.4 0-4.1 1.5-8.5 1.8-12 .4-4.2 2.8-19.1 3.7-23 2.8-11.6 5.2-24.4 6-37.7-1.3.2-2.5.5-3.7.9h-.3a31.2 31.2 0 0 0-2.9 1.1l-.5.3c-.3 0-.5.2-.8.3l-4.6 2c-2 11.6-4.7 23.2-6.1 35-2.6 21.3-8 38-4.6 57.1ZM306 144.5a94.1 94.1 0 0 0-.8 21.3c.4 3.4 1.3 7.5 2.4 7.8 1.1.3 2.6-.6 4-.1 1 .4 2.2.7 2.8-.5 3.1-3-1.5-9.7 1-12h6.4c-1.4 16.7-6.2 33.6-8.3 50.7-2.6 21.4-7.9 38.1-4.6 57.2 8.2-1.6 19.7 0 27.6-1.8.2-9-.5-18-1.8-26.8-3.6-.2-6.8 0-9.2 1-1 3.6 2.1 11.3-1.9 12-5.8.2-2.8-5.7-2.7-8.4 0-4.1 1.5-8.5 1.8-12 .4-4.2 2.8-19.1 3.7-23a185 185 0 0 0 5.5-64.5l-.8-.2-.5.1H328a9 9 0 0 1-2.3-.8c-6.4-.4-12.6.8-19.6 0Zm-110.6 409c-1 3.6 2.1 11.4-1.9 12-5.9.2-2.8-5.6-2.7-8.3 0-4.2 1.5-8.6 1.8-12 .4-4.2 2.8-19.2 3.7-23 4.6-19.3 8.2-41.8 5.5-64.6-8.8-2.2-16.6.2-25.8-.9a94.1 94.1 0 0 0-.9 21.4c.4 3.4 1.2 7.5 2.4 7.8s2.6-.7 4-.2c1 .5 2.2.8 2.8-.4 3.1-3-1.5-9.7 1-12h6.4c-1.4 16.7-6.2 33.6-8.3 50.7-2.6 21.4-8 38.1-4.6 57.2 8.2-1.7 19.7 0 27.6-1.9.1-9-.5-17.9-1.8-26.7-3.6-.2-6.8 0-9.2 1Zm65 234.2c-1 3.6 2.2 11.3-1.8 12-6 .2-2.9-5.7-2.8-8.3.1-4.2 1.6-8.6 1.9-12a276 276 0 0 1 3.6-23 185 185 0 0 0 5.6-64.6c-8.9-2.2-16.6.2-25.9-1a94 94 0 0 0-.9 21.4c.4 3.4 1.3 7.5 2.4 7.8s2.7-.6 4 0c1.1.3 2.2.6 2.9-.5 3-3.1-1.6-9.8.9-12h6.4c-1.4 16.7-6.1 33.5-8.3 50.7-2.6 21.3-7.8 38-4.6 57.1 8.2-1.6 19.8 0 27.7-1.8.1-9-.5-18-1.9-26.8-3.5-.1-6.8 0-9.2 1Zm65.1-390.3c-1 3.6 2.1 11.3-1.9 12-5.8.2-2.8-5.7-2.7-8.3 0-4.2 1.5-8.6 1.8-12 .4-4.2 2.8-19.2 3.7-23a185 185 0 0 0 5.5-64.6c-8.8-2.2-16.5.2-25.8-1a94.1 94.1 0 0 0-.9 21.4c.4 3.4 1.3 7.5 2.4 7.8 1.1.3 2.6-.6 4 0 1 .3 2.2.6 2.8-.5 3.1-3-1.5-9.8 1-12h6.4c-1.4 16.7-6.2 33.6-8.3 50.7-2.6 21.3-7.9 38-4.6 57.1 8.2-1.6 19.7 0 27.6-1.8.2-9-.5-17.9-1.8-26.7-3.6-.2-6.8-.1-9.2.9Zm0 156.1c-1 3.6 2.1 11.4-1.9 12-5.8.2-2.8-5.6-2.7-8.3 0-4.2 1.5-8.6 1.8-12 .4-4.2 2.8-19.2 3.7-23a185 185 0 0 0 5.5-64.6c-8.8-2.2-16.5.2-25.8-.9a94.1 94.1 0 0 0-.9 21.4c.4 3.4 1.3 7.5 2.4 7.8 1.1.3 2.6-.7 4-.2 1 .5 2.2.8 2.8-.4 3.1-3-1.5-9.7 1-12h6.4c-1.4 16.7-6.2 33.6-8.3 50.7-2.6 21.4-7.9 38.1-4.6 57.2 8.2-1.7 19.7 0 27.6-1.9.2-9-.5-17.9-1.8-26.7-3.6-.2-6.8 0-9.2 1Zm6.5 216.4h-.1c-8.8-2.2-16.5.1-25.8-1a94.1 94.1 0 0 0-.9 21.4c.4 3.4 1.3 7.5 2.4 7.8 1.1.3 2.6-.6 4-.1 1 .4 2.2.7 2.8-.5 3.1-3-1.5-9.7 1-12h6.4c-1 12.3-3.9 24.7-6.2 37.1l3.5-1.6.5-.2h.2l.4-.2h.1l.4-.2h.2l.3-.1h.2l.3-.1h1.5l.3.1h.2l.5.2a3.4 3.4 0 0 0 1.3.4h.8l.5-.2h.1l.5-.3h.2l.6-.4.2-.1.4-.2.9-.6c2.8-15.4 4.2-32.3 2.2-49.2Zm-6.5-60.3c-1 3.7 2.1 11.4-1.9 12-5.8.2-2.8-5.6-2.7-8.3 0-4.1 1.5-8.6 1.8-12 .4-4.2 2.8-19.2 3.7-23a185 185 0 0 0 5.5-64.5c-8.8-2.2-16.5.1-25.8-1a94.2 94.2 0 0 0-.9 21.4c.4 3.4 1.3 7.5 2.4 7.8 1.1.3 2.6-.6 4-.1 1 .4 2.2.7 2.8-.5 3.1-3-1.5-9.7 1-12h6.4c-1.4 16.7-6.2 33.6-8.3 50.7-2.6 21.4-7.9 38.1-4.6 57.2 8.2-1.6 19.7 0 27.6-1.9.2-9-.5-17.8-1.8-26.7-3.6-.2-6.8 0-9.2 1Zm-83-145.6c1.2.2 2.7-.7 4-.2 1.1.4 2.2.7 2.9-.5 3-3-1.6-9.7.9-12h6.4c-1.4 16.7-6.1 33.6-8.3 50.7-2.6 21.4-7.8 38.1-4.6 57.2 8.2-1.6 19.8 0 27.7-1.9.1-9-.5-17.8-1.9-26.7-3.5-.2-6.8 0-9.2 1-1 3.6 2.2 11.3-1.8 12-6 .1-2.9-5.7-2.8-8.4.1-4.2 1.6-8.6 1.9-12 .3-4.1 2.7-19.1 3.6-23a185 185 0 0 0 5.6-64.5c-8.9-2.2-16.6.1-25.9-1a94 94 0 0 0-.9 21.4c.4 3.4 1.3 7.5 2.4 7.8Zm1.3-373.2c8.2-1.6 19.8 0 27.7-1.9.1-8.9-.5-17.8-1.9-26.7-3.5-.2-6.8 0-9.2 1-1 3.6 2.2 11.3-1.8 12-6 .2-2.9-5.7-2.8-8.4 0-2.1.5-4.4 1-6.5l-.5.1-.5.1h-1.1l-.4-.2h-.1a4 4 0 0 1-1-.5l-.6-.5-.6-.5h-.2l-.5-.4h-.1a3 3 0 0 0-.5-.2h-.1a2.4 2.4 0 0 0-1.1 0 3 3 0 0 0-.5.3h-.1l-.4.2-.1.1a6.7 6.7 0 0 0-.8.7c-.8.7-1.5 1.5-2.4 2l-.5.2-.6.2c-1.4 9.6-2 19-.3 28.9Zm-1.3 217c1.2.3 2.7-.7 4-.2 1.1.5 2.2.8 2.9-.4 3-3-1.6-9.7.9-12h6.4c-1.4 16.7-6.1 33.6-8.3 50.7-2.6 21.3-7.8 38-4.6 57.2 8.2-1.7 19.8 0 27.7-1.9.1-9-.5-17.9-1.9-26.7a22 22 0 0 0-9.2.9c-1 3.6 2.2 11.4-1.8 12-6 .2-2.9-5.6-2.8-8.3.1-4.2 1.6-8.6 1.9-12a276 276 0 0 1 3.6-23 185 185 0 0 0 5.6-64.5c-8.9-2.3-16.6.1-25.9-1a94 94 0 0 0-.9 21.4c.4 3.4 1.3 7.5 2.4 7.8Zm0-156.2c1.2.3 2.7-.6 4 0 1.1.3 2.2.6 2.9-.5 3-3-1.6-9.8.9-12h6.4c-1.4 16.7-6.1 33.5-8.3 50.7-2.6 21.3-7.8 38-4.6 57.1 8.2-1.6 19.8 0 27.7-1.8.1-9-.5-18-1.9-26.8-3.5-.1-6.8 0-9.2 1-1 3.6 2.2 11.3-1.8 12-6 .2-2.9-5.7-2.8-8.3.1-4.2 1.6-8.6 1.9-12a276 276 0 0 1 3.6-23 185 185 0 0 0 5.6-64.6c-8.9-2.2-16.6.2-25.9-.9a94 94 0 0 0-.9 21.3c.4 3.4 1.3 7.6 2.4 7.8ZM911 631.5c-1 3.7 2.1 11.4-1.9 12-5.9.2-2.8-5.6-2.7-8.3 0-4.2 1.5-8.6 1.8-12 .4-4.1 2.8-19.1 3.7-23 4.6-19.2 8.2-41.7 5.5-64.5-8.8-2.2-16.6.1-25.8-1a94 94 0 0 0-.9 21.4c.4 3.4 1.2 7.5 2.4 7.8s2.6-.6 4-.1c1 .4 2.2.7 2.8-.5 3.1-3-1.5-9.7 1-12h6.4C905.9 568 901 585 899 602c-2.6 21.4-8 38.1-4.6 57.2 8.2-1.6 19.7 0 27.6-1.9.1-9-.5-17.8-1.8-26.7-3.6-.2-6.8 0-9.2 1Zm47.1-457.9c1.2.3 2.7-.6 4-.1 1.1.4 2.2.7 2.9-.5 3-3-1.6-9.7.9-12h6.4c-1.4 16.7-6.1 33.6-8.3 50.7-2.6 21.4-7.9 38.1-4.6 57.2 8.2-1.6 19.7 0 27.7-1.8 0-9-.5-18-1.9-26.8-3.5-.2-6.8 0-9.2 1-1 3.6 2.2 11.3-1.8 12-6 .2-2.9-5.7-2.8-8.4.1-4.1 1.6-8.5 1.9-12 .3-4.2 2.7-19.1 3.6-23a185 185 0 0 0 5.6-64.5c-8.9-2.2-16.6.2-25.9-1a94 94 0 0 0-.8 21.4c.3 3.4 1.2 7.5 2.3 7.8Zm17.9 536c-1 3.7 2.2 11.4-1.8 12-6 .2-2.9-5.6-2.8-8.3.1-4.1 1.6-8.6 1.9-12a276 276 0 0 1 3.6-23 185 185 0 0 0 5.6-64.5c-8.9-2.2-16.6.1-25.9-1a94.1 94.1 0 0 0-.8 21.4c.3 3.4 1.2 7.5 2.3 7.8s2.7-.6 4-.1c1.1.4 2.2.7 2.9-.5 3-3-1.6-9.7.9-12h6.4c-1.4 16.7-6.1 33.6-8.3 50.7-2.6 21.4-7.9 38.1-4.6 57.2 8.2-1.6 19.7 0 27.7-1.9 0-9-.5-17.8-1.9-26.7-3.5-.2-6.8 0-9.2 1Zm48.5-674.9c8.2-1.7 19.7 0 27.6-1.9.2-9-.5-17.9-1.8-26.7h-4.5l-.3.8V7a14 14 0 0 1-.8 1.7 5.6 5.6 0 0 1-3.6 3c.3 3.4.8 6.9-1.9 7.3-5.1.2-3.4-4.3-2.9-7.2h-2.3l-1 .2-.8.2h-.2l-.7.2h-.1a20.8 20.8 0 0 0-1.3.4c-2.2.7-3.9 1.5-6 1-.7 6.9-.6 13.7.6 20.9ZM976 397.4c-1 3.6 2.2 11.3-1.8 12-6 .2-2.9-5.7-2.8-8.3.1-4.2 1.6-8.6 1.9-12a276 276 0 0 1 3.6-23 185 185 0 0 0 5.6-64.6c-8.9-2.2-16.6.2-25.9-1a94 94 0 0 0-.8 21.4c.3 3.4 1.2 7.5 2.3 7.8s2.7-.6 4 0c1.1.3 2.2.6 2.9-.5 3-3-1.6-9.8.9-12h6.4c-1.4 16.7-6.1 33.6-8.3 50.7-2.6 21.3-7.9 38-4.6 57.1 8.2-1.6 19.7 0 27.7-1.8 0-9-.5-17.9-1.9-26.7a22 22 0 0 0-9.2.9Zm-83-145.8c1.2.3 2.7-.6 4 0 1.2.3 2.3.6 2.9-.5 3.1-3-1.5-9.8 1-12h6.4c-1.4 16.7-6.2 33.5-8.3 50.7-2.6 21.3-8 38-4.6 57.1 8.2-1.6 19.7 0 27.6-1.8.1-9-.5-18-1.8-26.8-3.6-.1-6.8 0-9.2 1-1 3.6 2.1 11.3-1.9 12-5.9.2-2.8-5.7-2.7-8.3 0-4.2 1.5-8.6 1.8-12 .4-4.2 2.8-19.2 3.7-23 4.6-19.3 8.2-41.8 5.5-64.6-8.8-2.2-16.6.2-25.8-.9a94 94 0 0 0-.9 21.3c.4 3.4 1.2 7.6 2.4 7.8Zm-260.1 0c1 .3 2.6-.6 4 0 1 .3 2.1.6 2.8-.5 3-3-1.6-9.8.9-12h6.5c-1.4 16.7-6.2 33.5-8.3 50.7-2.6 21.3-8 38-4.6 57.1 8.2-1.6 19.7 0 27.6-1.8.1-9-.5-18-1.8-26.8-3.6-.1-6.8 0-9.2 1-1 3.6 2.1 11.3-1.9 12-5.9.2-2.8-5.7-2.8-8.3.2-4.2 1.6-8.6 1.9-12 .4-4.2 2.7-19.2 3.7-23a185 185 0 0 0 5.5-64.6c-8.8-2.2-16.6.2-25.8-.9a93.5 93.5 0 0 0-1 21.3c.5 3.4 1.3 7.6 2.5 7.8ZM917.8 32.3h-.1l-.5-.1a5 5 0 0 0-1.5-.2h-.5c-.4 0-.8.2-1.1.4l-.3.2a5 5 0 0 0-1.2 1.2 50 50 0 0 0 7-.5l-1.8-1ZM911 163.1c-1 3.7 2.1 11.4-1.9 12-5.9.3-2.8-5.6-2.7-8.3 0-4.1 1.5-8.6 1.8-12 .4-4.1 2.8-19.1 3.7-23 4.6-19.2 8.2-41.7 5.5-64.5-8.8-2.2-16.6.2-25.8-1a94.2 94.2 0 0 0-.9 21.4c.4 3.4 1.2 7.5 2.4 7.8s2.6-.6 4-.1c1 .4 2.2.7 2.8-.5 3.1-3-1.5-9.7 1-12h6.4c-1.4 16.7-6.2 33.6-8.3 50.7-2.6 21.4-8 38.1-4.6 57.2 8.2-1.6 19.7 0 27.6-1.9.1-8.9-.5-17.8-1.8-26.7-3.6-.2-6.8 0-9.2 1ZM65.3 709.6c-1 3.7 2.1 11.4-1.9 12-5.9.2-2.8-5.6-2.7-8.3 0-4.1 1.5-8.6 1.8-12 .4-4.2 2.8-19.2 3.7-23a185 185 0 0 0 5.5-64.5c-8.8-2.2-16.6.1-25.8-1a93.6 93.6 0 0 0-1 21.4c.4 3.4 1.3 7.5 2.4 7.8s2.7-.6 4-.1c1.2.4 2.2.7 2.9-.5 3-3-1.6-9.7 1-12h6.4c-1.4 16.7-6.2 33.6-8.3 50.7-2.6 21.4-8 38.1-4.6 57.2 8.2-1.6 19.7 0 27.6-1.9.1-9-.5-17.8-1.8-26.7-3.6-.2-6.8 0-9.2 1Zm852.1-17.8c-8.8-2.2-16.6.2-25.8-1a94 94 0 0 0-.9 21.4c.4 3.4 1.2 7.5 2.4 7.8s2.6-.6 4 0c1 .3 2.2.6 2.8-.5 3.1-3.1-1.5-9.8 1-12h6.4c-1.4 16.7-6.2 33.5-8.3 50.7l-.4 3.1c3.7 1.7 7.5-1 11.3-3.7l.3-.2.2-.2c.2 0 .4-.2.6-.4l.2-.1.7-.5a185 185 0 0 0 5.5-64.4ZM911 475.4c-1 3.6 2.1 11.4-1.9 12-5.9.2-2.8-5.6-2.7-8.3 0-4.2 1.5-8.6 1.8-12 .4-4.2 2.8-19.2 3.7-23 4.6-19.2 8.2-41.8 5.5-64.5-8.8-2.3-16.6.1-25.8-1a94 94 0 0 0-.9 21.4c.4 3.4 1.2 7.5 2.4 7.8s2.6-.7 4-.2c1 .5 2.2.8 2.8-.4 3.1-3-1.5-9.7 1-12h6.4c-1.4 16.7-6.2 33.6-8.3 50.7-2.6 21.3-8 38-4.6 57.2 8.2-1.7 19.7 0 27.6-1.9.1-9-.5-17.9-1.8-26.7-3.6-.2-6.8-.1-9.2.9Zm65 78.1c-1 3.6 2.2 11.4-1.8 12-6 .2-2.9-5.6-2.8-8.3.1-4.2 1.6-8.6 1.9-12a276 276 0 0 1 3.6-23 185 185 0 0 0 5.6-64.6c-8.9-2.2-16.6.2-25.9-.9a94 94 0 0 0-.8 21.4c.3 3.4 1.2 7.5 2.3 7.8s2.7-.7 4-.2c1.1.5 2.2.8 2.9-.4 3-3-1.6-9.7.9-12h6.4c-1.4 16.7-6.1 33.6-8.3 50.7-2.6 21.4-7.9 38.1-4.6 57.2 8.2-1.7 19.7 0 27.7-1.9 0-9-.5-17.9-1.9-26.7-3.5-.2-6.8 0-9.2 1Zm112.2-379.9c1.2.3 2.7-.6 4-.1 1.1.4 2.2.7 2.9-.5 3-3-1.6-9.7.9-12h6.4c-1.4 16.7-6.1 33.6-8.3 50.7-2.6 21.4-7.8 38.1-4.6 57.2 8.3-1.6 19.8 0 27.7-1.8.1-9-.5-18-1.8-26.8-3.6-.2-6.8 0-9.3 1-1 3.6 2.2 11.3-1.8 12-5.9.2-2.9-5.7-2.8-8.4.2-4.1 1.6-8.5 1.9-12a245 245 0 0 1 3.7-23 185 185 0 0 0 5.5-64.5c-8.9-2.2-16.6.2-25.9-1a93.5 93.5 0 0 0-.8 21.4c.3 3.4 1.2 7.5 2.3 7.8Zm17.9 379.9c-1 3.6 2.2 11.4-1.8 12-5.9.2-2.9-5.6-2.8-8.3.2-4.2 1.6-8.6 1.9-12 .3-4.2 2.7-19.2 3.7-23a185 185 0 0 0 5.5-64.6c-8.9-2.2-16.6.2-25.9-.9a93.5 93.5 0 0 0-.8 21.4c.3 3.4 1.2 7.5 2.3 7.8s2.7-.7 4-.2c1.1.5 2.2.8 2.9-.4 3-3-1.6-9.7.9-12h6.4c-1.4 16.7-6.1 33.6-8.3 50.7-2.6 21.4-7.8 38.1-4.6 57.2 8.3-1.7 19.8 0 27.7-1.9.1-9-.5-17.9-1.8-26.7-3.6-.2-6.8 0-9.3 1Zm9.3 155.2c-3.6-.2-6.8 0-9.3 1-1 3.6 2.2 11.3-1.8 12-5.9.1-2.9-5.7-2.8-8.4.2-4.1 1.6-8.6 1.9-12 .3-4.2 2.7-19.2 3.7-23a185 185 0 0 0 5.5-64.5c-8.9-2.2-16.6.1-25.9-1a93.5 93.5 0 0 0-.8 21.4c.3 3.4 1.2 7.5 2.3 7.8s2.7-.6 4-.1c1.1.4 2.2.7 2.9-.5 3-3-1.6-9.7.9-12h6.4c-1.4 16.7-6.1 33.6-8.3 50.7-2.6 21.4-7.8 38.1-4.6 57.2 3.7-.7 8-.8 12.4-.8l1-.4.2-.1 1-.3h.1l1-.4h.1l1.1-.2h.2l1-.2h.2a14.1 14.1 0 0 1 2 0h.3l1.1.2h1l.4.1h.9l.8-.1h.1l.9-.2h.2l.6-.2.3-.1.5-.2.3-.1c0-8.6-.6-17.1-1.8-25.6Zm-29.5-699c.3 3.4 1.2 7.5 2.3 7.8 1.2.3 2.7-.6 4-.1 1.1.4 2.2.7 2.9-.5 3-3-1.6-9.7.9-12h4.2l-.3-.3a2.7 2.7 0 0 1-.7-1c-.6-1.2-1.4-1.2-2.5-.8l-.6.2c-1 .5-2.2 1-3.8 1a8 8 0 0 1-1 0c-.9 0-1.8-.2-2.9-.6A13 13 0 0 1 1086 2l-.4-.2c-.1 2.7 0 5.4.3 7.9Zm20.2 387.7c-1 3.6 2.2 11.3-1.8 12-5.9.2-2.9-5.7-2.8-8.3.2-4.2 1.6-8.6 1.9-12 .3-4.2 2.7-19.2 3.7-23a185 185 0 0 0 5.5-64.6c-8.9-2.2-16.6.2-25.9-1a93.5 93.5 0 0 0-.8 21.4c.3 3.4 1.2 7.5 2.3 7.8s2.7-.6 4 0c1.1.3 2.2.6 2.9-.5 3-3-1.6-9.8.9-12h6.4c-1.4 16.7-6.1 33.6-8.3 50.7-2.6 21.3-7.8 38-4.6 57.1 8.3-1.6 19.8 0 27.7-1.8.1-9-.5-17.9-1.8-26.7-3.6-.2-6.8-.1-9.3.9Zm-65.1 78c-1 3.6 2.2 11.4-1.8 12-5.8.2-2.8-5.6-2.7-8.3 0-4.2 1.5-8.6 1.8-12a295 295 0 0 1 3.7-23 185 185 0 0 0 5.5-64.5c-8.8-2.3-16.6.1-25.8-1a94 94 0 0 0-.9 21.4c.4 3.4 1.2 7.5 2.4 7.8 1.1.3 2.6-.7 4-.2 1 .5 2.2.8 2.8-.4 3.1-3-1.5-9.7 1-12h6.4c-1.4 16.7-6.2 33.6-8.3 50.7-2.6 21.3-7.9 38-4.6 57.2 8.2-1.7 19.7 0 27.6-1.9.2-9-.5-17.9-1.8-26.7-3.6-.2-6.8-.1-9.2.9Zm6.5 216.4c-8.8-2.2-16.6.2-25.8-1a94 94 0 0 0-.9 21.4c.4 3.4 1.2 7.5 2.4 7.8 1.1.3 2.6-.6 4 0 1 .3 2.2.6 2.8-.5 3.1-3.1-1.5-9.8 1-12h6.4c-1 10.7-3.2 21.5-5.3 32.4l.7-.3h.3a14.4 14.4 0 0 1 2.7-.5 12.1 12.1 0 0 1 2 0 11.2 11.2 0 0 1 4.2 1.5l.7.3.2.1.7.2.8.1h.8a169 169 0 0 0 2.3-49.5Zm46.6-636.2c-2.6 21.4-7.8 38.1-4.6 57.2 8.3-1.6 19.8 0 27.7-1.9.1-9-.5-17.9-1.8-26.7-3.6-.2-6.8 0-9.3 1-1 3.5 2.2 11.3-1.8 12-5.9.1-2.9-5.7-2.8-8.4.2-4.2 1.6-8.6 1.9-12 .3-4.2 2.7-19.2 3.7-23a213 213 0 0 0 6.3-43.8l-3.5-1.2-1-.3h-.2l-1.3-.5h-.1l-5-1.9c-1.5 16.3-6.1 32.8-8.2 49.5Zm-71 196.1c1.2.3 2.7-.6 4-.1 1.2.4 2.2.7 2.9-.5 3-3-1.6-9.7.9-12h6.5c-1.5 16.7-6.2 33.6-8.3 50.7-2.7 21.4-8 38.1-4.7 57.2 8.3-1.6 19.8 0 27.7-1.9.1-9-.5-17.9-1.8-26.8-3.6-.1-6.8 0-9.2 1-1 3.6 2.1 11.3-1.9 12-5.8.2-2.8-5.7-2.7-8.3 0-4.2 1.5-8.6 1.8-12a295 295 0 0 1 3.7-23 185 185 0 0 0 5.5-64.6c-8.9-2.1-16.6.2-25.9-.9a94 94 0 0 0-.8 21.4c.3 3.4 1.2 7.5 2.3 7.8Zm17.9 379.8c-1 3.7 2.2 11.4-1.8 12-5.8.2-2.8-5.6-2.7-8.3 0-4.2 1.5-8.6 1.8-12a295 295 0 0 1 3.7-23 185 185 0 0 0 5.5-64.5c-8.8-2.2-16.6.1-25.8-1a94 94 0 0 0-.9 21.4c.4 3.4 1.2 7.5 2.4 7.8 1.1.3 2.6-.6 4-.1 1 .4 2.2.7 2.8-.5 3.1-3-1.5-9.7 1-12h6.4c-1.4 16.7-6.2 33.6-8.3 50.7-2.6 21.4-7.9 38.1-4.6 57.2 8.2-1.6 19.7 0 27.6-1.9.2-9-.5-17.8-1.8-26.7-3.6-.2-6.8 0-9.2 1Zm0-468.4c-1 3.7 2.2 11.4-1.8 12-5.8.3-2.8-5.6-2.7-8.3 0-4.1 1.5-8.6 1.8-12 .4-4.1 2.8-19.1 3.7-23a185 185 0 0 0 5.5-64.5c-8.8-2.2-16.6.2-25.8-1a94.2 94.2 0 0 0-.9 21.4c.4 3.4 1.2 7.5 2.4 7.8 1.1.3 2.6-.6 4-.1 1 .4 2.2.7 2.8-.5 3.1-3-1.5-9.7 1-12h6.4c-1.4 16.7-6.2 33.6-8.3 50.7-2.6 21.4-7.9 38.1-4.6 57.2 8.2-1.6 19.7 0 27.6-1.9.2-8.9-.5-17.8-1.8-26.7-3.6-.2-6.8 0-9.2 1ZM964 55.6c-2.5 21.4-7.8 38.1-4.5 57.2 8.2-1.6 19.7 0 27.6-1.9.1-9-.5-17.9-1.9-26.7-3.5-.2-6.8 0-9.2 1-1 3.5 2.2 11.3-1.8 12-6 .1-2.9-5.7-2.8-8.4.1-4.2 1.6-8.6 1.9-12a303 303 0 0 1 3.6-23c2-8.1 3.7-16.8 5-25.8-1.5.6-3.2 2.4-5.2 3.6l-.5.3-.4.2-1.3.5-.4.1H973a4 4 0 0 1-1.1-.2h-.2l-.3-.2h-.2l-.2-.3h-.2l-.3-.3-.1-.1-.5-.4-1.4-1.5c-1.6 8.6-3.4 17.2-4.4 26ZM715.8 397.4c-1 3.6 2.2 11.3-1.8 12-6 .2-2.9-5.7-2.8-8.3.1-4.2 1.5-8.6 1.8-12 .4-4.2 2.8-19.2 3.7-23 4.7-19.3 8.2-41.8 5.6-64.6-8.9-2.2-16.6.2-25.9-1a93.5 93.5 0 0 0-.9 21.4c.4 3.4 1.3 7.5 2.4 7.8s2.6-.6 4 0c1.1.3 2.2.6 2.8-.5 3.1-3-1.5-9.8 1-12h6.4c-1.4 16.7-6.2 33.6-8.3 50.7-2.6 21.3-7.9 38-4.6 57.1 8.2-1.6 19.7 0 27.7-1.8 0-9-.5-17.9-1.9-26.7a22 22 0 0 0-9.2.9Zm0 156.1c-1 3.6 2.2 11.4-1.8 12-6 .2-2.9-5.6-2.8-8.3.1-4.2 1.5-8.6 1.8-12 .4-4.2 2.8-19.2 3.7-23 4.7-19.3 8.2-41.8 5.6-64.6-8.9-2.2-16.6.2-25.9-.9a93.5 93.5 0 0 0-.9 21.4c.4 3.4 1.3 7.5 2.4 7.8s2.6-.7 4-.2c1.1.5 2.2.8 2.8-.4 3.1-3-1.5-9.7 1-12h6.4c-1.4 16.7-6.2 33.6-8.3 50.7-2.6 21.4-7.9 38.1-4.6 57.2 8.2-1.7 19.7 0 27.7-1.9 0-9-.5-17.9-1.9-26.7-3.5-.2-6.8 0-9.2 1Zm-16.6-440.7c8.2-1.6 19.7 0 27.7-1.9 0-9-.5-17.9-1.9-26.7-3.5-.2-6.8 0-9.2 1-1 3.5 2.2 11.3-1.8 12-6 .1-2.9-5.7-2.8-8.4.1-4.2 1.5-8.6 1.8-12l1.5-10.8-4.1.3h-.7l-.3.1-.4.1-.3.1-.2.1-.4.3a1 1 0 0 1-.6.3h-.1l-.4-.1-.4-.2c-1-.5-2.2-1.6-3.5-2.4h-.1l-.4-.2c-2.7 17.3-6.2 32-3.4 48.4Zm16.6 596.8c-1 3.7 2.2 11.4-1.8 12-6 .2-2.9-5.6-2.8-8.3.1-4.1 1.5-8.6 1.8-12 .4-4.2 2.8-19.2 3.7-23 4.7-19.3 8.2-41.8 5.6-64.5-8.9-2.2-16.6.1-25.9-1a93.6 93.6 0 0 0-.9 21.4c.4 3.4 1.3 7.5 2.4 7.8s2.6-.6 4-.1c1.1.4 2.2.7 2.8-.5 3.1-3-1.5-9.7 1-12h6.4c-1.4 16.7-6.2 33.6-8.3 50.7-2.6 21.4-7.9 38.1-4.6 57.2 8.2-1.6 19.7 0 27.7-1.9 0-9-.5-17.8-1.9-26.7-3.5-.2-6.8 0-9.2 1Zm6.5 60.3c-8.9-2.2-16.6.1-25.9-1a93.5 93.5 0 0 0-.9 21.4c.4 3.4 1.3 7.5 2.4 7.8s2.6-.6 4-.1c1.1.4 2.2.7 2.8-.5 3.1-3-1.5-9.7 1-12h6.4c-.4 4.7-1 9.4-1.8 14h1.4a5.3 5.3 0 0 1 1 .2l.8.3 1 .3.2.1 1 .2h1.2a9.7 9.7 0 0 0 2.3-.2l1-.3h.2l1-.4h.2l1-.5c.8-9.6.8-19.4-.3-29.3ZM647 551.3c-1.3 16.7-6.1 33.6-8.2 50.7-2.6 21.4-8 38.1-4.6 57.2 8.2-1.6 19.7 0 27.6-1.9.1-9-.5-17.8-1.8-26.7-3.6-.2-6.8 0-9.2 1-1 3.6 2.1 11.3-1.9 12-5.9.1-2.8-5.7-2.8-8.4.2-4.2 1.6-8.6 1.9-12a290 290 0 0 1 3.7-23 185 185 0 0 0 5.5-64.5c-8.8-2.2-16.6.1-25.8-1a93.4 93.4 0 0 0-1 21.4c.5 3.4 1.3 7.5 2.5 7.8 1 .3 2.6-.6 4-.1 1 .4 2.1.7 2.8-.5 3-3-1.6-9.7.9-12h6.5Zm133.9-388.2c-1 3.7 2.1 11.4-1.9 12-5.9.3-2.8-5.6-2.7-8.3 0-4.1 1.5-8.6 1.8-12 .4-4.1 2.8-19.1 3.7-23 4.6-19.2 8.2-41.7 5.5-64.5-8.8-2.2-16.6.2-25.8-1a93.6 93.6 0 0 0-1 21.4c.5 3.4 1.3 7.5 2.5 7.8s2.6-.6 4-.1c1 .4 2.1.7 2.8-.5 3-3-1.5-9.7 1-12h6.4c-1.4 16.7-6.2 33.6-8.3 50.7-2.6 21.4-8 38.1-4.6 57.2 8.2-1.6 19.7 0 27.6-1.9.1-8.9-.5-17.8-1.8-26.7-3.6-.2-6.8 0-9.2 1ZM630.5 87.7c.4 3.4 1.2 7.5 2.4 7.8 1 .3 2.6-.6 4-.1 1 .4 2.1.7 2.8-.5 3-3-1.6-9.7.9-12h6.5c-1.4 16.7-6.2 33.6-8.3 50.7-2.6 21.4-8 38.1-4.6 57.2 8.2-1.6 19.7 0 27.6-1.9.1-8.9-.5-17.8-1.8-26.7-3.6-.2-6.8 0-9.2 1-1 3.6 2.1 11.3-1.9 12-5.9.2-2.8-5.7-2.8-8.4.2-4.1 1.6-8.6 1.9-12a290 290 0 0 1 3.7-23c4.2-17.4 7.5-37.5 6-58l-.7.2c-.6.2-1.1.2-1.6.2h-.9l-2.7-.1h-1.5a15.4 15.4 0 0 0-1.6 0h-.7l-.1.1-.8.2h-.2l-.6.3h-.2a8.7 8.7 0 0 0-2.2 1.5c-3.3 2.8-.3 5.1-.3 5.6v.1h-.3a15 15 0 0 1-2.4-.5l-.3-.1-1.3-.4-.3-.1-.9-.3-.2-.1c-2-.7-3.5-1.4-4.7-1.6h-.5v-.1c-.5 0-1 0-1.3.2h-.2a4 4 0 0 0-.3.2h-.2c-.1.2-.3.2-.4.3 0 2.9 0 5.7.3 8.3Zm198.8 25.1c8.2-1.6 19.7 0 27.7-1.9 0-9-.5-17.9-1.9-26.7-3.5-.2-6.8 0-9.2 1-1 3.5 2.2 11.3-1.8 12-6 .1-2.9-5.7-2.8-8.4.1-4.2 1.5-8.6 1.8-12a302.8 302.8 0 0 1 5.2-29.2l-1.3-.2h-.5l-.3-.1h-.5l-.3-.1h-.5a14.6 14.6 0 0 0-2.3 0h-.5l-.2.1-.3.1h-.2l-.2.2h-.2l-.3.2-.2.1-.4.3-.7.5-.3.2a8.5 8.5 0 0 1-1.3.6h-.3l-.7.3h-.4a15 15 0 0 1-1.2.3h-.5l-.8 5.5c-2.6 21.4-7.9 38.1-4.6 57.2Zm-131.4 60.8c1.1.3 2.6-.6 4-.1 1.1.4 2.2.7 2.8-.5 3.1-3-1.5-9.7 1-12h6.4c-1.4 16.7-6.2 33.6-8.3 50.7-2.6 21.4-7.9 38.1-4.6 57.2 8.2-1.6 19.7 0 27.7-1.8 0-9-.5-18-1.9-26.8-3.5-.2-6.8 0-9.2 1-1 3.6 2.2 11.3-1.8 12-6 .2-2.9-5.7-2.8-8.4.1-4.1 1.5-8.5 1.8-12 .4-4.2 2.8-19.1 3.7-23 4.7-19.2 8.2-41.8 5.6-64.5-8.9-2.2-16.6.2-25.9-1a93.5 93.5 0 0 0-.9 21.4c.4 3.4 1.3 7.5 2.4 7.8Zm-47.1 614.1c-1 3.6 2.1 11.3-1.9 12-5.9.2-2.8-5.7-2.8-8.3.2-4.2 1.6-8.6 1.9-12 .4-4.2 2.7-19.2 3.7-23a185 185 0 0 0 5.5-64.6c-8.8-2.2-16.6.2-25.8-1a93.4 93.4 0 0 0-1 21.4c.5 3.4 1.3 7.5 2.5 7.8 1 .3 2.6-.6 4 0 1 .3 2.1.6 2.8-.5 3-3.1-1.6-9.8.9-12h6.5c-1.4 16.7-6.2 33.5-8.3 50.7-2.6 21.3-8 38-4.6 57.1 8.2-1.6 19.7 0 27.6-1.8.1-9-.5-18-1.8-26.8-3.6-.1-6.8 0-9.2 1Zm9.2-313.2c-3.6-.2-6.8-.1-9.2.9-1 3.6 2.1 11.4-1.9 12-5.9.2-2.8-5.6-2.8-8.3.2-4.2 1.6-8.6 1.9-12 .4-4.2 2.7-19.2 3.7-23a185 185 0 0 0 5.5-64.5c-8.8-2.3-16.6.1-25.8-1a93.5 93.5 0 0 0-1 21.4c.5 3.4 1.3 7.5 2.5 7.8 1 .3 2.6-.7 4-.2 1 .5 2.1.8 2.8-.4 3-3-1.6-9.7.9-12h6.5c-1.4 16.7-6.2 33.6-8.3 50.7-2.6 21.3-8 38-4.6 57.2 8.2-1.7 19.7 0 27.6-1.9.1-9-.5-17.9-1.8-26.7Zm186 235.1c-1 3.7 2 11.4-2 12-5.8.2-2.8-5.6-2.7-8.3.1-4.1 1.5-8.6 1.8-12 .4-4.2 2.8-19.2 3.7-23a185 185 0 0 0 5.6-64.5c-8.8-2.2-16.6.1-25.9-1a93.6 93.6 0 0 0-.9 21.4c.4 3.4 1.3 7.5 2.4 7.8 1.2.3 2.7-.6 4-.1 1.1.4 2.2.7 2.9-.5 3-3-1.6-9.7.9-12h6.4c-1.4 16.7-6.2 33.6-8.3 50.7-2.6 21.4-7.9 38.1-4.6 57.2 8.2-1.6 19.7 0 27.7-1.9 0-9-.5-17.8-1.9-26.7-3.5-.2-6.8 0-9.2 1Zm6.4 60.3c-8.8-2.2-16.6.1-25.9-1-.4 3.2-1 7.6-1.1 12.1h1.3a12.8 12.8 0 0 1 2.5.4h.2l1.3.5a11 11 0 0 0 4.8.7 8 8 0 0 0 3.5-1.6l.7-.5a24.2 24.2 0 0 1 1.3-.9 3 3 0 0 1 1.8-.4c.8 0 1.7.3 2.8 1l1 .7.3.1.8.5h.2l.8.4h.2l.8.2h.1l.9.1c1 0 1.8-.2 2.5-.5-.1-4-.4-7.9-.8-11.8ZM846 553.5c-1 3.6 2 11.4-2 12-5.8.2-2.8-5.6-2.7-8.3.1-4.2 1.5-8.6 1.8-12 .4-4.2 2.8-19.2 3.7-23a185 185 0 0 0 5.6-64.6c-8.8-2.2-16.6.2-25.9-.9a93.5 93.5 0 0 0-.9 21.4c.4 3.4 1.3 7.5 2.4 7.8 1.2.3 2.7-.7 4-.2 1.1.5 2.2.8 2.9-.4 3-3-1.6-9.7.9-12h6.4c-1.4 16.7-6.2 33.6-8.3 50.7-2.6 21.4-7.9 38.1-4.6 57.2 8.2-1.7 19.7 0 27.7-1.9 0-9-.5-17.9-1.9-26.7-3.5-.2-6.8 0-9.2 1Zm-18-379.9c1.2.3 2.7-.6 4-.1 1.1.4 2.2.7 2.9-.5 3-3-1.6-9.7.9-12h6.4c-1.4 16.7-6.2 33.6-8.3 50.7-2.6 21.4-7.9 38.1-4.6 57.2 8.2-1.6 19.7 0 27.7-1.8 0-9-.5-18-1.9-26.8-3.5-.2-6.8 0-9.2 1-1 3.6 2.2 11.3-1.8 12-6 .2-2.9-5.7-2.8-8.4.1-4.1 1.5-8.5 1.8-12 .4-4.2 2.8-19.1 3.7-23a185 185 0 0 0 5.6-64.5c-8.8-2.2-16.6.2-25.9-1a93.5 93.5 0 0 0-.9 21.4c.4 3.4 1.3 7.5 2.4 7.8Zm18 223.8c-1 3.6 2 11.3-2 12-5.8.2-2.8-5.7-2.7-8.3.1-4.2 1.5-8.6 1.8-12 .4-4.2 2.8-19.2 3.7-23a185 185 0 0 0 5.6-64.6c-8.8-2.2-16.6.2-25.9-1a93.5 93.5 0 0 0-.9 21.4c.4 3.4 1.3 7.5 2.4 7.8 1.2.3 2.7-.6 4 0 1.1.3 2.2.6 2.9-.5 3-3-1.6-9.8.9-12h6.4c-1.4 16.7-6.2 33.6-8.3 50.7-2.6 21.3-7.9 38-4.6 57.1 8.2-1.6 19.7 0 27.7-1.8 0-9-.5-17.9-1.9-26.7a22 22 0 0 0-9.2.9Zm-65.1 234.1c-1 3.7 2.1 11.4-1.9 12-5.9.2-2.8-5.6-2.7-8.3 0-4.2 1.5-8.6 1.8-12 .4-4.1 2.8-19.1 3.7-23 4.6-19.2 8.2-41.7 5.5-64.5-8.8-2.2-16.6.1-25.8-1a93.4 93.4 0 0 0-1 21.4c.5 3.4 1.3 7.5 2.5 7.8s2.6-.6 4-.1c1 .4 2.1.7 2.8-.5 3-3-1.5-9.7 1-12h6.4c-1.4 16.7-6.2 33.6-8.3 50.7-2.6 21.4-8 38.1-4.6 57.2 8.2-1.6 19.7 0 27.6-1.9.1-9-.5-17.8-1.8-26.7-3.6-.2-6.8 0-9.2 1ZM763 251.6c1 .3 2.6-.6 4 0 1 .3 2.1.6 2.8-.5 3-3-1.5-9.8 1-12h6.4c-1.4 16.7-6.2 33.5-8.3 50.7-2.6 21.3-8 38-4.6 57.1 8.2-1.6 19.7 0 27.6-1.8.1-9-.5-18-1.8-26.8-3.6-.1-6.8 0-9.2 1-1 3.6 2.1 11.3-1.9 12-5.9.2-2.8-5.7-2.7-8.3 0-4.2 1.5-8.6 1.8-12 .4-4.2 2.8-19.2 3.7-23 4.6-19.3 8.2-41.8 5.5-64.6-8.8-2.2-16.6.2-25.8-.9a93.5 93.5 0 0 0-1 21.3c.5 3.4 1.3 7.6 2.5 7.8Zm17.9 223.8c-1 3.6 2.1 11.4-1.9 12-5.9.2-2.8-5.6-2.7-8.3 0-4.2 1.5-8.6 1.8-12 .4-4.2 2.8-19.2 3.7-23 4.6-19.2 8.2-41.8 5.5-64.5-8.8-2.3-16.6.1-25.8-1a93.5 93.5 0 0 0-1 21.4c.5 3.4 1.3 7.5 2.5 7.8s2.6-.7 4-.2c1 .5 2.1.8 2.8-.4 3-3-1.5-9.7 1-12h6.4c-1.4 16.7-6.2 33.6-8.3 50.7-2.6 21.3-8 38-4.6 57.2 8.2-1.7 19.7 0 27.6-1.9.1-9-.5-17.9-1.8-26.7-3.6-.2-6.8-.1-9.2.9Zm-2.9 304a394 394 0 0 1 3.8-23c4.6-19.3 8.2-41.8 5.5-64.6-8.8-2.2-16.6.2-25.8-1a93.4 93.4 0 0 0-1 21.4c.5 3.4 1.3 7.5 2.5 7.8s2.6-.6 4 0c1 .3 2.1.6 2.8-.5 3-3.1-1.5-9.8 1-12h6.4c-1.4 16.7-6.2 33.5-8.3 50.7-1.6 12.7-4 23.8-5.1 34.7l.6-.6v-.1l2-2.2 1-1.3.7-.7a6.7 6.7 0 0 1 7.3-1.8l1.4.5c.5-2.7 1.1-5.2 1.3-7.3Zm2.7 9.1 2.7 1.7.6.4c.1 0 .2 0 .3-.2v-.2c.4-.5.9-1.6 2.7-3.5a17 17 0 0 0-6.1 1l-.2.8ZM65.3 397.4c-1 3.6 2.1 11.3-1.9 12-5.9.2-2.8-5.7-2.7-8.3 0-4.2 1.5-8.6 1.8-12 .4-4.2 2.8-19.2 3.7-23a185 185 0 0 0 5.5-64.6c-8.8-2.2-16.6.2-25.8-1a93.5 93.5 0 0 0-1 21.4c.4 3.4 1.3 7.5 2.4 7.8s2.7-.6 4 0c1.2.3 2.2.6 2.9-.5 3-3-1.6-9.8 1-12h6.4c-1.4 16.7-6.2 33.6-8.3 50.7-2.6 21.3-8 38-4.6 57.1 8.2-1.6 19.7 0 27.6-1.8.1-9-.5-17.9-1.8-26.7-3.6-.2-6.8-.1-9.2.9ZM9.4 786.7c-3.5-.1-6.8 0-9.2 1l-.2 1.8.1 2.3 1 .1h.1c.4 0 .7.2 1 .3l1 .4.9.6.5.4h.2a3.7 3.7 0 0 0 1.1.4h1.9a9.8 9.8 0 0 0 1.5-.4h.2l.8-.3-.9-6.6ZM6.7 379.6a32 32 0 0 0-6.7-1V450l1.1-5.8c4.7-19.2 8.2-41.8 5.6-64.5Zm2.7 94.9a22 22 0 0 0-9.2.9c-.8 2.9 1 8.4-.2 10.8v16c4 0 8-.2 11.3-1 0-9-.5-17.9-1.9-26.7ZM6.7 223.4c-2.3-.5-4.5-.8-6.7-1v71.4l1.1-5.8c4.7-19.3 8.2-41.8 5.6-64.6Zm2.7 94.9c-3.5-.1-6.8 0-9.2 1-.8 2.9 1 8.4-.2 10.8v16c4 0 8-.2 11.3-1 0-9-.5-18-1.9-26.8Zm0 312.3c-3.5-.2-6.8 0-9.2 1-.8 2.8 1 8.3-.2 10.7v16c4 0 8-.2 11.3-1 0-9-.5-17.8-1.9-26.7Zm-2.7-94.9a32 32 0 0 0-6.7-1V606l1.1-5.8c4.7-19.2 8.2-41.7 5.6-64.5Zm0 156.1c-2.3-.6-4.5-.8-6.7-1v71.4l1.1-5.8c4.7-19.3 8.2-41.8 5.6-64.6Z" />
</svg>