<svg width="1454" height="81" viewBox="0 0 1454 81" fill="none" xmlns="http://www.w3.org/2000/svg">
    <path d="M1429.25 19.6954C1427.17 18.0861 1426.91 18.6723 1422.99 20.3069C1419.07 21.9415 1420.26 17.3016 1412.94 19.685C1405.62 22.0684 1408.84 17.8951 1401.72 18.5523C1394.59 19.2095 1396.49 17.1066 1392.43 16.1737C1388.38 15.2408 1387.39 12.7148 1383.53 15.4923C1379.66 18.2697 1383.76 20.0587 1379.77 20.2667C1375.77 20.4747 1372.83 18.9109 1370.89 20.1568C1368.95 21.4026 1369.52 15.9347 1363.4 19.1156C1357.27 22.2965 1361.31 17.5062 1355.13 19.832C1348.96 22.1579 1353.04 12.4996 1347.46 15.3662C1341.88 18.2328 1340.58 20.5898 1340.34 16.0223C1340.1 11.4549 1335.53 11.6937 1335.73 15.404C1335.92 19.1143 1332.56 14.9972 1330.78 19.3828C1329.01 23.7685 1328.08 16.9468 1323.63 19.4693C1319.18 21.9917 1320.17 24.5147 1316.63 22.4092C1313.09 20.3038 1315.86 18.7267 1312.96 23.4575C1310.06 28.1883 1308.61 22.2549 1305.81 23.5443C1303.02 24.8336 1298.68 23.9155 1297.42 21.6912C1296.16 19.467 1294.08 18.1456 1288.98 18.9824C1283.87 19.8192 1282.07 18.1971 1279.86 19.7425C1277.65 21.2879 1273.97 16.6152 1270.71 19.9333C1267.45 23.2515 1267.69 16.942 1263.7 17.1499C1259.7 17.3579 1258.46 21.1415 1256.86 17.7911C1255.25 14.4408 1247.54 14.5562 1245.9 16.0729C1244.26 17.5896 1243.51 14.1937 1240.45 15.7828C1237.38 17.3718 1237.22 14.2349 1234.99 15.4956C1232.77 16.7563 1229.02 10.654 1224.88 13.732C1220.75 16.8101 1214.58 13.6964 1214.15 16.5802C1213.73 19.4641 1212.28 18.967 1210.5 17.9152C1208.73 16.8634 1207.5 15.2086 1204.48 17.6548C1201.46 20.101 1201.46 20.1028 1200.17 17.3082C1198.88 14.5135 1195.51 15.8327 1193.6 17.65C1191.69 19.4672 1188.95 16.1734 1186.5 18.5909C1184.05 21.0083 1181.93 18.8287 1179.93 18.9327C1177.93 19.0367 1176.91 15.9415 1174.1 16.9461C1171.3 17.9508 1169.12 14.6311 1166.32 15.9205C1163.53 17.2099 1162.18 13.2744 1158.29 15.4804C1154.39 17.6864 1151.96 14.9504 1151.92 14.0942C1151.87 13.2381 1148.56 9.97577 1145.13 10.154C1141.71 10.3323 1142.94 6.54665 1138.66 6.76957C1134.37 6.9925 1134.8 4.10862 1130.52 4.3315C1126.23 4.55437 1124.43 2.93114 1124.36 1.50357C1124.28 0.0759974 1121.78 1.35356 1119 2.9277C1116.22 4.50184 1114.42 -2.55749 1111.46 1.03046C1108.49 4.61842 1110.61 6.79908 1103.49 7.45528C1096.37 8.11148 1096.82 11.2383 1090.04 13.0205C1083.27 14.8027 1082.15 9.71112 1079.96 11.8281C1077.78 13.9451 1077 9.97882 1073.49 13.8823C1069.97 17.7858 1068.44 15.8629 1066.85 12.7974C1065.26 9.73192 1062.01 13.3359 1060.99 10.2406C1059.97 7.14528 1060.87 7.95786 1055.57 10.5228C1050.26 13.0878 1053.99 7.74389 1046.63 9.27106C1039.27 10.7982 1044.32 3.38101 1039.04 6.51641C1033.77 9.65181 1029.19 9.604 1029.07 7.32129C1028.95 5.03857 1025.5 5.21308 1022.21 7.67848C1022.21 7.67848 1005.71 9.6819 1001.28 12.489C996.845 15.2961 991.816 12.1222 988.451 13.4424C985.086 14.7625 982.024 10.9158 978.416 13.107C974.808 15.2982 973.986 10.4759 969.194 11.8693C964.402 13.2626 964.073 6.98395 960.541 10.6017C957.009 14.2194 954.773 9.75802 950.429 14.2764C946.086 18.7948 946.27 11.3445 942.061 12.995C937.853 14.6455 936.989 8.96565 933.366 10.8712C929.743 12.7767 921.577 9.76788 915.31 10.3806C909.042 10.9934 912.232 6.24768 906.115 9.7154C899.999 13.1831 900.559 7.42806 897.193 8.74722C893.827 10.0664 894.175 5.75592 891.38 7.04639C888.584 8.33687 886.409 5.01543 884.185 6.2761C881.962 7.53678 880.041 3.62977 875.578 5.86551C871.114 8.10126 868.44 6.23705 864.835 8.42812C861.229 10.6192 858.558 3.31766 851.511 5.40244C844.463 7.48721 848.477 2.12655 845.472 4.85836C842.467 7.59017 838.051 5.24458 834.025 4.8822C829.998 4.51983 824.648 11.666 821.463 10.9733C818.277 10.2807 817.737 10.8809 812.599 11.1483C807.461 11.4158 810.327 16.9912 805.941 15.2161C801.555 13.4409 802.457 14.2526 797.752 17.3593C793.048 20.4661 790.933 18.2873 788.182 20.4339C785.431 22.5805 783.556 19.5297 777.123 22.4409C770.691 25.3522 770.155 20.5136 766.367 24.7176C762.579 28.9216 761.755 24.0993 758.42 25.9909C755.084 27.8824 755.225 19.5729 750.549 23.2522C745.873 26.9314 744.389 25.8628 740.466 27.4974C736.543 29.1321 736.548 23.6944 735.209 25.4811C733.869 27.2677 730.582 24.5759 729.44 24.6354C728.298 24.6948 719.301 22.3013 712.871 25.2124C706.44 28.1235 702.534 24.6044 702.534 24.6044C702.534 24.6044 694.423 22.7367 689.405 25.2878C684.387 27.8389 680.319 21.1809 678.183 24.1539C676.047 27.127 668.089 22.676 660.127 23.6624C652.165 24.6488 653.762 16.8386 647.782 17.4373C641.803 18.036 645.351 14.7021 637.748 17.1012C630.145 19.5004 630.297 16.9169 627.458 17.3512C624.618 17.7855 621.226 13.0958 614.691 14.0089C608.156 14.922 607.663 10.9409 604.027 12.5606C600.391 14.1803 593.858 9.65505 592.401 9.15893C590.944 8.66281 584.74 10.4173 582.89 13.3754C581.041 16.3336 578.459 16.1815 574.462 16.3896C570.465 16.5976 566.903 19.645 563.808 20.6655C560.713 21.6861 559.315 22.3307 554.615 20C549.915 17.6693 549.174 25.4339 547.208 20.6709C545.243 15.908 540.839 19.2856 539.925 18.1883C539.01 17.0909 532.489 18.2899 529.349 18.4534C526.209 18.6168 523.069 18.7801 522.95 16.4964C522.831 14.2127 518.954 16.7044 515.604 18.3102C512.253 19.916 515.095 14.0434 509.205 16.3534C503.315 18.6634 502.563 20.7061 499.092 20.0283C495.621 19.3505 492.257 20.6696 488.683 17.9927C485.11 15.3158 484.087 17.66 480.51 20.4216C476.932 23.1832 479.445 16.4701 475.554 18.6761C471.663 20.882 472.057 11.9894 469.037 14.4365C466.017 16.8836 465.522 12.9015 463.088 15.6045C460.654 18.3076 459.858 14.0548 453.638 15.5224C447.419 16.9901 448.215 15.8047 447.481 12.6955C446.747 9.58632 442.599 12.3768 439.578 14.8229C436.557 17.2691 432.264 11.7698 431.121 11.8293C429.978 11.8888 422.229 11.4326 418.321 13.3539C414.414 15.2753 413.155 13.05 407.175 13.6478C401.195 14.2455 408.424 10.1478 401.589 10.7911C394.754 11.4343 386.312 8.72343 379.356 12.5194C372.399 16.3153 378.035 9.15432 372.145 11.4643C366.255 13.7743 357.752 15.3627 353.575 17.5835C349.398 19.8043 349.683 19.7895 346.725 17.94C343.767 16.0906 342.725 23.5856 339.287 18.0408C335.849 12.496 334.495 19.4342 331.684 20.44C328.874 21.4457 325.783 17.0279 320.75 19.2933C317.315 20.6497 313.575 21.0419 309.934 20.4281L307.019 19.436C304.106 18.4437 302.272 21.6865 298.788 20.7229C295.304 19.7593 294.881 22.6432 289.967 21.753C285.054 20.8628 285.176 23.1494 281.72 22.7573C278.265 22.3651 281.527 19.0459 276.96 19.2836C272.393 19.5214 269.447 23.3961 263.26 19.9967C257.074 16.5974 255.882 21.2404 252.172 21.4335C248.462 21.6266 247.513 25.3953 242.044 24.8225C236.575 24.2497 232.848 29.5944 227.425 29.8766C222.003 30.1589 227.425 29.8767 230.416 26.8592C233.407 23.8416 222.816 23.8209 221.389 23.8952C216.963 23.6501 212.589 22.8187 208.381 21.4229C201.983 19.466 205.302 22.7272 195.882 23.2175C186.463 23.7078 177.87 23.583 174.518 25.1889C171.166 26.7949 168.825 25.7717 166.078 22.4808C163.331 19.1899 157.77 22.3393 154.946 23.0602C152.122 23.7812 151.899 19.4966 147.302 19.1649C142.705 18.8333 139.202 23.0214 137.776 23.0956C136.35 23.1698 132.318 28.2449 129.751 28.3785C127.183 28.5122 133.209 23.3333 129.724 22.3697C126.239 21.4062 128.986 24.6982 122.452 25.6102C115.919 26.5223 113.033 26.1005 112.354 29.5717C111.675 33.0429 108.81 27.4662 102.98 30.917C97.1504 34.3678 97.225 30.3592 92.5075 33.1802C87.7901 36.0011 89.609 32.4724 84.8896 35.2945C80.1702 38.1165 80.4454 32.3766 78.1138 37.0778C75.7821 41.779 73.2624 37.3303 68.695 37.5681C64.1275 37.8058 61.948 39.9225 59.3315 44.6375C56.7151 49.3525 59.1386 40.9283 56.6742 43.06C54.2098 45.1917 49.1607 47.1704 44.575 52.5608C39.9893 57.9513 38.8973 53.4295 34.523 57.3775C30.1487 61.3255 23.6324 57.0859 17.8623 61.6796C12.0921 66.2732 10.4845 62.9219 6.50342 63.4156C4.27668 63.6606 2.09158 64.1977 0.0050472 65.0131L0 80.0541L1453.2 80.5695L1435.84 19.9685C1435.84 19.9685 1431.34 21.3066 1429.25 19.6954Z" fill="#961702" />
</svg>