<svg viewBox="0 0 11339 1418" xmlns="http://www.w3.org/2000/svg" xml:space="preserve"
    style="fill-rule:evenodd;clip-rule:evenodd;stroke-linejoin:round;stroke-miterlimit:2"><path d="M14601.1 823.742c-.957-.354-1.918-.776-2.877-1.298-12.678-6.899-24.695 1.866-32.182.528-7.488-1.336-22.906 5.093-31.254 2.966-8.348-2.126-13.873 3.887-22.256.937-8.381-2.951-7.348 1.96-18.447-6.657-11.096-8.615-1.266 9.137-11.295 6.257-10.031-2.883-2.092 9.17-12.98 5.5-10.889-3.67 1.891 5.701-13.84 4.711-15.73-.991-22.014 6.705-39.461 4.135-17.449-2.566-6.76 15.975-17.752 9.833-10.994-6.145-11.576-.339-20.027-4.939-8.449-4.599-10.781-1.198-19.129-3.324-8.348-2.125-14.697 3.92-26.344 1.933-11.643-1.987-6.213 9.346-18.889 2.447-12.676-6.898-4.703 5.979-20.674-.783-15.975-6.758-24.348 10.108-34.516 3.929-10.17-6.179-19.334 11.549-34.551 3.104-15.219-8.44-21.57-2.395-29.162-6.203-7.59-3.81-4.668 6.802-10.576 3.746-5.91-3.052-8.104 3.645-24.902-3.081-16.799-6.724-2.229 5.875-13.084 3.029s-24.449 7.635-30.359 4.579c-5.908-3.054-24.555 5.162-32.936 2.21-8.381-2.949-13.771 6.359-25.553 1.076-11.781-5.283-11.816-6.11-15.766-1.814-3.947 4.295-7.73-7.104-13.258-1.094-5.525 6.013-10.715.451-17.787 9.008-7.07 8.553-14.01.588-21.977 7.53-7.967 6.94-17.996 4.059-30.674-2.838-12.674-6.9-7.35 1.961-11.504 1.309-4.156-.65-6.455 3.576-17.275 1.552-10.818-2.022-16.963 8.971-27.025 5.265-10.064-3.704-16.965 8.972-27.82 6.125-10.854-2.846-14.66 4.746-24.623 3.513-9.961-1.232-17.066 6.499-17.066 6.499l-3.402-2.333c-3.4-2.336-17.822 8.177-24.59 4.334-6.766-3.843-7.244 4.433-15.52 3.956-8.279-.477-13.537-7.686-18.205-.885-4.668 6.802-13.736 7.184-19.678 3.304-5.945-3.879-15.115-5.97-29.57 3.722s-11.818-6.109-20.572 1.691c-3.271 2.916-7.875 3.482-9.979 4.57-3.607 1.865-3.898 6.177-7.969 3.337-4.07-2.839-9.383-7.07-15.221-8.477-5.838-1.407-10.992-6.143-20.061-5.761-9.066.38-11.781-5.286-23.32-4.8-11.539.484-15.975-6.759-30.811-6.136-14.836.624-26.516-2.188-33.832.595-7.312 2.786-8.451-4.597-18.34-4.181-9.891.416-5.188-5.562-16.008-7.584-10.818-2.021-1.996-8.172-9.518-10.334-7.523-2.162-5.596 4.365-14.873-.201-9.273-4.563-8.926 3.681-18.271-2.533-9.344-6.212-6.422 4.398-17.449-2.571-11.027-6.966-15.557 3.132-28.232-3.764-12.674-6.9 4.531-10.102-8.83-13.667-13.363-3.567-14.562 7.218-24.695 1.862-10.133-5.352-16.621-2.602-16.936-10.021-.311-7.417-11.748-4.459-19.029-.851-7.279 3.61-17.379-.921-23.867 1.83-6.49 2.75-6.768-3.843-19.887-1.642-13.119 2.204-17.379-.919-25.898-7.167-8.521-6.25-13.398-4.391-21.779-7.342-8.383-2.95-10.68 1.274-23.393-6.447-12.711-7.723-25.758-3.872-31.736-8.575-5.979-4.7-11.646-1.985-20.885-5.727-9.24-3.741-15.01-3.499-21.023-9.025-6.012-5.527-23.668-13.042-34.453-14.239-10.785-1.197-29.951-5.347-29.951-5.347s-20.023-4.937-28.232-3.767c-8.209 1.171-11.611-1.163-23.15-.678-11.539.487-10.236-7.825-22.6-7.304-12.363.519-2.719-5.667-17.553-5.044-14.838.625-.383-9.065-16.113-10.057-15.73-.989-23.488 10.897-28.779 2.863-5.295-8.036-21.604-3.22-29.266-8.678-7.662-5.459-19.236-5.796-27.652-9.572-8.418-3.774-12.398-.303-25.006-5.554-12.607-5.25-13.908 3.062-29.092-4.556-15.184-7.62-13.049 3.851-24.799-.609-11.746-4.459-16.484.693-27.408-3.801-10.922-4.497-14.184-3.533-26.826-9.606-12.643-6.074-13.221-.27-25.898-7.169-12.676-6.897-14.15-2.708-24.9-3.082-10.75-.373-19.402 9.9-25.414 4.372-6.012-5.528-7.559-2.984-12.676-6.896-5.119-3.914-1.475 4.189-15.627 1.483-14.15-2.708-8.416-3.775-20.814-4.079-12.398-.305-10.682 1.275-21.639-4.044-10.959-5.321-14.875-.201-28.477-9.537-13.604-9.338-14.498-10.953-20.27-10.708-5.768.242-14.594 6.394-26.479-1.363-11.887-7.756-12.225 3.819-21.467.079-9.24-3.74-10.576 3.745-25.725-3.048-15.148-6.796-11.062-7.791-25.9-7.168-14.838.625-11.367 4.606-26.584-3.838-15.219-8.441-19.99-4.111-28.545-11.185-8.555-7.07-13.154 1.381-23.496-8.92-10.342-10.3-12.328 1.344-21.641-4.044-9.309-5.388-18.027 3.235-20.605.866-2.576-2.368-4.018 2.646-9.926-.407-5.908-3.055-7.418.313-15.047-4.322-7.623-4.632-9.82 2.065-15.729-.989-5.908-3.055-6.662-1.373-14.975-2.673-8.312-1.304-15.697-.168-18.926 1.621-3.227 1.787-1.299 8.311-14.871-.2-13.57-8.512-7.211 5.257-21.432.901-14.223-4.356-22.533-5.657-25.213-10.5-2.68-4.842-16.729-5.076-16.729-5.076s-12.33 1.344-16.658-3.43c-4.33-4.771-13.432-5.212-22.674-8.954-9.238-3.739-9.926-.408-20.848-4.903-10.924-4.494-17.379-.922-24.971-4.729-7.592-3.81-14.223-4.355-24.111-3.94-9.891.417-12.467-1.954-23.186-1.503-10.717.451-.277-6.595-18.408-5.832-18.135.762-9.451-8.684-25.938-7.992-16.482.694-16.039-8.406-25.246-11.322-9.205-2.917-10.508 5.395-24.9-3.083-14.396-8.477-26.379 1.108-33.18-3.56-6.803-4.666-9.449-8.684-20.99-8.197-11.537.484-8.553-7.073-24.215-6.416-15.662.66-11.607-1.161-26.688-6.306-15.078-5.147-22.707-9.78-32.598-9.364-9.893.416-7.729-7.107-19.27-6.622-11.541.486-23.355-5.624-31.496-2.805-8.137 2.821-5.771.243-15.66.659-9.895.416-14.328-6.829-24.146-4.765-9.822 2.065-9.652 6.186-22.221 1.762-12.572-4.427-11.576-.342-21.676-4.869-10.098-4.531-11.781-5.285-28.268-4.591-16.484.692-16.9-9.199-33.455-10.154-16.557-.955-26.551-3.011-31.496-2.804-4.947.208-15.047-4.322-22.256.937-7.211 5.258-22.463-4.01-25.762-3.872-3.295.138-17.551-5.042-24.832-1.431-7.279 3.608-10.34-10.3-27.615-8.748-17.275 1.551-19.271-6.621-30.637-2.016-11.365 4.607-14.359-7.653-25.076-7.202-10.713.451-16.242 6.462-27.202 1.144-10.956-5.319-15.112-5.971-29.949-5.346-14.837.624-9.485-9.509-24.251-7.237-14.768 2.273-18.413-5.832-25.585.251-7.178 6.082-10.171-6.178-26.586-3.838-16.415 2.342-28.337-6.238-36.338-.124-8.002 6.119-18.479-7.478-25.621-.573-7.143 6.907-20.505 3.341-26.1 7.704-5.598 4.366-16.971-10.845-29.951-5.345-12.98 5.5-4.392 13.395-16.036 11.409-11.644-1.987-10.437 7.044-22.357-1.537-11.922-8.582-16.937-10.021-23.115.148-6.177 10.167-2.021 10.818-16.999 8.145-14.974-2.673-16.902-9.199-32.283-1.945-15.385 7.251-20.989-8.201-34.143-6.823-13.152 1.379-18.888 2.446-25.725-3.046-.568-.456-1.784-1.226-2.607-1.732 2.786 1.601-6.506-4.755-11.723-4.376-2.432.176-4.406-1.562-6.157-2.707-5.945-3.88-15.012-3.499-19.68 3.305-4.667 6.8-9.927-.409-18.206-.887-8.276-.477-8.754 7.8-15.521 3.957-6.767-3.845-21.188 6.671-24.589 4.334l-3.402-2.333s-7.105 7.731-17.066 6.498c-9.961-1.233-13.77 6.36-24.623 3.512-10.855-2.846-17.754 9.83-27.819 6.126-10.065-3.705-16.208 7.288-27.028 5.265-10.816-2.023-13.117 2.201-17.273 1.553-4.156-.651 1.17 8.208-11.505 1.308-12.677-6.898-22.706-9.779-30.673-2.839-7.965 6.942-14.904-1.023-21.976 7.531-7.072 8.556-12.261 2.994-17.787 9.006-5.528 6.011-9.312-5.389-13.26-1.093-3.947 4.294-3.983 3.468-15.764-1.815-11.783-5.284-17.172 4.025-25.555 1.075-8.379-2.952-27.026 5.265-32.936 2.21-5.907-3.055-19.503 7.426-30.36 4.581-10.854-2.847 3.716 9.751-13.082 3.027-16.798-6.725-18.991-.029-24.902-3.081-5.909-3.054-2.986 7.556-10.576 3.745-7.594-3.807-13.942 2.239-29.162-6.202-15.217-8.444-24.38 9.284-34.548 3.103-10.171-6.18-18.544 10.689-34.518 3.931-15.973-6.762-7.999 6.115-20.677-.783-12.675-6.9-7.243 4.435-18.887 2.447-11.645-1.988-17.996 4.058-26.343 1.933-8.348-2.126-10.682 1.275-19.13-3.325-8.454-4.598-9.032 1.206-20.028-4.938-10.991-6.144-.303 12.396-17.75 9.831-17.45-2.57-23.732 5.127-39.464 4.136-15.729-.989-2.949 8.38-13.838 4.71-10.891-3.67-2.95 8.384-12.98 5.502-10.032-2.882-.2 14.87-11.296 6.255-11.098-8.617-10.065-3.707-18.447-6.656-8.381-2.951-13.909 3.063-22.255.935-8.347-2.125-23.766 4.302-31.252 2.967-7.49-1.336-19.506 7.427-32.183.528-12.675-6.9-25.517 1.899-29.708.423-4.19-1.475-14.835.624-19.13-3.324-4.295-3.948-18.134.763-25.041-6.378-6.907-7.142-14.082-1.059-26.689-6.31-12.606-5.248-29.813-2.046-35.72-5.103-5.91-3.054-6.109 11.818-16.313 4.813-10.201-7.001-21.569-2.394-29.159-6.205-7.594-3.81-12.157 5.468-18.996-.028-6.836-5.493-14.628 5.571-18.132.762-3.506-4.805-15.012-3.496-21.058-9.846-6.048-6.352-12.226 3.815-22.358-1.536-10.135-5.355-15.628 1.48-20.886-5.729-5.259-7.208-15.731-.991-20.848-4.902-5.121-3.914-16.52-.134-20.166-8.236-3.643-8.105-19.92-2.465-25.213-10.499-5.292-8.036 1.208 9.031-13.91 3.062-15.113-5.971-17.925 5.706-28.849 1.214-10.924-4.496-21.917-10.639-26.279-16.236-4.366-5.597-18.135.762-20.815-4.08-2.68-4.841-6.421 4.399-12.503-2.776-6.085-7.177-13.876 3.885-16.557-.956-2.681-4.843-7.348 1.962-13.36-3.566-6.013-5.527-16.452 1.518-29.163-6.204-12.71-7.725-7.766-7.933-28.58-12.011-20.815-4.078-16.348 3.989-25.621-.572-9.276-4.565-17.381-.923-25.867-6.347-8.484-5.422-22.289.112-22.289.112s-4.843 2.682-21.605-3.219c-16.763-5.901-15.417 6.428-30.463 2.105-15.044-4.321-14.663 4.746-24.729 1.04-10.062-3.705-12.018 8.765-19.572 5.779-7.559-2.985-38.535 6.575-38.535 6.575s-21.084 9.144-26.889 8.564c-5.803-.583-24.008-1.468-29.266-8.679-5.257-7.211-22.081 5.059-25.656-1.397-3.574-6.456-11.811 13.707-16.244 6.463-4.432-7.247-4.805 3.504-12.64-6.077-7.834-9.578-18.438 13.162-22.733 9.214-4.294-3.946-13.119 2.204-20.814-4.077-7.695-6.283-14.802 1.449-19.132-3.325-4.33-4.771-14.047-.234-19.201-4.972-5.153-4.738-20.605.866-25.726-3.046-5.119-3.914-13.838 4.71-24.042-2.292-10.204-7.002-25.693-2.222-33.386-8.505-7.697-6.281-19.68 3.306-29.813-2.048-10.134-5.354-9.578 7.834-19.062-1.676-9.481-9.51-17.927 5.708-26.377 1.109-8.451-4.599-5.491 6.837-18.133.762-12.642-6.073-9.578 7.835-26.653-5.484-17.075-13.319-26.889 8.563-33.109-1.91-6.221-10.473-25.798-4.697-30.672-2.838-4.876 1.855-5.355 10.132-12.946 6.323-7.594-3.81-2.534 18.274-13.736 7.184-11.199-11.089-21.327 3.374-26.481-1.363-5.151-4.736-13.978 1.413-20.094-6.587-6.116-8-7.418.312-14.393-8.477-6.978-8.789-21.224 5.846-30.497 1.281-9.277-4.562-23.497-8.92-25.319-12.971-1.823-4.052-13.119 2.203-21.571-2.395-8.449-4.6-18.75 5.742-23.762 4.301-5.017-1.44-15.896 14.707-43.34 10.08-27.446-4.625-46.16 1.94-55.502-4.27-9.347-6.213-18.102 1.586-25.799-4.695-7.693-6.283-26.548-3.013-32.387-4.418-5.84-1.405-26.448-.539-27.957 2.828-1.509 3.367-27.954 2.826-31.496-2.803-3.539-5.634-22.766 8.388-27.305-1.33-4.538-9.719-19.886-1.641-23.39-6.449-3.506-4.805-22.048 5.882-23.835 2.653-1.789-3.226-19.098-2.498-19.098-2.498s-19.748 1.656-33.969-2.701c-14.219-4.355 3.134 15.558-15.382 7.254-18.516-8.305-22.942 4.266-37.231-1.739-14.292-6.004-8.034 5.294-25.006-5.553-8.568-5.476-11.807-4.622-14.257-3.5-9.467 4.34-8.072-2.158-11.899 2.057-3.825 4.216-4.719 2.268-8.016.337-10.64-6.229-6.228 6.158-23.044-4.588-16.97-10.848-10.715.45-25.006-5.554-14.29-6.005-18.714 6.565-37.229-1.738-18.516-8.305-1.165 11.609-15.383 7.251-14.221-4.355-33.969-2.7-33.969-2.7s-17.309.728-19.098-2.497c-1.786-3.229-20.328 7.458-23.834 2.652-3.505-4.807-18.854 3.27-23.392-6.449-4.537-9.717-23.763 4.304-27.304-1.328-3.54-5.631-29.984-6.171-31.495-2.804-1.511 3.367-22.119 4.232-27.957 2.828-5.84-1.407-24.693 1.863-32.389-4.42-7.695-6.28-16.45 1.518-25.796-4.693-9.342-6.214-28.059.353-55.502-4.271-27.444-4.626-38.323 11.52-43.34 10.08-5.013-1.441-15.313 8.9-23.764 4.301-8.45-4.597-19.749 1.657-21.572-2.395-1.821-4.051-16.041-8.41-25.317-12.972-9.271-4.565-23.521 10.07-30.498 1.283-6.976-8.79-8.276-.477-14.391-8.478-6.117-8-14.944-1.85-20.097-6.587-5.151-4.738-15.28 9.726-26.481-1.363-11.2-11.09-6.142 10.993-13.734 7.184-7.592-3.81-8.069 4.467-12.945 6.324-4.876 1.858-24.451 7.635-30.672-2.838-6.22-10.473-16.036 11.409-33.108-1.911-17.076-13.318-14.014.59-26.656-5.485-12.64-6.073-9.682 5.362-18.133.763-8.45-4.598-16.894 10.621-26.376 1.11-9.485-9.51-8.93 3.68-19.061-1.675-10.136-5.354-22.118 4.232-29.814-2.05-7.695-6.282-23.185-1.501-33.388-8.504-10.204-7.002-18.923 1.622-24.042-2.292-5.119-3.912-20.57 1.691-25.726-3.045-5.152-4.739-14.871-.203-19.201-4.975-4.33-4.771-11.437 2.96-19.13-3.323-7.697-6.281-16.52-.131-20.815-4.078-4.294-3.949-14.9 18.792-22.733 9.213-7.835-9.579-8.208 1.171-12.642-6.076-4.433-7.243-12.669 12.919-16.242 6.464-3.577-6.456-20.4 5.813-25.658-1.397-5.257-7.211-23.46-8.096-29.266-8.679-5.805-.582-26.889 8.563-26.889 8.563s-30.974 9.56-38.534 6.575c-7.555-2.985-9.51 9.483-19.573 5.778-10.065-3.705-9.684 5.361-24.729 1.041-15.046-4.323-13.701 8.006-30.463 2.104-16.762-5.899-21.605-3.218-21.605-3.218s-13.803 5.533-22.288.111c-8.486-5.422-16.591-1.781-25.866-6.345-9.273-4.562-4.805 3.507-25.619-.573-20.815-4.08-15.871-4.288-28.583-12.011-12.71-7.722-23.146-.676-29.162-6.205-6.013-5.526-10.679 1.276-13.36-3.567-2.681-4.84-10.472 6.222-16.558-.954-6.081-7.175-9.822 2.064-12.503-2.776-2.681-4.843-16.45 1.517-20.814-4.08-4.363-5.595-15.355-11.741-26.28-16.235-10.923-4.495-13.736 7.185-28.849 1.213-15.115-5.969-8.617 11.097-13.908 3.062-5.294-8.034-21.572-2.394-25.216-10.498-3.643-8.104-15.043-4.323-20.162-8.236-5.119-3.912-15.591 2.308-20.851-4.903-5.257-7.21-10.75-.373-20.883-5.728-10.136-5.353-16.313 4.816-22.361-1.538-6.046-6.35-17.551-5.041-21.057-9.848-3.504-4.808-11.295 6.256-18.132.763-6.838-5.494-11.402 3.781-18.996-.027-7.589-3.811-18.956.796-29.16-6.205-10.202-7.003-10.404 7.868-16.312 4.814-5.907-3.055-23.115.146-35.721-5.102-12.607-5.252-19.782.832-26.688-6.311-6.908-7.141-20.747-2.431-25.042-6.378-4.294-3.948-14.939-1.85-19.13-3.324-4.191-1.476-17.031 7.322-29.708.424-12.675-6.9-24.693 1.864-32.181.527-7.488-1.335-22.908 5.093-31.254 2.966-8.347-2.125-13.875 3.887-22.255.936-8.382-2.951-7.347 1.96-18.447-6.656-11.097-8.616-1.264 9.137-11.296 6.256-10.03-2.883-2.089 9.17-12.98 5.5-10.889-3.67 1.892 5.7-13.837 4.71-15.732-.99-22.013 6.706-39.463 4.136-17.446-2.567-6.758 15.974-17.75 9.832-10.995-6.145-11.576-.34-20.027-4.939-8.45-4.6-10.785-1.198-19.132-3.324-8.345-2.125-14.696 3.92-26.341 1.932-11.646-1.986-6.212 9.347-18.889 2.447-12.676-6.897-4.705 5.979-20.676-.782-15.974-6.758-24.347 10.109-34.516 3.93-10.169-6.18-19.332 11.549-34.551 3.104-15.216-8.441-21.568-2.395-29.161-6.203-7.59-3.81-4.667 6.801-10.576 3.746-5.909-3.052-8.105 3.644-24.901-3.081-16.797-6.724-2.231 5.874-13.084 3.028-10.855-2.845-24.451 7.635-30.36 4.58-5.909-3.055-24.554 5.162-32.937 2.21-8.38-2.95-13.77 6.36-25.554 1.075-11.781-5.283-11.816-6.11-15.763-1.815-3.949 4.295-7.732-7.104-13.261-1.093-5.525 6.012-10.715.45-17.784 9.006-7.074 8.554-14.014.59-21.98 7.531-7.965 6.94-17.995 4.059-30.67-2.839-12.677-6.9-7.352 1.961-11.507 1.309-4.156-.65-6.455 3.576-17.274 1.551-10.82-2.022-16.962 8.971-27.027 5.266-10.065-3.704-16.965 8.971-27.817 6.125-10.854-2.847-14.664 4.746-24.625 3.513-9.962-1.233-17.066 6.498-17.066 6.498l-3.4-2.333c-3.401-2.335-17.824 8.177-24.59 4.334-6.768-3.843-7.244 4.434-15.522 3.958-8.276-.478-13.536-7.687-18.203-.887-4.671 6.803-13.736 7.184-19.68 3.304-5.945-3.879-15.113-5.969-29.569 3.722-14.454 9.692-11.819-6.11-20.573 1.69-3.272 2.917-7.873 3.482-9.978 4.571-3.605 1.864-3.896 6.177-7.969 3.337-4.069-2.839-9.381-7.069-15.222-8.477-5.836-1.407-10.992-6.143-20.057-5.761-9.069.381-11.783-5.285-23.323-4.799-11.541.484-15.974-6.76-30.81-6.137-14.837.624-26.517-2.188-33.83.596-7.314 2.785-8.451-4.597-18.342-4.182-9.891.416-5.189-5.561-16.007-7.584-10.82-2.02-1.996-8.172-9.517-10.333-7.523-2.161-5.598 4.364-14.875-.201-9.273-4.565-8.927 3.679-18.27-2.534-9.346-6.213-6.423 4.398-17.451-2.57-11.025-6.966-15.555 3.132-28.229-3.765-12.678-6.9 4.527-10.1-8.833-13.666-13.364-3.567-14.562 7.217-24.695 1.861-10.132-5.352-16.623-2.601-16.934-10.021-.313-7.417-11.75-4.459-19.03-.851-7.277 3.61-17.377-.92-23.868 1.83-6.491 2.751-6.766-3.843-19.887-1.642-13.118 2.203-17.378-.918-25.898-7.167-8.519-6.249-13.398-4.39-21.78-7.341-8.38-2.95-10.679 1.274-23.389-6.448-12.713-7.722-25.761-3.872-31.739-8.574-5.978-4.702-11.644-1.986-20.883-5.728-9.241-3.74-15.011-3.498-21.024-9.024-6.013-5.528-23.667-13.042-34.452-14.24-10.788-1.196-29.954-5.345-29.954-5.345s-20.024-4.939-28.232-3.768c-8.208 1.17-11.608-1.162-23.149-.678-11.539.485-10.238-7.826-22.601-7.306-12.364.519-2.718-5.667-17.553-5.042-14.837.624-.381-9.066-16.111-10.058-15.731-.989-23.488 10.897-28.78 2.863-5.292-8.037-21.606-3.221-29.266-8.679-7.663-5.459-19.238-5.797-27.653-9.571-8.416-3.774-12.4-.305-25.007-5.555-12.606-5.25-13.906 3.063-29.091-4.556-15.183-7.619-13.049 3.851-24.796-.609-11.748-4.458-16.487.694-27.409-3.801-10.922-4.496-14.186-3.532-26.826-9.606-12.642-6.075-13.223-.27-25.898-7.168-12.677-6.898-14.152-2.708-24.901-3.082-10.75-.373-19.403 9.9-25.414 4.372-6.012-5.529-7.557-2.985-12.675-6.897-5.12-3.914-1.475 4.189-15.627 1.483-14.153-2.708-8.416-3.775-20.815-4.079-12.399-.306-10.68 1.275-21.639-4.044-10.959-5.321-14.873-.201-28.477-9.536-13.603-9.339-14.499-10.953-20.27-10.709-5.768.242-14.593 6.394-26.477-1.363-11.889-7.757-12.226 3.818-21.468.079-9.24-3.741-10.576 3.745-25.725-3.047-15.148-6.797-11.062-7.792-25.9-7.169-14.837.624-11.366 4.606-26.583-3.837-15.22-8.443-19.991-4.112-28.545-11.186-8.557-7.07-13.152 1.38-23.496-8.921-10.342-10.298-12.331 1.344-21.64-4.043-9.31-5.388-18.029 3.234-20.609.865-2.576-2.367-4.016 2.646-9.922-.406-5.911-3.055-7.42.312-15.047-4.323-7.625-4.632-9.82 2.065-15.729-.989-5.91-3.055-6.663-1.373-14.975-2.672-8.312-1.304-15.696-.168-18.925 1.62-3.227 1.788-1.301 8.311-14.872-.199-13.571-8.512-7.21 5.257-21.432.9-14.221-4.356-22.532-5.657-25.214-10.5-2.68-4.842-16.729-5.077-16.729-5.077s-12.33 1.345-16.657-3.428c-4.331-4.771-13.431-5.213-22.672-8.955-9.242-3.738-9.928-.408-20.85-4.903-10.924-4.494-17.378-.921-24.971-4.73-7.592-3.809-14.22-4.354-24.112-3.938-9.89.416-12.468-1.954-23.185-1.504-10.714.451-.277-6.595-18.409-5.832-18.135.763-9.449-8.684-25.936-7.991-16.485.693-16.041-8.408-25.247-11.324-9.206-2.917-10.507 5.395-24.902-3.083-14.395-8.477-26.377 1.109-33.179-3.559-6.801-4.667-9.446-8.686-20.987-8.199-11.541.484-8.557-7.073-24.216-6.416-15.663.66-11.61-1.161-26.689-6.306-15.079-5.146-22.706-9.78-32.598-9.364-9.892.416-7.729-7.106-19.269-6.622-11.54.486-23.357-5.624-31.497-2.804-8.138 2.82-5.771.242-15.661.658-9.892.416-14.325-6.828-24.146-4.765-9.822 2.065-9.651 6.186-22.222 1.763-12.571-4.429-11.574-.341-21.674-4.87-10.098-4.531-11.781-5.286-28.268-4.592-16.484.693-16.901-9.198-33.455-10.153-16.558-.955-26.552-3.012-31.497-2.804-4.946.208-15.046-4.322-22.256.936-7.211 5.258-22.462-4.01-25.76-3.872-3.297.139-17.551-5.041-24.832-1.432-7.282 3.608-10.341-10.3-27.619-8.748-17.273 1.552-19.269-6.62-30.636-2.015-11.366 4.607-14.359-7.654-25.076-7.202-10.715.451-16.243 6.461-27.201 1.144-10.958-5.319-15.114-5.971-29.951-5.346-14.836.623-9.484-9.51-24.249-7.237-9.309 1.433-14.198-1.26-18.339-1.919V-324.84h11338.6V823.74l-.016.002Z" style="fill:#fff1f7;fill-rule:nonzero"/><path d="M11352.7 244.596c-2.229-.553-4.174-1.772-5.513-4.174-5.378-9.661-24.117 6.166-28.17.635-4.056-5.531-31.284-4.146-32.588-.573-1.31 3.573-22.432 5.972-28.541 4.958-6.106-1.017-25.253 3.727-33.626-2.168-8.371-5.895-16.803 2.765-26.865-2.936-10.063-5.703-28.827 2.421-57.383-.321-28.557-2.744-38.561 14.655-43.824 13.542-5.26-1.116-15.091 10.276-24.117 6.165-9.028-4.109-20.184 3.151-22.357-.883-2.168-4.031-17.109-7.468-26.982-11.482-9.869-4.011-23.445 12.081-31.267 3.558-7.813-8.526-8.544.116-15.418-7.663-6.875-7.778-15.502-.805-21.144-5.298-5.646-4.494-15.001 11.12-27.329.54-12.331-10.583-5.511 11.752-13.595 8.391-8.084-3.358-7.97 5.185-12.847 7.452-4.876 2.267-24.581 9.642-31.746-.669-7.163-10.311-15.65 12.907-34.184.464-18.531-12.443-14.364 1.632-27.808-3.685-13.443-5.318-9.561 6.222-18.587 2.114-9.026-4.107-16.594 12.158-27.038 3.074-10.45-9.083-8.912 4.439-19.723-.323-10.813-4.761-22.43 5.974-30.806.077-8.371-5.895-23.946.158-34.951-6.296-11.005-6.45-19.34 3.057-24.889-.593-5.553-3.647-21.026 3.247-26.674-1.245-5.648-4.495-15.308.882-20.109-3.706-4.8-4.591-11.542 3.88-19.913-2.014-8.374-5.895-16.996 1.076-21.702-2.669-4.703-3.741-13.94 20.416-22.699 11.143-8.755-9.277-8.353 1.805-13.445-5.322-5.088-7.122-12.078 14.212-16.225 7.839-4.149-6.377-20.55 7.471-26.482.443-5.934-7.029-24.718-6.603-30.73-6.778-6.009-.172-27.018 10.778-27.018 10.778s-31.147 12.099-39.137 9.584c-7.989-2.514-9.083 10.448-19.7 7.378-10.621-3.072-9.565 6.222-25.35 2.883-15.788-3.343-13.5 9.236-31.17 4.398-17.667-4.838-22.45-1.725-22.45-1.725s-13.787 6.702-22.912 1.749c-9.118-4.953-17.186-.615-27.057-4.627-9.869-4.011-4.685 3.958-26.386 1.289-21.702-2.668-16.633-3.244-30.266-10.252-13.637-7.008-23.854 1.001-30.439-4.242-6.59-5.242-10.89 2.096-13.999-2.688-3.113-4.781-10.312 7.165-17.095.234-6.78-6.933-9.947 2.843-13.06-1.938-3.113-4.782-16.803 2.766-21.702-2.668-4.896-5.432-16.65-10.947-28.21-14.767-11.563-3.82-13.596 8.395-29.573 3.363-15.98-5.028-8.048 12.043-14.077 4.168-6.03-7.872-22.354-.879-26.694-8.945-4.343-8.064-15.786-3.342-21.337-6.991-5.549-3.647-15.863 3.517-21.796-3.511-5.934-7.03-11.082.404-21.893-4.359-10.811-4.76-16.419 6.15-23.102.06-6.684-6.085-18.42-3.896-22.374-8.58-3.956-4.688-11.156 7.259-18.589 2.113-7.435-5.147-11.446 4.725-19.531 1.364-8.083-3.36-19.435 2.21-30.441-4.242-11.001-6.451-10.118 8.855-16.418 6.146-6.298-2.708-23.756 1.846-37.102-2.625-13.348-4.477-20.278 2.306-27.906-4.532-7.623-6.837-21.506-.979-26.213-4.724-4.705-3.743-15.499-.806-19.914-2.014-4.415-1.21-16.976 8.779-30.514 2.613-13.542-6.163-25.255 3.729-33.05 2.903-7.797-.826-23.179 6.916-31.917 5.342-8.738-1.576-13.98 5.012-22.815 2.594-8.834-2.418-7.412 2.554-19.454-5.492-12.042-8.045-.634 9.488-11.156 7.262-10.526-2.228-1.48 9.581-12.944 6.606-11.466-2.975 2.362 5.722-13.884 5.858-16.248.134-22.144 8.509-40.272 7.145-18.13-1.359-5.777 16.921-17.532 11.411-11.753-5.511-11.926.501-20.954-3.608-9.024-4.11-11.172-.442-19.911-2.016-8.739-1.573-14.825 5.11-26.945 3.919-12.118-1.188-5.703 10.066-19.241 3.902-13.542-6.165-4.4 6.492-21.317.71-16.92-5.777-24.293 12.179-35.201 6.571-10.91-5.606-19.032 13.293-35.297 5.727-16.267-7.566-22.354-.883-30.437-4.241-8.085-3.361-4.302 7.335-10.602 4.626-6.299-2.705-8.065 4.342-25.829-1.342-17.767-5.683-1.862 6.204-13.231 4.074-11.371-2.131-24.581 9.642-30.88 6.933-6.3-2.706-24.869 7.109-33.703 4.687-8.834-2.418-13.692 7.549-26.195 2.98-12.501-4.568-12.597-5.415-16.342-.71-3.743 4.706-8.471-6.737-13.713-.152-5.241 6.588-10.985 1.25-17.627 10.566-6.644 9.313-14.364 1.632-22.046 9.354-7.681 7.721-18.206 5.493-31.748-.669-13.538-6.165-7.411 2.555-11.732 2.188-4.32-.361-6.375 4.15-17.649 2.862-11.273-1.286-16.784 10.468-27.401 7.394-10.62-3.071-16.786 10.47-28.155 8.339-11.367-2.132-14.726 5.953-25.06 5.416-10.332-.536-17.072 7.934-17.072 7.934l-3.671-2.149c-3.668-2.152-17.724 9.714-24.965 6.26-7.239-3.455-7.125 5.089-15.667 5.206-8.549.115-14.482-6.911-18.785.423-4.3 7.338-13.595 8.394-19.99 4.842-6.396-3.552-15.98-5.03-30.131 5.993-14.152 11.027-12.6-5.415-21.029 3.249-3.149 3.236-7.841 4.157-9.923 5.43-3.574 2.183-3.556 6.636-7.949 4.015-4.395-2.62-10.165-6.579-16.271-7.599-6.107-1.019-11.754-5.51-21.049-4.452-9.296 1.056-12.503-4.572-24.332-3.225-11.828 1.344-16.92-5.778-32.128-4.049-15.209 1.729-27.425-.306-34.742 3.093-7.314 3.399-9.028-4.107-19.165-2.955-10.139 1.153-5.741-5.337-17.016-6.625-11.271-1.284-2.652-8.256-10.545-9.927-7.894-1.672-5.432 4.899-15.305.885-9.871-4.013-8.909 4.439-18.973-1.266-10.065-5.701-6.28 4.994-18.13-1.364-11.85-6.355-15.767 4.361-29.304-1.801-13.54-6.164 3.916-10.718-10.083-13.403-14-2.689-14.443 8.489-25.255 3.725-10.811-4.759-17.28-1.455-18.147-9.062-.864-7.604-12.406-3.722-19.628.521-7.22 4.245-17.936.327-24.405 3.631-6.473 3.304-7.242-3.455-20.57-.231-13.329 3.228-17.936.331-27.154-5.469-9.221-5.801-14.097-3.533-22.934-5.952-8.834-2.418-10.886 2.093-24.524-4.914-13.634-7.008-26.769-2.092-33.26-6.488-6.493-4.396-12.12-1.188-21.894-4.358-9.775-3.169-15.69-2.496-22.277-7.738-6.588-5.24-25.291-11.673-36.47-12.114-11.178-.44-31.186-3.301-31.186-3.301s-20.952-3.61-29.305-1.804c-8.355 1.806-12.025-.343-23.854 1.002-11.828 1.345-11.1-7.296-23.773-5.854-12.673 1.44-3.211-5.629-18.417-3.9-15.211 1.731-1.058-9.292-17.304-9.159-16.247.137-23.351 12.927-29.381 5.055-6.034-7.874-22.45-1.727-30.728-6.778-8.28-5.051-20.205-4.55-29.135-7.815-8.931-3.263-12.771.598-26.119-3.878-13.347-4.47-14.076 4.17-30.246-2.55-16.172-6.722-13.135 4.916-25.543 1.192-12.402-3.723-16.899 1.922-28.459-1.897-11.559-3.824-14.843-2.594-28.287-7.911-13.444-5.318-13.613.692-27.155-5.473-13.537-6.163-14.749-1.747-25.829-1.343-11.081.404-19.222 11.602-25.809 6.358-6.588-5.243-7.992-2.513-13.54-6.161-5.551-3.649-1.209 4.415-15.958 2.669-14.749-1.747-8.931-3.264-21.702-2.668-12.771.597-10.888 2.095-22.544-2.571-11.66-4.669-15.309.883-29.98-7.719-14.672-8.604-15.71-10.2-21.625-9.525-5.913.674-14.537 7.645-27.326.541-12.791-7.104-12.29 4.823-22.067 1.654-9.774-3.168-10.6 4.626-26.673-1.247-16.074-5.876-11.946-7.2-27.157-5.472-15.21 1.731-11.349 5.572-27.615-1.995-16.267-7.565-20.855-2.762-30.171-9.408-9.314-6.642-13.423 2.385-24.812-7.448-11.389-9.832-12.577 2.285-22.547-2.573-9.966-4.855-18.299 4.649-21.124 2.403-2.822-2.246-3.936 3.016-10.235.31-6.298-2.709-7.604.865-15.787-3.342-8.179-4.203-9.945 2.843-16.245.137-6.299-2.709-6.952-.924-15.593-1.651-8.644-.73-16.153.979-19.343 3.053-3.185 2.076-.725 8.641-15.305.885-14.577-7.755-7.027 5.935-21.969 2.499-14.944-3.437-23.585-4.164-26.695-8.948-3.111-4.782-17.572-3.994-17.572-3.994s-12.579 2.287-17.379-2.304c-4.802-4.588-14.192-4.375-23.969-7.543-9.773-3.168-10.236.307-21.797-3.514-11.561-3.819-17.936.328-26.022-3.032-8.084-3.359-14.941-3.435-25.079-2.282-10.138 1.155-12.962-1.095-23.949.154-10.986 1.25-.768-6.762-19.356-4.646-18.59 2.113-10.353-8.236-27.254-6.315-16.897 1.921-17.108-7.468-26.788-9.793-9.678-2.323-10.409 6.318-25.829-1.343-15.423-7.66-27.041 3.075-34.376-1.227-7.337-4.299-10.353-8.238-22.184-6.891-11.828 1.346-9.313-6.644-25.368-4.821-16.054 1.828-12.02-.342-27.902-4.527-15.881-4.186-24.066-8.389-34.205-7.237-10.14 1.155-8.468-6.742-20.298-5.396-11.831 1.346-24.426-4.07-32.589-.575-8.16 3.497-5.916.673-16.054 1.826-10.143 1.152-15.232-5.971-25.178-3.13-9.947 2.844-9.47 7.069-22.717 3.442-13.251-3.629-11.927.498-22.645-3.415-10.714-3.919-12.5-4.572-29.399-2.649-16.901 1.919-18.053-8.218-35.145-7.988-17.092.233-27.519-1.149-32.588-.574-5.074.577-15.788-3.34-22.817 2.595-7.028 5.936-23.39-2.475-26.772-2.092-3.378.384-18.415-3.897-25.637.349-7.221 4.244-11.386-9.833-29.036-6.968-17.649 2.862-20.299-5.395-31.648.175-11.348 5.57-15.324-6.817-26.311-5.568-10.982 1.25-16.226 7.836-27.885 3.171-11.656-4.666-15.977-5.032-31.186-3.302-15.21 1.729-10.451-9.083-25.466-5.663-15.017 3.42-19.359-4.645-26.287 2.133-6.936 6.781-10.912-5.607-27.618-1.994-16.706 3.611-29.594-4.338-37.372 2.536-7.779 6.878-19.55-6.335-26.386 1.289-6.838 7.624-20.839 4.938-26.27 9.835-5.436 4.897-18.245-9.907-31.189-3.301-12.944 6.607-3.533 14.095-15.651 12.907-12.119-1.19-10.215 8.009-23.101.059-12.887-7.95-18.149-9.062-23.757 1.847-5.606 10.907-1.284 11.272-16.881 9.621-15.592-1.651-18.054-8.218-33.336.368-15.287 8.583-22.184-6.894-35.606-4.511-13.422 2.382-19.241 3.9-26.673-1.246-.625-.432-1.955-1.145-2.838-1.604 3.071 1.491-6.992-4.401-12.344-3.627-2.487.361-4.646-1.282-6.529-2.331-6.398-3.553-15.692-2.496-19.994 4.842-4.299 7.335-10.237.308-18.784.422-8.545.118-8.429 8.662-15.669 5.207-7.238-3.457-21.296 8.413-24.964 6.259l-3.67-2.148s-6.739 8.47-17.072 7.932c-10.332-.537-13.691 7.548-25.06 5.417-11.37-2.13-17.534 11.409-28.155 8.338-10.62-3.072-16.13 8.681-27.404 7.394-11.27-1.287-13.326 3.226-17.646 2.865-4.322-.365 1.804 8.352-11.734 2.188-13.54-6.163-24.064-8.39-31.746-.669-7.681 7.721-15.4.04-22.043 9.355-6.645 9.315-12.387 3.975-17.629 10.563-5.243 6.586-9.969-4.857-13.714-.15-3.744 4.703-3.842 3.857-16.342-.711-12.502-4.569-17.361 5.398-26.197 2.98-8.831-2.421-27.402 7.394-33.702 4.687-6.297-2.71-19.508 9.064-30.881 6.936-11.369-2.132 4.535 9.754-13.229 4.072-17.765-5.684-19.529 1.363-25.831-1.342-6.299-2.707-2.516 7.989-10.6 4.627-8.088-3.358-14.171 3.322-30.44-4.24-16.265-7.567-24.387 11.334-35.294 5.724-10.911-5.606-18.283 12.352-35.203 6.574-16.919-5.781-7.776 6.873-21.317.71-13.538-6.164-7.122 5.09-19.241 3.901-12.118-1.191-18.206 5.492-26.944 3.919-8.739-1.574-10.89 2.094-19.913-2.015-9.03-4.108-9.198 1.903-20.956-3.609-11.751-5.511.598 12.77-17.53 11.41-18.131-1.363-24.026 7.011-40.274 7.147-16.245.137-2.417 8.832-13.883 5.858-11.466-2.975-2.418 8.835-12.943 6.608-10.526-2.228.885 15.305-11.155 7.259-12.043-8.045-10.621-3.072-19.456-5.491-8.834-2.419-14.076 4.17-22.814 2.595-8.739-1.573-24.121 6.165-31.916 5.341-7.799-.825-19.512 9.066-33.052 2.903-13.538-6.164-26.097 3.823-30.515 2.613-4.417-1.209-15.208 1.729-19.913-2.014-4.706-3.744-18.59 2.113-26.216-4.722-7.625-6.838-14.557-.058-27.904-4.532-13.347-4.471-30.804.083-37.101-2.625-6.3-2.707-5.415 12.598-16.421 6.144-11.002-6.45-22.353-.881-30.436-4.24-8.088-3.361-12.1 6.513-19.534 1.364-7.431-5.147-14.631 6.801-18.587 2.114-3.958-4.684-15.691-2.496-22.374-8.581-6.684-6.088-12.291 4.819-23.102.061-10.813-4.762-15.96 2.669-21.894-4.359-5.937-7.026-16.248.134-21.796-3.511-5.552-3.649-16.996 1.074-21.338-6.991-4.339-8.067-20.662-1.074-26.694-8.946-6.03-7.875 1.904 9.197-14.078 4.169-15.976-5.031-18.011 7.182-29.573 3.363-11.561-3.822-23.314-9.332-28.21-14.766-4.899-5.434-18.591 2.113-21.702-2.67-3.111-4.781-6.279 4.995-13.059-1.937-6.783-6.933-13.983 5.011-17.094.231-3.112-4.783-7.41 2.556-13.998-2.686-6.588-5.243-16.805 2.767-30.44-4.242-13.635-7.01-8.566-7.587-30.267-10.253-21.701-2.668-16.516 5.299-26.385 1.289-9.872-4.014-17.938.326-27.061-4.628-9.12-4.952-22.909 1.75-22.909 1.75s-4.783 3.112-22.45-1.726c-17.668-4.838-15.381 7.74-31.167 4.399-15.786-3.341-14.73 5.955-25.35 2.882-10.618-3.072-11.714 9.894-19.7 7.377-7.991-2.516-39.139 9.586-39.139 9.586s-21.008 10.949-27.02 10.777c-6.009-.175-24.793.251-30.727-6.777-5.934-7.029-22.334 6.821-26.482.444-4.148-6.376-11.139 14.961-16.228 7.837-5.088-7.126-4.684 3.955-13.442-5.32s-17.993 14.883-22.699 11.14c-4.705-3.742-13.328 3.229-21.701-2.664-8.373-5.895-15.113 2.575-19.916-2.017-4.802-4.59-14.46.79-20.107-3.704-5.646-4.494-21.123 2.402-26.674-1.246-5.55-3.651-13.883 5.857-24.888-.594-11.005-6.452-26.581-.402-34.952-6.298-8.375-5.894-19.992 4.843-30.805.08-10.812-4.761-9.274 8.758-19.722-.324-10.446-9.083-18.015 7.182-27.041 3.074-9.025-4.108-5.144 7.432-18.587 2.113-13.444-5.318-9.274 8.759-27.807-3.684-18.533-12.443-27.019 10.776-34.183.463-7.164-10.311-26.871-2.937-31.745-.669-4.878 2.266-4.764 10.811-12.847 7.452-8.088-3.361-1.266 18.975-13.597 8.394-12.327-10.583-21.681 5.032-27.328.538-5.643-4.491-14.268 2.477-21.144-5.3-6.874-7.777-7.604.864-15.42-7.66-7.818-8.525-21.393 7.568-31.263 3.554-9.873-4.01-24.814-7.451-26.985-11.482-2.171-4.032-13.326 3.228-22.355-.88-9.025-4.109-18.858 7.28-24.117 6.164-5.263-1.113-15.266 16.288-43.823 13.544-28.56-2.744-47.32 5.379-57.381-.321-10.066-5.703-18.496 2.959-26.871-2.937-8.371-5.895-27.517-1.153-33.624-2.169-6.108-1.015-27.233 1.386-28.538 4.958-1.305 3.573-28.535 4.955-32.59-.573-4.052-5.531-22.792 10.295-28.172.636-5.379-9.66-20.567-.23-24.523-4.916-3.958-4.682-22.239 7.663-24.313 4.476-2.076-3.185-19.82-1.169-19.82-1.169s-20.183 3.151-35.125-.286c-14.939-3.435 4.363 15.767-15.283 8.587-19.647-7.18-23.277 6.071-38.41.943-15.134-5.125-7.872 6.033-26.117-3.877-9.212-5.003-12.479-3.887-14.916-2.553-9.416 5.155-8.458-1.629-12.085 2.986-3.624 4.616-4.685 2.678-8.216.935-11.397-5.626-5.952 6.788-24.031-3.028-18.243-9.91-10.984 1.247-26.117-3.877-15.134-5.126-18.761 8.123-38.407.943-19.647-7.182-.346 12.021-15.286 8.584-14.942-3.435-35.125-.286-35.125-.286s-17.745 2.018-19.82-1.167c-2.074-3.189-20.354 9.159-24.312 4.474-3.956-4.684-19.146 4.746-24.525-4.914-5.376-9.66-24.117 6.166-28.171.635-4.052-5.528-31.283-4.145-32.588-.572-1.307 3.572-22.433 5.974-28.539 4.957-6.109-1.018-25.253 3.727-33.626-2.168-8.374-5.894-16.803 2.765-26.868-2.934-10.062-5.704-28.825 2.419-57.382-.322-28.556-2.745-38.558 14.655-43.823 13.542-5.26-1.116-15.093 10.273-24.119 6.164-9.026-4.108-20.184 3.152-22.356-.88-2.169-4.033-17.11-7.473-26.983-11.482-9.868-4.013-23.446 12.079-31.264 3.554-7.817-8.526-8.545.118-15.418-7.662-6.876-7.776-15.502-.804-21.147-5.299-5.644-4.492-14.998 11.121-27.328.542-12.329-10.584-5.509 11.753-13.595 8.393-8.085-3.36-7.969 5.184-12.846 7.451-4.877 2.268-24.58 9.642-31.746-.669-7.163-10.312-15.652 12.907-34.181.462-18.535-12.442-14.367 1.634-27.811-3.684-13.442-5.319-9.562 6.222-18.588 2.113-9.026-4.108-16.592 12.158-27.039 3.074-10.45-9.083-8.912 4.439-19.721-.324-10.815-4.763-22.433 5.973-30.806.079-8.373-5.896-23.948.155-34.953-6.298-11.005-6.449-19.338 3.057-24.888-.593-5.55-3.646-21.026 3.247-26.675-1.246-5.645-4.494-15.305.884-20.107-3.704-4.802-4.59-11.543 3.881-19.914-2.016-8.374-5.894-16.995 1.077-21.7-2.667-4.705-3.743-13.943 20.415-22.7 11.141-8.759-9.276-8.353 1.806-13.444-5.321-5.089-7.122-12.079 14.212-16.226 7.838-4.151-6.375-20.549 7.473-26.484.445-5.934-7.03-24.715-6.605-30.727-6.778-6.012-.173-27.019 10.777-27.019 10.777s-31.147 12.099-39.139 9.585c-7.988-2.516-9.083 10.448-19.701 7.377-10.62-3.072-9.563 6.222-25.35 2.883-15.788-3.343-13.5 9.236-31.167 4.398-17.668-4.836-22.451-1.725-22.451-1.725s-13.788 6.701-22.909 1.748c-9.123-4.954-17.189-.615-27.06-4.626-9.87-4.012-4.684 3.956-26.385 1.287-21.701-2.665-16.632-3.243-30.27-10.252-13.634-7.008-23.849 1.001-30.439-4.242-6.588-5.241-10.887 2.095-13.998-2.686-3.112-4.781-10.311 7.165-17.095.233-6.778-6.932-9.948 2.844-13.059-1.939-3.112-4.782-16.802 2.768-21.7-2.668-4.897-5.433-16.649-10.947-28.212-14.765-11.56-3.822-13.595 8.394-29.573 3.362-15.978-5.03-8.046 12.042-14.075 4.168-6.034-7.875-22.357-.88-26.697-8.946-4.34-8.067-15.784-3.342-21.335-6.991-5.55-3.647-15.861 3.517-21.798-3.511-5.933-7.029-11.08.403-21.891-4.359-10.814-4.759-16.42 6.149-23.104.059-6.682-6.085-18.416-3.896-22.374-8.58-3.955-4.689-11.155 7.259-18.587 2.113-7.435-5.148-11.446 4.725-19.533 1.365-8.083-3.36-19.433 2.209-30.438-4.24-11.003-6.453-10.12 8.85-16.419 6.144-6.297-2.707-23.756 1.845-37.102-2.626-13.348-4.475-20.278 2.306-27.904-4.532-7.626-6.835-21.51-.977-26.216-4.721-4.704-3.745-15.496-.806-19.913-2.015-4.418-1.21-16.975 8.779-30.515 2.614-13.539-6.165-25.253 3.727-33.05 2.901-7.797-.825-23.18 6.917-31.918 5.341-8.739-1.571-13.981 5.015-22.814 2.597-8.834-2.419-7.411 2.553-19.456-5.492-12.041-8.046-.629 9.486-11.155 7.261-10.524-2.228-1.477 9.581-12.944 6.607-11.465-2.976 2.363 5.721-13.882 5.859-16.249.134-22.142 8.507-40.273 7.146-18.127-1.359-5.777 16.92-17.529 11.409-11.756-5.512-11.928.5-20.955-3.609-9.025-4.108-11.177-.441-19.915-2.015-8.736-1.572-14.823 5.11-26.942 3.918-12.12-1.188-5.702 10.066-19.243 3.901-13.538-6.162-4.398 6.493-21.316.71-16.921-5.777-24.292 12.181-35.201 6.573-10.909-5.609-19.031 13.292-35.298 5.724-16.264-7.562-22.351-.881-30.439-4.24-8.084-3.361-4.3 7.336-10.6 4.627-6.299-2.704-8.066 4.342-25.83-1.342-17.764-5.684-1.863 6.204-13.23 4.073-11.371-2.13-24.58 9.642-30.881 6.935-6.299-2.707-24.868 7.108-33.703 4.687-8.832-2.418-13.692 7.55-26.196 2.98-12.5-4.567-12.598-5.415-16.341-.71-3.745 4.706-8.471-6.739-13.715-.151-5.241 6.587-10.984 1.248-17.625 10.562-6.645 9.314-14.366 1.634-22.048 9.355-7.681 7.721-18.205 5.495-31.743-.669-13.54-6.165-7.415 2.555-11.736 2.189-4.321-.363-6.375 4.151-17.647 2.862-11.274-1.285-16.783 10.468-27.403 7.396-10.621-3.071-16.786 10.468-28.154 8.336-11.369-2.13-14.729 5.955-25.061 5.418-10.333-.536-17.071 7.932-17.071 7.932l-3.668-2.149c-3.669-2.151-17.727 9.717-24.966 6.261-7.241-3.456-7.123 5.09-15.67 5.206-8.545.115-14.481-6.912-18.781.424-4.304 7.337-13.597 8.392-19.993 4.839-6.397-3.551-15.977-5.027-30.13 5.998-14.15 11.023-12.6-5.417-21.028 3.247-3.151 3.237-7.84 4.156-9.925 5.43-3.569 2.179-3.552 6.635-7.948 4.014-4.393-2.62-10.164-6.581-16.273-7.599-6.104-1.019-11.752-5.51-21.046-4.453-9.297 1.057-12.503-4.57-24.332-3.223-11.831 1.343-16.92-5.779-32.129-4.052-15.209 1.731-27.425-.303-34.741 3.094-7.316 3.4-9.026-4.107-19.166-2.955-10.139 1.153-5.743-5.337-17.015-6.626-11.274-1.282-2.651-8.256-10.543-9.925-7.894-1.672-5.435 4.896-15.309.884-9.869-4.015-8.909 4.436-18.971-1.267-10.065-5.702-6.282 4.993-18.132-1.364-11.847-6.354-15.763 4.361-29.302-1.8-13.542-6.165 3.914-10.718-10.084-13.403-14.002-2.689-14.443 8.488-25.255 3.723-10.81-4.758-17.283-1.454-18.147-9.062-.865-7.602-12.409-3.722-19.628.522-7.218 4.245-17.935.326-24.407 3.63-6.471 3.305-7.238-3.456-20.569-.229-13.326 3.229-17.935.329-27.154-5.471-9.216-5.799-14.096-3.531-22.932-5.951-8.833-2.418-10.886 2.093-24.522-4.914-13.638-7.008-26.772-2.093-33.263-6.489-6.491-4.394-12.118-1.188-21.892-4.357-9.775-3.169-15.691-2.496-22.279-7.737-6.588-5.243-25.291-11.674-36.467-12.118-11.181-.438-31.19-3.298-31.19-3.298s-20.952-3.609-29.305-1.804c-8.354 1.806-12.021-.343-23.852 1.001-10.874 1.235-11.137-5.975-20.975-6.016v-901.903h11688v920.623h-.016Z" style="fill:#fff1f7;fill-rule:nonzero"/></svg>