<?xml version="1.0" standalone="no"?>
<!DOCTYPE svg PUBLIC "-//W3C//DTD SVG 20010904//EN"
 "http://www.w3.org/TR/2001/REC-SVG-20010904/DTD/svg10.dtd">
<svg version="1.0" xmlns="http://www.w3.org/2000/svg"
 width="512.000000pt" height="512.000000pt" viewBox="0 0 512.000000 512.000000"
 preserveAspectRatio="xMidYMid meet">
<metadata>
Created by potrace 1.14, written by Peter Selinger 2001-2017
</metadata>
<g transform="translate(0.000000,512.000000) scale(0.100000,-0.100000)"
fill="#000000" stroke="none">
<path d="M473 5105 c-177 -39 -345 -176 -420 -345 -56 -124 -54 -21 -51 -2233
l3 -2042 27 -75 c66 -181 211 -323 390 -381 l73 -24 2065 0 2065 0 74 24 c181
60 332 211 392 393 l24 73 0 2065 0 2065 -24 73 c-58 179 -200 324 -381 390
l-75 27 -2050 2 c-1693 1 -2061 -1 -2112 -12z m1804 -363 l72 -14 6 -41 c28
-208 33 -686 10 -971 -29 -360 -104 -828 -184 -1152 -17 -65 -34 -146 -40
-179 -5 -33 -26 -152 -45 -265 -19 -113 -44 -279 -56 -370 -11 -91 -31 -221
-44 -290 -13 -69 -27 -154 -31 -190 -4 -36 -12 -99 -19 -141 -7 -41 -11 -89
-9 -106 7 -44 43 -74 96 -80 36 -4 48 -1 72 20 25 21 29 33 33 88 2 35 -1 104
-5 153 -5 49 -7 105 -4 124 5 31 11 36 51 48 26 8 93 14 156 14 l112 0 10 -62
c30 -175 52 -477 52 -705 0 -90 -1 -163 -2 -163 -2 -1 -43 -7 -93 -14 -51 -8
-182 -15 -305 -15 -212 -2 -465 -14 -526 -27 -37 -7 -35 -10 -55 136 -14 110
-14 495 0 630 15 143 53 398 112 750 26 162 58 369 69 460 23 191 59 401 135
795 90 467 155 872 155 971 l0 34 -120 0 -119 0 -12 -38 c-9 -30 -8 -56 5
-123 23 -120 21 -203 -4 -244 -26 -41 -44 -49 -88 -34 -21 7 -59 9 -98 5 -60
-6 -64 -5 -80 19 -27 41 -53 168 -65 316 -12 141 -3 376 22 583 l12 91 376 0
c268 0 397 -4 448 -13z m963 -46 c85 -8 203 -20 261 -26 l107 -12 7 -52 c26
-185 32 -253 34 -360 4 -227 -32 -488 -114 -846 -155 -669 -159 -690 -156
-888 2 -170 -7 -233 -84 -587 -24 -110 -58 -279 -75 -375 -17 -96 -46 -240
-66 -320 -40 -166 -42 -212 -14 -258 29 -48 105 -75 154 -56 9 3 26 22 38 42
22 35 23 45 20 202 l-3 165 113 18 c62 9 134 17 159 17 55 0 51 9 71 -185 15
-151 17 -760 3 -774 -29 -29 -127 -35 -522 -36 l-401 0 -8 125 c-12 213 8 656
46 990 16 142 57 424 91 615 46 262 139 773 160 875 58 287 159 1014 159 1145
0 30 -3 36 -16 31 -9 -3 -36 3 -61 14 -62 27 -99 26 -119 -5 -29 -44 -33 -93
-18 -193 18 -121 18 -184 0 -227 l-15 -35 -161 0 -160 0 -11 27 c-36 96 -41
158 -46 545 l-5 386 23 12 c72 39 338 50 609 26z"/>
</g>
</svg>
