<svg width="597" height="313" viewBox="0 0 597 313" fill="none" xmlns="http://www.w3.org/2000/svg">
<path d="M136.719 6.77368C136.536 6.71887 136.376 6.61086 136.261 6.46527C136.146 6.31969 136.082 6.14406 136.079 5.96368L136.049 1.24365C136.047 1.08262 136.079 0.922963 136.141 0.773804C136.203 0.624644 136.295 0.48898 136.411 0.374634C136.528 0.260288 136.666 0.169491 136.818 0.107544C136.97 0.0455965 137.134 0.013694 137.299 0.0136719C146.285 0.0136719 155.112 0.0136719 163.779 0.0136719C166.479 0.0136719 168.899 0.210365 171.039 0.603699C173.339 1.03037 175.569 1.88698 177.729 3.17365C185.429 7.76031 189.279 14.8737 189.279 24.5137C189.279 72.6803 189.285 120.847 189.299 169.014C189.305 174.267 191.639 177.914 196.299 179.954C198.105 180.747 199.975 181.42 201.909 181.974C202.16 182.046 202.381 182.197 202.538 182.404C202.695 182.612 202.78 182.864 202.779 183.124V187.644C202.779 188.007 202.634 188.356 202.378 188.612C202.121 188.869 201.772 189.014 201.409 189.014L137.339 188.954C137.187 188.954 137.038 188.912 136.911 188.832C136.783 188.752 136.682 188.638 136.619 188.504C135.765 186.617 135.662 184.67 136.309 182.664C136.352 182.522 136.431 182.391 136.541 182.281C136.65 182.172 136.787 182.087 136.939 182.034C138.445 181.507 139.959 180.994 141.479 180.494C145.592 179.14 148.089 176.46 148.969 172.454C149.362 170.64 149.559 168.244 149.559 165.264C149.539 117.264 149.545 69.2637 149.579 21.2637C149.579 18.0503 148.959 15.237 147.719 12.8237C146.899 11.2437 145.512 10.0337 143.559 9.19366C141.652 8.38033 139.372 7.57368 136.719 6.77368Z" fill="#FDFEFF"/>
<path d="M215.339 7.04367C215.009 6.92873 214.716 6.7263 214.489 6.45731C214.262 6.18832 214.11 5.86252 214.049 5.51365C213.669 3.39365 213.699 1.73367 214.139 0.533665C214.189 0.399033 214.281 0.282721 214.405 0.200474C214.528 0.118227 214.676 0.0739744 214.829 0.0736431C223.183 0.0136431 231.536 -0.00969761 239.889 0.00363573C244.949 0.0103024 248.816 0.47365 251.489 1.39365C258.409 3.78698 263.056 8.45031 265.429 15.3836C266.329 18.0236 266.779 21.837 266.779 26.8236C266.779 68.8036 266.779 110.784 266.779 152.764C266.779 159.924 266.939 165.624 267.259 169.864C267.453 172.377 267.889 174.247 268.569 175.474C269.549 177.24 271.029 178.6 273.009 179.554C274.763 180.4 276.726 181.114 278.899 181.694C279.242 181.783 279.551 181.969 279.791 182.23C280.03 182.49 280.19 182.815 280.249 183.164C280.656 185.49 280.559 187.274 279.959 188.514C279.896 188.646 279.793 188.757 279.662 188.835C279.531 188.913 279.378 188.954 279.219 188.954L215.109 189.014C214.936 189.014 214.765 188.98 214.606 188.916C214.446 188.851 214.301 188.757 214.179 188.638C214.058 188.519 213.961 188.378 213.896 188.223C213.831 188.067 213.798 187.901 213.799 187.734L213.839 182.924C213.84 182.752 213.898 182.583 214.006 182.441C214.113 182.3 214.265 182.192 214.439 182.134C216.693 181.367 218.736 180.587 220.569 179.794C223.709 178.427 225.696 176.084 226.529 172.764C227.136 170.337 227.409 167.117 227.349 163.104C227.303 160.05 227.279 158.487 227.279 158.414C227.279 115.527 227.279 72.6436 227.279 29.7636C227.279 24.7436 227.236 21.077 227.149 18.7636C226.969 13.9836 224.719 10.7236 220.399 8.98362C218.526 8.22362 216.839 7.57701 215.339 7.04367Z" fill="#FDFEFF"/>
<path d="M37.6872 69.6237C46.3672 74.0171 50.7939 80.6637 50.9672 89.5637C51.0672 94.6771 49.8005 99.2504 47.1672 103.284C44.2739 107.717 40.2505 110.727 35.0972 112.314C30.6772 113.667 26.2772 113.767 21.8972 112.614C17.1439 111.354 13.2905 108.8 10.3372 104.954C6.29719 99.6804 4.6972 93.7004 5.5372 87.0137C6.08387 82.7337 7.44385 78.8471 9.61719 75.3538C11.5105 72.3271 14.3272 69.4704 18.0672 66.7838C24.1739 62.4038 30.9939 59.4038 38.5272 57.7838C47.7339 55.8038 56.9705 55.207 66.2372 55.9937C72.1705 56.4937 77.5039 57.3371 82.2372 58.5237C87.8172 59.9304 92.8505 61.9904 97.3372 64.7037C104.577 69.0771 109.287 75.2837 111.467 83.3237C112.027 85.3971 112.487 87.7037 112.847 90.2437C113.134 92.2104 113.291 94.5604 113.317 97.2938C113.564 120.24 113.637 143.187 113.537 166.134C113.531 168.034 113.714 169.427 114.087 170.314C114.741 171.84 115.834 172.864 117.367 173.384C118.634 173.81 120.027 173.647 121.547 172.894C122.714 172.314 123.824 171.624 124.877 170.824C124.995 170.734 125.137 170.684 125.282 170.682C125.426 170.681 125.566 170.727 125.677 170.814C127.284 172.054 128.431 173.63 129.117 175.544C129.169 175.684 129.181 175.838 129.153 175.989C129.125 176.139 129.058 176.283 128.957 176.404C122.031 184.87 113.467 189.8 103.267 191.194C96.0472 192.18 90.0405 191.357 85.2472 188.724C79.1872 185.39 75.8639 179.487 75.2772 171.014C75.0372 167.534 74.9772 161.424 75.0972 152.684C75.2105 144.81 75.2605 138.697 75.2472 134.344C75.2005 118.65 75.1438 102.957 75.0772 87.2637C75.0638 84.0504 74.6072 80.9037 73.7072 77.8237C71.8272 71.3904 67.6272 67.4137 61.1072 65.8937C58.4138 65.2604 54.3872 64.9671 49.0272 65.0137C45.0472 65.0471 41.2472 66.2504 37.6272 68.6237C37.5429 68.68 37.4748 68.7573 37.4297 68.8481C37.3846 68.9388 37.364 69.0398 37.3701 69.1409C37.3762 69.2421 37.4087 69.3399 37.4643 69.4246C37.5199 69.5093 37.5968 69.578 37.6872 69.6237Z" fill="#FDFEFF"/>
<path d="M507.767 81.5238C501.821 84.2172 497.814 88.7105 495.747 95.0038C494.674 98.2505 494.104 101.587 494.037 105.014C493.657 122.774 493.627 140.537 493.947 158.304C494.041 163.51 494.104 166.314 494.137 166.714C494.397 169.634 495.047 172.38 496.087 174.954C496.807 176.727 498.151 178.04 500.117 178.894C504.337 180.72 508.744 181.811 513.337 182.164C513.492 182.178 513.636 182.24 513.742 182.338C513.847 182.436 513.906 182.563 513.907 182.694L513.947 187.994C513.949 188.127 513.922 188.26 513.869 188.383C513.816 188.507 513.737 188.619 513.638 188.714C513.538 188.809 513.42 188.884 513.289 188.936C513.159 188.987 513.019 189.014 512.877 189.014L440.087 188.954C440.017 188.954 439.947 188.941 439.882 188.916C439.817 188.891 439.758 188.855 439.709 188.809C439.66 188.764 439.621 188.71 439.595 188.65C439.569 188.591 439.556 188.528 439.557 188.464L439.667 182.704C439.667 182.566 439.721 182.431 439.819 182.327C439.916 182.222 440.051 182.153 440.197 182.134C441.844 181.894 443.471 181.591 445.077 181.224C449.317 180.257 452.051 177.684 453.277 173.504C453.764 171.857 454.017 170.174 454.037 168.454C454.317 141.327 454.467 114.014 454.487 86.5138C454.494 83.2472 454.251 79.9972 453.757 76.7638C453.277 73.5905 451.681 71.1938 448.967 69.5738C447.007 68.4072 444.044 67.5538 440.077 67.0138C439.938 66.9945 439.811 66.927 439.719 66.824C439.627 66.721 439.577 66.5895 439.577 66.4538L439.527 60.7138C439.527 60.646 439.541 60.5789 439.568 60.5163C439.595 60.4538 439.634 60.3971 439.683 60.3496C439.732 60.3021 439.791 60.2647 439.855 60.2397C439.919 60.2147 439.988 60.2025 440.057 60.2038C449.591 60.2638 459.054 60.2872 468.447 60.2738C472.447 60.2672 475.614 60.6905 477.947 61.5439C486.181 64.5439 491.057 70.8972 492.577 80.6039C492.704 81.4172 493.007 81.4871 493.487 80.8138C498.207 74.2071 503.877 68.4771 510.497 63.6238C514.117 60.9638 517.547 59.1538 520.787 58.1938C524.667 57.0405 528.604 56.6538 532.597 57.0338C538.071 57.5472 542.647 59.3805 546.327 62.5338C549.081 64.8872 551.154 67.7905 552.547 71.2438C553.847 74.4505 554.377 77.8671 554.137 81.4938C553.631 89.1338 550.031 95.0772 543.337 99.3238C538.884 102.157 534.144 103.28 529.117 102.694C524.351 102.147 520.121 100.317 516.427 97.2038C511.921 93.4105 509.204 88.2838 508.277 81.8238C508.269 81.7656 508.247 81.7099 508.215 81.661C508.182 81.6122 508.14 81.5716 508.09 81.5425C508.041 81.5134 507.986 81.4966 507.93 81.4933C507.874 81.4901 507.818 81.5005 507.767 81.5238Z" fill="#FDFEFF"/>
<path d="M287.218 67.1437C286.91 67.0634 286.633 66.8962 286.418 66.6621C286.204 66.4279 286.061 66.1368 286.008 65.8236C285.634 63.6703 285.748 61.9803 286.348 60.7536C286.411 60.6247 286.514 60.516 286.645 60.4399C286.775 60.3639 286.929 60.3236 287.088 60.3236C295.508 60.2636 303.928 60.2403 312.348 60.2536C317.221 60.2603 320.948 60.7237 323.528 61.6437C331.174 64.3703 336.091 70.077 338.278 78.7636C338.778 80.7436 339.008 85.2436 338.968 92.2636C338.841 113.597 338.764 134.93 338.738 156.264C338.731 159.29 339.161 162.25 340.028 165.144C341.268 169.317 343.974 172.02 348.148 173.254C352.814 174.634 357.518 174.557 362.258 173.024C362.375 172.986 362.499 172.976 362.62 172.995C362.741 173.015 362.856 173.062 362.956 173.134C363.055 173.207 363.136 173.301 363.192 173.41C363.248 173.52 363.277 173.641 363.278 173.764V183.974C363.278 184.332 363.183 184.683 363.004 184.992C362.825 185.301 362.567 185.557 362.258 185.734C355.351 189.714 348.108 192.047 340.528 192.734C335.161 193.22 330.001 192.714 325.048 191.214C319.708 189.6 315.164 187.324 311.418 184.384C307.111 181.004 304.064 176.63 302.278 171.264C300.411 165.657 299.508 159.324 299.568 152.264C299.868 120.384 299.854 95.6336 299.528 78.0136C299.488 75.987 298.861 74.1703 297.648 72.5636C296.714 71.3303 295.244 70.2436 293.238 69.3036C291.264 68.3903 289.258 67.6703 287.218 67.1437Z" fill="#FDFEFF"/>
<path d="M360.199 66.8036C360.018 66.7907 359.849 66.7121 359.726 66.5838C359.604 66.4555 359.537 66.2872 359.539 66.1136L359.589 61.8036C359.594 61.3932 359.768 61.0014 360.073 60.7131C360.379 60.4248 360.79 60.2633 361.219 60.2636C371.012 60.2636 380.449 60.1903 389.529 60.0437C402.116 59.8437 410.259 65.0303 413.959 75.6037C414.832 78.1037 415.292 81.4303 415.339 85.5836C415.632 113.757 415.696 137.65 415.529 157.264C415.496 161.15 415.616 164.21 415.889 166.444C416.369 170.464 418.186 173.217 421.339 174.704C423.466 175.704 426.512 176.474 430.479 177.014C430.633 177.035 430.777 177.095 430.895 177.186C431.013 177.278 431.101 177.398 431.149 177.534C431.676 179.04 431.622 180.85 430.989 182.964C430.93 183.166 430.811 183.347 430.649 183.48C430.486 183.614 430.288 183.695 430.079 183.714C420.586 184.514 411.069 185.53 401.529 186.764C396.916 187.357 391.242 188.657 384.509 190.664C382.702 191.204 381.359 191.367 380.479 191.154C379.412 190.894 378.566 190.294 377.939 189.354C377.499 188.694 377.276 187.754 377.269 186.534C376.989 153.807 376.906 121.077 377.019 88.3436C377.019 88.2636 377.059 87.0503 377.139 84.7036C377.259 80.857 376.702 77.2303 375.469 73.8236C374.809 72.0103 373.529 70.6536 371.629 69.7536C368.109 68.0803 364.299 67.0969 360.199 66.8036Z" fill="#FDFEFF"/>
<path d="M8.92807 183.373C5.6014 180.633 3.28141 177.2 1.96808 173.073C-1.29192 162.84 -0.501929 153.507 4.33807 145.073C7.92474 138.82 13.5147 133.71 21.1081 129.743C33.7747 123.13 46.9814 117.87 60.7281 113.964C60.7919 113.947 60.8586 113.943 60.9233 113.953C60.988 113.962 61.049 113.985 61.1019 114.02C61.1547 114.055 61.198 114.1 61.2285 114.152C61.259 114.205 61.2759 114.263 61.2781 114.323L61.4381 123.253C61.4444 123.49 61.3747 123.728 61.2368 123.942C61.0989 124.156 60.8984 124.337 60.6581 124.464C56.6381 126.597 53.1214 129.14 50.1081 132.094C43.9747 138.107 40.9347 145.133 40.9881 153.173C41.0214 158.8 42.3114 163.297 44.8581 166.664C48.2647 171.164 53.4547 172.56 60.4281 170.854C60.5586 170.822 60.6946 170.82 60.8259 170.848C60.9572 170.877 61.0804 170.934 61.1862 171.017C61.2921 171.1 61.3778 171.206 61.437 171.326C61.4962 171.447 61.5273 171.579 61.5281 171.714V182.154C61.5276 182.418 61.4569 182.676 61.3232 182.903C61.1896 183.13 60.9979 183.317 60.7681 183.443C52.5947 188.017 44.0981 190.69 35.2781 191.464C25.3247 192.33 16.5414 189.633 8.92807 183.373Z" fill="#FDFEFF"/>
<path d="M573.437 192.904C586.09 192.904 596.347 182.646 596.347 169.993C596.347 157.341 586.09 147.083 573.437 147.083C560.784 147.083 550.527 157.341 550.527 169.993C550.527 182.646 560.784 192.904 573.437 192.904Z" fill="#FDFEFF"/>
<path d="M205.466 289.324C202.493 287.104 201.186 283.974 201.546 279.934C201.919 275.847 203.766 272.727 207.086 270.574C210.086 268.634 213.483 267.744 217.276 267.904C222.676 268.13 227.523 269.837 231.816 273.024C231.94 273.114 232.027 273.243 232.059 273.384C232.091 273.524 232.064 273.664 231.986 273.774L228.376 278.894C228.339 278.947 228.289 278.991 228.231 279.024C228.173 279.057 228.107 279.077 228.037 279.083C227.967 279.09 227.894 279.083 227.824 279.062C227.753 279.041 227.686 279.008 227.626 278.964C223.753 276.15 219.553 274.834 215.026 275.014C213.419 275.08 212.083 275.65 211.016 276.724C209.996 277.757 209.466 278.94 209.426 280.274C209.379 281.867 210.163 283.114 211.776 284.014C213.336 284.88 215.266 285.574 217.566 286.094C220.313 286.707 222.956 287.577 225.496 288.704C228.609 290.084 230.779 291.727 232.006 293.634C233.646 296.18 234.069 299.14 233.276 302.514C232.576 305.5 231.079 307.857 228.786 309.584C226.953 310.97 224.469 311.874 221.336 312.294C213.583 313.347 206.609 311.28 200.416 306.094C200.358 306.046 200.309 305.988 200.272 305.925C200.234 305.861 200.209 305.793 200.198 305.723C200.187 305.653 200.19 305.584 200.207 305.519C200.223 305.454 200.254 305.394 200.296 305.344L204.206 300.574C204.259 300.508 204.326 300.455 204.403 300.418C204.481 300.381 204.567 300.361 204.657 300.359C204.747 300.357 204.838 300.373 204.926 300.407C205.013 300.44 205.095 300.49 205.166 300.554C209.999 304.8 215.536 306.37 221.776 305.264C223.176 305.017 224.266 304.194 225.046 302.794C225.746 301.534 225.933 300.297 225.606 299.084C225.233 297.71 224.299 296.69 222.806 296.024C220.773 295.11 218.663 294.437 216.476 294.004C212.163 293.15 208.493 291.59 205.466 289.324Z" fill="white" fill-opacity="0.66"/>
<path d="M285.227 307.813C280.44 303.847 277.854 298.6 277.467 292.073C277.174 287.187 278.197 282.813 280.537 278.953C285.284 271.113 292.447 267.467 302.027 268.013C307.467 268.32 312.09 270.127 315.897 273.433C316.006 273.527 316.078 273.657 316.096 273.794C316.115 273.932 316.079 274.068 315.997 274.173L311.907 279.253C311.809 279.373 311.664 279.447 311.503 279.458C311.343 279.469 311.179 279.417 311.047 279.313C308.547 277.333 305.894 276.037 303.087 275.423C300.18 274.79 297.347 275 294.587 276.053C290.307 277.693 287.517 280.91 286.217 285.703C284.457 292.183 285.644 297.4 289.777 301.353C292.464 303.92 295.624 305.34 299.257 305.613C302.997 305.893 306.554 304.893 309.927 302.613C310.068 302.518 310.184 302.396 310.265 302.258C310.345 302.12 310.387 301.971 310.387 301.823L310.487 295.303C310.488 295.2 310.468 295.098 310.427 295.002C310.386 294.906 310.325 294.819 310.247 294.746C310.17 294.672 310.078 294.614 309.977 294.574C309.876 294.534 309.767 294.513 309.657 294.513H300.297C300.093 294.513 299.897 294.432 299.753 294.288C299.608 294.143 299.527 293.948 299.527 293.743V288.323C299.527 288.175 299.586 288.032 299.691 287.927C299.796 287.822 299.938 287.763 300.087 287.763H317.267C317.365 287.763 317.462 287.782 317.552 287.819C317.643 287.855 317.725 287.908 317.794 287.975C317.863 288.042 317.917 288.121 317.954 288.209C317.99 288.296 318.008 288.389 318.007 288.483L317.807 305.513C317.804 305.667 317.766 305.82 317.697 305.962C317.628 306.103 317.529 306.23 317.407 306.333C311.434 311.353 304.47 313.433 296.517 312.573C292.264 312.113 288.5 310.527 285.227 307.813Z" fill="white" fill-opacity="0.66"/>
<path d="M371.129 287.113C371.971 293.028 370.401 299.04 366.765 303.825C363.129 308.611 357.725 311.777 351.741 312.629C345.757 313.481 339.683 311.947 334.857 308.367C330.03 304.786 326.845 299.451 326.004 293.535C325.162 287.619 326.731 281.607 330.367 276.822C334.003 272.037 339.408 268.87 345.392 268.019C351.376 267.167 357.449 268.7 362.276 272.281C367.102 275.862 370.287 281.197 371.129 287.113ZM349.292 305.566C351.199 305.472 353.068 304.985 354.793 304.133C356.517 303.28 358.063 302.078 359.343 300.596C360.622 299.114 361.609 297.38 362.249 295.494C362.888 293.608 363.167 291.606 363.069 289.604C362.871 285.559 361.151 281.754 358.288 279.027C355.424 276.3 351.652 274.874 347.8 275.062C345.893 275.155 344.024 275.642 342.299 276.495C340.575 277.347 339.029 278.549 337.75 280.031C336.47 281.514 335.483 283.247 334.844 285.133C334.204 287.02 333.926 289.021 334.024 291.024C334.221 295.069 335.941 298.874 338.805 301.601C341.668 304.328 345.44 305.754 349.292 305.566Z" fill="white" fill-opacity="0.66"/>
<path d="M163.137 302.274L159.157 311.494C159.092 311.641 158.991 311.766 158.869 311.854C158.746 311.941 158.606 311.986 158.467 311.984L151.517 311.824C151.461 311.823 151.407 311.807 151.36 311.778C151.312 311.748 151.272 311.707 151.244 311.657C151.215 311.606 151.199 311.549 151.196 311.489C151.193 311.429 151.203 311.369 151.227 311.314L169.497 269.254C169.622 268.969 169.815 268.728 170.052 268.561C170.289 268.393 170.559 268.307 170.827 268.314L176.967 268.494C177.107 268.5 177.247 268.554 177.369 268.647C177.491 268.741 177.591 268.872 177.657 269.024L195.987 311.204C196.024 311.286 196.04 311.376 196.033 311.466C196.027 311.556 195.999 311.643 195.951 311.718C195.903 311.794 195.838 311.856 195.76 311.899C195.682 311.942 195.595 311.964 195.507 311.964L188.717 312.004C188.525 312.003 188.338 311.947 188.179 311.842C188.021 311.737 187.898 311.588 187.827 311.414L184.227 302.774C184.076 302.411 183.833 302.101 183.528 301.885C183.223 301.669 182.87 301.557 182.517 301.564L163.837 301.794C163.688 301.797 163.543 301.843 163.418 301.929C163.294 302.014 163.196 302.134 163.137 302.274ZM173.057 278.984L166.567 294.164C166.538 294.23 166.527 294.301 166.533 294.373C166.54 294.444 166.564 294.513 166.604 294.572C166.644 294.632 166.698 294.681 166.761 294.714C166.824 294.748 166.895 294.765 166.967 294.764H179.877C179.984 294.764 180.09 294.737 180.184 294.685C180.279 294.633 180.358 294.557 180.417 294.465C180.475 294.373 180.511 294.267 180.519 294.157C180.528 294.047 180.51 293.936 180.467 293.834L174.017 279.004C173.697 278.25 173.377 278.244 173.057 278.984Z" fill="white" fill-opacity="0.66"/>
<path d="M131.765 300.774C132.019 301.414 132.269 301.414 132.515 300.774L144.915 269.134C144.989 268.951 145.115 268.794 145.277 268.684C145.439 268.573 145.63 268.514 145.825 268.514H152.755C152.855 268.513 152.952 268.536 153.04 268.583C153.128 268.629 153.203 268.696 153.259 268.778C153.314 268.86 153.348 268.955 153.358 269.054C153.368 269.152 153.353 269.252 153.315 269.344L135.845 311.704C135.751 311.934 135.593 312.131 135.392 312.27C135.191 312.409 134.955 312.483 134.715 312.484L129.615 312.464C129.393 312.463 129.175 312.394 128.988 312.264C128.801 312.134 128.654 311.949 128.565 311.734L111.075 269.374C111.051 269.315 111.04 269.252 111.044 269.189C111.048 269.126 111.066 269.065 111.098 269.012C111.129 268.959 111.173 268.915 111.225 268.884C111.277 268.853 111.335 268.835 111.395 268.834L118.535 268.554C118.765 268.545 118.996 268.618 119.195 268.761C119.394 268.904 119.551 269.112 119.645 269.354L131.765 300.774Z" fill="white" fill-opacity="0.66"/>
<path d="M251.316 275.823L238.956 275.594C238.813 275.591 238.677 275.535 238.577 275.44C238.478 275.344 238.423 275.216 238.426 275.083L238.526 269.083C238.528 268.945 238.59 268.812 238.696 268.715C238.803 268.618 238.946 268.563 239.096 268.563L272.966 268.803C273.108 268.807 273.244 268.859 273.353 268.949C273.462 269.04 273.537 269.165 273.566 269.303C273.939 271.27 273.939 273.24 273.566 275.214C273.537 275.352 273.462 275.477 273.353 275.568C273.244 275.658 273.108 275.71 272.966 275.714L260.806 275.763C260.58 275.763 260.364 275.85 260.205 276.004C260.045 276.157 259.956 276.366 259.956 276.583V311.193C259.957 311.344 259.907 311.488 259.817 311.597C259.728 311.705 259.605 311.768 259.476 311.773L252.586 311.993C252.521 311.995 252.456 311.982 252.395 311.955C252.335 311.928 252.28 311.887 252.233 311.836C252.187 311.785 252.15 311.724 252.124 311.656C252.099 311.589 252.086 311.517 252.086 311.443L252.026 276.534C252.026 276.349 251.952 276.171 251.819 276.038C251.686 275.906 251.506 275.829 251.316 275.823Z" fill="white" fill-opacity="0.66"/>
<path d="M388.846 304.953L412.466 305.013C412.614 305.013 412.757 305.071 412.862 305.175C412.967 305.278 413.026 305.418 413.026 305.563V311.493C413.026 311.631 412.971 311.764 412.873 311.861C412.776 311.959 412.644 312.013 412.506 312.013H381.206C381.082 312.013 380.96 311.989 380.846 311.942C380.732 311.895 380.628 311.825 380.541 311.738C380.454 311.651 380.384 311.547 380.337 311.433C380.29 311.319 380.266 311.197 380.266 311.073L380.336 269.333C380.336 269.265 380.349 269.198 380.374 269.135C380.4 269.071 380.438 269.014 380.485 268.966C380.532 268.918 380.589 268.879 380.65 268.853C380.712 268.827 380.779 268.813 380.846 268.813L411.596 268.523C411.778 268.522 411.955 268.582 412.088 268.694C412.222 268.805 412.303 268.959 412.316 269.123L412.776 274.794C412.783 274.886 412.767 274.978 412.731 275.066C412.695 275.153 412.638 275.233 412.565 275.301C412.492 275.368 412.403 275.422 412.305 275.459C412.207 275.495 412.102 275.514 411.996 275.513H388.696C388.563 275.513 388.436 275.567 388.342 275.663C388.248 275.758 388.196 275.888 388.196 276.023L388.266 285.993C388.268 286.132 388.324 286.265 388.421 286.362C388.519 286.459 388.649 286.513 388.786 286.513H409.356C409.488 286.513 409.615 286.567 409.709 286.663C409.803 286.758 409.856 286.888 409.856 287.023L409.796 292.913C409.794 293.038 409.769 293.161 409.72 293.274C409.672 293.388 409.601 293.491 409.513 293.576C409.426 293.661 409.322 293.727 409.209 293.769C409.096 293.812 408.976 293.83 408.856 293.823C402.076 293.457 395.392 293.43 388.806 293.743C388.666 293.749 388.534 293.807 388.437 293.906C388.34 294.004 388.286 294.136 388.286 294.273L388.326 304.453C388.326 304.586 388.38 304.713 388.478 304.807C388.575 304.901 388.708 304.953 388.846 304.953Z" fill="white" fill-opacity="0.66"/>
<path d="M453.217 273.853C457.951 277.82 460.554 282.593 461.027 288.173C461.461 293.18 460.277 297.863 457.477 302.223C454.551 306.797 450.344 309.78 444.857 311.173C442.637 311.733 438.894 312.013 433.627 312.013C429.961 312.013 426.197 312.013 422.337 312.013C422.189 312.013 422.046 311.954 421.941 311.849C421.836 311.744 421.777 311.602 421.777 311.453V269.153C421.777 268.991 421.841 268.834 421.955 268.718C422.07 268.603 422.225 268.536 422.387 268.533C428.987 268.413 435.201 268.49 441.027 268.763C445.341 268.963 449.404 270.66 453.217 273.853ZM447.547 279.003C445.681 277.417 443.924 276.503 442.277 276.263C438.717 275.743 434.754 275.597 430.387 275.823C430.23 275.831 430.081 275.898 429.972 276.012C429.862 276.125 429.8 276.276 429.797 276.433L429.527 304.053C429.526 304.146 429.543 304.238 429.578 304.324C429.614 304.41 429.666 304.489 429.732 304.555C429.798 304.621 429.877 304.673 429.963 304.709C430.05 304.745 430.143 304.763 430.237 304.763C432.384 304.763 434.451 304.763 436.437 304.763C439.184 304.763 441.231 304.597 442.577 304.263C447.791 302.99 451.044 299.677 452.337 294.323C453.837 288.11 452.241 283.003 447.547 279.003Z" fill="white" fill-opacity="0.66"/>
</svg>
