<svg width="3221" height="1233" viewBox="0 0 3221 1233" fill="none" xmlns="http://www.w3.org/2000/svg">
<g clip-path="url(#clip0_457_606)">
<path fill-rule="evenodd" clip-rule="evenodd" d="M7.99187 1129.11C-1.88313 1130.28 -1.24981 1110.38 9.0127 1102.11C134.325 997.818 263.288 896.001 388.596 791.701C405.576 776.38 446.634 778.276 456.167 796.81C504.426 896.047 553.846 987.697 602.105 1086.93C619.617 1117.73 610.951 1130.28 598.313 1130.28H441.43C432.184 1130.28 429.409 1128.11 423.384 1115.22C392.051 1048.2 352.021 984.797 318.255 917.793C311.642 906.46 300.5 906.655 288.921 916.48C234.634 964.447 179.25 1011.53 124.963 1059.5C119.221 1064.78 122.167 1068.6 129.85 1068.55H321.613C326.284 1068.62 332.192 1070.37 329.934 1076.87C320.3 1107.81 304.975 1130.28 292.717 1128.96C196.059 1129.01 104.654 1129.06 7.99187 1129.11Z" fill="white"/>
<path fill-rule="evenodd" clip-rule="evenodd" d="M675.005 1129.4C664.088 1130.28 660.555 1115.78 664.497 1106.35C701.267 1005.36 738.051 904.369 774.826 803.381C781.926 780.614 838.359 763.835 860.051 803.381C890.601 865.456 921.155 927.519 951.701 989.594C957.022 1000.61 967.405 1004.68 982.055 995.435C1065.92 927.519 1149.78 859.61 1233.66 791.706C1251.65 773.61 1307.93 779.602 1293.82 813.544C1256.66 916.481 1222.95 1009.84 1185.78 1112.76C1181.08 1124.28 1174.57 1130.89 1156.01 1130.28H1055.03C1040.07 1130.32 1032.13 1125.36 1036.93 1112.19C1048.8 1079.11 1058.92 1046.02 1070.78 1012.94C1075.41 1000.78 1068.64 994.752 1060.57 1000.98C1010.86 1039.6 961.143 1078.23 911.426 1116.85C888.805 1132.96 871.288 1130.32 857.134 1110.43C836.313 1073.66 815.493 1036.88 794.676 1000.1C785.068 985.073 776.918 990.11 773.072 1000.1C758.48 1037.07 743.888 1074.04 729.297 1111.02C725.205 1121.96 721.705 1130.28 710.905 1129.4H675.005Z" fill="white"/>
<path fill-rule="evenodd" clip-rule="evenodd" d="M1297.64 1069.13H1445.33C1469.45 1066 1494.67 1057.48 1506.91 1033.23C1543.79 957.143 1564.32 877.176 1593.9 799.143C1595.64 789.381 1601.61 783.076 1620.46 783.972H1748C1760.12 783.889 1763.81 787.526 1760.12 796.081C1731.95 871.339 1703.78 946.593 1675.62 1021.85C1649.07 1079.05 1620.24 1130.32 1537.27 1130.32H1279.54C1251.59 1130.32 1272.58 1068.31 1297.64 1069.13Z" fill="white"/>
<path d="M1971.42 1232.07L1955.94 1146.4C1978.31 1136.96 2009.99 1114.82 2023.84 1073.07C2038.91 1027.69 2020.95 989.943 1964.31 989.943H1835.09L1754.7 1232.07H1828.03L1853.34 1155.84H1879.84L1887.93 1232.07H1971.42ZM1919.2 1091.94H1874.55L1887.2 1053.83H1931.85C1944.19 1053.83 1953.89 1059.64 1949.54 1072.71C1945.09 1086.14 1931.54 1091.94 1919.2 1091.94Z" fill="white"/>
<path d="M2203.04 1232.07L2224.26 1168.18H2113.9L2122.7 1141.68H2230.51L2251.72 1077.79H2143.91L2151.86 1053.83H2262.22L2283.43 989.943H2099.75L2019.36 1232.07H2203.04Z" fill="white"/>
<path d="M2487.3 1232.07L2567.68 989.943H2494.36L2456.27 1104.66L2410.14 989.943H2334.63L2254.25 1232.07H2327.58L2368.31 1109.37L2416.88 1232.07H2487.3ZM2670.26 1232.07L2729.43 1053.83H2794.05L2815.26 989.943H2612.34L2591.13 1053.83H2656.1L2596.93 1232.07H2670.26ZM3002.42 1232.07L2993.5 989.943H2901.29L2731.61 1232.07H2814.74L2832.85 1203.76H2919.98L2919.29 1232.07H3002.42ZM2921.59 1139.86H2873.67L2923.54 1061.82L2921.59 1139.86ZM3199.17 1232.07L3220.39 1168.18H3128.54L3187.72 989.943H3114.39L3034 1232.07H3199.17Z" fill="white"/>
<path fill-rule="evenodd" clip-rule="evenodd" d="M2649.64 105.501C2622.63 104.276 2616.81 104.047 2597.14 122.722C2577.34 143.08 2336.91 370.88 2320.03 386.822L2222 479.709C2211.69 489.672 2199.66 499.563 2194.64 516.343C2181.92 558.901 2212.31 579.526 2233.58 602.118C2239.71 608.63 2259.69 630.851 2265.4 633.635C2263.23 574.23 2273.67 525.447 2321 502.48C2313.48 495.072 2297.73 487.626 2287.91 481.801C2288.51 467.618 2297.06 453.847 2305.99 447.005C2312.18 445.005 2327.73 455.147 2334.51 456.426C2344.25 458.268 2343.99 445.355 2351.99 431.276C2365.15 408.118 2387.11 388.688 2412.04 377.222C2447.46 360.926 2513.09 365.751 2556.29 365.772C2638.59 365.809 2693.94 354.247 2746.11 407.788C2761.85 423.947 2764.09 432.084 2772.39 449.168C2772.62 449.643 2772.85 450.176 2773.1 450.659L2776.91 457.034C2790 454.868 2803.75 443.193 2812.81 448.897C2819.52 453.114 2827.59 472.83 2827.76 480.459C2818.26 489.288 2804.81 492.655 2794.61 502.051C2846.28 530.334 2853.07 576.522 2850.13 643.118L2966.56 534.759C2998.79 504.768 2998.65 501.293 3000.22 427.918C3000.88 396.809 3008.09 179.43 3004.7 158.409C3000.61 132.947 2980.8 117.372 2958.61 112.384C2949.99 121.159 2924.82 162.984 2935.47 180.034C2943.48 192.859 2949.44 199.505 2940.01 215.484C2920.47 248.605 2866.98 217.501 2893.69 181.838C2904.34 167.638 2892.28 163.972 2910.74 124.834C2914.56 116.742 2926.22 99.4216 2927.11 93.6299C2903.3 108.909 2918.68 111.613 2881.12 110.126L2649.64 105.501Z" fill="white"/>
<path fill-rule="evenodd" clip-rule="evenodd" d="M2392.52 766.722C2396.99 775.984 2455.96 835.509 2465.54 845.409C2508.57 889.872 2542.04 941.943 2603.78 880.484L2681.9 805.939C2688.74 799.489 2716.64 774.405 2720.77 766.818C2696.9 766.68 2694.16 763.822 2693.4 740.368C2603.92 746.722 2577.35 748.451 2490.58 745.105C2472.83 744.422 2437.15 739.288 2422.65 741.688C2415.91 765.297 2424.84 767.347 2392.52 766.722Z" fill="white"/>
<path fill-rule="evenodd" clip-rule="evenodd" d="M2374.74 501.947C2384.3 502.642 2393.96 502.342 2403.56 502.363C2408.48 502.372 2413.69 502.534 2418.55 502.472C2419.99 502.451 2423.41 502.409 2424.72 502.242C2431.81 501.33 2425.23 506.217 2431.54 500.363C2435.67 496.526 2432.81 497.913 2433.69 495.509C2451.74 446.347 2421.91 457.23 2496.98 455.722C2525.92 455.138 2515.55 462.642 2525.46 490.413C2531.29 506.763 2538.89 503.872 2556.28 503.809C2572.06 503.755 2583.88 507.301 2589.42 492.917C2593.3 482.847 2594.34 463.113 2601.55 458.313C2608.01 453.113 2658.93 454.651 2670.38 456.488C2676.68 465.93 2679.44 490.026 2683.66 502.08L2740.5 502.251C2736.59 471.097 2715.95 435.717 2685.7 421.701C2656.79 408.309 2595.38 412.897 2558.41 412.897C2522.55 412.897 2460.09 407.884 2430.85 421.409C2399.61 435.863 2380.86 467.897 2374.74 501.947Z" fill="white"/>
<path fill-rule="evenodd" clip-rule="evenodd" d="M2696.26 626.646C2716.78 625.167 2745.33 615.88 2762.15 606.33C2785.92 592.83 2797.96 581.567 2793.45 548.496C2755.03 546.771 2696.94 587.355 2696.26 626.646Z" fill="white"/>
<path fill-rule="evenodd" clip-rule="evenodd" d="M2418.78 626.768C2420.1 593.747 2370.26 549.472 2322.76 548.147C2312.86 605.08 2376.08 618.976 2418.78 626.768Z" fill="white"/>
<path fill-rule="evenodd" clip-rule="evenodd" d="M3014.23 164.517L3013.06 188.605C3059.47 170.059 3142.59 84.3671 3160.37 22.1337C3162.56 14.4795 3163.56 7.2254 3163.41 0.587891H3144.12C3144.31 13.2546 3137.19 32.7004 3120.01 60.1712C3108.53 78.5129 3090.24 100.921 3073.43 117.759C3055.79 135.434 3034.14 151.755 3014.23 164.517ZM3029.11 0.587891C2945.66 60.7754 2871.5 173.713 2920.9 205.476C2929.4 210.938 2934.9 213.855 2936.84 203.209C2940.76 181.746 2898.53 188.213 2951.85 108.505C2983.14 61.7296 3029.3 22.5046 3068.55 0.587891H3029.11Z" fill="white"/>
</g>
<defs>
<clipPath id="clip0_457_606">
<rect width="3221" height="1233" fill="white"/>
</clipPath>
</defs>
</svg>
