<svg width="2280" height="1166" viewBox="0 0 2280 1166" fill="none" xmlns="http://www.w3.org/2000/svg">
<g clip-path="url(#clip0_116_17)">
<path fill-rule="evenodd" clip-rule="evenodd" d="M560.2 1001.68L671.39 1159.1H732.906L638.577 1032.43C660.457 1032.43 735.189 1018.21 735.189 928.247C735.189 899.778 725.617 868.599 704.191 847.925C686.435 830.935 661.819 819.456 614.427 819.456H510.072V1159.1H559.293V1001.68H560.2ZM593.014 994.769H559.293L559.306 864.889H611.249C666.838 864.889 685.981 899.778 685.981 928.247C685.981 993.861 613.065 994.769 593.014 994.769ZM915.17 858.469C964.844 858.469 993.105 889.221 1007.23 904.849H1064.65C1031.85 843.801 970.771 813.049 913.354 813.049C816.288 813.049 741.103 892.463 741.103 990.19C741.103 1085.22 815.381 1165.54 913.808 1165.54C995.829 1165.54 1086.06 1104.03 1087.89 990.19H874.626V1035.64H1031.85C999.473 1119.19 925.209 1120.1 915.637 1120.1C851.852 1120.1 790.323 1065.03 790.323 990.19C790.323 919.064 844.991 858.469 915.17 858.469ZM1104.75 819.456V1159.1H1286.59V1113.65H1153.97V1010.4H1286.59V964.964H1153.97V864.902H1286.59V819.456H1104.75ZM1369.06 896.562L1535.84 1159.1H1586.89V819.456H1537.67V1077.87H1536.76L1372.7 819.456H1318.93V1159.1H1368.15V896.562H1369.06ZM1661.62 864.902V1159.1H1710.84V864.902H1775.53V819.456H1596.89V864.902H1661.62ZM2203.61 1161.86L2070.28 1058.61L1846.05 1058.39V1161.86H1792.73V818.899H1845.98L2279.71 1161.86H2203.61ZM1846.05 885.005V1010.47L2007.29 1009.84L1846.05 885.005Z" fill="white"/>
<path fill-rule="evenodd" clip-rule="evenodd" d="M76.4015 1161.86L209.731 1058.61L433.939 1058.39V1161.86H487.284V818.898H434.017L0.294922 1161.86H76.4015ZM433.939 885.005V1010.47L272.725 1009.84L433.939 885.005Z" fill="white"/>
<path fill-rule="evenodd" clip-rule="evenodd" d="M918.477 370.209V291.924L1046.64 176.597H1154.34L918.477 370.209ZM1193.86 618.736H1050.74L1001.74 580.592L1398.8 244.727L1451.56 289.187V400.416L1193.86 618.736ZM1451.56 422.387V517.131L1326.13 618.736H1222.51L1451.56 422.387ZM1212.97 0.830566V131.28L1193.86 146.377V17.3022L1212.97 0.830566ZM1226.6 145.002H1487.01L1611.08 39.273H1357.48L1226.6 145.002ZM918.477 404.527L1182.97 176.597H1317.95L1380.33 229.163L984.687 567.311L918.477 515.743V400.416V404.527Z" fill="white"/>
</g>
<defs>
<clipPath id="clip0_116_17">
<rect width="2280" height="1166" fill="white"/>
</clipPath>
</defs>
</svg>
