<svg width="317" height="96" viewBox="0 0 317 96" fill="none" xmlns="http://www.w3.org/2000/svg">
    <g clip-path="url(#clip0_111_103)">
        <path
            d="M71.3499 48.41C72.2399 50.05 72.9799 51.78 73.4899 53.57C78.0399 69.37 73.9499 84.51 64.1899 91.1C56.8499 96.04 47.7899 95.26 44.8399 94.86C32.3799 93.19 26.4299 89.02 24.1499 84.06C22.2199 79.87 21.5799 73.17 24.9999 69.65C29.0799 65.45 35.1299 69.73 43.1999 65.54C48.6099 62.73 51.3299 57.99 52.7499 55.52C59.2699 44.17 55.8599 33.5 58.8099 32.53C60.4699 32 63.8499 34.69 71.3499 48.41Z"
            fill="white" fill-opacity="0.5" />
        <path
            d="M11.2101 50.45C11.2101 50.45 -10.5299 0.560031 29.3701 0.0400305C53.0701 -0.269969 54.7701 11.8 52.2401 21.66C50.6501 27.86 46.5301 33.04 41.0901 36.41C37.6901 38.52 33.7301 42.46 32.1701 49.74C26.0401 78.27 11.2101 50.45 11.2101 50.45Z"
            fill="white" fill-opacity="0.3" />
        <path
            d="M70.4501 23.71C70.1101 22.21 69.5401 20.6 68.2301 19.67C67.5501 19.19 66.7701 19.04 65.9501 18.93C65.2701 18.84 61.4201 18.03 54.9401 22C53.2301 23.05 52.2201 24.93 50.5301 26.02C50.1301 26.28 49.7001 26.5 49.2701 26.7C45.64 26.73 42.0001 25.89 38.5401 24.88C34.7301 23.77 31.0301 22.34 27.3201 20.94C25.8901 20.4 24.3701 19.83 22.8201 19.86C22.0601 19.88 21.3101 20.06 20.5701 20.2C19.0701 20.48 17.5101 20.7 16.0401 21.11C12.2901 22.14 14.3001 27.79 15.2501 30.21C16.2301 32.7 17.5201 35.08 18.6701 37.49C20.6601 41.64 22.7401 45.76 24.6501 49.94C25.5901 52 26.1101 54.78 25.5601 56.99C25.4201 57.53 25.1901 58.04 24.8601 58.49C21.4201 57.77 18.16 56.01 14.5601 56.04C12.08 56.06 9.47005 56.78 7.08005 57.34C5.60005 57.69 4.26005 58.36 3.16005 59.42C1.03005 61.45 0.0200511 64.6 0.760051 67.48C1.76005 71.33 5.77005 73.67 9.36005 74.67C12.5901 75.57 15.6401 75.13 18.9101 74.69C19.9801 74.55 21.1001 74.41 26.7301 73.18C30.0301 72.46 33.2601 71.34 36.2001 69.68C37.8901 68.73 39.4801 67.58 40.8501 66.21C42.5101 64.55 43.8601 62.61 45.5001 60.93C46.0101 60.41 46.6001 59.97 47.2201 59.59C48.6901 59.85 50.0901 60.48 51.2401 61.45C52.7401 62.71 54.0501 64.26 55.4201 65.66C55.6501 65.89 58.0201 65.19 58.3701 65.12C59.0601 64.99 59.7601 64.85 60.4501 64.71C60.5601 64.69 61.2601 64.48 61.3101 64.52C59.9401 63.12 58.6401 61.57 57.1301 60.31C54.7901 58.35 51.9601 58.06 49.2001 58.43C47.2601 58.6 44.72 59.37 44.34 59.46C42.6 59.88 41.0201 60.68 39.7401 61.96C38.1201 63.58 36.7901 65.47 35.2101 67.12C32.6101 69.82 29.2201 71.65 25.7301 72.92C24.6301 73.32 23.5101 73.63 22.3901 73.93C22.3601 73.93 22.3301 73.94 22.3101 73.94C22.2501 73.95 22.1901 73.96 22.1301 73.97C22.0401 73.98 21.9501 74 21.8601 74.01C21.2201 74.08 20.5801 74.13 19.9401 74.14C18.1801 74.15 16.4101 73.9 14.7301 73.37C11.3201 72.29 7.62005 70.02 6.66005 66.34C5.92005 63.51 6.90005 60.41 8.96005 58.37C9.34005 57.99 9.77005 57.67 10.2201 57.37C11.3501 57.51 12.4701 57.73 13.6101 58.03C15.6501 58.56 17.6301 59.41 19.7101 59.77C21.2201 60.04 22.5501 59.86 24.0401 59.58C26.4901 59.12 30.2801 59.17 31.3101 56.34C31.8801 54.78 31.67 52.98 31.34 51.39C30.87 49.16 29.82 47.27 28.84 45.23C26.72 40.8 24.5901 36.37 22.4701 31.94C21.4901 29.9 20.57 27.85 20.09 25.62C19.83 24.4 19.5801 22.82 20.0801 21.58C20.7901 21.82 21.5001 22.09 22.2001 22.36C29.1901 25 36.8601 28.28 44.4901 27.82C46.9401 27.67 49.38 27.07 51.7701 26.57C53.3201 26.25 54.8401 25.85 56.2101 25.02C57.9101 23.99 59.0301 22.32 60.5601 21.08C60.8501 20.84 61.1601 20.62 61.4801 20.41C64.4201 21.6 64.9001 25.66 65.1001 28.7C65.4701 34.38 64.9001 40.13 64.2701 45.77C63.7401 50.51 63.0701 55.23 62.3301 59.94C61.7701 63.48 60.9601 66.99 59.6301 70.33C57.6401 75.32 54.4701 79.86 49.9801 82.9C48.1301 84.16 46.0901 85.14 43.9701 85.85C43.7201 85.94 43.4601 86 43.2001 86.08C42.7501 86.13 42.3101 86.17 41.8601 86.2C35.4701 86.59 28.9001 85.43 22.8801 83.27C22.5301 83.15 22.1901 83.02 21.8501 82.88C21.7201 82.83 21.0101 83.02 20.9801 83.03C20.2801 83.16 19.5901 83.29 18.9001 83.43C18.2101 83.56 17.5101 83.7 16.8201 83.84C16.6501 83.88 16.1001 84.09 15.9601 84.03C20.6001 85.95 25.8001 86.98 30.7801 87.32C36.4001 87.7 41.9301 86.72 47.3801 85.41C51.9701 84.31 56.2001 82.08 59.5101 78.7C63.9201 74.18 66.3601 68.13 67.6401 62.03C68.6401 57.29 69.2101 52.43 69.8101 47.63C70.2801 43.85 70.6801 40.06 70.9101 36.26C71.1301 32.14 71.3801 27.77 70.4501 23.71ZM46.8501 27.5C46.8301 27.51 46.8201 27.51 46.8501 27.5Z"
            fill="white" />
        <path
            d="M123.81 64.41C122.42 67.26 117.8 72.66 108.54 72.66C101.91 72.66 96.3501 70.19 96.3501 63.79C96.3501 49.37 114.01 49.91 123.8 49.29V44.05C123.8 36.57 120.41 34.26 114.7 34.26C104.13 34.26 100.2 41.35 98.8101 45.06L99.4301 35.42C103.9 33.88 110.69 33.26 115.01 33.26C124.8 33.26 130.97 39.51 130.97 46.6V65.96C130.97 69.43 130.74 70.97 134.83 71.36V71.51H129.12C125.96 71.51 123.8 69.35 123.8 66.19V64.41H123.81ZM103.99 63.33C103.84 67.5 106.46 71.04 110.16 71.04C115.4 71.04 123.81 67.18 123.81 60.01V50.14C115.94 50.53 104.53 53.76 103.99 63.33Z"
            fill="white" />
        <path
            d="M162.06 41.73C160.83 39.42 158.51 37.95 156.05 37.95C153.59 37.95 150.88 39.65 148.72 44.58V64.01C148.72 67.09 149.57 69.87 150.88 71.34V71.42L150.96 71.5H139.47C139.47 71.42 139.55 71.42 139.55 71.42L139.7 71.19C140.86 69.57 141.47 66.7201 141.47 63.6301V38.26C141.47 36.33 139.77 35.2501 137.92 34.7101V34.56L145.32 34.64C147.94 34.64 148.71 36.03 148.71 40.12V42.36C151.41 37.35 155.34 33.88 159.66 33.8C160.66 33.8 161.66 33.95 162.05 34.03V41.73H162.06Z"
            fill="white" />
        <path
            d="M171.54 34.4901V30.4001C171.54 26.2401 170.15 24.5401 167.68 24.0001V23.4601H172.31C176.17 23.4601 178.71 26.0001 178.71 29.8601V34.4901H196.75V36.0501H178.71V58.1701C178.71 67.4201 181.41 70.2801 186.04 70.2801C194.52 70.2801 197.68 63.4201 199.07 59.7201L198.45 69.3601C193.98 70.9001 188.35 71.5201 184.8 71.5201C176.63 71.5201 171.54 67.3601 171.54 58.3301V36.0601H166.3V34.5001H171.54V34.4901Z"
            fill="white" />
        <path
            d="M214.34 63.33C214.34 66.03 214.96 69.27 216.5 71.5H205.01C206.32 70.81 207.17 64.56 207.17 63.17V40.19C207.17 37.11 206.09 35.18 203.01 34.41H214.35V63.33H214.34ZM210.72 21.3C213.11 21.3 215.04 23.23 215.04 25.62C215.04 27.93 213.11 29.86 210.72 29.86C208.41 29.86 206.48 27.93 206.48 25.62C206.48 23.23 208.41 21.3 210.72 21.3Z"
            fill="white" />
        <path
            d="M260.77 52.92C260.77 64.26 252.9 72.66 241.8 72.66C230.7 72.66 222.83 64.25 222.83 52.92C222.83 41.66 230.7 33.25 241.8 33.25C252.9 33.25 260.77 41.66 260.77 52.92ZM253.37 52.84C253.37 45.9 250.67 34.41 241.73 34.41C235.56 34.41 230.16 40.96 230.24 52.92C230.24 59.94 232.94 71.5 241.88 71.5C248.04 71.5 253.44 64.95 253.37 52.84Z"
            fill="white" />
        <path
            d="M267.09 61.9401C271.26 68.1901 276.96 71.1201 282.67 71.3501C288.15 71.5001 293.7 69.1101 293.7 63.5601C293.7 58.7801 287.53 57.8501 280.98 56.3901C273.73 54.8501 266.1 52.6101 265.79 43.9001C265.56 36.3401 273.66 33.5701 281.83 33.2601C287.69 33.1101 293.55 34.2601 296.25 35.8801V43.9801C292.63 37.3501 286.92 34.4201 281.91 34.2601C275.51 34.0301 270.27 38.0401 271.58 42.7401C272.58 46.3601 278.83 48.6801 283.61 49.7601C291.48 51.5301 298.73 52.1501 298.73 61.2501C298.73 68.2701 291.63 71.6601 283.85 72.3601C277.68 72.9001 270.97 71.9001 267.11 69.7401V61.9401H267.09Z"
            fill="white" />
        <path
            d="M314.52 63.33C314.52 66.03 315.14 69.27 316.68 71.5H305.19C306.5 70.81 307.35 64.56 307.35 63.17V40.19C307.35 37.11 306.27 35.18 303.19 34.41H314.53V63.33H314.52ZM310.9 21.3C313.29 21.3 315.22 23.23 315.22 25.62C315.22 27.93 313.29 29.86 310.9 29.86C308.59 29.86 306.66 27.93 306.66 25.62C306.65 23.23 308.58 21.3 310.9 21.3Z"
            fill="white" />
    </g>
    <defs>
        <clipPath id="clip0_111_103">
            <rect width="317" height="96" fill="white" />
        </clipPath>
    </defs>
</svg>