<svg width="599" height="185" viewBox="0 0 599 185" fill="none" xmlns="http://www.w3.org/2000/svg">
<g clip-path="url(#clip0_447_387)">
<path d="M73.6696 26.4999V96.6199H64.7796V84.5699C60.9996 89.1699 56.7597 92.63 52.0497 94.95C47.3397 97.27 42.1996 98.4299 36.6096 98.4299C26.6796 98.4299 18.2096 94.8299 11.1796 87.6299C4.14965 80.4299 0.639648 71.6799 0.639648 61.3699C0.639648 51.0599 4.17965 42.6399 11.2696 35.4599C18.3596 28.2799 26.8896 24.7 36.8596 24.7C42.6196 24.7 47.8296 25.9199 52.4896 28.3699C57.1496 30.8199 61.2396 34.49 64.7696 39.39V26.4999H73.6597H73.6696ZM37.6096 33.3999C32.5896 33.3999 27.9496 34.6299 23.6996 37.0999C19.4496 39.5699 16.0697 43.0299 13.5597 47.4999C11.0497 51.9699 9.78965 56.6799 9.78965 61.6599C9.78965 66.6399 11.0596 71.3199 13.5896 75.8199C16.1196 80.3299 19.5196 83.8399 23.7896 86.3499C28.0596 88.8599 32.6396 90.1199 37.5396 90.1199C42.4397 90.1199 47.1496 88.88 51.5696 86.39C55.9896 83.9 59.3896 80.5299 61.7696 76.2799C64.1496 72.0299 65.3396 67.25 65.3396 61.92C65.3396 53.81 62.6696 47.0299 57.3196 41.5799C51.9796 36.1299 45.3996 33.3999 37.5896 33.3999H37.6096Z" fill="white"/>
<path d="M98.0502 0.459961H107.07V26.5H121.38V34.2999H107.07V96.63H98.0502V34.2999H85.7402V26.5H98.0502V0.459961Z" fill="white"/>
<path d="M72.0004 127.11L64.8504 131.56C58.6704 123.35 50.2404 119.25 39.5504 119.25C31.0104 119.25 23.9204 122 18.2704 127.49C12.6304 132.98 9.80039 139.66 9.80039 147.51C9.80039 152.62 11.1004 157.43 13.6904 161.93C16.2904 166.44 19.8504 169.93 24.3804 172.42C28.9104 174.91 33.9804 176.15 39.6104 176.15C49.9104 176.15 58.3204 172.05 64.8504 163.84L72.0004 168.55C68.6504 173.6 64.1504 177.51 58.5004 180.3C52.8504 183.08 46.4204 184.47 39.2004 184.47C28.1104 184.47 18.9204 180.95 11.6104 173.9C4.30039 166.85 0.650391 158.28 0.650391 148.18C0.650391 141.39 2.36039 135.09 5.77039 129.26C9.18039 123.43 13.8804 118.89 19.8504 115.63C25.8204 112.36 32.5004 110.73 39.8904 110.73C44.5304 110.73 49.0104 111.44 53.3304 112.86C57.6504 114.28 61.3104 116.13 64.3204 118.4C67.3304 120.68 69.8804 123.58 71.9904 127.1L72.0004 127.11Z" fill="white"/>
<path d="M122.12 110.74C132.92 110.74 141.88 114.65 148.98 122.47C155.44 129.6 158.67 138.05 158.67 147.8C158.67 157.55 155.26 166.16 148.44 173.48C141.62 180.81 132.85 184.47 122.13 184.47C111.41 184.47 102.58 180.81 95.7495 173.48C88.9295 166.15 85.5195 157.59 85.5195 147.8C85.5195 138.01 88.7495 129.67 95.2095 122.53C102.31 114.67 111.29 110.74 122.13 110.74H122.12ZM122.08 119.57C114.58 119.57 108.13 122.34 102.74 127.88C97.3495 133.42 94.6595 140.13 94.6595 147.99C94.6595 153.06 95.8895 157.79 98.3495 162.17C100.81 166.55 104.13 169.94 108.31 172.32C112.49 174.7 117.08 175.9 122.09 175.9C127.1 175.9 131.68 174.71 135.87 172.32C140.05 169.94 143.37 166.55 145.83 162.17C148.29 157.79 149.52 153.06 149.52 147.99C149.52 140.13 146.81 133.42 141.4 127.88C135.99 122.34 129.55 119.57 122.09 119.57H122.08Z" fill="white"/>
<path d="M177.86 112.54H186.88V125.11C190.49 120.3 194.49 116.7 198.87 114.31C203.25 111.92 208.02 110.73 213.18 110.73C218.34 110.73 223.07 112.06 227.13 114.73C231.19 117.39 234.19 120.98 236.12 125.49C238.05 130 239.02 137.03 239.02 146.57V182.66H230V149.21C230 141.13 229.66 135.74 229 133.03C227.95 128.39 225.95 124.9 222.98 122.56C220.01 120.22 216.15 119.05 211.38 119.05C205.92 119.05 201.03 120.85 196.71 124.46C192.39 128.07 189.54 132.54 188.17 137.87C187.31 141.35 186.88 147.71 186.88 156.95V182.67H177.86V112.55V112.54Z" fill="white"/>
<path d="M296.61 120.21L290.81 126.2C285.98 121.52 281.27 119.17 276.66 119.17C273.73 119.17 271.22 120.14 269.13 122.07C267.04 124 266 126.26 266 128.84C266 131.12 266.86 133.29 268.58 135.35C270.3 137.46 273.92 139.93 279.43 142.76C286.15 146.24 290.71 149.59 293.12 152.81C295.49 156.08 296.67 159.75 296.67 163.83C296.67 169.59 294.65 174.46 290.6 178.46C286.55 182.46 281.5 184.45 275.43 184.45C271.38 184.45 267.52 183.57 263.84 181.81C260.16 180.05 257.12 177.62 254.71 174.53L260.38 168.08C264.99 173.28 269.88 175.88 275.05 175.88C278.67 175.88 281.75 174.72 284.29 172.4C286.83 170.08 288.1 167.35 288.1 164.21C288.1 161.63 287.26 159.33 285.58 157.31C283.9 155.33 280.11 152.84 274.21 149.83C267.88 146.56 263.57 143.34 261.29 140.16C259.01 136.98 257.87 133.35 257.87 129.27C257.87 123.94 259.69 119.52 263.33 115.99C266.97 112.47 271.56 110.7 277.11 110.7C283.57 110.7 290.07 113.86 296.61 120.17V120.21Z" fill="white"/>
<path d="M321.21 86.5H330.23V112.54H344.54V120.34H330.23V182.67H321.21V120.34H308.9V112.54H321.21V86.5Z" fill="white"/>
<path d="M354.91 112.54H364.13V122.79C366.88 118.75 369.78 115.73 372.83 113.73C375.88 111.73 379.06 110.73 382.37 110.73C384.86 110.73 387.53 111.53 390.36 113.11L385.65 120.72C383.76 119.9 382.17 119.5 380.88 119.5C377.87 119.5 374.97 120.74 372.18 123.21C369.39 125.68 367.26 129.52 365.8 134.71C364.68 138.71 364.12 146.78 364.12 158.94V182.66H354.9V112.54H354.91Z" fill="white"/>
<path d="M396.87 112.54H405.89V145.28C405.89 153.27 406.32 158.77 407.18 161.78C408.47 166.08 410.93 169.47 414.57 171.96C418.21 174.45 422.54 175.7 427.58 175.7C432.62 175.7 436.89 174.49 440.39 172.06C443.9 169.63 446.32 166.44 447.65 162.49C448.55 159.78 449.01 154.05 449.01 145.28V112.54H458.23V146.96C458.23 156.63 457.1 163.91 454.85 168.81C452.6 173.71 449.2 177.54 444.67 180.31C440.14 183.08 434.45 184.47 427.62 184.47C420.79 184.47 415.08 183.08 410.51 180.31C405.94 177.54 402.52 173.67 400.26 168.71C398 163.75 396.88 156.28 396.88 146.31V112.54H396.87Z" fill="white"/>
<path d="M550.34 127.11L543.19 131.56C537.01 123.35 528.58 119.25 517.89 119.25C509.35 119.25 502.26 122 496.61 127.49C490.97 132.98 488.14 139.66 488.14 147.51C488.14 152.62 489.44 157.43 492.03 161.93C494.63 166.44 498.19 169.93 502.72 172.42C507.25 174.91 512.32 176.15 517.95 176.15C528.25 176.15 536.66 172.05 543.19 163.84L550.34 168.55C546.99 173.6 542.49 177.51 536.84 180.3C531.19 183.08 524.76 184.47 517.54 184.47C506.45 184.47 497.26 180.95 489.95 173.9C482.64 166.85 478.99 158.28 478.99 148.18C478.99 141.39 480.7 135.09 484.11 129.26C487.52 123.43 492.22 118.89 498.19 115.63C504.16 112.36 510.84 110.73 518.23 110.73C522.87 110.73 527.35 111.44 531.67 112.86C535.99 114.28 539.65 116.13 542.66 118.4C545.67 120.68 548.22 123.58 550.33 127.1L550.34 127.11Z" fill="white"/>
<path d="M575.54 86.5H584.56V112.54H598.87V120.34H584.56V182.67H575.54V120.34H563.23V112.54H575.54V86.5Z" fill="white"/>
<path d="M130.12 43.9399V51.8499C130.84 51.1299 131.62 50.5899 132.46 50.2199C133.3 49.8499 134.2 49.6799 135.16 49.6799C137.24 49.6799 139.01 50.4699 140.46 52.0399C141.91 53.6099 142.64 55.6299 142.64 58.0899C142.64 60.5499 141.89 62.4499 140.38 64.0399C138.87 65.6299 137.09 66.4399 135.03 66.4399C134.11 66.4399 133.26 66.28 132.47 65.95C131.68 65.62 130.89 65.0899 130.11 64.3499V66.0299H126.14V43.9399H130.11H130.12ZM134.32 53.3699C133.06 53.3699 132.02 53.7999 131.19 54.6599C130.36 55.5199 129.94 56.6399 129.94 58.0299C129.94 59.4199 130.36 60.5899 131.19 61.4699C132.02 62.3499 133.07 62.7799 134.32 62.7799C135.57 62.7799 136.57 62.34 137.4 61.45C138.23 60.56 138.65 59.4299 138.65 58.0499C138.65 56.6699 138.24 55.5599 137.42 54.6899C136.6 53.8199 135.56 53.3799 134.31 53.3799L134.32 53.3699Z" fill="white"/>
<path d="M144.25 50.0901H148.32L152.35 59.4901L156.37 50.0901H160.42L153.64 66.0301H151.05L144.25 50.0901Z" fill="white"/>
<path d="M166.72 43.9399V51.8499C167.44 51.1299 168.22 50.5899 169.06 50.2199C169.9 49.8499 170.8 49.6799 171.76 49.6799C173.84 49.6799 175.61 50.4699 177.06 52.0399C178.51 53.6099 179.24 55.6299 179.24 58.0899C179.24 60.5499 178.49 62.4499 176.98 64.0399C175.47 65.6299 173.69 66.4399 171.63 66.4399C170.71 66.4399 169.86 66.28 169.07 65.95C168.28 65.62 167.49 65.0899 166.71 64.3499V66.0299H162.74V43.9399H166.71H166.72ZM170.93 53.3699C169.67 53.3699 168.63 53.7999 167.8 54.6599C166.97 55.5199 166.55 56.6399 166.55 58.0299C166.55 59.4199 166.97 60.5899 167.8 61.4699C168.63 62.3499 169.68 62.7799 170.93 62.7799C172.18 62.7799 173.18 62.34 174.01 61.45C174.84 60.56 175.26 59.4299 175.26 58.0499C175.26 56.6699 174.85 55.5599 174.03 54.6899C173.21 53.8199 172.17 53.3799 170.92 53.3799L170.93 53.3699Z" fill="white"/>
<path d="M194.32 50.0899H198.32V66.0299H194.32V64.3499C193.54 65.0899 192.76 65.63 191.97 65.95C191.18 66.28 190.33 66.4399 189.42 66.4399C187.36 66.4399 185.58 65.6399 184.08 64.0399C182.58 62.4399 181.83 60.4599 181.83 58.0899C181.83 55.7199 182.56 53.6099 184.01 52.0399C185.46 50.4699 187.23 49.6799 189.31 49.6799C190.27 49.6799 191.16 49.8599 192 50.2199C192.84 50.5799 193.61 51.1199 194.33 51.8499V50.0899H194.32ZM190.12 53.3699C188.88 53.3699 187.86 53.8099 187.04 54.6799C186.22 55.5499 185.81 56.6699 185.81 58.0399C185.81 59.4099 186.23 60.5499 187.06 61.4399C187.89 62.3299 188.92 62.7699 190.13 62.7699C191.34 62.7699 192.43 62.3299 193.25 61.4599C194.07 60.5899 194.49 59.4399 194.49 58.0199C194.49 56.5999 194.08 55.5099 193.25 54.6499C192.42 53.7899 191.38 53.3599 190.11 53.3599L190.12 53.3699Z" fill="white"/>
<path d="M137.16 82.7101L134.68 85.1901C133.67 84.1901 132.76 83.7001 131.94 83.7001C131.49 83.7001 131.14 83.8001 130.89 83.9901C130.64 84.1801 130.51 84.4201 130.51 84.7001C130.51 84.9101 130.59 85.1101 130.75 85.2901C130.91 85.4701 131.31 85.7201 131.94 86.0301L133.4 86.7601C134.94 87.5201 136 88.3001 136.58 89.0901C137.16 89.8801 137.44 90.8101 137.44 91.8701C137.44 93.2901 136.92 94.4701 135.88 95.4101C134.84 96.3501 133.45 96.8301 131.7 96.8301C129.38 96.8301 127.52 95.9201 126.13 94.1101L128.59 91.4301C129.06 91.9801 129.61 92.4201 130.24 92.7601C130.87 93.1001 131.43 93.2701 131.92 93.2701C132.45 93.2701 132.87 93.1401 133.19 92.8901C133.51 92.6401 133.67 92.3401 133.67 92.0101C133.67 91.3901 133.09 90.7901 131.93 90.2101L130.58 89.5401C128 88.2401 126.71 86.6201 126.71 84.6601C126.71 83.4001 127.2 82.3201 128.17 81.4301C129.14 80.5401 130.38 80.0901 131.9 80.0901C132.94 80.0901 133.91 80.3201 134.82 80.7701C135.73 81.2201 136.51 81.8801 137.14 82.7301L137.16 82.7101Z" fill="white"/>
<path d="M144.58 80.4801V82.2401C145.3 81.5201 146.08 80.98 146.92 80.61C147.76 80.24 148.66 80.0701 149.62 80.0701C151.7 80.0701 153.47 80.8601 154.92 82.4301C156.37 84.0001 157.1 86.0201 157.1 88.4801C157.1 90.9401 156.35 92.8401 154.84 94.4301C153.33 96.0201 151.55 96.83 149.49 96.83C148.57 96.83 147.72 96.6701 146.93 96.3401C146.14 96.0101 145.35 95.4801 144.57 94.7401V102.25H140.6V80.4801H144.57H144.58ZM148.78 83.7601C147.52 83.7601 146.48 84.19 145.65 85.05C144.82 85.91 144.4 87.0301 144.4 88.4201C144.4 89.8101 144.82 90.98 145.65 91.86C146.48 92.74 147.53 93.1701 148.78 93.1701C150.03 93.1701 151.03 92.7301 151.86 91.8401C152.69 90.9501 153.11 89.8201 153.11 88.4401C153.11 87.0601 152.7 85.95 151.88 85.08C151.06 84.21 150.02 83.7701 148.77 83.7701L148.78 83.7601Z" fill="white"/>
<path d="M159.47 80.4801H162.9V82.4901C163.27 81.7001 163.76 81.1001 164.38 80.6901C165 80.2801 165.67 80.0701 166.4 80.0701C166.92 80.0701 167.46 80.2101 168.03 80.4801L166.78 83.9201C166.31 83.6901 165.93 83.5701 165.62 83.5701C165 83.5701 164.48 83.9501 164.06 84.7101C163.64 85.4701 163.42 86.9701 163.42 89.1901V89.9701L163.43 96.4201H159.46V80.4801H159.47Z" fill="white"/>
<path d="M169.57 74.3301H173.57V96.4201H169.57V74.3301Z" fill="white"/>
</g>
<defs>
<clipPath id="clip0_447_387">
<rect width="599" height="185" fill="white"/>
</clipPath>
</defs>
</svg>
