<svg width="866" height="484" viewBox="0 0 866 484" fill="none" xmlns="http://www.w3.org/2000/svg">
<g clip-path="url(#clip0_502_48)">
<path d="M846.04 464.644C849.057 464.644 850.786 463.244 850.786 460.873C850.786 458.498 849.057 457.152 846.04 457.152H842.048V464.644H846.04ZM850.998 467.448L855.744 474.723H851.107L846.903 468.257H842.103V474.723H837.469V453.486H846.311C851.915 453.486 855.257 456.398 855.257 460.873C855.257 464.052 853.748 466.315 850.998 467.448ZM861.353 463.998C861.353 454.94 854.665 448.04 845.503 448.04C836.282 448.04 829.49 455.102 829.49 464.107C829.49 473.111 836.282 480.169 845.39 480.169C854.453 480.169 861.353 473.057 861.353 463.998ZM864.478 463.998C864.478 474.723 856.123 483.136 845.39 483.136C834.665 483.136 826.415 474.723 826.415 464.107C826.415 453.486 834.665 445.073 845.503 445.073C856.336 445.073 864.478 453.269 864.478 463.998Z" fill="white"/>
<path d="M372.373 425.096H8.81007L2.30171 437.78H387.985C382.273 434.18 377.031 429.934 372.373 425.096Z" fill="white"/>
<path d="M476.25 437.775H863.2L856.688 425.092H491.863C487.204 429.93 481.958 434.175 476.25 437.775Z" fill="white"/>
<path d="M432.746 438.29C391.979 438.29 358.934 405.24 358.934 364.47C358.934 323.699 391.979 290.649 432.746 290.649C473.517 290.649 506.571 323.699 506.571 364.47C506.571 405.24 473.517 438.29 432.746 438.29ZM432.75 247.236C367.996 247.236 315.513 299.728 315.513 364.474C315.513 429.224 367.996 481.711 432.75 481.711C497.5 481.711 549.984 429.224 549.984 364.474C549.984 299.728 497.5 247.236 432.75 247.236Z" fill="white"/>
<path d="M212.617 413.18V337.443H165.396V292.422H304.576V337.826H256.547V413.18H212.617Z" fill="white"/>
<path d="M648.588 292.259L625.737 324.2H625.646L602.796 292.259H562.767V413.017H602.708V384.159L625.646 413.017H625.737L648.671 384.159V413.017H688.613V292.259H648.588Z" fill="white"/>
<path d="M758.996 367.08L771.313 343.442L782.867 367.08H758.996ZM791.892 292.421H750.209L694.309 413.18H740.104L747.934 397.121H798.196L805.796 413.18H851.705L791.892 292.421Z" fill="white"/>
<path d="M83.6656 367.163L95.2198 343.525L107.536 367.163H83.6656ZM116.278 292.421H74.5948L14.7822 413.18H60.6864L68.2906 397.117H118.553L126.382 413.18H172.178L116.278 292.421Z" fill="white"/>
<path d="M13.878 396.416H352.612C354.549 401.766 356.974 406.854 359.849 411.587H11.0822C11.0447 411.612 7.54467 411.633 5.33216 409.466C4.06133 408.225 3.41966 406.429 3.41966 404.137C3.41966 396.416 6.69467 396.416 13.878 396.416ZM417.02 1.216C413.291 -0.463164 409.224 2.92434 409.016 3.10351C408.92 3.19101 402.891 8.63268 395.987 15.116L392.487 8.69101C390.978 5.92017 388.995 4.33684 386.595 3.99101C382.382 3.42017 378.641 7.05768 378.545 7.15768C378.545 7.15768 367.782 16.9368 358.153 25.7619C357.478 24.4369 356.024 21.5869 353.137 15.9868C351.595 12.991 349.524 11.2118 346.978 10.6993C342.762 9.85351 339.02 12.9535 338.787 13.1535C338.687 13.2452 331.532 20.0244 323.237 27.7119C320.295 22.5369 316.737 19.5494 312.624 18.8869C306.395 17.8618 301.445 22.6119 301.195 22.8577C301.195 22.8577 289.17 35.466 280.278 44.766C276.607 39.4577 272.612 36.4035 268.374 35.7327C263.457 34.9494 260.166 37.6952 259.982 37.8535C259.837 37.9869 247.245 49.4494 237.053 60.6202C233.645 56.6744 229.862 54.4202 225.778 54.0327C219.87 53.4577 215.616 56.9619 215.232 57.316C215.099 57.4744 203.145 71.7452 194.336 84.1661C191.086 81.3369 187.728 79.9911 184.386 80.3161C178.966 80.8286 175.653 85.3411 175.491 85.5702C175.382 85.7327 165.92 99.6244 157.082 114.324C153.657 111.895 150.328 110.908 147.153 111.52C142.203 112.499 139.657 116.933 139.578 117.079C139.503 117.204 132.716 128.529 125.441 144.42C116.703 139.833 110.157 145.395 107.816 149.187L91.4822 182.224C91.1572 182.849 90.8739 183.462 90.5989 184.07C88.9572 183.487 87.4031 183.487 85.9572 184.083C82.4697 185.516 81.2322 189.816 81.1989 190.041C81.1072 190.237 72.3072 209.545 66.303 224.295C65.8364 225.445 65.5155 226.533 65.2155 227.608C60.1822 226.77 56.8905 231.833 55.8155 234.85C55.8155 234.85 47.5489 258.579 43.1405 271.82C42.6697 273.233 42.4239 274.566 42.278 275.862C36.2155 278.354 34.1447 286.25 31.3072 297.162C30.4239 300.558 29.453 304.283 28.2613 308.262C27.9738 309.225 27.8322 310.083 27.6363 310.979C26.3405 311.204 24.3447 312.075 21.9822 314.833C18.7197 318.641 17.1197 330.329 15.6363 342.995L15.5405 343.841C15.1363 347.262 15.7863 349.925 17.403 351.812C16.8613 352.041 16.3113 352.316 15.7738 352.687C13.0613 354.562 11.4072 357.825 10.8655 362.383C10.2947 367.154 10.8988 370.687 12.5238 373.05C10.8572 373.429 8.64467 374.237 6.79467 376.075C4.553 378.308 3.4155 381.425 3.4155 385.337C3.4155 389.2 4.18633 392.05 5.6405 393.937C2.36966 395.066 0.111328 397.741 0.111328 404.137C0.111328 407.366 1.09883 409.966 3.04466 411.854C6.03217 414.754 10.253 414.895 11.0113 414.895C11.0738 414.895 11.1113 414.891 11.1238 414.891H365.924L364.232 412.325C360.578 406.795 357.591 400.704 355.345 394.225L354.957 393.112H13.878C12.8697 393.112 11.8738 393.116 10.8988 393.15L10.8822 393.083C10.8738 393.083 9.803 393.325 8.82383 392.575C7.46967 391.533 6.72383 388.966 6.72383 385.337C6.72383 376.308 14.1322 376.016 14.9905 376.012L17.378 375.991C17.3905 375.991 17.4238 375.995 17.4363 375.995C17.478 375.995 17.5072 375.995 17.5238 375.991H20.3322V375.962L349.416 373.095C349.345 372 349.278 370.9 349.249 369.791L17.4697 372.683C17.3905 372.683 16.3863 372.654 15.4988 371.654C14.5322 370.558 13.5113 368.133 14.1488 362.775C14.5738 359.216 15.7405 356.745 17.6238 355.429C19.2405 354.3 21.028 354.279 22.1072 354.379C23.0655 354.533 23.7447 354.504 23.7363 354.504L87.3031 356.6L88.9906 353.354L26.2572 351.291L26.2613 351.245L24.7155 351.241L23.6863 351.204C23.678 351.204 23.5322 351.212 23.3197 351.2C23.1447 351.162 22.8072 351.108 22.3405 351.066C21.603 350.904 20.703 350.562 20.0072 349.82C18.9197 348.67 18.5238 346.787 18.8238 344.225L18.9238 343.379C19.9322 334.762 21.6155 320.341 24.4947 316.983C25.553 315.745 26.4197 315.083 27.0697 314.704C26.7988 318.27 27.3572 321.22 28.9489 323.358C31.5739 326.887 35.703 326.95 35.7405 326.925L349.716 358.141C349.841 357.037 350.045 355.962 350.216 354.87L35.9155 323.629C35.803 323.625 33.1947 323.562 31.5739 321.345C29.8197 318.95 29.7655 314.754 31.428 309.212C32.6322 305.187 33.6114 301.425 34.5072 297.991C36.8655 288.925 38.653 282.158 42.3614 279.587C42.5822 280.983 42.9572 282.32 43.6447 283.529C46.5114 288.566 52.3697 289.895 52.6447 289.95L351.074 349.904C351.307 348.82 351.62 347.77 351.895 346.7L53.328 286.716C53.278 286.708 48.6239 285.62 46.5072 281.875C45.1572 279.491 45.0822 276.458 46.278 272.862C50.6822 259.641 58.9364 235.941 58.9364 235.945C58.9572 235.883 61.0114 230.433 64.578 230.858C64.2239 233.779 64.5155 236.395 65.628 238.595C67.8614 242.987 72.2072 244.12 72.2572 244.125L353.845 340.25C354.212 339.204 354.578 338.162 354.987 337.141L73.1947 240.958C73.1656 240.95 70.1072 240.112 68.578 237.095C67.1364 234.258 67.403 230.37 69.3655 225.541C75.3406 210.854 84.1156 191.608 84.2989 191.158C84.5406 190.27 85.5364 187.82 87.2239 187.133C87.8406 186.883 88.5656 186.97 89.3447 187.212C87.8697 191.616 87.7614 195.529 89.0531 198.883C91.0989 204.175 95.8614 205.987 95.9239 206L357.737 330.987C358.224 329.995 358.649 328.975 359.174 328.008L97.2114 202.958C97.1739 202.945 93.6531 201.604 92.1406 197.691C90.7322 194.045 91.4989 189.358 94.4322 183.72L110.699 150.795C110.903 150.47 115.786 142.941 124.082 147.437C123.732 148.22 123.382 149.004 123.032 149.808C114.761 168.866 125.07 173.829 125.324 173.933L362.82 322.012C363.428 321.087 364.082 320.204 364.728 319.304L126.903 171.033C126.586 170.874 119.161 167.029 126.066 151.129C134.082 132.666 142.328 118.924 142.436 118.741C142.453 118.712 144.374 115.441 147.795 114.766C150.086 114.324 152.653 115.154 155.395 117.158C154.532 118.616 153.674 120.079 152.849 121.524C143.441 137.949 154.328 144.599 154.357 144.599L368.562 314.291C369.274 313.441 370.049 312.654 370.795 311.837L156.22 141.879C155.878 141.674 147.953 136.72 155.716 123.166C165.391 106.274 178.095 87.6202 178.195 87.4744C178.22 87.4369 180.807 83.9619 184.724 83.6077C187.228 83.3869 189.828 84.5036 192.449 86.8744C192.116 87.3661 191.77 87.8619 191.449 88.3411C182.753 101.329 192.703 110.241 192.716 110.241L376.357 306.275C377.17 305.533 377.957 304.758 378.803 304.05L195.011 107.87C194.691 107.583 187.141 100.72 194.195 90.1786C202.878 77.2077 217.595 59.6494 217.557 59.6494C217.591 59.6202 220.882 56.9035 225.466 57.3244C228.778 57.641 231.928 59.591 234.845 63.0786C233.766 64.3036 232.712 65.5202 231.741 66.6994C221.807 78.7411 231.67 90.2327 231.674 90.2327L383.907 300.145C384.803 299.504 385.691 298.854 386.616 298.245L234.262 88.1702C233.928 87.7869 226.17 78.6494 234.291 68.8036C244.557 56.3619 262.032 40.4619 262.153 40.3494C262.249 40.2702 264.545 38.4535 267.916 39.0119C271.299 39.5744 274.745 42.416 277.941 47.2119C275.72 49.5327 273.82 51.516 272.566 52.8202C265.478 60.1869 272.057 71.4327 272.303 71.8452L392.312 294.787C393.274 294.258 394.291 293.816 395.282 293.325L275.182 70.2161C275.124 70.1202 269.616 60.6536 274.953 55.1077C281.241 48.5702 303.541 25.191 303.541 25.1869C303.582 25.1452 307.52 21.3952 312.12 22.1535C315.341 22.6869 318.237 25.3577 320.732 30.0244C318.287 32.2869 315.791 34.5702 313.391 36.7494C303.299 45.9035 309.641 59.5077 309.657 59.5327L400.262 290.975C401.274 290.554 402.332 290.22 403.37 289.837L312.691 58.2202C312.47 57.7535 307.362 46.6827 315.616 39.1994C327.166 28.7202 340.924 15.6827 340.982 15.6202C341.007 15.5993 343.72 13.4035 346.341 13.9452C347.845 14.2535 349.141 15.4493 350.199 17.5035C353.982 24.8452 355.32 27.4869 355.62 28.0827C353.116 30.3869 350.762 32.5535 348.803 34.3702C338.203 44.1994 342.812 55.516 342.828 55.516L408.116 288.175C409.166 287.858 410.253 287.629 411.316 287.35L345.941 54.4244C345.782 54.0452 342.162 45.0369 351.053 36.7952C360.957 27.6077 380.766 9.60768 380.82 9.55351C381.574 8.80768 383.949 6.93268 386.137 7.26601C387.441 7.45768 388.603 8.47018 389.582 10.2743L393.499 17.466C390.357 20.441 387.162 23.5202 384.362 26.3244C373.899 36.7994 375.77 44.5077 375.828 44.6827L416.428 286.145C417.503 285.941 418.607 285.812 419.699 285.645L379.062 44.0077C379.049 43.9494 377.712 37.6577 386.703 28.6619C396.466 18.8869 411.082 5.69101 411.187 5.59934C411.87 5.02434 414.145 3.54517 415.67 4.23267C417.287 4.96601 418.274 8.23268 418.387 13.191C418.674 26.5035 423.178 209.483 425.037 284.975C426.128 284.883 427.241 284.858 428.341 284.808C426.482 209.266 421.982 26.4244 421.691 13.116C421.545 6.45768 420.016 2.56601 417.02 1.216Z" fill="white"/>
<path d="M349.259 365.22C349.289 364.112 349.348 363.013 349.424 361.92L102.181 353.786L103.961 357.143L349.259 365.22Z" fill="white"/>
<path d="M760.457 357.173L762.268 353.818L514.814 361.96C514.886 363.054 514.947 364.152 514.979 365.259L760.457 357.173Z" fill="white"/>
<path d="M511.056 393.114C510.696 394.235 510.258 395.318 509.849 396.416L597.014 396.418L597.011 393.116L511.056 393.114Z" fill="white"/>
<path d="M859.859 393.939C861.313 392.051 862.084 389.201 862.084 385.335C862.084 381.426 860.95 378.31 858.7 376.076C856.867 374.247 854.642 373.43 852.975 373.051C854.6 370.685 855.204 367.151 854.634 362.385C854.092 357.826 852.442 354.564 849.721 352.685C849.184 352.314 848.638 352.043 848.096 351.814C849.717 349.926 850.363 347.264 849.963 343.839L849.863 343.01C848.384 330.335 846.779 318.647 843.517 314.83C841.154 312.068 839.159 311.201 837.863 310.976C837.667 310.08 837.525 309.226 837.238 308.259C836.046 304.276 835.079 300.555 834.192 297.151C831.354 286.247 829.283 278.355 823.225 275.864C823.079 274.568 822.833 273.234 822.363 271.818C817.95 258.576 809.683 234.847 809.679 234.839C808.608 231.834 805.3 226.768 800.283 227.605C799.983 226.53 799.663 225.447 799.192 224.293C793.208 209.568 784.421 190.301 784.396 190.301C784.267 189.818 783.029 185.518 779.542 184.08C778.108 183.484 776.546 183.484 774.9 184.068C774.625 183.468 774.35 182.868 774.029 182.255L757.604 149.047C755.338 145.393 748.788 139.83 740.058 144.422C732.788 128.526 725.996 117.209 725.946 117.122C725.842 116.934 723.296 112.497 718.346 111.522C715.175 110.901 711.842 111.893 708.421 114.326C699.575 99.6218 690.117 85.726 689.988 85.5343C689.85 85.3426 686.533 80.826 681.113 80.3176C677.754 79.9926 674.413 81.3343 671.163 84.1676C662.35 71.7426 650.379 57.4551 650.058 57.1093C649.879 56.9593 645.629 53.4676 639.721 54.0301C635.638 54.4218 631.858 56.6718 628.446 60.6176C618.254 49.4509 605.658 37.9801 605.471 37.8134C605.337 37.6968 601.962 34.9634 597.129 35.7343C592.887 36.4051 588.887 39.4551 585.221 44.7676C576.329 35.4634 564.292 22.8467 564.258 22.8134C564.054 22.6134 559.092 17.8676 552.875 18.8884C548.767 19.5509 545.204 22.5384 542.262 27.7134C533.958 20.0217 526.792 13.2259 526.637 13.0884C526.479 12.9509 522.708 9.84674 518.521 10.7009C515.979 11.2092 513.904 12.9926 512.362 15.9884C509.479 21.5842 508.021 24.4384 507.346 25.7634C497.737 16.9551 487.017 7.20923 487.012 7.2134C486.858 7.05507 483.079 3.37173 478.904 3.99256C476.504 4.3384 474.521 5.91757 473.012 8.6884L469.512 15.1176C462.604 8.63007 456.567 3.1759 456.446 3.07173C456.275 2.9259 452.204 -0.465772 448.479 1.2134C445.483 2.5634 443.954 6.45923 443.812 13.1176C443.517 26.4259 439.017 209.368 437.158 284.872C438.254 284.939 439.375 284.93 440.458 285.039C442.317 209.584 446.821 26.5093 447.117 13.1884C447.229 8.23007 448.217 4.96757 449.833 4.23423C451.358 3.54256 453.633 5.0259 454.271 5.55923C454.417 5.69257 469.033 18.8842 478.8 28.6593C487.787 37.6593 486.454 43.9468 486.412 44.1343L445.771 285.834C446.858 286.014 447.967 286.13 449.037 286.355L489.642 44.8301C489.729 44.5051 491.604 36.8009 481.137 26.3259C478.337 23.5217 475.142 20.4426 472 17.4634L475.917 10.2717C476.9 8.47174 478.058 7.45923 479.362 7.26757C481.542 6.95507 483.929 8.80924 484.737 9.60507C484.737 9.60507 504.542 27.6093 514.45 36.7968C523.342 45.0384 519.721 54.0468 519.492 54.6218L454.096 287.655C455.158 287.947 456.237 288.193 457.279 288.526L522.604 55.7176C522.654 55.6051 527.342 44.2384 516.696 34.3718C514.737 32.5551 512.383 30.3843 509.879 28.0843C510.179 27.4843 511.517 24.8426 515.3 17.5009C516.358 15.4467 517.658 14.2509 519.158 13.9426C521.733 13.4092 524.429 15.5509 524.442 15.5509C524.604 15.7092 538.346 28.7301 549.887 39.1968C558.137 46.6843 553.033 57.7509 552.767 58.3259L461.975 290.243C463 290.643 464.042 291.009 465.05 291.443L555.796 59.6426C555.862 59.5093 562.196 45.9051 552.108 36.7468C549.708 34.5718 547.217 32.2843 544.767 30.0259C547.262 25.3551 550.154 22.6842 553.383 22.1551C557.937 21.3884 561.904 25.1384 561.912 25.1426C561.912 25.1426 584.25 48.5634 590.546 55.1093C595.883 60.6551 590.375 70.1218 590.283 70.276L469.958 293.809C470.942 294.314 471.917 294.822 472.875 295.368L593.158 71.9093C593.442 71.4301 600.021 60.1843 592.929 52.8176C591.679 51.5176 589.779 49.5343 587.558 47.2134C590.754 42.4176 594.2 39.5718 597.583 39.0093C600.987 38.4384 603.25 40.2676 603.296 40.3009C603.471 40.4593 620.942 56.3593 631.213 68.8051C639.333 78.6468 631.575 87.7885 631.146 88.2885L478.496 298.78C479.412 299.397 480.258 300.105 481.146 300.759L633.725 90.351C633.829 90.2385 643.696 78.7426 633.758 66.701C632.788 65.5218 631.733 64.3051 630.654 63.0801C633.558 59.6093 636.696 57.6551 639.992 57.3259C644.338 56.9051 647.692 59.4509 647.742 59.4509C648.121 59.9093 662.683 77.301 671.304 90.1801C678.363 100.718 670.813 107.58 670.367 107.98L486.112 304.668C486.95 305.389 487.754 306.143 488.562 306.893L672.658 110.359C672.758 110.272 682.763 101.351 674.054 88.3426C673.733 87.8593 673.388 87.3635 673.054 86.876C675.679 84.501 678.304 83.3801 680.775 83.6051C684.692 83.9593 687.279 87.4343 687.279 87.4343C687.408 87.6218 700.108 106.272 709.783 123.168C717.55 136.722 709.621 141.672 709.092 142.005L493.971 312.418C494.704 313.243 495.492 314.022 496.192 314.876L710.946 144.734C711.058 144.672 722.108 138.034 712.658 121.522C711.829 120.076 710.971 118.618 710.108 117.155C712.833 115.159 715.363 114.313 717.679 114.759C721.129 115.426 723.05 118.718 723.092 118.788C723.171 118.922 731.421 132.664 739.429 151.126C746.338 167.03 738.913 170.876 738.425 171.122L499.908 319.843C500.542 320.743 501.162 321.655 501.762 322.584L739.988 174.03C740.429 173.83 750.738 168.868 742.467 149.809C742.117 149.005 741.767 148.222 741.417 147.434C749.7 142.934 754.592 150.468 754.717 150.651L771.083 183.751C773.988 189.33 774.763 194.001 773.379 197.643C771.896 201.543 768.425 202.905 768.15 203.018L505.3 328.497C505.817 329.468 506.254 330.485 506.733 331.476L769.438 206.059C769.633 205.984 774.404 204.172 776.446 198.88C777.742 195.526 777.629 191.609 776.158 187.214C776.938 186.972 777.663 186.884 778.275 187.134C779.963 187.822 780.958 190.272 781.292 191.414C781.383 191.605 790.158 210.851 796.133 225.539C798.088 230.347 798.358 234.218 796.942 237.051C795.421 240.105 792.421 240.926 792.175 240.997L509.387 337.522C509.787 338.551 510.167 339.585 510.525 340.63L793.108 244.164C793.292 244.118 797.638 242.984 799.867 238.593C800.983 236.397 801.275 233.78 800.917 230.859C804.504 230.418 806.542 235.889 806.558 235.934C806.558 235.934 814.817 259.634 819.221 272.859C820.417 276.459 820.342 279.489 818.996 281.872C816.875 285.622 812.221 286.705 812.204 286.709L512.4 346.943C512.675 348.01 512.992 349.064 513.221 350.147L812.883 289.947C813.129 289.893 818.988 288.568 821.858 283.53C822.546 282.322 822.921 280.984 823.142 279.584C826.846 282.159 828.633 288.922 830.992 297.984C831.883 301.422 832.863 305.184 834.071 309.214C835.733 314.751 835.679 318.951 833.925 321.347C832.304 323.56 829.696 323.626 829.433 323.639L514.037 354.993C514.204 356.085 514.412 357.16 514.537 358.264L829.596 326.934C829.771 326.934 833.917 326.893 836.554 323.351C838.142 321.218 838.7 318.276 838.429 314.709C839.088 315.084 839.95 315.751 841 316.98C843.884 320.347 845.571 334.776 846.579 343.397L846.675 344.222C846.979 346.785 846.579 348.672 845.5 349.822C844.796 350.56 843.884 350.905 843.125 351.064C842.938 351.085 842.796 351.105 842.679 351.126C842.508 351.147 842.313 351.18 842.175 351.189L839.242 351.247V351.28L778.938 353.264L780.408 356.518L841.592 354.501C841.658 354.51 842.459 354.543 843.534 354.351C844.5 354.272 846.288 354.318 847.875 355.43C849.759 356.747 850.925 359.218 851.354 362.772C851.988 368.135 850.967 370.56 850.004 371.651C849.125 372.635 848.15 372.68 848.004 372.685L514.983 369.78C514.954 370.889 514.892 371.989 514.817 373.085L845.163 375.964V375.989H848.034L850.525 376.01C851.371 376.014 858.779 376.305 858.779 385.335C858.779 388.926 858.046 391.485 856.717 392.543C855.721 393.326 854.634 393.08 854.617 393.085L854.6 393.147C853.625 393.118 852.629 393.114 851.621 393.114H654.458V396.418H851.621C858.804 396.418 862.084 396.418 862.084 404.135C862.084 406.43 861.438 408.226 860.171 409.464C857.946 411.643 854.442 411.568 854.375 411.585H502.383C501.687 412.697 501 413.814 500.25 414.889H854.329C854.346 414.889 854.388 414.893 854.459 414.893C855.263 414.893 859.475 414.747 862.459 411.855C864.404 409.964 865.388 407.364 865.388 404.135C865.388 397.739 863.129 395.068 859.859 393.939Z" fill="white"/>
</g>
<defs>
<clipPath id="clip0_502_48">
<rect width="866" height="484" fill="white"/>
</clipPath>
</defs>
</svg>
