<svg width="1273" height="318" viewBox="0 0 1273 318" fill="none" xmlns="http://www.w3.org/2000/svg">
<g clip-path="url(#clip0_950_1574)">
<path d="M60.5802 265.86C60.6536 265.793 60.7436 265.747 60.8502 265.72C60.8715 265.72 60.8918 265.712 60.9068 265.697C60.9218 265.682 60.9302 265.661 60.9302 265.64C60.9302 265.619 60.9218 265.598 60.9068 265.583C60.8918 265.568 60.8715 265.56 60.8502 265.56C58.4636 264.94 56.8469 264.61 56.0002 264.57C48.4602 264.197 40.7402 264.007 32.8402 264C32.78 264 32.7206 263.986 32.6664 263.96C32.6121 263.934 32.5645 263.896 32.527 263.849C32.4895 263.802 32.4631 263.747 32.4499 263.688C32.4366 263.63 32.4367 263.569 32.4502 263.51L49.9102 187.09C49.9312 186.999 49.9316 186.905 49.9113 186.815C49.891 186.724 49.8505 186.639 49.7929 186.566C49.7353 186.493 49.662 186.434 49.5784 186.393C49.4949 186.352 49.4032 186.331 49.3102 186.33H1.34023C1.26144 186.33 1.18342 186.315 1.11062 186.285C1.03783 186.255 0.971685 186.212 0.91597 186.157C0.860255 186.102 0.816061 186.037 0.785908 185.966C0.755755 185.894 0.740234 185.817 0.740234 185.74V160.31C0.740234 160.215 0.778163 160.123 0.845676 160.055C0.91319 159.988 1.00476 159.95 1.10023 159.95H55.6902C55.8093 159.95 55.925 159.91 56.0178 159.835C56.1106 159.761 56.175 159.656 56.2002 159.54L92.3602 1.32C92.3965 1.1586 92.4865 1.0143 92.6155 0.910746C92.7445 0.807187 92.9048 0.75051 93.0702 0.75H126.47C126.663 0.750196 126.85 0.816603 127.001 0.938335C127.152 1.06007 127.257 1.2299 127.3 1.42L185.6 263.47C185.621 263.559 185.622 263.652 185.601 263.741C185.581 263.83 185.54 263.914 185.483 263.986C185.425 264.058 185.352 264.117 185.268 264.157C185.185 264.198 185.093 264.219 185 264.22H154.86C154.714 264.219 154.573 264.17 154.459 264.079C154.344 263.988 154.264 263.862 154.23 263.72L137.2 187.13C137.169 186.999 137.094 186.883 136.987 186.799C136.88 186.716 136.747 186.67 136.61 186.67H80.9102C80.8055 186.669 80.7038 186.704 80.6219 186.767C80.5401 186.831 80.4831 186.92 80.4602 187.02C71.6602 226.72 66.4669 250.71 64.8802 258.99C64.8136 259.37 65.1002 260.38 65.7402 262.02C65.7634 262.079 65.7701 262.143 65.7597 262.206C65.7493 262.268 65.7221 262.327 65.681 262.375C65.6399 262.423 65.5866 262.459 65.5266 262.48C65.4665 262.5 65.4021 262.503 65.3402 262.49C65.3269 262.49 65.2369 262.327 65.0702 262C64.9369 261.74 64.8702 261.787 64.8702 262.14C64.8636 262.32 64.8636 262.417 64.8702 262.43C64.8729 262.46 64.8812 262.49 64.8947 262.516C64.9082 262.543 64.9266 262.567 64.9489 262.587C64.9712 262.606 64.9969 262.621 65.0246 262.63C65.0523 262.639 65.0814 262.643 65.1102 262.64C65.7169 262.573 66.0236 263.043 66.0302 264.05C66.0333 264.56 65.8804 265.05 65.6021 265.421C65.3238 265.792 64.9409 266.017 64.5302 266.05C63.3702 266.143 62.1036 266.2 60.7302 266.22C60.6883 266.221 60.6471 266.209 60.612 266.186C60.5769 266.163 60.5495 266.13 60.5333 266.091C60.5172 266.052 60.513 266.009 60.5214 265.968C60.5298 265.927 60.5502 265.889 60.5802 265.86ZM108.79 159.47C118.217 159.483 125.87 159.493 131.75 159.5C131.816 159.501 131.882 159.488 131.942 159.46C132.003 159.433 132.056 159.392 132.098 159.341C132.14 159.29 132.171 159.23 132.187 159.166C132.203 159.102 132.204 159.035 132.19 158.97C121.41 105.74 115.44 78.64 109.17 38.52C109.15 38.4 109.094 38.34 109 38.34C108.907 38.34 108.85 38.4 108.83 38.52C102.42 78.62 96.3602 105.7 85.3902 158.89C85.3769 158.954 85.3779 159.02 85.3933 159.084C85.4087 159.147 85.4381 159.206 85.4792 159.257C85.5204 159.308 85.5724 159.349 85.6314 159.377C85.6904 159.405 85.7549 159.42 85.8202 159.42C91.7069 159.44 99.3636 159.457 108.79 159.47Z" fill="white"/>
<path d="M546.01 81.9297C609.572 81.9297 661.099 133.457 661.1 197.02C661.1 260.582 609.572 312.11 546.01 312.11C482.447 312.11 430.92 260.582 430.92 197.02C430.92 133.457 482.448 81.9298 546.01 81.9297ZM546 100C492.428 100 449 143.428 449 197C449 250.572 492.428 294 546 294C599.572 294 643 250.572 643 197C643 143.428 599.572 100 546 100Z" fill="white"/>
<path d="M330.85 112.27C330.893 112.252 330.94 112.244 330.986 112.249C331.032 112.253 331.077 112.269 331.116 112.295C331.154 112.32 331.186 112.355 331.208 112.397C331.229 112.438 331.241 112.484 331.24 112.53V140.31C331.24 140.48 331.308 140.643 331.428 140.763C331.548 140.883 331.711 140.95 331.88 140.95H354.07C354.19 140.95 354.304 140.999 354.388 141.085C354.473 141.171 354.52 141.288 354.52 141.41V157.09C354.52 157.207 354.474 157.319 354.391 157.401C354.309 157.484 354.197 157.53 354.08 157.53H331.65C331.552 157.53 331.458 157.568 331.389 157.636C331.319 157.703 331.28 157.795 331.28 157.89C331.24 194.983 331.25 219.597 331.31 231.73C331.33 234.87 332.044 238.133 333.45 241.52C335.017 245.3 338.054 247.24 342.56 247.34C345.554 247.407 348.267 247.133 350.7 246.52C350.783 246.498 350.869 246.495 350.953 246.51C351.038 246.526 351.117 246.56 351.187 246.611C351.257 246.662 351.315 246.727 351.357 246.803C351.399 246.879 351.424 246.963 351.43 247.05L352.5 262.51C352.509 262.668 352.468 262.825 352.384 262.959C352.3 263.094 352.176 263.199 352.03 263.26C349.857 264.153 347.277 264.763 344.29 265.09C328.87 266.8 315.67 263.07 311.7 246.27C310.634 241.737 310.08 237.227 310.04 232.74C309.92 218.807 309.907 193.947 310 158.16C310 157.988 309.932 157.822 309.81 157.7C309.688 157.579 309.523 157.51 309.35 157.51H295.85C295.77 157.51 295.691 157.494 295.617 157.464C295.543 157.433 295.476 157.388 295.419 157.331C295.362 157.275 295.317 157.208 295.287 157.134C295.256 157.06 295.24 156.98 295.24 156.9V141.55C295.24 141.396 295.301 141.249 295.41 141.14C295.519 141.031 295.666 140.97 295.82 140.97H309.4C309.551 140.97 309.696 140.91 309.803 140.803C309.91 140.696 309.97 140.551 309.97 140.4V121.36C309.97 121.15 310.032 120.945 310.148 120.772C310.264 120.599 310.429 120.466 310.62 120.39L330.85 112.27Z" fill="white"/>
<path d="M936.1 112.28C936.143 112.262 936.189 112.254 936.236 112.259C936.282 112.263 936.326 112.279 936.365 112.305C936.404 112.33 936.435 112.365 936.457 112.407C936.479 112.448 936.49 112.494 936.49 112.54L936.5 140.32C936.5 140.49 936.567 140.653 936.687 140.773C936.807 140.893 936.97 140.96 937.14 140.96L959.32 140.95C959.439 140.95 959.554 140.999 959.638 141.085C959.722 141.171 959.77 141.288 959.77 141.41L959.78 157.08C959.78 157.197 959.733 157.309 959.651 157.391C959.568 157.474 959.456 157.52 959.34 157.52L936.91 157.53C936.812 157.53 936.718 157.568 936.648 157.636C936.579 157.703 936.54 157.795 936.54 157.89C936.52 194.977 936.54 219.587 936.6 231.72C936.626 234.853 937.343 238.113 938.75 241.5C940.316 245.28 943.353 247.22 947.86 247.32C950.853 247.387 953.563 247.11 955.99 246.49C956.072 246.468 956.159 246.465 956.243 246.48C956.327 246.496 956.407 246.53 956.477 246.581C956.546 246.632 956.604 246.697 956.646 246.773C956.688 246.849 956.713 246.933 956.72 247.02L957.8 262.48C957.808 262.638 957.767 262.795 957.683 262.929C957.599 263.064 957.476 263.169 957.33 263.23C955.156 264.123 952.576 264.733 949.59 265.06C934.18 266.78 920.98 263.05 917 246.26C915.933 241.727 915.38 237.217 915.34 232.73C915.213 218.803 915.19 193.95 915.27 158.17C915.27 157.998 915.201 157.832 915.079 157.71C914.957 157.589 914.792 157.52 914.62 157.52L901.12 157.53C900.958 157.53 900.803 157.466 900.688 157.351C900.574 157.237 900.51 157.082 900.51 156.92V141.57C900.51 141.416 900.571 141.269 900.68 141.16C900.788 141.051 900.936 140.99 901.09 140.99L914.66 140.98C914.735 140.98 914.809 140.965 914.878 140.937C914.947 140.908 915.01 140.866 915.063 140.813C915.116 140.76 915.158 140.697 915.186 140.628C915.215 140.559 915.23 140.485 915.23 140.41L915.22 121.38C915.22 121.17 915.282 120.965 915.398 120.792C915.514 120.619 915.678 120.486 915.87 120.41L936.1 112.28Z" fill="white"/>
<path d="M388.849 156.17C395.029 144.99 405.109 137.44 418.039 139.47C418.169 139.489 418.288 139.555 418.375 139.656C418.461 139.757 418.509 139.886 418.509 140.02V160.4C418.509 160.567 418.443 160.727 418.325 160.845C418.207 160.964 418.046 161.03 417.879 161.03H411.079C410.86 161.03 410.642 161.057 410.429 161.11C396.629 164.21 390.639 178.94 390.589 191.75C390.476 223.283 390.493 246.653 390.639 261.86C390.644 262.239 390.783 262.604 391.031 262.888C391.278 263.172 391.618 263.357 391.989 263.41C392.789 263.523 393.279 263.947 393.459 264.68C393.5 264.843 393.49 265.011 393.432 265.169C393.374 265.328 393.269 265.471 393.127 265.587C392.985 265.702 392.81 265.786 392.618 265.83C392.426 265.874 392.224 265.878 392.029 265.84C384.883 264.407 377.536 263.82 369.989 264.08C369.894 264.083 369.8 264.066 369.711 264.032C369.623 263.997 369.542 263.945 369.474 263.879C369.406 263.813 369.352 263.734 369.315 263.646C369.278 263.559 369.259 263.465 369.259 263.37C369.213 235.743 369.206 208.31 369.239 181.07C369.259 167.49 368.679 155.18 368.139 141.81C368.135 141.702 368.153 141.595 368.192 141.495C368.231 141.394 368.29 141.302 368.366 141.225C368.441 141.147 368.532 141.086 368.632 141.044C368.732 141.002 368.84 140.98 368.949 140.98H386.859C386.984 140.98 387.104 141.027 387.196 141.113C387.287 141.198 387.342 141.315 387.349 141.44L388.359 156.06C388.362 156.117 388.383 156.172 388.419 156.216C388.456 156.26 388.506 156.29 388.562 156.303C388.618 156.315 388.676 156.309 388.728 156.285C388.78 156.261 388.823 156.221 388.849 156.17Z" fill="white"/>
<path d="M725.86 161.72C725.835 161.794 725.795 161.862 725.742 161.92C725.689 161.978 725.624 162.024 725.552 162.056C725.48 162.088 725.401 162.105 725.322 162.106C725.242 162.106 725.164 162.091 725.09 162.06C725.05 162.033 723.317 161.07 719.89 159.17C714.13 155.97 704.89 154.98 699.46 159.43C692.91 164.82 692.58 175.41 698.04 181.75C703.14 187.67 712.36 192.69 717.23 196.7C731.99 208.83 738.26 223.68 731.88 243.06C724.7 264.85 698.92 269.25 679.94 262.37C676.893 261.27 674.307 259.83 672.18 258.05C672.042 257.932 671.942 257.774 671.894 257.598C671.846 257.421 671.851 257.234 671.91 257.06L677.11 241.96C677.133 241.895 677.17 241.835 677.219 241.786C677.267 241.737 677.326 241.699 677.391 241.675C677.456 241.651 677.526 241.642 677.595 241.648C677.663 241.654 677.73 241.675 677.79 241.71C686.44 246.93 699.5 251.54 708.08 244.81C712.367 241.45 714.327 236.497 713.96 229.95C713.28 217.93 703.73 211.64 694.19 205.58C691.283 203.733 688 200.937 684.34 197.19C677.913 190.617 674.553 183.167 674.26 174.84C673.14 143.46 706.23 130.18 730.88 145.71C730.996 145.784 731.084 145.894 731.13 146.023C731.175 146.152 731.175 146.292 731.13 146.42L725.86 161.72Z" fill="white"/>
<path d="M883.859 162.06C883.819 162.033 882.086 161.07 878.659 159.17C872.899 155.97 863.659 154.97 858.229 159.42C851.669 164.81 851.339 175.4 856.789 181.74C861.889 187.67 871.109 192.69 875.979 196.71C890.739 208.85 896.999 223.7 890.609 243.08C883.409 264.87 857.629 269.26 838.649 262.37C835.602 261.263 833.016 259.82 830.889 258.04C830.751 257.922 830.651 257.764 830.603 257.588C830.555 257.412 830.56 257.224 830.619 257.05L835.829 241.95C835.852 241.885 835.889 241.825 835.938 241.776C835.986 241.727 836.045 241.689 836.11 241.665C836.175 241.641 836.245 241.632 836.314 241.638C836.382 241.644 836.449 241.665 836.509 241.7C845.159 246.93 858.219 251.55 866.799 244.82C871.092 241.46 873.056 236.507 872.689 229.96C872.019 217.94 862.469 211.64 852.929 205.57C850.022 203.723 846.739 200.927 843.079 197.18C836.659 190.6 833.302 183.147 833.009 174.82C831.909 143.43 865.009 130.17 889.659 145.71C889.775 145.784 889.863 145.894 889.909 146.023C889.954 146.152 889.954 146.292 889.909 146.42L884.629 161.72C884.604 161.794 884.564 161.862 884.511 161.92C884.458 161.978 884.393 162.024 884.321 162.056C884.249 162.088 884.17 162.105 884.091 162.106C884.011 162.106 883.933 162.091 883.859 162.06Z" fill="white"/>
<path d="M988.301 205.93C988.228 207.343 988.454 210.87 988.981 216.51C989.991 227.38 993.581 239.48 1003.31 245.1C1007.07 247.267 1011.77 248.263 1017.42 248.09C1024.12 247.883 1030.35 246.297 1036.12 243.33C1036.17 243.305 1036.22 243.291 1036.28 243.29C1036.33 243.29 1036.39 243.302 1036.44 243.326C1036.49 243.35 1036.53 243.386 1036.57 243.43C1036.6 243.474 1036.63 243.525 1036.64 243.58L1040 258.69C1040.04 258.872 1040.02 259.062 1039.94 259.229C1039.86 259.396 1039.72 259.531 1039.55 259.61C1026.9 265.58 1009.66 267.63 996.801 262.82C976.611 255.26 968.791 233.38 967.561 212.98C966.571 196.46 967.951 180.3 974.061 165.59C979.151 153.36 988.981 142.18 1002.48 139.82C1040.15 133.24 1047.06 178.46 1044.18 204.7C1044.16 204.865 1044.09 205.018 1043.96 205.129C1043.84 205.24 1043.68 205.301 1043.51 205.3H988.961C988.791 205.3 988.628 205.365 988.505 205.483C988.382 205.6 988.309 205.76 988.301 205.93ZM989.211 188.98H1023.9C1023.98 188.98 1024.06 188.947 1024.12 188.889C1024.18 188.831 1024.21 188.752 1024.21 188.67C1024.39 178.88 1021.65 158.86 1009.42 156.42C994.331 153.41 989.141 178.04 988.651 188.39C988.647 188.466 988.658 188.542 988.685 188.614C988.711 188.685 988.752 188.75 988.804 188.806C988.856 188.861 988.92 188.905 988.99 188.935C989.059 188.965 989.135 188.98 989.211 188.98Z" fill="white"/>
<path d="M1082.97 265.25C1083.14 265.043 1083.33 264.943 1083.55 264.95C1083.57 264.917 1083.59 264.903 1083.62 264.91C1083.63 264.917 1083.64 264.927 1083.64 264.939C1083.64 264.952 1083.64 264.965 1083.64 264.978C1083.63 264.992 1083.62 265.004 1083.6 265.013C1083.59 265.022 1083.58 265.028 1083.56 265.03C1076.05 264.503 1069.46 264.137 1063.77 263.93C1063.69 263.927 1063.61 263.894 1063.56 263.836C1063.5 263.778 1063.47 263.7 1063.47 263.62C1063.48 203.527 1063.48 173.263 1063.49 172.83C1063.63 162.76 1062.84 152.07 1062.46 141.52C1062.46 141.45 1062.47 141.38 1062.49 141.315C1062.52 141.249 1062.56 141.19 1062.61 141.139C1062.66 141.089 1062.72 141.049 1062.78 141.021C1062.85 140.994 1062.92 140.98 1062.99 140.98H1080.69C1080.84 140.98 1080.98 141.035 1081.09 141.136C1081.2 141.236 1081.26 141.374 1081.27 141.52L1082.06 152.97C1082.06 153.047 1082.09 153.12 1082.14 153.179C1082.19 153.239 1082.25 153.282 1082.33 153.303C1082.4 153.324 1082.48 153.321 1082.55 153.295C1082.63 153.27 1082.69 153.223 1082.74 153.16C1089.31 143.933 1097.9 139.263 1108.51 139.15C1120.68 139.01 1130 144.83 1134.44 156.07C1134.46 156.122 1134.5 156.168 1134.54 156.201C1134.59 156.234 1134.65 156.254 1134.7 156.258C1134.76 156.262 1134.82 156.25 1134.87 156.224C1134.92 156.198 1134.96 156.159 1134.99 156.11C1141.74 144.657 1151.37 139.007 1163.87 139.16C1187.86 139.45 1193.52 163.03 1193.53 182.31C1193.54 207.123 1193.53 234.347 1193.52 263.98C1193.52 264.036 1193.5 264.089 1193.46 264.128C1193.42 264.168 1193.37 264.19 1193.31 264.19H1172.97C1172.9 264.19 1172.83 264.176 1172.76 264.149C1172.7 264.121 1172.64 264.081 1172.59 264.031C1172.54 263.981 1172.5 263.921 1172.48 263.856C1172.45 263.79 1172.44 263.72 1172.44 263.65C1172.55 240.25 1172.55 213.383 1172.45 183.05C1172.43 176.75 1171.2 165.53 1166.25 160.94C1162.54 157.493 1158.22 156.383 1153.29 157.61C1143.81 159.98 1139.17 172.03 1139.1 181.03C1139.02 191.87 1139.01 215.193 1139.06 251C1139.07 258.433 1139.24 262.887 1139.59 264.36C1139.61 264.456 1139.62 264.556 1139.6 264.653C1139.58 264.75 1139.54 264.841 1139.48 264.921C1139.42 265.001 1139.35 265.068 1139.26 265.116C1139.17 265.164 1139.08 265.193 1138.98 265.2L1136.67 265.36C1136.65 265.361 1136.64 265.36 1136.62 265.355C1136.61 265.35 1136.6 265.342 1136.59 265.331C1136.57 265.321 1136.56 265.308 1136.56 265.294C1136.55 265.28 1136.55 265.265 1136.55 265.25V264.89C1136.55 264.882 1136.55 264.874 1136.54 264.869C1136.54 264.863 1136.53 264.86 1136.52 264.86L1118.28 263.97C1118.18 263.967 1118.09 263.926 1118.02 263.855C1117.95 263.784 1117.91 263.689 1117.91 263.59C1117.99 234.203 1117.98 206.033 1117.89 179.08C1117.85 168.05 1113.32 154.9 1099.36 157.53C1093.23 158.68 1088.67 164.79 1086.72 170.54C1085.29 174.787 1084.56 179.277 1084.55 184.01C1084.48 212.97 1084.5 238.94 1084.59 261.92C1084.59 262.053 1084.62 262.184 1084.69 262.3C1084.75 262.416 1084.85 262.512 1084.96 262.58C1085.83 263.1 1086.41 263.977 1086.68 265.21C1086.69 265.272 1086.69 265.336 1086.68 265.397C1086.66 265.459 1086.64 265.517 1086.6 265.566C1086.56 265.616 1086.51 265.656 1086.45 265.685C1086.39 265.713 1086.33 265.728 1086.27 265.73L1083.16 265.79C1083.14 265.79 1083.12 265.786 1083.1 265.779C1083.09 265.772 1083.07 265.762 1083.06 265.75C1082.85 265.603 1082.82 265.437 1082.97 265.25Z" fill="white"/>
<path d="M1264.36 161.71C1264.34 161.784 1264.3 161.852 1264.24 161.91C1264.19 161.968 1264.12 162.014 1264.05 162.046C1263.98 162.078 1263.9 162.095 1263.82 162.096C1263.74 162.096 1263.66 162.081 1263.59 162.05C1263.55 162.023 1261.82 161.06 1258.39 159.16C1252.63 155.96 1243.39 154.97 1237.96 159.42C1231.41 164.81 1231.08 175.4 1236.53 181.74C1241.63 187.66 1250.85 192.68 1255.72 196.7C1270.49 208.83 1276.75 223.67 1270.37 243.05C1263.18 264.84 1237.4 269.24 1218.42 262.36C1215.37 261.253 1212.79 259.81 1210.66 258.03C1210.52 257.912 1210.42 257.754 1210.37 257.578C1210.33 257.402 1210.33 257.214 1210.39 257.04L1215.6 241.94C1215.62 241.875 1215.66 241.815 1215.71 241.766C1215.76 241.717 1215.82 241.679 1215.88 241.655C1215.95 241.631 1216.02 241.622 1216.08 241.628C1216.15 241.634 1216.22 241.655 1216.28 241.69C1224.93 246.92 1237.99 251.53 1246.56 244.8C1250.85 241.44 1252.82 236.487 1252.45 229.94C1251.77 217.92 1242.22 211.63 1232.68 205.56C1229.77 203.72 1226.49 200.927 1222.83 197.18C1216.41 190.6 1213.05 183.15 1212.75 174.83C1211.64 143.44 1244.73 130.17 1269.38 145.7C1269.5 145.774 1269.58 145.884 1269.63 146.013C1269.68 146.142 1269.68 146.282 1269.63 146.41L1264.36 161.71Z" fill="white"/>
<path d="M281.66 264.2H263.64C263.403 264.2 263.175 264.109 263.003 263.946C262.83 263.782 262.725 263.559 262.71 263.32L262.03 253.49C262.024 253.387 261.987 253.288 261.923 253.207C261.859 253.126 261.772 253.066 261.672 253.036C261.573 253.005 261.465 253.006 261.365 253.037C261.265 253.068 261.176 253.128 261.11 253.21C254.983 260.87 247.516 265.053 238.71 265.76C226.29 266.76 216.3 261.74 211.16 250.58C207.74 243.14 205.986 234.763 205.9 225.45C205.64 197.53 205.616 169.46 205.83 141.24C205.83 141.171 205.857 141.105 205.906 141.056C205.955 141.007 206.021 140.98 206.09 140.98H226.23C226.445 140.98 226.651 141.065 226.803 141.217C226.954 141.369 227.04 141.575 227.04 141.79C227.026 159.983 227.02 185.347 227.02 217.88C227.02 225.93 227.56 237.73 233.24 243.99C237.63 248.83 245.96 248.6 250.93 244.7C258.07 239.11 259.48 230.62 259.48 221.95C259.466 179.063 259.48 152.207 259.52 141.38C259.52 141.327 259.53 141.275 259.55 141.227C259.57 141.178 259.6 141.134 259.637 141.097C259.674 141.06 259.718 141.031 259.767 141.01C259.815 140.99 259.867 140.98 259.92 140.98H280.34C280.451 140.98 280.558 141.024 280.637 141.103C280.716 141.182 280.76 141.289 280.76 141.4C280.773 200.553 280.776 230.633 280.77 231.64C280.68 241.26 281.3 250.64 281.65 261.05C281.683 261.97 281.81 262.857 282.03 263.71C282.045 263.768 282.047 263.829 282.036 263.888C282.025 263.947 282 264.003 281.964 264.05C281.928 264.098 281.882 264.136 281.829 264.162C281.777 264.188 281.719 264.201 281.66 264.2Z" fill="white"/>
<path d="M764.05 141.6C768.95 162.82 773.74 183.37 778.42 203.25C780.71 212.98 782.69 223.68 784.29 231.31C784.299 231.347 784.32 231.38 784.35 231.403C784.38 231.426 784.417 231.439 784.455 231.439C784.493 231.439 784.53 231.426 784.56 231.403C784.59 231.38 784.611 231.347 784.62 231.31L803.27 141.57C803.304 141.404 803.396 141.254 803.529 141.147C803.661 141.04 803.828 140.981 804 140.98H824.18C824.23 140.98 824.279 140.991 824.325 141.013C824.37 141.035 824.409 141.067 824.44 141.107C824.471 141.146 824.492 141.192 824.503 141.242C824.513 141.291 824.512 141.341 824.5 141.39C820.693 156.01 813.43 184.61 802.71 227.19C797.53 247.78 791.66 267.38 782.16 285.91C775.58 298.74 765.1 310.97 751.94 317.07C751.853 317.11 751.76 317.133 751.664 317.136C751.569 317.14 751.474 317.124 751.385 317.091C751.295 317.057 751.214 317.006 751.144 316.941C751.075 316.876 751.019 316.797 750.98 316.71L743.46 299.85C743.385 299.685 743.373 299.498 743.426 299.325C743.48 299.152 743.595 299.004 743.75 298.91C757.423 290.637 766.9 278.223 772.18 261.67C772.987 259.137 773.16 257.017 772.7 255.31C756.9 197.423 746.53 159.527 741.59 141.62C741.568 141.546 741.564 141.467 741.579 141.391C741.593 141.315 741.626 141.243 741.673 141.181C741.721 141.119 741.782 141.069 741.853 141.034C741.923 140.999 742.001 140.98 742.08 140.98H763.27C763.451 140.98 763.627 141.041 763.768 141.154C763.91 141.266 764.009 141.424 764.05 141.6Z" fill="white"/>
<path d="M1082.97 265.25C1082.84 265.377 1082.7 265.427 1082.53 265.4C1082.49 265.392 1082.46 265.374 1082.44 265.348C1082.41 265.322 1082.39 265.289 1082.38 265.253C1082.38 265.217 1082.38 265.179 1082.39 265.145C1082.41 265.111 1082.43 265.081 1082.46 265.06C1082.63 264.96 1082.8 265.023 1082.97 265.25Z" fill="white"/>
<path d="M1135.35 265.6C1135.26 265.667 1135.03 265.673 1134.66 265.62C1134.62 265.616 1134.58 265.599 1134.55 265.573C1134.52 265.547 1134.5 265.512 1134.5 265.474C1134.49 265.435 1134.49 265.395 1134.5 265.358C1134.52 265.322 1134.55 265.291 1134.58 265.27C1134.75 265.15 1134.87 265.09 1134.92 265.09C1135 265.093 1135.09 265.113 1135.17 265.148C1135.25 265.183 1135.31 265.232 1135.36 265.287C1135.41 265.342 1135.43 265.402 1135.43 265.458C1135.43 265.514 1135.4 265.563 1135.35 265.6Z" fill="white"/>
<path d="M1139.2 265.63C1139.65 265.397 1140.03 265.31 1140.36 265.37C1140.41 265.38 1140.46 265.406 1140.49 265.445C1140.53 265.483 1140.55 265.532 1140.56 265.583C1140.57 265.635 1140.56 265.688 1140.53 265.734C1140.51 265.78 1140.47 265.817 1140.42 265.84C1139.88 266.087 1139.49 266.18 1139.26 266.12C1139.21 266.109 1139.16 266.082 1139.12 266.042C1139.08 266.002 1139.06 265.951 1139.05 265.897C1139.05 265.842 1139.06 265.787 1139.08 265.74C1139.11 265.692 1139.15 265.653 1139.2 265.63Z" fill="white"/>
</g>
<defs>
<clipPath id="clip0_950_1574">
<rect width="1273" height="318" fill="white"/>
</clipPath>
</defs>
</svg>
