<svg width="345" height="247" viewBox="0 0 345 247" fill="none" xmlns="http://www.w3.org/2000/svg">
<g clip-path="url(#clip0_503_672)">
<path d="M338.454 173.752C339.569 172.869 340.477 172.661 341.875 172.567C342.721 172.856 343.249 173.231 343.925 173.806C343.97 174.437 344.002 174.464 343.625 174.964C342.571 174.757 341.512 173.875 340.486 174.517C340.155 174.724 339.877 174.991 339.63 175.291C339.628 174.499 339.593 174.299 340.065 173.625L338.454 173.752Z" fill="white"/>
<path d="M343.955 68.999C344.083 69.1804 344.43 69.5571 344.484 69.7499C344.718 70.5942 344.516 72.2028 344.526 73.1153C344.564 76.4679 344.956 80.4295 344.461 83.7429C344.352 84.4759 344.108 84.8479 343.504 85.2749C343.59 84.7339 343.58 84.5569 343.938 84.1259C343.751 83.0679 343.966 81.7549 343.971 80.6621L343.996 72.2849C343.999 71.2388 344.176 70.0143 343.955 68.999Z" fill="white"/>
<path d="M183.985 169.143C184.821 169.436 185.081 169.633 185.565 170.375C185.457 170.678 185.35 170.963 185.179 171.237C184.488 172.346 185.207 174.195 185.327 175.512C185.515 177.58 185.723 180.314 185.246 182.318C184.667 182.39 184.661 182.326 184.195 182.022C183.725 180.187 183.413 174.289 184.179 172.538C184.393 172.05 183.853 171.102 183.776 170.53C183.716 170.089 183.876 169.568 183.985 169.143Z" fill="white"/>
<path d="M15.9044 169.369C16.5389 169.714 16.6074 169.72 16.8895 170.375L16.1888 172L16.2836 172.192L16.4361 172.516C16.5964 172.8 16.7958 173.07 16.8793 173.391C17.1219 174.326 17.0053 175.583 17.0109 176.569C17.0222 178.569 17.4126 180.881 16.3862 182.679C16.094 182.54 15.8458 182.32 15.5886 182.125C15.3277 179.964 14.6476 174.016 15.9413 172.272C16.2701 171.829 15.51 170.778 15.5438 170.25C15.5576 170.034 15.8145 169.589 15.9044 169.369Z" fill="white"/>
<path d="M27.5886 172.388C29.1218 172.964 29.9574 172.717 31.5001 172.757C32.1385 173.156 32.2407 173.187 32.5204 173.875L32.1251 174.286C31.0943 174.384 30.5018 174.557 29.6455 175.145C28.9242 176.25 28.971 177.15 29.017 178.437C29.0196 179.227 29.3686 181.228 29.0083 181.884C28.8299 182.208 28.586 182.191 28.2501 182.293L27.5737 181.746C27.3619 178.867 27.0718 175.212 27.5886 172.388Z" fill="white"/>
<path d="M169.586 172.346C170.102 172.446 170.484 172.612 170.952 172.853C171.71 173.243 173.291 172.515 174.297 172.8C174.785 172.939 174.758 172.939 175.01 173.375C174.56 174.287 172.627 174.685 171.639 175.375C171.058 176.321 171.054 176.997 171.111 178.088L171.134 178.263C171.282 179.488 171.482 181.156 170.716 182.125C170.021 182.173 170.029 182.199 169.502 181.75C169.257 179.007 168.853 174.984 169.586 172.346Z" fill="white"/>
<path d="M338.454 173.752L340.065 173.625C339.593 174.299 339.628 174.499 339.63 175.291C340.716 176.642 342.825 176.618 343.924 177.917C344.27 178.326 344.42 179.095 344.345 179.625C344.219 180.507 343.62 181.347 342.903 181.844C341.855 182.57 340.423 182.258 339.25 182.069C338.562 181.629 338.282 181.216 337.901 180.526L338.065 180.071C339.171 179.864 339.846 180.33 340.875 180.716C341.58 180.445 342.089 180.272 342.544 179.625L342.375 179.031C342.021 178.801 341.671 178.561 341.276 178.406C339.796 177.823 338.72 177.096 338.058 175.613C337.859 175.168 338.289 174.184 338.454 173.752Z" fill="white"/>
<path d="M196.793 170.367L197.5 170.533C197.879 171.054 198.015 171.681 198.199 172.291C198.863 172.678 199.515 172.896 200.243 173.125L200.439 173.625C199.928 174.118 199.454 174.11 198.781 174.166C198.381 174.199 198.287 174.372 197.993 174.625C197.945 176.07 197.547 179.38 198.375 180.485L200.125 180.594L200.569 181.408C199.939 181.973 199.255 182.267 198.403 182.278C195.076 182.32 196.897 176.939 196.068 175.143C195.9 174.779 194.961 173.993 194.652 173.673L196.793 170.367Z" fill="white"/>
<path d="M139.332 172.528C140.316 172.698 140.927 172.944 141.75 173.512C142.168 174.243 142.253 174.304 142.134 175.125C141.33 175.357 140.28 174.596 139.5 174.228C138.716 174.287 138.46 174.324 137.885 174.89C137.033 175.729 137.028 176.548 137.022 177.658C137.015 178.943 137.293 179.438 138.179 180.336C139.01 180.642 139.227 180.736 140.125 180.537C140.618 180.05 141.221 179.743 141.817 179.401L142.36 179.927C142.36 180.136 142.362 180.303 142.282 180.5C141.98 181.238 141.301 181.698 140.622 182.049L140.474 182.125C140.285 182.224 140.188 182.288 139.984 182.35C139.216 182.584 137.562 182.199 136.904 181.758C136.003 181.154 135.537 179.939 135.347 178.919C135.044 177.289 135.077 175.689 136.056 174.306C136.929 173.073 137.893 172.785 139.332 172.528Z" fill="white"/>
<path d="M285.196 170.621C287.144 170.56 286.206 171.306 287.125 172.28C287.413 172.586 288.701 173.05 289.125 173.28L289.228 173.75L288.801 174.092C288.198 174.118 287.7 174.181 287.127 174.375C286.506 175.443 286.62 178.069 286.728 179.375C286.788 180.101 287.094 180.316 287.625 180.727L288.75 180.548L289.06 180.875L288.886 181.625L288.719 182.125C287.943 182.302 287.346 182.31 286.569 182.13C283.518 181.423 285.401 176.756 284.42 174.791C284.22 174.392 283.62 173.95 283.344 173.5C283.83 172.52 284.619 171.875 285.091 170.851L285.196 170.621Z" fill="white"/>
<path d="M271.066 172.624C271.648 172.583 272.297 172.512 272.875 172.59C273.671 172.697 274.099 173.001 274.551 173.625C274.428 174.344 274.456 174.35 273.875 174.783C273.297 174.546 272.735 174.402 272.125 174.273C271.395 174.575 271.304 174.573 270.92 175.25C271.334 176.437 273.306 176.827 274.277 177.721C274.775 178.18 274.903 178.855 274.953 179.5C274.612 180.444 274.533 180.912 273.746 181.562C272.621 182.493 271.672 182.356 270.292 182.223C269.612 181.813 268.728 181.246 268.422 180.5L268.75 180.041C270.04 179.828 270.672 180.647 271.875 180.717C272.592 180.289 273.096 180.162 273.415 179.375C272.54 178.02 270.025 178.079 269.189 176.541C268.884 175.978 268.717 175.257 268.94 174.644C269.293 173.67 270.151 173.011 271.066 172.624Z" fill="white"/>
<path d="M240.28 172.534L241.781 172.701C242.666 172.849 243.044 173.166 243.548 173.875C243.229 174.568 243.219 174.532 242.5 174.805C242.066 174.583 241.594 174.306 241.105 174.244C240.376 174.152 240.147 174.521 239.625 174.953C239.292 176.884 242.248 176.317 243.011 177.554C243.393 178.172 243.758 178.807 243.983 179.5C243.858 179.877 243.724 180.291 243.505 180.625C242.751 181.779 241.712 182.151 240.436 182.432C239.833 182.344 239.054 182.256 238.5 182.009C237.875 181.731 237.598 181.085 237.329 180.5L237.625 179.997C238.729 179.864 238.983 180.304 239.934 180.592C240.717 180.83 241.319 180.254 241.968 179.875L242.043 179.25C241.255 178.263 239.685 178.027 238.632 177.186C237.88 176.585 237.633 176.049 237.506 175.125C238.048 173.684 238.974 173.208 240.28 172.534Z" fill="white"/>
<path d="M106.371 172.549L107.196 172.675C108.138 172.855 108.36 173.216 108.861 173.968C108.611 174.574 108.606 174.547 108 174.805C107.315 174.494 106.753 174.3 106 174.195C105.251 174.605 105.184 174.581 104.901 175.375C105.629 176.506 107.134 176.572 108.175 177.397C108.806 177.898 109.115 178.361 109.199 179.168C109.28 179.955 109.016 180.644 108.486 181.216C107.481 182.298 106.466 182.329 105.067 182.367C104.353 182.162 103.846 181.969 103.247 181.5C102.907 180.715 102.837 180.709 103.125 179.917C104.186 179.768 104.69 180.238 105.625 180.727C105.872 180.688 106.146 180.647 106.375 180.543C107.041 180.239 107.228 180.008 107.49 179.375C107.254 179.046 107.06 178.785 106.676 178.627C105.857 178.291 104.928 177.918 104.209 177.4C103.622 176.976 103.158 176.228 103.077 175.5C102.984 174.665 103.19 174.333 103.657 173.679C104.313 172.761 105.331 172.73 106.371 172.549Z" fill="white"/>
<path d="M4.84689 168.516C5.07769 168.53 5.27639 168.543 5.50019 168.605C6.20429 168.801 6.58159 168.988 6.92149 169.625L6.50019 170.306C5.86219 170.192 5.48469 170.189 4.87519 170.42C4.34319 170.936 4.14039 171.276 3.97829 172C4.47749 172.874 5.52539 172.403 6.37519 173.027L6.42999 173.625C5.80849 174.257 4.87039 174.37 4.03549 174.582L4.00719 181.312L3.87519 181.907L3.12519 182.211C2.94679 182.133 2.50119 182.004 2.37519 181.883C1.88519 181.414 1.98719 176.889 1.96889 176.143C1.96369 175.93 2.02279 174.946 1.93689 174.802C1.58679 174.218 0.896389 173.798 0.508789 173.125C1.07689 172.974 1.37709 172.753 1.82229 172.375C1.96219 171.788 2.16889 171.23 2.40359 170.676C2.98919 169.291 3.49759 169.064 4.84689 168.516Z" fill="white"/>
<path d="M152.248 172.388C152.428 172.508 152.86 172.718 152.98 172.875C153.062 172.982 153.084 173.846 153.102 174.021C153.274 175.686 153.05 179.031 154.111 180.326C154.487 180.784 154.695 180.71 155.25 180.742C155.727 180.469 156.415 180.187 156.824 179.84C158.297 178.593 157.034 174.538 157.751 172.77L158.375 172.568C159.1 173.192 158.952 173.509 159.027 174.438L159.22 179.045C159.263 179.734 159.446 180.75 159.287 181.414C159.169 181.909 158.89 182.06 158.5 182.31C156.703 181.711 154.981 182.791 153.26 181.926C152.671 181.63 152.114 180.873 151.922 180.252C151.409 178.587 151.462 173.929 152.248 172.388Z" fill="white"/>
<path d="M208.926 172.375C209.1 172.416 209.16 172.424 209.345 172.503C211.387 173.38 212.135 177.784 212.96 179.745C213.558 177.625 214.226 175.035 215.491 173.208C215.887 172.636 215.965 172.622 216.625 172.495L216.902 173L215.443 177.655C214.509 180.012 213.737 183.935 211.75 185.541L211.253 185.375C210.727 184.081 211.718 182.596 211.539 181.148C211.3 179.217 209.892 176.49 209.172 174.607C208.865 173.805 208.876 173.215 208.926 172.375Z" fill="white"/>
<path d="M252.405 172.604L253.5 172.735C254.902 173.947 255.1 177.084 256.25 178.755L256.767 178.625L257.742 175.051C258.024 174.19 258.807 172.948 259.625 172.51L260.201 172.75L260.343 173.625C259.73 175.31 259.263 177.497 258.113 178.857C258.299 179.73 257.066 182.596 256.663 183.508C256.325 184.272 256.097 184.88 255.387 185.384C255.173 185.537 254.929 185.419 254.678 185.375C253.807 183.806 255.11 183.38 255.181 181.956C255.199 181.601 254.798 180.786 254.667 180.399C254.022 178.492 251.979 174.502 252.405 172.604Z" fill="white"/>
<path d="M121.552 172.527C122.026 172.504 122.531 172.48 123 172.572C124.278 172.824 125.215 173.71 125.862 174.793C126.377 175.655 126.627 176.32 126.375 177.336C124.882 178.422 122.21 178.035 120.375 178.102L120.045 178.625C120.307 179.345 120.683 179.914 121.375 180.285C122.666 180.976 123.852 180.44 125.158 180.058L125.625 180.074L125.955 180.625L125.779 181.125C125.328 181.544 124.789 182.057 124.203 182.269C123.161 182.647 121.092 182.206 120.139 181.677C118.763 180.914 118.441 179.414 118.022 178.009C117.732 177.034 118.461 175.437 118.76 174.468C119.652 173.548 120.351 172.992 121.552 172.527ZM121.638 174.223C120.966 174.78 120.322 175.086 120.103 175.944C120.83 176.578 122.453 176.298 123.44 176.375L124.125 176.318L124.49 175.875C124.308 175.272 123.951 174.833 123.375 174.547C122.866 174.295 122.196 174.202 121.638 174.223Z" fill="white"/>
<path d="M44.9568 172.502C45.5136 172.488 45.9653 172.614 46.4879 172.788C47.7207 173.2 48.3927 173.884 48.9529 175.047C49.4002 175.975 49.5699 176.49 49.2127 177.475C47.663 178.796 44.891 177.562 43.1254 178.206L42.9989 178.875C43.2745 179.435 43.69 179.95 44.2208 180.291C45.41 181.054 46.9043 180.397 48.1507 180.09L48.8754 180.539C48.6416 181.284 48.3684 181.583 47.7504 182.051C46.2861 182.412 44.8782 182.515 43.4622 181.875C42.3219 181.36 41.6447 180.295 41.2378 179.152C40.6967 177.631 40.9695 175.989 41.7392 174.606C42.4145 173.393 43.6844 172.845 44.9568 172.502ZM44.6206 174.164C43.9699 174.741 43.2465 175.141 43.0451 176L43.4114 176.375L46.4379 176.344L47.1254 176.337L47.4328 175.875C47.1927 175.281 46.7233 174.741 46.1254 174.479C45.6767 174.282 45.1026 174.213 44.6206 174.164Z" fill="white"/>
<path d="M301.091 172.624L301.293 172.609C302.725 172.52 303.752 172.624 304.863 173.606L305.007 173.734C305.354 174.04 305.729 174.366 305.926 174.796C306.356 175.736 306.435 176.374 306.125 177.326C304.143 178.71 302.159 177.512 300.125 178.215C300.054 178.593 299.943 178.811 300.125 179.166C300.534 179.961 301.418 180.353 302.231 180.589C302.932 180.793 303.674 180.536 304.301 180.194C304.76 180.088 305.227 180.094 305.696 180.08L305.962 180.625C305.826 180.888 305.681 181.147 305.491 181.375C304.861 182.132 304.155 182.186 303.25 182.309C302.575 182.401 301.953 182.295 301.293 182.142C300.327 181.918 299.372 181.445 298.845 180.567C297.893 178.985 297.78 177.107 298.335 175.375C298.812 173.886 299.767 173.306 301.091 172.624ZM301.717 174.374C301.063 174.793 300.413 175.06 300.037 175.75L300.254 176.192L302.551 176.291C303.407 176.329 303.714 176.463 304.428 175.957C304.314 175.238 304.03 175.129 303.451 174.712C303.049 174.422 302.762 174.36 302.274 174.361L302.098 174.359L301.717 174.374Z" fill="white"/>
<path d="M315.999 172.624C318.267 173.36 320.133 172.205 322.275 173.535L322.5 173.677C323.445 173.245 324.377 172.924 325.375 172.634C326.422 172.746 326.968 173.083 327.791 173.723C328.599 175.37 328.805 180.023 328.343 181.834C327.686 182.14 327.687 182.189 327.008 181.963C326.189 180.571 326.547 176.833 326.515 175.125C326.104 174.472 326.102 174.428 325.375 174.189C324.323 174.456 323.661 175.156 322.883 175.874C323.383 177.39 322.996 179.987 322.958 181.625L322.375 182.077L321.75 181.989C320.773 180.684 321.712 177.635 321.242 175.875C320.993 174.946 320.69 174.726 319.875 174.262C315.945 174.655 318.781 180.582 317 182.498C316.45 182.335 316.289 182.282 316.009 181.736C315.686 181.107 315.728 180.194 315.699 179.5C315.61 177.401 315.337 174.611 315.999 172.624Z" fill="white"/>
<path d="M75.237 169.055C75.423 169.018 75.559 168.988 75.75 169.019C76.441 169.13 77.693 169.496 78.089 170.098L78.198 170.284C78.659 171.039 78.744 171.521 78.737 172.375C78.026 174.022 76.803 174.669 75.371 175.614L78.32 178.368C78.679 177.346 79.102 175.113 80 174.6C81.564 175.712 79.75 178.366 80.018 179.75C81.068 180.424 81.683 180.954 82.132 182.139C81.935 182.227 81.893 182.257 81.705 182.308C80.664 182.592 79.302 181.53 78.426 181.01C77.793 181.356 77.138 181.72 76.456 181.958C75.184 182.403 73.853 182.428 72.636 181.803C71.578 181.259 70.795 180.788 70.47 179.553C70.155 178.354 70.667 177.114 71.474 176.218C71.774 175.886 72.273 175.564 72.458 175.159C72.738 174.546 71.777 173.438 71.565 172.789C71.278 171.911 71.603 171.043 72.005 170.27C73.042 169.64 74.067 169.355 75.237 169.055ZM73.539 176.359C73.025 177.106 72.398 177.858 72.173 178.75C72.346 179.464 72.9 179.869 73.5 180.249C74.119 180.642 74.503 180.832 75.232 180.613L75.325 180.57L76.905 179.875L76.972 179.375C76.354 178.903 75.66 178.424 75.11 177.875C74.561 177.327 74.301 176.631 73.539 176.359ZM74.182 170.964C73.789 171.542 73.383 171.877 73.526 172.618C73.613 173.068 73.935 173.456 74.202 173.819C74.972 173.966 74.978 173.882 75.65 173.455L76.875 172.485V171.792C75.939 170.968 75.439 170.899 74.182 170.964Z" fill="white"/>
<path d="M343.504 85.2751L343.412 85.6671C343.117 86.0601 342.755 86.2701 342.308 86.4641C341.291 86.9061 340.563 86.8221 339.557 86.4191C338.694 85.6551 338.172 84.9301 337.999 83.7621C337.613 81.1561 337.822 78.2387 337.824 75.592C337.826 73.3531 337.618 70.778 338.063 68.593C338.183 68.0024 338.644 67.4543 339 66.9816C339.82 66.5187 340.539 66.2062 341.5 66.2309C342.185 66.2484 342.903 66.4392 343.375 66.962C344.027 67.6843 344.059 68.0552 343.955 68.9992C344.176 70.0145 343.999 71.239 343.996 72.2851L343.971 80.6623C343.966 81.7551 343.751 83.0681 343.938 84.1261C343.58 84.5571 343.59 84.7341 343.504 85.2751Z" fill="white"/>
<path d="M135.989 204.858C138.78 204.764 142.305 204.374 145.049 204.855C146.781 205.158 148.401 205.982 150.044 206.578C152.791 207.575 155.759 208.539 158.626 209.096C170.447 211.393 183.359 211.593 195.083 208.533C197.128 207.999 199.282 207.284 201.25 206.502C202.724 205.917 204.09 205.192 205.674 204.918C207.761 204.555 210.111 204.715 212.23 204.731C213.097 204.737 214.166 204.589 214.895 205.1C214.492 206.007 212.976 206.472 212.074 206.925C207.976 208.915 204.061 210.646 199.666 211.885C179.831 217.476 155.252 216.496 137.039 206.102C136.322 205.692 136.201 205.658 135.989 204.858Z" fill="white"/>
<path d="M175.571 31.6217C177.296 31.6393 179.79 31.3399 181.419 31.801C183.81 32.4783 186.446 32.1251 188.849 32.5497C193.206 33.3194 197.651 34.1872 201.875 35.5409C204.962 36.5301 208.091 37.9967 211.033 39.3747C212.862 40.231 214.686 40.9341 216.298 42.1736C213.263 42.6184 209.89 42.1621 206.793 42.3074C204.497 42.4152 200.973 40.3363 198.676 39.6096C196.513 38.9254 194.234 38.3754 192.019 37.875C186.745 36.6836 181.339 36.2544 175.949 36.2C168.675 36.2166 161.029 36.9005 154.061 39.1282L148.663 40.9742C147.575 41.3951 146.444 42.0404 145.287 42.2147C142.172 42.6843 138.57 42.3233 135.412 42.1818C136.686 40.928 138.678 40.1519 140.286 39.3592C146.998 36.0495 154.949 33.5491 162.379 32.5978C164.204 32.3641 166.075 32.4669 167.875 32.2407C170.496 31.9114 172.918 31.6867 175.571 31.6217Z" fill="white"/>
<path d="M337.823 156.738L337.868 156.574C338.154 155.417 337.997 154.153 337.969 152.972L337.929 147.388L337.834 110.207L337.849 100.527C337.855 98.6881 337.722 96.6831 338.076 94.8751C338.26 93.9351 338.747 93.2721 339.585 92.7961C340.278 92.4031 341.682 92.2921 342.43 92.5671C343.207 92.8521 343.822 93.5771 344.132 94.3281C344.804 95.9511 344.536 98.5011 344.544 100.251L344.555 112.018L344.802 145.822L344.803 153.798C344.802 155.101 344.971 156.777 344.439 157.986C343.967 159.058 343.195 159.666 342.125 160.095C341.323 160.416 340.248 159.988 339.47 159.712C339.232 159.106 338.702 158.692 338.477 158.007C338.315 157.513 338.122 157.16 337.823 156.738Z" fill="white"/>
<path d="M231.008 211.673L231.75 211.772C232.976 212.838 234.505 213.677 235.863 214.58L235.017 215.185C228.488 219.507 221.211 222.636 213.798 225.048C199.771 229.612 185.409 231.407 170.689 230.788C167.572 230.657 163.799 230.847 160.755 230.195C157.252 229.445 153.53 229.256 149.977 228.577C140.163 226.701 130.552 223.272 121.714 218.625L117.384 216.304C118.404 215.447 119.607 214.662 120.767 214.007C121.059 213.842 122.113 213.176 122.368 213.194C122.564 213.208 123.26 213.703 123.476 213.828L127.465 216.056C129.02 216.877 130.667 217.582 132.282 218.279C136.857 220.253 141.606 221.628 146.391 222.957C151.41 224.35 156.572 225.134 161.733 225.754C179.766 227.924 198.585 225.916 215.625 219.483C221.031 217.442 225.999 214.514 231.008 211.673Z" fill="white"/>
<path d="M174.243 15.8633C176.682 15.7685 178.885 16.1171 181.285 16.2414C183.817 16.3725 186.345 16.3031 188.875 16.5864C201.124 17.9577 212.591 20.7452 223.915 25.6561C228.023 27.4376 232.657 29.617 236.082 32.5248C235.124 33.0985 232.103 35.6056 231.108 35.3091C229.917 34.9546 228.231 33.4654 227.034 32.8357C223.178 30.8067 219.318 29.0199 215.265 27.4273C210.559 25.5786 205.905 24.3218 200.993 23.191C198.43 22.601 195.906 21.9584 193.291 21.6362L186.566 20.8459C184.791 20.7169 183.08 20.8102 181.313 20.505C165.374 19.9109 148.63 21.9405 133.78 28.0423C129.777 29.6869 126.038 31.9366 122.182 33.8756C120.486 32.9225 118.892 31.9854 117.444 30.6691C120.314 29.2191 123.108 27.5221 126.036 26.2053C137.874 20.8814 150.52 17.8718 163.394 16.498C165.61 16.2615 167.701 16.515 169.875 16.4087C171.285 16.3397 172.785 15.9582 174.243 15.8633Z" fill="white"/>
<path d="M248.482 222.864C250.149 222.876 252.367 224.814 253.821 225.686C243.406 232.45 232.185 237.191 220.307 240.725C205.925 245.004 190.765 246.59 175.826 246.546L166 246.506C144.005 245.32 122.348 240.107 102.962 229.488L99.6143 227.352L102.384 225.375C102.652 225.195 104.097 224.202 104.286 224.213C104.749 224.242 106.463 225.448 106.962 225.727C121.455 233.839 136.927 238.438 153.299 240.903C157.016 241.463 160.919 241.367 164.586 242.045C166.12 242.329 167.972 242.172 169.542 242.204C171.173 242.237 172.768 242.508 174.397 242.534C175.984 242.559 177.593 242.334 179.183 242.283C198.2 241.668 216.46 238.393 233.938 230.69C238.973 228.471 243.977 226.052 248.482 222.864Z" fill="white"/>
<path d="M169.276 0.369629L185.248 0.466028C205.563 1.55323 225.787 6.30633 244 15.4589C247.298 17.1162 250.883 18.8174 253.783 21.1314L252.669 22.1877L252.209 22.5821C251.689 23.018 251.158 23.376 250.568 23.7103C250.374 23.8201 249.493 24.3818 249.34 24.3762C248.901 24.3598 246.943 22.9655 246.47 22.679C228.396 11.723 207.023 6.43373 186.062 4.98133C166.378 3.45743 146.304 6.13853 127.576 12.2305C119.682 14.7983 111.628 18.1296 104.64 22.6648C103.32 22.6897 100.566 20.4867 99.4268 19.7328C107.769 14.572 116.788 10.6235 126.132 7.65413L134.422 5.40003C145.614 2.27223 157.667 0.711329 169.276 0.369629Z" fill="white"/>
<path d="M318.427 92.0401L281.456 92.3541C281.199 93.1311 281.417 94.4201 281.437 95.2501L281.444 100.875L281.422 140.779L281.443 151.258C281.452 153.05 281.643 155.085 281.366 156.853C281.177 158.06 280.623 159.107 279.5 159.686C278.77 160.062 277.851 160.111 277.078 159.822C276.113 159.462 275.546 158.758 275.148 157.828C274.893 157.233 274.799 156.645 274.773 156L274.73 138.416L274.726 104.973L274.728 81.8971C274.732 77.4993 274.516 72.9889 274.928 68.6152C275.663 67.396 276.175 66.566 277.644 66.2143C278.425 66.0273 279.221 66.3353 279.871 66.7625C280.548 67.2086 280.982 67.8895 281.133 68.682C281.543 70.8206 281.428 73.3824 281.443 75.5635L281.393 85.3781L307.78 85.2371C312.787 85.2351 318.231 84.8111 323.182 85.3461C323.809 85.4131 324.281 85.5161 324.748 85.9581C325.484 86.6541 325.785 87.5511 325.832 88.5741C325.877 89.5391 325.475 90.6051 324.778 91.2751C323.737 92.2771 321.097 92.0381 319.733 92.0351L318.427 92.0401Z" fill="white"/>
<path d="M31.6601 93.6451C32.0441 92.3281 32.6508 91.2321 33.1825 89.9801L37.7666 79.8751L41.0017 72.5502C41.6044 71.1274 42.0865 69.5002 42.9249 68.2001C43.2512 67.6943 43.6988 67.4917 44.2466 67.2913C45.0611 66.9933 45.9817 66.948 46.7901 67.3135C47.7608 67.7525 48.4081 68.9219 48.8529 69.8319C49.7683 71.7046 50.4532 73.6823 51.3117 75.5815L58.625 92.0581L64.698 105.578L74.667 128.308L82.004 144.875L84.684 150.909C85.322 152.28 86.169 153.697 86.611 155.138C86.877 156.006 86.765 156.806 86.337 157.6C85.863 158.479 84.939 159.34 83.956 159.596C83.185 159.796 82.773 159.593 82.043 159.375C81.076 158.511 80.384 157.532 79.801 156.374C77.73 152.255 76.042 147.864 74.191 143.639L65.125 123.111L49.2972 87.3931L45.5415 78.9713C45.3321 79.1866 45.3293 79.196 45.2428 79.4591C44.6801 81.1721 43.7388 82.6761 43.0246 84.3221L35.0026 102.125L17.9704 140.25L10.8631 156.173C10.1872 157.514 9.60628 158.541 8.37498 159.429C7.29648 159.562 6.39458 159.578 5.49908 158.877C4.81248 158.339 4.04798 157.526 3.97518 156.625C3.88598 155.519 4.34118 154.279 4.75008 153.272L9.71398 142.5L14.125 132.288C15.3806 129.287 16.8928 126.438 17.9985 123.375C18.2458 122.69 18.8229 122.011 19.1492 121.33L22.309 114.378L26.0312 105.878C26.4597 104.943 26.8657 103.655 27.4693 102.851L31.6601 93.6451Z" fill="white"/>
<path d="M207.232 66.3094L225.088 66.1797L234.38 66.1605C236.027 66.1724 238.196 66.0364 239.727 66.7316C241.157 67.3812 242.614 67.4458 244.038 68.2402C249.627 71.3603 253.331 76.1792 255.061 82.3539C256.509 87.5209 256.237 93.5789 254.119 98.5259C253.503 99.9619 252.644 101.113 251.911 102.461C251.223 103.726 250.53 104.593 249.517 105.624C249.349 105.795 248.016 107.018 248 107.137C247.951 107.512 248.252 108.414 248.332 108.815L249.511 113.779L254.807 137.334L257.125 147.516C257.63 149.673 258.308 151.843 258.648 154.034C258.737 154.605 258.7 155.105 258.463 155.642C257.993 156.71 257.115 157.415 256.024 157.795C255.342 158.032 254.634 158.046 253.988 157.691C253.049 157.176 252.428 156.097 252.065 155.125C251.286 153.035 250.976 150.673 250.498 148.5L248.145 138.093L241.168 108.164C240.87 106.882 240.869 105.773 241.592 104.645L241.695 104.487C243.058 102.374 245.214 100.9 246.62 98.7269C247.487 97.3859 248.823 95.0379 248.497 93.4949C248.987 92.8829 249.178 92.2549 249.255 91.4859C249.771 86.3539 248.694 81.3099 245.308 77.2758C244.064 75.7936 241.588 74.1469 239.745 73.6059C236.663 72.7011 233.237 72.9669 230.054 72.9575C223.369 72.9376 216.453 73.4033 209.801 72.9208L209.82 132.521L209.842 149.377C209.845 151.622 210.252 154.849 209.625 156.964C209.387 157.768 208.899 158.28 208.162 158.649C207.278 159.09 206.209 159.111 205.286 158.766C204.591 158.506 203.904 157.964 203.597 157.276C203.189 156.363 203.301 155.059 203.296 154.07C203.253 146.163 202.828 70.6121 203.572 68.7665C204.08 67.5043 206.093 66.8176 207.232 66.3094Z" fill="white"/>
<path d="M187.957 66.13C188.718 66.0935 190.574 66.1551 191.162 66.5899C192.068 67.2598 192.836 68.1895 192.965 69.3294C193.062 70.1889 192.626 71.2065 192.062 71.8513C191.601 72.3789 190.701 72.825 190.014 72.9243C188.885 73.0876 187.598 72.9835 186.441 73.0422L174.698 73.2537L149.092 73.6323C148.249 74.744 147.895 76.3717 147.411 77.6844L143.985 86.9919L139.208 99.5809L135.618 109.497L174.337 109.47C176.757 109.468 188.794 108.958 190.274 109.814C191.249 110.377 191.514 111.121 191.818 112.125C191.884 112.341 191.96 112.552 191.975 112.78C192.019 113.499 191.441 114.699 190.94 115.204C190.424 115.724 189.899 115.992 189.182 116.076C187.511 116.271 185.695 116.123 184.009 116.118L174.61 116.114L150.232 116.112L133.256 116.274C132.581 117.21 132.284 118.51 131.909 119.598L130.083 124.611L123.026 143.75C121.906 146.777 120.944 149.868 119.641 152.822L186.815 152.613C188.205 152.469 189.282 152.869 190.583 153.302C191.349 154.056 192.024 155.113 192.018 156.191C192.012 157.276 191.498 157.775 190.77 158.499C190.284 158.983 190.137 159.183 189.44 159.266C187.326 159.516 185.005 159.377 182.865 159.406L168 159.428L123.125 159.44L114.472 159.378C113.571 159.363 112.119 159.529 111.322 159.159L111.125 159.055C110.89 158.934 110.678 158.827 110.473 158.658C109.762 158.07 109.3 156.951 108.911 156.125L103.987 144.75L99.903 135.938L92.88 119.756L76.741 83.4949L72.933 75.0093C72.174 73.2771 71.197 71.5375 71.042 69.6249C71.259 68.8499 71.462 68.2333 72.058 67.6628C72.786 66.9643 73.818 66.3432 74.875 66.4591C76.096 66.593 76.871 67.8216 77.442 68.8135C78.869 71.2911 79.859 74.0914 80.974 76.7185L85.603 87.0359L101.1 122.125L105.884 132.617L111.117 144.378C111.827 146.01 112.439 148.27 113.598 149.625L113.858 149.375C114 147.963 114.994 146.348 115.489 145L120.449 131.625L124.33 120.611L142.191 72.0364C142.63 70.8883 143.192 69.2293 144.068 68.3469C145.003 67.4053 146.785 66.7515 148.071 66.596C149.789 66.3885 151.721 66.5541 153.462 66.5562L163.82 66.5749L171.475 66.2803L187.957 66.13Z" fill="white"/>
</g>
<defs>
<clipPath id="clip0_503_672">
<rect width="345" height="247" fill="white"/>
</clipPath>
</defs>
</svg>
