<svg width="170" height="100" viewBox="0 0 170 100" fill="none" xmlns="http://www.w3.org/2000/svg">
<g clip-path="url(#clip0_951_1609)">
<path d="M0 79.7998C9.52501 -9.35824 51.9499 -22.4292 167.048 34.3164L169.78 35.5801C159.15 85.9599 132.12 125.63 0 79.7998ZM42.3301 32.9102C40.9402 32.8902 40.0101 32.9797 38.9902 32.9697C38.3902 32.9597 38.1104 33.1705 37.9004 33.7305L35.79 39.3203L34.0195 43.96L33.1602 46.2305L29.7402 55.2402H29.7695C28.9455 57.4283 28.1089 59.6116 27.2598 61.79C26.9998 62.46 27.0102 62.4597 27.7002 62.4697C28.3203 62.4797 29.9402 62.5901 31.5 62.6201C32.9499 62.6501 34.2895 61.82 34.8096 60.4502C35.0296 59.8902 35.6602 58.1697 36.4502 55.9697L43.1797 55.9502C43.7696 55.9502 43.7702 55.95 43.5703 55.4102L41.9004 50.5205H38.4199C39.0253 48.8523 39.6355 47.1854 40.25 45.5205C40.85 43.9805 41.4098 42.5498 41.8398 41.2998L42.0195 40.9297L43.46 45.1201L45.1904 50.1504L47.29 56.25C49.19 61.77 51.1603 67.46 51.5703 68.54C51.8379 69.2423 52.3156 69.845 52.9385 70.2656C53.5612 70.6861 54.2985 70.9038 55.0498 70.8896C56.7097 70.8697 58.4397 70.7903 59.0898 70.7803C59.8297 70.7803 59.8401 70.78 59.5703 70.0605C56.5103 61.9606 50.2296 43.0608 47.3096 36.5605C45.7996 33.2206 43.9701 32.9402 42.3301 32.9102ZM95.6504 44.1699C93.1204 41.4399 89.8898 40.4605 86.2598 41.0205C84.5825 41.2279 82.9835 41.8526 81.6104 42.8379C80.2373 43.8232 79.1339 45.1376 78.4004 46.6602C77.5199 48.3435 77.0081 50.1952 76.8994 52.0918C76.7908 53.9885 77.087 55.8872 77.7695 57.6602C78.2572 59.098 79.0604 60.4089 80.1191 61.4971C81.1778 62.5851 82.4659 63.4234 83.8896 63.9502C86.326 64.8846 88.9852 65.0758 91.5303 64.5C93.6695 64.0746 95.6375 63.0316 97.1904 61.5C97.5201 61.1802 97.5698 60.9302 97.2402 60.5605L96.7803 60.0205C96.1387 59.2715 95.2798 58.74 94.3232 58.5C93.3668 58.26 92.3595 58.3225 91.4404 58.6797C91.1104 58.8097 90.7597 58.91 90.4297 58.96C87.4798 59.6398 85.0104 58.3095 84.1504 55.5996C83.9505 54.9699 83.9905 54.9199 84.6504 54.9199H97.7695C98.1694 54.9199 98.4199 54.8501 98.5 54.4004C99.18 50.5304 98.3203 47.0499 95.6504 44.1699ZM141.06 44.1699C138.53 41.4401 135.3 40.4605 131.67 41.0205C129.993 41.2279 128.394 41.8525 127.021 42.8379C125.647 43.8232 124.543 45.1376 123.81 46.6602C122.929 48.3433 122.417 50.1951 122.309 52.0918C122.2 53.9886 122.496 55.8873 123.18 57.6602C123.667 59.098 124.471 60.4089 125.529 61.4971C126.588 62.5851 127.876 63.4234 129.3 63.9502C131.736 64.8846 134.395 65.0758 136.94 64.5C139.079 64.074 141.046 63.031 142.6 61.5C142.929 61.1801 142.98 60.9303 142.65 60.5605L142.19 60.0205C141.549 59.2715 140.69 58.7401 139.733 58.5C138.777 58.26 137.769 58.3223 136.85 58.6797C136.524 58.8096 136.186 58.9038 135.84 58.96C132.89 59.6399 130.42 58.3096 129.56 55.5996C129.36 54.9703 129.4 54.9199 130.06 54.9199H143.18C143.58 54.9199 143.83 54.8501 143.91 54.4004C144.59 50.5304 143.74 47.0499 141.06 44.1699ZM53.7803 41.3701C53.3503 41.3801 53.2398 41.5501 53.4297 41.96L53.5 42.1602L60.2002 60.7998C60.5636 61.8046 61.2245 62.6749 62.0947 63.2949C62.9649 63.9148 64.003 64.2552 65.0713 64.2705C66.1397 64.2857 67.1876 63.9749 68.0752 63.3799C68.9626 62.785 69.6482 61.9343 70.04 60.9404C70.32 60.2204 70.5898 59.53 70.7598 59.04L76.7402 42.4199H76.75C77.13 41.3801 77.1395 41.3799 76.0596 41.3799H72.9404C72.0869 41.3812 71.2546 41.6515 70.5635 42.1523C69.8724 42.6532 69.3568 43.3593 69.0898 44.1699C68.1098 47.1199 66.59 51.7 65.79 54.29C65.6101 54.8899 65.4101 55.4898 65.2002 56.1396C65.0004 55.9798 64.9804 55.8401 64.9404 55.7002L63.2402 50.25C62.6645 48.3461 62.0976 46.4396 61.54 44.5303C61.2789 43.6363 60.7377 42.8496 59.9961 42.2861C59.2544 41.7227 58.3513 41.4123 57.4199 41.4004C55.9202 41.3804 54.3505 41.3601 53.7803 41.3701ZM99.0898 41.3701C98.67 41.3802 98.5603 41.55 98.7402 41.96L98.8096 42.1602L105.53 60.7998C105.896 61.8014 106.557 62.6687 107.426 63.2861C108.295 63.9034 109.331 64.2426 110.396 64.2578C111.462 64.273 112.508 63.9635 113.395 63.3711C114.281 62.7787 114.967 61.9311 115.36 60.9404C115.65 60.2204 115.91 59.53 116.09 59.04L122.06 42.4199C122.44 41.3799 122.46 41.3799 121.38 41.3799H118.25C117.398 41.3833 116.569 41.6546 115.88 42.1553C115.191 42.6559 114.677 43.3609 114.41 44.1699C113.277 47.5324 112.177 50.9061 111.11 54.29C110.93 54.89 110.73 55.4897 110.52 56.1396C110.32 55.9798 110.3 55.8401 110.26 55.7002C109.69 53.8802 109.11 52.07 108.56 50.25C107.981 48.3459 107.411 46.4393 106.85 44.5303C106.59 43.6396 106.052 42.8551 105.314 42.292C104.577 41.7289 103.678 41.4165 102.75 41.4004C101.25 41.3804 99.6598 41.3601 99.0898 41.3701ZM87.0596 46.6299C89.8096 46.0599 91.45 47.7501 91.96 50.0801C92.0399 50.4799 91.7803 50.5205 91.4805 50.5205H84.2422C84.0714 50.5131 83.94 50.4603 84 50.1602C84.35 48.6403 85.3698 46.98 87.0596 46.6299ZM132.47 46.6299C135.22 46.0599 136.86 47.7501 137.37 50.0801C137.45 50.4801 137.19 50.5205 136.89 50.5205H129.652C129.481 50.5131 129.35 50.4604 129.41 50.1602C129.76 48.6402 130.78 46.98 132.47 46.6299Z" fill="white"/>
</g>
<defs>
<clipPath id="clip0_951_1609">
<rect width="170" height="100" fill="white"/>
</clipPath>
</defs>
</svg>
