<?xml version="1.0" encoding="UTF-8" standalone="no"?>
<!DOCTYPE svg PUBLIC "-//W3C//DTD SVG 1.1//EN" "http://www.w3.org/Graphics/SVG/1.1/DTD/svg11.dtd">
<svg xmlns="http://www.w3.org/2000/svg" version="1.1" viewBox="0.00 0.00 2934.00 1072.00">
<rect fill="#ffffff" x="-28.60" y="-91.78" transform="translate(2494.00,149.13) rotate(-0.1)" width="57.20" height="183.56" rx="27.70"/>
<path fill="#ffffff" d="
  M 1473.38 697.98
  A 0.71 0.70 -52.8 0 1 1473.25 697.01
  L 1556.31 580.73
  A 0.39 0.39 0.0 0 1 1556.87 580.65
  Q 1638.87 644.71 1744.36 651.36
  C 1782.24 653.75 1821.05 651.85 1855.98 636.77
  Q 1870.40 630.54 1882.14 619.96
  Q 1901.39 602.61 1901.99 577.25
  C 1902.97 536.52 1866.18 519.01 1832.84 509.90
  Q 1804.34 502.11 1772.96 498.66
  C 1728.43 493.77 1687.09 487.13 1645.50 474.50
  C 1615.78 465.47 1586.81 453.03 1561.68 435.11
  Q 1522.96 407.49 1505.37 364.73
  C 1498.55 348.15 1494.46 329.65 1492.74 311.50
  C 1488.82 270.05 1495.31 229.70 1516.06 193.85
  C 1554.93 126.67 1631.35 91.81 1705.22 80.92
  Q 1753.28 73.84 1803.17 76.88
  C 1884.65 81.85 1966.36 107.00 2033.49 154.19
  A 0.69 0.68 -55.7 0 1 2033.66 155.13
  L 1958.67 267.11
  A 0.93 0.93 0.0 0 1 1957.36 267.35
  Q 1889.40 220.00 1807.84 212.92
  Q 1776.02 210.15 1743.24 213.95
  C 1706.81 218.16 1651.47 235.83 1649.17 281.11
  C 1647.72 309.61 1664.77 328.21 1689.58 338.97
  Q 1706.27 346.21 1725.59 350.66
  Q 1751.05 356.54 1771.23 359.04
  Q 1796.81 362.21 1813.43 364.61
  Q 1866.04 372.23 1912.10 388.16
  C 1940.34 397.94 1967.69 411.40 1991.06 429.42
  Q 2052.17 476.54 2059.39 555.26
  Q 2062.67 591.02 2055.29 623.05
  C 2041.30 683.78 1998.58 730.02 1943.95 757.70
  C 1910.52 774.64 1873.76 785.27 1836.81 790.34
  Q 1798.25 795.64 1757.25 794.64
  Q 1658.48 792.24 1569.24 754.76
  Q 1517.11 732.87 1473.38 697.98
  Z"
/>
<path fill="#ffffff" d="
  M 2446.87 78.02
  L 2446.87 222.60
  A 0.74 0.73 -5.8 0 1 2446.28 223.32
  C 2399.23 232.30 2357.06 257.54 2328.53 295.79
  C 2307.35 324.17 2294.56 357.35 2289.16 393.46
  Q 2280.97 448.20 2294.14 502.56
  Q 2296.96 514.20 2302.78 528.84
  C 2321.41 575.71 2355.24 612.22 2400.65 633.06
  Q 2426.75 645.04 2456.10 649.41
  C 2481.23 653.16 2508.02 653.13 2533.21 649.23
  C 2583.31 641.48 2629.52 616.22 2659.63 576.32
  C 2695.03 529.40 2706.21 471.80 2702.26 414.00
  C 2697.96 351.15 2671.07 291.62 2618.37 255.16
  Q 2583.69 231.16 2542.09 223.37
  A 0.76 0.75 -85.1 0 1 2541.47 222.62
  L 2541.47 77.82
  A 0.36 0.35 -87.8 0 1 2541.85 77.46
  Q 2601.69 82.55 2655.93 104.35
  Q 2709.25 125.78 2751.43 162.56
  C 2819.53 221.93 2856.79 308.58 2862.85 398.47
  Q 2863.35 405.92 2863.87 416.23
  C 2864.16 421.83 2863.93 425.87 2864.21 430.45
  C 2864.57 436.43 2864.20 441.64 2863.88 453.22
  Q 2862.63 497.66 2852.06 540.30
  C 2834.39 611.55 2794.50 676.16 2736.13 720.85
  C 2690.92 755.46 2637.88 777.71 2581.80 788.04
  Q 2535.12 796.65 2484.30 795.71
  Q 2441.40 794.92 2402.10 787.23
  C 2339.83 775.03 2281.19 747.98 2234.32 706.20
  C 2182.48 659.97 2148.04 596.86 2133.39 528.63
  Q 2126.40 496.09 2124.60 462.73
  C 2120.74 391.26 2131.34 318.20 2164.96 254.28
  Q 2215.72 157.79 2316.41 111.18
  Q 2375.39 83.88 2446.17 77.38
  A 0.64 0.64 0.0 0 1 2446.87 78.02
  Z"
/>
<path fill="#ffffff" d="
  M 249.27 360.54
  Q 319.01 360.51 437.75 360.51
  C 474.38 360.51 507.12 343.56 512.30 304.31
  Q 514.09 290.79 511.47 277.02
  C 505.46 245.39 479.23 228.80 448.78 225.33
  Q 442.32 224.60 428.68 224.62
  Q 385.26 224.67 249.65 224.63
  A 0.60 0.59 -0.0 0 1 249.05 224.04
  L 249.05 92.41
  A 0.71 0.71 0.0 0 1 249.76 91.70
  Q 336.76 91.63 441.00 91.71
  Q 445.67 91.72 467.31 93.21
  Q 508.48 96.04 547.05 109.44
  C 580.91 121.21 613.21 141.98 635.23 169.70
  Q 660.37 201.36 666.90 242.57
  Q 671.36 270.74 667.83 299.36
  C 661.34 352.07 631.38 395.69 583.29 419.25
  A 0.50 0.50 0.0 0 0 583.31 420.16
  Q 635.31 442.85 664.96 491.30
  C 686.89 527.14 694.23 568.29 689.77 609.76
  C 685.11 653.11 666.42 690.55 632.91 719.18
  C 585.84 759.39 524.08 774.21 463.25 778.14
  Q 450.58 778.95 424.24 778.93
  Q 385.23 778.88 249.80 778.89
  A 0.81 0.80 90.0 0 1 249.00 778.08
  L 249.12 643.51
  A 0.15 0.14 -0.0 0 1 249.27 643.37
  Q 251.36 643.32 438.15 643.36
  Q 450.78 643.36 458.84 642.46
  C 474.08 640.75 489.61 636.20 502.40 627.43
  C 527.80 610.02 535.73 581.45 531.67 551.80
  Q 527.91 524.29 507.23 507.58
  C 487.02 491.25 460.11 488.27 434.67 488.44
  Q 427.62 488.49 249.72 488.46
  A 0.67 0.67 0.0 0 1 249.05 487.79
  L 249.05 360.75
  A 0.22 0.21 0.0 0 1 249.27 360.54
  Z"
/>
<path fill="#ffffff" d="
  M 1295.70 419.41
  A 0.38 0.37 -46.2 0 0 1295.71 420.09
  Q 1340.89 439.56 1369.57 479.16
  C 1397.41 517.61 1407.27 562.34 1402.43 609.48
  Q 1395.41 677.89 1343.07 721.29
  C 1296.59 759.83 1235.82 774.14 1177.19 778.06
  Q 1162.83 779.03 1140.43 778.91
  Q 1135.02 778.88 810.00 778.90
  Q 807.10 778.90 804.32 778.73
  A 0.85 0.85 0.0 0 1 803.52 777.88
  L 803.52 92.34
  A 0.66 0.66 0.0 0 1 804.18 91.68
  Q 1009.42 91.69 1134.25 91.65
  Q 1158.12 91.65 1172.22 92.57
  C 1202.27 94.54 1231.73 99.48 1259.78 109.44
  C 1295.59 122.15 1328.75 143.75 1350.98 173.69
  C 1375.64 206.93 1383.75 245.97 1381.68 286.74
  C 1380.67 306.78 1376.03 327.40 1367.75 345.72
  Q 1345.54 394.90 1295.70 419.41
  Z
  M 962.17 225.09
  L 961.93 359.77
  A 0.52 0.52 0.0 0 0 962.45 360.29
  L 1156.14 360.63
  A 69.37 63.31 0.1 0 0 1225.62 297.44
  L 1225.64 288.34
  A 69.37 63.31 0.1 0 0 1156.38 224.91
  L 962.69 224.57
  A 0.52 0.52 0.0 0 0 962.17 225.09
  Z
  M 962.05 489.00
  L 962.05 642.72
  A 0.47 0.47 0.0 0 0 962.52 643.19
  L 1164.71 643.19
  A 80.58 72.10 -0.0 0 0 1245.29 571.09
  L 1245.29 560.63
  A 80.58 72.10 -0.0 0 0 1164.71 488.53
  L 962.52 488.53
  A 0.47 0.47 0.0 0 0 962.05 489.00
  Z"
/>
<rect fill="#ffffff" x="-35.61" y="-145.92" transform="translate(106.56,244.90) rotate(0.1)" width="71.22" height="291.84" rx="34.73"/>
<path fill="#ffffff" d="
  M 142.21 528.49
  Q 142.15 597.21 142.22 752.91
  Q 142.23 761.01 140.95 765.26
  C 136.36 780.59 121.92 791.72 105.53 790.92
  C 88.79 790.10 75.89 779.75 71.75 763.46
  Q 70.79 759.71 70.88 752.02
  Q 70.97 743.97 70.90 515.74
  Q 70.90 505.56 72.27 501.42
  C 74.82 493.73 78.20 489.35 84.82 483.14
  Q 129.38 441.28 161.35 411.09
  Q 169.62 403.29 178.59 401.16
  C 214.96 392.53 238.61 437.05 211.21 462.72
  Q 194.83 478.06 142.85 527.02
  A 2.03 2.00 -21.8 0 0 142.21 528.49
  Z"
/>
<path fill="#ffffff" d="
  M 718.80 909.41
  Q 706.25 897.95 689.51 896.74
  C 667.47 895.15 648.15 905.54 640.85 926.92
  Q 636.46 939.77 638.69 953.27
  C 642.00 973.29 655.09 987.37 675.33 990.60
  Q 701.19 994.73 720.34 977.52
  A 0.25 0.24 45.8 0 1 720.68 977.53
  L 738.15 995.00
  A 0.79 0.78 46.0 0 1 738.14 996.13
  C 724.22 1009.30 706.61 1016.14 687.32 1016.11
  Q 680.19 1016.10 679.00 1016.05
  C 671.11 1015.74 661.44 1013.87 654.48 1011.12
  Q 622.73 998.57 614.21 964.02
  C 609.39 944.51 612.00 922.22 622.11 904.91
  C 633.47 885.48 652.22 874.53 674.88 871.90
  Q 710.96 867.71 736.61 892.36
  A 0.18 0.18 0.0 0 1 736.62 892.62
  L 719.85 909.39
  A 0.77 0.76 43.6 0 1 718.80 909.41
  Z"
/>
<path fill="#ffffff" d="
  M 1400.81 909.39
  A 0.77 0.76 43.6 0 1 1399.76 909.41
  Q 1387.21 897.95 1370.47 896.74
  C 1348.42 895.16 1329.11 905.55 1321.81 926.94
  Q 1317.42 939.79 1319.66 953.29
  C 1322.97 973.31 1336.06 987.39 1356.31 990.61
  Q 1382.17 994.74 1401.31 977.52
  A 0.25 0.24 45.8 0 1 1401.65 977.53
  L 1419.13 995.00
  A 0.79 0.78 46.0 0 1 1419.12 996.13
  C 1405.20 1009.30 1387.59 1016.15 1368.30 1016.12
  Q 1361.17 1016.11 1359.98 1016.06
  C 1352.09 1015.75 1342.42 1013.89 1335.46 1011.14
  Q 1303.70 998.59 1295.18 964.04
  C 1290.35 944.53 1292.96 922.24 1303.06 904.93
  C 1314.42 885.50 1333.17 874.54 1355.83 871.91
  Q 1391.91 867.71 1417.57 892.35
  A 0.18 0.18 0.0 0 1 1417.58 892.61
  L 1400.81 909.39
  Z"
/>
<path fill="#ffffff" d="
  M 1018.75 1013.22
  L 993.35 1013.22
  A 0.61 0.61 0.0 0 1 992.74 1012.61
  L 992.74 874.56
  A 0.72 0.72 0.0 0 1 993.45 873.84
  Q 1011.07 873.72 1062.23 874.24
  Q 1071.80 874.34 1081.41 878.30
  C 1105.42 888.20 1114.43 914.47 1106.08 938.10
  C 1101.14 952.06 1089.43 960.68 1075.20 963.68
  A 0.65 0.65 0.0 0 0 1074.85 964.75
  Q 1090.99 982.87 1115.11 1010.13
  Q 1116.07 1011.22 1116.19 1012.50
  A 0.66 0.66 0.0 0 1 1115.53 1013.22
  L 1085.69 1013.22
  A 2.43 2.41 -20.4 0 1 1083.87 1012.40
  L 1045.05 967.87
  A 3.08 3.07 69.5 0 0 1042.73 966.81
  L 1020.47 966.81
  A 1.15 1.14 -0.0 0 0 1019.32 967.95
  L 1019.32 1012.65
  A 0.57 0.57 0.0 0 1 1018.75 1013.22
  Z
  M 1019.38 899.36
  L 1019.24 942.06
  A 0.72 0.72 0.0 0 0 1019.95 942.78
  L 1060.34 942.92
  A 22.13 21.61 0.2 0 0 1082.55 921.39
  L 1082.55 920.47
  A 22.13 21.61 0.2 0 0 1060.50 898.78
  L 1020.11 898.64
  A 0.72 0.72 0.0 0 0 1019.38 899.36
  Z"
/>
<path fill="#ffffff" d="
  M 1976.23 874.27
  Q 2032.01 873.57 2044.79 873.94
  C 2067.51 874.59 2085.90 889.01 2091.03 911.03
  C 2095.40 929.77 2089.64 949.80 2074.43 961.85
  Q 2067.12 967.65 2056.58 970.58
  Q 2049.99 972.41 2036.82 972.21
  Q 2028.47 972.08 2002.88 972.10
  A 0.59 0.59 0.0 0 0 2002.29 972.69
  L 2002.29 1012.74
  A 0.49 0.49 0.0 0 1 2001.80 1013.23
  L 1976.87 1013.23
  A 0.94 0.93 -90.0 0 1 1975.94 1012.29
  L 1975.94 874.57
  A 0.30 0.30 0.0 0 1 1976.23 874.27
  Z
  M 2002.31 899.88
  L 2002.15 947.12
  A 0.81 0.81 0.0 0 0 2002.95 947.93
  L 2041.71 948.07
  A 24.61 24.24 0.2 0 0 2066.41 923.91
  L 2066.41 923.53
  A 24.61 24.24 0.2 0 0 2041.89 899.21
  L 2003.13 899.07
  A 0.81 0.81 0.0 0 0 2002.31 899.88
  Z"
/>
<path fill="#ffffff" d="
  M 2470.86 958.72
  A 0.35 0.35 0.0 0 0 2471.34 958.40
  L 2471.34 874.29
  A 0.46 0.45 -0.0 0 1 2471.80 873.84
  L 2497.36 873.84
  A 0.55 0.55 0.0 0 1 2497.91 874.39
  L 2497.91 1012.59
  A 0.65 0.65 0.0 0 1 2497.26 1013.24
  L 2482.30 1013.24
  A 2.16 2.13 -18.6 0 1 2480.60 1012.41
  L 2409.33 920.82
  A 0.39 0.39 0.0 0 0 2408.63 921.06
  L 2408.63 1012.42
  A 0.81 0.81 0.0 0 1 2407.82 1013.23
  L 2382.70 1013.23
  A 0.61 0.60 0.0 0 1 2382.09 1012.63
  L 2382.09 874.67
  A 0.56 0.56 0.0 0 1 2382.65 874.11
  L 2402.81 874.11
  A 1.90 1.90 0.0 0 1 2404.29 874.82
  Q 2469.65 957.51 2470.23 958.26
  Q 2470.46 958.56 2470.86 958.72
  Z"
/>
<path fill="#ffffff" d="
  M 98.90 900.51
  L 98.90 930.88
  A 0.58 0.58 0.0 0 0 99.48 931.46
  L 173.27 931.46
  A 0.58 0.58 0.0 0 1 173.85 932.04
  L 173.85 955.30
  A 0.58 0.58 0.0 0 1 173.27 955.88
  L 99.49 955.88
  A 0.58 0.58 0.0 0 0 98.91 956.46
  L 98.91 986.42
  A 0.58 0.58 0.0 0 0 99.49 987.00
  L 176.12 987.00
  A 0.58 0.58 0.0 0 1 176.70 987.58
  L 176.70 1012.60
  A 0.58 0.58 0.0 0 1 176.12 1013.18
  L 73.18 1013.18
  A 0.58 0.58 0.0 0 1 72.60 1012.60
  L 72.60 874.70
  A 0.58 0.58 0.0 0 1 73.18 874.12
  L 176.11 874.12
  A 0.58 0.58 0.0 0 1 176.69 874.70
  L 176.69 899.35
  A 0.58 0.58 0.0 0 1 176.11 899.93
  L 99.48 899.93
  A 0.58 0.58 0.0 0 0 98.90 900.51
  Z"
/>
<path fill="#ffffff" d="
  M 536.09 899.43
  A 0.50 0.49 90.0 0 1 535.60 899.93
  L 458.63 899.92
  A 0.43 0.43 0.0 0 0 458.20 900.35
  L 458.21 930.74
  A 0.67 0.66 0.4 0 0 458.87 931.40
  L 532.57 931.55
  A 0.71 0.70 0.4 0 1 533.27 932.25
  L 533.22 955.29
  A 0.59 0.59 0.0 0 1 532.63 955.88
  L 458.74 955.95
  A 0.52 0.51 90.0 0 0 458.23 956.47
  L 458.21 986.47
  A 0.62 0.62 0.0 0 0 458.83 987.09
  L 535.59 987.06
  A 0.50 0.50 0.0 0 1 536.09 987.56
  L 536.09 1012.75
  A 0.52 0.52 0.0 0 1 535.57 1013.27
  L 432.81 1013.29
  A 0.92 0.92 0.0 0 1 431.89 1012.37
  L 431.88 874.53
  A 0.44 0.43 90.0 0 1 432.31 874.09
  L 535.64 874.07
  A 0.44 0.43 90.0 0 1 536.07 874.51
  L 536.09 899.43
  Z"
/>
<path fill="#ffffff" d="
  M 859.87 874.13
  Q 914.65 874.16 916.44 874.25
  A 0.71 0.71 0.0 0 1 917.13 874.96
  L 917.15 897.58
  A 0.53 0.52 0.0 0 1 916.62 898.10
  L 873.70 898.10
  A 0.60 0.59 90.0 0 0 873.11 898.70
  L 873.11 1012.58
  A 0.61 0.61 0.0 0 1 872.53 1013.19
  Q 871.59 1013.23 859.80 1013.23
  Q 848.01 1013.22 847.07 1013.18
  A 0.61 0.61 0.0 0 1 846.49 1012.57
  L 846.61 898.69
  A 0.60 0.59 -89.9 0 0 846.02 898.09
  L 803.10 898.04
  A 0.53 0.52 0.1 0 1 802.57 897.52
  L 802.61 874.90
  A 0.71 0.71 0.0 0 1 803.30 874.19
  Q 805.09 874.10 859.87 874.13
  Z"
/>
<path fill="#ffffff" d="
  M 1549.94 986.92
  Q 1548.46 986.92 1514.92 986.96
  A 1.76 1.75 11.8 0 0 1513.33 987.99
  L 1502.25 1012.68
  A 0.91 0.91 0.0 0 1 1501.42 1013.22
  L 1473.84 1013.22
  A 0.47 0.47 0.0 0 1 1473.41 1012.55
  L 1535.13 874.93
  A 1.43 1.43 0.0 0 1 1536.43 874.09
  Q 1543.01 874.13 1549.93 874.13
  Q 1556.86 874.13 1563.44 874.09
  A 1.43 1.43 0.0 0 1 1564.74 874.93
  L 1626.47 1012.54
  A 0.47 0.47 0.0 0 1 1626.04 1013.21
  L 1598.46 1013.21
  A 0.91 0.91 0.0 0 1 1597.63 1012.67
  L 1586.55 987.99
  A 1.76 1.75 -11.8 0 0 1584.96 986.96
  Q 1551.42 986.92 1549.94 986.92
  Z
  M 1524.68 961.77
  A 0.36 0.36 0.0 0 0 1525.00 962.28
  L 1574.90 962.28
  A 0.36 0.36 0.0 0 0 1575.22 961.77
  L 1550.28 904.63
  A 0.36 0.36 0.0 0 0 1549.62 904.63
  L 1524.68 961.77
  Z"
/>
<path fill="#ffffff" d="
  M 1726.55 875.01
  L 1726.55 988.00
  A 0.77 0.77 0.0 0 0 1727.32 988.77
  L 1796.97 988.77
  A 0.77 0.77 0.0 0 1 1797.74 989.54
  L 1797.74 1012.44
  A 0.77 0.77 0.0 0 1 1796.97 1013.21
  L 1700.77 1013.21
  A 0.77 0.77 0.0 0 1 1700.00 1012.44
  L 1700.00 875.01
  A 0.77 0.77 0.0 0 1 1700.77 874.24
  L 1725.78 874.24
  A 0.77 0.77 0.0 0 1 1726.55 875.01
  Z"
/>
<path fill="#ffffff" d="
  M 2232.08 874.12
  Q 2239.01 874.12 2245.58 874.08
  A 1.43 1.43 0.0 0 1 2246.89 874.93
  L 2308.63 1012.59
  A 0.47 0.47 0.0 0 1 2308.20 1013.26
  L 2280.61 1013.26
  A 0.91 0.91 0.0 0 1 2279.78 1012.72
  L 2268.70 988.03
  A 1.76 1.75 -11.8 0 0 2267.10 987.00
  Q 2233.56 986.95 2232.07 986.95
  Q 2230.59 986.95 2197.04 986.99
  A 1.76 1.75 11.8 0 0 2195.45 988.03
  L 2184.37 1012.72
  A 0.91 0.91 0.0 0 1 2183.54 1013.26
  L 2155.95 1013.26
  A 0.47 0.47 0.0 0 1 2155.52 1012.59
  L 2217.26 874.93
  A 1.43 1.43 0.0 0 1 2218.57 874.08
  Q 2225.15 874.12 2232.08 874.12
  Z
  M 2206.77 961.85
  A 0.30 0.30 0.0 0 0 2207.05 962.27
  L 2257.11 962.27
  A 0.30 0.30 0.0 0 0 2257.39 961.85
  L 2232.35 904.51
  A 0.30 0.30 0.0 0 0 2231.81 904.51
  L 2206.77 961.85
  Z"
/>
<path fill="#ffffff" d="
  M 2685.20 899.44
  A 0.50 0.49 -90.0 0 1 2684.71 899.94
  L 2607.81 899.93
  A 0.43 0.43 0.0 0 0 2607.38 900.36
  L 2607.39 930.72
  A 0.67 0.66 0.4 0 0 2608.05 931.38
  L 2681.68 931.53
  A 0.71 0.70 0.4 0 1 2682.38 932.23
  L 2682.33 955.25
  A 0.59 0.59 0.0 0 1 2681.74 955.84
  L 2607.92 955.91
  A 0.52 0.51 -90.0 0 0 2607.41 956.43
  L 2607.39 986.40
  A 0.62 0.62 0.0 0 0 2608.01 987.02
  L 2684.69 987.00
  A 0.50 0.50 0.0 0 1 2685.19 987.50
  L 2685.19 1012.66
  A 0.52 0.52 0.0 0 1 2684.67 1013.18
  L 2582.00 1013.19
  A 0.92 0.92 0.0 0 1 2581.08 1012.27
  L 2581.09 874.56
  A 0.44 0.43 -90.0 0 1 2581.52 874.12
  L 2684.75 874.11
  A 0.44 0.43 -90.0 0 1 2685.18 874.55
  L 2685.20 899.44
  Z"
/>
<path fill="#ffffff" d="
  M 2764.91 874.97
  A 0.86 0.86 0.0 0 1 2765.77 874.11
  L 2790.89 874.05
  A 0.59 0.58 90.0 0 1 2791.47 874.64
  L 2791.49 987.98
  A 0.77 0.76 0.4 0 0 2792.25 988.74
  L 2862.23 988.77
  A 0.56 0.56 0.0 0 1 2862.79 989.33
  L 2862.78 1012.49
  A 0.72 0.72 0.0 0 1 2862.06 1013.21
  L 2765.57 1013.23
  A 0.67 0.67 0.0 0 1 2764.90 1012.56
  L 2764.91 874.97
  Z"
/>
<path fill="#ffffff" d="
  M 256.49 875.05
  A 0.86 0.86 0.0 0 1 257.35 874.19
  L 282.45 874.14
  A 0.59 0.58 90.0 0 1 283.03 874.73
  L 283.02 987.99
  A 0.77 0.76 0.4 0 0 283.78 988.75
  L 353.72 988.79
  A 0.56 0.56 0.0 0 1 354.28 989.35
  L 354.26 1012.50
  A 0.72 0.72 0.0 0 1 353.54 1013.22
  L 257.12 1013.22
  A 0.67 0.67 0.0 0 1 256.45 1012.55
  L 256.49 875.05
  Z"
/>
<rect fill="#ffffff" x="1186.31" y="874.16" width="26.26" height="139.06" rx="0.86"/>
</svg>
