<svg id="LOGO" xmlns="http://www.w3.org/2000/svg" viewBox="0 0 427.9463 143.8301">
    <defs>
        <style>.cls-1{fill:#fff;}</style>
    </defs>
    <path class="cls-1" d="M73.9858,2.4693H17.9995C8.8403,2.4693,1.4194,9.896,1.4194,19.0513v55.9927c0,9.1582,7.4209,16.5918,16.5801,16.5918H90.563l.0087-16.5918V19.0513c0-9.1553-7.4228-16.582-16.5859-16.582Zm-10.2314,63.3677H28.23c-4.129,0-6.3438-3.2637-6.3438-6.3379,0-3.084,2.2148-6.3487,6.3438-6.3487H63.7544c4.1211,0,6.3427,3.2647,6.3427,6.3487,0,3.0742-2.2216,6.3379-6.3427,6.3379Zm0-24.8872H28.23c-4.129,0-6.3438-3.2681-6.3438-6.3487,0-3.0781,2.2148-6.3354,6.3438-6.3354H63.7544c4.1211,0,6.3427,3.2573,6.3427,6.3354,0,3.0806-2.2216,6.3487-6.3427,6.3487Z" />
    <g>
        <path class="cls-1" d="M144.3003,91.6211h-22.1748c-3.354,0-6.1866-2.833-6.1866-6.1865V8.6753c0-3.3535,2.8326-6.1865,6.1866-6.1865h22.1748c13.5805,0,24.6308,11.002,24.6308,24.523,0,6.9546-2.9194,13.5278-8.0444,18.1963,6.0566,4.9619,9.6431,12.4316,9.6431,20.1845,0,14.4619-11.7662,26.2285-26.2295,26.2285Zm-15.9888-12.372h15.9888c7.6411,0,13.8569-6.169,13.8569-13.751,0-7.6397-6.2158-13.8555-13.8569-13.8555h-15.9888v27.6065Zm0-39.9805h15.9888c6.6997,0,12.1508-5.4971,12.1508-12.2568v-1.5118c-.7954-5.996-5.9409-10.6381-12.1508-10.6381h-15.9888v24.4067Z" />
        <path class="cls-1" d="M202.5615,92.6875c-13.4648,0-24.8428-10.8886-24.8428-23.7773v-19.7227c0-13.1118,10.667-23.7778,23.7764-23.7778s23.7803,10.666,23.7803,23.7778v7.462c0,3.3545-2.834,6.1875-6.1875,6.1875h-28.9971v6.0732c0,5.9688,5.9453,11.4033,12.4707,11.4033,4.0625,0,7.2285-1.2226,9.6797-3.7392,1.2656-1.8086,2.9678-2.7637,4.9287-2.7637,3.3476,0,6.3984,2.9482,6.3984,6.1875,0,1.2539-.3886,2.3926-1.2207,3.582v-.001c.0039,0-.4726,.8125-1.4824,1.8213-4.3144,4.6241-10.9922,7.2871-18.3037,7.2871Zm-12.4707-42.2246h22.8096v-1.2754c0-6.3955-5.0088-11.4042-11.4053-11.4042s-11.4043,5.0087-11.4043,11.4042v1.2754Z" />
        <path class="cls-1" d="M241,91.6211c-3.0742,0-6.1875-2.125-6.1875-6.1865V8.6753c0-4.062,3.1133-6.1865,6.1875-6.1865s6.1855,2.1245,6.1855,6.1865V85.4346c0,4.0615-3.1113,6.1865-6.1855,6.1865Z" />
        <path class="cls-1" d="M271.2402,91.6211c-3.0762,0-6.1875-2.125-6.1875-6.1865V38.8501h-4.6953c-4.0625,0-6.1856-3.1132-6.1856-6.1875s2.1231-6.187,6.1856-6.187h4.6953v-7.0332c0-10.2729,8.252-18.02,19.1934-18.02,9.5019,0,13.7558,4.4995,13.7558,8.959,0,3.3437-2.2929,5.8672-5.334,5.8672-1.3046,0-2.5-.3584-3.6582-1.0943-.6797-.396-2.5683-1.3584-4.7636-1.3584-5.0332,0-6.8203,3.0415-6.8203,5.6465v7.0332h13.0039c4.0625,0,6.1875,3.1133,6.1875,6.187s-2.125,6.1875-6.1875,6.1875h-13.0039v46.5845c0,4.0615-3.1114,6.1865-6.1856,6.1865h0Z" />
        <path class="cls-1" d="M310.58,91.6211c-3.0722,0-6.1855-2.125-6.1855-6.1865V32.6626c0-4.0615,3.1133-6.187,6.1855-6.187,3.0743,0,6.1875,2.1255,6.1875,6.187v52.772c0,4.0615-3.1132,6.1865-6.1875,6.1865Zm0-72.3193c-3.0722,0-6.1855-2.1255-6.1855-6.187v-4.4395c0-4.062,3.1133-6.1865,6.1855-6.1865,3.0743,0,6.1875,2.1245,6.1875,6.1865v4.4395c0,4.0615-3.1132,6.187-6.1875,6.187Z" />
        <path class="cls-1" d="M351.8222,92.6875c-13.1093,0-23.7754-10.666-23.7754-23.7773V32.6626c0-4.0615,3.1114-6.187,6.1856-6.187s6.1855,2.1255,6.1855,6.187v36.2476c0,6.3945,5.0118,11.4033,11.4043,11.4033s11.4063-5.0088,11.4063-11.4033V32.6626c0-4.0615,3.1094-6.187,6.1836-6.187s6.1875,2.1255,6.1875,6.187v36.2476c0,13.1113-10.668,23.7773-23.7774,23.7773Z" />
        <path class="cls-1" d="M403.709,92.6875c-6.4649,0-14.9727-2.9501-18.7325-8.5898-.7988-1.1416-1.209-2.3828-1.209-3.6728,0-3.2393,3.0508-6.1866,6.3985-6.1866,1.8926,0,3.7012,.9815,4.9551,2.6944l.1992,.2949c1.8222,1.9629,4.873,3.0859,8.3887,3.0859,6.8554,0,10.4414-3.751,10.4414-7.458,0-5.2041-5.4727-7.3408-11.8106-9.8135-8.0859-3.1552-18.1465-7.081-18.1465-19.3984,0-11.9707,10.1934-18.2339,20.2598-18.2339,7.3027,0,15.0059,4.0191,18.7363,9.772,.6543,.9829,.9903,2.1474,.9903,3.4516,0,3.3531-2.9317,6.1861-6.4004,6.1861-2.0664,0-3.8262-1.0313-4.9571-2.9068-2.5468-2.8554-5.1308-4.1293-8.3691-4.1293-4.7891,0-7.8867,2.3007-7.8867,5.8603,0,3.9648,4.9219,5.9043,10.6191,8.1475,8.6172,3.3935,19.3418,7.6162,19.3418,21.0644,0,12.8809-11.7578,19.832-22.8183,19.832Z" />
    </g>
    <g>
        <path class="cls-1" d="M124.063,136.0791h-6.5796c-.856,0-1.5835-.7255-1.5835-1.582v-22.7783c0-.8525,.7275-1.582,1.5835-1.582h6.5796c3.8911,0,7.0556,3.166,7.0556,7.0224,0,2.1846-.9809,4.1153-2.5307,5.4131,1.8027,1.3574,3.0048,3.544,3.0048,5.9795,0,4.1768-3.3852,7.5273-7.5297,7.5273Zm3.8911-18.8857c0-2.1533-1.7388-3.8906-3.8911-3.8906h-4.9991v7.7471h4.9991c2.1523,0,3.8608-1.7364,3.8608-3.8907l.0303,.0342Zm-3.8911,7.0234h-4.9991v8.7012h4.9991c2.4052,0,4.3667-1.9619,4.3667-4.3349,0-2.4053-1.9615-4.3663-4.3667-4.3663Z" />
        <path class="cls-1" d="M141.2036,136.3965c-3.2251,0-6.3892-1.9306-6.3892-5.7265,0-3.5117,2.9116-5.253,5.9483-5.8828l3.6381-.7901v-.9814c0-1.7715-.9174-2.9112-3.1328-2.9112-2.3418,0-2.5947,1.9297-4.0805,1.9297-.8555,0-1.584-.667-1.584-1.582,0-.5068,.2529-.9502,.5703-1.2979,1.2661-1.456,3.1641-2.2148,5.0942-2.2148,3.9244,0,6.2959,2.5322,6.2959,6.0762v7.3086c0,3.666-3.0053,6.0722-6.3603,6.0722h0Zm3.1972-9.2695l-3.3222,.7617c-2.0884,.4395-3.1001,1.5772-3.1001,2.751,0,1.5176,1.1387,2.5947,3.1938,2.5947,1.9307,0,3.2285-1.2666,3.2285-2.9101v-3.1973h0Z" />
        <path class="cls-1" d="M163.4384,136.0791c-.7905,0-1.5825-.5361-1.5825-1.582v-10.7558c0-2.0215-1.6137-3.6368-3.6386-3.6368s-3.6363,1.6153-3.6363,3.6368v10.7558c0,1.0459-.7915,1.582-1.5825,1.582-.7925,0-1.5835-.5361-1.5835-1.582v-10.7558c0-3.7637,3.0386-6.8018,6.8023-6.8018,3.7661,0,6.8027,3.0381,6.8027,6.8018v10.7558c0,1.0459-.7896,1.582-1.5816,1.582Z" />
        <path class="cls-1" d="M180.896,136.1114c-.4434,0-.8863-.1895-1.2329-.6641l-5.4747-7.2783-1.8354,2.1553v4.1728c0,1.0459-.7896,1.582-1.5806,1.582-.7915,0-1.5835-.5361-1.5835-1.582v-22.7783c0-1.0459,.792-1.582,1.5835-1.582,.791,0,1.5806,.5361,1.5806,1.582v13.7637l6.5498-7.6553c.3491-.4141,.7603-.6016,1.1704-.6016,.854,0,1.6455,.7588,1.6455,1.6123,0,.3496-.1255,.6954-.4111,1.0108l-4.9995,5.8535,5.8852,7.8486c.2534,.3174,.3482,.6641,.3482,.9463,0,.8877-.8228,1.6143-1.6455,1.6143h0Z" />
        <path class="cls-1" d="M209.9277,136.1114c-.4106,0-.853-.1895-1.1699-.5684l-1.5498-1.8027c-1.3604,1.5176-3.2276,2.625-5.6001,2.625-4.4292,0-8.0371-3.0987-8.0371-7.7217,0-3.2266,1.7407-5.2197,3.6718-6.7061-1.1084-1.3584-2.4692-3.4462-2.4692-5.3769,0-3.416,2.1196-6.71,6.0737-6.71,3.0699,0,5.7588,2.502,5.7588,5.7608,0,3.416-2.4975,5.3457-4.8393,6.9297l4.9975,5.913c.4102-1.0107,.6333-1.9287,.6333-2.0214,.1895-.8575,.8858-1.2364,1.5503-1.2364,.6963,0,1.6128,.5059,1.6128,1.4864,0,.1601-.0312,.3164-.0635,.4443-.0302,.0967-.1582,.6328-.4111,1.3936-.2529,.8242-.6001,1.6748-1.0112,2.498l2.0884,2.4668c.2529,.2861,.3784,.6641,.3784,1.0117,0,.8877-.7583,1.6143-1.6138,1.6143h0Zm-10.6611-11.7989c-1.5186,1.2002-2.5303,2.4668-2.5303,4.3311,0,2.6611,1.9922,4.5566,4.8716,4.5566,1.4868,0,2.625-.788,3.542-1.9267l-5.8833-6.961Zm1.5805-11.2949c-1.708,0-2.9096,1.168-2.9096,3.3848,0,.791,.6015,2.2803,1.708,3.5752l.1587,.1894c1.5815-1.0791,3.6377-2.4355,3.6377-4.5556,0-1.4258-1.2022-2.5938-2.5948-2.5938h0Z" />
        <path class="cls-1" d="M239.2783,112.2247l-7.5938,23.0332c-.2861,.8877-.916,1.3613-1.5205,1.3613-.5996,0-1.2011-.4736-1.4853-1.3613l-7.5938-23.0332c-.0634-.2198-.0947-.377-.0947-.5704,0-.916,.8223-1.5175,1.6455-1.5175,.6016,0,1.2022,.3164,1.4551,1.0761l6.0732,18.4776,6.1084-18.4776c.2539-.7597,.8526-1.0761,1.4551-1.0761,.8233,0,1.6465,.6015,1.6465,1.5175,0,.1934-.0342,.3506-.0957,.5704h0Z" />
        <path class="cls-1" d="M253.9824,127.5401h-8.8574v2.0537c0,1.8994,1.833,3.6406,3.9531,3.6406,1.2021,0,2.2471-.3467,3.0703-1.2051,.3486-.5048,.791-.7246,1.2637-.7246,.8232,0,1.6465,.7246,1.6465,1.583,0,.3125-.0948,.5977-.3174,.9141,0,0-.125,.2236-.4102,.5059-1.3291,1.4248-3.3232,2.0888-5.2529,2.0888-3.6377,0-7.1201-2.9414-7.1201-6.8027v-5.8525c0-3.7637,3.04-6.8018,6.8027-6.8018,3.7656,0,6.8027,3.0381,6.8027,6.8018v2.2158c0,.8545-.7275,1.583-1.581,1.583Zm-1.583-3.7988c0-2.0215-1.6133-3.6368-3.6387-3.6368s-3.6357,1.6153-3.6357,3.6368v.6328h7.2744v-.6328Z" />
        <path class="cls-1" d="M268.5283,121.4014c-.3809,0-.791-.1572-1.1377-.5068l-.0635-.0645c-.5693-.4746-1.3281-.7256-2.0556-.7256-1.8047,0-3.0069,1.2002-3.0069,3.8575v10.5351c0,1.0459-.79,1.582-1.582,1.582-.791,0-1.582-.5361-1.582-1.582v-10.5351c0-3.6983,2.0244-7.0225,6.1709-7.0225,1.455,0,3.3232,.6328,4.3974,1.7432,.3154,.3447,.4736,.7236,.4736,1.1045,0,.8554-.791,1.6142-1.6142,1.6142Z" />
        <path class="cls-1" d="M283.8056,136.0791h-10.1543c-1.0761,0-1.7089-.5654-1.7089-1.3281,0-.3476,.125-.7256,.3466-1.1074l8.4815-13.2227h-6.3936c-1.0752,0-1.582-.7919-1.582-1.583s.5068-1.582,1.582-1.582h9.3037c1.042,0,1.6758,.5713,1.6758,1.3272,0,.3486-.0957,.7304-.3496,1.1103l-8.4785,13.2246h7.2773c1.045,0,1.5821,.791,1.5821,1.5791,0,.791-.5371,1.582-1.5821,1.582h0Z" />
        <path class="cls-1" d="M300.6328,127.5401h-8.8594v2.0537c0,1.8994,1.835,3.6406,3.9541,3.6406,1.2012,0,2.2461-.3467,3.0693-1.2051,.3487-.5048,.7911-.7246,1.2666-.7246,.8204,0,1.6436,.7246,1.6436,1.583,0,.3125-.0947,.5977-.3174,.9141,0,0-.125,.2236-.4101,.5059-1.3282,1.4248-3.3213,2.0888-5.252,2.0888-3.6387,0-7.1201-2.9414-7.1201-6.8027v-5.8525c0-3.7637,3.0391-6.8018,6.8018-6.8018,3.7685,0,6.8027,3.0381,6.8027,6.8018v2.2158c0,.8545-.7276,1.583-1.5791,1.583h0Zm-1.583-3.7988c0-2.0215-1.6153-3.6368-3.6406-3.6368s-3.6358,1.6153-3.6358,3.6368v.6328h7.2764v-.6328Z" />
        <path class="cls-1" d="M317.7705,136.1114c-.4444,0-.8867-.1895-1.2334-.6641l-5.4737-7.2783-1.8369,2.1553v4.1728c0,1.0459-.789,1.582-1.58,1.582-.792,0-1.5821-.5361-1.5821-1.582v-22.7783c0-1.0459,.7901-1.582,1.5821-1.582,.791,0,1.58,.5361,1.58,1.582v13.7637l6.5508-7.6553c.3467-.4141,.7598-.6016,1.1729-.6016,.8525,0,1.6406,.7588,1.6406,1.6123,0,.3496-.1221,.6954-.4072,1.0108l-5.001,5.8535,5.8848,7.8486c.2529,.3174,.3486,.6641,.3486,.9463,0,.8877-.8252,1.6143-1.6455,1.6143h0Z" />
        <path class="cls-1" d="M334.3418,127.5401h-8.8575v2.0537c0,1.8994,1.834,3.6406,3.9541,3.6406,1.2022,0,2.2471-.3467,3.0665-1.2051,.3496-.5048,.7919-.7246,1.2675-.7246,.8233,0,1.6436,.7246,1.6436,1.583,0,.3125-.0947,.5977-.3154,.9141,0,0-.125,.2236-.4102,.5059-1.3301,1.4248-3.3223,2.0888-5.252,2.0888-3.6406,0-7.1201-2.9414-7.1201-6.8027v-5.8525c0-3.7637,3.0371-6.8018,6.8028-6.8018s6.8007,3.0381,6.8007,6.8018v2.2158c0,.8545-.7255,1.583-1.58,1.583h0Zm-1.5821-3.7988c0-2.0215-1.6123-3.6368-3.6386-3.6368-2.0244,0-3.6368,1.6153-3.6368,3.6368v.6328h7.2754v-.6328h0Z" />
        <path class="cls-1" d="M348.8906,121.4014c-.3799,0-.791-.1572-1.1377-.5068l-.0654-.0645c-.5703-.4746-1.3262-.7256-2.0537-.7256-1.8047,0-3.0069,1.2002-3.0069,3.8575v10.5351c0,1.0459-.791,1.582-1.5849,1.582-.7881,0-1.5811-.5361-1.5811-1.582v-10.5351c0-3.6983,2.0234-7.0225,6.1729-7.0225,1.455,0,3.3203,.6328,4.3945,1.7432,.3174,.3447,.4766,.7236,.4766,1.1045,0,.8554-.7911,1.6142-1.6143,1.6142h0Z" />
        <path class="cls-1" d="M354.9902,115.1983c-.79,0-1.581-.5371-1.581-1.5781v-1.9014c0-1.0459,.791-1.582,1.581-1.582,.792,0,1.5811,.5361,1.5811,1.582v1.9014c0,1.041-.7891,1.5781-1.5811,1.5781Zm0,20.8808c-.79,0-1.581-.5361-1.581-1.582v-15.6592c0-1.0459,.791-1.582,1.581-1.582,.792,0,1.5811,.5361,1.5811,1.582v15.6592c0,1.0459-.7891,1.582-1.5811,1.582Z" />
        <path class="cls-1" d="M372.7675,136.0791c-.79,0-1.582-.5361-1.582-1.582v-10.7558c0-2.0215-1.6142-3.6368-3.6377-3.6368-2.0263,0-3.6367,1.6153-3.6367,3.6368v10.7558c0,1.0459-.793,1.582-1.584,1.582-.792,0-1.583-.5361-1.583-1.582v-10.7558c0-3.7637,3.0381-6.8018,6.8037-6.8018s6.8028,3.0381,6.8028,6.8018v10.7558c0,1.0459-.7911,1.582-1.5831,1.582Z" />
        <path class="cls-1" d="M385.0029,142.4073c-1.9287,0-4.5244-.8535-5.6611-2.5938-.2217-.3174-.3194-.5996-.3194-.915,0-.8574,.8262-1.584,1.6455-1.584,.4766,0,.919,.2217,1.2676,.7266,0,0,.0303,.0341,.0947,.0966,.7569,.792,1.8975,1.1075,2.9727,1.1075,2.0234,0,3.6387-1.6143,3.6387-3.6407v-.8828c-1.043,.6631-2.3086,1.042-3.6387,1.042-3.7656,0-6.8037-3.0351-6.8037-6.8037v-5.2187c0-3.7637,3.0381-6.8018,6.8037-6.8018s6.8008,3.0381,6.8008,6.8018v11.8632c0,3.7686-3.0352,6.8028-6.8008,6.8028h0Zm3.6387-18.666c0-2.0215-1.6153-3.6368-3.6387-3.6368s-3.6367,1.6153-3.6367,3.6368v5.2187c0,2.0264,1.6123,3.6397,3.6367,3.6397s3.6387-1.6133,3.6387-3.6397v-5.2187Z" />
        <path class="cls-1" d="M407.6806,127.5401h-8.8564v2.0537c0,1.8994,1.831,3.6406,3.9512,3.6406,1.2041,0,2.2461-.3467,3.0693-1.2051,.3516-.5048,.793-.7246,1.2676-.7246,.8232,0,1.6426,.7246,1.6426,1.583,0,.3125-.0918,.5977-.3145,.9141,0,0-.127,.2236-.4121,.5059-1.3272,1.4248-3.3213,2.0888-5.2529,2.0888-3.6377,0-7.1182-2.9414-7.1182-6.8027v-5.8525c0-3.7637,3.0381-6.8018,6.8027-6.8018s6.8008,3.0381,6.8008,6.8018v2.2158c0,.8545-.7275,1.583-1.5801,1.583h0Zm-1.582-3.7988c0-2.0215-1.6133-3.6368-3.6387-3.6368-2.0234,0-3.6357,1.6153-3.6357,3.6368v.6328h7.2744v-.6328Z" />
        <path class="cls-1" d="M424.8203,136.0791c-.7901,0-1.5811-.5361-1.5811-1.582v-10.7558c0-2.0215-1.6152-3.6368-3.6386-3.6368-2.0245,0-3.6368,1.6153-3.6368,3.6368v10.7558c0,1.0459-.791,1.582-1.582,1.582-.793,0-1.582-.5361-1.582-1.582v-10.7558c0-3.7637,3.0381-6.8018,6.8008-6.8018,3.7675,0,6.8027,3.0381,6.8027,6.8018v10.7558c0,1.0459-.7891,1.582-1.583,1.582Z" />
    </g>
</svg>