<?xml version="1.0" encoding="UTF-8" standalone="no"?>
<!DOCTYPE svg PUBLIC "-//W3C//DTD SVG 1.1//EN" "http://www.w3.org/Graphics/SVG/1.1/DTD/svg11.dtd">
<svg xmlns="http://www.w3.org/2000/svg" version="1.1" viewBox="0.00 0.00 3404.00 636.00">
<path fill="#ffffff" d="
  M 183.34 576.95
  A 0.83 0.82 25.1 0 0 182.17 577.37
  C 180.63 581.38 179.74 584.32 177.34 587.50
  C 167.60 600.44 151.27 605.06 135.92 601.83
  C 124.89 599.51 114.67 591.80 111.07 581.00
  Q 109.65 576.72 109.66 562.85
  Q 109.69 371.13 109.67 112.35
  C 109.67 107.28 109.97 102.57 109.29 97.80
  A 1.94 1.93 83.9 0 0 107.25 96.15
  Q 97.55 96.80 85.79 96.61
  C 74.40 96.42 64.11 92.72 57.82 82.74
  Q 53.84 76.42 52.24 69.52
  C 51.76 67.45 52.03 62.29 52.00 57.71
  Q 51.98 54.19 53.23 50.46
  Q 58.65 34.35 73.49 29.34
  C 78.86 27.53 85.28 27.88 91.00 27.93
  Q 122.91 28.18 142.92 27.90
  Q 155.31 27.73 160.44 29.36
  C 172.06 33.06 179.42 42.92 181.72 55.18
  Q 182.20 57.75 182.20 62.88
  Q 182.20 479.56 182.17 491.60
  Q 182.17 493.65 183.75 495.22
  Q 212.65 523.85 250.66 536.08
  Q 280.35 545.64 311.29 538.07
  Q 315.46 537.05 319.52 535.51
  C 322.68 534.32 326.56 533.17 330.28 531.46
  Q 351.46 521.67 367.11 505.36
  C 385.43 486.27 397.88 461.07 403.71 435.23
  C 411.48 400.77 410.47 363.82 402.10 329.62
  C 399.03 317.05 393.69 303.71 388.11 292.76
  C 378.58 274.03 364.79 257.38 347.06 245.62
  Q 323.29 229.87 294.09 230.93
  C 279.42 231.47 266.47 234.06 252.70 237.76
  C 241.87 240.66 232.13 241.28 223.69 234.39
  C 212.05 224.89 207.71 205.82 213.07 191.84
  Q 217.92 179.19 232.37 174.63
  Q 246.01 170.33 254.32 168.64
  Q 262.95 166.88 277.00 165.33
  Q 296.56 163.19 318.25 165.06
  C 368.48 169.40 413.54 193.60 442.40 235.10
  Q 450.75 247.09 456.23 258.02
  Q 471.97 289.44 478.26 326.71
  Q 485.10 367.31 482.37 407.25
  C 479.93 442.89 469.90 478.36 452.26 509.24
  Q 424.78 557.35 377.87 584.62
  C 363.79 592.81 347.77 599.13 331.09 602.99
  C 320.05 605.54 311.22 607.81 300.50 607.93
  Q 282.94 608.13 271.25 607.73
  Q 268.72 607.64 266.17 607.10
  C 255.61 604.88 243.46 602.80 232.98 599.55
  Q 208.56 591.96 187.02 579.51
  C 185.43 578.59 184.56 577.64 183.34 576.95
  Z"
/>
<path fill="#ffffff" d="
  M 1720.78 577.95
  A 2.08 2.08 0.0 0 0 1717.81 578.84
  L 1714.25 586.39
  A 1.30 1.22 76.8 0 1 1714.10 586.65
  C 1702.60 602.17 1682.74 606.57 1665.12 599.63
  C 1661.65 598.26 1659.65 596.82 1656.60 594.37
  C 1647.56 587.13 1645.37 577.58 1645.38 566.50
  Q 1645.44 125.52 1645.39 101.62
  Q 1645.38 100.52 1645.01 97.65
  A 1.69 1.69 0.0 0 0 1643.22 96.18
  Q 1632.29 96.87 1621.75 96.57
  Q 1614.59 96.37 1607.70 94.07
  C 1599.91 91.48 1593.42 83.79 1590.61 76.44
  C 1585.91 64.19 1586.99 48.18 1596.21 38.14
  C 1601.54 32.34 1609.22 27.95 1617.25 27.98
  Q 1634.53 28.04 1682.82 27.95
  Q 1691.97 27.94 1696.50 29.40
  C 1710.68 33.95 1718.43 47.30 1718.43 62.00
  Q 1718.46 453.27 1718.41 491.69
  Q 1718.40 493.73 1719.83 495.15
  C 1742.05 517.23 1771.70 534.74 1802.99 539.99
  Q 1825.26 543.73 1847.92 537.83
  C 1880.89 529.25 1907.53 506.95 1923.76 477.04
  Q 1932.88 460.24 1937.55 442.81
  Q 1948.08 403.57 1943.60 361.93
  Q 1943.31 359.24 1941.42 347.15
  C 1938.80 330.37 1933.89 313.86 1926.99 298.74
  Q 1924.47 293.19 1918.07 282.42
  Q 1910.26 269.25 1897.79 257.24
  Q 1867.04 227.64 1824.27 231.26
  Q 1810.62 232.42 1800.68 234.69
  C 1786.71 237.88 1770.20 245.34 1757.90 232.56
  C 1743.70 217.79 1741.76 189.27 1761.27 177.60
  Q 1764.14 175.89 1770.63 173.89
  Q 1816.83 159.68 1864.76 166.25
  C 1895.52 170.47 1924.65 183.12 1948.53 202.72
  C 1953.30 206.64 1957.17 210.62 1962.34 215.59
  Q 1964.62 217.78 1967.51 221.11
  C 1985.05 241.35 1998.34 266.08 2006.19 292.06
  Q 2014.07 318.15 2016.89 343.76
  Q 2020.31 374.80 2018.73 405.25
  Q 2018.60 407.91 2017.39 418.85
  C 2014.54 444.73 2007.38 470.39 1997.11 492.38
  Q 1973.97 541.90 1931.35 573.33
  Q 1906.29 591.81 1874.57 601.20
  C 1867.04 603.42 1857.01 605.15 1849.28 606.80
  C 1846.63 607.36 1842.56 607.78 1839.21 607.86
  Q 1829.78 608.11 1811.00 607.87
  Q 1805.46 607.79 1801.52 606.95
  C 1792.85 605.08 1783.48 603.58 1775.36 601.34
  Q 1745.47 593.10 1720.78 577.95
  Z"
/>
<path fill="#ffffff" d="
  M 3064.69 383.60
  A 1.55 1.54 -0.0 0 0 3063.31 384.97
  Q 3063.03 387.63 3063.03 392.50
  Q 3062.97 529.91 3063.08 563.94
  Q 3063.12 576.07 3061.55 580.89
  Q 3058.00 591.79 3047.18 597.90
  Q 3038.85 602.60 3029.25 602.69
  C 3024.04 602.74 3019.48 602.82 3014.55 601.13
  C 3000.65 596.36 2991.13 586.00 2991.13 571.24
  Q 2991.09 309.56 2991.12 100.16
  Q 2991.12 96.07 2987.04 96.30
  Q 2976.52 96.89 2967.33 96.60
  C 2955.55 96.21 2945.34 93.31 2939.21 82.94
  Q 2928.72 65.19 2936.85 45.13
  Q 2939.71 38.05 2946.27 33.49
  C 2953.10 28.74 2957.26 27.94 2965.65 27.97
  Q 2994.19 28.04 3029.66 27.96
  Q 3037.56 27.94 3041.68 29.35
  C 3053.90 33.54 3060.95 44.27 3062.70 56.84
  Q 3063.02 59.09 3063.02 71.18
  Q 3063.05 250.62 3062.96 314.37
  A 1.35 1.34 -0.0 0 0 3064.31 315.71
  Q 3132.70 315.67 3134.50 315.61
  C 3142.56 315.34 3150.86 313.18 3156.00 307.10
  Q 3157.39 305.46 3160.24 301.64
  Q 3220.63 220.77 3260.50 167.00
  C 3272.65 150.61 3294.29 143.98 3311.74 156.48
  C 3322.80 164.41 3329.30 178.79 3325.54 192.10
  Q 3323.14 200.59 3317.66 207.50
  C 3313.79 212.37 3310.06 217.25 3307.21 220.96
  Q 3241.39 306.76 3197.33 364.30
  A 2.07 2.07 0.0 0 0 3197.18 366.58
  Q 3244.96 449.61 3290.39 528.03
  C 3291.75 530.37 3291.58 532.11 3295.27 532.02
  Q 3297.13 531.97 3314.80 531.78
  Q 3325.79 531.66 3330.03 533.07
  C 3341.66 536.93 3348.38 545.41 3351.66 557.08
  A 6.46 6.16 -54.4 0 1 3351.89 558.70
  Q 3352.09 569.55 3351.87 571.84
  Q 3351.34 577.44 3347.54 584.54
  C 3341.94 595.00 3330.92 600.36 3319.51 600.33
  Q 3304.36 600.28 3278.25 600.28
  Q 3269.38 600.28 3264.08 598.68
  C 3253.39 595.44 3246.84 588.78 3240.58 579.71
  Q 3234.81 571.33 3225.52 554.25
  C 3223.27 550.11 3220.26 545.31 3217.82 540.95
  Q 3202.32 513.19 3198.05 505.78
  Q 3181.92 477.81 3181.92 477.80
  Q 3162.23 443.65 3130.29 388.14
  Q 3128.54 385.10 3128.19 384.61
  A 2.73 2.71 67.2 0 0 3125.50 383.50
  C 3123.37 383.86 3121.88 384.15 3120.15 384.15
  Q 3097.97 384.18 3071.80 384.15
  C 3069.37 384.14 3066.13 383.46 3064.69 383.60
  Z"
/>
<path fill="#cccccc" d="
  M 1466.36 551.86
  Q 1441.81 569.93 1414.74 581.95
  Q 1395.07 590.69 1372.75 596.98
  C 1356.31 601.62 1338.91 604.27 1323.00 606.71
  Q 1316.60 607.70 1309.26 607.83
  Q 1289.33 608.19 1263.27 607.82
  Q 1260.07 607.77 1255.46 607.06
  Q 1240.30 604.70 1239.63 604.60
  Q 1178.45 595.76 1126.24 563.60
  Q 1120.01 559.76 1115.90 556.70
  C 1111.42 553.37 1107.52 550.97 1102.60 547.00
  Q 1084.83 532.64 1073.15 520.21
  Q 1033.93 478.47 1015.25 427.21
  Q 1005.96 401.74 1002.42 380.76
  Q 998.44 357.22 997.73 339.24
  C 997.04 321.73 997.50 300.74 1000.50 280.06
  Q 1002.91 263.42 1006.00 251.18
  Q 1026.78 168.81 1088.52 112.00
  Q 1097.84 103.43 1112.55 92.56
  Q 1125.38 83.08 1138.47 75.74
  Q 1200.22 41.09 1272.18 37.94
  C 1279.97 37.60 1285.61 36.82 1291.50 37.27
  Q 1292.31 37.34 1311.75 38.51
  Q 1317.69 38.87 1330.01 40.73
  Q 1345.55 43.08 1360.62 49.59
  C 1377.66 56.94 1390.15 71.13 1389.56 90.49
  C 1388.84 114.15 1374.16 134.47 1348.30 132.71
  Q 1347.67 132.67 1341.37 131.55
  C 1332.68 130.01 1321.31 124.99 1311.40 123.39
  C 1304.67 122.31 1296.40 121.62 1290.67 121.22
  Q 1286.27 120.91 1282.35 121.41
  C 1278.65 121.88 1274.80 121.59 1271.23 121.85
  Q 1222.58 125.40 1181.20 148.95
  Q 1133.79 175.94 1107.21 224.20
  Q 1105.46 227.37 1101.05 236.77
  Q 1097.63 244.04 1095.65 249.66
  Q 1085.40 278.61 1083.45 304.99
  Q 1081.63 329.48 1084.22 352.05
  Q 1086.42 371.18 1093.21 392.13
  Q 1099.35 411.09 1109.80 429.21
  Q 1112.28 433.50 1115.18 437.41
  C 1117.73 440.86 1119.92 444.67 1122.65 448.18
  Q 1138.12 468.07 1158.17 483.37
  C 1162.01 486.31 1166.39 489.04 1170.82 492.15
  Q 1174.65 494.82 1175.95 495.57
  Q 1206.48 513.10 1241.11 520.78
  C 1246.27 521.92 1252.65 522.51 1258.33 523.62
  Q 1260.27 523.99 1265.27 524.45
  Q 1298.18 527.43 1330.40 521.65
  Q 1333.75 521.05 1341.90 518.97
  C 1346.94 517.68 1351.57 516.75 1357.10 514.91
  Q 1385.25 505.56 1407.91 490.35
  Q 1434.49 472.51 1453.88 447.35
  C 1475.68 419.05 1488.83 383.28 1492.35 347.78
  Q 1493.06 340.61 1493.09 336.15
  C 1493.14 330.78 1494.02 325.98 1493.57 320.62
  C 1492.96 313.19 1492.98 307.07 1491.98 299.81
  C 1489.37 280.73 1485.29 263.61 1477.97 246.30
  Q 1475.94 241.51 1475.21 235.10
  Q 1472.69 212.95 1489.10 198.06
  C 1499.36 188.74 1513.72 186.25 1526.64 189.15
  C 1540.38 192.24 1550.99 203.67 1557.66 215.83
  Q 1561.65 223.09 1566.00 234.81
  Q 1568.67 242.02 1571.42 254.77
  Q 1574.36 268.41 1575.21 276.02
  Q 1576.10 283.99 1576.77 289.52
  Q 1577.74 297.56 1577.98 303.03
  Q 1578.79 321.55 1578.21 338.75
  Q 1577.80 351.06 1576.23 361.50
  Q 1574.56 372.70 1574.42 374.07
  C 1573.60 382.28 1571.58 387.75 1570.10 395.93
  Q 1569.30 400.36 1567.82 405.23
  Q 1559.61 432.20 1549.79 452.08
  Q 1537.16 477.67 1518.34 501.85
  Q 1496.90 529.40 1466.36 551.86
  Z"
/>
<path fill="#ffffff" d="
  M 875.47 337.89
  Q 875.38 334.02 874.84 329.94
  Q 874.82 329.78 873.70 322.03
  Q 870.14 297.31 856.08 276.65
  C 844.46 259.57 825.15 246.65 805.04 240.01
  Q 793.89 236.34 784.77 234.80
  Q 750.25 228.99 719.33 234.45
  C 694.36 238.85 669.85 250.26 651.42 267.67
  C 646.74 272.10 641.31 277.41 637.04 283.23
  C 629.45 293.59 622.56 305.15 617.98 317.61
  Q 606.71 348.26 606.84 382.08
  C 607.01 427.32 623.02 469.62 656.21 500.28
  Q 681.37 523.52 714.07 533.66
  C 719.13 535.23 729.15 538.07 735.70 538.82
  C 740.42 539.36 744.79 540.34 749.54 540.71
  C 777.24 542.87 805.96 540.64 831.73 530.72
  C 842.84 526.44 854.19 520.38 863.75 512.66
  C 870.11 507.51 872.61 505.67 879.75 499.56
  C 885.44 494.69 890.61 490.54 896.99 487.73
  C 903.66 484.78 909.11 484.65 915.88 487.22
  Q 932.09 493.36 939.06 510.17
  Q 942.03 517.31 940.55 526.55
  Q 938.99 536.22 932.05 542.78
  Q 925.79 548.69 913.21 558.66
  Q 871.82 591.45 818.92 602.63
  Q 805.22 605.53 793.50 607.03
  C 781.13 608.61 768.10 608.05 750.80 607.98
  Q 740.42 607.94 730.80 606.37
  Q 711.61 603.24 699.37 600.16
  Q 662.33 590.83 630.80 570.18
  C 586.94 541.46 555.35 497.60 541.34 447.21
  C 533.52 419.09 530.83 387.72 533.85 357.22
  Q 535.31 342.51 536.29 337.76
  Q 539.02 324.51 540.22 319.76
  Q 554.12 264.83 591.89 225.98
  Q 612.71 204.56 638.48 190.82
  C 684.00 166.54 738.17 159.43 789.26 167.19
  Q 817.67 171.50 842.13 182.16
  Q 874.37 196.21 898.44 219.84
  Q 908.31 229.52 917.97 243.19
  C 936.05 268.75 946.08 299.18 948.42 330.53
  C 949.52 345.36 949.18 360.02 949.17 373.75
  C 949.14 399.07 934.11 407.93 910.85 407.94
  Q 842.05 407.94 666.75 407.94
  C 661.20 407.94 654.66 406.14 649.82 402.64
  C 638.79 394.69 634.78 382.19 636.20 368.76
  C 637.60 355.48 645.40 344.87 658.17 340.86
  Q 663.01 339.34 678.51 339.35
  Q 803.61 339.38 873.99 339.40
  A 1.48 1.47 -0.8 0 0 875.47 337.89
  Z"
/>
<path fill="#ffffff" d="
  M 2354.62 562.01
  C 2353.17 562.52 2349.77 564.21 2348.24 565.17
  Q 2334.39 573.88 2320.33 580.79
  Q 2310.74 585.50 2295.65 591.34
  Q 2277.69 598.29 2264.55 601.30
  Q 2245.20 605.73 2235.69 607.13
  C 2233.05 607.52 2230.13 607.89 2227.75 607.91
  Q 2198.09 608.09 2193.25 607.72
  Q 2186.96 607.22 2169.50 603.79
  C 2150.59 600.08 2131.72 593.11 2115.60 582.13
  Q 2077.48 556.17 2070.58 510.26
  Q 2067.99 493.03 2070.42 474.92
  Q 2073.96 448.52 2088.23 428.14
  Q 2102.07 408.37 2123.94 394.20
  Q 2142.40 382.24 2163.26 374.51
  Q 2178.51 368.85 2189.40 365.95
  C 2203.06 362.31 2218.25 358.91 2233.19 356.57
  Q 2262.82 351.94 2294.44 349.92
  Q 2301.86 349.44 2307.97 350.80
  C 2319.28 353.32 2325.36 360.94 2327.54 372.34
  Q 2330.04 385.45 2326.04 396.54
  Q 2322.29 406.89 2309.98 410.73
  C 2306.55 411.80 2300.13 412.85 2295.72 413.32
  Q 2275.04 415.50 2247.76 419.09
  C 2228.76 421.60 2209.35 425.21 2191.33 431.59
  C 2179.80 435.67 2167.74 442.19 2159.69 451.17
  Q 2148.94 463.15 2146.40 479.48
  C 2145.50 485.32 2145.34 493.77 2146.50 499.82
  C 2151.03 523.50 2170.60 534.98 2193.01 539.12
  C 2221.79 544.45 2252.27 540.13 2279.64 530.15
  Q 2313.88 517.65 2343.46 496.70
  Q 2349.66 492.31 2354.44 487.85
  A 4.32 4.30 -24.7 0 0 2355.79 484.22
  Q 2355.52 481.79 2355.52 480.50
  Q 2355.35 337.42 2355.46 336.25
  Q 2355.59 334.76 2355.00 320.26
  Q 2354.21 301.07 2349.05 284.19
  Q 2346.86 277.05 2342.31 268.30
  C 2333.03 250.44 2316.66 239.64 2297.58 234.73
  C 2287.44 232.13 2275.10 230.97 2263.40 230.86
  Q 2243.06 230.68 2224.54 233.11
  Q 2209.14 235.12 2196.43 240.18
  C 2183.38 245.37 2172.98 255.03 2169.64 269.16
  C 2168.40 274.38 2168.96 282.26 2167.51 287.56
  C 2163.98 300.44 2152.28 308.16 2139.41 310.15
  Q 2122.58 312.75 2109.43 303.40
  C 2100.16 296.80 2097.37 287.98 2097.28 276.99
  Q 2097.14 258.31 2103.92 240.43
  C 2114.82 211.72 2140.44 191.05 2168.33 180.08
  Q 2180.23 175.40 2190.85 172.64
  C 2224.11 164.01 2259.50 162.33 2293.74 165.83
  C 2313.87 167.88 2333.29 172.30 2351.62 180.62
  C 2380.34 193.65 2401.73 216.96 2413.00 246.23
  C 2420.12 264.71 2423.69 282.41 2425.75 302.60
  Q 2426.91 313.90 2426.90 333.51
  Q 2426.78 505.85 2426.93 525.74
  Q 2426.97 530.60 2426.96 530.83
  A 1.27 1.27 0.0 0 0 2428.27 532.11
  Q 2436.95 531.84 2450.74 531.77
  C 2459.92 531.72 2467.67 533.35 2474.00 539.58
  C 2479.93 545.42 2483.08 550.94 2484.44 559.19
  Q 2485.33 564.57 2485.17 567.23
  Q 2484.80 573.28 2482.24 580.24
  Q 2476.98 594.52 2461.79 599.07
  Q 2457.81 600.26 2449.74 600.27
  Q 2426.07 600.28 2390.00 600.29
  C 2387.47 600.29 2383.16 600.15 2380.52 599.54
  C 2366.15 596.21 2357.68 585.68 2355.67 571.29
  Q 2355.24 568.23 2356.06 564.77
  Q 2356.31 563.69 2355.45 562.30
  A 0.70 0.70 0.0 0 0 2354.62 562.01
  Z"
/>
<path fill="#ffffff" d="
  M 2610.78 209.94
  A 0.85 0.85 0.0 0 0 2612.08 210.32
  C 2617.40 206.38 2624.43 200.15 2631.30 195.66
  Q 2653.69 181.01 2679.08 173.14
  Q 2704.37 165.30 2728.28 164.33
  C 2757.15 163.15 2786.94 169.01 2812.54 182.48
  Q 2838.48 196.11 2855.90 220.27
  C 2874.91 246.62 2881.29 278.50 2881.29 310.70
  Q 2881.27 493.43 2881.30 526.00
  Q 2881.31 528.52 2881.51 530.37
  A 1.77 1.76 -2.9 0 0 2883.26 531.94
  Q 2888.14 531.98 2901.30 531.75
  Q 2913.46 531.54 2919.00 533.56
  Q 2929.03 537.20 2934.24 545.32
  C 2941.22 556.21 2941.77 570.54 2936.68 582.12
  C 2931.76 593.33 2920.16 600.26 2907.99 600.27
  Q 2857.74 600.30 2842.75 600.27
  C 2830.27 600.23 2819.71 595.23 2813.85 583.89
  C 2810.13 576.68 2809.55 569.42 2809.55 560.40
  Q 2809.63 331.80 2809.49 309.26
  Q 2809.44 301.51 2807.53 291.70
  C 2803.63 271.63 2792.38 254.79 2774.72 244.34
  C 2755.80 233.13 2732.69 230.21 2711.53 232.66
  Q 2668.73 237.60 2635.31 265.06
  Q 2625.14 273.42 2617.98 283.75
  C 2615.94 286.69 2616.72 290.67 2616.76 294.60
  Q 2616.80 299.57 2616.81 560.96
  Q 2616.81 575.82 2615.36 580.41
  Q 2611.53 592.53 2599.35 598.81
  C 2595.49 600.80 2593.08 601.32 2588.35 602.12
  Q 2573.02 604.70 2560.19 597.40
  C 2549.87 591.53 2544.97 581.29 2544.97 569.25
  Q 2544.97 295.29 2544.99 253.50
  Q 2545.00 248.97 2544.83 246.73
  Q 2544.63 243.84 2541.78 244.05
  Q 2537.83 244.35 2519.76 244.30
  Q 2508.72 244.27 2500.84 238.50
  Q 2492.07 232.08 2488.98 221.84
  C 2482.01 198.80 2494.85 174.71 2520.74 174.75
  Q 2545.66 174.78 2578.75 174.75
  Q 2581.56 174.74 2586.64 175.79
  C 2599.56 178.47 2608.37 189.46 2610.48 202.07
  C 2610.92 204.75 2609.90 207.61 2610.78 209.94
  Z"
/>
</svg>
