<svg width="2869" height="720" viewBox="0 0 2869 720" fill="none" xmlns="http://www.w3.org/2000/svg">
<g clip-path="url(#clip0_952_1625)">
<path d="M1979.51 248.553H2069.08V570.727H1973.83L1765.36 362.258V570.727H1675.46V248.554L1771.52 248.553L1979.51 456.568V248.553ZM853.715 471.702C853.715 545.142 791.648 570.725 718.686 570.725H497.427V248.551H718.214C793.546 248.551 832.867 276.981 832.867 328.619C832.867 355.155 820.078 377.42 792.597 390.213C828.604 402.535 853.715 426.697 853.715 471.702ZM584.02 372.675H708.164C736.539 372.675 748.227 362.657 748.227 343.739C748.227 324.822 736.539 314.805 708.164 314.805H584.02V372.675ZM765.727 464.443C765.727 437.257 748.67 425.527 711.353 425.527H583.994V504.426H711.353C748.67 504.426 765.727 492.697 765.727 464.443ZM988.843 499.794V431.318H1213.64V372.343H988.843V319.484H1213.64V248.552H902.364V570.726H1213.64V499.794H988.843ZM2219.6 499.79V431.314H2444.4V372.339H2219.6V319.479H2444.4V248.552H2133.12V570.726H2444.39V499.789L2219.6 499.79ZM1637.6 570.724H1525.78L1402.55 447.544H1363.19V570.724H1276.57V248.554H1481.72C1579.79 248.554 1625.28 282.191 1625.28 348.989C1625.28 397.322 1600.17 428.117 1545.68 440.907L1534.7 443.122C1534.69 443.122 1534.65 443.109 1534.64 443.109C1527.81 444.304 1520.51 445.258 1512.87 446.004L1637.6 570.724ZM1490.72 382.295C1513.99 382.295 1537.76 378.394 1537.76 349.466C1537.76 321.032 1515.15 317.113 1490.72 317.113H1363.14V382.295H1490.72ZM2868.35 570.725H2756.54L2633.3 447.545H2593.95V570.725H2507.32V248.555H2712.47C2810.54 248.555 2856.03 282.193 2856.03 348.99C2856.03 397.324 2830.92 428.119 2776.43 440.908L2765.45 443.123C2765.44 443.123 2765.4 443.11 2765.39 443.11C2758.56 444.306 2751.26 445.259 2743.62 446.005L2868.35 570.725ZM2721.47 382.297C2744.74 382.297 2768.51 378.395 2768.51 349.467C2768.51 321.033 2745.9 317.115 2721.47 317.115H2593.89V382.297H2721.47Z" fill="white"/>
<path d="M302.945 408.407L203.43 308.905V180.299L393.66 370.572L393.661 570.626L302.945 661.34V408.407Z" fill="white"/>
<path d="M0 480.011L0.001 90.721L90.715 0L90.839 442.675L239.987 591.825V720L0 480.011Z" fill="white"/>
</g>
<defs>
<clipPath id="clip0_952_1625">
<rect width="2868.35" height="720" fill="white"/>
</clipPath>
</defs>
</svg>
