<?xml version="1.0" encoding="UTF-8" standalone="no"?>
<!DOCTYPE svg PUBLIC "-//W3C//DTD SVG 1.1//EN" "http://www.w3.org/Graphics/SVG/1.1/DTD/svg11.dtd">
<svg xmlns="http://www.w3.org/2000/svg" version="1.1" viewBox="0.00 0.00 1458.00 294.00">
<rect fill="#ffffff" x="-15.79" y="-24.57" transform="translate(93.62,54.00) rotate(25.0)" width="31.58" height="49.14" rx="14.97"/>
<path fill="#f0f0f0" d="
  M 154.35 125.79
  Q 156.70 125.99 158.25 125.99
  Q 175.13 126.01 236.00 125.97
  C 246.92 125.97 257.26 115.38 258.23 104.71
  C 259.49 90.79 249.13 78.19 234.75 78.02
  Q 217.95 77.82 181.75 77.97
  Q 179.89 77.98 177.15 77.59
  C 171.48 76.78 165.75 71.68 163.09 67.18
  C 157.87 58.32 160.06 50.36 164.72 41.95
  C 168.72 34.74 177.37 29.89 185.49 29.96
  Q 197.60 30.07 230.19 29.94
  Q 241.78 29.90 249.03 31.51
  Q 273.74 37.01 289.51 55.76
  C 307.03 76.58 311.39 105.56 300.48 130.68
  Q 299.12 133.82 300.36 137.39
  Q 300.99 139.19 304.57 142.61
  Q 312.43 150.12 313.63 151.62
  Q 331.03 173.37 330.48 199.05
  C 329.77 232.74 306.92 260.59 274.23 268.22
  Q 266.90 269.93 262.76 269.96
  Q 245.20 270.07 222.00 269.99
  C 214.28 269.96 206.55 265.05 202.67 258.93
  C 195.31 247.31 198.83 233.63 209.88 225.84
  Q 215.13 222.14 222.50 222.11
  Q 239.15 222.03 258.25 222.05
  C 272.07 222.06 283.08 210.48 282.36 196.72
  C 281.69 183.95 271.15 174.04 258.25 173.98
  C 240.52 173.89 207.52 174.38 170.16 173.92
  Q 163.15 173.84 159.46 172.07
  Q 153.86 169.38 150.56 165.16
  Q 141.00 152.97 147.76 138.64
  Q 153.38 126.72 153.54 126.30
  A 0.80 0.79 12.6 0 1 154.35 125.79
  Z"
/>
<path fill="#ffffff" d="
  M 813.12 152.86
  A 0.26 0.26 0.0 0 1 812.91 153.28
  L 790.85 153.28
  A 3.92 3.92 0.0 0 1 788.00 152.05
  Q 787.24 151.25 785.90 149.58
  Q 757.55 114.21 753.29 108.82
  A 0.65 0.64 46.6 0 0 752.30 108.79
  Q 750.89 110.38 749.65 111.39
  Q 744.14 115.90 733.17 124.39
  Q 731.86 125.41 731.84 127.76
  Q 731.73 149.03 731.69 152.76
  A 0.50 0.49 -89.4 0 1 731.20 153.25
  L 712.88 153.25
  A 1.01 1.00 -87.9 0 1 711.88 152.17
  Q 712.18 148.07 712.18 147.75
  Q 712.24 134.56 712.22 75.25
  Q 712.22 72.59 712.72 61.21
  A 0.72 0.71 -2.9 0 1 713.34 60.53
  Q 722.17 59.31 730.86 60.39
  A 1.09 1.09 0.0 0 1 731.81 61.47
  L 731.81 102.61
  A 1.14 1.14 0.0 0 0 733.63 103.53
  Q 734.86 102.64 736.37 100.94
  A 0.70 0.48 -8.0 0 1 736.49 100.83
  L 787.10 60.61
  A 2.92 2.90 -64.2 0 1 788.92 59.97
  L 813.18 59.97
  A 0.38 0.37 -64.1 0 1 813.41 60.64
  L 768.05 96.69
  A 1.07 1.07 0.0 0 0 767.89 98.21
  L 813.12 152.86
  Z"
/>
<path fill="#ffffff" d="
  M 978.49 60.36
  Q 987.35 59.38 996.11 60.29
  A 0.91 0.90 2.8 0 1 996.93 61.19
  L 996.93 134.49
  A 0.91 0.91 0.0 0 0 997.84 135.40
  L 1055.85 135.40
  A 1.25 1.25 0.0 0 1 1057.10 136.65
  L 1057.10 152.45
  A 0.68 0.68 0.0 0 1 1056.42 153.13
  Q 1020.99 153.29 986.00 153.15
  Q 984.53 153.15 978.32 152.74
  A 0.62 0.61 87.7 0 1 977.75 152.21
  Q 977.54 150.66 977.53 149.00
  Q 977.35 91.01 977.38 85.65
  Q 977.45 69.36 977.80 61.09
  A 0.77 0.77 0.0 0 1 978.49 60.36
  Z"
/>
<path fill="#ffffff" d="
  M 460.88 152.25
  L 460.88 61.34
  A 1.17 1.16 -0.8 0 1 462.02 60.18
  Q 487.71 59.71 516.81 60.14
  C 523.20 60.23 531.93 61.60 538.12 65.12
  C 547.92 70.71 551.60 80.57 547.27 91.55
  Q 544.62 98.29 537.41 100.90
  Q 536.73 101.14 536.31 101.77
  A 1.03 1.02 31.3 0 0 536.67 103.23
  C 538.26 104.12 540.70 104.69 542.51 105.80
  Q 555.90 114.01 553.61 129.96
  C 551.12 147.25 533.78 153.13 518.50 153.25
  Q 492.16 153.45 466.99 153.11
  Q 465.47 153.09 461.40 152.80
  A 0.55 0.55 0.0 0 1 460.88 152.25
  Z
  M 479.85 78.48
  L 479.89 95.82
  A 1.27 1.27 0.0 0 0 481.16 97.09
  L 514.46 97.03
  A 15.13 9.90 -0.1 0 0 529.57 87.11
  L 529.57 87.03
  A 15.13 9.90 -0.1 0 0 514.42 77.15
  L 481.12 77.21
  A 1.27 1.27 0.0 0 0 479.85 78.48
  Z
  M 479.79 114.80
  L 479.79 134.46
  A 1.63 1.63 0.0 0 0 481.42 136.09
  L 517.84 136.09
  A 16.51 10.59 -0.0 0 0 534.35 125.50
  L 534.35 123.76
  A 16.51 10.59 -0.0 0 0 517.84 113.17
  L 481.42 113.17
  A 1.63 1.63 0.0 0 0 479.79 114.80
  Z"
/>
<path fill="#ffffff" d="
  M 664.11 77.35
  A 0.72 0.72 0.0 0 1 663.39 78.07
  L 640.67 78.07
  A 1.09 1.09 0.0 0 0 639.58 79.10
  Q 639.31 84.64 639.38 89.13
  Q 639.75 111.63 639.34 124.25
  Q 639.17 129.25 640.02 133.63
  A 1.20 1.20 0.0 0 0 640.96 134.58
  C 647.87 135.99 653.13 135.37 663.07 135.42
  A 1.00 1.00 0.0 0 1 664.07 136.42
  L 664.07 152.82
  A 0.35 0.34 0.0 0 1 663.72 153.16
  L 596.07 153.16
  A 0.69 0.68 0.0 0 1 595.38 152.48
  L 595.38 135.85
  A 0.50 0.50 0.0 0 1 595.86 135.35
  Q 603.41 135.09 613.24 135.30
  Q 616.64 135.37 619.14 134.61
  A 0.80 0.77 88.3 0 0 619.68 134.02
  Q 620.16 131.63 620.09 128.12
  Q 619.83 114.70 619.86 99.49
  C 619.87 92.54 620.49 86.31 619.85 79.50
  A 1.64 1.63 -2.7 0 0 618.22 78.02
  L 596.40 78.02
  A 1.03 1.03 0.0 0 1 595.37 76.99
  L 595.37 60.45
  A 0.41 0.41 0.0 0 1 595.78 60.04
  L 663.07 60.04
  A 1.04 1.04 0.0 0 1 664.11 61.08
  L 664.11 77.35
  Z"
/>
<path fill="#ffffff" d="
  M 935.02 153.01
  A 0.22 0.21 90.0 0 1 934.81 153.23
  L 854.04 153.28
  A 0.58 0.58 0.0 0 1 853.46 152.70
  L 853.41 61.24
  A 1.12 1.11 -0.3 0 1 854.52 60.13
  Q 890.69 59.74 927.88 60.15
  Q 930.10 60.17 932.86 60.54
  A 1.14 1.14 0.0 0 1 933.85 61.67
  L 933.86 76.86
  A 0.52 0.51 90.0 0 1 933.35 77.38
  L 873.82 77.41
  A 1.27 1.27 0.0 0 0 872.55 78.68
  L 872.56 95.88
  A 1.41 1.40 90.0 0 0 873.97 97.29
  L 926.70 97.26
  A 0.87 0.87 0.0 0 1 927.57 98.13
  L 927.58 113.31
  A 0.76 0.76 0.0 0 1 926.82 114.07
  L 874.07 114.10
  A 1.20 1.20 0.0 0 0 872.87 115.16
  Q 871.79 124.41 872.84 135.23
  A 0.70 0.70 0.0 0 0 873.54 135.86
  L 934.26 135.83
  A 0.76 0.75 90.0 0 1 935.01 136.59
  L 935.02 153.01
  Z"
/>
<path fill="#ffffff" d="
  M 1098.20 61.36
  A 1.15 1.15 0.0 0 1 1099.33 60.21
  Q 1127.84 59.72 1162.00 60.18
  Q 1164.57 60.22 1166.44 60.54
  A 0.77 0.77 0.0 0 1 1167.08 61.30
  L 1167.08 77.26
  A 0.78 0.78 0.0 0 1 1166.30 78.04
  L 1143.36 78.04
  A 0.94 0.94 0.0 0 0 1142.42 78.98
  L 1142.42 133.96
  A 1.10 1.10 0.0 0 0 1143.49 135.06
  L 1166.25 135.69
  A 0.79 0.78 -89.3 0 1 1167.01 136.48
  L 1167.01 152.06
  A 0.81 0.80 89.3 0 1 1166.23 152.87
  Q 1140.48 153.59 1102.75 153.08
  Q 1101.04 153.06 1098.71 152.65
  A 0.65 0.65 0.0 0 1 1098.17 152.01
  L 1098.17 135.93
  A 0.70 0.70 0.0 0 1 1098.87 135.23
  L 1121.54 135.23
  A 1.21 1.21 0.0 0 0 1122.75 134.00
  Q 1122.51 108.14 1122.77 79.75
  Q 1122.79 77.79 1120.71 77.96
  Q 1120.48 77.97 1119.79 77.99
  Q 1107.46 78.25 1099.15 77.90
  A 0.99 0.99 0.0 0 1 1098.20 76.91
  L 1098.20 61.36
  Z"
/>
<path fill="#ffffff" d="
  M 1215.90 60.46
  Q 1224.51 59.98 1228.75 59.98
  Q 1254.21 59.96 1282.50 60.08
  Q 1287.51 60.10 1292.05 60.63
  A 1.10 1.09 -86.8 0 1 1293.02 61.72
  L 1293.02 77.05
  A 0.80 0.79 -90.0 0 1 1292.23 77.85
  L 1235.56 77.85
  A 0.89 0.89 0.0 0 0 1234.67 78.72
  C 1234.50 89.03 1234.14 93.94 1235.07 99.34
  A 0.88 0.87 -2.1 0 0 1235.86 100.07
  Q 1241.66 100.54 1245.25 100.50
  Q 1253.91 100.39 1286.63 100.42
  A 0.59 0.58 -0.0 0 1 1287.22 101.00
  L 1287.22 116.76
  A 0.68 0.67 -0.0 0 1 1286.54 117.43
  L 1235.77 117.43
  A 1.06 1.05 -90.0 0 0 1234.72 118.49
  L 1234.72 152.82
  A 0.41 0.40 0.0 0 1 1234.31 153.22
  L 1216.04 153.22
  A 0.83 0.83 0.0 0 1 1215.21 152.39
  L 1215.21 61.20
  A 0.74 0.73 88.4 0 1 1215.90 60.46
  Z"
/>
<path fill="#ffffff" d="
  M 1415.58 153.00
  A 0.22 0.21 90.0 0 1 1415.37 153.22
  L 1334.67 153.22
  A 0.58 0.58 0.0 0 1 1334.09 152.64
  L 1334.09 61.26
  A 1.12 1.11 -0.3 0 1 1335.20 60.15
  Q 1371.34 59.78 1408.50 60.21
  Q 1410.72 60.23 1413.47 60.61
  A 1.14 1.14 0.0 0 1 1414.46 61.74
  L 1414.46 76.91
  A 0.52 0.51 90.0 0 1 1413.95 77.43
  L 1354.48 77.43
  A 1.27 1.27 0.0 0 0 1353.21 78.70
  L 1353.21 95.88
  A 1.41 1.40 90.0 0 0 1354.61 97.29
  L 1407.30 97.29
  A 0.87 0.87 0.0 0 1 1408.17 98.16
  L 1408.17 113.33
  A 0.76 0.76 0.0 0 1 1407.41 114.09
  L 1354.70 114.09
  A 1.20 1.20 0.0 0 0 1353.51 115.14
  Q 1352.42 124.38 1353.46 135.20
  A 0.70 0.70 0.0 0 0 1354.16 135.83
  L 1414.83 135.83
  A 0.76 0.75 90.0 0 1 1415.58 136.59
  L 1415.58 153.00
  Z"
/>
<path fill="#ffffff" d="
  M 72.89 269.66
  Q 60.97 266.52 55.00 256.00
  Q 48.89 245.21 43.02 234.75
  Q 38.51 226.69 39.25 218.42
  Q 39.69 213.58 44.32 203.24
  Q 88.54 104.51 93.93 92.20
  C 97.52 84.00 104.97 78.11 113.96 77.94
  C 127.09 77.68 138.13 89.47 136.45 102.64
  Q 136.02 106.00 132.63 113.54
  Q 106.15 172.50 100.64 185.12
  C 94.03 200.28 103.40 217.58 119.03 221.36
  Q 123.13 222.36 132.51 222.05
  Q 132.89 222.04 141.53 222.03
  Q 147.28 222.03 150.43 223.03
  C 164.16 227.36 171.48 242.70 165.12 256.10
  Q 160.08 266.73 147.37 269.87
  A 4.11 3.91 -50.9 0 1 146.36 270.00
  L 75.50 269.99
  A 10.58 10.32 -37.1 0 1 72.89 269.66
  Z"
/>
<path fill="#ffffff" d="
  M 815.81 222.67
  A 2.56 2.56 0.0 0 1 819.36 222.61
  Q 827.23 229.93 838.25 228.98
  Q 845.20 228.38 848.14 223.43
  A 1.25 1.23 53.3 0 0 848.27 222.49
  C 847.34 218.73 841.74 217.20 838.44 216.84
  C 831.41 216.07 823.89 215.33 818.64 210.86
  C 812.83 205.92 813.20 197.81 819.00 192.96
  C 825.45 187.56 835.72 187.06 843.49 188.79
  Q 849.56 190.14 854.31 194.28
  A 2.35 2.35 0.0 0 1 854.43 197.71
  L 851.76 200.37
  A 2.26 2.24 42.3 0 1 848.72 200.50
  Q 839.80 193.02 827.43 196.90
  Q 824.52 197.81 823.61 201.49
  A 1.13 1.11 -55.3 0 0 823.77 202.41
  Q 826.55 206.49 831.49 207.27
  Q 837.18 208.17 842.92 209.08
  C 853.10 210.69 862.11 217.87 854.66 228.86
  Q 850.90 234.40 843.22 235.95
  Q 826.87 239.25 813.59 229.55
  A 2.85 2.85 0.0 0 1 813.26 225.23
  L 815.81 222.67
  Z"
/>
<path fill="#ffffff" d="
  M 979.1700 212.3200
  A 28.12 24.50 -180.0 0 1 1007.2900 187.8200
  A 28.12 24.50 -180.0 0 1 1035.4100 212.3200
  A 28.12 24.50 -180.0 0 1 1007.2900 236.8200
  A 28.12 24.50 -180.0 0 1 979.1700 212.3200
  Z
  M 1026.4799 212.2432
  A 19.14 16.12 -0.2 0 0 1007.2837 196.1901
  A 19.14 16.12 -0.2 0 0 988.2001 212.3768
  A 19.14 16.12 -0.2 0 0 1007.3963 228.4299
  A 19.14 16.12 -0.2 0 0 1026.4799 212.2432
  Z"
/>
<path fill="#ffffff" d="
  M 654.57 213.30
  L 645.38 220.60
  A 3.93 3.92 -19.3 0 0 643.90 223.67
  L 643.90 234.86
  A 1.26 1.26 0.0 0 1 642.64 236.12
  L 636.45 236.12
  A 1.15 1.15 0.0 0 1 635.30 234.97
  L 635.30 190.13
  A 1.48 1.48 0.0 0 1 636.82 188.65
  L 642.89 188.82
  A 1.40 1.40 0.0 0 1 644.25 190.31
  Q 643.91 195.62 644.09 201.76
  C 644.18 204.95 643.60 207.86 643.40 210.74
  A 0.67 0.66 -5.6 0 0 644.24 211.43
  C 647.13 210.64 648.39 208.69 650.48 206.98
  Q 664.76 195.32 672.01 189.35
  A 3.22 3.21 -64.6 0 1 674.05 188.62
  L 682.91 188.62
  A 0.77 0.77 0.0 0 1 683.39 190.00
  L 661.65 207.28
  A 1.01 1.01 0.0 0 0 661.56 208.78
  C 662.51 209.74 663.87 210.96 664.52 211.77
  Q 673.74 223.20 682.43 233.32
  Q 683.15 234.15 683.54 235.35
  A 0.79 0.79 0.0 0 1 682.77 236.39
  L 673.80 236.13
  A 0.94 0.93 -18.8 0 1 673.10 235.79
  L 655.30 213.38
  A 0.53 0.52 -38.3 0 0 654.57 213.30
  Z"
/>
<path fill="#ffffff" d="
  M 501.02 211.59
  C 507.33 214.06 509.65 219.61 507.89 225.72
  C 505.69 233.31 497.52 236.00 490.24 236.03
  Q 477.51 236.07 464.06 236.16
  A 0.89 0.89 0.0 0 1 463.16 235.27
  L 463.16 189.57
  A 0.76 0.75 -0.4 0 1 463.91 188.82
  Q 482.18 188.78 492.25 188.93
  C 497.42 189.00 503.82 191.93 505.45 197.41
  Q 507.50 204.36 500.73 209.12
  A 1.41 1.41 0.0 0 0 501.02 211.59
  Z
  M 471.43 198.00
  L 471.45 206.46
  A 1.30 1.30 0.0 0 0 472.76 207.75
  L 488.92 207.69
  A 8.40 5.50 -0.2 0 0 497.30 202.16
  L 497.30 202.10
  A 8.40 5.50 -0.2 0 0 488.88 196.63
  L 472.72 196.69
  A 1.30 1.30 0.0 0 0 471.43 198.00
  Z
  M 471.36 217.30
  L 471.40 226.38
  A 1.85 1.85 0.0 0 0 473.25 228.22
  L 490.24 228.16
  A 9.46 6.28 -0.2 0 0 499.68 221.85
  L 499.68 221.63
  A 9.46 6.28 -0.2 0 0 490.20 215.38
  L 473.21 215.44
  A 1.85 1.85 0.0 0 0 471.36 217.30
  Z"
/>
<path fill="#ffffff" d="
  M 919.10 188.79
  Q 928.73 188.82 939.35 188.88
  A 1.86 1.85 0.2 0 1 941.20 190.73
  L 941.20 195.03
  A 1.89 1.88 0.0 0 1 939.31 196.91
  L 924.51 196.91
  A 1.07 1.07 0.0 0 0 923.44 197.97
  L 923.41 235.50
  A 0.65 0.65 0.0 0 1 922.89 236.14
  Q 922.53 236.22 919.03 236.21
  Q 915.53 236.21 915.16 236.13
  A 0.65 0.65 0.0 0 1 914.65 235.49
  L 914.74 197.96
  A 1.07 1.07 0.0 0 0 913.67 196.89
  L 898.87 196.84
  A 1.89 1.88 0.2 0 1 896.99 194.96
  L 897.00 190.66
  A 1.86 1.85 -0.0 0 1 898.86 188.81
  Q 909.47 188.79 919.10 188.79
  Z"
/>
<path fill="#ffffff" d="
  M 1124.77 234.68
  A 0.95 0.94 -18.4 0 1 1124.01 236.19
  L 1116.92 236.19
  A 3.07 3.07 0.0 0 1 1114.47 234.97
  L 1102.94 219.48
  A 1.61 1.60 -18.2 0 0 1101.65 218.83
  L 1090.32 218.83
  A 1.13 1.13 0.0 0 0 1089.19 219.96
  L 1089.19 235.10
  A 1.11 1.11 0.0 0 1 1088.08 236.21
  L 1081.61 236.21
  A 0.92 0.92 0.0 0 1 1080.69 235.29
  L 1080.69 189.61
  A 0.71 0.70 -3.2 0 1 1081.32 188.91
  Q 1083.20 188.67 1084.75 188.71
  Q 1093.36 188.93 1104.67 188.78
  Q 1111.56 188.68 1114.25 190.14
  C 1118.72 192.56 1121.88 195.79 1122.81 200.87
  C 1124.05 207.71 1120.29 214.03 1113.85 217.00
  A 1.49 1.49 0.0 0 0 1113.28 219.24
  L 1124.77 234.68
  Z
  M 1089.19 197.63
  L 1089.25 210.41
  A 0.97 0.97 0.0 0 0 1090.23 211.38
  L 1105.09 211.30
  A 8.87 7.35 -0.3 0 0 1113.92 203.91
  L 1113.92 203.89
  A 8.87 7.35 -0.3 0 0 1105.01 196.58
  L 1090.15 196.66
  A 0.97 0.97 0.0 0 0 1089.19 197.63
  Z"
/>
<path fill="#ffffff" d="
  M 570.06 188.94
  Q 577.30 189.12 583.87 189.23
  A 2.11 2.11 0.0 0 1 585.94 191.40
  L 585.85 194.41
  A 2.22 2.22 0.0 0 1 583.63 196.57
  L 575.70 196.57
  A 1.43 1.43 0.0 0 0 574.27 198.00
  L 574.27 226.92
  A 1.23 1.23 0.0 0 0 575.50 228.15
  L 583.90 228.15
  A 2.08 2.08 0.0 0 1 585.98 230.23
  L 585.98 235.28
  A 0.62 0.62 0.0 0 1 585.37 235.90
  Q 576.40 236.06 570.03 236.05
  Q 563.66 236.05 554.69 235.88
  A 0.62 0.62 0.0 0 1 554.08 235.26
  L 554.09 230.21
  A 2.08 2.08 0.0 0 1 556.17 228.13
  L 564.57 228.14
  A 1.23 1.23 0.0 0 0 565.80 226.91
  L 565.84 197.99
  A 1.43 1.43 0.0 0 0 564.41 196.56
  L 556.48 196.55
  A 2.22 2.22 0.0 0 1 554.26 194.39
  L 554.17 191.38
  A 2.11 2.11 0.0 0 1 556.25 189.22
  Q 562.82 189.11 570.06 188.94
  Z"
/>
<path fill="#ffffff" d="
  M 738.61 227.75
  A 0.38 0.38 0.0 0 0 738.97 228.07
  Q 748.32 228.39 756.70 227.86
  C 760.68 227.61 763.63 228.06 767.91 228.54
  A 1.10 1.09 -86.8 0 1 768.88 229.63
  L 768.88 235.10
  A 0.85 0.85 0.0 0 1 768.03 235.95
  L 730.82 235.95
  A 0.67 0.66 0.0 0 1 730.15 235.29
  L 730.15 189.88
  A 0.83 0.83 0.0 0 1 730.98 189.05
  L 765.84 189.05
  A 2.26 2.25 -90.0 0 1 768.09 191.31
  L 768.09 194.54
  A 2.06 2.06 0.0 0 1 766.03 196.60
  L 738.96 196.60
  A 0.58 0.58 0.0 0 0 738.38 197.18
  L 738.38 206.98
  A 0.80 0.79 -90.0 0 0 739.17 207.78
  C 743.80 207.81 751.12 208.12 757.22 207.63
  Q 760.41 207.38 764.13 208.07
  A 1.31 1.31 0.0 0 1 765.20 209.36
  L 765.20 215.26
  A 0.44 0.43 0.0 0 1 764.76 215.69
  L 739.38 215.69
  A 0.71 0.70 4.2 0 0 738.68 216.29
  Q 737.78 221.99 738.61 227.75
  Z"
/>
<path fill="#ffffff" d="
  M 1172.11 235.85
  L 1172.11 190.05
  A 1.07 1.06 -90.0 0 1 1173.17 188.98
  L 1208.37 188.98
  A 2.51 2.50 -90.0 0 1 1210.87 191.49
  L 1210.87 194.38
  A 2.19 2.18 -89.9 0 1 1208.68 196.57
  Q 1200.31 196.55 1189.12 196.85
  C 1186.74 196.92 1183.50 196.41 1181.72 196.40
  A 1.35 1.34 1.8 0 0 1180.28 197.75
  L 1180.34 206.43
  A 1.42 1.42 0.0 0 0 1181.76 207.84
  L 1205.33 207.84
  A 1.85 1.85 0.0 0 1 1207.18 209.69
  L 1207.18 214.65
  A 1.11 1.10 -0.0 0 1 1206.07 215.75
  L 1182.12 215.75
  A 1.86 1.85 90.0 0 0 1180.27 217.61
  L 1180.27 227.02
  A 1.09 1.09 0.0 0 0 1181.36 228.11
  L 1209.11 228.11
  A 2.00 1.99 -90.0 0 1 1211.10 230.11
  L 1211.10 234.34
  A 1.77 1.77 0.0 0 1 1209.33 236.11
  L 1172.37 236.11
  A 0.26 0.26 0.0 0 1 1172.11 235.85
  Z"
/>
</svg>
