<svg width="4178" height="1932" viewBox="0 0 4178 1932" fill="none" xmlns="http://www.w3.org/2000/svg">
<g clip-path="url(#clip0_946_1489)">
<path d="M127.562 897.716C140.287 897.716 152.491 902.77 161.489 911.767C170.487 920.764 175.542 932.966 175.542 945.689C175.542 958.413 170.487 970.615 161.489 979.611C152.491 988.608 140.287 993.662 127.562 993.662H0V1035.07H127.562C151.038 1034.71 173.431 1025.14 189.906 1008.41C206.381 991.687 215.616 969.154 215.616 945.679C215.616 922.204 206.381 899.671 189.906 882.946C173.431 866.221 151.038 856.646 127.562 856.29H0V897.716H127.562Z" fill="white"/>
<path d="M41.4128 1823.33C41.3986 1806.26 47.925 1789.83 59.6506 1777.42L25.3643 1753.63C12.0938 1769.45 3.6129 1788.72 0.918157 1809.18C-1.77658 1829.65 1.42678 1850.46 10.1518 1869.17C18.8769 1887.88 32.7611 1903.7 50.1731 1914.8C67.5851 1925.89 87.8015 1931.78 108.447 1931.78C129.092 1931.78 149.308 1925.89 166.72 1914.8C184.132 1903.7 198.017 1887.88 206.742 1869.17C215.467 1850.46 218.67 1829.65 215.975 1809.18C213.281 1788.72 204.8 1769.45 191.529 1753.63L157.222 1777.42C164.723 1785.39 170.161 1795.06 173.062 1805.61C175.962 1816.15 176.236 1827.25 173.861 1837.93C171.485 1848.6 166.532 1858.54 159.434 1866.86C152.336 1875.18 143.308 1881.64 133.139 1885.67C122.969 1889.7 111.968 1891.18 101.094 1889.99C90.2208 1888.79 79.8059 1884.95 70.7587 1878.8C61.7115 1872.65 54.3071 1864.38 49.1918 1854.71C44.0765 1845.04 41.4058 1834.27 41.4128 1823.33Z" fill="white"/>
<path d="M145.779 1356.24L0 1457.16V1498.47H216.872V1457.16H71.1339L216.913 1356.26V1314.85H0V1356.26L145.779 1356.24Z" fill="white"/>
<path d="M0 1259.67H41.4121V1195.65H216.975V1154.23H41.4121V1090.21H0V1259.67Z" fill="white"/>
<path d="M0 117.403H41.4121V94.8519H216.975V53.4458H0V117.403Z" fill="white"/>
<path d="M0 1698.41H216.872V1553.85H175.563V1657.11H129.173V1574.11H87.74V1656.94H41.4121V1553.69H0V1698.41Z" fill="white"/>
<path d="M72.8275 634.659C53.5211 634.675 35.0098 642.349 21.3561 655.997C7.70244 669.645 0.0218762 688.151 0 707.455L0 801.068H216.872V759.661H145.634V733.228L216.913 683.892V634.659L142.557 686.287C137.997 671.365 128.772 658.298 116.237 649.006C103.701 639.713 88.5153 634.685 72.9102 634.659M104.305 707.455V759.661H41.4328V707.455C41.4328 699.13 44.7404 691.145 50.6281 685.259C56.5158 679.372 64.5011 676.065 72.8275 676.065C81.1539 676.065 89.1393 679.372 95.027 685.259C100.915 691.145 104.222 699.13 104.222 707.455" fill="white"/>
<path d="M0 444.955L87.7194 505.67L0 566.323V615.556L128.946 526.301H216.872V484.978H128.946L0 395.722V444.955Z" fill="white"/>
<path d="M108.374 176.053L106.825 174.979C97.9354 169.001 87.7678 165.189 77.1382 163.849C66.5086 162.51 55.713 163.68 45.6175 167.266C35.5219 170.852 26.4075 176.754 19.0055 184.498C11.6035 192.242 6.12001 201.614 2.9949 211.86C-0.130219 222.106 -0.809918 232.942 1.01033 243.498C2.83058 254.055 7.10011 264.038 13.4764 272.646C19.8526 281.254 28.1581 288.249 37.7264 293.068C47.2947 297.887 57.8596 300.396 68.5732 300.395H71.1137V258.865C70.2669 258.865 69.4201 258.989 68.5732 258.989C61.3769 258.984 54.477 256.123 49.3884 251.035C44.2999 245.947 41.4388 239.048 41.4333 231.853C41.3063 228.256 41.9215 224.67 43.2404 221.32C44.5594 217.971 46.554 214.928 49.0999 212.383C51.6458 209.837 54.6887 207.843 58.0389 206.524C61.3891 205.205 64.975 204.59 68.5732 204.717C76.1363 206.089 83.3191 209.06 89.6408 213.432C93.0281 215.745 216.913 301.531 216.913 301.531V159.243H175.563V222.498L108.374 176.053Z" fill="white"/>
<path d="M181.078 17.8843C181.1 14.8044 181.895 11.7792 183.391 9.08683C184.905 6.2605 187.209 3.93565 190.021 2.39578C192.744 0.836162 195.827 0.015625 198.965 0.015625C202.103 0.015625 205.186 0.836162 207.908 2.39578C210.709 3.91347 213.012 6.20841 214.538 9.00423C216.087 11.7189 216.901 14.7902 216.901 17.9153C216.901 21.0405 216.087 24.1117 214.538 26.8264C213.009 29.6256 210.708 31.9266 207.908 33.4555C205.188 35.0211 202.104 35.8451 198.965 35.8451C195.826 35.8451 192.742 35.0211 190.021 33.4555C187.206 31.9101 184.902 29.5777 183.391 26.7438C181.894 24.0517 181.099 21.0264 181.078 17.9463M184.052 17.9463C184.067 20.5217 184.735 23.0513 185.994 25.2982C187.26 27.6587 189.183 29.6024 191.529 30.8947C193.806 32.225 196.39 32.9369 199.027 32.9598C201.636 32.9292 204.192 32.2173 206.442 30.8947C208.775 29.6126 210.695 27.6929 211.977 25.3601C213.271 23.0995 213.951 20.5403 213.951 17.936C213.951 15.3316 213.271 12.7724 211.977 10.5118C210.697 8.17761 208.776 6.25749 206.442 4.97721C204.174 3.67057 201.603 2.98279 198.985 2.98279C196.368 2.98279 193.797 3.67057 191.529 4.97721C189.181 6.25819 187.258 8.19588 185.994 10.5531C184.733 12.7927 184.058 15.3144 184.032 17.8843M208.817 25.7319H189.546V19.1234C189.519 17.4665 189.749 15.8154 190.228 14.229C190.567 13.242 191.22 12.3933 192.087 11.8128C192.912 11.239 193.891 10.9293 194.896 10.9248C196.239 10.9254 197.529 11.4517 198.49 12.3911C199.563 13.4551 200.19 14.8875 200.245 16.3974C200.479 15.7893 200.822 15.2293 201.257 14.7453C202.425 13.6604 203.706 12.7049 205.079 11.8954L208.817 9.56182V13.3617L205.863 15.0757C204.189 15.8831 202.672 16.9808 201.381 18.318C200.891 19.0551 200.659 19.9338 200.72 20.8168V22.7168H208.982L208.817 25.7319ZM197.973 22.6341V18.8756C198.13 17.5979 197.877 16.3034 197.25 15.179C197.005 14.8672 196.691 14.6157 196.333 14.4439C195.975 14.2721 195.582 14.1844 195.185 14.1877C194.638 14.1787 194.102 14.3452 193.657 14.6627C193.194 14.9918 192.842 15.4523 192.645 15.9844C192.363 16.9987 192.245 18.0513 192.293 19.1028V22.7168L197.973 22.6341Z" fill="white"/>
<path d="M3002.82 1090.68L2726.45 1422.41L2450.07 1090.68H2303.75V1931.75H2466.33V1341.12H2471.14L2714.38 1637.33H2737.27L2980.54 1341.12H2985.35V1931.75H3147.92V1090.68H3002.82Z" fill="white"/>
<path d="M3756.9 1932C3673.61 1932 3592.2 1907.31 3522.95 1861.04C3453.7 1814.78 3399.72 1749.02 3367.85 1672.08C3335.98 1595.15 3327.64 1510.49 3343.89 1428.82C3360.14 1347.14 3400.24 1272.12 3459.14 1213.24C3518.03 1154.36 3593.06 1114.25 3674.75 1098.01C3756.43 1081.76 3841.1 1090.1 3918.05 1121.97C3995 1153.84 4060.76 1207.8 4107.03 1277.04C4153.31 1346.28 4178 1427.69 4178 1510.96C4177.88 1622.59 4133.47 1729.61 4054.53 1808.54C3975.58 1887.47 3868.54 1931.87 3756.9 1932ZM3756.9 1234.13C3702.14 1234.13 3648.6 1250.36 3603.07 1280.79C3557.53 1311.21 3522.04 1354.45 3501.08 1405.03C3480.13 1455.62 3474.64 1511.29 3485.33 1564.99C3496.01 1618.7 3522.38 1668.03 3561.11 1706.74C3599.83 1745.46 3649.17 1771.83 3702.88 1782.51C3756.59 1793.2 3812.27 1787.71 3862.86 1766.76C3913.46 1745.8 3956.7 1710.32 3987.13 1664.79C4017.55 1619.26 4033.79 1565.74 4033.79 1510.98C4033.71 1437.58 4004.51 1367.21 3952.6 1315.31C3900.69 1263.4 3830.31 1234.21 3756.9 1234.13Z" fill="white"/>
<path d="M1683.94 679.39C1662.21 635.011 1636.2 592.867 1606.25 553.561C1586.36 529.494 1562.04 509.465 1534.6 494.56C1578.53 477.684 1616.68 448.528 1644.49 410.571C1669.55 373.809 1682.5 330.132 1681.52 285.65C1682.58 253.393 1676.42 221.307 1663.51 191.729C1650.59 162.151 1631.24 135.828 1606.85 114.677C1552.88 69.4403 1483.93 46.0292 1413.57 49.0472H1275.99V173.678H1374.45C1411.01 171.336 1447.3 181.415 1477.41 202.281C1489.8 212.829 1499.53 226.151 1505.81 241.164C1512.09 256.177 1514.73 272.458 1513.54 288.686C1514.34 305.029 1511.48 321.345 1505.18 336.445C1498.87 351.546 1489.28 365.052 1477.1 375.979C1448.77 398.618 1413.06 409.982 1376.85 407.886H1276.01V534.913H1332.29C1356.81 534.461 1380.9 541.273 1401.55 554.49C1426.38 572.454 1447.62 594.911 1464.17 620.699C1501.52 679.122 1535.7 739.519 1566.54 801.625C1581.91 831.948 1598.79 861.482 1617.12 890.117H1798.36C1773.47 851.567 1735.33 781.353 1683.96 679.472" fill="white"/>
<path d="M1067.55 1294.8C1030.06 1230.43 974.852 1178.18 908.507 1144.29C836.175 1107.61 755.954 1089.21 674.864 1090.7H508.637V1217.75H652.66C745.385 1217.75 819.142 1244.04 873.931 1296.62C928.721 1349.2 956.122 1420.84 956.136 1511.56C957.78 1550.63 951.388 1589.62 937.355 1626.13C923.322 1662.63 901.946 1695.86 874.551 1723.77C820.161 1777.75 748.008 1804.75 658.092 1804.75H508.637V1931.77H665.301C748.383 1933.38 830.68 1915.44 905.553 1879.4C972.703 1846.95 1028.9 1795.57 1067.22 1731.6C1105.89 1665.23 1125.58 1589.5 1124.12 1512.69C1125.23 1436.28 1105.67 1360.98 1067.53 1294.76" fill="white"/>
<path d="M1708.93 1931.98C1625.85 1932 1544.63 1907.38 1475.54 1861.24C1406.45 1815.1 1352.6 1749.51 1320.8 1672.77C1288.99 1596.03 1280.66 1511.58 1296.86 1430.11C1313.06 1348.63 1353.06 1273.79 1411.8 1215.05C1470.54 1156.3 1545.38 1116.29 1626.87 1100.08C1708.35 1083.87 1792.81 1092.18 1869.57 1123.97C1946.33 1155.75 2011.94 1209.58 2058.1 1278.65C2104.26 1347.72 2128.9 1428.92 2128.9 1511.99C2128.77 1623.34 2084.47 1730.09 2005.73 1808.83C1926.98 1887.56 1820.21 1931.85 1708.85 1931.98M1708.85 1236.19C1654.29 1236.19 1600.96 1252.36 1555.59 1282.66C1510.23 1312.97 1474.87 1356.04 1453.99 1406.43C1433.11 1456.83 1427.64 1512.28 1438.28 1565.79C1448.92 1619.29 1475.19 1668.43 1513.77 1707C1552.35 1745.58 1601.5 1771.85 1655 1782.49C1708.51 1793.13 1763.98 1787.67 1814.38 1766.8C1864.78 1745.93 1907.87 1710.58 1938.18 1665.22C1968.49 1619.86 1984.67 1566.54 1984.67 1511.99C1984.58 1438.87 1955.5 1368.77 1903.79 1317.07C1852.08 1265.37 1781.97 1236.28 1708.85 1236.19Z" fill="white"/>
<path d="M832.499 49.0472C902.877 46.0395 971.662 70.5493 1024.28 117.383C1048.51 139.709 1067.64 166.996 1080.37 197.385C1093.1 227.773 1099.13 260.548 1098.05 293.477C1099.25 326.55 1093.19 359.484 1080.29 389.961C1067.39 420.438 1047.97 447.719 1023.39 469.881C968.726 516.589 898.311 540.703 826.488 537.308H669.928V890.117H507.336V49.0472H832.499ZM792.161 410.281C828.417 412.462 864.299 401.923 893.615 380.481C906.077 369.582 915.849 355.95 922.17 340.649C928.49 325.349 931.187 308.794 930.05 292.279C930.05 214.823 880.272 176.088 780.718 176.074H669.928V410.281H792.161Z" fill="white"/>
<path d="M2261.19 895.878C2178.11 895.874 2096.9 871.239 2027.83 825.088C1958.75 778.936 1904.92 713.342 1873.13 636.599C1841.34 559.856 1833.02 475.411 1849.23 393.943C1865.44 312.475 1905.45 237.642 1964.2 178.908C2022.94 120.173 2097.79 80.1756 2179.27 63.9719C2260.75 47.7683 2345.21 56.0867 2421.96 87.8751C2498.71 119.664 2564.31 173.494 2610.47 242.561C2656.62 311.627 2681.26 392.826 2681.26 475.891C2681.13 587.243 2636.83 693.999 2558.08 772.735C2479.33 851.472 2372.56 895.758 2261.19 895.878ZM2261.19 200.092C2206.63 200.092 2153.3 216.267 2107.94 246.572C2062.58 276.877 2027.22 319.951 2006.34 370.347C1985.47 420.743 1980 476.197 1990.65 529.697C2001.29 583.197 2027.56 632.339 2066.14 670.91C2104.72 709.482 2153.87 735.749 2207.37 746.391C2260.88 757.033 2316.34 751.571 2366.75 730.696C2417.15 709.822 2460.23 674.472 2490.54 629.117C2520.85 583.762 2537.03 530.439 2537.03 475.891C2536.95 402.77 2507.86 332.667 2456.14 280.962C2404.43 229.257 2334.32 200.174 2261.19 200.092Z" fill="white"/>
</g>
<defs>
<clipPath id="clip0_946_1489">
<rect width="4178" height="1932" fill="white"/>
</clipPath>
</defs>
</svg>
