<svg id="Layer_3" xmlns="http://www.w3.org/2000/svg" viewBox="0 0 380.35 380.35">
    <defs>
        <style>.cls-1,.cls-2{stroke-width:3px;}.cls-1,.cls-2,.cls-3,.cls-4{stroke:#fff;}.cls-1,.cls-2,.cls-4{fill:none;}.cls-1,.cls-3,.cls-4{stroke-miterlimit:10;}.cls-5,.cls-3{fill:#fff;}.cls-2{stroke-linejoin:bevel;}.cls-4{stroke-width:4px;}</style>
    </defs>
    <path class="cls-4" d="M378.35,190.18c0,103.92-84.25,188.17-188.18,188.17-7.79,0-15.46-.47-22.99-1.4-.15-.01-.3-.03-.45-.05-75.15-9.33-136.55-62.99-157.24-133.99-.21-.72-.41-1.45-.61-2.17-1.86-6.66-3.35-13.46-4.47-20.39-.59-3.65-1.07-7.33-1.45-11.04-.63-6.29-.96-12.67-.96-19.13C2,86.25,86.25,2,190.17,2s188.18,84.25,188.18,188.18Z" />
    <path class="cls-4" d="M5.33,222.61c12.5206,80.3883,79.7991,144.5184,161.85,154.34,15.1777-66.6646,94.8213-87.1567,97.1565-142.0817,5.9055-40.7676-37.1964-57.2321-71.0776-55.9773-15.0795-1.8557-68.4798,12.7646-83.6188,15.4884-31.6666,4.8727-83.0002,8.0891-104.3101,28.2306" />
    <path class="cls-5" d="M119.1032,247.4051c-6.0378,6.1678-10.808,13.7893-10.2711,22.5522,.4363,8.6787,6.0765,16.8204,13.1908,21.7352,7.8882,5.4946,18.4429,8.6669,27.8859,6.2251,7.7611-1.9357,14.8436-5.7122,21.9448-9.4612,11.8664-6.4533,24.685-14.6606,36.247-21.9023,8.0513-4.927,16.1378-9.8608,24.351-14.5067,8.0727-4.6284,16.116-9.4657,22.1942-16.5709,3.0293-3.4748,5.7347-7.2592,8.2088-11.205,.5876-.9366,1.8232-1.2195,2.7598-.632,.9849,.612,1.2387,1.9572,.5455,2.8864-2.8457,3.8468-5.7637,7.6735-9.1194,11.1554-6.5711,7.0547-15.011,11.9775-23.2825,16.6421-12.3227,6.9309-24.2766,14.3862-35.8392,22.5314-7.709,5.4402-15.4253,10.9205-23.5011,15.9953-7.1607,4.4434-14.7255,8.734-22.9983,10.9136-3.7176,1.0363-7.8868,1.1975-11.6314,.5538-9.9031-1.6247-18.7977-7.1436-25.8822-14.0391-9.4942-9.3203-14.4526-22.5125-7.9764-35.111,2.3627-4.6565,5.827-8.5086,9.6676-11.6324,1.1202-.9112,2.7671-.7417,3.6782,.3786,.8531,1.0473,.7571,2.5578-.1719,3.4916h0Z" />
    <path class="cls-1" d="M182.6151,207.9454c-25.0808-16.9799-51.5582,24.968-17.7942,33.9751,13.4911-.147,34.4865-16.4623,17.7942-33.9751Z" />
    <path class="cls-3" d="M176.77,219c-3.1073,7.4207-11.1599,3.2974-7.7997-3.5709,3.3594-5.7378,10.4605-2.5488,7.7997,3.5709Z" />
    <path class="cls-2" d="M177.89,179.2c-15.0278,3.1317-69.3149,16.2197-83.9508,17.4201-27.5554,3.2417-71.8874,9.3114-88.6093,25.9899l-.12-.94-1.33-10.1c5.74-9.46,8.93-14.72,14.67-24.1801,1.1589-3.0532,5.2654-6.9166,7.67-.2194,4.37,9.7494,.99,19.1794,3.8401,20.4594,5.4222,2.5246,7.9765-23.6734,9.5913-23.8693,7.1915-20.5825,12.2478,25.7608,20.4581,16.4081-.4944-4.8499,4.7095-24.6033,12.3601-27.9096,6.5861,4.1673-.0844,15.9883,13.2117,23.4399,1.7387,1.0308,.3087-4.3093,3.2287-11.2792,2.3-5.47,4.29-5.6,6.57-11.64,1.7-4.51,1.52-6.92,2.84-7.17,7.1858,2.7127,10.0171,21.4161,16.8701,26.1299-3.4123-10.5695,2.0875-19.2941,8.2114-29.7098,6.6534-12.7947,5.8267-4.0486,8.959,6.4198,1.8896,6.9301,5.5796,18.3401,7.6095,18.0601,1.914-5.8253,2.6081-21.5047,18.5102-23.89,13.3792,1.0037,16.9331,9.3019,19.4098,16.58Z" />
    <path class="cls-3" d="M163.74,170.66c-.4234,3.29-5.4,3.17-5.82-.0003-.3902-4.3748,6.4789-4.7055,5.82,.0003Z" />
</svg>