<?xml version="1.0" encoding="UTF-8"?><svg id="Layer_1" xmlns="http://www.w3.org/2000/svg" viewBox="0 0 527.9 55.73"><path d="M25.2,32.48c.72,0,1.22-.14,1.51-.14,2.02,0,5.54,3.53,5.54,3.74,0,.14-.22,.36-.22,.72,0,.07,.07,.36,.07,.72,0,.86-1.94,5.76-7.06,11.09-3.17,3.31-7.13,5.11-11.09,5.11-8.78,0-13.97-5.83-13.97-15.41,0-6.34,2.45-12.67,6.48-20.31,3.02-5.76,6.34-10.66,10.73-14.76,.94-.86,1.58-2.23,7.27-2.23,7.06,0,10.37,3.17,10.37,9.72,0,4.18-.94,8.28-2.38,12.6-.43,1.22-1.15,1.73-5.4,1.73-2.95,0-4.03-1.51-4.03-5.26,0-2.59,.79-4.82,.79-6.12,0-.72-.22-1.01-.72-1.01-1.01,0-3.6,4.46-8.06,13.47-2.66,5.4-3.82,10.3-3.82,13.68,0,2.38,.72,3.31,2.45,3.31,3.38,0,7.13-3.6,11.09-10.66h.43Z" fill="#fff"/><path d="M41.18,51.77c-1.51,3.53-.86,3.96-2.88,3.96-.65,0-1.51-.07-2.81-.07-.58,0-1.8-.86-3.89-2.3-.79-.58-1.15-.65-1.15-1.37,0-1.87,5.47-16.2,17.86-41.48,3.89-7.85,3.6-9.36,7.13-9.36,1.15,0,2.81,.22,4.54,.79,3.1,1.01,5.04,1.15,5.9,1.51,1.73,.72,2.59,1.8,2.59,3.38,0,1.44-1.44,13.25-3.02,34.63-.43,5.76-.07,8.64-.86,9.15-2.74,1.66-3.96,1.73-5.33,1.73h-1.66c-2.95,0-3.17-1.15-3.17-2.66v-.72c0-.94,.07-1.66,.07-2.16s-.29-1.8-.36-3.96c0-.36,0-.43-.36-.43-4.9,0-7.49,.43-7.92,.43-.29,0-.5-.07-.65-.07-1.01,0-1.51,3.24-4.03,9Zm9.5-19.3c3.38,0,3.6-.07,3.89-1.37,.22-.86,.29-2.38,.58-4.61,1.15-8.64,2.23-13.39,2.23-14.11,0-.22-.07-.22-.29-.22-.65,0-1.44,2.52-3.24,7.92-2.52,7.63-4.68,11.31-4.68,11.88,0,.36,.36,.5,1.51,.5Z" fill="#fff"/><path d="M103.32,47.96v.14c0,.86-3.74,5.4-5.18,5.4-2.09,0-4.25-2.81-8.28-8.78-2.88-4.18-3.89-7.27-4.61-7.27-1.51,0-1.3,5.26-3.46,13.39-.58,2.23-.58,3.02-4.1,3.02-.22,0-3.17-1.08-5.26-2.59-.79-.58-1.08-1.3-1.08-2.23,0-1.08,2.81-14.98,9.36-41.26,.65-2.45,1.22-3.82,1.8-4.03,.58-.22,2.09-.65,4.39-1.3,5.26-1.44,8.86-1.51,9.65-1.51,2.45,0,7.63,1.01,9.79,2.59,.79,.58,1.3,1.15,1.66,2.09,1.94,4.54,2.88,7.78,2.88,9.36,0,5.98-4.97,10.66-13.25,17.35,1.66,6.91,5.69,11.45,5.69,15.63Zm-15.12-21.6c.22,0,3.82-1.94,7.56-5.47,3.31-3.1,4.68-6.12,4.68-8.06,0-1.3-1.22-1.94-3.6-1.94-3.46,0-4.82,.5-5.33,1.58-.14,.43-.86,2.52-1.94,6.48-1.22,4.39-1.87,6.62-1.87,6.91s.22,.5,.5,.5Z" fill="#fff"/><path d="M141.12,47.96v.14c0,.86-3.74,5.4-5.18,5.4-2.09,0-4.25-2.81-8.28-8.78-2.88-4.18-3.89-7.27-4.61-7.27-1.51,0-1.3,5.26-3.46,13.39-.58,2.23-.58,3.02-4.1,3.02-.22,0-3.17-1.08-5.26-2.59-.79-.58-1.08-1.3-1.08-2.23,0-1.08,2.81-14.98,9.36-41.26,.65-2.45,1.22-3.82,1.8-4.03,.58-.22,2.09-.65,4.39-1.3,5.26-1.44,8.86-1.51,9.65-1.51,2.45,0,7.63,1.01,9.79,2.59,.79,.58,1.3,1.15,1.66,2.09,1.94,4.54,2.88,7.78,2.88,9.36,0,5.98-4.97,10.66-13.25,17.35,1.66,6.91,5.69,11.45,5.69,15.63Zm-15.12-21.6c.22,0,3.82-1.94,7.56-5.47,3.31-3.1,4.68-6.12,4.68-8.06,0-1.3-1.22-1.94-3.6-1.94-3.46,0-4.82,.5-5.33,1.58-.14,.43-.86,2.52-1.94,6.48-1.22,4.39-1.87,6.62-1.87,6.91s.22,.5,.5,.5Z" fill="#fff"/><path d="M158.25,52.92c-.14-.07-.36-.07-.58-.07h-.86c-.58,0-1.3-.07-2.02-.36-4.97-2.16-7.34-6.98-7.34-14.69,0-6.55,3.31-17.79,9.72-26.86,4.25-5.98,6.7-9.94,11.23-9.94,.36,0,1.01,.07,1.87,.07,1.58,0,3.17,.72,5.4,1.44,5.83,1.94,8.71,6.77,8.71,14.76,0,5.83-1.3,12.17-3.82,17.93-3.24,7.34-7.63,12.96-10.87,15.55-2.23,1.8-5.04,3.17-6.98,3.17h-.65c-1.87,0-3.1-.79-3.82-1.01Zm2.74-9.22c1.66,0,3.67-2.45,6.19-7.42,3.1-6.12,5.11-11.74,5.11-18.87,0-3.96-.86-5.9-2.02-5.9-.5,0-2.3,2.16-4.82,6.62-4.9,8.71-6.62,17.79-6.62,20.88s.79,4.68,2.16,4.68Z" fill="#fff"/><path d="M188.71,36c1.73,0,1.44,.14,1.94,1.44,1.3,3.38,3.24,5.18,5.76,5.18,1.8,0,3.6-1.73,3.6-3.96,0-2.02-2.38-4.03-5.9-7.92-2.59-2.88-3.89-6.19-3.89-9.15,0-6.55,3.46-12.53,9.94-17.5,2.81-2.16,5.83-3.17,6.77-3.17,2.23,0,3.74,1.44,5.76,2.52,2.88,1.58,5.69,1.87,5.69,8.71,0,6.19-2.3,10.37-5.04,10.37-1.58,0-5.18-.72-5.98-1.08-1.08-.43-1.15-1.15-1.15-2.38v-1.01c0-2.45,.58-4.25,.58-5.33,0-.43-.29-.65-.79-.65-.72,0-4.25,3.17-4.25,7.06,0,3.38,2.81,5.4,6.12,8.64,3.17,3.1,4.75,5.76,4.75,8.93,0,8.5-7.85,16.78-16.2,16.78-6.84,0-13.39-5.47-13.39-12.6,0-.5,.07-1.22,.14-2.09,2.74-1.8,4.46-2.81,5.54-2.81Z" fill="#fff"/><path d="M220.68,36c1.73,0,1.44,.14,1.94,1.44,1.3,3.38,3.24,5.18,5.76,5.18,1.8,0,3.6-1.73,3.6-3.96,0-2.02-2.38-4.03-5.9-7.92-2.59-2.88-3.89-6.19-3.89-9.15,0-6.55,3.46-12.53,9.94-17.5,2.81-2.16,5.83-3.17,6.77-3.17,2.23,0,3.74,1.44,5.76,2.52,2.88,1.58,5.69,1.87,5.69,8.71,0,6.19-2.3,10.37-5.04,10.37-1.58,0-5.18-.72-5.98-1.08-1.08-.43-1.15-1.15-1.15-2.38v-1.01c0-2.45,.58-4.25,.58-5.33,0-.43-.29-.65-.79-.65-.72,0-4.25,3.17-4.25,7.06,0,3.38,2.81,5.4,6.12,8.64,3.17,3.1,4.75,5.76,4.75,8.93,0,8.5-7.85,16.78-16.2,16.78-6.84,0-13.39-5.47-13.39-12.6,0-.5,.07-1.22,.14-2.09,2.74-1.8,4.46-2.81,5.54-2.81Z" fill="#fff"/><path d="M248.9,47.02c0-1.08,2.02-11.09,7.06-29.38,2.88-10.44,3.89-15.19,4.9-15.19,.43,0,.86,.14,1.22,.14,.22,0,.5-.22,1.01-.22,1.15,0,2.52,.36,4.03,.36,1.73,0,3.89-.36,6.41-.36,1.8,0,4.97,.36,7.42,1.01,1.15,.29,2.38,.79,2.38,4.9,0,1.51-.5,3.89-.65,4.03-.65,.72-5.26,.72-14.18,1.8-.94,2.74-1.73,5.54-2.23,8.42,1.01,0,2.16-.07,3.38-.07,3.96,0,6.19,.36,6.41,.65,.79,.94,1.66,2.81,1.66,4.39,0,1.44-.94,4.25-1.01,4.32-.86,.86-5.47,1.01-13.54,2.45-.72,3.38-1.44,5.47-1.44,6.55,0,.22,.07,.43,.14,.58,5.4-.22,8.35-.36,8.86-.36,.72,0,1.08,.22,1.08,.36v.58c0,.72,2.45,1.58,2.45,5.11s-.79,3.53-2.23,3.53h-.14c-2.52,0-5.33,1.22-8.35,1.58-2.95,.36-6.12,.65-9.43,1.73-3.6-1.94-5.18-3.82-5.18-6.91Z" fill="#fff"/><path d="M312.55,47.96v.14c0,.86-3.74,5.4-5.18,5.4-2.09,0-4.25-2.81-8.28-8.78-2.88-4.18-3.89-7.27-4.61-7.27-1.51,0-1.3,5.26-3.46,13.39-.58,2.23-.58,3.02-4.1,3.02-.22,0-3.17-1.08-5.26-2.59-.79-.58-1.08-1.3-1.08-2.23,0-1.08,2.81-14.98,9.36-41.26,.65-2.45,1.22-3.82,1.8-4.03,.58-.22,2.09-.65,4.39-1.3,5.26-1.44,8.86-1.51,9.65-1.51,2.45,0,7.63,1.01,9.79,2.59,.79,.58,1.3,1.15,1.66,2.09,1.94,4.54,2.88,7.78,2.88,9.36,0,5.98-4.97,10.66-13.25,17.35,1.66,6.91,5.69,11.45,5.69,15.63Zm-15.12-21.6c.22,0,3.82-1.94,7.56-5.47,3.31-3.1,4.68-6.12,4.68-8.06,0-1.3-1.22-1.94-3.6-1.94-3.46,0-4.82,.5-5.33,1.58-.14,.43-.86,2.52-1.94,6.48-1.22,4.39-1.87,6.62-1.87,6.91s.22,.5,.5,.5Z" fill="#fff"/><path d="M324.14,24.41c3.46-13.54,5.11-20.45,5.11-20.52,0-1.44,.07-2.95,4.97-2.95,3.6,0,7.06,2.74,7.06,3.31,0,.5-.72,1.15-1.08,2.3-.14,.5-.86,3.24-2.16,8.14-1.73,6.55-2.81,12.67-3.96,18.43-1.73,8.35-3.31,14.76-4.39,18.65-.5,1.87-1.66,2.02-4.32,2.02h-1.08c-3.96,0-6.12-2.38-6.12-2.95,0-.29,1.58-9.43,5.98-26.43Z" fill="#fff"/><path d="M339.69,47.02c0-1.08,2.02-11.09,7.06-29.38,2.88-10.44,3.89-15.19,4.9-15.19,.43,0,.86,.14,1.22,.14,.22,0,.5-.22,1.01-.22,1.15,0,2.52,.36,4.03,.36,1.73,0,3.89-.36,6.41-.36,1.8,0,4.97,.36,7.42,1.01,1.15,.29,2.38,.79,2.38,4.9,0,1.51-.5,3.89-.65,4.03-.65,.72-5.26,.72-14.18,1.8-.94,2.74-1.73,5.54-2.23,8.42,1.01,0,2.16-.07,3.38-.07,3.96,0,6.19,.36,6.41,.65,.79,.94,1.66,2.81,1.66,4.39,0,1.44-.94,4.25-1.01,4.32-.86,.86-5.47,1.01-13.54,2.45-.72,3.38-1.44,5.47-1.44,6.55,0,.22,.07,.43,.14,.58,5.4-.22,8.35-.36,8.86-.36,.72,0,1.08,.22,1.08,.36v.58c0,.72,2.45,1.58,2.45,5.11s-.79,3.53-2.23,3.53h-.14c-2.52,0-5.33,1.22-8.35,1.58-2.95,.36-6.12,.65-9.43,1.73-3.6-1.94-5.18-3.82-5.18-6.91Z" fill="#fff"/><path d="M394.84,53.93c-.07,0-2.67-1.01-4.39-1.94-2.81-1.51-4.82-4.75-4.82-8.14s1.22-7.42,1.8-8.21c.94-1.3,2.23-1.37,5.47-1.37,1.01,0,3.82,1.22,3.82,3.17,0,.65-.07,1.51-.07,2.52,0,2.74-.94,4.46-.94,5.11,0,.43,.29,.79,.65,.79,1.94,0,4.03-8.64,7.78-25.63,2.3-10.3,3.82-15.77,3.82-16.49,0-.36-.43-.58-.43-1.08,0-1.01,2.95-1.73,5.83-1.73,2.66,0,4.25,1.22,5.83,1.73,1.01,.36,1.58,.07,1.58,.65,0,.43-1.3,2.95-2.95,9.15-3.17,12.02-4.25,20.95-6.12,26.14-3.96,10.94-11.95,15.34-13.32,15.34-.29,0-.72-.07-1.37-.07-.5,0-1.3,.07-2.16,.07Z" fill="#fff"/><path d="M424.65,51.77c-1.51,3.53-.86,3.96-2.88,3.96-.65,0-1.51-.07-2.81-.07-.58,0-1.8-.86-3.89-2.3-.79-.58-1.15-.65-1.15-1.37,0-1.87,5.47-16.2,17.86-41.48,3.89-7.85,3.6-9.36,7.13-9.36,1.15,0,2.81,.22,4.54,.79,3.1,1.01,5.04,1.15,5.9,1.51,1.73,.72,2.59,1.8,2.59,3.38,0,1.44-1.44,13.25-3.02,34.63-.43,5.76-.07,8.64-.86,9.15-2.74,1.66-3.96,1.73-5.33,1.73h-1.66c-2.95,0-3.17-1.15-3.17-2.66v-.72c0-.94,.07-1.66,.07-2.16s-.29-1.8-.36-3.96c0-.36,0-.43-.36-.43-4.9,0-7.49,.43-7.92,.43-.29,0-.5-.07-.65-.07-1.01,0-1.51,3.24-4.03,9Zm9.5-19.3c3.38,0,3.6-.07,3.89-1.37,.22-.86,.29-2.38,.58-4.61,1.15-8.64,2.23-13.39,2.23-14.11,0-.22-.07-.22-.29-.22-.65,0-1.44,2.52-3.24,7.92-2.52,7.63-4.68,11.31-4.68,11.88,0,.36,.36,.5,1.51,.5Z" fill="#fff"/><path d="M470.08,23.47v-.79c0-.36,0-.58-.22-.58-.36,0-.5,.29-.5,.86,0,.36-.65,10.23-4.25,26.93-.5,2.45-2.38,4.32-6.19,4.32-1.01,0-1.87-.58-3.46-.94-.65-.14-1.15-.22-1.15-1.58,0-.94,2.38-12.53,7.99-34.42,1.94-7.56,2.88-11.59,3.67-12.6,1.01-1.3,1.8-1.51,4.32-1.51,1.08,0,2.38,.86,4.18,1.58,.79,.29,1.66,.07,1.94,.58,.5,1.01,1.22,.36,1.22,1.87,0,.22-.07,.94-.07,2.09,0,.14,.36,6.84,1.15,20.09,.22,3.31,.07,4.75,.5,4.75s.58-.43,.58-1.37,.14-4.18,.94-8.78c1.37-7.99,2.38-14.33,3.6-19.01,.65-2.38,.72-3.53,1.08-3.74,.72-.5,3.1-1.22,4.18-1.22,.5,0,.94,.07,1.37,.07h.94c1.22,0,4.25,1.37,4.25,1.8,0,.29-1.3,5.69-3.89,16.2-1.73,6.91-3.17,14.55-5.18,22.54-1.94,7.85-2.52,11.09-3.38,11.09-1.01,0-1.73,.36-2.3,.36-.29,0-2.3-.36-6.19-1.08-3.38-9.58-5.11-18.79-5.11-27.51Z" fill="#fff"/><path d="M498.23,36c1.73,0,1.44,.14,1.94,1.44,1.3,3.38,3.24,5.18,5.76,5.18,1.8,0,3.6-1.73,3.6-3.96,0-2.02-2.38-4.03-5.9-7.92-2.59-2.88-3.89-6.19-3.89-9.15,0-6.55,3.46-12.53,9.94-17.5,2.81-2.16,5.83-3.17,6.77-3.17,2.23,0,3.74,1.44,5.76,2.52,2.88,1.58,5.69,1.87,5.69,8.71,0,6.19-2.3,10.37-5.04,10.37-1.58,0-5.18-.72-5.98-1.08-1.08-.43-1.15-1.15-1.15-2.38v-1.01c0-2.45,.58-4.25,.58-5.33,0-.43-.29-.65-.79-.65-.72,0-4.25,3.17-4.25,7.06,0,3.38,2.81,5.4,6.12,8.64,3.17,3.1,4.75,5.76,4.75,8.93,0,8.5-7.85,16.78-16.2,16.78-6.84,0-13.39-5.47-13.39-12.6,0-.5,.07-1.22,.14-2.09,2.74-1.8,4.46-2.81,5.54-2.81Z" fill="#fff"/></svg>