<svg width="621" height="499" viewBox="0 0 621 499" fill="none" xmlns="http://www.w3.org/2000/svg">
<g clip-path="url(#clip0_444_259)">
<path d="M235.58 100.16H82.4799C82.4799 100.16 18.0599 132.75 0.629883 184.29C1.38988 217.64 0.629883 367.7 0.629883 367.7C0.629883 367.7 24.8799 421.51 74.1499 448.04H235.58V397.26L140.84 398.78C140.84 398.78 98.3599 371.36 82.0899 350.21C81.7299 314.66 81.7299 210.83 81.7299 210.83C81.7299 210.83 100.1 178.61 132.6 157.21C174.95 156.27 235.58 155.51 235.58 155.51V100.18V100.16Z" fill="#A0A0A0"/>
<path d="M292.42 100.16H445.51C445.51 100.16 509.93 132.75 527.36 184.29C526.6 217.64 527.36 367.7 527.36 367.7C527.36 367.7 503.11 421.51 453.84 448.04H292.41V397.26L387.15 398.78C387.15 398.78 429.63 371.36 445.9 350.21C446.26 314.66 446.26 210.83 446.26 210.83C446.26 210.83 427.89 178.61 395.39 157.21C353.04 156.27 292.41 155.51 292.41 155.51V100.18L292.42 100.16Z" fill="#A0A0A0"/>
<path d="M43.3301 498.31L136.55 142.1L178.99 101.93L223.71 266.39L348.76 4.92011L406.36 0.370117L394.99 376.29L620.08 107.23V180.75L403.33 438.43L344.21 454.35L366.19 35.2301L235.58 320.71L197.94 328.54L160.04 155.74L76.6701 498.31H43.3301Z" fill="white"/>
</g>
<defs>
<clipPath id="clip0_444_259">
<rect width="621" height="499" fill="white"/>
</clipPath>
</defs>
</svg>
