<svg width="2811" height="1000" viewBox="0 0 2811 1000" fill="none" xmlns="http://www.w3.org/2000/svg">
<g clip-path="url(#clip0_505_162)">
<path d="M1059.06 542.631C1023.96 523.543 996.464 497.176 976.556 463.518C956.651 429.88 946.697 391.91 946.697 349.635C946.697 307.372 956.756 269.405 976.872 235.73C996.976 202.093 1024.58 175.709 1059.68 156.634C1094.76 137.547 1134.05 128.001 1177.57 128.001C1212.86 128.001 1245.06 134.159 1274.21 146.472C1303.36 158.784 1327.99 176.634 1348.09 200.034L1296.37 248.664C1265.18 215.026 1226.82 198.189 1181.26 198.189C1151.71 198.189 1125.23 204.647 1101.85 217.58C1078.45 230.514 1060.18 248.468 1047.05 271.447C1033.91 294.439 1027.35 320.501 1027.35 349.635C1027.35 378.78 1033.91 404.83 1047.05 427.822C1060.18 450.797 1078.45 468.755 1101.85 481.685C1125.23 494.618 1151.71 501.08 1181.26 501.08C1226.82 501.08 1265.18 484.047 1296.37 449.98L1348.09 499.235C1327.99 522.618 1303.26 540.481 1273.91 552.797C1244.56 565.11 1212.24 571.264 1176.95 571.264C1133.45 571.264 1094.15 561.718 1059.06 542.631Z" fill="white"/>
<path d="M1639.57 439.335H1438.3C1441.82 458.226 1451.04 473.201 1465.92 484.243C1480.82 495.289 1499.3 500.822 1521.4 500.822C1549.58 500.822 1572.8 491.535 1591.06 472.96L1623.23 509.943C1611.71 523.726 1597.14 534.131 1579.53 541.164C1561.91 548.214 1542.07 551.739 1519.97 551.739C1491.79 551.739 1466.96 546.143 1445.52 534.918C1424.05 523.726 1407.49 508.097 1395.79 488.089C1384.1 468.076 1377.02 443.981 1377.02 418.672C1377.02 393.697 1383.95 372.643 1395.31 352.631C1406.67 332.618 1422.44 317.01 1442.62 305.801C1462.8 294.589 1485.54 288.98 1510.83 288.98C1535.82 288.98 1558.14 294.514 1577.85 305.555C1597.53 316.601 1612.9 332.135 1623.96 352.147C1635 372.172 1640.52 395.301 1640.52 421.56C1640.52 425.722 1640.2 431.651 1639.57 439.335ZM1462.08 354.068C1448.79 365.443 1440.7 380.568 1437.83 399.46H1583.37C1580.8 380.901 1572.95 365.835 1559.84 354.31C1546.69 342.785 1530.37 337.018 1510.83 337.018C1491.62 337.018 1475.37 342.71 1462.08 354.068Z" fill="white"/>
<path d="M1846.6 288.984V346.147C1841.47 345.18 1836.83 344.709 1832.67 344.709C1809.28 344.709 1791.04 351.518 1777.91 365.114C1764.78 378.73 1758.22 398.347 1758.22 423.955V548.372H1698.17V291.872H1755.33V329.343C1772.63 302.43 1803.04 288.984 1846.6 288.984Z" fill="white"/>
<path d="M2061.32 534.443C2054.27 540.206 2045.7 544.531 2035.62 547.406C2025.53 550.297 2014.88 551.731 2003.67 551.731C1975.49 551.731 1953.72 544.368 1938.34 529.635C1922.97 514.914 1915.29 493.451 1915.29 465.272V341.826H1873.02V293.785H1915.29V235.185H1975.34V293.785H2044.03V341.826H1975.34V463.835C1975.34 476.326 1978.38 485.856 1984.46 492.406C1990.54 498.989 1999.34 502.256 2010.88 502.256C2024.33 502.256 2035.54 498.743 2044.51 491.697L2061.32 534.443Z" fill="white"/>
<path d="M2147.3 534.922C2126.49 523.714 2110.22 508.101 2098.54 488.093C2086.85 468.08 2081.02 445.418 2081.02 420.114C2081.02 394.822 2086.85 372.255 2098.54 352.393C2110.22 332.53 2126.49 317.014 2147.3 305.805C2168.11 294.593 2191.5 288.984 2217.42 288.984C2243.68 288.984 2267.22 294.593 2288.03 305.805C2308.85 317.014 2325.11 332.53 2336.8 352.393C2348.48 372.255 2354.33 394.822 2354.33 420.114C2354.33 445.418 2348.48 468.08 2336.8 488.093C2325.11 508.101 2308.85 523.714 2288.03 534.922C2267.22 546.13 2243.68 551.726 2217.42 551.726C2191.5 551.726 2168.11 546.13 2147.3 534.922ZM2272.18 478.243C2286.6 463.51 2293.8 444.134 2293.8 420.114C2293.8 396.109 2286.6 376.73 2272.18 361.997C2257.78 347.28 2239.52 339.897 2217.42 339.897C2195.34 339.897 2177.16 347.28 2162.91 361.997C2148.66 376.73 2141.54 396.109 2141.54 420.114C2141.54 444.134 2148.66 463.51 2162.91 478.243C2177.16 492.976 2195.34 500.343 2217.42 500.343C2239.52 500.343 2257.78 492.976 2272.18 478.243Z" fill="white"/>
<path d="M2457.12 534.922C2436.29 523.714 2420.04 508.101 2408.37 488.093C2396.67 468.08 2390.84 445.418 2390.84 420.114C2390.84 394.822 2396.67 372.255 2408.37 352.393C2420.04 332.53 2436.29 317.014 2457.12 305.805C2477.93 294.593 2501.3 288.984 2527.24 288.984C2553.5 288.984 2577.04 294.593 2597.85 305.805C2618.67 317.014 2634.93 332.53 2646.62 352.393C2658.3 372.255 2664.15 394.822 2664.15 420.114C2664.15 445.418 2658.3 468.08 2646.62 488.093C2634.93 508.101 2618.67 523.714 2597.85 534.922C2577.04 546.13 2553.5 551.726 2527.24 551.726C2501.3 551.726 2477.93 546.13 2457.12 534.922ZM2582 478.243C2596.42 463.51 2603.62 444.134 2603.62 420.114C2603.62 396.109 2596.42 376.73 2582 361.997C2567.6 347.28 2549.34 339.897 2527.24 339.897C2505.16 339.897 2486.98 347.28 2472.73 361.997C2458.48 376.73 2451.36 396.109 2451.36 420.114C2451.36 444.134 2458.48 463.51 2472.73 478.243C2486.98 492.976 2505.16 500.343 2527.24 500.343C2549.34 500.343 2567.6 492.976 2582 478.243Z" fill="white"/>
<path d="M492.872 690.122C302.626 690.122 147.855 535.351 147.855 345.105C147.855 154.859 302.626 0.0717773 492.872 0.0717773C683.118 0.0717773 837.889 154.859 837.889 345.105C837.889 535.351 683.118 690.122 492.872 690.122ZM492.872 41.126C325.256 41.126 188.893 177.489 188.893 345.105C188.893 512.722 325.256 649.085 492.872 649.085C660.489 649.085 796.852 512.722 796.852 345.105C796.852 177.489 660.489 41.126 492.872 41.126Z" fill="white"/>
<path d="M413.068 496.36C408.198 496.36 403.539 494.439 400.077 491.022L289.364 381.368C282.118 374.185 282.06 362.493 289.243 355.247C296.414 348.001 308.106 347.939 315.352 355.126L412.948 451.768L664.56 197.585C671.727 190.339 683.423 190.276 690.681 197.447C697.927 204.635 697.989 216.326 690.802 223.572L426.198 490.885C422.748 494.364 418.06 496.331 413.16 496.36H413.068Z" fill="white"/>
<path d="M32.9129 947.706L11.2796 969.643V997.472H0.0878906V891.589H11.2796V955.581L73.4546 891.589H86.3046L40.4754 939.535L89.4796 997.472H76.1713L32.9129 947.706Z" fill="white"/>
<path d="M185.535 987.798V997.473H110.664V891.589H183.268V901.264H121.852V938.931H176.614V948.46H121.852V987.798H185.535Z" fill="white"/>
<path d="M221.076 986.585C213.417 978.71 209.584 967.276 209.584 952.239V891.589H220.771V951.797C220.771 964.089 223.551 973.276 229.096 979.318C234.638 985.372 242.659 988.401 253.147 988.401C263.738 988.401 271.801 985.372 277.351 979.318C282.897 973.276 285.667 964.089 285.667 951.797V891.589H296.559V952.239C296.559 967.276 292.747 978.71 285.142 986.585C277.526 994.443 266.859 998.372 253.147 998.372C239.43 998.372 228.742 994.443 221.076 986.585Z" fill="white"/>
<path d="M395.489 947.41C401.034 942.772 403.805 936.256 403.805 927.897C403.805 919.314 401.034 912.739 395.489 908.147C389.943 903.568 381.922 901.264 371.439 901.264H343.301V954.368H371.439C381.922 954.368 389.943 952.047 395.489 947.41ZM404.409 997.472L380.205 963.439C377.489 963.731 374.659 963.893 371.734 963.893H343.301V997.472H332.109V891.589H371.734C385.251 891.589 395.843 894.822 403.501 901.264C411.168 907.718 415.001 916.597 415.001 927.897C415.001 936.156 412.905 943.139 408.726 948.843C404.534 954.543 398.559 958.651 390.797 961.164L416.664 997.472H404.409Z" fill="white"/>
<path d="M455.539 891.589H444.348V997.473H455.539V891.589Z" fill="white"/>
<path d="M580.031 891.589V997.473H570.797L502.731 911.56V997.473H491.539V891.589H500.764L568.981 977.502V891.589H580.031Z" fill="white"/>
<path d="M692.261 944.531H702.998V984.918C698.061 989.26 692.211 992.585 685.456 994.902C678.698 997.222 671.586 998.372 664.127 998.372C653.536 998.372 644.006 996.056 635.536 991.418C627.065 986.777 620.411 980.352 615.573 972.139C610.736 963.91 608.311 954.722 608.311 944.531C608.311 934.351 610.736 925.151 615.573 916.922C620.411 908.71 627.065 902.285 635.536 897.643C644.006 893.006 653.59 890.689 664.281 890.689C672.348 890.689 679.756 891.972 686.515 894.543C693.273 897.114 698.969 900.922 703.606 905.96L696.648 913.068C688.281 904.793 677.644 900.66 664.731 900.66C656.156 900.66 648.419 902.547 641.511 906.331C634.606 910.114 629.186 915.356 625.256 922.064C621.319 928.768 619.352 936.26 619.352 944.531C619.352 952.802 621.319 960.264 625.256 966.927C629.186 973.572 634.577 978.818 641.44 982.643C648.294 986.481 656.011 988.402 664.586 988.402C675.473 988.402 684.698 985.668 692.261 980.235V944.531Z" fill="white"/>
<path d="M811.299 987.798V997.473H736.428V891.589H809.032V901.264H747.615V938.931H802.378V948.46H747.615V987.798H811.299Z" fill="white"/>
<path d="M925.361 891.589V997.473H916.128L848.061 911.56V997.473H836.869V891.589H846.094L914.311 977.502V891.589H925.361Z" fill="white"/>
<path d="M1023.45 902.785C1020.48 905.402 1018.98 908.885 1018.98 913.214C1018.98 916.347 1019.8 919.314 1021.41 922.135C1023.01 924.972 1026.19 928.797 1030.93 933.643C1038.6 929.197 1043.9 925.414 1046.82 922.297C1049.75 919.168 1051.21 915.739 1051.21 912.002C1051.21 907.968 1049.84 904.781 1047.12 902.402C1044.4 900.039 1040.62 898.856 1035.78 898.856C1030.53 898.856 1026.42 900.156 1023.45 902.785ZM1060.28 977.502L1028.36 944.677C1019.99 949.418 1014.22 953.702 1011.04 957.543C1007.87 961.368 1006.28 965.656 1006.28 970.398C1006.28 976.143 1008.63 980.752 1013.31 984.235C1018 987.723 1024.18 989.452 1031.84 989.452C1043.54 989.452 1053.02 985.477 1060.28 977.502ZM1081.31 999.143L1066.64 984.014C1057.66 993.589 1045.86 998.373 1031.23 998.373C1024.38 998.373 1018.25 997.252 1012.86 994.977C1007.46 992.702 1003.26 989.527 1000.23 985.448C997.201 981.356 995.697 976.702 995.697 971.46C995.697 965.106 997.706 959.406 1001.74 954.368C1005.78 949.314 1012.63 944.027 1022.31 938.472C1017.27 933.243 1013.79 928.768 1011.88 925.089C1009.96 921.414 1009.01 917.514 1009.01 913.377C1009.01 906.61 1011.42 901.177 1016.26 897.039C1021.1 892.902 1027.61 890.835 1035.78 890.835C1043.34 890.835 1049.34 892.697 1053.78 896.435C1058.21 900.156 1060.43 905.297 1060.43 911.856C1060.43 917.097 1058.67 921.81 1055.14 926.006C1051.61 930.185 1045.51 934.797 1036.83 939.847L1065.88 969.789C1069.11 964.043 1071.48 957.235 1072.99 949.377L1081.76 952.093C1079.84 961.577 1076.72 969.685 1072.38 976.452L1087.51 992.023L1081.31 999.143Z" fill="white"/>
<path d="M1240.28 891.589L1193.39 997.473H1182.35L1135.45 891.589H1147.56L1188.09 983.56L1228.94 891.589H1240.28Z" fill="white"/>
<path d="M1316.36 960.114L1290.96 903.226L1265.54 960.114H1316.36ZM1320.45 969.185H1261.46L1248.75 997.472H1237.11L1285.51 891.589H1296.56L1344.96 997.472H1333.16L1320.45 969.185Z" fill="white"/>
<path d="M1375.13 994.593C1367.92 992.081 1362.35 988.76 1358.42 984.622L1362.8 975.997C1366.63 979.822 1371.73 982.922 1378.08 985.302C1384.43 987.664 1390.98 988.847 1397.75 988.847C1407.23 988.847 1414.34 987.118 1419.08 983.631C1423.81 980.16 1426.18 975.639 1426.18 970.102C1426.18 965.864 1424.9 962.481 1422.33 959.952C1419.76 957.443 1416.59 955.493 1412.87 954.135C1409.14 952.772 1403.95 951.281 1397.29 949.672C1389.32 947.664 1382.97 945.714 1378.23 943.852C1373.49 941.989 1369.43 939.139 1366.05 935.297C1362.67 931.472 1360.99 926.272 1360.99 919.731C1360.99 914.381 1362.4 909.506 1365.22 905.122C1368.04 900.747 1372.38 897.231 1378.23 894.618C1384.08 891.989 1391.34 890.689 1400.02 890.689C1406.07 890.689 1411.99 891.514 1417.78 893.185C1423.58 894.839 1428.61 897.143 1432.83 900.056L1429.05 908.989C1424.62 906.064 1419.88 903.864 1414.84 902.401C1409.8 900.939 1404.85 900.214 1400.02 900.214C1390.73 900.214 1383.75 902.001 1379.06 905.576C1374.37 909.168 1372.03 913.776 1372.03 919.418C1372.03 923.66 1373.32 927.056 1375.89 929.626C1378.46 932.197 1381.68 934.176 1385.57 935.535C1389.44 936.893 1394.67 938.385 1401.22 939.997C1408.99 941.918 1415.27 943.806 1420.05 945.668C1424.84 947.531 1428.9 950.352 1432.22 954.135C1435.57 957.914 1437.22 963.039 1437.22 969.497C1437.22 974.843 1435.79 979.702 1432.9 984.089C1430.04 988.477 1425.62 991.947 1419.67 994.518C1413.73 997.089 1406.4 998.377 1397.75 998.377C1389.87 998.377 1382.34 997.118 1375.13 994.593Z" fill="white"/>
<path d="M1488.05 901.264H1450.84V891.589H1536.46V901.264H1499.24V997.472H1488.05V901.264Z" fill="white"/>
<path d="M1627.82 944.531H1638.56V984.918C1633.61 989.26 1627.76 992.585 1621.01 994.902C1614.24 997.222 1607.14 998.372 1599.68 998.372C1589.09 998.372 1579.56 996.056 1571.09 991.418C1562.62 986.777 1555.97 980.352 1551.12 972.139C1546.28 963.91 1543.86 954.722 1543.86 944.531C1543.86 934.351 1546.28 925.151 1551.12 916.922C1555.97 908.71 1562.62 902.285 1571.09 897.643C1579.56 893.006 1589.15 890.689 1599.83 890.689C1607.89 890.689 1615.31 891.972 1622.07 894.543C1628.82 897.114 1634.53 900.922 1639.17 905.96L1632.21 913.068C1623.83 904.793 1613.19 900.66 1600.29 900.66C1591.72 900.66 1583.98 902.547 1577.07 906.331C1570.15 910.114 1564.74 915.356 1560.8 922.064C1556.87 928.768 1554.91 936.26 1554.91 944.531C1554.91 952.802 1556.87 960.264 1560.8 966.927C1564.74 973.572 1570.14 978.818 1576.99 982.643C1583.84 986.481 1591.55 988.402 1600.14 988.402C1611.02 988.402 1620.26 985.668 1627.82 980.235V944.531Z" fill="white"/>
<path d="M1741.42 982.731C1748.17 978.947 1753.45 973.706 1757.29 966.997C1761.12 960.293 1763.04 952.802 1763.04 944.531C1763.04 936.26 1761.12 928.768 1757.29 922.064C1753.45 915.356 1748.17 910.114 1741.42 906.331C1734.65 902.547 1727.09 900.66 1718.73 900.66C1710.35 900.66 1702.76 902.547 1695.96 906.331C1689.15 910.114 1683.81 915.356 1679.92 922.064C1676.04 928.768 1674.1 936.26 1674.1 944.531C1674.1 952.802 1676.04 960.293 1679.92 966.997C1683.81 973.706 1689.15 978.947 1695.96 982.731C1702.76 986.514 1710.35 988.402 1718.73 988.402C1727.09 988.402 1734.65 986.514 1741.42 982.731ZM1690.22 991.343C1681.69 986.66 1675.03 980.235 1670.24 972.064C1665.46 963.897 1663.05 954.722 1663.05 944.531C1663.05 934.351 1665.46 925.164 1670.24 916.997C1675.03 908.826 1681.69 902.401 1690.22 897.718C1698.72 893.022 1708.24 890.689 1718.73 890.689C1729.22 890.689 1738.67 893.006 1747.09 897.643C1755.51 902.285 1762.14 908.71 1766.97 916.922C1771.82 925.151 1774.24 934.351 1774.24 944.531C1774.24 954.722 1771.82 963.91 1766.97 972.139C1762.14 980.352 1755.51 986.777 1747.09 991.418C1738.67 996.056 1729.22 998.372 1718.73 998.372C1708.24 998.372 1698.72 996.039 1690.22 991.343Z" fill="white"/>
<path d="M1877.39 987.798V997.473H1802.51V891.589H1875.13V901.264H1813.71V938.931H1868.47V948.46H1813.71V987.798H1877.39Z" fill="white"/>
<path d="M1945.47 987.798C1954.75 987.798 1962.86 985.952 1969.82 982.273C1976.77 978.594 1982.18 973.498 1986.01 966.998C1989.83 960.485 1991.75 952.994 1991.75 944.531C1991.75 936.069 1989.83 928.577 1986.01 922.064C1982.18 915.564 1976.77 910.469 1969.82 906.789C1962.86 903.11 1954.75 901.264 1945.47 901.264H1914.16V987.798H1945.47ZM1902.96 891.589H1946.08C1957.28 891.589 1967.14 893.835 1975.73 898.327C1984.29 902.814 1990.96 909.064 1995.68 917.069C2000.42 925.089 2002.8 934.252 2002.8 944.531C2002.8 954.81 2000.42 963.973 1995.68 971.994C1990.96 979.998 1984.29 986.26 1975.73 990.735C1967.14 995.227 1957.28 997.473 1946.08 997.473H1902.96V891.589Z" fill="white"/>
<path d="M2073.59 987.798C2082.87 987.798 2090.98 985.952 2097.94 982.273C2104.89 978.594 2110.3 973.498 2114.12 966.998C2117.95 960.485 2119.87 952.994 2119.87 944.531C2119.87 936.069 2117.95 928.577 2114.12 922.064C2110.3 915.564 2104.89 910.469 2097.94 906.789C2090.98 903.11 2082.87 901.264 2073.59 901.264H2042.27V987.798H2073.59ZM2031.08 891.589H2074.19C2085.39 891.589 2095.26 893.835 2103.84 898.327C2112.41 902.814 2119.07 909.064 2123.8 917.069C2128.54 925.089 2130.92 934.252 2130.92 944.531C2130.92 954.81 2128.54 963.973 2123.8 971.994C2119.07 979.998 2112.41 986.26 2103.84 990.735C2095.26 995.227 2085.39 997.473 2074.19 997.473H2031.08V891.589Z" fill="white"/>
<path d="M2170.54 891.589H2159.34V997.473H2170.54V891.589Z" fill="white"/>
<path d="M2281.41 987.798V997.473H2206.54V891.589H2279.16V901.264H2217.73V938.931H2272.49V948.46H2217.73V987.798H2281.41Z" fill="white"/>
<path d="M2395.46 891.589V997.473H2386.23L2318.16 911.56V997.473H2306.96V891.589H2316.2L2384.41 977.502V891.589H2395.46Z" fill="white"/>
<path d="M2439.71 994.593C2432.5 992.081 2426.93 988.76 2422.99 984.622L2427.37 975.997C2431.21 979.822 2436.29 982.922 2442.65 985.302C2449.02 987.664 2455.56 988.847 2462.32 988.847C2471.79 988.847 2478.91 987.118 2483.65 983.631C2488.38 980.16 2490.76 975.639 2490.76 970.102C2490.76 965.864 2489.47 962.481 2486.9 959.952C2484.33 957.443 2481.17 955.493 2477.45 954.135C2473.71 952.772 2468.53 951.281 2461.87 949.672C2453.9 947.664 2447.55 945.714 2442.81 943.852C2438.07 941.989 2434.01 939.139 2430.62 935.297C2427.25 931.472 2425.56 926.272 2425.56 919.731C2425.56 914.381 2426.97 909.506 2429.79 905.122C2432.62 900.747 2436.96 897.231 2442.81 894.618C2448.66 891.989 2455.91 890.689 2464.58 890.689C2470.64 890.689 2476.56 891.514 2482.35 893.185C2488.16 894.839 2493.18 897.143 2497.41 900.056L2493.62 908.989C2489.19 906.064 2484.45 903.864 2479.42 902.401C2474.36 900.939 2469.43 900.214 2464.58 900.214C2455.31 900.214 2448.32 902.001 2443.64 905.576C2438.95 909.168 2436.6 913.776 2436.6 919.418C2436.6 923.66 2437.89 927.056 2440.46 929.626C2443.03 932.197 2446.25 934.176 2450.14 935.535C2454.02 936.893 2459.24 938.385 2465.79 939.997C2473.57 941.918 2479.84 943.806 2484.63 945.668C2489.42 947.531 2493.48 950.352 2496.8 954.135C2500.14 957.914 2501.79 963.039 2501.79 969.497C2501.79 974.843 2500.36 979.702 2497.48 984.089C2494.62 988.477 2490.2 991.947 2484.24 994.518C2478.31 997.089 2470.99 998.377 2462.32 998.377C2454.45 998.377 2446.92 997.118 2439.71 994.593Z" fill="white"/>
<path d="M2552.62 901.264H2515.42V891.589H2601.03V901.264H2563.82V997.472H2552.62V901.264Z" fill="white"/>
<path d="M2696.93 987.798V997.473H2622.05V891.589H2694.67V901.264H2633.25V938.931H2688.01V948.46H2633.25V987.798H2696.93Z" fill="white"/>
<path d="M2810.98 891.589V997.473H2801.75L2733.68 911.56V997.473H2722.48V891.589H2731.72L2799.93 977.502V891.589H2810.98Z" fill="white"/>
</g>
<defs>
<clipPath id="clip0_505_162">
<rect width="2811" height="1000" fill="white"/>
</clipPath>
</defs>
</svg>
