<svg width="1827" height="2125" viewBox="0 0 1827 2125" fill="none" xmlns="http://www.w3.org/2000/svg">
<path fill-rule="evenodd" clip-rule="evenodd" d="M361.014 92.3447C440.765 33.5787 533.122 0 638.074 0C776.604 0 898.338 58.766 982.291 151.111C1070.45 58.753 1196.4 0 1334.91 0C1599.38 0 1817.66 214.079 1817.66 482.748V1376.9H1456.66V482.748C1456.66 381.998 1376.9 302.247 1276.15 302.247C1179.61 302.247 1095.63 382.011 1095.63 482.748V659.059H1334.91V1020.07H1095.63V1376.9H738.81V1020.07H499.544V659.059H738.823V482.748C738.823 381.998 659.072 302.247 558.323 302.247C461.776 302.247 377.822 382.011 377.822 482.748V1376.9H20.9854V33.5787H361.014V92.3447Z" fill="white"/>
<path fill-rule="evenodd" clip-rule="evenodd" d="M176.311 1578.38C163.717 1561.59 142.732 1553.21 121.734 1553.21C75.5619 1553.21 50.3746 1595.18 50.3746 1637.16C50.3746 1679.14 79.7641 1716.9 121.734 1716.9C142.732 1716.9 163.717 1708.52 176.311 1691.72V1750.49C159.528 1758.89 142.732 1763.08 121.734 1763.08C54.5768 1763.08 0 1704.32 0 1637.16C0 1569.98 50.3746 1507.03 121.734 1507.03C142.732 1507.03 159.515 1511.21 176.311 1519.63V1578.38ZM344.218 1607.77V1515.41H390.403V1758.89H344.218V1649.74H256.062V1758.89H205.688V1515.41H256.062V1607.77H344.218ZM591.888 1758.89H533.122L474.356 1658.12V1758.89H423.982V1515.41H491.139C537.324 1515.41 570.903 1536.41 570.903 1586.77C570.903 1616.16 554.107 1649.74 520.529 1653.96L591.888 1758.89ZM474.356 1624.57H478.558C503.746 1624.57 524.744 1616.16 524.744 1586.77C524.744 1557.38 503.746 1553.21 478.558 1553.21H474.356V1624.57ZM604.482 1515.41H654.856V1758.89H604.482V1515.41ZM801.778 1565.79C793.386 1553.19 780.793 1548.99 763.997 1548.99C751.403 1548.99 734.608 1557.37 734.608 1574.17C734.608 1616.14 831.154 1599.34 831.154 1679.12C831.154 1729.48 801.765 1763.07 751.403 1763.07C717.825 1763.07 692.637 1746.28 675.841 1716.89L709.42 1687.5C713.622 1704.29 730.405 1721.09 751.403 1721.09C772.388 1721.09 784.982 1704.29 784.982 1687.5C784.982 1662.32 759.795 1653.93 742.999 1645.53C709.42 1632.93 688.422 1616.14 688.422 1578.37C688.422 1540.57 717.812 1507.01 759.782 1507.01C780.767 1507.01 810.156 1519.6 822.737 1536.4L801.778 1565.79ZM936.119 1758.89H889.933V1553.21H839.559V1515.41H986.493V1553.21H936.119V1758.89ZM1049.45 1553.21V1607.77H1125.01V1649.74H1049.45V1716.9H1129.21V1758.89H1003.29V1515.41H1129.21V1553.21H1049.45ZM1208.98 1716.9H1276.13V1758.89H1158.6V1515.41H1208.98V1716.9ZM1288.73 1515.41H1339.12V1758.89H1288.73V1515.41ZM1465.04 1674.92C1465.04 1695.91 1465.04 1716.89 1448.24 1737.88C1435.65 1754.68 1418.85 1763.06 1393.68 1763.06C1376.88 1763.06 1360.09 1754.68 1347.49 1742.09L1376.88 1704.29C1381.09 1712.7 1389.48 1721.09 1397.88 1721.09C1418.85 1721.09 1418.85 1683.32 1418.85 1666.52V1515.4H1465.04V1674.92ZM1620.36 1515.41H1679.13L1586.77 1624.57L1683.32 1758.89H1624.54L1544.8 1649.74V1758.89H1498.62V1515.41H1544.8V1616.15L1620.36 1515.41ZM1746.29 1553.21V1607.77H1821.85V1649.74H1746.29V1716.9H1826.05V1758.89H1700.12V1515.41H1826.05V1553.21H1746.29ZM205.688 1968.77L151.124 2119.9H134.328L79.764 1968.77L58.766 2119.9H8.39143L50.3746 1868.02H83.9533L142.732 2027.54L201.498 1868.02H235.077L272.858 2119.9H226.686L205.688 1968.77ZM293.843 1876.44H340.028V2010.74C340.028 2040.13 344.218 2082.13 386.201 2082.13C423.982 2082.13 428.184 2040.13 428.184 2010.74V1876.44H474.356V2019.16C474.356 2077.92 449.169 2124.11 386.201 2124.11C319.03 2124.11 293.843 2077.92 293.843 2019.16V1876.44ZM591.888 2119.9H541.514V1914.21H491.139V1876.44H638.074V1914.21H591.888V2119.9ZM654.856 1876.44H705.231V2010.74C705.231 2040.13 705.231 2082.13 747.214 2082.13C789.197 2082.13 789.197 2040.13 789.197 2010.74V1876.44H839.572V2019.16C839.572 2077.92 814.385 2124.11 747.214 2124.11C680.044 2124.11 654.856 2077.92 654.856 2019.16V1876.44ZM923.525 2065.33L902.527 2119.9H852.152L948.699 1868.02H986.493L1078.82 2119.9H1024.26L1007.47 2065.33H923.525ZM965.495 1939.38H961.319L936.119 2027.54H994.885L965.495 1939.38ZM1141.81 2077.93H1208.98V2119.9H1091.44V1876.44H1141.81V2077.93ZM1225.75 1876.44H1271.93V2119.9H1225.75V1876.44ZM1389.46 2119.9H1339.12V1914.21H1292.93V1876.44H1435.65V1914.21H1389.46V2119.9ZM1502.83 1914.21V1968.77H1578.39V2010.74H1502.83V2077.93H1582.57V2119.9H1456.65V1876.44H1582.57V1914.21H1502.83ZM1616.16 1876.44H1662.33V2119.9H1616.16V1876.44ZM1779.88 2119.9H1729.49V1914.21H1683.32V1876.44H1826.05V1914.21H1779.88V2119.9Z" fill="white"/>
</svg>
