<svg id="Layer_1" xmlns="http://www.w3.org/2000/svg" viewBox="0 0 467.716 90.884">
    <defs>
        <style>.cls-1{fill:#fff;}</style>
    </defs>
    <path class="cls-1" d="M100.4281,3.7154l-.1522,.2941-14.1591,27.4255h1.9211v1.421h-2.696l-.0279,.0534-.0003,.0005h.0412l-3.2502,6.2958h8.7006l5.8948-.0273v1.472l-15.35,.017-3.2464,6.2864h11.2243l15.0021-.0275v.0275h.0163v1.421h-15.6871l-11.2991,.0205-.7238,1.4014-2.5299,4.9006h38.0723v1.421h-.1536v.015l-38.655-.01-.1962,.3794-2.6877,5.2056,84.9589,.04L193.6691,3.7154H100.4281Zm47.9982,52.319h-.0002v.029l-34.263-.009v-1.421h.0012v-.011l34.262-.009v1.421Zm7.6989-7.6641l-16.3635,.0029-33.3116,.0161v-1.421h.0351v-.01l33.2097-.006,16.4302-.0079v.0049h.0001v1.421Zm8.1719-7.7029l-65.413,.009v-1.422h.1054v-.0441l65.413-.009v1.422h-.1054v.0442Zm-90.9271,15.4555h-3.439v-1.421h.0081v-.0045h4.1674l2.5299-4.9006,.7237-1.4019h-15.157v-.0201h-.0963v-1.421h15.9966l3.2466-6.2869h-26.875v-.0402h-.0145v-1.421h27.6443l3.2502-6.2958H46.717v-1.421h.105v-.054h39.2949l14.1591-27.4255,.152-.2945C93.796,3.715,43.51,.001,18.47,20.7699-6.509,41.4889,2.05,64.064,25.103,79.514c0,0,13.131,9.133,30.32,11.37l15.0632-29.1755,2.6877-5.2056,.1961-.3799ZM38.99,23.7609h.0555v-.0356h41.216v1.421h-.0555v.0356H38.99v-1.421Zm64.1111-3.026c-.088-2.457,1.783-6.629,4.607-9.139,2.074-1.843,4.302-3.61,7.45-4.455,2.843-.762,4.455-.921,6.912-.998,2.995-.093,5.837-.153,7.296-.077,1.46,.077,2.688,.615,2.611,1.69-.076,1.075-.536,1.382-1.842,1.459-1.306,.077-9.217-.307-12.442,1.383-.71,.371-4.531,2.15-6.298,5.376,0,0-1.996,4.147-.691,6.835,1.306,2.688,2.458,2.688,4.992,2.764,2.534,.077,4.762,.154,5.914-1.92,1.152-2.073,.769-4.147-.46-4.761-1.23-.615-1.998-1.459-.462-2.074,1.536-.614,3.149-.844,5.223-.768,2.073,.077,4.991,0,4.377,2.304s-2.15,7.372-4.454,9.293c-2.304,1.921-7.757,1.689-11.214,1.689-3.455,0-11.212,0-11.519-8.601m33.68-4.1471c.23-.7679-.767-1.9969-1.229-2.304-.461-.307-.844-.998,.615-.998h5.99c.922,0,2.457,.23,1.766,2.227-.691,1.997-3.609,9.6-4.3,10.982-.691,1.382-1.153,2.456-1.613,2.765-.461,.308-3.917,.155-4.685,.155s-1.383-.462-.923-1.461c.504-1.09,3.039-6.899,4.379-11.366m14.3689-6.9121c.28-.7679-.663-2.304-1.123-2.611-.461-.307-.846-.998,.614-.998h5.99c.921,0,2.458,.23,1.767,2.227-.691,1.996-3.61,9.6-4.301,10.982-.691,1.383-3.714,9.599-4.176,9.907-.46,.308-3.993,.232-4.762,.232-.767,0-1.382-.155-.921-1.154,.502-1.089,5.32-14.201,6.912-18.585m15.358,16.7913c1.63,.168,4.396-.999,5.797-2.728,1.087-1.3409,1.456-2.299,1.693-4.173,.28-2.198-.843-2.666-1.729-2.959-1.771-.586-5.531,.776-6.95,2.832-3.165,4.589-.441,6.86,1.189,7.028m-3.6-20.603c1.299,.13,4.295,.225,5.138,.269,.844,.045,2.68,.218,1.886,2.175-.795,1.958-1.852,4.674-1.949,4.897-.262,.601-.778,1.651,.247,1.1671,.129,.468,.613,.032,1.622-.146,1.01-.178,3.275-.828,5.038-.736,1.764,.093,4.267,.762,5.164,2.732,.895,1.969,.908,4.662-.686,7.193-1.594,2.531-6.295,5.77-8.547,6.089-3.177,.449-5.922-.003-6.75-.354-.827-.351-.924-1.433-2.006-1.336-1.082,.098-1.654,.758-2.212,1.115,0,0-2.459-.052-3.609-.112-1.151-.061-1.941,.359-1.171-1.138,.771-1.498,7.06-17.318,7.451-18.913,.258-1.046-2.829-3.224,.384-2.902" />
    <g>
        <path class="cls-1" d="M235.278,61.804h-5.147l.991-2.331h-.077c-1.977,1.758-4.55,2.744-7.395,2.744-4.034,0-6.166-1.849-4.387-6.031l4.571-10.744h5.377l-4.309,10.129c-1.071,2.517,.565,3.008,2.219,3.008,1.768,0,4.491-.798,5.731-3.715l4.01-9.4221h5.376l-6.96,16.362Z" />
        <polygon class="cls-1" points="245.834 61.804 240.456 61.804 249.835 39.762 255.213 39.762 245.834 61.804" />
        <path class="cls-1" d="M263.9475,45.4438h3.341l-1.309,3.071h-3.341l-3.802,8.937c-.407,.96-.526,1.33,1.663,1.33,.345,0,.742-.031,1.139-.061l-1.374,3.231c-.858,.032-1.717,.061-2.561,.061h-.692c-4.649,0-4.897-1.4-3.999-3.508l4.249-9.99h-2.766l1.308-3.071h2.764l1.884-4.425h5.378l-1.882,4.425Z" />
        <path class="cls-1" d="M277.062,43.5609h-5.377l1.702-4.002h5.378l-1.703,4.002Zm-.799,1.881l-6.964,16.362h-5.376l6.962-16.362h5.378Z" />
        <path class="cls-1" d="M287.4129,45.4438h3.342l-1.308,3.071h-3.34l-3.804,8.937c-.408,.96-.529,1.33,1.662,1.33,.346,0,.742-.031,1.14-.061l-1.375,3.231c-.858,.032-1.715,.061-2.561,.061h-.69c-4.649,0-4.897-1.4-4.001-3.508l4.251-9.99h-2.765l1.307-3.071h2.764l1.882-4.425h5.378l-1.882,4.425Z" />
        <path class="cls-1" d="M301.2713,57.0127c-.916,1.161-2.716,1.769-4.215,1.769-4.349,0-3.487-2.744-3.122-3.966h14.01l.328-.769c3.183-7.48-1.71-9.017-5.749-9.017-8.937,0-12.462,6.306-13.301,8.278-2.852,6.703,.606,8.915,6.37,8.915,3.503,0,8.108-1.29,11.188-5.21h-5.509Zm-5.99-5c1.225-2.1559,3.122-3.448,5.661-3.448,1.732,0,3.507,.8,2.689,3.448h-8.35Z" />
        <path class="cls-1" d="M328.7103,55.834c-.909,1.686-4.558,6.3831-12.064,6.3831-7.685,0-7.447-4.697-5.987-8.1281,2.241-5.269,6.722-9.059,13.647-9.059,3.244,0,8.04,1.171,6.369,6.272h-5.448c.226-1.072,.091-2.757-2.468-2.633-3.4,0-5.434,2.694-6.293,4.715-.756,1.776-2.178,5.3,1.916,5.3,2.741,0,4.552-2.084,4.878-2.85h5.45Z" />
        <path class="cls-1" d="M348.3856,61.804h-5.38l4.219-9.9109c.51-1.2,1.296-3.224-2.118-3.224-2.378,0-4.767,1.288-5.826,3.775l-3.982,9.36h-5.378l9.377-22.042h5.379l-3.331,7.828h.078c1.266-1.358,4.08-2.56,6.995-2.56,3.992,0,6.303,1.88,4.771,5.48l-4.804,11.2939Z" />
        <path class="cls-1" d="M371.8528,61.804h-5.378l4.218-9.9109c.509-1.2,1.293-3.224-2.12-3.224-2.377,0-4.767,1.288-5.812,3.742l-3.995,9.3929h-5.38l6.962-16.362h5.148l-1.03,2.426h.075c1.15-.988,3.47-2.838,7.343-2.838,3.994,0,6.305,1.88,4.773,5.48l-4.804,11.2939Z" />
        <path class="cls-1" d="M390.1692,43.5609h-5.375l1.702-4.002h5.378l-1.705,4.002Zm-.799,1.881l-6.962,16.362h-5.378l6.962-16.362h5.378Z" />
        <path class="cls-1" d="M407.6723,55.834c-.909,1.686-4.556,6.3831-12.062,6.3831-7.685,0-7.446-4.697-5.987-8.1281,2.241-5.269,6.724-9.059,13.647-9.059,3.243,0,8.04,1.171,6.371,6.272h-5.448c.224-1.072,.091-2.757-2.471-2.633-3.397,0-5.433,2.694-6.292,4.715-.757,1.776-2.178,5.3,1.916,5.3,2.741,0,4.554-2.084,4.878-2.85h5.448Z" />
        <path class="cls-1" d="M425.2657,50.4415c.222-1.061,.242-2.185-2.644-2.185-2.921,0-3.691,.9041-3.996,1.624-1.106,2.602,12.484,.719,9.925,6.736-2.021,4.753-8.146,5.606-11.338,5.606-4.651,0-9.116-1.281-7.416-5.637h5.507c-.59,1.39,.054,2.406,3.44,2.406,2.765,0,3.878-1.079,4.14-1.695,1.164-2.737-12.386-.68-9.784-6.792,1.035-2.432,4.212-5.478,10.573-5.478,3.973,0,8.398,.793,6.854,5.415h-5.261Z" />
        <rect class="cls-1" x="257.43" y="77.146" width="79.115" height="1.895" />
        <path class="cls-1" d="M207.9358,16.5878c.23-.7679-.768-1.9969-1.229-2.304-.46-.307-.845-.998,.615-.998h5.99c.575,0,1.215,.52,1.577,1.075,.082,.125,3.136-.729,4.531-.845,2.764-.23,4.239,.294,4.532,.691,1.074,1.459,.307,1.306-2.349,1.401-1.239,.045-3.532,.876-4.948,1.518-2.444,1.106-3.143,2.768-3.692,4.014-1.016,2.315-1.836,4.655-2.186,5.355-.691,1.382-1.151,2.456-1.612,2.765-.461,.308-3.917,.155-4.685,.155s-1.382-.462-.923-1.461c.504-1.09,3.038-6.899,4.379-11.366" />
        <path class="cls-1" d="M231.9387,7.4485c.691-.7679,2.38-.922,3.302-.845,.922,.077,2.228-.153,1.844,1.152-.385,1.306-.769,2.458-1.152,3.763-.385,1.306-.692,1.844,.46,2.304,1.345,.539,2.811,1.224,1.538,2.151-.846,.614-1.307,.614-2.536,.998,0,0-1.076-.384-2.38,1.92-1.306,2.304-1.537,3.763-1.921,4.838-.384,1.076-1.382,2.228,0,3.149,1.221,.814,2.304,1.306,2.074,1.843-.231,.538-1.613,.77-2.841,.693-1.23-.078-3.994-.568-4.762-1.691-.998-1.459-.077-4.301,.921-6.144,.999-1.843,2.238-4.276,.768-4.531-1.766-.307-3.036-1.729-.768-2.457,4.301-1.383,4.464-4.037,4.915-5.3,.384-1.075,.538-1.843,.538-1.843" />
        <path class="cls-1" d="M191.4733,20.801c1.719,0,3.287,.104,4.337-.082,1.391-.246,2.947-2.292,2.455-3.192-.49-.9-.9-1.636-2.864-1.5551-1.587,.066-2.783,.083-4.255,1.637-1.473,1.554-.508,3.192,.327,3.192m-7.689-1.295c2.452-3.37,5.53-5.069,7.219-5.53,1.689-.46,4.916-.691,6.298-.537,1.383,.154,5.178,.833,5.793,3.597,.614,2.765-.187,4.313-1.339,5.004-1.152,.692-6.445,.397-7.827,.397s-3.847-.09-4.614,.832c-.769,.9221-.922,2.381,.613,3.149,1.537,.768,2.689,.768,3.841,.845,1.152,.076,5.146-.539,3.533,1.075-1.614,1.614-3.84,1.076-5.453,1.153-1.612,.077-5.607,.229-7.219-.999-1.613-1.229-3.978-4.683-.845-8.986" />
        <path class="cls-1" d="M250.9694,14.9083c1.756-2.685,4.678-4.963,6.466-5.974,1.882-1.064,4.828-2.128,7.528-2.537,1.808-.274,4.828-.327,6.464-.164,1.638,.164,4.092,.246,4.747,1.228s-.167,1.965-1.064,1.965c-.9,0-5.893-.409-8.265,0-2.372,.409-4.173,1.309-5.727,2.454,0,0-3.25,2.745-4.177,4.665-.89,1.848-1.307,3.847-.816,5.647,.49,1.8,2.456,3.2729,4.993,3.519,2.535,.245,5.481,.408,6.545,.49,1.064,.083,2.372-.409,1.553,1.392-.817,1.8-3.189,1.637-5.565,1.718-2.21-.081-6.881,.006-9.29-.86-2.632-.944-8.957-5.032-3.392-13.543" />
        <path class="cls-1" d="M286.9759,16.7093c1.255,.384,4.501,.164,5.565-.246,1.064-.409,4.21-2.721,3.636-4.603-.196-.646-1.589-1.699-2.981-1.944-1.29-.228-3.042-.436-4.911,.982-2.373,1.8-2.373,5.484-1.309,5.811m-15.63,12.357c1.309-.818,1.964-1.309,3.355-2.619,1.266-1.192,3.6-8.019,5.156-11.457,1.556-3.437,2.456-4.42,1.638-5.974-.818-1.555-2.537-2.782-.574-2.7,1.963,.0811,10.149-.165,12.193-.0829,2.047,.0829,6.55,.621,7.693,1.228,1.17,.622,2.667,1.653,2.317,3.792-.403,2.456-1.793,3.724-3.103,4.789-1.308,1.064-2.09,1.349-3.387,2.304-1.082,.795-.66,2.282-.457,3.765,.189,1.381,.437,2.366,.62,3.681,.255,1.85,.731,2.772,.661,3.199-.084,.491-2.15,.444-2.966,.472-.502,.017-2.771,.093-3.506,.012-.736-.082-.755-2.0211-.818-3.11-.081-1.391-.409-3.027-.575-3.928-.163-.9-.489-1.8-1.146-1.964-.875-.22-1.995-.3-3.272,.082-.817,.245-1.145,.736-1.717,1.718-.574,.983-.749,1.416-1.241,2.806-.491,1.3911-.944,2.226-1.54,3.087-.481,.693-1.882,.981-3.683,.981l-5.648-.0811Z" />
        <path class="cls-1" d="M312.016,25.8746c1.684,.721,4.258,.246,6.303-.9,2.047-1.146,5.737-5.88,6.383-8.838,.983-4.502-1.395-5.8799-2.782-6.22-4.339-1.064-6.997,1.793-9.084,3.846-5.156,5.074-3.111,11.13-.82,12.112m-3.19-15.303c3.357-2.537,6.956-4.092,9.412-4.4189,2.768-.369,6.383-.328,8.101,.245,1.72,.573,5.649,1.882,5.974,6.301,.328,4.42-2.128,8.51-5.074,11.293-2.948,2.784-7.282,4.747-11.868,5.238-2.452,.263-6.545,.246-9.164-1.064-2.618-1.309-5.002-3.828-3.682-9.656,.983-4.338,6.301-7.938,6.301-7.938" />
        <path class="cls-1" d="M339.6788,8.4432c-1.229-.654-3.03-2.046-1.311-2.046,1.718,0,6.876-.081,6.876-.081,0,0,2.046,.164,1.391,1.473-.655,1.309-.899,2.209-1.31,3.355-.409,1.145-.901,2.047-.081,2.537,.817,.491,1.837,.193,4.337-1.473,2.454-1.637,4.042-3.192,4.828-3.682,1.307-.819,2.619-1.884,3.683-1.965,1.088-.083,3.764-.246,4.582-.164,.818,.083-.081,.819-.49,1.392s-1.884,1.801-2.947,2.618c-1.064,.819-5.318,4.093-6.138,4.747-.82,.654-2.537,1.881-1.554,4.582,.982,2.701,2.455,6.793,3.025,7.775,.576,.982,.904,1.719,.33,1.882-.574,.164-2.458,0-3.764,0-1.311,0-2.619,.246-3.765-2.782-.986-2.604-2.455-5.811-3.682-5.892-1.238-.0829-2.375,.741-2.62,1.473-.245,.736-.578,2.069-.818,3.273-.328,1.637-.082,1.799,.408,2.209,.491,.41,2.047,1.391,.983,1.473-1.064,.083-11.538,.165-12.521,.083-.982-.083,0-.573,.816-1.065,.822-.491,2.593-1.415,4.42-5.073,1.639-3.273,3.112-7.447,3.684-9.084,.385-1.107,1.638-5.565,1.638-5.565" />
        <path class="cls-1" d="M371.6752,20.1465c.422,1.056,4.502,.573,5.648,.327,.821-.177,1.635-2.21,1.717-3.846,.044-.899,.165-2.619-.163-3.274-.327-.654-1.064-.899-2.046-.736-.983,.163-1.97,1.404-3.846,3.683-1.145,1.39-1.638,3.027-1.31,3.8459m-12.93,5.646c2.452-2.5569,6.547-7.938,8.757-10.311,2.209-2.374,5.109-5.683,6.71-7.283,1.636-1.636,2.62-1.801,4.665-1.801,2.047,0,3.602,.082,4.582,.328,.983,.246,.737,.736,.901,2.454,.163,1.718,.57,6.138,.737,8.102,.163,1.965,.409,4.583,.49,6.465,.082,1.882,.655,4.01-.572,4.828-1.23,.819-3.247,.544-4.091,.41-1.558-.246-2.047-2.701-2.785-4.092-.514-.973-2.445-.532-3.6-.573-2.29-.081-6.136-.244-6.547,.082-1.001,.799-.816,.328-2.128,1.719-1.309,1.39-2.698,2.374-3.19,2.7-.491,.327-3.563,.327-4.338,.327-1.475,0-1.475-1.391,.409-3.355" />
        <path class="cls-1" d="M396.3914,12.2084c.736-1.392,1.227-2.864,.49-3.683-.738-.818-2.209-2.128-.328-2.128,1.883,0,15.222-.326,16.941-.245,1.717,.081,2.374,.082,2.702,.9,.327,.818-.165,1.31-.82,1.718-.654,.409-2.045,.573-3.272,.573-1.229,0-4.094,.082-5.239,.245-1.145,.164-2.946,1.146-3.436,1.801-.493,.655-.737,1.636-.9,2.455-.164,.819,.407,1.638,.981,1.883s2.374,.164,3.601,.164,2.619-.082,3.437,0c.82,.081,1.227,.163,1.391,.736,.165,.573,0,1.473-.49,1.718-.492,.245-1.884,.492-3.929,.492-1.475,0-4.091,0-5.318,.409-1.229,.409-1.801,1.473-2.375,2.046-.571,.572-.899,1.554-.981,2.291-.083,.736-.164,1.718,.819,2.209,.978,.491,2.372,.491,3.764,.491,1.23,0,3.192-.326,3.764-.245,.573,.082,.901,.408,1.064,.9,.163,.491,0,1.226-.818,1.636-.818,.41-5.156,.573-6.877,.573-1.716,0-6.625,.082-7.855,0-1.226-.081-3.028-.244-1.881-2.536,1.146-2.292,5.565-14.403,5.565-14.403" />
        <rect class="cls-1" x="288.224" y="83.778" width="18.476" height="7.106" />
        <polygon class="cls-1" points="211.6958 61.8005 206.3188 61.8005 214.1438 43.4056 214.0668 43.4056 201.1058 61.8005 195.4738 61.8005 198.2808 43.4056 198.2038 43.4056 190.3768 61.8005 184.9998 61.8005 194.3738 39.7676 202.7788 39.7676 200.3778 57.1205 200.4538 57.1205 212.7418 39.7676 221.0698 39.7676 211.6958 61.8005" />
        <path class="cls-1" d="M451.1368,9.9986c-2.219-.6169-3.516-.983-3.681-1.883-.163-.9,.738-1.717,2.293-1.8,1.555-.082,6.791-.001,9.1639-.082,2.372-.081,4.665-.081,5.483-.081,.82,0,1.801-.084,2.702,.49,.8979,.574,.816,.982-.248,1.637-1.064,.655-1.389,.655-3.107,1.228-1.719,.573-2.702,.491-3.928,2.046-1.228,1.554-2.047,2.537-3.275,5.973-1.478,4.144-2.372,6.056-2.945,7.857-.574,1.801-.493,2.373-1.72,2.946s-2.291,.655-4.175,.573c-1.632-.071-2.617-.245-1.225-2.291s4.845-11.197,5.156-12.44c.409-1.637,.981-3.764-.494-4.173" />
        <path class="cls-1" d="M426.3431,13.1074c-.409,1.227-.328,2.783,.246,3.193,.571,.409,1.554,.654,2.865,.654,.416,0,3.271-.864,4.091-1.31,.899-.49,1.717-1.8,1.799-2.618,.061-.593,0-1.882-.9-2.455-.875-.555-1.8-.819-3.438-.655-1.636,.164-2.453,.246-3.762,1.556l-.901,1.635Zm-3.518-6.955c1.8,.0811,7.365-.081,9.245,0,1.884,.0811,5.729,.41,7.203,.9,1.473,.491,2.781,1.392,3.11,2.619,.328,1.227-.247,3.436-.82,4.173-.573,.736-2.126,2.046-3.108,2.783-.981,.737-2.7,1.556-2.784,2.619,0,0-.12,1.5099,.165,3.355,.163,1.064,.409,2.537,.653,3.846,.197,1.046,.41,1.964,.082,2.373-.326,.41-2.21,.572-3.355,.655-1.146,.082-3.272,.41-3.6-1.1461-.327-1.555-.325-5.237-.736-6.137-.409-.901-.655-1.719-2.458-1.637-1.797,.081-2.291-.246-3.188,1.554-.901,1.801-1.801,3.683-2.291,4.829-.49,1.145-1.557,2.128-4.01,2.209-3.928,.131-7.486,.075-4.666-.9821,2.619-.981,3.674-3.688,4.338-5.237,.736-1.719,2.291-5.973,3.107-7.938,.822-1.964,1.886-4.584,1.803-5.402-.082-.818-.328-1.799-1.227-2.127-.902-.327-1.148-1.146,.081-1.228,1.227-.0811,2.456-.0811,2.456-.0811" />
    </g>
</svg>