<svg width="1371" height="471" viewBox="0 0 1371 471" fill="none" xmlns="http://www.w3.org/2000/svg">
<g clip-path="url(#clip0_448_1012)">
<path d="M150.507 359.412L199.737 359.42C208.562 359.421 259.261 357.743 262.873 360.639L262.677 363.533C260.128 365.404 250.708 364.436 247.33 364.439L199.557 364.381L150.549 364.387L116.814 364.44C112.775 364.437 101.193 364.689 101.193 364.689L102.693 359.189C102.693 359.189 113.092 359.416 116.695 359.416L150.507 359.412Z" fill="white"/>
<path d="M63.4912 335.422L104.55 335.41L102.948 359.398L101.616 364.427L68.8282 364.447L68.4582 359.414C67.6292 351.45 66.2552 342.934 63.4912 335.422Z" fill="white"/>
<path d="M68.4585 359.414L102.948 359.398L101.616 364.427L68.8285 364.447L68.4585 359.414Z" fill="white"/>
<path d="M144.643 330.376L202.078 330.4L290.601 330.407L313.16 330.409C316.495 330.409 320.062 329.827 322.997 331.442L322.709 334.63C320.412 335.922 317.187 335.414 314.593 335.421L293.665 335.446L202.55 335.392L145.62 335.4C139.61 335.425 104.193 335.689 104.193 335.689V331.689V330.376H144.643Z" fill="white"/>
<path d="M145.62 335.4L202.55 335.392C201.035 342.648 201.916 350.378 200.053 357.3C199.866 357.996 199.809 358.705 199.737 359.42L150.507 359.412L145.62 335.4Z" fill="white"/>
<path d="M68.8281 364.447L101.616 364.427C96.8901 389.666 89.2371 411.242 77.6171 434.133C75.5381 429.7 75.7201 422.91 75.2001 418.041L71.9091 388.276C71.1901 380.507 70.9831 371.917 68.8281 364.447Z" fill="white"/>
<path d="M53.3345 304.389L100.64 304.475C101.636 312.707 102.314 322.565 104.826 330.383C104.822 331.977 105.022 333.886 104.55 335.41L63.4915 335.422C62.6935 333.81 62.5285 332.028 62.2485 330.268C61.8415 322.222 56.4955 311.782 53.3345 304.389Z" fill="white"/>
<path d="M62.2485 330.268L104.827 330.383C104.823 331.977 105.023 333.886 104.551 335.41L63.4915 335.422C62.6935 333.81 62.5285 332.028 62.2485 330.268Z" fill="white"/>
<path d="M137.754 304.386L201 304.389L202.078 330.4L144.643 330.376L137.754 304.386Z" fill="white"/>
<path d="M150.549 364.387L199.557 364.381C196.649 377.41 194.612 390.417 191.006 403.327C184.393 426.998 174.576 448.495 163.55 470.343C161.336 461.53 160.731 452.014 159.664 442.976C156.596 417.006 155.704 389.981 150.549 364.387Z" fill="white"/>
<path d="M1217.59 164.356L1263.19 164.344L1263.18 185.239L1223.3 185.326C1221.13 186.514 1218.73 187.7 1218.07 190.398C1217.34 193.426 1218.11 198.829 1218.12 202.059L1218.17 242.104L1217.81 260.689C1217.81 260.689 1217.96 266.925 1217.81 271.271L1183.19 271.262L1183.15 211.592C1183.16 203.331 1182.16 193.559 1183.46 185.451C1184.05 181.729 1185.73 176.789 1188.14 173.88C1194.93 165.674 1207.93 165.443 1217.59 164.356Z" fill="white"/>
<path d="M465.219 164.308L510.139 164.34L510.131 185.24L480.779 185.219C476.33 185.196 470.192 184.271 466.665 187.341C463.686 191.203 465.055 202.286 465.047 207.208L465.137 260.81L464.897 271.271L430.127 271.269L430.082 218.522C430.084 207.029 427.213 184.022 434.762 174.442C441.78 165.535 454.971 165.381 465.219 164.308Z" fill="white"/>
<path d="M135.972 299.288L199.546 299.298L1122.8 299.256L1307.56 299.276L1351.97 299.287C1356.85 299.288 1365.34 298.147 1369.81 299.947L1370.09 303.249C1369.64 303.54 1368.84 304.241 1368.36 304.375C1364.92 305.34 1358 304.375 1354.27 304.375L1310.88 304.376L1107.15 304.38L201 304.389L137.754 304.386L113.243 304.45C109.933 304.449 100.514 304.45 100.514 304.45L99.3433 299.288H135.972Z" fill="white"/>
<path d="M1291.25 124.331L1325.07 124.331V164.328L1370.19 164.357V185.239L1325.06 185.243L1324.93 227.279C1324.94 232.539 1324.17 239.458 1325.19 244.555C1325.48 246.006 1326.5 247.557 1327.4 248.697C1331.78 251.312 1337.94 250.363 1343.06 250.416L1370.19 250.424V271.26L1327.4 270.551C1321.01 270.192 1314.33 270.704 1308.12 268.931C1304.82 267.99 1297.86 264.98 1295.66 262.447C1294.08 260.629 1291.7 254.859 1291.34 252.474C1289.94 243.37 1291.2 231.999 1291.21 222.695L1291.25 151.543C1291.24 144.456 1291.25 124.331 1291.25 124.331Z" fill="white"/>
<path d="M51.9276 298.618C51.0376 298.261 50.0136 297.798 49.3286 297.11C44.6846 292.439 41.0396 284.891 37.0186 279.479C30.4046 270.578 23.3646 261.71 17.7106 252.153C5.69358 231.84 -0.982419 208.261 0.117581 184.544C1.38458 157.257 9.89959 131.532 22.5326 107.498L26.7316 140.242C30.3356 168.852 34.9936 199.201 52.0356 223.316C63.5056 239.547 77.0066 253.659 87.1356 270.928C92.5406 280.145 94.8246 290.095 99.5966 299.325L100.641 304.475L53.3346 304.389L51.9276 298.618Z" fill="white"/>
<path d="M51.9272 298.618L99.5963 299.325L100.64 304.475L53.3342 304.389L51.9272 298.618Z" fill="white"/>
<path d="M703.193 124.189L738.062 124.331L738.071 213.835L788.603 164.324L827.873 164.381C827.823 165.574 782.791 210.093 777.541 215.348L792.903 230.661C795.253 233.014 800.193 238.189 800.193 238.189C800.193 238.189 807.243 245.017 810.423 248.185L833.383 271.236L792.573 271.261L757.135 235.84L738.051 254.868L738.057 271.259L703.174 271.258L703.281 171.614L703.241 140.468C703.226 135.568 703.193 124.689 703.193 124.689V124.189Z" fill="white"/>
<path d="M271.446 124.758C275.236 123.885 279.873 124.362 283.793 124.357L307.48 124.338L400.032 124.328L400.028 148.371L278.711 148.493C276.008 149.88 274.782 151.098 273.296 153.746L273.111 220.397C273.119 226.081 271.575 239.181 274.308 243.93C276.28 245.598 278.382 246.693 280.943 247.149C285.815 248.016 291.985 247.401 296.998 247.414L330.76 247.371L400.034 247.377L400.03 271.268L316.808 271.292L280.753 270.508C273.748 270.244 266.799 270.452 259.857 269.27C254.919 268.43 250.314 266.559 246.214 263.662C240.101 259.343 237.329 253.004 236.252 245.755C235.456 240.404 235.984 234.38 235.971 228.948L235.929 197.083L235.98 164.61C235.998 159.255 235.47 153.348 236.249 148.082C236.848 144.035 239.432 138.144 241.959 134.969C248.522 126.72 261.913 125.715 271.446 124.758Z" fill="white"/>
<path fill-rule="evenodd" clip-rule="evenodd" d="M1101.15 164.292L1052.62 164.356C1051.33 164.507 1049.96 164.638 1048.54 164.775C1039.59 165.635 1028.67 166.684 1023.12 173.835C1021.4 176.053 1020.3 178.792 1019.25 181.392C1019.19 181.528 1019.14 181.662 1019.08 181.797C1017.46 185.818 1017.74 192.43 1017.98 197.969C1018.06 199.836 1018.14 201.582 1018.13 203.065C1018.12 207.751 1017.98 212.584 1017.84 217.471C1017.52 228.586 1017.19 239.976 1018.33 250.528C1018.55 252.54 1019.25 254.438 1020.05 256.285C1022.6 262.211 1026.29 265.556 1032.25 267.857C1038 270.072 1044.1 270.248 1050.18 270.424C1051.33 270.457 1052.48 270.49 1053.62 270.537L1084.23 271.293L1151.18 271.268L1151.19 250.419L1102.09 250.416L1067.59 250.526C1066.76 250.522 1065.91 250.548 1065.05 250.575C1061.26 250.692 1057.39 250.812 1054.38 248.271C1052.32 245.033 1052.7 236.393 1052.98 230.111C1053.06 228.276 1053.13 226.643 1053.13 225.404L1156.18 225.401C1156.2 222.005 1156.34 218.373 1156.48 214.631C1156.93 203.218 1157.42 190.782 1154.38 180.905C1154.32 180.709 1154.26 180.501 1154.19 180.283C1153.57 178.227 1152.69 175.309 1151.38 173.933C1148.43 170.82 1143.71 168.207 1139.6 167.055C1129.05 164.103 1117.65 164.186 1106.64 164.266C1104.8 164.28 1102.97 164.293 1101.15 164.292ZM1084.27 184.932C1074.43 184.661 1064.31 184.382 1055.04 185.575C1052.5 189.594 1052.78 195.514 1053.02 200.7C1053.08 202.009 1053.13 203.272 1053.14 204.446L1119.82 204.45C1121.5 201.224 1121.26 196.993 1121.03 193.067C1120.96 191.984 1120.9 190.925 1120.88 189.916C1120.77 189.721 1120.66 189.525 1120.54 189.331C1119.52 187.548 1118.55 185.861 1116.27 185.375C1112.28 184.518 1107.02 184.756 1102.19 184.976C1100.11 185.07 1098.12 185.16 1096.33 185.159C1092.42 185.156 1088.37 185.045 1084.27 184.932Z" fill="white"/>
<path fill-rule="evenodd" clip-rule="evenodd" d="M941.084 164.272L861.044 164.292C863.063 168.331 862.688 175.083 862.378 180.668C862.286 182.329 862.2 183.887 862.184 185.239C863.998 185.235 867.531 185.19 872.193 185.132C896.171 184.832 950.008 184.16 953.424 186.606C955.55 190.436 955.334 195.65 955.135 200.446C955.077 201.831 955.021 203.181 955.023 204.453L893.174 205.308C891.109 205.388 888.944 205.33 886.757 205.271C882.894 205.167 878.963 205.061 875.393 205.711C869.313 206.819 862.934 208.823 858.484 213.314C852.105 219.752 852.514 230.264 852.868 239.345C852.932 240.985 852.994 242.578 853.013 244.092C853.113 251.347 853.263 257.239 858.763 262.68C866.33 270.143 876.817 270.3 886.717 270.448C886.866 270.451 887.015 270.453 887.164 270.455C897.233 271.568 907.517 271.464 917.722 271.361C920.742 271.33 923.755 271.3 926.754 271.301L990.143 271.262L990.154 209.734C990.147 207.204 990.241 204.542 990.336 201.835C990.553 195.676 990.778 189.286 989.854 183.706C989.314 180.449 987.394 175.751 985.104 173.315C976.23 163.882 958.636 164.085 945.518 164.236C943.97 164.254 942.485 164.271 941.084 164.272ZM906.304 225.283C900.867 225.114 895.068 224.934 890.193 226.085C886.643 231.167 886.373 238.316 887.433 244.365C887.893 246.989 889.683 248.803 891.733 250.331L950.103 250.411L954.383 250.069C955.985 245.498 955.593 237.955 955.261 231.579C955.144 229.316 955.034 227.199 955.023 225.415L911.853 225.399C910.086 225.401 908.218 225.343 906.304 225.283Z" fill="white"/>
<path fill-rule="evenodd" clip-rule="evenodd" d="M621.736 164.264L571.573 164.355C570.465 164.478 569.385 164.59 568.328 164.7C559.195 165.647 551.839 166.41 543.921 172.428C541.112 174.562 538.731 180.087 538.32 183.546C537.257 192.502 537.556 202.296 537.846 211.817C537.975 216.027 538.102 220.183 538.108 224.189C538.112 226.487 537.991 229.16 537.862 231.998C537.504 239.907 537.087 249.098 539.158 255.022L539.35 255.588C541.153 260.788 545.074 264.581 549.995 266.913C552.592 268.144 555.381 269.261 558.233 269.704C571.224 271.724 585.393 271.557 598.993 271.397C602.507 271.356 605.983 271.315 609.39 271.312C611.722 271.31 614.123 271.363 616.557 271.416C624.076 271.58 631.906 271.751 638.949 270.353C639.511 270.349 640.078 270.347 640.649 270.345C650.556 270.306 661.677 270.263 669.194 262.841C671.935 260.134 673.918 256.353 674.703 252.611C675.678 247.967 675.509 242.426 675.35 237.224C675.29 235.266 675.232 233.356 675.236 231.56L675.126 186.859C675.09 184.141 674.718 182.303 673.63 179.788C670.879 173.43 667.089 170.053 660.703 167.423C651.683 163.706 639.129 163.957 628.452 164.171C626.103 164.218 623.846 164.263 621.736 164.264ZM607.559 184.966C596.82 184.715 585.844 184.458 575.551 185.573C575.398 185.732 575.159 185.952 574.89 186.198C574.237 186.796 573.412 187.552 573.237 187.987C571.732 191.748 571.88 197.087 572.009 201.73C572.046 203.06 572.081 204.333 572.075 205.495L572.161 242.01C572.213 244.312 572.73 245.896 574.002 247.846C574.209 248.015 574.491 248.277 574.805 248.57C575.556 249.271 576.492 250.144 577.028 250.318C578.996 250.958 582.867 250.723 586.097 250.527C587.491 250.442 588.766 250.365 589.717 250.368L634.216 250.301C634.325 250.258 634.43 250.216 634.533 250.175C637.213 249.107 638.232 248.7 640.118 246.341C640.123 244.785 640.182 242.041 640.257 238.554C640.606 222.299 641.302 189.906 638.416 186.54C635.342 184.591 629.133 184.859 624.3 185.067C622.943 185.125 621.694 185.179 620.653 185.178C616.372 185.173 611.986 185.07 607.559 184.966Z" fill="white"/>
<path d="M135.972 299.288C130.42 287.196 124.801 275.471 117.479 264.318L82.5614 215.751C47.4714 162.239 44.8624 99 66.8274 39.672L84.5753 0C92.3113 45.094 92.8234 94.004 110.956 136.635C121.131 160.557 137.339 178.958 153.097 199.184C169.614 220.385 183.486 241.377 192.101 267.089C195.559 277.412 198.767 288.395 199.546 299.298L135.972 299.288Z" fill="white"/>
<path d="M405.285 351.457L406.245 342.561H405.861L403.109 349.729L393.573 366.433H390.757L380.709 349.665L377.893 342.561H377.573L378.853 351.393V374.689H370.533V329.889H378.533L390.501 350.369L392.613 355.489H392.869L394.789 350.241L406.117 329.889H414.053V374.689H405.285V351.457Z" fill="white"/>
<path d="M449.369 342.689V360.865C449.369 363.468 449.667 365.345 450.265 366.497C450.905 367.649 452.121 368.225 453.913 368.225C455.491 368.225 456.793 367.756 457.817 366.817C458.883 365.878 459.673 364.726 460.185 363.361V342.689H468.505V364.961C468.505 366.71 468.59 368.438 468.761 370.145C468.931 371.809 469.187 373.324 469.529 374.689H463.257L461.785 369.953H461.529C460.547 371.574 459.182 372.918 457.433 373.985C455.683 375.052 453.614 375.585 451.225 375.585C449.603 375.585 448.153 375.372 446.873 374.945C445.593 374.518 444.526 373.814 443.673 372.833C442.819 371.852 442.158 370.529 441.689 368.865C441.262 367.201 441.049 365.11 441.049 362.593V342.689H449.369Z" fill="white"/>
<path d="M504.222 363.937C504.222 365.43 504.414 366.518 504.798 367.201C505.182 367.884 505.801 368.225 506.654 368.225C507.166 368.225 507.657 368.182 508.126 368.097C508.638 368.012 509.257 367.82 509.982 367.521L510.878 374.049C510.196 374.39 509.15 374.732 507.742 375.073C506.334 375.414 504.884 375.585 503.39 375.585C500.958 375.585 499.102 375.03 497.822 373.921C496.542 372.769 495.902 370.892 495.902 368.289V329.889H504.222V363.937Z" fill="white"/>
<path d="M530.971 342.689H535.387V336.673L543.707 334.305V342.689H551.515V349.729H543.707V362.017C543.707 364.236 543.92 365.836 544.347 366.817C544.816 367.756 545.669 368.225 546.907 368.225C547.76 368.225 548.485 368.14 549.083 367.969C549.723 367.798 550.427 367.542 551.195 367.201L552.667 373.601C551.515 374.156 550.171 374.625 548.635 375.009C547.099 375.393 545.541 375.585 543.963 375.585C541.019 375.585 538.843 374.838 537.435 373.345C536.069 371.809 535.387 369.313 535.387 365.857V349.729H530.971V342.689Z" fill="white"/>
<path d="M577.219 342.689H585.539V374.689H577.219V342.689ZM576.003 333.665C576.003 332.428 576.451 331.382 577.347 330.529C578.286 329.633 579.566 329.185 581.187 329.185C582.809 329.185 584.11 329.633 585.091 330.529C586.115 331.382 586.627 332.428 586.627 333.665C586.627 334.902 586.115 335.948 585.091 336.801C584.11 337.612 582.809 338.017 581.187 338.017C579.566 338.017 578.286 337.612 577.347 336.801C576.451 335.948 576.003 334.902 576.003 333.665Z" fill="white"/>
<path d="M610.151 342.689H614.567V336.673L622.887 334.305V342.689H630.695V349.729H622.887V362.017C622.887 364.236 623.1 365.836 623.527 366.817C623.996 367.756 624.849 368.225 626.087 368.225C626.94 368.225 627.665 368.14 628.263 367.969C628.903 367.798 629.607 367.542 630.375 367.201L631.847 373.601C630.695 374.156 629.351 374.625 627.815 375.009C626.279 375.393 624.721 375.585 623.143 375.585C620.199 375.585 618.023 374.838 616.615 373.345C615.249 371.809 614.567 369.313 614.567 365.857V349.729H610.151V342.689Z" fill="white"/>
<path d="M680.919 371.937C679.639 372.961 677.889 373.836 675.671 374.561C673.495 375.244 671.169 375.585 668.695 375.585C663.532 375.585 659.756 374.092 657.367 371.105C654.977 368.076 653.783 363.937 653.783 358.689C653.783 353.057 655.127 348.833 657.815 346.017C660.503 343.201 664.279 341.793 669.143 341.793C670.764 341.793 672.343 342.006 673.879 342.433C675.415 342.86 676.78 343.564 677.975 344.545C679.169 345.526 680.129 346.849 680.855 348.513C681.58 350.177 681.943 352.246 681.943 354.721C681.943 355.617 681.879 356.577 681.751 357.601C681.665 358.625 681.516 359.692 681.303 360.801H662.103C662.231 363.489 662.913 365.516 664.151 366.881C665.431 368.246 667.479 368.929 670.295 368.929C672.044 368.929 673.601 368.673 674.967 368.161C676.375 367.606 677.441 367.052 678.167 366.497L680.919 371.937ZM669.015 348.449C666.839 348.449 665.217 349.11 664.151 350.433C663.127 351.713 662.508 353.441 662.295 355.617H674.199C674.369 353.313 674.007 351.542 673.111 350.305C672.257 349.068 670.892 348.449 669.015 348.449Z" fill="white"/>
<path d="M730.002 372.705C728.722 373.644 727.165 374.348 725.33 374.817C723.538 375.329 721.682 375.585 719.762 375.585C717.202 375.585 715.026 375.18 713.234 374.369C711.485 373.558 710.056 372.428 708.946 370.977C707.837 369.484 707.026 367.692 706.514 365.601C706.045 363.51 705.81 361.206 705.81 358.689C705.81 353.27 707.026 349.11 709.458 346.209C711.89 343.265 715.432 341.793 720.082 341.793C722.429 341.793 724.306 341.985 725.714 342.369C727.165 342.753 728.466 343.244 729.618 343.841L727.634 350.625C726.653 350.156 725.672 349.793 724.69 349.537C723.752 349.281 722.664 349.153 721.426 349.153C719.122 349.153 717.373 349.921 716.178 351.457C714.984 352.95 714.386 355.361 714.386 358.689C714.386 360.054 714.536 361.313 714.834 362.465C715.133 363.617 715.581 364.62 716.178 365.473C716.776 366.326 717.544 367.009 718.482 367.521C719.464 367.99 720.594 368.225 721.874 368.225C723.282 368.225 724.477 368.054 725.458 367.713C726.44 367.329 727.314 366.881 728.082 366.369L730.002 372.705Z" fill="white"/>
<path d="M774.458 374.689V356.513C774.458 353.91 774.095 352.033 773.37 350.881C772.644 349.729 771.322 349.153 769.402 349.153C767.994 349.153 766.692 349.644 765.498 350.625C764.346 351.564 763.578 352.78 763.194 354.273V374.689H754.874V329.889H763.194V346.273H763.45C764.474 344.908 765.732 343.82 767.226 343.009C768.719 342.198 770.618 341.793 772.922 341.793C774.543 341.793 775.972 342.006 777.21 342.433C778.447 342.86 779.471 343.564 780.282 344.545C781.135 345.526 781.754 346.87 782.138 348.577C782.564 350.241 782.778 352.31 782.778 354.785V374.689H774.458Z" fill="white"/>
<path d="M829.173 374.689V356.513C829.173 353.91 828.789 352.033 828.021 350.881C827.295 349.729 826.037 349.153 824.245 349.153C822.666 349.153 821.322 349.622 820.213 350.561C819.146 351.457 818.378 352.588 817.909 353.953V374.689H809.589V342.689H816.181L817.141 346.913H817.397C818.378 345.548 819.679 344.353 821.301 343.329C822.922 342.305 825.013 341.793 827.573 341.793C829.151 341.793 830.559 342.006 831.797 342.433C833.034 342.86 834.079 343.564 834.933 344.545C835.786 345.526 836.426 346.87 836.853 348.577C837.279 350.241 837.493 352.31 837.493 354.785V374.689H829.173Z" fill="white"/>
<path d="M865.072 342.689H873.392V374.689H865.072V342.689ZM863.856 333.665C863.856 332.428 864.304 331.382 865.2 330.529C866.138 329.633 867.418 329.185 869.04 329.185C870.661 329.185 871.962 329.633 872.944 330.529C873.968 331.382 874.48 332.428 874.48 333.665C874.48 334.902 873.968 335.948 872.944 336.801C871.962 337.612 870.661 338.017 869.04 338.017C867.418 338.017 866.138 337.612 865.2 336.801C864.304 335.948 863.856 334.902 863.856 333.665Z" fill="white"/>
<path d="M923.987 372.705C922.707 373.644 921.15 374.348 919.315 374.817C917.523 375.329 915.667 375.585 913.747 375.585C911.187 375.585 909.011 375.18 907.219 374.369C905.47 373.558 904.041 372.428 902.931 370.977C901.822 369.484 901.011 367.692 900.499 365.601C900.03 363.51 899.795 361.206 899.795 358.689C899.795 353.27 901.011 349.11 903.443 346.209C905.875 343.265 909.417 341.793 914.067 341.793C916.414 341.793 918.291 341.985 919.699 342.369C921.15 342.753 922.451 343.244 923.603 343.841L921.619 350.625C920.638 350.156 919.657 349.793 918.675 349.537C917.737 349.281 916.649 349.153 915.411 349.153C913.107 349.153 911.358 349.921 910.163 351.457C908.969 352.95 908.371 355.361 908.371 358.689C908.371 360.054 908.521 361.313 908.819 362.465C909.118 363.617 909.566 364.62 910.163 365.473C910.761 366.326 911.528 367.009 912.467 367.521C913.448 367.99 914.579 368.225 915.859 368.225C917.267 368.225 918.462 368.054 919.443 367.713C920.425 367.329 921.299 366.881 922.067 366.369L923.987 372.705Z" fill="white"/>
<path d="M962.107 365.857C962.107 365.004 961.744 364.321 961.019 363.809C960.293 363.297 959.397 362.828 958.331 362.401C957.264 361.974 956.091 361.548 954.811 361.121C953.531 360.652 952.357 360.033 951.291 359.265C950.224 358.454 949.328 357.452 948.603 356.257C947.877 355.02 947.515 353.441 947.515 351.521C947.515 348.364 948.453 345.953 950.331 344.289C952.208 342.625 954.917 341.793 958.459 341.793C960.891 341.793 963.088 342.049 965.051 342.561C967.013 343.073 968.549 343.649 969.659 344.289L967.803 350.305C966.821 349.921 965.584 349.516 964.091 349.089C962.597 348.662 961.083 348.449 959.547 348.449C957.072 348.449 955.835 349.409 955.835 351.329C955.835 352.097 956.197 352.716 956.923 353.185C957.648 353.654 958.544 354.102 959.611 354.529C960.677 354.913 961.851 355.34 963.131 355.809C964.411 356.278 965.584 356.897 966.651 357.665C967.717 358.39 968.613 359.35 969.339 360.545C970.064 361.74 970.427 363.276 970.427 365.153C970.427 368.396 969.381 370.956 967.291 372.833C965.243 374.668 962.149 375.585 958.011 375.585C955.749 375.585 953.616 375.286 951.611 374.689C949.648 374.134 948.048 373.473 946.811 372.705L949.115 366.497C950.096 367.052 951.397 367.606 953.019 368.161C954.64 368.673 956.304 368.929 958.011 368.929C959.248 368.929 960.229 368.694 960.955 368.225C961.723 367.756 962.107 366.966 962.107 365.857Z" fill="white"/>
<path d="M994.739 370.465C994.739 368.972 995.208 367.798 996.147 366.945C997.085 366.049 998.323 365.601 999.859 365.601C1001.48 365.601 1002.76 366.049 1003.7 366.945C1004.64 367.798 1005.11 368.972 1005.11 370.465C1005.11 371.958 1004.64 373.153 1003.7 374.049C1002.76 374.945 1001.48 375.393 999.859 375.393C998.323 375.393 997.085 374.945 996.147 374.049C995.208 373.153 994.739 371.958 994.739 370.465Z" fill="white"/>
<path d="M1031.29 329.889H1039.61V345.249H1039.86C1040.76 344.225 1041.91 343.414 1043.32 342.817C1044.73 342.22 1046.29 341.921 1047.99 341.921C1051.83 341.921 1054.76 343.244 1056.76 345.889C1058.81 348.492 1059.83 352.481 1059.83 357.857C1059.83 363.617 1058.4 367.99 1055.54 370.977C1052.73 373.964 1048.85 375.457 1043.9 375.457C1041.17 375.457 1038.67 375.222 1036.41 374.753C1034.15 374.326 1032.44 373.836 1031.29 373.281V329.889ZM1045.56 348.961C1044.02 348.961 1042.77 349.366 1041.78 350.177C1040.85 350.945 1040.12 352.076 1039.61 353.569V367.521C1040.29 367.862 1041.02 368.097 1041.78 368.225C1042.6 368.353 1043.45 368.417 1044.34 368.417C1046.61 368.417 1048.31 367.606 1049.46 365.985C1050.66 364.321 1051.26 361.697 1051.26 358.113C1051.26 352.012 1049.36 348.961 1045.56 348.961Z" fill="white"/>
<path d="M1111.04 371.937C1109.76 372.961 1108.01 373.836 1105.79 374.561C1103.62 375.244 1101.29 375.585 1098.82 375.585C1093.65 375.585 1089.88 374.092 1087.49 371.105C1085.1 368.076 1083.91 363.937 1083.91 358.689C1083.91 353.057 1085.25 348.833 1087.94 346.017C1090.63 343.201 1094.4 341.793 1099.27 341.793C1100.89 341.793 1102.47 342.006 1104 342.433C1105.54 342.86 1106.9 343.564 1108.1 344.545C1109.29 345.526 1110.25 346.849 1110.98 348.513C1111.7 350.177 1112.07 352.246 1112.07 354.721C1112.07 355.617 1112 356.577 1111.87 357.601C1111.79 358.625 1111.64 359.692 1111.43 360.801H1092.23C1092.35 363.489 1093.04 365.516 1094.27 366.881C1095.55 368.246 1097.6 368.929 1100.42 368.929C1102.17 368.929 1103.72 368.673 1105.09 368.161C1106.5 367.606 1107.56 367.052 1108.29 366.497L1111.04 371.937ZM1099.14 348.449C1096.96 348.449 1095.34 349.11 1094.27 350.433C1093.25 351.713 1092.63 353.441 1092.42 355.617H1104.32C1104.49 353.313 1104.13 351.542 1103.23 350.305C1102.38 349.068 1101.01 348.449 1099.14 348.449Z" fill="white"/>
</g>
<defs>
<clipPath id="clip0_448_1012">
<rect width="1371" height="471" fill="white"/>
</clipPath>
</defs>
</svg>
