<svg width="1243" height="757" viewBox="0 0 1243 757" fill="none" xmlns="http://www.w3.org/2000/svg">
<path d="M12.0003 12L1230.85 12.004L1230.91 744.804L12.0187 744.882L12.0003 12Z" stroke="white" stroke-width="24"/>
<path d="M383.244 638.633H405.826L405.766 661.213L383.232 661.233L383.244 638.633Z" fill="white"/>
<path d="M380.413 275.505L404.603 275.524L404.601 299.691L380.368 299.702L380.413 275.505Z" fill="white"/>
<path d="M577.646 97.4238L609.758 97.4268L609.79 299.703L577.633 299.699L577.646 97.4238Z" fill="white"/>
<path d="M791.948 97.4302L824.144 97.4452L824.139 299.675L791.945 299.697L791.948 97.4302Z" fill="white"/>
<path d="M896.776 458.656L928.926 458.636V638.593L1018.5 638.623L1018.45 661.193L896.746 661.223L896.776 458.656Z" fill="white"/>
<path d="M437.39 97.438L471.184 97.454L471.155 275.486L560.725 275.51V299.703H437.37L437.39 97.438Z" fill="white"/>
<path d="M257.024 458.638L347.209 458.688L347.214 481.254L287.374 481.251L287.378 514.074L326.877 514.077L326.91 534.759H287.993L288.034 621.463L288.007 638.583L347.206 638.633L347.226 661.193L257.003 661.243L257.024 458.638Z" fill="white"/>
<path d="M254.701 97.4282L348.21 97.4332L348.233 120.04H287.99L288.004 152.642L325.627 152.645L325.652 175.157L288.487 175.205L288.549 262.577L288.506 275.485L348.214 275.537L348.232 299.679L254.595 299.703L254.701 97.4282Z" fill="white"/>
<path d="M439.689 458.693L561.332 458.682L561.322 479.116C561.32 481.4 561.835 485.16 561.317 487.302C560.65 490.064 557.113 494.524 555.56 497.067L537.104 527.211L495.194 596.337L471.068 636.693L561.34 636.863L561.329 661.213L439.638 661.183L439.661 640.583C439.664 638.243 439.163 634.543 439.671 632.333C440.004 630.883 442.028 628.443 442.871 627.044L452.427 611.042L529.373 483.114L439.629 483.008L439.689 458.693Z" fill="white"/>
<path d="M1079.2 92.5839C1097.73 91.5669 1114.74 93.5109 1133.05 96.0629L1133 126.417C1112.45 120.839 1091.06 117.158 1069.88 121.196C1056.1 123.822 1043.52 131.203 1035.67 142.933C1024.64 159.42 1024.72 183.325 1028.66 202.025C1034.02 227.428 1049.03 256.619 1071.41 270.978C1081.55 277.479 1090.9 278.963 1102.54 276.392L1102.56 225.991L1074.3 226.045L1074.37 198.393L1100.71 198.396H1133L1133.14 299.152C1127.5 300.756 1121.97 301.661 1116.17 302.461C1089.96 306.082 1062.89 298.361 1042.05 282.243C1016.35 262.368 998.887 229.803 994.887 197.668C991.737 172.427 996.367 144.866 1012.49 124.577C1029.18 103.558 1053.39 95.3429 1079.2 92.5839Z" fill="white"/>
<path d="M864.156 95.5222C870.236 94.6622 877.386 95.0002 883.526 95.2732C908.286 96.3752 933.086 105.611 949.736 124.51C979.966 158.842 984.036 211.304 984.146 255.032L983.046 299.689L946.896 299.698C957.396 254.546 958.396 201.036 935.696 159.3C932.326 153.676 929.036 148.131 924.616 143.254C911.056 128.289 897.706 122.056 877.616 120.991L877.636 299.676L845.449 299.705L845.47 97.6302L864.156 95.5222Z" fill="white"/>
<path d="M632.994 97.4352L665.152 97.4502L665.23 276.093C669.257 275.828 673.433 275.689 677.388 274.859C694.93 271.179 708.685 258.515 718.135 243.798C745.233 201.596 743.553 144.555 733.354 97.4282L769.939 97.4752L770.501 114.811L768.039 189.657C763.956 223.65 752.898 261.319 724.725 283.133C698.162 303.7 664.77 303.6 633.009 299.623L632.994 97.4352Z" fill="white"/>
<path fill-rule="evenodd" clip-rule="evenodd" d="M618.04 457.421C612.778 457.023 606.5 456.55 601.32 457.347L579.928 459.436L580.042 661.233L610.372 661.193L610.366 536.577L656.77 536.536C658.716 536.536 660.763 536.467 662.849 536.397C667.833 536.23 673.036 536.055 677.597 536.786L683.995 557.777C690.789 592.857 689.871 626.428 681.865 661.233L716.418 661.203C717.942 642.223 718.13 623.008 717.457 603.994C716.101 565.664 711.037 519.801 685.424 489.363C667.957 468.605 644.735 459.432 618.168 457.43L618.04 457.421ZM612.795 481.853C611.981 481.852 611.173 481.851 610.372 481.842L610.375 514.089L666.224 514.066C655.545 498.443 642.992 486.051 623.683 482.508C620.16 481.862 616.429 481.857 612.795 481.853Z" fill="white"/>
<path fill-rule="evenodd" clip-rule="evenodd" d="M781.627 457.744C774.789 457.137 766.924 456.438 760.159 457.339L738.998 459.455L739.027 661.213L769.965 661.123L769.951 536.53L836.489 536.473L842.889 557.563C849.651 592.662 848.863 626.332 840.842 661.243L875.366 661.183C876.886 644.213 877.006 626.839 876.586 609.815C875.586 568.032 870.966 521.157 843.187 487.823C828.02 469.625 805.03 459.824 781.755 457.755L781.627 457.744ZM770.072 481.839L769.941 481.839L769.945 514.072L825.166 514.029C814.836 498.982 802.3 486.076 783.568 482.663C779.074 481.845 774.619 481.842 770.072 481.839Z" fill="white"/>
<path fill-rule="evenodd" clip-rule="evenodd" d="M163.113 454.688C154.587 453.699 144.281 453.472 135.771 454.419L107.101 458.332L107.129 660.833L125.685 663.833C151.521 667.523 176.71 658.243 197.49 643.493C223.832 622.377 241.061 591.555 244.818 557.91L245.19 554.794C248.035 531.961 242.201 505.571 227.793 487.394C211.622 466.992 188.439 457.626 163.113 454.688ZM166.386 480.196C159.872 478.992 150.77 479.144 144.198 480.026L137.171 480.838C135.49 483.822 135.929 496.374 136.207 504.317C136.286 506.576 136.352 508.463 136.352 509.65L136.374 592.759C136.376 597.614 136.265 602.56 136.154 607.535C135.917 618.135 135.676 628.87 136.516 639.153C137.063 639.189 137.612 639.227 138.162 639.265C143.686 639.644 149.349 640.033 154.805 639.033C163.522 637.433 171.983 631.633 178.502 625.884L185.393 618.573C205.346 593.124 216.558 560.498 212.384 527.968C210.577 513.885 203.434 498.824 191.784 490.292C184.109 484.672 175.634 481.906 166.386 480.196Z" fill="white"/>
<path fill-rule="evenodd" clip-rule="evenodd" d="M159.189 92.5491C151.605 91.9791 141.483 91.3491 134.071 92.5981L106.443 96.4652L106.415 299.013C134.492 306.032 162.55 303.756 187.551 288.641L198.247 281.198C224.59 259.489 241.679 227.501 244.694 193.399C246.969 167.659 241.428 141.637 224.342 121.665C208.278 102.889 183.205 94.3521 159.189 92.5491ZM152.198 118.886L151.305 118.97L136.913 120.354L136.86 275.956C149.208 278.205 160.297 276.278 170.734 269.004C174.602 266.308 178.573 263.074 181.667 259.501C201.042 237.674 214.163 206.813 212.414 177.161C211.383 159.689 206.959 143.224 193.395 131.332C182.779 122.025 166.061 118.112 152.198 118.886Z" fill="white"/>
<path d="M1132.34 362.919C1133.56 364.274 1133.01 369.167 1133.01 371.141L1133.07 393.353L107.365 393.339C105.857 391.515 106.44 388.202 106.442 385.816L106.462 362.964L1132.34 362.919Z" fill="white"/>
</svg>
