<svg version="1.1" id="Layer_1" xmlns="http://www.w3.org/2000/svg" xmlns:xlink="http://www.w3.org/1999/xlink" x="0px" y="0px" viewBox="0 0 450.9 91" style="enable-background:new 0 0 450.9 91;" xml:space="preserve">
	<style type="text/css">
	.st0{fill:#FFFFFF;}
</style>
	<g transform="translate(0 120.5)">
		<path class="st0" d="M104.1-120.2c-5.9-0.1-10.6,4.6-10.7,10.5v0c0.1,5.8,4.8,10.5,10.6,10.6c6,0.1,10.9-4.6,11-10.6v0
		C114.9-115.6,110-120.3,104.1-120.2L104.1-120.2" />
		<path class="st0" d="M96.2-29.5h16v-56.9h-16V-29.5z" />
		<path class="st0" d="M129.5-29.5h16v-91h-16V-29.5z" />
		<path class="st0" d="M387.7-120.5v91h15.5v-20.9l8-8.7l21,29.4h18.7l-28.8-39.2l28.6-31.9H431l-28,32.3v-51.9L387.7-120.5
		L387.7-120.5z" />
		<path class="st0" d="M347.2-100.8c-19.4,0-33,14.7-33,35.6c0,21.3,13.7,35.6,34,35.6c15.5,0,26-7.4,29.4-20.8l0.2-0.8l-13.4-3
		l-0.3,0.8c-2.4,6.8-7.6,10.1-16,10.1c-9.8,0-16-5.9-17.6-16.6h48v-0.8c0.2-1.9,0.3-3.8,0.3-5.7C378.8-87.6,366.8-100.8,347.2-100.8
		 M330.6-72.1c1.8-9.7,7.8-15.2,16.6-15.2c9,0,14.6,5.4,15.6,15.2H330.6z" />
		<path class="st0" d="M232.2-65.1c0-21.3-13.9-35.6-34.6-35.6c-6.6-0.1-13.1,1.5-18.8,4.8v-24.5h-16v55.3c0,21.3,14,35.6,34.8,35.6
		C218.3-29.5,232.2-43.8,232.2-65.1 M216.3-65.1c0,12.6-7.5,21.1-18.7,21.1s-18.8-8.5-18.8-21.1s7.5-21.2,18.8-21.2
		S216.3-77.8,216.3-65.1" />
		<path class="st0" d="M274-100.8c-19.4,0-33,14.7-33,35.6c0,21.3,13.7,35.6,34,35.6c15.5,0,26-7.4,29.3-20.8l0.3-0.8l-13.4-3
		l-0.3,0.8c-2.4,6.8-7.6,10.1-16,10.1c-9.8,0-16-5.9-17.7-16.6h48l0.1-0.8c0.2-1.9,0.3-3.8,0.3-5.7
		C305.6-87.6,293.5-100.8,274-100.8 M257.4-72.1c1.8-9.7,7.8-15.2,16.6-15.2c9,0,14.6,5.4,15.6,15.2H257.4z" />
		<path class="st0" d="M10.8-50.5C5-50.6,0.2-46,0-40.2c0.1,5.9,4.9,10.7,10.8,10.7c6,0.1,10.9-4.6,11-10.6v0
		c-0.1-5.9-5-10.6-10.9-10.5L10.8-50.5" />
		<path class="st0" d="M34.8-120.5H2.4v57h17v-42.4h15.8c19,0,28.3,10,28.3,30.7c0,20.5-9.5,31-28.3,31h-0.6v14.6
		C63.7-29.7,81-46.3,81-75.2c-0.1-29.2-16.5-45.3-46.1-45.3" />
	</g>
</svg>