<svg id="Layer_1" xmlns="http://www.w3.org/2000/svg" viewBox="0 0 1144 240.349">
    <defs>
        <style>.cls-1{fill:#fff;}</style>
    </defs>
    <g>
        <path class="cls-1" d="M10.9057,4.6789c-1.5193-1.5116-3.0005-3.0665-4.4314-4.6789,7.0954,3.6764,13.3302,8.6841,20.235,12.6882-1.7883-2.5623-3.8936-4.7494-3.7506-8.37,1.4267,1.5018,2.8297,3.0271,4.2842,4.5015,6.5878,6.6779,13.7557,12.4522,22.5626,16.14,5.0029,2.0949,9.349,5.8625,15.185,5.6688,2.4319-.0807,4.6865,.4199,6.8306,1.5287,12.5499,6.4896,25.7551,11.7123,37.4969,19.7666,7.397,5.0737,14.966,9.9042,22.555,14.6886,4.248,2.6777,9.28,3.8503,13.398,6.9056,1.907,1.4158,2.47,2.961,2.5,5.1455-1.796,.1014-2.432-.6137-2.564-2.0267-.311-3.3503-2.482-4.1965-5.456-4.0194-3.392,.2021-7.43,3.7768-7.54,7.0816,4.991-2.4689,8.798-.4169,12.085,3.3589-.982-.4956-1.965-.9913-2.948-1.4854-.243-.0305-.485-.0626-.726-.0946l.139,.6828c3.398,6.1016,4.43,12.8825,5.442,19.6283,.47,3.132-2.022,5.725-2.152,8.933-.186,4.591,.3,5.245,4.908,6.08,1.475,.267,2.698,1.929,4.057,2.968l.713-1.304c1.274,.821,.768,2.739,2.4,3.502,1.172-1.428,2.359-2.873,3.681-4.484,1.219,1.21,1.347,3.269,2.628,4.255,1.769,.004,1.036-1.582,2.014-2.275,1.593,1.926,5.019,.765,6.145,4.533,1.01-3.018-.997-5.003-.328-7.33,2.677,2.536,1.466,6.624,3.978,9.2-.234-2.575,3.057-4.392,1.011-7.173,1.587-.391,1.528,1.259,2.572,1.406,.151-.503,.313-1.042,.507-1.688,1.648,1.11,3.163,2.322,5.358,1.577-.942-2.55-2.756-4.382-4.764-6.181l3.26,.86c-.26-3.282,2.567-2.981,4.796-4.045-2.823-2.392-6.686-1.355-9.553-3.743,3.067-.374,5.682,1.727,8.305,.344,.059-1.158-1.481-.434-1.4-1.624,.9-.192,1.819-.387,2.768-.589,.491-1.186-1.34-.878-1.176-1.986l1.578-.646c-.514-4.2382-3.443-7.2537-8.133-9.744-3.691-1.96-7.442-3.7911-11.159-5.6934-1.323-.6773-1.952-1.9824-2.768-3.0951-3.571-4.8659-7.88-8.4471-14.277-8.6962-1.028-.0401-2.135-.2781-3.128-1.806,6.328,.0545,12.313,.2965,17.248,4.0088,11.401,8.5754,23.683,15.8127,35.498,23.7539,7.562,5.084,16.294,6.782,25.314,5.693,12.937-1.562,25.887-2.963,38.862-4.15,1.28-.117,2.566-.369,3.801-.726,11.423-3.3019,22.167-.1,32.86,3.429,11.493,3.793,23.129,6.671,35.355,6.614,7.125-.034,13.792-2.116,20.468-4.158,11.218-3.431,21.976-7.9597,32.114-13.9055,.237-.139,.61-.0464,1.207-.0762-4.905,8.7247-12.641,13.4767-21.43,16.8637-8.727,3.363-17.849,4.339-27.257,3.739,.286,1.539,1.15,1.488,1.819,1.613,13.174,2.459,26.357,3.519,39.829,2.442,13.004-1.039,25.89-2.841,38.822-4.355,.614-.072,1.257-.314,1.99,.37-5.398,5.602-12.359,7.951-19.65,9.242-8.702,1.54-17.528,2.144-26.376,1.618-2.995-.179-5.962-.821-8.946-1.217-2.608-.346-5.244-.807-8.367,1.192,22.904,6.86,46.188,10.459,66.916,21.555l-.415,1.576c-17.195-1.862-33.649-7.464-50.419-11.382-.241,1.123,.14,1.476,.655,1.704,7.946,3.521,15.962,6.893,23.825,10.591,7.838,3.686,15.762,7.286,22.39,13.079,1.159,1.013,1.774,2.259,2.586,4.326-14.481-7.893-29.291-13.258-43.833-19.244-.504-.292-.983-.756-1.608-.251-.043,.66,.489,.788,.902,1.024,6.032,3.874,12.046,7.778,18.102,11.614,8.77,5.555,17.192,11.537,24.049,19.442,.666,.767,.976,1.843,1.264,3.006-12.77-9.103-26.599-16.273-40.481-23.438,10.972,9.848,23.903,17.44,32.964,29.83-8.632-4.106-15.238-11.02-23.904-14.6,2.888,3.972,7.109,6.667,10.431,11.37-5.194-1.309-8.856-4.309-13.34-4.646-.912,1.151,.637,1.843,.103,3.139-3.417-.326-6.561-1.803-9.523-3.289-1.383,.603-.246,1.695-1.104,2.614-3.507,1.006-6.295-1.942-9.621-2.695-1.69,3.677-2.311,3.902-6.173,2.189-.687-.304-1.354-.658-2.012-1.024-2.64-1.467-5.127-2.847-7.43,.723-1.703,2.64-4.058,.63-6.335,.21-.946,3.769-3.377,2.84-5.644,1.592-2.046-1.127-3.285-1.309-3.911,1.452-.462,2.037-2.149,1.782-3.653,1.175-1.48-.597-2.909-1.32-4.303-1.963-3.49,3.922-3.503,3.944-8.006,1.361-.711-.408-1.359-.629-2.123-.403-2.638,.781-5.082,.537-7.333-.731-1.989,1.61-4.072,1.799-6.789,1.167-2.154-.501-4.599-.004-7.02-.515-3.261-.69-6.718-.488-9.53-2.693-.473-.371-.928-.328-1.454-.404-3.84-.556-7.905-.49-10.939-3.53-.852-.854-1.829-.392-2.756-.334-1.641,.103-3.154,.11-4.481-1.217-1.727-1.726-3.56-3.08-6.253-3.528-2.517-.418-2.95-3.427-4.288-5.664-1.585,.834-3.098,.812-4.075-1.101-.343-.671-.929-1.306-1.82-.94-2.051,.842-3.718,.354-5.292-1.147-.963-.918-1.793-.321-2.231,.709-.815,1.915-1.933,1.236-3.042,.396-1.595-1.208-3.152-2.466-5.181-3.615,2.271,4.799-1.347,8.784-1.322,13.328,.023,4.086,1.93,7.187,3.257,10.633,1.292,3.357,3.367,6.68-1.224,9.396-.37-.292-.908-.718-1.458-1.153-1.033,.935-.191,2.465-1.415,3.369-2.269,.105-1.833-2.544-3.583-3.599-.585-.126-1.24,2.016-2.169,.771-1.911-2.561-4.504-1.994-7.045-1.93-1.805,.045-2.272-1.35-2.788-2.675-.413-1.059-.35-2.47-1.841-2.753-.323-.062-.96,.22-1.056,.486-.524,1.452,.578,2.363,1.344,3.409-1.589,1.312-3.4,.712-4.449-.242-1.576-1.431-3.538-1.982-5.287-2.614-4.619-1.669-6.369-5.346-6.247-9.434,.148-4.962-2.933-7.193-6.237-9.143-5.56-3.28-10.747-7.006-15.783-11.016-6.8-5.414-11.964-12.278-17.186-19.031-.998,.304-.681,1.12-.94,1.653-.988,2.032-2.465,2.197-3.786,.302-1.21-1.737-2.186-3.241-4.448-1.09-1.011,.962-2.042-.037-2.537-1.078-.564-1.184-1.006-2.406-2.639-2.753-.84,.283-1.002,1.796-2.293,1.814-1.218-.223-1.135-1.431-1.662-2.183-.547-.78-1.174-1.504-1.947-2.48-2.705,3.689-5.269-.138-7.765-.514-2.603-.393-4.307-3.829-5.751-6.706-2.132,1.445-4.17,1.856-5.629-.747-.596-1.062-1.455-1.086-2.476-1.005-4.113,.327-5.423-.499-6.801-4.352-.294-.821-.536-1.624-1.234-2.193-3.518,1.431-4.409,1.077-5.896-2.318-.642-1.466-1.297-2.925-2.03-4.575-6.622,2.605-7.535-3.353-10.2684-6.569-6.4734,2-6.0539-4.987-9.8471-7.1152-3.8828,1.2033-6.2402-1.2803-7.8322-4.7772-.9337-2.0508-2.1546-3.3945-4.4981-3.4825-4.6389-.174-6.7508-3.6568-8.8747-6.9782-.8438-1.3196-1.9273-1.8818-3.3045-2.2933-2.4938-.745-4.8449-1.7833-6.6588-3.7578-1.0862-1.1824-2.4522-2.2966-.4277-4.046-4.7947-3.1717-10.8328-3.0728-15.1405-7.0276,1.6379-3.2401,6.1573-3.4663,7.1555-7.4523-9.0666-.8636-18.1934-1.3925-26.7161-5.1738,7.8967-2.4131,16.4729-1.9397,23.7275-7.0651-12.5532-1.672-24.5693-5.5418-37.0527-7.853,2.0241-2.0873,4.5848-2.2002,7.0101-2.4889,4.085-.4861,8.166,.0586,12.2394,.4,4.4908,.3765,8.9303-.0913,13.5019-.9874-12.5114-3.7725-24.9258-7.623-38.4115-10.4245,2.7764-2.0577,5.1247-1.7859,7.3555-1.5087,8.4414,1.0488,16.795,2.6039,25.026,4.7692,.9994,.2629,1.9666,.8941,3.0103-.5386C24.5103,22.4873,11.9413,18.0622,0,11.0397c2.1585-1.4451,3.6318-1.3488,5.2093-.7114,6.271,2.5339,12.7989,4.4089,18.9093,7.3594,.2625,.1268,.6097,.0782,1.1652-.1831-4.9186-4.1443-9.8201-8.2906-14.3781-12.8257Z" />
        <path class="cls-1" d="M217.39,225.146c-2.958,2.444-4.487,2.023-7.149-.611-3.531-3.493-5.655-7.453-5.747-12.415-5.42,.231-9.355-3.091-11.317-14.029-11.145-1.784-9.886-10.481-10.021-18.652-6.422-.779-11.932-3.252-16.147-8.821,5.098-1.378,9.142-4.454,13.224-7.463l.506,.665c-2.704,2.371-5.408,4.742-8.495,7.447,5.139,3.084,9.955,6.322,16.531,4.893-.104,3.25-.352,6.342,.233,9.415,.607,3.186,2.052,5.353,5.598,5.54,2.123,.113,2.042,2.231,2.723,3.468,1.13,2.051,1.656,4.425,2.611,6.586,1.251,2.833,3.225,4.557,6.819,3.229-.592,4.703,2.443,7.852,3.975,11.528,.653,1.567,1.749,3.461,3.983,3.283,2.104-.167,1.732-2.402,2.609-3.919,1.793,1.923,3.334,3.798,5.103,5.425,3.444,3.168,5.244,2.636,6.463-1.722,.138-.492,.366-.958,.616-1.598,2.224,1.869,2.25,4.438,2.881,6.724,.891,3.229,2.276,6.015,5.58,7.442,1.244,.537,2.299,1.031,3.507-.181,1.107-1.11,1.59-1.999,.784-3.623-.89-1.795-1.279-3.838-1.686-5.946,4.382,4.691,7.452,11.088,15.255,11.514,.49-3.022-.493-5.375-1.843-7.545-1.7-2.729-3.158-5.545-4.081-8.628l-.033-.034c1.938,1.99,3.808,4.052,5.84,5.939,1.156,1.073,2.513,2.281,4.302,1.286,1.959-1.089,1.652-3.031,1.075-4.593-1.754-4.749-5.369-8.374-7.751-12.569,1.361,.18,1.409,.146,1.913,.832,3.32,4.52,7.463,8.235,11.636,11.921,2.667,2.356,5.757,3.8,9.326,3.812,3.414,.011,4.589-1.935,3.423-5.131-1.651-4.528-5.658-6.854-9.029-9.777-.237-.206-.596-.288-.403-.929,3.053,.72,6.001,2.052,9.19,2.35,2.45,.228,4.83,.695,7.32-.278,2.09-.817,2.606-2.486,1.626-3.744-2.054-2.637-3.267-6.136-6.806-7.84,4.369,.711,8.662,.525,13.519-.423-14.715-7.754-29.689-13.896-42.399-24.033,15.882,7.964,31.582,16.287,48.144,23.912-2.815,3.995-7.305,3.32-11.144,4.263,.242,2.202,2.064,3.323,2.944,5.005,1.892,3.619,1.397,5.284-2.528,6.656-2.297,.803-4.684,.593-7.053,.538-.535-.012-1.073-.068-1.578,.659,1.254,2.308,2.019,4.921,1.975,7.687-.06,3.807-2.213,5.68-5.992,5.298-1.369-.139-2.731-.356-4.022-.528-.967,1.5-.347,2.909-.355,4.274-.025,4.145-1.587,5.477-5.639,4.624-1.465-.308-2.873-.887-4.308-1.341-.243-.043-.486-.088-.728-.132l.058,.755c-.571,4.938-1.649,5.618-6.203,3.859-2.601-1.005-5.112-2.181-7.412-4.6-.255,2.581-1.121,4.586-3.45,4.923-2.815,.407-4.504-1.465-5.833-4.232-1.394,2.783-2.783,2.124-4.484,.662-1.87-1.606-2.706-4.161-5.037-5.315-.146,.155-.373,.282-.384,.427-.139,1.792,.245,4.041-2.084,4.549-2.19,.477-3.932-.711-4.964-2.757-1.438-2.851-4.185-4.821-5.187-7.981" />
        <path class="cls-1" d="M162.716,93.3072c-3.56-1.7683-4.571-6.5683-8.976-4.4608,.015-1.7604,.667-2.5805,1.173-3.5631-.451-1.4527-2.814-2.18-1.859-4.5377,4.153,3.1062,6.766,7.312,9.662,12.5617h0Z" />
        <path class="cls-1" d="M150.419,88.1058c-2.451-.5784-2.85-1.9292-3.988-3.5264,1.929,.7969,2.532,1.9857,3.988,3.5264Z" />
        <path class="cls-1" d="M144.885,83.496c.447-.3449,.911-.3598,1.264,.0984,.078,.101-.105,.5973-.249,.6405-.596,.1788-.914-.1641-1.015-.7389h0Z" />
        <path class="cls-1" d="M249.905,217.152l-.122-.068,.09,.036,.032,.032Z" />
    </g>
    <path class="cls-1" d="M489.262,104.216h28.649c5.796,0,10.014-.113,12.652-.341,2.675-.265,5.276-.776,7.803-1.534,.78-.227,1.3929-.341,1.839-.341,1.933,0,3.642,1.061,5.128,3.182,2.452,3.448,3.679,7.615,3.679,12.502,0,2.462-.521,4.413-1.561,5.853-1.003,1.402-2.397,2.103-4.18,2.103-1.226,0-2.192-.247-2.898-.739-.669-.53-1.58-1.686-2.732-3.466-1.635-2.539-3.715-4.225-6.242-5.058-2.49-.871-6.596-1.307-12.318-1.307-4.273,0-6.874,.777-7.803,2.33-.483,.833-.78,1.951-.892,3.353-.074,1.401-.111,4.981-.111,10.74,0,2.273,.371,3.693,1.114,4.262,.744,.53,2.694,.795,5.853,.795,1.56,0,2.694-.322,3.4-.966,.706-.682,1.152-1.875,1.337-3.58,.261-2.197,.521-3.694,.781-4.489,.297-.834,.817-1.553,1.56-2.159,.781-.682,1.691-1.023,2.731-1.023,1.524,0,2.824,.738,3.902,2.216,.78,1.098,1.431,3.05,1.951,5.853,.557,2.765,.836,5.664,.836,8.694,0,5.986-.911,10.892-2.731,14.718-1.003,2.084-2.527,3.126-4.571,3.126-1.263,0-2.136-.322-2.619-.966-.483-.682-.855-2.065-1.115-4.149-.557-4.281-3.01-6.421-7.357-6.421-1.672,0-2.824,.549-3.456,1.648-.594,1.061-.892,3.05-.892,5.967,0,1.78,.112,4.091,.335,6.932,.26,2.804,.52,4.66,.78,5.569,.297,1.137,1.208,1.933,2.731,2.387,1.561,.417,4.143,.625,7.748,.625,5.573,0,9.772-.72,12.596-2.159,2.824-1.478,5.128-4.13,6.9109-7.956,1.041-2.197,1.97-3.675,2.787-4.432,.855-.758,1.951-1.137,3.289-1.137,1.56,0,2.842,.701,3.845,2.103,1.041,1.364,1.561,3.087,1.561,5.171,0,2.273-.576,5.114-1.728,8.524-1.152,3.409-2.564,6.44-4.236,9.092-.854,1.288-1.56,2.14-2.118,2.557-.557,.455-1.263,.682-2.118,.682-.706,0-1.728-.114-3.065-.341-2.378-.454-5.555-.739-9.531-.852h-47.265c-1.895,0-3.363-.417-4.403-1.25-1.04-.872-1.561-2.084-1.561-3.637,0-1.099,.223-1.894,.669-2.387,.446-.492,1.468-1.118,3.066-1.875,1.114-.493,1.932-1.099,2.452-1.819,.557-.719,.985-1.78,1.282-3.182,1.226-5.72,1.839-13.43,1.839-23.128,0-14.623-.891-23.848-2.675-27.674-.372-.758-.78-1.288-1.226-1.592-.446-.303-1.375-.662-2.787-1.079-2.118-.644-3.177-2.084-3.177-4.319,0-1.212,.353-2.292,1.059-3.239,.706-.947,1.635-1.572,2.787-1.875,1.449-.341,4.254-.512,8.416-.512Z" />
    <path class="cls-1" d="M628.659,142.517l10.535,23.015c1.0031,2.121,1.8391,3.523,2.5081,4.205,.6689,.644,1.69,1.079,3.065,1.307,2.676,.416,4.013,1.799,4.013,4.148,0,2.765-1.635,4.754-4.905,5.967-3.269,1.212-8.62,1.818-16.052,1.818-8.397,0-14.621-.36-18.671-1.08-1.858-.341-3.345-1.022-4.459-2.045-1.078-1.061-1.617-2.33-1.617-3.808,0-1.136,.279-2.008,.836-2.614,.595-.644,1.672-1.231,3.233-1.761,1.746-.606,2.62-1.629,2.62-3.069,0-2.538-1.505-4.035-4.515-4.489-3.233-.455-7.785-.682-13.656-.682-4.942,0-7.896,.303-8.862,.909-.594,.379-1.114,1.061-1.56,2.046s-.669,1.932-.669,2.841c0,.834,.149,1.383,.446,1.648,.334,.227,1.375,.625,3.121,1.194,2.267,.681,3.4,2.045,3.4,4.091,0,4.508-5.295,6.762-15.8849,6.762-6.02,0-10.441-.416-13.265-1.25-2.601-.795-3.902-2.538-3.902-5.228,0-1.174,.279-2.083,.836-2.728,.595-.644,1.6349-1.231,3.121-1.761,2.416-.871,4.236-2.084,5.463-3.637,1.263-1.591,3.047-4.963,5.35-10.115l7.859-17.559c2.899-6.441,4.831-11.252,5.797-14.434,1.003-3.22,1.523-6.365,1.56-9.433,.038-3.258,.223-5.512,.558-6.763,.371-1.288,1.17-2.538,2.396-3.75,2.564-2.652,5.834-3.978,9.8101-3.978,3.753,0,7.339,1.497,10.757,4.489,4.756,4.092,11.668,16.006,20.734,35.744Zm-38.792,7.16h10.924c2.007,0,3.01-.455,3.01-1.364,0-1.25-1.394-4.319-4.1801-9.206-1.264-2.235-2.23-3.731-2.899-4.489-.669-.758-1.375-1.136-2.118-1.136-1.337,0-2.452,1.269-3.344,3.807-.149,.341-.687,1.686-1.616,4.035-1.561,3.864-2.341,6.175-2.341,6.932,0,.948,.854,1.421,2.564,1.421Z" />
    <path class="cls-1" d="M689.245,102.625c4.868,0,9.457,.701,13.767,2.103,1.9319,.644,3.251,.966,3.957,.966,.743,0,2.304-.436,4.682-1.307,.78-.265,1.579-.398,2.397-.398,2.0811,0,4.069,1.25,5.9641,3.75,3.047,4.016,4.5699,8.411,4.5699,13.184,0,3.258-.817,5.891-2.452,7.899-1.598,2.008-3.716,3.012-6.354,3.012-2.156,0-4.274-.796-6.354-2.387-.632-.493-2.174-2.273-4.626-5.342-4.088-5.114-8.788-7.671-14.1021-7.671-4.83,0-8.676,1.799-11.537,5.398-2.824,3.599-4.236,8.448-4.236,14.548,0,9.054,2.266,16.763,6.8,23.128,1.709,2.311,3.752,4.167,6.131,5.569,2.378,1.364,4.737,2.046,7.078,2.046,1.932,0,3.512-.644,4.738-1.932,1.263-1.326,1.895-3.012,1.895-5.058,0-1.818-.52-3.106-1.561-3.864-.409-.303-.799-.474-1.17-.512-.335-.075-1.394-.113-3.1769-.113-1.598,0-2.936-.512-4.013-1.535-1.041-1.06-1.561-2.386-1.561-3.977,0-3.145,2.044-5.38,6.131-6.706,4.496-1.439,9.6801-2.159,15.551-2.159,6.279,0,11.556,.663,15.829,1.989,4.05,1.288,6.075,3.618,6.075,6.989,0,1.364-.464,2.557-1.393,3.58-.929,.985-2.137,1.573-3.623,1.762-1.301,.189-2.155,.492-2.564,.909-.3719,.379-.762,1.345-1.171,2.898-1.597,6.024-4.719,11.062-9.363,15.116-3.196,2.766-7.06,4.925-11.594,6.478-4.496,1.553-9.233,2.33-14.212,2.33-8.138,0-15.607-1.913-22.407-5.739-6.985-3.902-12.299-9.358-15.94-16.366-3.047-5.834-4.571-12.142-4.571-18.923,0-6.857,1.821-13.373,5.463-19.548,3.864-6.63,9.27-11.745,16.219-15.344,6.057-3.182,12.968-4.773,20.734-4.773Z" />
    <path class="cls-1" d="M772.85,129.049v26.083c0,5.872,.502,9.661,1.505,11.366,1.226,2.007,3.808,3.011,7.747,3.011,4.236,0,7.58-.947,10.033-2.841,2.452-1.894,4.161-4.849,5.128-8.865,.557-2.462,1.82-3.694,3.79-3.694s3.567,.91,4.793,2.728c1.263,1.781,1.895,4.111,1.895,6.99,0,4.697-1.709,9.717-5.1281,15.059-1.077,1.704-2.025,2.86-2.842,3.466-.818,.644-1.802,.966-2.954,.966l-12.374-1.534h-38.96c-2.564,0-4.366-.303-5.4059-.909-1.524-.872-2.285-2.179-2.285-3.921,0-1.061,.241-1.838,.724-2.33,.52-.531,1.747-1.269,3.679-2.217,2.118-1.022,3.474-2.462,4.069-4.318,.483-1.554,.724-6.081,.724-13.582,0-3.485-.093-8.505-.279-15.059-.185-6.288-.297-11.024-.334-14.206,0-3.031-.242-5.096-.725-6.194-.445-1.137-1.412-1.951-2.898-2.444-2.452-.871-4.013-1.572-4.682-2.102-1.189-.947-1.783-2.027-1.783-3.239,0-2.766,2.248-4.868,6.744-6.308,3.827-1.25,8.955-1.875,15.383-1.875,7.209,0,12.597,.379,16.164,1.136,4.607,1.023,6.911,3.069,6.911,6.137,0,1.251-.316,2.179-.947,2.785-.595,.606-2.081,1.421-4.459,2.443-1.412,.644-2.304,1.743-2.676,3.296-.371,1.554-.557,4.944-.557,10.172Z" />
    <path class="cls-1" d="M820.783,104.216h28.649c5.797,0,10.014-.113,12.652-.341,2.676-.265,5.277-.776,7.803-1.534,.781-.227,1.394-.341,1.84-.341,1.932,0,3.641,1.061,5.127,3.182,2.453,3.448,3.679,7.615,3.679,12.502,0,2.462-.52,4.413-1.561,5.853-1.003,1.402-2.396,2.103-4.18,2.103-1.226,0-2.192-.247-2.898-.739-.669-.53-1.579-1.686-2.731-3.466-1.635-2.539-3.716-4.225-6.243-5.058-2.489-.871-6.595-1.307-12.318-1.307-4.273,0-6.874,.777-7.803,2.33-.483,.833-.78,1.951-.891,3.353-.075,1.401-.112,4.981-.112,10.74,0,2.273,.372,3.693,1.115,4.262,.743,.53,2.694,.795,5.852,.795,1.561,0,2.694-.322,3.4-.966,.706-.682,1.152-1.875,1.338-3.58,.26-2.197,.52-3.694,.78-4.489,.297-.834,.818-1.553,1.561-2.159,.78-.682,1.69-1.023,2.731-1.023,1.523,0,2.824,.738,3.901,2.216,.781,1.098,1.431,3.05,1.951,5.853,.558,2.765,.836,5.664,.836,8.694,0,5.986-.91,10.892-2.731,14.718-1.0031,2.084-2.527,3.126-4.57,3.126-1.264,0-2.137-.322-2.62-.966-.483-.682-.855-2.065-1.1151-4.149-.5569-4.281-3.009-6.421-7.357-6.421-1.672,0-2.824,.549-3.456,1.648-.594,1.061-.891,3.05-.891,5.967,0,1.78,.111,4.091,.334,6.932,.26,2.804,.52,4.66,.78,5.569,.298,1.137,1.208,1.933,2.731,2.387,1.561,.417,4.144,.625,7.748,.625,5.574,0,9.772-.72,12.596-2.159,2.824-1.478,5.128-4.13,6.912-7.956,1.04-2.197,1.969-3.675,2.787-4.432,.854-.758,1.95-1.137,3.288-1.137,1.561,0,2.843,.701,3.846,2.103,1.04,1.364,1.56,3.087,1.56,5.171,0,2.273-.576,5.114-1.7271,8.524-1.152,3.409-2.564,6.44-4.236,9.092-.855,1.288-1.561,2.14-2.118,2.557-.558,.455-1.264,.682-2.118,.682-.706,0-1.728-.114-3.066-.341-2.378-.454-5.555-.739-9.531-.852h-47.264c-1.8961,0-3.363-.417-4.4041-1.25-1.04-.872-1.56-2.084-1.56-3.637,0-1.099,.223-1.894,.669-2.387,.445-.492,1.467-1.118,3.065-1.875,1.115-.493,1.932-1.099,2.452-1.819,.558-.719,.985-1.78,1.282-3.182,1.227-5.72,1.84-13.43,1.84-23.128,0-14.623-.892-23.848-2.676-27.674-.371-.758-.78-1.288-1.226-1.592-.446-.303-1.375-.662-2.787-1.079-2.118-.644-3.177-2.084-3.177-4.319,0-1.212,.353-2.292,1.059-3.239,.706-.947,1.635-1.572,2.787-1.875,1.449-.341,4.255-.512,8.416-.512Z" />
    <path class="cls-1" d="M988.718,142.517l10.534,23.015c1.008,2.121,1.838,3.523,2.508,4.205,.67,.644,1.69,1.079,3.07,1.307,2.67,.416,4.01,1.799,4.01,4.148,0,2.765-1.64,4.754-4.91,5.967-3.27,1.212-8.617,1.818-16.048,1.818-8.398,0-14.622-.36-18.672-1.08-1.858-.341-3.344-1.022-4.459-2.045-1.078-1.061-1.616-2.33-1.616-3.808,0-1.136,.278-2.008,.836-2.614,.594-.644,1.672-1.231,3.232-1.761,1.747-.606,2.62-1.629,2.62-3.069,0-2.538-1.505-4.035-4.515-4.489-3.232-.455-7.784-.682-13.655-.682-4.942,0-7.896,.303-8.862,.909-.595,.379-1.115,1.061-1.561,2.046-.446,.985-.669,1.932-.669,2.841,0,.834,.149,1.383,.446,1.648,.335,.227,1.375,.625,3.122,1.194,2.266,.681,3.399,2.045,3.399,4.091,0,4.508-5.295,6.762-15.885,6.762-6.019,0-10.441-.416-13.265-1.25-2.601-.795-3.901-2.538-3.901-5.228,0-1.174,.278-2.083,.836-2.728,.594-.644,1.635-1.231,3.121-1.761,2.415-.871,4.236-2.084,5.462-3.637,1.263-1.591,3.047-4.963,5.351-10.115l7.859-17.559c2.898-6.441,4.83-11.252,5.796-14.434,1.004-3.22,1.524-6.365,1.561-9.433,.037-3.258,.223-5.512,.557-6.763,.372-1.288,1.171-2.538,2.397-3.75,2.564-2.652,5.834-3.978,9.81-3.978,3.753,0,7.338,1.497,10.757,4.489,4.756,4.092,11.667,16.006,20.734,35.744Zm-38.793,7.16h10.924c2.007,0,3.01-.455,3.01-1.364,0-1.25-1.393-4.319-4.18-9.206-1.263-2.235-2.229-3.731-2.898-4.489-.669-.758-1.375-1.136-2.118-1.136-1.338,0-2.453,1.269-3.3441,3.807-.149,.341-.688,1.686-1.6169,4.035-1.56,3.864-2.341,6.175-2.341,6.932,0,.948,.855,1.421,2.564,1.421Z" />
    <path class="cls-1" d="M1034.98,103.023c4.24,0,8.23,.379,11.98,1.136,5.0601,1.023,7.5801,3.202,7.5801,6.535,0,1.099-.26,1.932-.78,2.501-.48,.53-1.74,1.326-3.79,2.386-1.71,.872-2.84,2.785-3.4,5.74-.5199,2.955-.7799,8.713-.7799,17.275,0,14.472,.36,23.431,1.0599,26.879,.26,1.098,.65,1.951,1.17,2.557,.5599,.568,1.51,1.193,2.84,1.875,2.46,1.137,3.6801,2.785,3.6801,4.944,0,3.031-2.26,5.114-6.8,6.251-4.9,1.212-10.9,1.818-18,1.818-12.11,0-18.17-2.348-18.17-7.046,0-1.705,1.19-3.296,3.57-4.774,1.82-1.136,2.9-2.689,3.23-4.659,.71-4.319,1.06-13.487,1.06-27.504,0-9.698-.48-15.911-1.45-18.639-.52-1.553-1.77-2.955-3.73-4.205-1.53-1.023-2.55-1.875-3.07-2.557-.52-.682-.78-1.554-.78-2.614,0-1.629,.7599-2.917,2.28-3.864,1.57-.985,4.3-1.857,8.2-2.614,4.64-.948,9.34-1.421,14.1-1.421Z" />
    <path class="cls-1" d="M1094.84,149.166c-1.4099,0-2.3199,.435-2.73,1.307-.37,.871-.5599,2.898-.5599,6.08,0,4.811,.2999,8.562,.8899,11.252,.1901,.757,.4701,1.344,.8401,1.761,.37,.417,1.08,.928,2.12,1.534,2.23,1.251,3.34,2.899,3.34,4.944,0,2.501-1.5599,4.281-4.6799,5.342-3.0801,1.023-8.3201,1.534-15.7201,1.534-13.75,0-20.62-2.652-20.62-7.955,0-.91,.2001-1.629,.61-2.16,.41-.568,1.3401-1.345,2.79-2.33,1.63-1.098,2.73-2.386,3.29-3.864,.59-1.515,1-4.11,1.22-7.785,.1899-2.69,.28-12.331,.28-28.924,0-5.266-.26-8.846-.78-10.741-.52-1.894-1.63-3.277-3.34-4.148-1.64-.795-2.73-1.515-3.29-2.159-.5601-.682-.84-1.553-.84-2.614,0-1.402,.52-2.614,1.5599-3.637,1.0801-1.061,2.5701-1.837,4.4601-2.33,1.6-.417,3.7899-.625,6.58-.625,1.23,0,4.29,.189,9.2,.568,.9301,.076,2.39,.114,4.4,.114,3.34,0,7.8-.227,13.38-.682,3.53-.265,6-.398,7.41-.398,7.95,0,14.53,1.951,19.73,5.853,4.6801,3.523,7.02,8.411,7.02,14.661,0,3.486-.8101,6.668-2.4501,9.547-1.63,2.841-3.88,4.982-6.74,6.422-1.1899,.606-1.7899,1.325-1.7899,2.159,0,1.099,.9099,1.989,2.73,2.671,3.91,1.439,6.77,3.618,8.59,6.535,1.8201,2.917,3.12,7.387,3.9,13.411,.33,2.5,.8199,4.129,1.45,4.887,.63,.72,2.1,1.42,4.4,2.102,.71,.228,1.3,.72,1.79,1.478,.48,.72,.72,1.534,.72,2.443,0,1.175-.45,2.368-1.34,3.58-.89,1.175-2.04,2.103-3.4501,2.785-3.12,1.477-7.3999,2.216-12.8199,2.216-7.25,0-12.4301-1.951-15.55-5.853-1.4199-1.743-2.62-3.94-3.63-6.592-.96-2.652-2.11-6.781-3.45-12.388-.86-3.599-1.95-6.137-3.29-7.615-1.2999-1.477-3.1799-2.273-5.63-2.386Zm-3.23-28.982l-.62,13.241v.511c0,1.364,.1901,2.273,.5601,2.728,.4099,.455,1.21,.682,2.3999,.682,3.27,0,5.65-.853,7.13-2.557,1.49-1.743,2.2301-4.509,2.2301-8.297,0-7.312-2.54-10.967-7.63-10.967-1.4501,0-2.4701,.341-3.0701,1.022-.59,.682-.9299,1.895-1,3.637Z" />
    <path class="cls-1" d="M909.219,216.711l4.429,9.492c.422,.875,.774,1.453,1.055,1.735,.281,.265,.711,.445,1.289,.539,1.125,.171,1.688,.742,1.688,1.711,0,1.14-.688,1.96-2.063,2.46s-3.625,.75-6.75,.75c-3.531,0-6.148-.148-7.851-.445-.782-.141-1.407-.422-1.875-.844-.453-.437-.68-.961-.68-1.57,0-.469,.117-.828,.351-1.078,.25-.266,.704-.508,1.36-.727,.734-.25,1.101-.672,1.101-1.265,0-1.047-.632-1.664-1.898-1.852-1.359-.187-3.273-.281-5.742-.281-2.078,0-3.321,.125-3.727,.375-.25,.156-.468,.437-.656,.844-.188,.406-.281,.797-.281,1.172,0,.343,.062,.57,.187,.679,.141,.094,.578,.258,1.313,.492,.953,.282,1.429,.844,1.429,1.688,0,1.859-2.226,2.789-6.679,2.789-2.531,0-4.391-.172-5.578-.516-1.094-.328-1.641-1.047-1.641-2.156,0-.484,.117-.859,.352-1.125,.25-.266,.687-.508,1.312-.726,1.016-.36,1.781-.86,2.297-1.5,.531-.657,1.281-2.047,2.25-4.172l3.305-7.242c1.218-2.657,2.031-4.641,2.437-5.954,.422-1.328,.641-2.625,.656-3.89,.016-1.344,.094-2.274,.235-2.789,.156-.532,.492-1.047,1.008-1.547,1.078-1.094,2.453-1.641,4.125-1.641,1.578,0,3.085,.617,4.523,1.852,2,1.687,4.906,6.601,8.719,14.742Zm-16.313,2.953h4.594c.844,0,1.266-.187,1.266-.562,0-.516-.586-1.782-1.758-3.797-.531-.922-.938-1.539-1.219-1.852-.281-.312-.578-.469-.891-.469-.562,0-1.031,.524-1.406,1.571-.062,.14-.289,.695-.68,1.664-.656,1.593-.984,2.547-.984,2.859,0,.391,.36,.586,1.078,.586Z" />
    <path class="cls-1" d="M934.695,200.258c2.047,0,3.977,.289,5.789,.867,.813,.266,1.368,.398,1.664,.398,.313,0,.969-.179,1.969-.539,.328-.109,.664-.164,1.008-.164,.875,0,1.711,.516,2.508,1.547,1.281,1.656,1.922,3.469,1.922,5.438,0,1.343-.344,2.429-1.032,3.257-.671,.829-1.562,1.243-2.671,1.243-.907,0-1.797-.328-2.672-.985-.266-.203-.914-.937-1.946-2.203-1.718-2.109-3.695-3.164-5.929-3.164-2.032,0-3.649,.742-4.852,2.227-1.187,1.484-1.781,3.484-1.781,6,0,3.734,.953,6.914,2.859,9.539,.719,.953,1.578,1.719,2.578,2.297,1,.562,1.993,.843,2.977,.843,.812,0,1.476-.265,1.992-.797,.531-.546,.797-1.242,.797-2.085,0-.75-.219-1.282-.656-1.594-.172-.125-.336-.195-.492-.211-.141-.031-.586-.047-1.336-.047-.672,0-1.235-.211-1.688-.633-.437-.437-.656-.984-.656-1.64,0-1.297,.859-2.219,2.578-2.766,1.891-.594,4.07-.891,6.539-.891,2.641,0,4.859,.274,6.656,.821,1.703,.531,2.555,1.492,2.555,2.882,0,.563-.195,1.055-.586,1.477-.391,.406-.898,.648-1.523,.727-.547,.078-.907,.203-1.078,.375-.157,.156-.321,.554-.493,1.195-.672,2.484-1.984,4.562-3.937,6.234-1.344,1.141-2.969,2.032-4.875,2.672-1.891,.641-3.883,.961-5.977,.961-3.422,0-6.562-.789-9.422-2.367-2.937-1.61-5.172-3.86-6.703-6.75-1.281-2.406-1.922-5.008-1.922-7.805,0-2.828,.766-5.515,2.297-8.062,1.625-2.735,3.899-4.844,6.821-6.328,2.546-1.313,5.453-1.969,8.718-1.969Z" />
    <path class="cls-1" d="M959.633,200.914h12.047c2.437,0,4.211-.047,5.32-.141,1.125-.109,2.219-.32,3.281-.632,.328-.094,.586-.141,.774-.141,.812,0,1.531,.438,2.156,1.312,1.031,1.422,1.547,3.141,1.547,5.157,0,1.015-.219,1.82-.656,2.414-.422,.578-1.008,.867-1.758,.867-.516,0-.922-.102-1.219-.305-.281-.218-.664-.695-1.148-1.429-.688-1.047-1.563-1.743-2.625-2.086-1.047-.36-2.774-.539-5.18-.539-1.797,0-2.891,.32-3.281,.961-.203,.343-.329,.804-.375,1.382-.032,.578-.047,2.055-.047,4.43,0,.938,.156,1.524,.469,1.758,.312,.219,1.132,.328,2.46,.328,.657,0,1.133-.133,1.43-.398,.297-.282,.484-.774,.563-1.477,.109-.906,.218-1.523,.328-1.852,.125-.343,.343-.64,.656-.89,.328-.281,.711-.422,1.148-.422,.641,0,1.188,.305,1.641,.914,.328,.453,.602,1.258,.82,2.414,.235,1.141,.352,2.336,.352,3.586,0,2.469-.383,4.492-1.148,6.07-.422,.86-1.063,1.289-1.922,1.289-.532,0-.899-.132-1.102-.398-.203-.281-.359-.852-.469-1.711-.234-1.766-1.265-2.648-3.093-2.648-.704,0-1.188,.226-1.454,.679-.25,.438-.375,1.258-.375,2.461,0,.735,.047,1.688,.141,2.86,.109,1.156,.219,1.921,.328,2.296,.125,.469,.508,.797,1.149,.985,.656,.172,1.742,.258,3.257,.258,2.344,0,4.11-.297,5.297-.891,1.188-.609,2.157-1.703,2.907-3.281,.437-.906,.828-1.516,1.171-1.828,.36-.313,.821-.469,1.383-.469,.656,0,1.196,.289,1.617,.867,.438,.563,.657,1.274,.657,2.133,0,.937-.242,2.109-.727,3.515-.484,1.407-1.078,2.657-1.781,3.75-.36,.532-.656,.883-.891,1.055-.234,.188-.531,.281-.89,.281-.297,0-.727-.046-1.289-.14-1-.188-2.336-.305-4.008-.352h-19.875c-.797,0-1.414-.172-1.852-.515-.437-.36-.656-.86-.656-1.5,0-.453,.094-.782,.281-.985,.188-.203,.617-.461,1.289-.773,.469-.203,.813-.453,1.031-.75,.235-.297,.415-.735,.54-1.313,.515-2.359,.773-5.539,.773-9.539,0-6.031-.375-9.836-1.125-11.414-.156-.312-.328-.531-.516-.656-.187-.125-.578-.273-1.172-.445-.89-.266-1.335-.86-1.335-1.782,0-.5,.148-.945,.445-1.336,.297-.39,.687-.648,1.172-.773,.609-.141,1.789-.211,3.539-.211Z" />
    <path class="cls-1" d="M1000.86,202.039l11.67,10.219c1.09,.953,1.8799,1.43,2.37,1.43,.81,0,1.22-.868,1.22-2.602,0-1.969-.12-3.313-.35-4.031-.24-.719-.73-1.258-1.48-1.617-.61-.297-1.04-.61-1.29-.938-.25-.344-.38-.781-.38-1.312,0-1.313,.9-2.157,2.7-2.532,.73-.156,2.02-.234,3.84-.234,2.36,0,4,.14,4.9001,.422,1.4399,.437,2.1599,1.265,2.1599,2.484,0,1.016-.59,1.781-1.76,2.297-.47,.203-.79,.383-.96,.539s-.32,.391-.45,.703c-.42,1.031-.64,2.985-.65,5.86v7.64c0,1.172,.0099,2.774,.02,4.805,.02,2.75-.15,4.734-.49,5.953-.42,1.516-1.19,2.273-2.3,2.273-.48,0-.9-.101-1.26-.304-.35-.203-.92-.672-1.74-1.406l-13.9-12.446c-.96-.875-1.77-1.312-2.41-1.312-.953,0-1.429,1.32-1.429,3.961,0,2.171,.117,3.656,.351,4.453,.25,.797,.75,1.383,1.498,1.758,1.05,.515,1.57,1.187,1.57,2.015,0,2.172-2.333,3.258-7.005,3.258-2.11,0-3.75-.273-4.922-.82-1.156-.563-1.735-1.352-1.735-2.367,0-.532,.11-.93,.329-1.196,.218-.265,.711-.625,1.476-1.078,.735-.437,1.18-1.211,1.336-2.32,.266-2.016,.399-4.914,.399-8.696,0-4.031-.235-6.968-.704-8.812-.172-.672-.39-1.172-.656-1.5s-.703-.641-1.312-.938c-.704-.343-1.196-.679-1.477-1.007-.266-.329-.398-.727-.398-1.196,0-1.5,1.289-2.445,3.867-2.836,.875-.125,2.406-.187,4.594-.187,1.25,0,2.156,.101,2.718,.305,.578,.187,1.26,.625,2.04,1.312Z" />
    <path class="cls-1" d="M1045.0601,200.258c2.2799,0,4.49,.5,6.61,1.5,1,.469,1.7,.703,2.09,.703,.28,0,.73-.07,1.36-.211,.2-.047,.4301-.07,.6801-.07,.8099,0,1.5199,.375,2.13,1.125,1.5,1.812,2.25,4.062,2.25,6.75,0,1.89-.65,3.273-1.9501,4.148-.7,.469-1.49,.703-2.36,.703-.8,0-1.45-.172-1.95-.515-.5-.344-.9801-.953-1.4501-1.829-.6699-1.234-1.22-2.117-1.64-2.648-.4199-.547-.9399-1.039-1.5499-1.476-1.51-1.063-3.1-1.594-4.76-1.594-1.61,0-2.89,.586-3.84,1.758-.9401,1.156-1.41,2.71-1.41,4.664,0,2.687,.6799,5.148,2.04,7.382,1.85,2.985,4.49,4.477,7.9199,4.477,1.27,0,2.52-.211,3.75-.633,1.25-.422,2.22-.969,2.91-1.64,.59-.563,1.08-.844,1.45-.844,.55,0,1.02,.258,1.41,.773,.39,.5,.59,1.11,.59,1.828,0,.907-.2799,1.922-.8199,3.047-.55,1.125-1.21,2.008-1.97,2.649-.3301,.265-1.01,.5-2.04,.703-.6,.109-1.39,.398-2.37,.867-2.3101,1.109-4.72,1.664-7.22,1.664-2.61,0-5.2101-.586-7.8-1.758-3.02-1.359-5.4-3.445-7.15-6.258-1.72-2.734-2.58-5.593-2.58-8.578,0-3.468,1.08-6.633,3.23-9.492,1.88-2.484,4.33-4.383,7.34-5.695,2.3-1,4.66-1.5,7.1001-1.5Z" />
    <path class="cls-1" d="M1071.78,200.422c1.78,0,3.46,.156,5.0399,.469,2.13,.421,3.1901,1.32,3.1901,2.695,0,.453-.11,.797-.33,1.031-.2001,.219-.7301,.547-1.5901,.985-.72,.359-1.2,1.148-1.4299,2.367-.2201,1.219-.3301,3.593-.3301,7.125,0,5.968,.15,9.664,.4401,11.086,.11,.453,.28,.804,.5,1.054,.23,.235,.63,.493,1.1899,.774,1.03,.469,1.55,1.148,1.55,2.039,0,1.25-.96,2.109-2.86,2.578-2.0601,.5-4.59,.75-7.5701,.75-5.1,0-7.64-.969-7.64-2.906,0-.703,.5-1.36,1.5-1.969,.76-.469,1.2201-1.109,1.3601-1.922,.2899-1.781,.4399-5.562,.4399-11.344,0-4-.2-6.562-.61-7.687-.22-.641-.74-1.219-1.5699-1.735-.64-.421-1.0701-.773-1.29-1.054-.22-.281-.3201-.641-.3201-1.078,0-.672,.3201-1.203,.9601-1.594,.65-.406,1.7999-.766,3.4399-1.078,1.9501-.391,3.9301-.586,5.9301-.586Z" />
    <path class="cls-1" d="M1086.48,200.914h12.04c2.4399,0,4.21-.047,5.3199-.141,1.13-.109,2.2201-.32,3.28-.632,.33-.094,.59-.141,.78-.141,.8099,0,1.53,.438,2.15,1.312,1.0399,1.422,1.5499,3.141,1.5499,5.157,0,1.015-.22,1.82-.65,2.414-.4299,.578-1.01,.867-1.76,.867-.5199,0-.9199-.102-1.22-.305-.28-.218-.6699-.695-1.15-1.429-.6899-1.047-1.5599-1.743-2.62-2.086-1.0499-.36-2.7799-.539-5.1799-.539-1.8,0-2.9,.32-3.29,.961-.2,.343-.3199,.804-.37,1.382-.03,.578-.0499,2.055-.0499,4.43,0,.938,.1599,1.524,.47,1.758,.3099,.219,1.13,.328,2.46,.328,.66,0,1.14-.133,1.4301-.398,.2999-.282,.49-.774,.5599-1.477,.11-.906,.22-1.523,.3301-1.852,.1299-.343,.35-.64,.6599-.89,.3301-.281,.7101-.422,1.15-.422,.64,0,1.1801,.305,1.64,.914,.33,.453,.6,1.258,.8199,2.414,.2301,1.141,.3501,2.336,.3501,3.586,0,2.469-.38,4.492-1.15,6.07-.42,.86-1.0601,1.289-1.92,1.289-.53,0-.9-.132-1.1-.398-.21-.281-.36-.852-.47-1.711-.24-1.766-1.27-2.648-3.0901-2.648-.71,0-1.1899,.226-1.46,.679-.25,.438-.37,1.258-.37,2.461,0,.735,.04,1.688,.14,2.86,.11,1.156,.22,1.921,.33,2.296,.12,.469,.5,.797,1.14,.985,.66,.172,1.75,.258,3.26,.258,2.35,0,4.11-.297,5.3-.891,1.1899-.609,2.1599-1.703,2.9099-3.281,.4301-.906,.8201-1.516,1.17-1.828,.36-.313,.8199-.469,1.38-.469,.66,0,1.2,.289,1.62,.867,.4301,.563,.65,1.274,.65,2.133,0,.937-.24,2.109-.72,3.515-.49,1.407-1.0801,2.657-1.78,3.75-.36,.532-.66,.883-.9,1.055-.23,.188-.53,.281-.89,.281-.29,0-.72-.046-1.28-.14-1-.188-2.34-.305-4.01-.352h-19.8799c-.79,0-1.41-.172-1.8501-.515-.4399-.36-.6599-.86-.6599-1.5,0-.453,.1-.782,.2899-.985,.1801-.203,.61-.461,1.28-.773,.47-.203,.8199-.453,1.04-.75,.23-.297,.4099-.735,.5399-1.313,.51-2.359,.77-5.539,.77-9.539,0-6.031-.38-9.836-1.13-11.414-.15-.312-.3199-.531-.51-.656-.1899-.125-.58-.273-1.1699-.445-.89-.266-1.3401-.86-1.3401-1.782,0-.5,.15-.945,.4501-1.336,.29-.39,.6799-.648,1.1699-.773,.6101-.141,1.79-.211,3.54-.211Z" />
    <path class="cls-1" d="M1128.97,200.258c1.61,0,3.72,.398,6.3301,1.195,.3099,.094,.5599,.141,.75,.141,.1499,0,.62-.141,1.3999-.422,.25-.094,.52-.141,.8-.141,1.05,0,2.15,.828,3.3,2.485,1.1799,1.656,1.76,3.234,1.76,4.734,0,.875-.26,1.617-.79,2.227-.52,.593-1.15,.89-1.9,.89-.63,0-1.14-.125-1.53-.375s-1.25-.992-2.5699-2.226c-1.88-1.75-3.72-2.625-5.54-2.625-.87,0-1.5699,.211-2.1,.632-.52,.422-.78,.977-.78,1.665,0,1.359,1.2001,2.382,3.59,3.07,3.2301,.953,5.3,1.648,6.2101,2.086,3.98,1.937,5.98,4.789,5.98,8.554,0,3.329-1.36,6.047-4.08,8.157-2.78,2.156-6.42,3.234-10.9,3.234-2,0-4.11-.234-6.3301-.703-2.22-.484-3.8199-1.047-4.7999-1.688-.75-.5-1.4301-1.586-2.04-3.257-.6-1.688-.89-3.329-.89-4.922,0-.766,.15-1.344,.4601-1.735,.3999-.5,.8899-.75,1.48-.75,.6,0,1.1699,.305,1.71,.914,.33,.344,1.1,1.446,2.3201,3.305,.58,.875,1.49,1.602,2.74,2.18,1.2699,.578,2.5699,.867,3.9199,.867,1.15,0,2.0901-.211,2.8101-.633,.72-.437,1.08-.992,1.08-1.664,0-.625-.28-1.164-.84-1.617-.5701-.453-1.48-.875-2.75-1.266-2.23-.703-3.9301-1.343-5.11-1.922-1.17-.593-2.26-1.336-3.28-2.226-2.47-2.188-3.7-4.672-3.7-7.453,0-1.375,.3199-2.711,.96-4.008,.64-1.313,1.5499-2.445,2.72-3.399,2.62-2.203,5.83-3.304,9.61-3.304Z" />
</svg>