<svg width="254" height="78" viewBox="0 0 254 78" fill="none" xmlns="http://www.w3.org/2000/svg">
<g clip-path="url(#clip0_469_666)">
<path d="M55.6079 70.3157C55.5727 70.1046 55.784 69.8584 55.9953 69.8936H56.3122C56.5587 69.9287 56.6996 70.0695 56.6996 70.2806C56.9461 71.7934 58.6718 72.884 61.3835 72.884C64.1657 72.884 65.68 71.723 65.68 70.1046C65.68 68.1345 63.567 67.466 61.0313 66.692C58.6013 65.9532 55.6783 65.0385 55.6783 62.3295C55.6783 59.9723 57.7561 58.4243 60.9961 58.4243C64.1304 58.4243 66.4196 59.902 66.5956 62.048C66.6309 62.2239 66.4548 62.4702 66.2787 62.4702H65.8561C65.6448 62.4702 65.5039 62.2943 65.4687 62.0832C65.2574 60.5352 63.6022 59.4798 60.9961 59.4798C58.3196 59.4798 56.8757 60.6408 56.8757 62.2591C56.8757 64.1941 58.9183 64.8626 61.3483 65.6014C63.743 66.3402 66.8774 67.2549 66.8774 70.0695C66.8774 72.4266 64.6939 73.9746 61.3835 73.9746C58.1787 73.9394 55.784 72.4618 55.6079 70.3157Z" fill="white"/>
<path d="M55.6079 70.3157C55.5727 70.1046 55.784 69.8584 55.9953 69.8936H56.3122C56.5587 69.9287 56.6996 70.0695 56.6996 70.2806C56.9461 71.7934 58.6718 72.884 61.3835 72.884C64.1657 72.884 65.68 71.723 65.68 70.1046C65.68 68.1345 63.567 67.466 61.0313 66.692C58.6013 65.9532 55.6783 65.0385 55.6783 62.3295C55.6783 59.9723 57.7561 58.4243 60.9961 58.4243C64.1304 58.4243 66.4196 59.902 66.5956 62.048C66.6309 62.2239 66.4548 62.4702 66.2787 62.4702H65.8561C65.6448 62.4702 65.5039 62.2943 65.4687 62.0832C65.2574 60.5352 63.6022 59.4798 60.9961 59.4798C58.3196 59.4798 56.8757 60.6408 56.8757 62.2591C56.8757 64.1941 58.9183 64.8626 61.3483 65.6014C63.743 66.3402 66.8774 67.2549 66.8774 70.0695C66.8774 72.4266 64.6939 73.9746 61.3835 73.9746C58.1787 73.9394 55.784 72.4618 55.6079 70.3157Z" stroke="white" stroke-width="1.119" stroke-miterlimit="10"/>
<path d="M71.6671 73.306C71.6671 73.4819 71.5262 73.6578 71.3149 73.6578H70.8571C70.681 73.6578 70.5049 73.5171 70.5049 73.306V59.0222C70.5049 58.8463 70.6458 58.6704 70.8571 58.6704H71.2445C71.4558 58.6704 71.6671 58.7759 71.7727 58.987L78.0061 69.5415C78.0766 69.6471 78.2175 69.6471 78.2879 69.5415L84.5213 58.987C84.627 58.8111 84.8383 58.6704 85.0496 58.6704H85.437C85.6131 58.6704 85.7891 58.8111 85.7891 59.0222V73.306C85.7891 73.4819 85.6483 73.6578 85.437 73.6578H84.9791C84.8031 73.6578 84.627 73.5171 84.627 73.306V61.0979C84.627 61.0275 84.5213 60.9924 84.4861 61.0627L78.7105 70.8432C78.6048 71.0192 78.3935 71.1247 78.1822 71.1247H78.0766C77.8653 71.1247 77.654 71.0192 77.5483 70.8432L71.7727 61.0979C71.7375 61.0275 71.6318 61.0627 71.6318 61.1331V73.306H71.6671Z" fill="white"/>
<path d="M71.6671 73.306C71.6671 73.4819 71.5262 73.6578 71.3149 73.6578H70.8571C70.681 73.6578 70.5049 73.5171 70.5049 73.306V59.0222C70.5049 58.8463 70.6458 58.6704 70.8571 58.6704H71.2445C71.4558 58.6704 71.6671 58.7759 71.7727 58.987L78.0061 69.5415C78.0766 69.6471 78.2175 69.6471 78.2879 69.5415L84.5213 58.987C84.627 58.8111 84.8383 58.6704 85.0496 58.6704H85.437C85.6131 58.6704 85.7891 58.8111 85.7891 59.0222V73.306C85.7891 73.4819 85.6483 73.6578 85.437 73.6578H84.9791C84.8031 73.6578 84.627 73.5171 84.627 73.306V61.0979C84.627 61.0275 84.5213 60.9924 84.4861 61.0627L78.7105 70.8432C78.6048 71.0192 78.3935 71.1247 78.1822 71.1247H78.0766C77.8653 71.1247 77.654 71.0192 77.5483 70.8432L71.7727 61.0979C71.7375 61.0275 71.6318 61.0627 71.6318 61.1331V73.306H71.6671Z" stroke="white" stroke-width="1.119" stroke-miterlimit="10"/>
<path d="M96.1429 60.1481C96.0725 60.0425 95.9668 60.0425 95.8964 60.1481L91.9169 68.9435C91.8464 69.0491 91.9521 69.1898 92.0577 69.1898H99.9464C100.087 69.1898 100.157 69.0491 100.087 68.9435L96.1429 60.1481ZM95.2273 58.9519C95.3329 58.776 95.509 58.6353 95.7203 58.6353H96.2486C96.4599 58.6353 96.636 58.776 96.7416 58.9519L103.327 73.306C103.397 73.4468 103.292 73.6227 103.151 73.6227H102.587C102.376 73.6227 102.2 73.482 102.094 73.306L100.791 70.4915C100.721 70.3508 100.545 70.2452 100.404 70.2452H91.5647C91.4238 70.2452 91.2477 70.3508 91.1773 70.4915L89.9095 73.306C89.839 73.482 89.6277 73.6227 89.4164 73.6227H88.853C88.6769 73.6227 88.5712 73.4468 88.6769 73.306L95.2273 58.9519Z" fill="white"/>
<path d="M96.1429 60.1481C96.0725 60.0425 95.9668 60.0425 95.8964 60.1481L91.9169 68.9435C91.8464 69.0491 91.9521 69.1898 92.0577 69.1898H99.9464C100.087 69.1898 100.157 69.0491 100.087 68.9435L96.1429 60.1481ZM95.2273 58.9519C95.3329 58.776 95.509 58.6353 95.7203 58.6353H96.2486C96.4599 58.6353 96.636 58.776 96.7416 58.9519L103.327 73.306C103.397 73.4468 103.292 73.6227 103.151 73.6227H102.587C102.376 73.6227 102.2 73.482 102.094 73.306L100.791 70.4915C100.721 70.3508 100.545 70.2452 100.404 70.2452H91.5647C91.4238 70.2452 91.2477 70.3508 91.1773 70.4915L89.9095 73.306C89.839 73.482 89.6277 73.6227 89.4164 73.6227H88.853C88.6769 73.6227 88.5712 73.4468 88.6769 73.306L95.2273 58.9519Z" stroke="white" stroke-width="1.119" stroke-miterlimit="10"/>
<path d="M112.871 59.7258H107.694C107.553 59.7258 107.412 59.8314 107.412 60.0073V67.0084C107.412 67.1492 107.518 67.2899 107.694 67.2899H112.871C115.477 67.2899 116.921 65.5308 116.921 63.5254C116.921 61.5201 115.477 59.7258 112.871 59.7258ZM106.321 59.0222C106.321 58.8463 106.461 58.6704 106.673 58.6704H112.941C116.181 58.6704 118.048 60.8868 118.048 63.4903C118.048 65.5308 116.921 67.3251 114.878 68.0287C114.773 68.0639 114.702 68.2046 114.773 68.3453L118.365 73.3411C118.435 73.4819 118.365 73.6226 118.224 73.6226H117.52C117.308 73.6226 117.097 73.5171 116.991 73.3411L113.54 68.4861C113.434 68.3805 113.364 68.3453 113.188 68.3453H112.941H107.729C107.588 68.3453 107.448 68.4509 107.448 68.6268V73.306C107.448 73.4819 107.307 73.6578 107.095 73.6578H106.638C106.461 73.6578 106.285 73.5171 106.285 73.306V59.0222H106.321Z" fill="white"/>
<path d="M112.871 59.7258H107.694C107.553 59.7258 107.412 59.8314 107.412 60.0073V67.0084C107.412 67.1492 107.518 67.2899 107.694 67.2899H112.871C115.477 67.2899 116.921 65.5308 116.921 63.5254C116.921 61.5201 115.477 59.7258 112.871 59.7258ZM106.321 59.0222C106.321 58.8463 106.461 58.6704 106.673 58.6704H112.941C116.181 58.6704 118.048 60.8868 118.048 63.4903C118.048 65.5308 116.921 67.3251 114.878 68.0287C114.773 68.0639 114.702 68.2046 114.773 68.3453L118.365 73.3411C118.435 73.4819 118.365 73.6226 118.224 73.6226H117.52C117.308 73.6226 117.097 73.5171 116.991 73.3411L113.54 68.4861C113.434 68.3805 113.364 68.3453 113.188 68.3453H112.941H107.729C107.588 68.3453 107.448 68.4509 107.448 68.6268V73.306C107.448 73.4819 107.307 73.6578 107.095 73.6578H106.638C106.461 73.6578 106.285 73.5171 106.285 73.306V59.0222H106.321Z" stroke="white" stroke-width="1.119" stroke-miterlimit="10"/>
<path d="M120.091 59.7611C119.914 59.7611 119.738 59.6204 119.738 59.4093V58.9871C119.738 58.8112 119.879 58.6353 120.091 58.6353H131.36C131.536 58.6353 131.712 58.776 131.712 58.9871V59.4093C131.712 59.5852 131.571 59.7611 131.36 59.7611H126.57C126.43 59.7611 126.289 59.8666 126.289 60.0425V73.306C126.289 73.482 126.148 73.6579 125.937 73.6579H125.479C125.303 73.6579 125.127 73.5171 125.127 73.306V60.0425C125.127 59.9018 125.021 59.7611 124.845 59.7611H120.091Z" fill="white"/>
<path d="M120.091 59.7611C119.914 59.7611 119.738 59.6204 119.738 59.4093V58.9871C119.738 58.8112 119.879 58.6353 120.091 58.6353H131.36C131.536 58.6353 131.712 58.776 131.712 58.9871V59.4093C131.712 59.5852 131.571 59.7611 131.36 59.7611H126.57C126.43 59.7611 126.289 59.8666 126.289 60.0425V73.306C126.289 73.482 126.148 73.6579 125.937 73.6579H125.479C125.303 73.6579 125.127 73.5171 125.127 73.306V60.0425C125.127 59.9018 125.021 59.7611 124.845 59.7611H120.091Z" stroke="white" stroke-width="1.119" stroke-miterlimit="10"/>
<path d="M142.066 66.516H136.149C136.008 66.516 135.868 66.6215 135.868 66.7974V72.321C135.868 72.4617 135.973 72.6024 136.149 72.6024H142.066C144.108 72.6024 145.376 71.16 145.376 69.5416C145.376 67.9584 144.108 66.516 142.066 66.516ZM141.432 59.7259H136.114C135.973 59.7259 135.832 59.8315 135.832 60.0074V65.3198C135.832 65.4605 135.938 65.6013 136.114 65.6013H141.714C143.545 65.6013 144.707 64.194 144.707 62.6812C144.742 61.1332 143.615 59.7259 141.432 59.7259ZM135.093 73.6227C134.917 73.6227 134.741 73.482 134.741 73.2709V58.9871C134.741 58.8112 134.881 58.6353 135.093 58.6353H141.502C144.39 58.6353 145.904 60.4295 145.904 62.5053C145.904 63.9477 145.13 65.2143 143.897 65.8475C143.791 65.9179 143.791 66.0234 143.897 66.0234C145.517 66.6215 146.538 67.9936 146.538 69.612C146.538 71.7581 144.813 73.6227 142.171 73.6227H135.093Z" fill="white"/>
<path d="M142.066 66.516H136.149C136.008 66.516 135.868 66.6215 135.868 66.7974V72.321C135.868 72.4617 135.973 72.6024 136.149 72.6024H142.066C144.108 72.6024 145.376 71.16 145.376 69.5416C145.376 67.9584 144.108 66.516 142.066 66.516ZM141.432 59.7259H136.114C135.973 59.7259 135.832 59.8315 135.832 60.0074V65.3198C135.832 65.4605 135.938 65.6013 136.114 65.6013H141.714C143.545 65.6013 144.707 64.194 144.707 62.6812C144.742 61.1332 143.615 59.7259 141.432 59.7259ZM135.093 73.6227C134.917 73.6227 134.741 73.482 134.741 73.2709V58.9871C134.741 58.8112 134.881 58.6353 135.093 58.6353H141.502C144.39 58.6353 145.904 60.4295 145.904 62.5053C145.904 63.9477 145.13 65.2143 143.897 65.8475C143.791 65.9179 143.791 66.0234 143.897 66.0234C145.517 66.6215 146.538 67.9936 146.538 69.612C146.538 71.7581 144.813 73.6227 142.171 73.6227H135.093Z" stroke="white" stroke-width="1.119" stroke-miterlimit="10"/>
<path d="M161.471 59.0222C161.471 58.8463 161.612 58.6704 161.823 58.6704H162.281C162.457 58.6704 162.633 58.8111 162.633 59.0222V67.9935C162.633 71.371 160.449 73.9392 156.364 73.9392C152.279 73.9392 150.096 71.3358 150.096 67.9935V59.0222C150.096 58.8463 150.236 58.6704 150.448 58.6704H150.906C151.082 58.6704 151.258 58.8111 151.258 59.0222V67.9232C151.258 70.7377 153.054 72.8134 156.399 72.8134C159.745 72.8134 161.541 70.7729 161.541 67.9232V59.0222H161.471Z" fill="white"/>
<path d="M161.471 59.0222C161.471 58.8463 161.612 58.6704 161.823 58.6704H162.281C162.457 58.6704 162.633 58.8111 162.633 59.0222V67.9935C162.633 71.371 160.449 73.9392 156.364 73.9392C152.279 73.9392 150.096 71.3358 150.096 67.9935V59.0222C150.096 58.8463 150.236 58.6704 150.448 58.6704H150.906C151.082 58.6704 151.258 58.8111 151.258 59.0222V67.9232C151.258 70.7377 153.054 72.8134 156.399 72.8134C159.745 72.8134 161.541 70.7729 161.541 67.9232V59.0222H161.471Z" stroke="white" stroke-width="1.119" stroke-miterlimit="10"/>
<path d="M167.07 59.0222C167.07 58.8463 167.211 58.6704 167.422 58.6704H167.88C168.056 58.6704 168.232 58.8111 168.232 59.0222V73.306C168.232 73.4819 168.092 73.6578 167.88 73.6578H167.422C167.246 73.6578 167.07 73.5171 167.07 73.306V59.0222Z" fill="white"/>
<path d="M167.07 59.0222C167.07 58.8463 167.211 58.6704 167.422 58.6704H167.88C168.056 58.6704 168.232 58.8111 168.232 59.0222V73.306C168.232 73.4819 168.092 73.6578 167.88 73.6578H167.422C167.246 73.6578 167.07 73.5171 167.07 73.306V59.0222Z" stroke="white" stroke-width="1.119" stroke-miterlimit="10"/>
<path d="M173.233 73.6227C173.057 73.6227 172.881 73.482 172.881 73.2709V58.9871C172.881 58.8112 173.022 58.6353 173.233 58.6353H173.691C173.867 58.6353 174.043 58.776 174.043 58.9871V72.2154C174.043 72.3561 174.149 72.4969 174.325 72.4969H182.39C182.566 72.4969 182.742 72.6376 182.742 72.8487V73.2709C182.742 73.4468 182.601 73.6227 182.39 73.6227H173.233Z" fill="white"/>
<path d="M173.233 73.6227C173.057 73.6227 172.881 73.482 172.881 73.2709V58.9871C172.881 58.8112 173.022 58.6353 173.233 58.6353H173.691C173.867 58.6353 174.043 58.776 174.043 58.9871V72.2154C174.043 72.3561 174.149 72.4969 174.325 72.4969H182.39C182.566 72.4969 182.742 72.6376 182.742 72.8487V73.2709C182.742 73.4468 182.601 73.6227 182.39 73.6227H173.233Z" stroke="white" stroke-width="1.119" stroke-miterlimit="10"/>
<path d="M191.652 59.7611H187.249C187.109 59.7611 186.968 59.8666 186.968 60.0425V72.2506C186.968 72.3913 187.073 72.5321 187.249 72.5321H191.652C195.455 72.5321 197.568 69.7879 197.568 66.1642C197.533 62.5053 195.42 59.7611 191.652 59.7611ZM186.193 73.6227C186.017 73.6227 185.841 73.482 185.841 73.2709V58.9871C185.841 58.8112 185.982 58.6353 186.193 58.6353H191.722C196.265 58.6353 198.695 61.9424 198.695 66.129C198.695 70.3156 196.265 73.6227 191.722 73.6227H186.193Z" fill="white"/>
<path d="M191.652 59.7611H187.249C187.109 59.7611 186.968 59.8666 186.968 60.0425V72.2506C186.968 72.3913 187.073 72.5321 187.249 72.5321H191.652C195.455 72.5321 197.568 69.7879 197.568 66.1642C197.533 62.5053 195.42 59.7611 191.652 59.7611ZM186.193 73.6227C186.017 73.6227 185.841 73.482 185.841 73.2709V58.9871C185.841 58.8112 185.982 58.6353 186.193 58.6353H191.722C196.265 58.6353 198.695 61.9424 198.695 66.129C198.695 70.3156 196.265 73.6227 191.722 73.6227H186.193Z" stroke="white" stroke-width="1.119" stroke-miterlimit="10"/>
<path d="M202.393 59.0222C202.393 58.8463 202.534 58.6704 202.745 58.6704H203.203C203.379 58.6704 203.555 58.8111 203.555 59.0222V73.306C203.555 73.4819 203.414 73.6578 203.203 73.6578H202.745C202.569 73.6578 202.393 73.5171 202.393 73.306V59.0222Z" fill="white"/>
<path d="M202.393 59.0222C202.393 58.8463 202.534 58.6704 202.745 58.6704H203.203C203.379 58.6704 203.555 58.8111 203.555 59.0222V73.306C203.555 73.4819 203.414 73.6578 203.203 73.6578H202.745C202.569 73.6578 202.393 73.5171 202.393 73.306V59.0222Z" stroke="white" stroke-width="1.119" stroke-miterlimit="10"/>
<path d="M209.331 73.306C209.331 73.4819 209.19 73.6578 208.978 73.6578H208.521C208.344 73.6578 208.168 73.5171 208.168 73.306V59.0222C208.168 58.8463 208.309 58.6704 208.521 58.6704H208.838C209.049 58.6704 209.26 58.7759 209.401 58.9518L219.403 71.5117C219.473 71.5821 219.579 71.5469 219.579 71.4413V59.0222C219.579 58.8463 219.72 58.6704 219.931 58.6704H220.389C220.565 58.6704 220.741 58.8111 220.741 59.0222V73.306C220.741 73.4819 220.6 73.6578 220.389 73.6578H220.072C219.861 73.6578 219.649 73.5522 219.508 73.3763L209.507 60.8516C209.436 60.7813 209.331 60.8165 209.331 60.922V73.306Z" fill="white"/>
<path d="M209.331 73.306C209.331 73.4819 209.19 73.6578 208.978 73.6578H208.521C208.344 73.6578 208.168 73.5171 208.168 73.306V59.0222C208.168 58.8463 208.309 58.6704 208.521 58.6704H208.838C209.049 58.6704 209.26 58.7759 209.401 58.9518L219.403 71.5117C219.473 71.5821 219.579 71.5469 219.579 71.4413V59.0222C219.579 58.8463 219.72 58.6704 219.931 58.6704H220.389C220.565 58.6704 220.741 58.8111 220.741 59.0222V73.306C220.741 73.4819 220.6 73.6578 220.389 73.6578H220.072C219.861 73.6578 219.649 73.5522 219.508 73.3763L209.507 60.8516C209.436 60.7813 209.331 60.8165 209.331 60.922V73.306Z" stroke="white" stroke-width="1.119" stroke-miterlimit="10"/>
<path d="M232.644 66.9383C232.468 66.9383 232.292 66.7976 232.292 66.5865V66.2699C232.292 66.094 232.433 65.918 232.644 65.918H238.49C238.667 65.918 238.843 66.0588 238.843 66.2699V73.271C238.843 73.4469 238.702 73.6228 238.49 73.6228H238.209C238.033 73.6228 237.857 73.4821 237.857 73.271V71.7934C237.857 71.6878 237.821 71.4416 237.821 71.336L237.786 71.3008C237.786 71.2305 237.68 71.1953 237.645 71.2657C236.413 72.9192 234.335 73.9395 232.081 73.9395C227.749 73.9395 224.263 70.4565 224.263 66.1643C224.263 61.8722 227.749 58.3892 232.081 58.3892C234.511 58.3892 236.694 59.515 238.138 61.2741C238.244 61.4148 238.209 61.6259 238.068 61.7314L237.716 61.9777C237.575 62.0832 237.364 62.0832 237.223 61.9073C235.99 60.4297 234.159 59.4798 232.116 59.4798C228.454 59.4798 225.46 62.4702 225.46 66.1291C225.46 69.788 228.454 72.7785 232.116 72.7785C234.405 72.7785 236.413 71.6175 237.645 69.788C237.716 69.6473 237.786 69.4714 237.786 69.2955V67.1494C237.786 67.0087 237.68 66.868 237.504 66.868H232.644V66.9383Z" fill="white"/>
<path d="M232.644 66.9383C232.468 66.9383 232.292 66.7976 232.292 66.5865V66.2699C232.292 66.094 232.433 65.918 232.644 65.918H238.49C238.667 65.918 238.843 66.0588 238.843 66.2699V73.271C238.843 73.4469 238.702 73.6228 238.49 73.6228H238.209C238.033 73.6228 237.857 73.4821 237.857 73.271V71.7934C237.857 71.6878 237.821 71.4416 237.821 71.336L237.786 71.3008C237.786 71.2305 237.68 71.1953 237.645 71.2657C236.413 72.9192 234.335 73.9395 232.081 73.9395C227.749 73.9395 224.263 70.4565 224.263 66.1643C224.263 61.8722 227.749 58.3892 232.081 58.3892C234.511 58.3892 236.694 59.515 238.138 61.2741C238.244 61.4148 238.209 61.6259 238.068 61.7314L237.716 61.9777C237.575 62.0832 237.364 62.0832 237.223 61.9073C235.99 60.4297 234.159 59.4798 232.116 59.4798C228.454 59.4798 225.46 62.4702 225.46 66.1291C225.46 69.788 228.454 72.7785 232.116 72.7785C234.405 72.7785 236.413 71.6175 237.645 69.788C237.716 69.6473 237.786 69.4714 237.786 69.2955V67.1494C237.786 67.0087 237.68 66.868 237.504 66.868H232.644V66.9383Z" stroke="white" stroke-width="1.119" stroke-miterlimit="10"/>
<path d="M241.73 70.3157C241.695 70.1046 241.907 69.8584 242.118 69.8936H242.435C242.681 69.9287 242.822 70.0695 242.822 70.2806C243.069 71.7934 244.794 72.884 247.506 72.884C250.288 72.884 251.803 71.723 251.803 70.1046C251.803 68.1345 249.69 67.466 247.154 66.692C244.724 65.9532 241.801 65.0385 241.801 62.3295C241.801 59.9723 243.879 58.4243 247.119 58.4243C250.253 58.4243 252.542 59.902 252.718 62.048C252.753 62.2239 252.577 62.4702 252.401 62.4702H251.979C251.767 62.4702 251.627 62.2943 251.591 62.0832C251.38 60.5352 249.725 59.4798 247.119 59.4798C244.442 59.4798 242.998 60.6408 242.998 62.2591C242.998 64.1941 245.041 64.8626 247.471 65.6014C249.866 66.3402 253 67.2549 253 70.0695C253 72.4266 250.817 73.9746 247.506 73.9746C244.301 73.9394 241.907 72.4618 241.73 70.3157Z" fill="white"/>
<path d="M241.73 70.3157C241.695 70.1046 241.907 69.8584 242.118 69.8936H242.435C242.681 69.9287 242.822 70.0695 242.822 70.2806C243.069 71.7934 244.794 72.884 247.506 72.884C250.288 72.884 251.803 71.723 251.803 70.1046C251.803 68.1345 249.69 67.466 247.154 66.692C244.724 65.9532 241.801 65.0385 241.801 62.3295C241.801 59.9723 243.879 58.4243 247.119 58.4243C250.253 58.4243 252.542 59.902 252.718 62.048C252.753 62.2239 252.577 62.4702 252.401 62.4702H251.979C251.767 62.4702 251.627 62.2943 251.591 62.0832C251.38 60.5352 249.725 59.4798 247.119 59.4798C244.442 59.4798 242.998 60.6408 242.998 62.2591C242.998 64.1941 245.041 64.8626 247.471 65.6014C249.866 66.3402 253 67.2549 253 70.0695C253 72.4266 250.817 73.9746 247.506 73.9746C244.301 73.9394 241.907 72.4618 241.73 70.3157Z" stroke="white" stroke-width="1.119" stroke-miterlimit="10"/>
<path d="M56.1009 53.0765C55.8544 53.0765 55.6431 52.8654 55.6431 52.6191V38.265C55.6431 38.0187 55.8544 37.8076 56.1009 37.8076H66.9125C67.1591 37.8076 67.3704 38.0187 67.3704 38.265V41.1147C67.3704 41.361 67.1591 41.5721 66.9125 41.5721H59.9396C59.7283 41.5721 59.5522 41.748 59.5522 41.9591V43.3664C59.5522 43.5774 59.7283 43.7534 59.9396 43.7534H65.5039C65.7504 43.7534 65.9617 43.9644 65.9617 44.2107V46.8142C65.9617 47.0604 65.7504 47.2715 65.5039 47.2715H59.9396C59.7283 47.2715 59.5522 47.4474 59.5522 47.6585V48.8195C59.5522 49.0306 59.7283 49.2065 59.9396 49.2065H66.9125C67.1591 49.2065 67.3704 49.4176 67.3704 49.6639V52.5136C67.3704 52.7599 67.1591 52.971 66.9125 52.971H56.1009V53.0765Z" fill="white"/>
<path d="M77.9354 46.8493H74.4137C74.2024 46.8493 74.0263 47.0253 74.0263 47.2363V49.1362C74.0263 49.3472 74.2024 49.5232 74.4137 49.5232H77.9354C78.9919 49.5232 79.3793 48.9602 79.3793 48.1511C79.3793 47.3771 78.9919 46.8493 77.9354 46.8493ZM77.4423 41.361H74.3785C74.1671 41.361 73.9911 41.5369 73.9911 41.748V43.4015C73.9911 43.6126 74.1671 43.7885 74.3785 43.7885H77.231C78.2876 43.7885 78.6749 43.296 78.6749 42.5572C78.7102 41.8535 78.2876 41.361 77.4423 41.361ZM70.5398 53.0765C70.2933 53.0765 70.082 52.8654 70.082 52.6191V38.265C70.082 38.0187 70.2933 37.8076 70.5398 37.8076H77.6889C80.9993 37.8076 82.6545 39.6019 82.6545 42.0295C82.6545 43.4367 82.0558 44.3866 81.1401 45.0551C80.9993 45.1606 80.9993 45.3365 81.1754 45.4069C82.5136 46.0402 83.3588 47.166 83.3588 48.7843C83.3588 51.3174 81.4571 53.1117 78.358 53.1117H70.5398V53.0765Z" fill="white"/>
<path d="M93.6776 46.8493H90.1559C89.9446 46.8493 89.7685 47.0253 89.7685 47.2363V49.1362C89.7685 49.3472 89.9446 49.5232 90.1559 49.5232H93.6776C94.7341 49.5232 95.1215 48.9602 95.1215 48.1511C95.1215 47.3771 94.7341 46.8493 93.6776 46.8493ZM93.1846 41.361H90.1207C89.9094 41.361 89.7333 41.5369 89.7333 41.748V43.4015C89.7333 43.6126 89.9094 43.7885 90.1207 43.7885H92.9733C94.0298 43.7885 94.4172 43.296 94.4172 42.5572C94.4172 41.8535 94.0298 41.361 93.1846 41.361ZM86.282 53.0765C86.0355 53.0765 85.8242 52.8654 85.8242 52.6191V38.265C85.8242 38.0187 86.0355 37.8076 86.282 37.8076H93.4311C96.7415 37.8076 98.3967 39.6019 98.3967 42.0295C98.3967 43.4367 97.798 44.3866 96.8824 45.0551C96.7415 45.1606 96.7415 45.3365 96.9176 45.4069C98.2559 46.0402 99.1011 47.166 99.1011 48.7843C99.1011 51.3174 97.2346 53.1117 94.1002 53.1117H86.282V53.0765Z" fill="white"/>
<path d="M46.7331 77.1405C45.571 77.1405 44.6553 76.1906 44.6553 75.0647C44.6553 74.2556 43.951 73.5519 43.141 73.5519H5.70518C2.53563 73.5519 0 71.0188 0 67.8877V38.5109C0 35.3798 2.53563 32.8115 5.70518 32.8115C8.8395 32.8115 11.4104 35.3446 11.4104 38.5109V58.9867C11.4104 59.7959 12.1147 60.4995 12.9247 60.4995C13.7699 60.4995 14.439 59.8311 14.439 58.9867V44.9844C14.439 41.8532 16.9747 39.2849 20.1442 39.2849C23.3137 39.2849 25.8494 41.818 25.8494 44.9844V58.9867C25.8494 59.8311 26.5185 60.4995 27.3637 60.4995C28.2089 60.4995 28.8781 59.8311 28.8781 58.9867V14.7985C28.8781 14.0245 29.3007 13.2857 30.005 12.9338L54.8331 0.233252C55.467 -0.0833828 56.2066 -0.0833828 56.8052 0.268434L81.2107 13.9541C81.8094 14.2708 82.1968 14.8688 82.2672 15.5373L82.3377 16.3113C82.3377 16.3817 82.3377 16.452 82.3377 16.5576V30.8413C82.3377 32.0023 81.3868 32.9171 80.2599 32.9171C79.0977 32.9171 78.1821 31.9671 78.1821 30.8413V17.0853L55.7135 4.49024L33.0337 16.1002V58.9515C33.0337 62.0827 30.498 64.6509 27.3285 64.6509C24.1942 64.6509 21.6233 62.1179 21.6233 58.9515V44.9492C21.6233 44.1048 20.9542 43.4364 20.109 43.4364C19.2638 43.4364 18.5946 44.1048 18.5946 44.9492V58.9515C18.5946 62.0827 16.059 64.6509 12.8895 64.6509C10.0369 64.6509 7.64212 62.5049 7.25473 59.7607C7.21951 59.62 7.1843 59.4441 7.1843 59.2681V38.5109C7.1843 37.6666 6.51517 36.9981 5.66996 36.9981C4.82475 36.9981 4.15562 37.6666 4.15562 38.5109V67.8877C4.15562 68.732 4.82475 69.4005 5.66996 69.4005H43.1058C46.2401 69.4005 48.811 71.9336 48.811 75.0999C48.8462 76.2257 47.8953 77.1405 46.7331 77.1405Z" fill="white"/>
<path d="M55.5373 25.3535C54.3751 25.3535 53.4595 24.4036 53.4595 23.2778V3.08353C53.4595 1.92253 54.4103 1.00781 55.5373 1.00781C56.6994 1.00781 57.6151 1.95771 57.6151 3.08353V23.2426C57.6503 24.4036 56.6994 25.3535 55.5373 25.3535Z" fill="white"/>
</g>
<defs>
<clipPath id="clip0_469_666">
<rect width="254" height="78" fill="white"/>
</clipPath>
</defs>
</svg>
