<svg id="Layer_1" xmlns="http://www.w3.org/2000/svg" viewBox="0 0 999.46 400.47">
    <defs>
        <style>.cls-1{fill:#fff;}.cls-2{fill:#b9b9b9;}.cls-2,.cls-3,.cls-4{stroke:#fff;stroke-miterlimit:10;stroke-width:2.07px;}.cls-3{fill:#979797;}.cls-4{fill:#484848;}.cls-5{isolation:isolate;}</style>
    </defs>
    <g id="Laag_2">
        <g id="Layer_1-2">
            <path class="cls-1" d="M773.22,165.45c0-51,.25-101.93-.22-152.89-.09-9.67,3.49-12.63,13.92-12.49,32.57,.43,65.19,1,97.73,0,84.8101-2.47,117.51,59.21,111.64,114.93-2.77,26.37-13.12,49.9-37.25,66.75-5.88,4.11-4.13,8.25-2.57,13,13.7667,41.84,27.5134,83.6833,41.24,125.53,3.42,10.42,2.58,11.49-9.29,11.54-21.6,.09-43.21-.34-64.79,.19-9.49,.24-13.63-2.89-15.87-11.07-10.12-37-20.83-73.78-31.33-110.65-.36-1.27-.88-2.52-1.11-3.81-.87-5-3.68-7.54-9.7-6.84-6.37,.75-4.63,5.08-4.64,8.35-.1,36.82-.05,73.65-.07,110.48,0,12.77-.65,13.35-14.86,13.37-20.13,0-40.27-.28-60.4,.13-9.59,.19-12.65-3.09-12.6-11.62,.34-51.65,.17-103.28,.17-154.9Zm136.18-61.7c.06-25.53-14.7-38.31-41.59-36.43-5.16,.36-7,1.92-7,6.49,.16,19.65,.22,39.3,0,58.94-.07,5.15,2,6.65,7.56,7,26.6301,1.52,40.98-10.91,41.0301-36h0Z" />
            <path class="cls-1" d="M537.93,166c0-51.27,.21-102.55-.19-153.83-.07-9,2.85-12.37,13.06-12.08,38.38,1.08,76.83-1.54,115.2,1.73,50.78,4.33,88.78,38.68,89.94,84.34,1.3334,53.22,1.3334,106.4633,0,159.73-1.16,45.66-39.16,80-89.95,84.32-39.45,3.35-79,.81-118.48,1.62-8.89,.18-9.66-4.66-9.64-11,.13-51.6,.06-103.21,.06-154.83Zm87.49-1c0,30.25,.19,60.51-.15,90.75-.08,6.83,2,9.11,9.88,8.84,21.37-.74,33.58-10.23,33.85-30,.62-46.36,.62-92.7267,0-139.1-.28-19.47-12.2-28.08-33.84-28.27-7.73-.07-10,2.11-9.9,9,.3601,29.61,.1601,59.2,.1601,88.78Z" />
            <path class="cls-1" d="M297.15,166c0-51.32,.23-102.64-.21-154-.08-9.14,3.7-12,14.63-12,64.8,.3,129.61,.3,194.43,0,10.52,0,14.23,3,13.82,11.56-.7501,14.4603-.7501,28.9497,0,43.41,.54,9.4-3.07,12.77-14.93,12.57-33-.55-66,.16-99-.39-10.43-.18-12.9,2.7-12.54,10.66,.7,15.44,.49,30.93,.06,46.38-.17,6.07,2.39,8.08,9.71,8,17.29-.31,34.61,.16,51.91-.2,9-.19,12.1,2.63,11.9,9.86-.44,15.45-.59,30.93,.05,46.38,.34,8.49-3,11.88-13.75,11.54-16.88-.52-33.81,.06-50.7-.23-6.79-.11-9.21,1.76-9.09,7.37,.33,16.78,.43,33.56,0,50.33-.18,6.53,3.38,7.55,10.17,7.51,33.8-.18,67.62,.18,101.42-.24,10.68-.13,15.36,2.14,14.85,11.63-.83,15.43-.49,30.92-.11,46.37,.17,6.88-3.39,9.43-11.42,9.42-66.4133-.0667-132.8633-.0667-199.35,0-9.79,0-12-3.67-11.93-10.95,.2-51.7,.08-103.35,.08-154.98Z" />
            <g class="cls-5" transform="translate(30.16 382.56)">
                <g class="cls-5">
                    <path class="cls-1" d="M34.769,355.8555l5.0337,21.6953,6.0366-21.6953h3.9102l6.0498,21.7363,5.0347-21.7363h3.9658l-7.0171,26.7041h-3.7993l-6.1626-22.1416-6.1987,22.1416h-3.7998l-6.9805-26.7041h3.9272Z" />
                </g>
                <g class="cls-5">
                    <path class="cls-1" d="M82.7954,363.626c1.2886,.6494,2.2705,1.4883,2.9448,2.5186,.6509,.9814,1.084,2.127,1.3013,3.4355,.1924,.8965,.2891,2.3271,.2891,4.29h-14.1611c.0601,1.9805,.5229,3.5703,1.3887,4.7676,.8657,1.1963,2.2065,1.7949,4.022,1.7949,1.6958,0,3.0483-.5664,4.0586-1.6982,.5654-.6572,.9658-1.418,1.2017-2.2832h3.2173c-.0845,.7158-.3667,1.5127-.8452,2.3906-.479,.8789-1.0127,1.5967-1.6021,2.1543-.9863,.9697-2.207,1.624-3.6621,1.9639-.7822,.1934-1.666,.29-2.6523,.29-2.4087,0-4.4502-.8809-6.124-2.6445-1.6743-1.7637-2.5112-4.2324-2.5112-7.4082,0-3.127,.8433-5.665,2.5298-7.6162,1.686-1.9512,3.8901-2.9268,6.6123-2.9268,1.373,0,2.7036,.3242,3.9927,.9717Zm1.1719,7.6445c-.1323-1.418-.4385-2.5508-.9194-3.3994-.8892-1.5752-2.3735-2.3633-4.4521-2.3633-1.4902,0-2.7397,.543-3.7495,1.627-1.0093,1.085-1.5444,2.4639-1.604,4.1357h10.7251Z" />
                    <path class="cls-1" d="M94.9258,355.7637h3.1812v9.6895c.7178-.9326,1.5757-1.6445,2.5732-2.1357s2.0806-.7363,3.2485-.7363c2.4331,0,4.4072,.833,5.9219,2.5,1.5146,1.666,2.272,4.123,2.272,7.3711,0,3.0781-.748,5.6357-2.2446,7.6719-1.4961,2.0352-3.5708,3.0537-6.2227,3.0537-1.4844,0-2.7373-.3574-3.7593-1.0723-.6084-.4248-1.2593-1.1025-1.9526-2.0361v2.4902h-3.0176v-26.7959Zm12.5112,22.415c.8818-1.4062,1.3228-3.2598,1.3228-5.5625,0-2.0488-.4409-3.7451-1.3228-5.0908-.8813-1.3447-2.1797-2.0176-3.894-2.0176-1.4956,0-2.8057,.5518-3.9307,1.6543-1.1245,1.1035-1.687,2.9209-1.687,5.4541,0,1.8301,.231,3.3145,.6929,4.4531,.8633,2.1455,2.4746,3.2178,4.8335,3.2178,1.7754,0,3.104-.7021,3.9854-2.1084Z" />
                    <path class="cls-1" d="M130.3232,363.6904c.5796,.3633,1.2373,.999,1.9741,1.9082v-9.835h3.1445v26.7959h-2.9448v-2.709c-.7607,1.2002-1.6602,2.0664-2.6982,2.5996-1.0386,.5332-2.2275,.7998-3.5679,.7998-2.1606,0-4.0322-.9111-5.6138-2.7354s-2.3721-4.251-2.3721-7.2803c0-2.8359,.7212-5.293,2.1636-7.3721,1.4429-2.0781,3.5039-3.1172,6.1846-3.1172,1.4849,0,2.728,.3154,3.73,.9453Zm-7.3042,14.5967c.8804,1.4062,2.2915,2.1094,4.2329,2.1094,1.5068,0,2.7456-.6514,3.7163-1.9541s1.4561-3.1729,1.4561-5.6084c0-2.46-.5005-4.2812-1.501-5.4629-1.001-1.1816-2.2368-1.7725-3.708-1.7725-1.6401,0-2.9692,.6309-3.9883,1.8906-1.0186,1.2607-1.5278,3.1152-1.5278,5.5625,0,2.085,.4399,3.8301,1.3198,5.2354Z" />
                    <path class="cls-1" d="M156.0811,363.626c1.2886,.6494,2.2705,1.4883,2.9448,2.5186,.6509,.9814,1.084,2.127,1.3013,3.4355,.1924,.8965,.2891,2.3271,.2891,4.29h-14.1611c.0601,1.9805,.5229,3.5703,1.3887,4.7676,.8657,1.1963,2.2065,1.7949,4.022,1.7949,1.6958,0,3.0483-.5664,4.0586-1.6982,.5654-.6572,.9658-1.418,1.2017-2.2832h3.2173c-.0845,.7158-.3667,1.5127-.8452,2.3906-.479,.8789-1.0127,1.5967-1.6021,2.1543-.9863,.9697-2.207,1.624-3.6621,1.9639-.7822,.1934-1.666,.29-2.6523,.29-2.4087,0-4.4502-.8809-6.124-2.6445-1.6743-1.7637-2.5112-4.2324-2.5112-7.4082,0-3.127,.8433-5.665,2.5298-7.6162,1.686-1.9512,3.8901-2.9268,6.6123-2.9268,1.373,0,2.7036,.3242,3.9927,.9717Zm1.1719,7.6445c-.1323-1.418-.4385-2.5508-.9194-3.3994-.8892-1.5752-2.3735-2.3633-4.4521-2.3633-1.4902,0-2.7397,.543-3.7495,1.627-1.0093,1.085-1.5444,2.4639-1.604,4.1357h10.7251Z" />
                    <path class="cls-1" d="M170.0928,363.0898l5.1992,15.8525,5.4175-15.8525h3.5811l-7.3296,19.4697h-3.4868l-7.1807-19.4697h3.7993Z" />
                    <path class="cls-1" d="M202.8477,363.626c1.2886,.6494,2.2705,1.4883,2.9448,2.5186,.6509,.9814,1.084,2.127,1.3013,3.4355,.1924,.8965,.2891,2.3271,.2891,4.29h-14.1611c.0601,1.9805,.5229,3.5703,1.3887,4.7676,.8657,1.1963,2.2065,1.7949,4.022,1.7949,1.6958,0,3.0483-.5664,4.0586-1.6982,.5654-.6572,.9658-1.418,1.2017-2.2832h3.2173c-.0845,.7158-.3667,1.5127-.8452,2.3906-.479,.8789-1.0127,1.5967-1.6021,2.1543-.9863,.9697-2.207,1.624-3.6621,1.9639-.7822,.1934-1.666,.29-2.6523,.29-2.4087,0-4.4502-.8809-6.124-2.6445-1.6743-1.7637-2.5112-4.2324-2.5112-7.4082,0-3.127,.8433-5.665,2.5298-7.6162,1.686-1.9512,3.8901-2.9268,6.6123-2.9268,1.373,0,2.7036,.3242,3.9927,.9717Zm1.1719,7.6445c-.1323-1.418-.4385-2.5508-.9194-3.3994-.8892-1.5752-2.3735-2.3633-4.4521-2.3633-1.4902,0-2.7397,.543-3.7495,1.627-1.0093,1.085-1.5444,2.4639-1.604,4.1357h10.7251Z" />
                    <path class="cls-1" d="M215.3413,355.8555h3.272v26.7041h-3.272v-26.7041Z" />
                    <path class="cls-1" d="M241.3516,365.0332c1.7207,1.6709,2.5815,4.1289,2.5815,7.374,0,3.1357-.7588,5.7275-2.2749,7.7734-1.5161,2.0469-3.8687,3.0693-7.0576,3.0693-2.6602,0-4.772-.9043-6.3364-2.7148s-2.3462-4.2412-2.3462-7.292c0-3.2695,.8242-5.873,2.4727-7.8105s3.8628-2.9062,6.6431-2.9062c2.4907,0,4.5967,.8359,6.3179,2.5068Zm-2.0317,12.9395c.7969-1.6406,1.1953-3.4648,1.1953-5.4746,0-1.8154-.2876-3.292-.8628-4.4297-.9106-1.792-2.4805-2.6875-4.7095-2.6875-1.9775,0-3.415,.7627-4.314,2.2881s-1.3481,3.3652-1.3481,5.5195c0,2.0693,.4492,3.7949,1.3481,5.1748s2.3247,2.0693,4.2783,2.0693c2.1445,0,3.6157-.8203,4.4126-2.46Z" />
                    <path class="cls-1" d="M251.4004,363.1807h3.1992v2.582c.6562-.8848,1.373-1.5693,2.1509-2.0547,1.1055-.7266,2.4058-1.0908,3.9004-1.0908,2.2114,0,4.0889,.8457,5.6318,2.5361s2.3145,4.1055,2.3145,7.2441c0,4.2422-1.1133,7.2715-3.3394,9.0898-1.4116,1.1514-3.0542,1.7266-4.9277,1.7266-1.4722,0-2.707-.3213-3.7046-.9629-.584-.3643-1.2354-.9883-1.9531-1.873v9.9443h-3.272v-27.1416Zm12.311,15.2617c1.0151-1.2783,1.5229-3.1904,1.5229-5.7354,0-1.5518-.2251-2.8848-.6748-4-.8516-2.1445-2.4077-3.2168-4.6699-3.2168-2.2739,0-3.8306,1.1328-4.6694,3.3994-.4502,1.2119-.6748,2.751-.6748,4.6172,0,1.5029,.2246,2.7812,.6748,3.835,.8511,2.0127,2.4077,3.0186,4.6694,3.0186,1.5322,0,2.8062-.6396,3.8218-1.918Z" />
                    <path class="cls-1" d="M276.1016,363.0898h3.2358v2.7637c.7754-.957,1.4785-1.6543,2.1089-2.0908,1.0786-.7393,2.3022-1.1084,3.6719-1.1084,1.5513,0,2.7998,.3809,3.7451,1.1445,.5332,.4365,1.0181,1.0791,1.4541,1.9277,.7271-1.043,1.5815-1.8154,2.5635-2.3184,.9814-.5029,2.084-.7539,3.3086-.7539,2.6177,0,4.3989,.9453,5.3442,2.8359,.5093,1.0176,.7637,2.3867,.7637,4.1084v12.9609h-3.3994v-13.5254c0-1.2959-.3247-2.1865-.9727-2.6719-.6484-.4844-1.4395-.7275-2.3726-.7275-1.2847,0-2.3901,.4307-3.3174,1.291s-1.3906,2.2969-1.3906,4.3086v11.3252h-3.3267v-12.707c0-1.3203-.1577-2.2842-.4727-2.8906-.4971-.9082-1.4243-1.3633-2.7812-1.3633-1.2363,0-2.3604,.4795-3.3726,1.4365-1.0117,.957-1.5176,2.6904-1.5176,5.1992v10.3252h-3.2725v-19.4697Z" />
                    <path class="cls-1" d="M322.8633,363.626c1.2886,.6494,2.2705,1.4883,2.9448,2.5186,.6509,.9814,1.084,2.127,1.3013,3.4355,.1924,.8965,.2891,2.3271,.2891,4.29h-14.1611c.0601,1.9805,.5229,3.5703,1.3887,4.7676,.8657,1.1963,2.2065,1.7949,4.022,1.7949,1.6958,0,3.0483-.5664,4.0586-1.6982,.5654-.6572,.9658-1.418,1.2017-2.2832h3.2173c-.0845,.7158-.3667,1.5127-.8452,2.3906-.479,.8789-1.0127,1.5967-1.6021,2.1543-.9863,.9697-2.207,1.624-3.6621,1.9639-.7822,.1934-1.666,.29-2.6523,.29-2.4087,0-4.4502-.8809-6.124-2.6445-1.6743-1.7637-2.5112-4.2324-2.5112-7.4082,0-3.127,.8433-5.665,2.5298-7.6162,1.686-1.9512,3.8901-2.9268,6.6123-2.9268,1.373,0,2.7036,.3242,3.9927,.9717Zm1.1719,7.6445c-.1323-1.418-.4385-2.5508-.9194-3.3994-.8892-1.5752-2.3735-2.3633-4.4521-2.3633-1.4902,0-2.7397,.543-3.7495,1.627-1.0093,1.085-1.5444,2.4639-1.604,4.1357h10.7251Z" />
                    <path class="cls-1" d="M335.2661,363.0898h3.1089v2.7637c.9209-1.1396,1.8965-1.957,2.9268-2.4541,1.0298-.4971,2.1753-.7451,3.4355-.7451,2.7632,0,4.6294,.9629,5.5991,2.8896,.5332,1.0547,.7998,2.5635,.7998,4.5264v12.4893h-3.3267v-12.2705c0-1.1875-.1758-2.1455-.5273-2.8721-.5815-1.2119-1.6357-1.8184-3.1631-1.8184-.7754,0-1.4116,.0791-1.9087,.2363-.897,.2666-1.6846,.7998-2.3633,1.5996-.5454,.6426-.8999,1.3066-1.0635,1.9912s-.2451,1.6631-.2451,2.9355v10.1982h-3.2725v-19.4697Z" />
                    <path class="cls-1" d="M360.3491,357.6543h3.3081v5.4355h3.1089v2.6729h-3.1089v12.707c0,.6787,.2305,1.1328,.6909,1.3633,.2544,.1328,.6787,.2002,1.2725,.2002,.1577,0,.3271-.0049,.5093-.0127,.1816-.0078,.3936-.0283,.6362-.0605v2.5996c-.376,.1094-.7666,.1875-1.1729,.2363-.4058,.0479-.8452,.0723-1.3179,.0723-1.5269,0-2.563-.3906-3.1084-1.1719-.5454-.7822-.8179-1.7969-.8179-3.0449v-12.8887h-2.6362v-2.6729h2.6362v-5.4355Z" />
                    <path class="cls-1" d="M391.1548,382.5596h-3.1084v-27.0859h3.1084v27.0859Z" />
                    <path class="cls-1" d="M415.8159,355.8555h3.6538v11.0342h13.7251v-11.0342h3.6538v26.7041h-3.6538v-12.4893h-13.7251v12.4893h-3.6538v-26.7041Z" />
                    <path class="cls-1" d="M460.0049,365.0332c1.7207,1.6709,2.5815,4.1289,2.5815,7.374,0,3.1357-.7588,5.7275-2.2749,7.7734-1.5161,2.0469-3.8687,3.0693-7.0576,3.0693-2.6602,0-4.772-.9043-6.3364-2.7148s-2.3462-4.2412-2.3462-7.292c0-3.2695,.8242-5.873,2.4727-7.8105s3.8628-2.9062,6.6431-2.9062c2.4907,0,4.5967,.8359,6.3179,2.5068Zm-2.0317,12.9395c.7969-1.6406,1.1953-3.4648,1.1953-5.4746,0-1.8154-.2876-3.292-.8628-4.4297-.9106-1.792-2.4805-2.6875-4.7095-2.6875-1.9775,0-3.415,.7627-4.314,2.2881s-1.3481,3.3652-1.3481,5.5195c0,2.0693,.4492,3.7949,1.3481,5.1748s2.3247,2.0693,4.2783,2.0693c2.1445,0,3.6157-.8203,4.4126-2.46Z" />
                    <path class="cls-1" d="M472.272,376.4512c.0986,1.0908,.377,1.9277,.835,2.5088,.8408,1.0547,2.3008,1.582,4.3784,1.582,1.2368,0,2.3252-.2637,3.2656-.791,.9399-.5273,1.4102-1.3418,1.4102-2.4453,0-.8359-.376-1.4727-1.127-1.9082-.4805-.2666-1.4287-.5762-2.8452-.9277l-2.6416-.6543c-1.6875-.4121-2.9316-.8721-3.7319-1.3818-1.4287-.8838-2.1431-2.1084-2.1431-3.6719,0-1.8418,.6724-3.332,2.0171-4.4717,1.3447-1.1387,3.1533-1.709,5.4258-1.709,2.9722,0,5.1152,.8604,6.4292,2.5811,.8228,1.0908,1.2222,2.2666,1.1982,3.5273h-3.0903c-.0625-.7354-.3291-1.4043-.8003-2.0068-.769-.8555-2.103-1.2842-4.001-1.2842-1.2656,0-2.2236,.2363-2.875,.707s-.9771,1.0928-.9771,1.8652c0,.8457,.4277,1.5215,1.2842,2.0293,.4937,.3018,1.2222,.5674,2.1851,.7979l2.2041,.5273c2.3955,.5693,4.0005,1.1211,4.8159,1.6543,1.2725,.8359,1.9087,2.1514,1.9087,3.9443,0,1.7334-.666,3.2305-1.9971,4.4902-1.3315,1.2607-3.3589,1.8906-6.083,1.8906-2.9321,0-5.0088-.6572-6.2295-1.9727-1.2212-1.3145-1.8745-2.9414-1.9604-4.8809h3.145Z" />
                    <path class="cls-1" d="M493.3193,357.6543h3.3081v5.4355h3.1089v2.6729h-3.1089v12.707c0,.6787,.2305,1.1328,.6909,1.3633,.2544,.1328,.6787,.2002,1.2725,.2002,.1577,0,.3271-.0049,.5093-.0127,.1816-.0078,.3936-.0283,.6362-.0605v2.5996c-.376,.1094-.7666,.1875-1.1729,.2363-.4058,.0479-.8452,.0723-1.3179,.0723-1.5269,0-2.563-.3906-3.1084-1.1719-.5454-.7822-.8179-1.7969-.8179-3.0449v-12.8887h-2.6362v-2.6729h2.6362v-5.4355Z" />
                    <path class="cls-1" d="M506.7305,355.8555h3.3271v3.708h-3.3271v-3.708Zm0,7.3252h3.3271v19.3789h-3.3271v-19.3789Z" />
                    <path class="cls-1" d="M518.7256,363.0898h3.1084v2.7637c.9209-1.1396,1.8965-1.957,2.9268-2.4541s2.1758-.7451,3.4355-.7451c2.7637,0,4.6299,.9629,5.5996,2.8896,.5332,1.0547,.7998,2.5635,.7998,4.5264v12.4893h-3.3271v-12.2705c0-1.1875-.1758-2.1455-.5273-2.8721-.5811-1.2119-1.6357-1.8184-3.1631-1.8184-.7754,0-1.4111,.0791-1.9082,.2363-.8975,.2666-1.6846,.7998-2.3633,1.5996-.5459,.6426-.9004,1.3066-1.0635,1.9912-.1641,.6846-.2451,1.6631-.2451,2.9355v10.1982h-3.2725v-19.4697Z" />
                    <path class="cls-1" d="M553.9775,363.8721c.6152,.4238,1.2432,1.042,1.8828,1.8545v-2.4551h3.0176v17.7061c0,2.4727-.3623,4.4238-1.0869,5.8545-1.3525,2.6416-3.9072,3.9629-7.6631,3.9629-2.0898,0-3.8477-.4697-5.2725-1.4092-1.4258-.9395-2.2227-2.4092-2.3926-4.4082h3.3271c.1562,.8721,.4697,1.5449,.9395,2.0176,.7354,.7275,1.8926,1.0908,3.4717,1.0908,2.4951,0,4.1279-.8848,4.8994-2.6543,.458-1.042,.6689-2.9023,.6328-5.5811-.6523,.9941-1.4365,1.7334-2.3535,2.2178-.918,.4854-2.1309,.7275-3.6396,.7275-2.1006,0-3.9385-.748-5.5146-2.2451-1.5752-1.4961-2.3623-3.9717-2.3623-7.4258,0-3.2598,.793-5.8047,2.3809-7.6348s3.5039-2.7451,5.749-2.7451c1.5215,0,2.8496,.375,3.9844,1.127Zm.4004,3.5078c-.9893-1.1631-2.249-1.7451-3.7803-1.7451-2.291,0-3.8584,1.0791-4.7021,3.2363-.4463,1.1514-.6689,2.6602-.6689,4.5264,0,2.1934,.4424,3.8633,1.3291,5.0078,.8857,1.1455,2.0771,1.7188,3.5723,1.7188,2.3389,0,3.9844-1.0605,4.9365-3.1816,.5312-1.2002,.7959-2.5996,.7959-4.1992,0-2.4111-.4941-4.1992-1.4824-5.3633Z" />
                    <path class="cls-1" d="M584.9766,382.5596h-3.1084v-27.0859h3.1084v27.0859Z" />
                    <path class="cls-1" d="M609.71,355.8555h10.6738c3.624,0,6.4346,1.3027,8.4316,3.9082,1.7822,2.3516,2.6729,5.3623,2.6729,9.0342,0,2.8359-.5264,5.3994-1.5781,7.6904-1.8535,4.0479-5.041,6.0713-9.5615,6.0713h-10.6387v-26.7041Zm9.9648,23.6133c1.1963,0,2.1797-.127,2.9502-.3809,1.375-.4727,2.5-1.3818,3.3779-2.7275,.6982-1.0781,1.2021-2.46,1.5107-4.1445,.1777-1.0059,.2666-1.9385,.2666-2.7998,0-3.3086-.6436-5.877-1.9287-7.707-1.2861-1.8301-3.3564-2.7451-6.2129-2.7451h-6.2744v20.5049h6.3105Z" />
                    <path class="cls-1" d="M651.7451,363.626c1.2881,.6494,2.2695,1.4883,2.9443,2.5186,.6504,.9814,1.084,2.127,1.3008,3.4355,.1934,.8965,.2891,2.3271,.2891,4.29h-14.1611c.0605,1.9805,.5234,3.5703,1.3896,4.7676,.8652,1.1963,2.2061,1.7949,4.0215,1.7949,1.6953,0,3.0488-.5664,4.0586-1.6982,.5654-.6572,.9658-1.418,1.2012-2.2832h3.2178c-.085,.7158-.3662,1.5127-.8447,2.3906-.4795,.8789-1.0137,1.5967-1.6025,2.1543-.9863,.9697-2.207,1.624-3.6621,1.9639-.7822,.1934-1.666,.29-2.6523,.29-2.4082,0-4.4502-.8809-6.124-2.6445s-2.5107-4.2324-2.5107-7.4082c0-3.127,.8428-5.665,2.5293-7.6162,1.6855-1.9512,3.8896-2.9268,6.6123-2.9268,1.373,0,2.7041,.3242,3.9932,.9717Zm1.1719,7.6445c-.1328-1.418-.4395-2.5508-.9199-3.3994-.8896-1.5752-2.373-2.3633-4.4521-2.3633-1.4902,0-2.7402,.543-3.749,1.627-1.0098,1.085-1.5449,2.4639-1.6045,4.1357h10.7256Z" />
                    <path class="cls-1" d="M666.0928,376.4512c.0986,1.0908,.377,1.9277,.835,2.5088,.8408,1.0547,2.3008,1.582,4.3789,1.582,1.2363,0,2.3252-.2637,3.2646-.791,.9404-.5273,1.4111-1.3418,1.4111-2.4453,0-.8359-.376-1.4727-1.1279-1.9082-.4805-.2666-1.4287-.5762-2.8447-.9277l-2.6416-.6543c-1.6875-.4121-2.9316-.8721-3.7314-1.3818-1.4287-.8838-2.1436-2.1084-2.1436-3.6719,0-1.8418,.6729-3.332,2.0176-4.4717,1.3447-1.1387,3.1533-1.709,5.4248-1.709,2.9727,0,5.1162,.8604,6.4297,2.5811,.8232,1.0908,1.2227,2.2666,1.1982,3.5273h-3.0908c-.0615-.7354-.3281-1.4043-.7998-2.0068-.7695-.8555-2.1035-1.2842-4.001-1.2842-1.2656,0-2.2236,.2363-2.875,.707s-.9766,1.0928-.9766,1.8652c0,.8457,.4277,1.5215,1.2832,2.0293,.4941,.3018,1.2227,.5674,2.1855,.7979l2.2041,.5273c2.3955,.5693,4.001,1.1211,4.8154,1.6543,1.2725,.8359,1.9092,2.1514,1.9092,3.9443,0,1.7334-.666,3.2305-1.9971,4.4902-1.3311,1.2607-3.3584,1.8906-6.083,1.8906-2.9326,0-5.0088-.6572-6.2295-1.9727-1.2207-1.3145-1.875-2.9414-1.96-4.8809h3.1445Z" />
                    <path class="cls-1" d="M686.4854,355.8555h3.3271v3.708h-3.3271v-3.708Zm0,7.3252h3.3271v19.3789h-3.3271v-19.3789Z" />
                    <path class="cls-1" d="M709.3047,363.8721c.6152,.4238,1.2432,1.042,1.8828,1.8545v-2.4551h3.0176v17.7061c0,2.4727-.3623,4.4238-1.0869,5.8545-1.3525,2.6416-3.9072,3.9629-7.6641,3.9629-2.0889,0-3.8467-.4697-5.2725-1.4092-1.4248-.9395-2.2227-2.4092-2.3916-4.4082h3.3262c.1572,.8721,.4697,1.5449,.9404,2.0176,.7354,.7275,1.8926,1.0908,3.4717,1.0908,2.4951,0,4.1279-.8848,4.8994-2.6543,.458-1.042,.6689-2.9023,.6328-5.5811-.6523,.9941-1.4365,1.7334-2.3545,2.2178-.917,.4854-2.1309,.7275-3.6396,.7275-2.1006,0-3.9385-.748-5.5137-2.2451-1.5752-1.4961-2.3623-3.9717-2.3623-7.4258,0-3.2598,.793-5.8047,2.3809-7.6348,1.5869-1.8301,3.5039-2.7451,5.749-2.7451,1.5215,0,2.8486,.375,3.9844,1.127Zm.3994,3.5078c-.9883-1.1631-2.248-1.7451-3.7793-1.7451-2.291,0-3.8584,1.0791-4.7021,3.2363-.4463,1.1514-.6699,2.6602-.6699,4.5264,0,2.1934,.4434,3.8633,1.3301,5.0078,.8857,1.1455,2.0762,1.7188,3.5713,1.7188,2.3389,0,3.9854-1.0605,4.9375-3.1816,.5303-1.2002,.7959-2.5996,.7959-4.1992,0-2.4111-.4941-4.1992-1.4834-5.3633Z" />
                    <path class="cls-1" d="M722.9082,363.0898h3.1084v2.7637c.9209-1.1396,1.8965-1.957,2.9268-2.4541s2.1758-.7451,3.4365-.7451c2.7627,0,4.6289,.9629,5.5986,2.8896,.5332,1.0547,.7998,2.5635,.7998,4.5264v12.4893h-3.3262v-12.2705c0-1.1875-.1768-2.1455-.5273-2.8721-.582-1.2119-1.6367-1.8184-3.1631-1.8184-.7764,0-1.4121,.0791-1.9092,.2363-.8965,.2666-1.6846,.7998-2.3633,1.5996-.5449,.6426-.8994,1.3066-1.0635,1.9912-.1631,.6846-.2451,1.6631-.2451,2.9355v10.1982h-3.2725v-19.4697Z" />
                    <path class="cls-1" d="M764.7314,382.5596h-3.1084v-27.0859h3.1084v27.0859Z" />
                    <path class="cls-1" d="M789.4639,355.8555h10.6738c3.624,0,6.4346,1.3027,8.4316,3.9082,1.7822,2.3516,2.6729,5.3623,2.6729,9.0342,0,2.8359-.5264,5.3994-1.5781,7.6904-1.8535,4.0479-5.041,6.0713-9.5615,6.0713h-10.6387v-26.7041Zm9.9648,23.6133c1.1963,0,2.1797-.127,2.9502-.3809,1.375-.4727,2.5-1.3818,3.3779-2.7275,.6982-1.0781,1.2021-2.46,1.5107-4.1445,.1777-1.0059,.2666-1.9385,.2666-2.7998,0-3.3086-.6436-5.877-1.9287-7.707-1.2861-1.8301-3.3564-2.7451-6.2129-2.7451h-6.2744v20.5049h6.3105Z" />
                    <path class="cls-1" d="M819.5645,363.0898h3.1084v3.3633c.2549-.6543,.8789-1.4512,1.873-2.3906,.9932-.9385,2.1387-1.4082,3.4355-1.4082,.0605,0,.1641,.0059,.3086,.0176,.1455,.0127,.3945,.0361,.7461,.0732v3.4531c-.1943-.0361-.373-.0596-.5361-.0723-.1641-.0117-.3428-.0186-.5371-.0186-1.6475,0-2.9141,.5303-3.7988,1.5908s-1.3271,2.2812-1.3271,3.6631v11.1982h-3.2725v-19.4697Z" />
                    <path class="cls-1" d="M838.8672,363.0898v12.9258c0,.9932,.1533,1.8057,.46,2.4355,.5664,1.1631,1.623,1.7451,3.1689,1.7451,2.2188,0,3.7295-1.0176,4.5322-3.0537,.4365-1.0908,.6553-2.5879,.6553-4.4902v-9.5625h3.2725v19.4697h-3.0908l.0371-2.8721c-.417,.7393-.9346,1.3633-1.5527,1.8721-1.2246,1.0186-2.7119,1.5273-4.46,1.5273-2.7227,0-4.5781-.9277-5.5645-2.7812-.5352-.9941-.8027-2.3213-.8027-3.9814v-13.2344h3.3447Z" />
                    <path class="cls-1" d="M859.9512,355.8555h3.1445v15.5039l8.3906-8.2695h4.1807l-7.4834,7.2393,7.9033,12.2305h-4.1807l-6.124-9.9072-2.6865,2.5996v7.3076h-3.1445v-26.7041Z" />
                    <path class="cls-1" d="M883.8799,363.0898l3.7441,15.3428,3.7998-15.3428h3.6719l3.8174,15.252,3.9814-15.252h3.2725l-5.6543,19.4697h-3.3994l-3.9629-15.0703-3.8359,15.0703h-3.3994l-5.6172-19.4697h3.582Z" />
                    <path class="cls-1" d="M924.9971,363.626c1.2881,.6494,2.2695,1.4883,2.9443,2.5186,.6504,.9814,1.084,2.127,1.3008,3.4355,.1934,.8965,.2891,2.3271,.2891,4.29h-14.1611c.0605,1.9805,.5234,3.5703,1.3896,4.7676,.8652,1.1963,2.2061,1.7949,4.0215,1.7949,1.6953,0,3.0488-.5664,4.0586-1.6982,.5654-.6572,.9658-1.418,1.2012-2.2832h3.2178c-.085,.7158-.3662,1.5127-.8447,2.3906-.4795,.8789-1.0137,1.5967-1.6025,2.1543-.9863,.9697-2.207,1.624-3.6621,1.9639-.7822,.1934-1.666,.29-2.6523,.29-2.4082,0-4.4502-.8809-6.124-2.6445s-2.5107-4.2324-2.5107-7.4082c0-3.127,.8428-5.665,2.5293-7.6162,1.6855-1.9512,3.8896-2.9268,6.6123-2.9268,1.373,0,2.7041,.3242,3.9932,.9717Zm1.1719,7.6445c-.1328-1.418-.4395-2.5508-.9199-3.3994-.8896-1.5752-2.373-2.3633-4.4521-2.3633-1.4902,0-2.7402,.543-3.749,1.627-1.0098,1.085-1.5449,2.4639-1.6045,4.1357h10.7256Z" />
                    <path class="cls-1" d="M937.4902,363.0898h3.1084v3.3633c.2549-.6543,.8789-1.4512,1.873-2.3906,.9932-.9385,2.1387-1.4082,3.4355-1.4082,.0605,0,.1641,.0059,.3086,.0176,.1455,.0127,.3945,.0361,.7461,.0732v3.4531c-.1943-.0361-.373-.0596-.5361-.0723-.1641-.0117-.3428-.0186-.5371-.0186-1.6475,0-2.9141,.5303-3.7988,1.5908s-1.3271,2.2812-1.3271,3.6631v11.1982h-3.2725v-19.4697Z" />
                    <path class="cls-1" d="M953.4473,355.8555h3.1445v15.5039l8.3906-8.2695h4.1807l-7.4834,7.2393,7.9033,12.2305h-4.1807l-6.124-9.9072-2.6865,2.5996v7.3076h-3.1445v-26.7041Z" />
                </g>
            </g>
            <path class="cls-2" d="M380.43,111.45c.63,.9,1.33,1.75,1.88,2.7,19.9533,34.5667,39.9133,69.1033,59.88,103.61,1.3587,1.8949,1.3587,4.4451,0,6.34-20.0933,34.6066-40.0933,69.2733-60,104-.8694,1.8912-2.8507,3.0147-4.92,2.79-40.2-.0733-80.4-.0733-120.6,0-2,0-3.29-.43-4.4-2.36-20.3533-35.4733-40.7767-70.9033-61.27-106.29-.1095-.2197-.2031-.4469-.28-.68,1.41-1.15,3.09-.64,4.65-.64,39.3333,0,78.6667,.0167,118,.05,3,0,4.61-1,6.07-3.6,9.58-16.86,19.33-33.61,29-50.4,10.68-18.5,21.3433-37.0067,31.99-55.52Z" />
            <path class="cls-2" d="M254.16,111c-4.33,5.56-7.32,11.94-10.85,18-13.67,23.4-27.16,46.9-40.71,70.37-3.32,5.76-6.58,11.56-9.93,17.31-.77,1.34-1.24,3-3,3.55-.34-.66-.64-1.34-1-2-20.0933-34.82-40.21-69.6667-60.35-104.54-1-1.75-1.45-3.07-.3-5,20.74-35.7933,41.43-71.6133,62.07-107.46l.95-.05c6.4067,11.2133,12.8233,22.4333,19.25,33.66,14.6133,25.4,29.2367,50.7867,43.87,76.16Z" />
            <path class="cls-4" d="M380.43,111.45c-10.6667,18.5133-21.3333,37.02-32,55.52-9.68,16.79-19.43,33.54-29,50.4-1.46,2.57-3,3.61-6.07,3.6-39.3333-.1067-78.6667-.1233-118-.05-1.56,0-3.24-.51-4.65,.64l-1.12-.81c-.0577-.1749-.0319-.3666,.07-.52,1.74-.55,2.21-2.21,3-3.55,3.35-5.75,6.61-11.55,9.93-17.31,13.55-23.47,27-47,40.71-70.37,3.53-6,6.52-12.42,10.85-18h62.67c-.118-.5418-.2785-1.0734-.48-1.59-12.42-21.5-24.84-42.9967-37.26-64.49-8.38-14.5467-16.7133-29.1167-25-43.71,20.4,0,40.8-.06,61.21-.19,2.34,0,2.83,1.63,3.66,3.06,15.0333,26,30.05,52,45.05,78,5,8.6667,10,17.3333,15,26,.58,1.09,1.54,2,1.43,3.37Z" />
            <path class="cls-3" d="M126.67,220.46c-1.2123,.1941-2.434,.3243-3.66,.39-18.56,0-37.12,0-55.69,.08-2.78,0-4.15-1.05-5.47-3.34C41.95,182.97,21.98,148.3933,1.94,113.86c-1.2052-1.7492-1.2052-4.0608,0-5.81,16-27.5933,31.9667-55.2033,47.9-82.83,4.16-7.28,8.43-14.54,12.59-21.85,.78-1.37,1.49-2.32,3.34-2.32,19.92,.09,39.85,.08,59.77,.11,.3678,.0451,.7298,.1289,1.08,.25-.58,1.22-1.07,2.49-1.74,3.65-19.7067,34.1533-39.4367,68.28-59.19,102.38-1.475,2.1002-1.475,4.8998,0,7,14.4267,24.7667,28.78,49.5833,43.06,74.45,6.02,10.49,11.94,21.04,17.92,31.57Z" />
            <path class="cls-4" d="M126.67,220.46c-6-10.53-11.9-21.08-17.94-31.56-14.3133-24.8533-28.6667-49.67-43.06-74.45-1.475-2.1002-1.475-4.8998,0-7C85.4767,73.35,105.2133,39.22,124.88,5.06c.67-1.16,1.16-2.43,1.74-3.65,.3413-.1319,.6972-.2226,1.06-.27l62.41,.09c-20.68,35.8467-41.3767,71.6533-62.09,107.42-1.15,2-.71,3.29,.3,5,20.16,34.8333,40.28,69.6867,60.36,104.56,.37,.64,.67,1.32,1,2-.1019,.1534-.1277,.3451-.07,.52-20.38,0-40.77,.0233-61.17,.07-.5928-.0574-1.1788-.1713-1.75-.34Z" />
            <path class="cls-3" d="M254.16,111c-14.62-25.3867-29.2433-50.78-43.87-76.18-6.44-11.2133-12.87-22.4267-19.29-33.64l63,.05c8.3333,14.5733,16.6667,29.1433,25,43.71,12.4,21.5133,24.82,43.01,37.26,64.49,.2015,.5166,.362,1.0482,.48,1.59l-62.58-.02Z" />
        </g>
    </g>
</svg>