<svg width="259" height="88" viewBox="0 0 259 88" fill="none" xmlns="http://www.w3.org/2000/svg">
<path d="M5.9999 18V25.2001H17.1599V30H0.399902V2.00005H17.1599V6.80005H5.9999V13.2H14.7599V18H5.9999Z" fill="white"/>
<path d="M22.753 30V22.4H30.353V30H22.753Z" fill="white"/>
<path d="M37.5483 30V2.00005H43.1483V25.2001H52.7083V30H37.5483Z" fill="white"/>
<path d="M57.5187 30V22.4H65.1187V30H57.5187Z" fill="white"/>
<path d="M87.314 21.8H92.914V27.5201L88.274 30.2001H76.954L72.314 27.5201V4.48005L76.954 1.80005H88.274L92.914 4.48005V10.2H87.314V6.60005H77.914V25.4H87.314V21.8Z" fill="white"/>
<path d="M109.697 30V2.00005H115.297V25.2001H124.857V30H109.697Z" fill="white"/>
<path d="M134.347 10V30H128.867V10H134.347ZM128.667 6.28005V0.800049H134.547V6.28005H128.667Z" fill="white"/>
<path d="M139.551 35.5201V32.72L144.191 30L140.351 27.76V24.16L143.191 22.5201L140.351 20.88V12.68L144.991 10H158.551V12.56L154.911 14.68L157.351 16.12V20.4401L152.711 23.12H145.831V25.72H153.911L158.551 28.4V35.5201L153.911 38.2001H144.191L139.551 35.5201ZM153.071 30H145.031V33.6H153.071V30ZM145.831 14.48V18.64H151.871V14.48H145.831Z" fill="white"/>
<path d="M169.23 30H163.75V0.800049H169.23V11.44L172.07 9.80005H177.31L181.95 12.48V30H176.47V14.48H169.23V30Z" fill="white"/>
<path d="M186.369 14.68V10H190.049V6.64005L195.529 3.48005V10H199.929V14.68H195.529V25.32H199.929V30H194.689L190.049 27.32V14.68H186.369Z" fill="white"/>
<path d="M210.597 10V30H205.117V10H210.597ZM204.917 6.28005V0.800049H210.797V6.28005H204.917Z" fill="white"/>
<path d="M234.401 12.48V30H228.921V14.48H222.081V30H216.601V9.80005H221.121L222.081 11.44L224.921 9.80005H229.761L234.401 12.48Z" fill="white"/>
<path d="M239.591 35.5201V32.72L244.231 30L240.391 27.76V24.16L243.231 22.5201L240.391 20.88V12.68L245.031 10H258.591V12.56L254.951 14.68L257.391 16.12V20.4401L252.751 23.12H245.871V25.72H253.951L258.591 28.4V35.5201L253.951 38.2001H244.231L239.591 35.5201ZM253.111 30H245.071V33.6H253.111V30ZM245.871 14.48V18.64H251.911V14.48H245.871Z" fill="white"/>
<path d="M5.9999 75V87H0.399902V59H5.9999V70.2001H16.9999V59H22.5999V87H16.9999V75H5.9999Z" fill="white"/>
<path d="M51.5843 70.12V74.9201H48.6243V84.5201L43.9843 87.2001H34.0243L29.3843 84.5201V74.5601L32.8643 72.5601V72.48L29.3843 70.48V61.48L34.0243 58.8H42.3843L47.0243 61.48V67.2001H41.4243V63.6H34.9843V70.12H40.7843V74.9201H34.9843V82.4H43.0243V72.8L47.6643 70.12H51.5843Z" fill="white"/>
<path d="M61.5858 75V82.2001H72.7458V87H55.9858V59H72.7458V63.8H61.5858V70.2001H70.3458V75H61.5858Z" fill="white"/>
<path d="M99.0896 63.8V87H93.4896V63.8H85.9296V59H106.65V63.8H99.0896Z" fill="white"/>
<path d="M127.264 82.3201V87H115.304L110.664 84.3201V69.48L115.304 66.8H122.624L127.264 69.48V79.04H116.144V82.3201H127.264ZM116.144 71.48V74.9201H121.784V71.48H116.144Z" fill="white"/>
<path d="M138.761 71.68V82.3201H148.681V87H137.921L133.281 84.3201V69.68L137.921 67H148.681V71.68H138.761Z" fill="white"/>
<path d="M159.347 87H153.867V57.8H159.347V68.44L162.187 66.8H167.427L172.067 69.48V87H166.587V71.48H159.347V87Z" fill="white"/>
<path d="M195.886 69.48V87H190.406V71.48H183.566V87H178.086V66.8H182.606L183.566 68.44L186.406 66.8H191.246L195.886 69.48Z" fill="white"/>
<path d="M207.355 67V87H201.875V67H207.355ZM201.675 63.28V57.8H207.555V63.28H201.675Z" fill="white"/>
<path d="M218.839 71.68V82.3201H228.759V87H217.999L213.359 84.3201V69.68L217.999 67H228.759V71.68H218.839Z" fill="white"/>
<path d="M249.785 77.16V84.3201L245.145 87H233.945V82.3201H244.305V79.2401H238.585L233.945 76.5601V69.68L238.585 67H249.385V71.68H239.425V74.48H245.145L249.785 77.16Z" fill="white"/>
</svg>
