<svg width="652" height="203" viewBox="0 0 652 203" fill="none" xmlns="http://www.w3.org/2000/svg">
<g clip-path="url(#clip0_450_70)">
<path d="M71.96 168.67C109.217 168.67 139.42 138.467 139.42 101.21C139.42 63.9529 109.217 33.75 71.96 33.75C34.7029 33.75 4.5 63.9529 4.5 101.21C4.5 138.467 34.7029 168.67 71.96 168.67Z" stroke="white" stroke-width="9" stroke-miterlimit="10"/>
<path d="M91.1501 0L18.1401 113.43H84.9601L34.5001 202.8L125.57 84.19L48.1401 99.88L91.1501 0Z" fill="white"/>
<path d="M187.33 71.8601V79.5601H167.7V88.2001H185.08V95.9001H167.7V104.65H188.1V112.35H159.72V71.8701H187.33V71.8601Z" fill="white" stroke="white" stroke-miterlimit="10"/>
<path d="M205.09 71.8601V104.64H224.12V112.34H197.12V71.8601H205.1H205.09Z" fill="white" stroke="white" stroke-miterlimit="10"/>
<path d="M260.75 71.8601V79.5601H241.12V88.2001H258.5V95.9001H241.12V104.65H261.53V112.35H233.15V71.8701H260.76L260.75 71.8601Z" fill="white" stroke="white" stroke-miterlimit="10"/>
<path d="M296.01 111.52C293.77 112.36 291.33 112.79 288.69 112.79C284.47 112.79 280.81 111.87 277.69 110.04C274.57 108.21 272.19 105.74 270.54 102.64C268.89 99.5399 268.07 96.1399 268.07 92.4399C268.07 88.3699 268.9 84.7399 270.54 81.5499C272.19 78.3599 274.5 75.8799 277.47 74.0999C280.44 72.3199 283.87 71.4299 287.76 71.4299C290.22 71.4299 292.49 71.7599 294.58 72.4199C296.67 73.0799 298.5 73.8999 300.08 74.8899L296.95 82.4299C294.05 80.2299 291.08 79.1299 288.04 79.1299C285.99 79.1299 284.06 79.6999 282.27 80.8399C280.47 81.9799 279.04 83.5299 277.98 85.4899C276.92 87.4499 276.38 89.6199 276.38 92.0099C276.38 94.6099 276.88 96.8999 277.87 98.8599C278.86 100.82 280.27 102.35 282.11 103.45C283.94 104.55 286.09 105.1 288.54 105.1C290.52 105.1 292.3 104.78 293.87 104.14C295.45 103.5 296.69 102.74 297.61 101.86L300.91 109.01C299.88 109.85 298.25 110.7 296.02 111.54L296.01 111.52Z" fill="white" stroke="white" stroke-miterlimit="10"/>
<path d="M334.18 71.8601V79.5601H324.34V112.34H316.36V79.5601H306.9V71.8601H334.18Z" fill="white" stroke="white" stroke-miterlimit="10"/>
<path d="M364.48 112.35L355.96 99.4801H350.63V112.35H342.65V71.8701H354.92C359.94 71.8701 363.84 73.0901 366.61 75.5301C369.38 77.9701 370.76 81.3001 370.76 85.5101C370.76 88.0001 370.24 90.3401 369.19 92.5201C368.14 94.7001 366.54 96.4201 364.38 97.6601L373.79 112.34H364.49L364.48 112.35ZM350.62 91.7701H356.29C358.45 91.7701 360.03 91.1401 361.02 89.8701C362.01 88.6101 362.51 87.2401 362.51 85.7701C362.51 84.3001 362.09 82.9001 361.25 81.5601C360.41 80.2201 358.77 79.5501 356.35 79.5501H350.63V91.7601L350.62 91.7701Z" fill="white" stroke="white" stroke-miterlimit="10"/>
<path d="M380.07 81.8799C381.92 78.6899 384.43 76.1499 387.61 74.2599C390.78 72.3699 394.22 71.4299 397.92 71.4299C401.62 71.4299 405.06 72.3699 408.23 74.2599C411.4 76.1499 413.93 78.6899 415.82 81.8799C417.71 85.0699 418.65 88.4999 418.65 92.1699C418.65 95.8399 417.71 99.3599 415.82 102.51C413.93 105.66 411.4 108.17 408.23 110.02C405.06 111.87 401.62 112.8 397.92 112.8C394.22 112.8 390.73 111.87 387.58 110.02C384.43 108.17 381.92 105.67 380.07 102.51C378.22 99.3499 377.29 95.9099 377.29 92.1699C377.29 88.4299 378.22 85.0699 380.07 81.8799ZM387.23 98.6499C388.35 100.63 389.87 102.2 391.79 103.35C393.72 104.5 395.85 105.08 398.2 105.08C400.55 105.08 402.54 104.5 404.41 103.35C406.28 102.19 407.75 100.64 408.81 98.6699C409.87 96.7099 410.41 94.5399 410.41 92.1499C410.41 89.7599 409.86 87.5299 408.76 85.5499C407.66 83.5699 406.17 81.9999 404.28 80.8499C402.39 79.6899 400.29 79.1199 397.98 79.1199C395.67 79.1199 393.57 79.6999 391.68 80.8499C389.79 82.0099 388.3 83.5699 387.2 85.5499C386.1 87.5299 385.55 89.7299 385.55 92.1499C385.55 94.5699 386.11 96.6599 387.23 98.6399V98.6499Z" fill="white" stroke="white" stroke-miterlimit="10"/>
<path d="M471.51 111.52C469.27 112.36 466.83 112.79 464.19 112.79C459.97 112.79 456.31 111.87 453.19 110.04C450.07 108.21 447.69 105.74 446.04 102.64C444.39 99.5399 443.57 96.1399 443.57 92.4399C443.57 88.3699 444.4 84.7399 446.04 81.5499C447.69 78.3599 450 75.8799 452.97 74.0999C455.94 72.3199 459.37 71.4299 463.26 71.4299C465.72 71.4299 467.99 71.7599 470.08 72.4199C472.17 73.0799 474 73.8999 475.58 74.8899L472.45 82.4299C469.55 80.2299 466.58 79.1299 463.54 79.1299C461.49 79.1299 459.56 79.6999 457.77 80.8399C455.97 81.9799 454.54 83.5299 453.48 85.4899C452.42 87.4499 451.88 89.6199 451.88 92.0099C451.88 94.6099 452.38 96.8999 453.37 98.8599C454.36 100.82 455.77 102.35 457.61 103.45C459.44 104.55 461.59 105.1 464.04 105.1C466.02 105.1 467.8 104.78 469.37 104.14C470.95 103.5 472.19 102.74 473.11 101.86L476.41 109.01C475.38 109.85 473.75 110.7 471.52 111.54L471.51 111.52Z" fill="white" stroke="white" stroke-miterlimit="10"/>
<path d="M493.13 71.8601V112.34H485.15V71.8601H493.13Z" fill="white" stroke="white" stroke-miterlimit="10"/>
<path d="M526.18 112.35L517.66 99.4801H512.33V112.35H504.35V71.8701H516.62C521.64 71.8701 525.54 73.0901 528.31 75.5301C531.08 77.9701 532.46 81.3001 532.46 85.5101C532.46 88.0001 531.94 90.3401 530.89 92.5201C529.84 94.7001 528.24 96.4201 526.08 97.6601L535.49 112.34H526.19L526.18 112.35ZM512.32 91.7701H517.99C520.15 91.7701 521.73 91.1401 522.72 89.8701C523.71 88.6101 524.21 87.2401 524.21 85.7701C524.21 84.3001 523.79 82.9001 522.95 81.5601C522.11 80.2201 520.47 79.5501 518.05 79.5501H512.33V91.7601L512.32 91.7701Z" fill="white" stroke="white" stroke-miterlimit="10"/>
<path d="M550.71 88.3101L551.92 86.7701L565.12 71.8601H575.46L558.74 90.0101L575.51 112.34H565.39L552.9 95.0701L550.92 97.0501V112.34H542.84V71.8601H550.92V86.2701L550.7 88.3101H550.71Z" fill="white" stroke="white" stroke-miterlimit="10"/>
<path d="M609.95 71.8601V79.5601H590.32V88.2001H607.7V95.9001H590.32V104.65H610.73V112.35H582.35V71.8701H609.96L609.95 71.8601Z" fill="white" stroke="white" stroke-miterlimit="10"/>
<path d="M627.71 71.8601V104.64H646.74V112.34H619.73V71.8601H627.71Z" fill="white" stroke="white" stroke-miterlimit="10"/>
<path d="M164.52 144.73L164.77 146.28C164.28 146.38 163.83 146.44 163.44 146.44C162.8 146.44 162.31 146.34 161.96 146.14C161.61 145.94 161.36 145.67 161.22 145.34C161.08 145.01 161.01 144.32 161.01 143.26V137.29H159.72V135.92H161.01V133.35L162.76 132.3V135.92H164.53V137.29H162.76V143.35C162.76 143.85 162.79 144.17 162.85 144.32C162.91 144.47 163.01 144.58 163.15 144.66C163.29 144.74 163.49 144.79 163.75 144.79C163.95 144.79 164.2 144.77 164.52 144.72V144.73Z" fill="white"/>
<path d="M170.24 146.3V131.98H172V137.12C172.82 136.17 173.86 135.69 175.11 135.69C175.88 135.69 176.55 135.84 177.11 136.14C177.67 136.44 178.08 136.86 178.33 137.39C178.58 137.92 178.7 138.7 178.7 139.71V146.28H176.94V139.71C176.94 138.83 176.75 138.19 176.37 137.79C175.99 137.39 175.45 137.19 174.75 137.19C174.23 137.19 173.74 137.32 173.28 137.6C172.82 137.88 172.49 138.24 172.3 138.7C172.11 139.16 172.01 139.8 172.01 140.61V146.28H170.25L170.24 146.3Z" fill="white"/>
<path d="M192.47 142.96L194.29 143.18C194 144.24 193.47 145.06 192.7 145.65C191.93 146.24 190.94 146.53 189.73 146.53C188.21 146.53 187.01 146.06 186.12 145.13C185.23 144.2 184.79 142.89 184.79 141.2C184.79 139.51 185.24 138.1 186.14 137.14C187.04 136.18 188.2 135.69 189.64 135.69C191.08 135.69 192.16 136.16 193.04 137.11C193.92 138.06 194.36 139.38 194.36 141.09C194.36 141.19 194.36 141.35 194.36 141.56H186.63C186.69 142.7 187.02 143.57 187.6 144.18C188.18 144.79 188.9 145.09 189.77 145.09C190.41 145.09 190.96 144.92 191.42 144.58C191.88 144.24 192.24 143.7 192.5 142.96H192.47ZM186.69 140.12H192.48C192.4 139.25 192.18 138.59 191.82 138.16C191.26 137.48 190.53 137.14 189.64 137.14C188.83 137.14 188.15 137.41 187.6 137.95C187.05 138.49 186.75 139.21 186.69 140.12Z" fill="white"/>
<path d="M209.39 141.12C209.39 139.2 209.92 137.78 210.99 136.85C211.88 136.08 212.97 135.7 214.25 135.7C215.68 135.7 216.84 136.17 217.75 137.1C218.66 138.03 219.11 139.32 219.11 140.97C219.11 142.3 218.91 143.35 218.51 144.12C218.11 144.89 217.53 145.48 216.76 145.9C215.99 146.32 215.16 146.53 214.26 146.53C212.81 146.53 211.63 146.06 210.74 145.13C209.85 144.2 209.4 142.86 209.4 141.11L209.39 141.12ZM211.2 141.12C211.2 142.45 211.49 143.44 212.07 144.1C212.65 144.76 213.38 145.09 214.26 145.09C215.14 145.09 215.86 144.76 216.44 144.09C217.02 143.42 217.31 142.41 217.31 141.05C217.31 139.77 217.02 138.8 216.44 138.13C215.86 137.46 215.13 137.14 214.27 137.14C213.41 137.14 212.66 137.47 212.08 138.13C211.5 138.79 211.21 139.78 211.21 141.11L211.2 141.12Z" fill="white"/>
<path d="M225.17 146.3V135.93H226.75V137.4C227.51 136.26 228.61 135.69 230.05 135.69C230.67 135.69 231.25 135.8 231.77 136.03C232.29 136.26 232.69 136.55 232.95 136.91C233.21 137.27 233.39 137.71 233.5 138.21C233.56 138.54 233.6 139.11 233.6 139.92V146.3H231.84V139.99C231.84 139.27 231.77 138.74 231.63 138.38C231.49 138.02 231.25 137.74 230.9 137.53C230.55 137.32 230.14 137.21 229.67 137.21C228.92 137.21 228.27 137.45 227.73 137.92C227.19 138.39 226.91 139.3 226.91 140.63V146.29H225.15L225.17 146.3Z" fill="white"/>
<path d="M247.39 142.96L249.21 143.18C248.92 144.24 248.39 145.06 247.62 145.65C246.85 146.24 245.86 146.53 244.65 146.53C243.13 146.53 241.93 146.06 241.04 145.13C240.15 144.2 239.71 142.89 239.71 141.2C239.71 139.51 240.16 138.1 241.06 137.14C241.96 136.18 243.12 135.69 244.56 135.69C246 135.69 247.08 136.16 247.96 137.11C248.84 138.06 249.28 139.38 249.28 141.09C249.28 141.19 249.28 141.35 249.28 141.56H241.55C241.61 142.7 241.94 143.57 242.52 144.18C243.1 144.79 243.82 145.09 244.69 145.09C245.33 145.09 245.88 144.92 246.34 144.58C246.8 144.24 247.16 143.7 247.42 142.96H247.39ZM241.62 140.12H247.41C247.33 139.25 247.11 138.59 246.75 138.16C246.19 137.48 245.46 137.14 244.57 137.14C243.76 137.14 243.08 137.41 242.53 137.95C241.98 138.49 241.68 139.21 241.62 140.12Z" fill="white"/>
<path d="M254.73 142.01V140.24H260.13V142.01H254.73Z" fill="white"/>
<path d="M265.37 143.21L267.11 142.94C267.21 143.64 267.48 144.17 267.93 144.54C268.38 144.91 269 145.1 269.8 145.1C270.6 145.1 271.21 144.94 271.6 144.61C271.99 144.28 272.19 143.9 272.19 143.45C272.19 143.05 272.02 142.74 271.67 142.51C271.43 142.35 270.83 142.16 269.87 141.91C268.58 141.58 267.69 141.3 267.19 141.07C266.69 140.84 266.31 140.5 266.06 140.08C265.81 139.66 265.67 139.2 265.67 138.69C265.67 138.23 265.78 137.8 265.99 137.41C266.2 137.02 266.49 136.69 266.85 136.43C267.12 136.23 267.5 136.06 267.97 135.92C268.44 135.78 268.95 135.71 269.49 135.71C270.3 135.71 271.02 135.83 271.63 136.06C272.24 136.29 272.7 136.61 272.99 137.01C273.28 137.41 273.49 137.95 273.6 138.62L271.88 138.85C271.8 138.32 271.58 137.9 271.2 137.6C270.82 137.3 270.3 137.15 269.61 137.15C268.8 137.15 268.23 137.28 267.88 137.55C267.53 137.82 267.36 138.13 267.36 138.49C267.36 138.72 267.43 138.92 267.57 139.11C267.71 139.3 267.94 139.45 268.24 139.58C268.42 139.65 268.93 139.79 269.79 140.03C271.03 140.36 271.9 140.63 272.39 140.85C272.88 141.07 273.27 141.37 273.55 141.77C273.83 142.17 273.97 142.68 273.97 143.27C273.97 143.86 273.8 144.41 273.46 144.93C273.12 145.45 272.63 145.85 271.98 146.13C271.33 146.41 270.61 146.55 269.79 146.55C268.44 146.55 267.41 146.27 266.71 145.71C266.01 145.15 265.55 144.32 265.36 143.22L265.37 143.21Z" fill="white"/>
<path d="M283.91 144.73L284.16 146.28C283.66 146.38 283.22 146.44 282.83 146.44C282.19 146.44 281.7 146.34 281.35 146.14C281 145.94 280.75 145.67 280.61 145.34C280.47 145.01 280.4 144.32 280.4 143.26V137.29H279.11V135.92H280.4V133.35L282.15 132.3V135.92H283.92V137.29H282.15V143.35C282.15 143.85 282.18 144.17 282.24 144.32C282.3 144.47 282.4 144.58 282.54 144.66C282.68 144.74 282.88 144.79 283.14 144.79C283.34 144.79 283.59 144.77 283.91 144.72V144.73Z" fill="white"/>
<path d="M288.98 141.12C288.98 139.2 289.51 137.78 290.58 136.85C291.47 136.08 292.56 135.7 293.84 135.7C295.27 135.7 296.43 136.17 297.34 137.1C298.25 138.03 298.7 139.32 298.7 140.97C298.7 142.3 298.5 143.35 298.1 144.12C297.7 144.89 297.12 145.48 296.35 145.9C295.58 146.32 294.75 146.53 293.85 146.53C292.4 146.53 291.23 146.06 290.33 145.13C289.43 144.2 288.99 142.86 288.99 141.11L288.98 141.12ZM290.79 141.12C290.79 142.45 291.08 143.44 291.66 144.1C292.24 144.76 292.97 145.09 293.85 145.09C294.73 145.09 295.45 144.76 296.03 144.09C296.61 143.42 296.9 142.41 296.9 141.05C296.9 139.77 296.61 138.8 296.03 138.13C295.45 137.46 294.72 137.14 293.86 137.14C293 137.14 292.25 137.47 291.67 138.13C291.09 138.79 290.8 139.78 290.8 141.11L290.79 141.12Z" fill="white"/>
<path d="M304.76 150.28V135.93H306.36V137.28C306.74 136.75 307.16 136.36 307.64 136.09C308.12 135.82 308.69 135.69 309.37 135.69C310.26 135.69 311.04 135.92 311.71 136.37C312.38 136.82 312.9 137.47 313.24 138.3C313.58 139.13 313.76 140.04 313.76 141.03C313.76 142.09 313.57 143.05 313.19 143.9C312.81 144.75 312.26 145.4 311.53 145.85C310.8 146.3 310.04 146.53 309.24 146.53C308.65 146.53 308.13 146.41 307.66 146.16C307.19 145.91 306.81 145.6 306.51 145.22V150.27H304.75L304.76 150.28ZM306.35 141.18C306.35 142.51 306.62 143.5 307.16 144.14C307.7 144.78 308.35 145.1 309.12 145.1C309.89 145.1 310.57 144.77 311.13 144.11C311.69 143.45 311.96 142.43 311.96 141.04C311.96 139.65 311.69 138.73 311.14 138.07C310.59 137.41 309.95 137.08 309.19 137.08C308.43 137.08 307.78 137.43 307.2 138.13C306.62 138.83 306.34 139.85 306.34 141.18H306.35Z" fill="white"/>
<path d="M336.54 142.96L338.36 143.18C338.07 144.24 337.54 145.06 336.77 145.65C336 146.24 335.01 146.53 333.8 146.53C332.28 146.53 331.08 146.06 330.19 145.13C329.3 144.2 328.86 142.89 328.86 141.2C328.86 139.51 329.31 138.1 330.21 137.14C331.11 136.18 332.27 135.69 333.71 135.69C335.15 135.69 336.23 136.16 337.11 137.11C337.99 138.06 338.43 139.38 338.43 141.09C338.43 141.19 338.43 141.35 338.43 141.56H330.7C330.77 142.7 331.09 143.57 331.67 144.18C332.25 144.79 332.97 145.09 333.84 145.09C334.48 145.09 335.03 144.92 335.49 144.58C335.95 144.24 336.31 143.7 336.57 142.96H336.54ZM330.76 140.12H336.55C336.47 139.25 336.25 138.59 335.89 138.16C335.33 137.48 334.6 137.14 333.71 137.14C332.9 137.14 332.22 137.41 331.67 137.95C331.12 138.49 330.82 139.21 330.76 140.12Z" fill="white"/>
<path d="M344.52 146.3V131.98H346.28V146.3H344.52Z" fill="white"/>
<path d="M360.1 142.96L361.92 143.18C361.63 144.24 361.1 145.06 360.33 145.65C359.56 146.24 358.57 146.53 357.36 146.53C355.84 146.53 354.64 146.06 353.75 145.13C352.86 144.2 352.42 142.89 352.42 141.2C352.42 139.51 352.87 138.1 353.77 137.14C354.67 136.18 355.83 135.69 357.27 135.69C358.71 135.69 359.79 136.16 360.67 137.11C361.55 138.06 361.99 139.38 361.99 141.09C361.99 141.19 361.99 141.35 361.99 141.56H354.26C354.33 142.7 354.65 143.57 355.23 144.18C355.81 144.79 356.53 145.09 357.4 145.09C358.04 145.09 358.59 144.92 359.05 144.58C359.51 144.24 359.87 143.7 360.13 142.96H360.1ZM354.33 140.12H360.12C360.04 139.25 359.82 138.59 359.46 138.16C358.9 137.48 358.17 137.14 357.28 137.14C356.47 137.14 355.79 137.41 355.24 137.95C354.69 138.49 354.39 139.21 354.33 140.12Z" fill="white"/>
<path d="M374.89 142.5L376.62 142.72C376.43 143.91 375.95 144.84 375.17 145.52C374.39 146.2 373.44 146.53 372.3 146.53C370.88 146.53 369.74 146.07 368.88 145.14C368.02 144.21 367.59 142.88 367.59 141.15C367.59 140.03 367.78 139.05 368.15 138.21C368.52 137.37 369.09 136.74 369.84 136.32C370.59 135.9 371.42 135.69 372.32 135.69C373.45 135.69 374.37 135.98 375.08 136.54C375.79 137.1 376.25 137.92 376.46 138.97L374.75 139.23C374.59 138.53 374.3 138.01 373.89 137.66C373.48 137.31 372.98 137.13 372.39 137.13C371.5 137.13 370.79 137.45 370.23 138.08C369.67 138.71 369.4 139.72 369.4 141.09C369.4 142.46 369.67 143.5 370.2 144.13C370.73 144.76 371.43 145.08 372.29 145.08C372.98 145.08 373.56 144.87 374.02 144.45C374.48 144.03 374.77 143.38 374.9 142.5H374.89Z" fill="white"/>
<path d="M385.96 144.73L386.21 146.28C385.71 146.38 385.27 146.44 384.88 146.44C384.24 146.44 383.75 146.34 383.4 146.14C383.05 145.94 382.8 145.67 382.66 145.34C382.52 145.01 382.45 144.32 382.45 143.26V137.29H381.16V135.92H382.45V133.35L384.2 132.3V135.92H385.97V137.29H384.2V143.35C384.2 143.85 384.23 144.17 384.29 144.32C384.35 144.47 384.45 144.58 384.59 144.66C384.73 144.74 384.93 144.79 385.19 144.79C385.39 144.79 385.64 144.77 385.96 144.72V144.73Z" fill="white"/>
<path d="M391.66 146.3V135.93H393.24V137.5C393.64 136.76 394.02 136.28 394.36 136.04C394.7 135.8 395.08 135.69 395.49 135.69C396.08 135.69 396.68 135.88 397.3 136.26L396.69 137.89C396.26 137.64 395.83 137.51 395.4 137.51C395.02 137.51 394.67 137.63 394.36 137.86C394.05 138.09 393.84 138.41 393.71 138.82C393.51 139.44 393.42 140.13 393.42 140.87V146.3H391.66Z" fill="white"/>
<path d="M401.69 141.12C401.69 139.2 402.22 137.78 403.29 136.85C404.18 136.08 405.27 135.7 406.55 135.7C407.98 135.7 409.14 136.17 410.05 137.1C410.96 138.03 411.41 139.32 411.41 140.97C411.41 142.3 411.21 143.35 410.81 144.12C410.41 144.89 409.83 145.48 409.06 145.9C408.29 146.32 407.46 146.53 406.56 146.53C405.11 146.53 403.94 146.06 403.04 145.13C402.14 144.2 401.7 142.86 401.7 141.11L401.69 141.12ZM403.49 141.12C403.49 142.45 403.78 143.44 404.36 144.1C404.94 144.76 405.67 145.09 406.55 145.09C407.43 145.09 408.15 144.76 408.73 144.09C409.31 143.42 409.6 142.41 409.6 141.05C409.6 139.77 409.31 138.8 408.73 138.13C408.15 137.46 407.42 137.14 406.56 137.14C405.7 137.14 404.95 137.47 404.37 138.13C403.79 138.79 403.5 139.78 403.5 141.11L403.49 141.12Z" fill="white"/>
<path d="M416.78 142.01V140.24H422.18V142.01H416.78Z" fill="white"/>
<path d="M431.96 144.73L432.21 146.28C431.71 146.38 431.27 146.44 430.88 146.44C430.24 146.44 429.75 146.34 429.4 146.14C429.05 145.94 428.8 145.67 428.66 145.34C428.52 145.01 428.45 144.32 428.45 143.26V137.29H427.16V135.92H428.45V133.35L430.2 132.3V135.92H431.97V137.29H430.2V143.35C430.2 143.85 430.23 144.17 430.29 144.32C430.35 144.47 430.45 144.58 430.59 144.66C430.73 144.74 430.93 144.79 431.19 144.79C431.39 144.79 431.64 144.77 431.96 144.72V144.73Z" fill="white"/>
<path d="M444.78 142.96L446.6 143.18C446.31 144.24 445.78 145.06 445.01 145.65C444.24 146.24 443.25 146.53 442.04 146.53C440.52 146.53 439.32 146.06 438.43 145.13C437.54 144.2 437.1 142.89 437.1 141.2C437.1 139.51 437.55 138.1 438.45 137.14C439.35 136.18 440.51 135.69 441.95 135.69C443.39 135.69 444.47 136.16 445.35 137.11C446.23 138.06 446.67 139.38 446.67 141.09C446.67 141.19 446.67 141.35 446.67 141.56H438.94C439.01 142.7 439.33 143.57 439.91 144.18C440.49 144.79 441.21 145.09 442.08 145.09C442.72 145.09 443.27 144.92 443.73 144.58C444.19 144.24 444.55 143.7 444.81 142.96H444.78ZM439.01 140.12H444.8C444.72 139.25 444.5 138.59 444.14 138.16C443.58 137.48 442.85 137.14 441.96 137.14C441.15 137.14 440.47 137.41 439.92 137.95C439.37 138.49 439.07 139.21 439.01 140.12Z" fill="white"/>
<path d="M459.57 142.5L461.3 142.72C461.11 143.91 460.63 144.84 459.85 145.52C459.07 146.2 458.12 146.53 456.98 146.53C455.56 146.53 454.42 146.07 453.56 145.14C452.7 144.21 452.27 142.88 452.27 141.15C452.27 140.03 452.46 139.05 452.83 138.21C453.2 137.37 453.77 136.74 454.52 136.32C455.27 135.9 456.1 135.69 457 135.69C458.13 135.69 459.05 135.98 459.76 136.54C460.47 137.1 460.93 137.92 461.14 138.97L459.43 139.23C459.27 138.53 458.98 138.01 458.57 137.66C458.16 137.31 457.66 137.13 457.07 137.13C456.18 137.13 455.47 137.45 454.91 138.08C454.35 138.71 454.08 139.72 454.08 141.09C454.08 142.46 454.35 143.5 454.88 144.13C455.41 144.76 456.11 145.08 456.97 145.08C457.66 145.08 458.24 144.87 458.7 144.45C459.16 144.03 459.45 143.38 459.58 142.5H459.57Z" fill="white"/>
<path d="M466.8 146.3V131.98H468.56V137.12C469.38 136.17 470.42 135.69 471.67 135.69C472.44 135.69 473.11 135.84 473.67 136.14C474.23 136.44 474.64 136.86 474.89 137.39C475.14 137.92 475.26 138.7 475.26 139.71V146.28H473.5V139.71C473.5 138.83 473.31 138.19 472.93 137.79C472.55 137.39 472.01 137.19 471.31 137.19C470.79 137.19 470.3 137.32 469.84 137.6C469.38 137.88 469.05 138.24 468.86 138.7C468.67 139.16 468.57 139.8 468.57 140.61V146.28H466.81L466.8 146.3Z" fill="white"/>
<path d="M481.93 146.3V135.93H483.51V137.4C484.27 136.26 485.37 135.69 486.81 135.69C487.43 135.69 488.01 135.8 488.53 136.03C489.05 136.26 489.45 136.55 489.71 136.91C489.97 137.27 490.15 137.71 490.26 138.21C490.33 138.54 490.36 139.11 490.36 139.92V146.3H488.6V139.99C488.6 139.27 488.53 138.74 488.39 138.38C488.25 138.02 488.01 137.74 487.66 137.53C487.31 137.32 486.9 137.21 486.43 137.21C485.68 137.21 485.04 137.45 484.49 137.92C483.94 138.39 483.67 139.3 483.67 140.63V146.29H481.91L481.93 146.3Z" fill="white"/>
<path d="M497.06 134.01V131.99H498.82V134.01H497.06ZM497.06 146.3V135.93H498.82V146.3H497.06Z" fill="white"/>
<path d="M512.26 142.5L513.99 142.72C513.8 143.91 513.32 144.84 512.54 145.52C511.76 146.2 510.81 146.53 509.67 146.53C508.25 146.53 507.11 146.07 506.25 145.14C505.39 144.21 504.96 142.88 504.96 141.15C504.96 140.03 505.15 139.05 505.52 138.21C505.89 137.37 506.46 136.74 507.21 136.32C507.96 135.9 508.79 135.69 509.69 135.69C510.82 135.69 511.74 135.98 512.45 136.54C513.16 137.1 513.62 137.92 513.83 138.97L512.12 139.23C511.96 138.53 511.67 138.01 511.26 137.66C510.85 137.31 510.35 137.13 509.76 137.13C508.87 137.13 508.16 137.45 507.6 138.08C507.04 138.71 506.77 139.72 506.77 141.09C506.77 142.46 507.04 143.5 507.57 144.13C508.1 144.76 508.8 145.08 509.66 145.08C510.35 145.08 510.93 144.87 511.39 144.45C511.85 144.03 512.14 143.38 512.27 142.5H512.26Z" fill="white"/>
<path d="M526.26 145.02C525.61 145.57 524.98 145.96 524.38 146.19C523.78 146.42 523.13 146.53 522.44 146.53C521.3 146.53 520.43 146.25 519.81 145.7C519.19 145.15 518.89 144.43 518.89 143.57C518.89 143.06 519.01 142.6 519.24 142.18C519.47 141.76 519.77 141.42 520.15 141.17C520.53 140.92 520.95 140.72 521.41 140.59C521.75 140.5 522.28 140.41 522.97 140.33C524.39 140.16 525.43 139.96 526.1 139.72C526.1 139.48 526.1 139.33 526.1 139.26C526.1 138.54 525.93 138.04 525.6 137.75C525.15 137.35 524.48 137.15 523.6 137.15C522.77 137.15 522.16 137.29 521.77 137.58C521.38 137.87 521.08 138.38 520.9 139.12L519.18 138.89C519.34 138.15 519.59 137.56 519.95 137.11C520.31 136.66 520.83 136.31 521.5 136.07C522.17 135.83 522.96 135.7 523.85 135.7C524.74 135.7 525.45 135.8 526.01 136.01C526.57 136.22 526.97 136.48 527.23 136.8C527.49 137.12 527.67 137.51 527.78 138C527.84 138.3 527.87 138.84 527.87 139.62V141.96C527.87 143.59 527.91 144.63 527.98 145.06C528.05 145.49 528.2 145.91 528.42 146.31H526.58C526.4 145.95 526.28 145.52 526.23 145.03L526.26 145.02ZM526.12 141.1C525.48 141.36 524.53 141.58 523.25 141.76C522.53 141.86 522.02 141.98 521.72 142.11C521.42 142.24 521.19 142.43 521.03 142.68C520.87 142.93 520.79 143.21 520.79 143.51C520.79 143.98 520.97 144.37 521.32 144.68C521.67 144.99 522.19 145.15 522.88 145.15C523.57 145.15 524.16 145 524.69 144.71C525.22 144.42 525.61 144.01 525.85 143.49C526.04 143.09 526.13 142.51 526.13 141.73V141.09L526.12 141.1Z" fill="white"/>
<path d="M534.58 146.3V131.98H536.34V146.3H534.58Z" fill="white"/>
<path d="M552.62 150.28V135.93H554.22V137.28C554.6 136.75 555.02 136.36 555.5 136.09C555.98 135.82 556.55 135.69 557.23 135.69C558.12 135.69 558.9 135.92 559.57 136.37C560.24 136.82 560.76 137.47 561.1 138.3C561.44 139.13 561.62 140.04 561.62 141.03C561.62 142.09 561.43 143.05 561.05 143.9C560.67 144.75 560.12 145.4 559.39 145.85C558.66 146.3 557.9 146.53 557.1 146.53C556.51 146.53 555.99 146.41 555.52 146.16C555.05 145.91 554.67 145.6 554.37 145.22V150.27H552.61L552.62 150.28ZM554.21 141.18C554.21 142.51 554.48 143.5 555.02 144.14C555.56 144.78 556.21 145.1 556.98 145.1C557.75 145.1 558.43 144.77 558.99 144.11C559.55 143.45 559.82 142.43 559.82 141.04C559.82 139.65 559.55 138.73 559 138.07C558.45 137.41 557.81 137.08 557.05 137.08C556.29 137.08 555.64 137.43 555.06 138.13C554.48 138.83 554.2 139.85 554.2 141.18H554.21Z" fill="white"/>
<path d="M567.72 146.3V135.93H569.3V137.5C569.7 136.76 570.08 136.28 570.42 136.04C570.76 135.8 571.14 135.69 571.55 135.69C572.14 135.69 572.74 135.88 573.36 136.26L572.75 137.89C572.32 137.64 571.89 137.51 571.46 137.51C571.08 137.51 570.73 137.63 570.42 137.86C570.11 138.09 569.9 138.41 569.77 138.82C569.57 139.44 569.48 140.13 569.48 140.87V146.3H567.72Z" fill="white"/>
<path d="M577.75 141.12C577.75 139.2 578.28 137.78 579.35 136.85C580.24 136.08 581.33 135.7 582.61 135.7C584.04 135.7 585.2 136.17 586.11 137.1C587.02 138.03 587.47 139.32 587.47 140.97C587.47 142.3 587.27 143.35 586.87 144.12C586.47 144.89 585.89 145.48 585.12 145.9C584.35 146.32 583.52 146.53 582.62 146.53C581.17 146.53 580 146.06 579.1 145.13C578.2 144.2 577.76 142.86 577.76 141.11L577.75 141.12ZM579.55 141.12C579.55 142.45 579.84 143.44 580.42 144.1C581 144.76 581.73 145.09 582.61 145.09C583.49 145.09 584.21 144.76 584.79 144.09C585.37 143.42 585.66 142.41 585.66 141.05C585.66 139.77 585.37 138.8 584.79 138.13C584.21 137.46 583.48 137.14 582.62 137.14C581.76 137.14 581.01 137.47 580.43 138.13C579.85 138.79 579.56 139.78 579.56 141.11L579.55 141.12Z" fill="white"/>
<path d="M596.4 146.3L592.45 135.93H594.31L596.54 142.14C596.78 142.81 597 143.51 597.2 144.23C597.36 143.68 597.57 143.03 597.85 142.26L600.15 135.93H601.96L598.03 146.3H596.39H596.4Z" fill="white"/>
<path d="M607.53 134.01V131.99H609.29V134.01H607.53ZM607.53 146.3V135.93H609.29V146.3H607.53Z" fill="white"/>
<path d="M622.7 146.3V144.99C622.04 146.02 621.08 146.53 619.8 146.53C618.97 146.53 618.21 146.3 617.52 145.85C616.83 145.4 616.29 144.76 615.91 143.94C615.53 143.12 615.34 142.18 615.34 141.12C615.34 140.06 615.51 139.15 615.86 138.3C616.21 137.45 616.72 136.81 617.41 136.36C618.1 135.91 618.87 135.69 619.72 135.69C620.34 135.69 620.9 135.82 621.39 136.09C621.88 136.36 622.28 136.7 622.58 137.12V131.98H624.33V146.3H622.7ZM617.14 141.13C617.14 142.46 617.42 143.45 617.98 144.11C618.54 144.77 619.2 145.1 619.96 145.1C620.72 145.1 621.38 144.79 621.92 144.16C622.46 143.53 622.73 142.57 622.73 141.28C622.73 139.86 622.46 138.82 621.91 138.16C621.36 137.5 620.69 137.16 619.89 137.16C619.09 137.16 618.46 137.48 617.93 138.12C617.4 138.76 617.14 139.76 617.14 141.14V141.13Z" fill="white"/>
<path d="M638.19 142.96L640.01 143.18C639.72 144.24 639.19 145.06 638.42 145.65C637.65 146.24 636.66 146.53 635.45 146.53C633.93 146.53 632.73 146.06 631.84 145.13C630.95 144.2 630.51 142.89 630.51 141.2C630.51 139.51 630.96 138.1 631.86 137.14C632.76 136.18 633.92 135.69 635.36 135.69C636.8 135.69 637.88 136.16 638.76 137.11C639.64 138.06 640.08 139.38 640.08 141.09C640.08 141.19 640.08 141.35 640.08 141.56H632.35C632.42 142.7 632.74 143.57 633.32 144.18C633.9 144.79 634.62 145.09 635.49 145.09C636.13 145.09 636.68 144.92 637.14 144.58C637.6 144.24 637.96 143.7 638.22 142.96H638.19ZM632.42 140.12H638.21C638.13 139.25 637.91 138.59 637.55 138.16C636.99 137.48 636.26 137.14 635.37 137.14C634.56 137.14 633.88 137.41 633.33 137.95C632.78 138.49 632.48 139.21 632.42 140.12Z" fill="white"/>
<path d="M646.19 146.3V135.93H647.77V137.5C648.17 136.76 648.55 136.28 648.89 136.04C649.23 135.8 649.61 135.69 650.02 135.69C650.61 135.69 651.21 135.88 651.83 136.26L651.22 137.89C650.79 137.64 650.36 137.51 649.93 137.51C649.55 137.51 649.2 137.63 648.89 137.86C648.58 138.09 648.37 138.41 648.24 138.82C648.04 139.44 647.95 140.13 647.95 140.87V146.3H646.19Z" fill="white"/>
</g>
<defs>
<clipPath id="clip0_450_70">
<rect width="651.83" height="202.8" fill="white"/>
</clipPath>
</defs>
</svg>
