<svg id="Layer_4" xmlns="http://www.w3.org/2000/svg" viewBox="0 0 855.31 323.74">
    <defs>
        <style>.cls-1{stroke:#fff;stroke-width:3px;}.cls-1,.cls-2{fill:none;stroke-miterlimit:10;}.cls-3{fill:#fff;}.cls-2{stroke:#000;}</style>
    </defs>
    <g>
        <g>
            <path class="cls-2" d="M475.12,323.24h218.32c89.13,0,161.37-72.25,161.37-161.37S782.57,.5,693.44,.5H161.87C72.75,.5,.5,72.75,.5,161.87s72.25,161.37,161.37,161.37H475.12Z" />
            <line class="cls-2" x1="475.12" y1=".5" x2="475.12" y2="323.24" />
        </g>
        <g>
            <path class="cls-1" d="M475.12,323.24h218.32c89.13,0,161.37-72.25,161.37-161.37S782.57,.5,693.44,.5H161.87C72.75,.5,.5,72.75,.5,161.87s72.25,161.37,161.37,161.37H475.12Z" />
            <line class="cls-1" x1="475.12" y1=".5" x2="475.12" y2="323.24" />
        </g>
    </g>
    <g>
        <path class="cls-3" d="M488.5358,24.6941v-6.3828h-6.8642v-4.4072h6.8642V7.5213h4.5781v6.3828h6.8829v4.4072h-6.8829v6.3828h-4.5781Z" />
        <path class="cls-3" d="M517.2428,24.6941v-6.3828h-6.8662v-4.4072h6.8662V7.5213h4.5772v6.3828h6.8838v4.4072h-6.8838v6.3828h-4.5772Z" />
        <path class="cls-3" d="M545.9489,24.6941v-6.3828h-6.8643v-4.4072h6.8643V7.5213h4.5762v6.3828h6.8838v4.4072h-6.8838v6.3828h-4.5762Z" />
        <path class="cls-3" d="M574.654,24.6941v-6.3828h-6.8662v-4.4072h6.8662V7.5213h4.5762v6.3828h6.8837v4.4072h-6.8837v6.3828h-4.5762Z" />
        <path class="cls-3" d="M603.36,24.6941v-6.3828h-6.8662v-4.4072h6.8662V7.5213h4.5772v6.3828h6.8818v4.4072h-6.8818v6.3828h-4.5772Z" />
        <path class="cls-3" d="M632.0671,24.6941v-6.3828h-6.8672v-4.4072h6.8672V7.5213h4.5761v6.3828h6.8819v4.4072h-6.8819v6.3828h-4.5761Z" />
        <path class="cls-3" d="M660.7712,24.6941v-6.3828h-6.8643v-4.4072h6.8643V7.5213h4.5761v6.3828h6.8848v4.4072h-6.8848v6.3828h-4.5761Z" />
        <path class="cls-3" d="M689.4782,24.6941v-6.3828h-6.8662v-4.4072h6.8662V7.5213h4.5771v6.3828h6.8829v4.4072h-6.8829v6.3828h-4.5771Z" />
        <path class="cls-3" d="M718.1823,24.6941v-6.3828h-6.8643v-4.4072h6.8643V7.5213h4.5771v6.3828h6.8829v4.4072h-6.8829v6.3828h-4.5771Z" />
        <path class="cls-3" d="M488.5358,51.3821v-6.3842h-6.8642v-4.4063h6.8642v-6.3828h4.5781v6.3828h6.8829v4.4063h-6.8829v6.3842h-4.5781Z" />
        <path class="cls-3" d="M517.2428,51.3821v-6.3842h-6.8662v-4.4063h6.8662v-6.3828h4.5772v6.3828h6.8838v4.4063h-6.8838v6.3842h-4.5772Z" />
        <path class="cls-3" d="M545.9489,51.3821v-6.3842h-6.8643v-4.4063h6.8643v-6.3828h4.5762v6.3828h6.8838v4.4063h-6.8838v6.3842h-4.5762Z" />
        <path class="cls-3" d="M574.654,51.3821v-6.3842h-6.8662v-4.4063h6.8662v-6.3828h4.5762v6.3828h6.8837v4.4063h-6.8837v6.3842h-4.5762Z" />
        <path class="cls-3" d="M603.36,51.3821v-6.3842h-6.8662v-4.4063h6.8662v-6.3828h4.5772v6.3828h6.8818v4.4063h-6.8818v6.3842h-4.5772Z" />
        <path class="cls-3" d="M632.0671,51.3821v-6.3842h-6.8672v-4.4063h6.8672v-6.3828h4.5761v6.3828h6.8819v4.4063h-6.8819v6.3842h-4.5761Z" />
        <path class="cls-3" d="M660.7712,51.3821v-6.3842h-6.8643v-4.4063h6.8643v-6.3828h4.5761v6.3828h6.8848v4.4063h-6.8848v6.3842h-4.5761Z" />
        <path class="cls-3" d="M689.4782,51.3821v-6.3842h-6.8662v-4.4063h6.8662v-6.3828h4.5771v6.3828h6.8829v4.4063h-6.8829v6.3842h-4.5771Z" />
        <path class="cls-3" d="M718.1823,51.3821v-6.3842h-6.8643v-4.4063h6.8643v-6.3828h4.5771v6.3828h6.8829v4.4063h-6.8829v6.3842h-4.5771Z" />
        <path class="cls-3" d="M746.8884,51.3821v-6.3842h-6.8653v-4.4063h6.8653v-6.3828h4.5771v6.3828h6.8828v4.4063h-6.8828v6.3842h-4.5771Z" />
        <path class="cls-3" d="M775.5954,51.3821v-6.3842h-6.8662v-4.4063h6.8662v-6.3828h4.5762v6.3828h6.8828v4.4063h-6.8828v6.3842h-4.5762Z" />
        <path class="cls-3" d="M488.5358,78.0691v-6.3837h-6.8642v-4.4058h6.8642v-6.3833h4.5781v6.3833h6.8829v4.4058h-6.8829v6.3837h-4.5781Z" />
        <path class="cls-3" d="M517.2428,78.0691v-6.3837h-6.8662v-4.4058h6.8662v-6.3833h4.5772v6.3833h6.8838v4.4058h-6.8838v6.3837h-4.5772Z" />
        <path class="cls-3" d="M545.9489,78.0691v-6.3837h-6.8643v-4.4058h6.8643v-6.3833h4.5762v6.3833h6.8838v4.4058h-6.8838v6.3837h-4.5762Z" />
        <path class="cls-3" d="M574.654,78.0691v-6.3837h-6.8662v-4.4058h6.8662v-6.3833h4.5762v6.3833h6.8837v4.4058h-6.8837v6.3837h-4.5762Z" />
        <path class="cls-3" d="M603.36,78.0691v-6.3837h-6.8662v-4.4058h6.8662v-6.3833h4.5772v6.3833h6.8818v4.4058h-6.8818v6.3837h-4.5772Z" />
        <path class="cls-3" d="M632.0671,78.0691v-6.3837h-6.8672v-4.4058h6.8672v-6.3833h4.5761v6.3833h6.8819v4.4058h-6.8819v6.3837h-4.5761Z" />
        <path class="cls-3" d="M660.7712,78.0691v-6.3837h-6.8643v-4.4058h6.8643v-6.3833h4.5761v6.3833h6.8848v4.4058h-6.8848v6.3837h-4.5761Z" />
        <path class="cls-3" d="M689.4782,78.0691v-6.3837h-6.8662v-4.4058h6.8662v-6.3833h4.5771v6.3833h6.8829v4.4058h-6.8829v6.3837h-4.5771Z" />
        <path class="cls-3" d="M718.1823,78.0691v-6.3837h-6.8643v-4.4058h6.8643v-6.3833h4.5771v6.3833h6.8829v4.4058h-6.8829v6.3837h-4.5771Z" />
        <path class="cls-3" d="M746.8884,78.0691v-6.3837h-6.8653v-4.4058h6.8653v-6.3833h4.5771v6.3833h6.8828v4.4058h-6.8828v6.3837h-4.5771Z" />
        <path class="cls-3" d="M775.5954,78.0691v-6.3837h-6.8662v-4.4058h6.8662v-6.3833h4.5762v6.3833h6.8828v4.4058h-6.8828v6.3837h-4.5762Z" />
        <path class="cls-3" d="M804.2995,78.0691v-6.3837h-6.8652v-4.4058h6.8652v-6.3833h4.5771v6.3833h6.8838v4.4058h-6.8838v6.3837h-4.5771Z" />
        <path class="cls-3" d="M488.5358,104.7562v-6.3829h-6.8642v-4.4062h6.8642v-6.3838h4.5781v6.3838h6.8829v4.4062h-6.8829v6.3829h-4.5781Z" />
        <path class="cls-3" d="M517.2428,104.7562v-6.3829h-6.8662v-4.4062h6.8662v-6.3838h4.5772v6.3838h6.8838v4.4062h-6.8838v6.3829h-4.5772Z" />
        <path class="cls-3" d="M545.9489,104.7562v-6.3829h-6.8643v-4.4062h6.8643v-6.3838h4.5762v6.3838h6.8838v4.4062h-6.8838v6.3829h-4.5762Z" />
        <path class="cls-3" d="M574.654,104.7562v-6.3829h-6.8662v-4.4062h6.8662v-6.3838h4.5762v6.3838h6.8837v4.4062h-6.8837v6.3829h-4.5762Z" />
        <path class="cls-3" d="M603.36,104.7562v-6.3829h-6.8662v-4.4062h6.8662v-6.3838h4.5772v6.3838h6.8818v4.4062h-6.8818v6.3829h-4.5772Z" />
        <path class="cls-3" d="M632.0671,104.7562v-6.3829h-6.8672v-4.4062h6.8672v-6.3838h4.5761v6.3838h6.8819v4.4062h-6.8819v6.3829h-4.5761Z" />
        <path class="cls-3" d="M660.7712,104.7562v-6.3829h-6.8643v-4.4062h6.8643v-6.3838h4.5761v6.3838h6.8848v4.4062h-6.8848v6.3829h-4.5761Z" />
        <path class="cls-3" d="M689.4782,104.7562v-6.3829h-6.8662v-4.4062h6.8662v-6.3838h4.5771v6.3838h6.8829v4.4062h-6.8829v6.3829h-4.5771Z" />
        <path class="cls-3" d="M718.1823,104.7562v-6.3829h-6.8643v-4.4062h6.8643v-6.3838h4.5771v6.3838h6.8829v4.4062h-6.8829v6.3829h-4.5771Z" />
        <path class="cls-3" d="M746.8884,104.7562v-6.3829h-6.8653v-4.4062h6.8653v-6.3838h4.5771v6.3838h6.8828v4.4062h-6.8828v6.3829h-4.5771Z" />
        <path class="cls-3" d="M775.5954,104.7562v-6.3829h-6.8662v-4.4062h6.8662v-6.3838h4.5762v6.3838h6.8828v4.4062h-6.8828v6.3829h-4.5762Z" />
        <path class="cls-3" d="M804.2995,104.7562v-6.3829h-6.8652v-4.4062h6.8652v-6.3838h4.5771v6.3838h6.8838v4.4062h-6.8838v6.3829h-4.5771Z" />
        <path class="cls-3" d="M488.5358,131.4437v-6.3833h-6.8642v-4.4063h6.8642v-6.3833h4.5781v6.3833h6.8829v4.4063h-6.8829v6.3833h-4.5781Z" />
        <path class="cls-3" d="M517.2428,131.4437v-6.3833h-6.8662v-4.4063h6.8662v-6.3833h4.5772v6.3833h6.8838v4.4063h-6.8838v6.3833h-4.5772Z" />
        <path class="cls-3" d="M545.9489,131.4437v-6.3833h-6.8643v-4.4063h6.8643v-6.3833h4.5762v6.3833h6.8838v4.4063h-6.8838v6.3833h-4.5762Z" />
        <path class="cls-3" d="M574.654,131.4437v-6.3833h-6.8662v-4.4063h6.8662v-6.3833h4.5762v6.3833h6.8837v4.4063h-6.8837v6.3833h-4.5762Z" />
        <path class="cls-3" d="M603.36,131.4437v-6.3833h-6.8662v-4.4063h6.8662v-6.3833h4.5772v6.3833h6.8818v4.4063h-6.8818v6.3833h-4.5772Z" />
        <path class="cls-3" d="M632.0671,131.4437v-6.3833h-6.8672v-4.4063h6.8672v-6.3833h4.5761v6.3833h6.8819v4.4063h-6.8819v6.3833h-4.5761Z" />
        <path class="cls-3" d="M660.7712,131.4437v-6.3833h-6.8643v-4.4063h6.8643v-6.3833h4.5761v6.3833h6.8848v4.4063h-6.8848v6.3833h-4.5761Z" />
        <path class="cls-3" d="M689.4782,131.4437v-6.3833h-6.8662v-4.4063h6.8662v-6.3833h4.5771v6.3833h6.8829v4.4063h-6.8829v6.3833h-4.5771Z" />
        <path class="cls-3" d="M718.1823,131.4437v-6.3833h-6.8643v-4.4063h6.8643v-6.3833h4.5771v6.3833h6.8829v4.4063h-6.8829v6.3833h-4.5771Z" />
        <path class="cls-3" d="M746.8884,131.4437v-6.3833h-6.8653v-4.4063h6.8653v-6.3833h4.5771v6.3833h6.8828v4.4063h-6.8828v6.3833h-4.5771Z" />
        <path class="cls-3" d="M775.5954,131.4437v-6.3833h-6.8662v-4.4063h6.8662v-6.3833h4.5762v6.3833h6.8828v4.4063h-6.8828v6.3833h-4.5762Z" />
        <path class="cls-3" d="M804.2995,131.4437v-6.3833h-6.8652v-4.4063h6.8652v-6.3833h4.5771v6.3833h6.8838v4.4063h-6.8838v6.3833h-4.5771Z" />
        <path class="cls-3" d="M833.0065,131.4437v-6.3833h-6.8652v-4.4063h6.8652v-6.3833h4.5762v6.3833h6.8848v4.4063h-6.8848v6.3833h-4.5762Z" />
        <path class="cls-3" d="M488.5358,158.1312v-6.3833h-6.8642v-4.4068h6.8642v-6.3828h4.5781v6.3828h6.8829v4.4068h-6.8829v6.3833h-4.5781Z" />
        <path class="cls-3" d="M517.2428,158.1312v-6.3833h-6.8662v-4.4068h6.8662v-6.3828h4.5772v6.3828h6.8838v4.4068h-6.8838v6.3833h-4.5772Z" />
        <path class="cls-3" d="M545.9489,158.1312v-6.3833h-6.8643v-4.4068h6.8643v-6.3828h4.5762v6.3828h6.8838v4.4068h-6.8838v6.3833h-4.5762Z" />
        <path class="cls-3" d="M574.654,158.1312v-6.3833h-6.8662v-4.4068h6.8662v-6.3828h4.5762v6.3828h6.8837v4.4068h-6.8837v6.3833h-4.5762Z" />
        <path class="cls-3" d="M603.36,158.1312v-6.3833h-6.8662v-4.4068h6.8662v-6.3828h4.5772v6.3828h6.8818v4.4068h-6.8818v6.3833h-4.5772Z" />
        <path class="cls-3" d="M632.0671,158.1312v-6.3833h-6.8672v-4.4068h6.8672v-6.3828h4.5761v6.3828h6.8819v4.4068h-6.8819v6.3833h-4.5761Z" />
        <path class="cls-3" d="M660.7712,158.1312v-6.3833h-6.8643v-4.4068h6.8643v-6.3828h4.5761v6.3828h6.8848v4.4068h-6.8848v6.3833h-4.5761Z" />
        <path class="cls-3" d="M689.4782,158.1312v-6.3833h-6.8662v-4.4068h6.8662v-6.3828h4.5771v6.3828h6.8829v4.4068h-6.8829v6.3833h-4.5771Z" />
        <path class="cls-3" d="M718.1823,158.1312v-6.3833h-6.8643v-4.4068h6.8643v-6.3828h4.5771v6.3828h6.8829v4.4068h-6.8829v6.3833h-4.5771Z" />
        <path class="cls-3" d="M746.8884,158.1312v-6.3833h-6.8653v-4.4068h6.8653v-6.3828h4.5771v6.3828h6.8828v4.4068h-6.8828v6.3833h-4.5771Z" />
        <path class="cls-3" d="M775.5954,158.1312v-6.3833h-6.8662v-4.4068h6.8662v-6.3828h4.5762v6.3828h6.8828v4.4068h-6.8828v6.3833h-4.5762Z" />
        <path class="cls-3" d="M804.2995,158.1312v-6.3833h-6.8652v-4.4068h6.8652v-6.3828h4.5771v6.3828h6.8838v4.4068h-6.8838v6.3833h-4.5771Z" />
        <path class="cls-3" d="M833.0065,158.1312v-6.3833h-6.8652v-4.4068h6.8652v-6.3828h4.5762v6.3828h6.8848v4.4068h-6.8848v6.3833h-4.5762Z" />
        <path class="cls-3" d="M488.5358,184.8187v-6.3843h-6.8642v-4.4058h6.8642v-6.3833h4.5781v6.3833h6.8829v4.4058h-6.8829v6.3843h-4.5781Z" />
        <path class="cls-3" d="M517.2428,184.8187v-6.3843h-6.8662v-4.4058h6.8662v-6.3833h4.5772v6.3833h6.8838v4.4058h-6.8838v6.3843h-4.5772Z" />
        <path class="cls-3" d="M545.9489,184.8187v-6.3843h-6.8643v-4.4058h6.8643v-6.3833h4.5762v6.3833h6.8838v4.4058h-6.8838v6.3843h-4.5762Z" />
        <path class="cls-3" d="M574.654,184.8187v-6.3843h-6.8662v-4.4058h6.8662v-6.3833h4.5762v6.3833h6.8837v4.4058h-6.8837v6.3843h-4.5762Z" />
        <path class="cls-3" d="M603.36,184.8187v-6.3843h-6.8662v-4.4058h6.8662v-6.3833h4.5772v6.3833h6.8818v4.4058h-6.8818v6.3843h-4.5772Z" />
        <path class="cls-3" d="M632.0671,184.8187v-6.3843h-6.8672v-4.4058h6.8672v-6.3833h4.5761v6.3833h6.8819v4.4058h-6.8819v6.3843h-4.5761Z" />
        <path class="cls-3" d="M660.7712,184.8187v-6.3843h-6.8643v-4.4058h6.8643v-6.3833h4.5761v6.3833h6.8848v4.4058h-6.8848v6.3843h-4.5761Z" />
        <path class="cls-3" d="M689.4782,184.8187v-6.3843h-6.8662v-4.4058h6.8662v-6.3833h4.5771v6.3833h6.8829v4.4058h-6.8829v6.3843h-4.5771Z" />
        <path class="cls-3" d="M718.1823,184.8187v-6.3843h-6.8643v-4.4058h6.8643v-6.3833h4.5771v6.3833h6.8829v4.4058h-6.8829v6.3843h-4.5771Z" />
        <path class="cls-3" d="M746.8884,184.8187v-6.3843h-6.8653v-4.4058h6.8653v-6.3833h4.5771v6.3833h6.8828v4.4058h-6.8828v6.3843h-4.5771Z" />
        <path class="cls-3" d="M775.5954,184.8187v-6.3843h-6.8662v-4.4058h6.8662v-6.3833h4.5762v6.3833h6.8828v4.4058h-6.8828v6.3843h-4.5762Z" />
        <path class="cls-3" d="M804.2995,184.8187v-6.3843h-6.8652v-4.4058h6.8652v-6.3833h4.5771v6.3833h6.8838v4.4058h-6.8838v6.3843h-4.5771Z" />
        <path class="cls-3" d="M833.0065,184.8187v-6.3843h-6.8652v-4.4058h6.8652v-6.3833h4.5762v6.3833h6.8848v4.4058h-6.8848v6.3843h-4.5762Z" />
        <path class="cls-3" d="M488.5358,211.5057v-6.3828h-6.8642v-4.4063h6.8642v-6.3833h4.5781v6.3833h6.8829v4.4063h-6.8829v6.3828h-4.5781Z" />
        <path class="cls-3" d="M517.2428,211.5057v-6.3828h-6.8662v-4.4063h6.8662v-6.3833h4.5772v6.3833h6.8838v4.4063h-6.8838v6.3828h-4.5772Z" />
        <path class="cls-3" d="M545.9489,211.5057v-6.3828h-6.8643v-4.4063h6.8643v-6.3833h4.5762v6.3833h6.8838v4.4063h-6.8838v6.3828h-4.5762Z" />
        <path class="cls-3" d="M574.654,211.5057v-6.3828h-6.8662v-4.4063h6.8662v-6.3833h4.5762v6.3833h6.8837v4.4063h-6.8837v6.3828h-4.5762Z" />
        <path class="cls-3" d="M603.36,211.5057v-6.3828h-6.8662v-4.4063h6.8662v-6.3833h4.5772v6.3833h6.8818v4.4063h-6.8818v6.3828h-4.5772Z" />
        <path class="cls-3" d="M632.0671,211.5057v-6.3828h-6.8672v-4.4063h6.8672v-6.3833h4.5761v6.3833h6.8819v4.4063h-6.8819v6.3828h-4.5761Z" />
        <path class="cls-3" d="M660.7712,211.5057v-6.3828h-6.8643v-4.4063h6.8643v-6.3833h4.5761v6.3833h6.8848v4.4063h-6.8848v6.3828h-4.5761Z" />
        <path class="cls-3" d="M689.4782,211.5057v-6.3828h-6.8662v-4.4063h6.8662v-6.3833h4.5771v6.3833h6.8829v4.4063h-6.8829v6.3828h-4.5771Z" />
        <path class="cls-3" d="M718.1823,211.5057v-6.3828h-6.8643v-4.4063h6.8643v-6.3833h4.5771v6.3833h6.8829v4.4063h-6.8829v6.3828h-4.5771Z" />
        <path class="cls-3" d="M746.8884,211.5057v-6.3828h-6.8653v-4.4063h6.8653v-6.3833h4.5771v6.3833h6.8828v4.4063h-6.8828v6.3828h-4.5771Z" />
        <path class="cls-3" d="M775.5954,211.5057v-6.3828h-6.8662v-4.4063h6.8662v-6.3833h4.5762v6.3833h6.8828v4.4063h-6.8828v6.3828h-4.5762Z" />
        <path class="cls-3" d="M804.2995,211.5057v-6.3828h-6.8652v-4.4063h6.8652v-6.3833h4.5771v6.3833h6.8838v4.4063h-6.8838v6.3828h-4.5771Z" />
        <path class="cls-3" d="M833.0065,211.5057v-6.3828h-6.8652v-4.4063h6.8652v-6.3833h4.5762v6.3833h6.8848v4.4063h-6.8848v6.3828h-4.5762Z" />
        <path class="cls-3" d="M488.5358,238.1932v-6.3838h-6.8642v-4.4063h6.8642v-6.3828h4.5781v6.3828h6.8829v4.4063h-6.8829v6.3838h-4.5781Z" />
        <path class="cls-3" d="M517.2428,238.1932v-6.3838h-6.8662v-4.4063h6.8662v-6.3828h4.5772v6.3828h6.8838v4.4063h-6.8838v6.3838h-4.5772Z" />
        <path class="cls-3" d="M545.9489,238.1932v-6.3838h-6.8643v-4.4063h6.8643v-6.3828h4.5762v6.3828h6.8838v4.4063h-6.8838v6.3838h-4.5762Z" />
        <path class="cls-3" d="M574.654,238.1932v-6.3838h-6.8662v-4.4063h6.8662v-6.3828h4.5762v6.3828h6.8837v4.4063h-6.8837v6.3838h-4.5762Z" />
        <path class="cls-3" d="M603.36,238.1932v-6.3838h-6.8662v-4.4063h6.8662v-6.3828h4.5772v6.3828h6.8818v4.4063h-6.8818v6.3838h-4.5772Z" />
        <path class="cls-3" d="M632.0671,238.1932v-6.3838h-6.8672v-4.4063h6.8672v-6.3828h4.5761v6.3828h6.8819v4.4063h-6.8819v6.3838h-4.5761Z" />
        <path class="cls-3" d="M660.7712,238.1932v-6.3838h-6.8643v-4.4063h6.8643v-6.3828h4.5761v6.3828h6.8848v4.4063h-6.8848v6.3838h-4.5761Z" />
        <path class="cls-3" d="M689.4782,238.1932v-6.3838h-6.8662v-4.4063h6.8662v-6.3828h4.5771v6.3828h6.8829v4.4063h-6.8829v6.3838h-4.5771Z" />
        <path class="cls-3" d="M718.1823,238.1932v-6.3838h-6.8643v-4.4063h6.8643v-6.3828h4.5771v6.3828h6.8829v4.4063h-6.8829v6.3838h-4.5771Z" />
        <path class="cls-3" d="M746.8884,238.1932v-6.3838h-6.8653v-4.4063h6.8653v-6.3828h4.5771v6.3828h6.8828v4.4063h-6.8828v6.3838h-4.5771Z" />
        <path class="cls-3" d="M775.5954,238.1932v-6.3838h-6.8662v-4.4063h6.8662v-6.3828h4.5762v6.3828h6.8828v4.4063h-6.8828v6.3838h-4.5762Z" />
        <path class="cls-3" d="M804.2995,238.1932v-6.3838h-6.8652v-4.4063h6.8652v-6.3828h4.5771v6.3828h6.8838v4.4063h-6.8838v6.3838h-4.5771Z" />
        <path class="cls-3" d="M488.5358,264.8807v-6.3828h-6.8642v-4.4073h6.8642v-6.3838h4.5781v6.3838h6.8829v4.4073h-6.8829v6.3828h-4.5781Z" />
        <path class="cls-3" d="M517.2428,264.8807v-6.3828h-6.8662v-4.4073h6.8662v-6.3838h4.5772v6.3838h6.8838v4.4073h-6.8838v6.3828h-4.5772Z" />
        <path class="cls-3" d="M545.9489,264.8807v-6.3828h-6.8643v-4.4073h6.8643v-6.3838h4.5762v6.3838h6.8838v4.4073h-6.8838v6.3828h-4.5762Z" />
        <path class="cls-3" d="M574.654,264.8807v-6.3828h-6.8662v-4.4073h6.8662v-6.3838h4.5762v6.3838h6.8837v4.4073h-6.8837v6.3828h-4.5762Z" />
        <path class="cls-3" d="M603.36,264.8807v-6.3828h-6.8662v-4.4073h6.8662v-6.3838h4.5772v6.3838h6.8818v4.4073h-6.8818v6.3828h-4.5772Z" />
        <path class="cls-3" d="M632.0671,264.8807v-6.3828h-6.8672v-4.4073h6.8672v-6.3838h4.5761v6.3838h6.8819v4.4073h-6.8819v6.3828h-4.5761Z" />
        <path class="cls-3" d="M660.7712,264.8807v-6.3828h-6.8643v-4.4073h6.8643v-6.3838h4.5761v6.3838h6.8848v4.4073h-6.8848v6.3828h-4.5761Z" />
        <path class="cls-3" d="M689.4782,264.8807v-6.3828h-6.8662v-4.4073h6.8662v-6.3838h4.5771v6.3838h6.8829v4.4073h-6.8829v6.3828h-4.5771Z" />
        <path class="cls-3" d="M718.1823,264.8807v-6.3828h-6.8643v-4.4073h6.8643v-6.3838h4.5771v6.3838h6.8829v4.4073h-6.8829v6.3828h-4.5771Z" />
        <path class="cls-3" d="M746.8884,264.8807v-6.3828h-6.8653v-4.4073h6.8653v-6.3838h4.5771v6.3838h6.8828v4.4073h-6.8828v6.3828h-4.5771Z" />
        <path class="cls-3" d="M775.5954,264.8807v-6.3828h-6.8662v-4.4073h6.8662v-6.3838h4.5762v6.3838h6.8828v4.4073h-6.8828v6.3828h-4.5762Z" />
        <path class="cls-3" d="M804.2995,264.8807v-6.3828h-6.8652v-4.4073h6.8652v-6.3838h4.5771v6.3838h6.8838v4.4073h-6.8838v6.3828h-4.5771Z" />
        <path class="cls-3" d="M488.5358,291.5682v-6.3828h-6.8642v-4.4073h6.8642v-6.3828h4.5781v6.3828h6.8829v4.4073h-6.8829v6.3828h-4.5781Z" />
        <path class="cls-3" d="M517.2428,291.5682v-6.3828h-6.8662v-4.4073h6.8662v-6.3828h4.5772v6.3828h6.8838v4.4073h-6.8838v6.3828h-4.5772Z" />
        <path class="cls-3" d="M545.9489,291.5682v-6.3828h-6.8643v-4.4073h6.8643v-6.3828h4.5762v6.3828h6.8838v4.4073h-6.8838v6.3828h-4.5762Z" />
        <path class="cls-3" d="M574.654,291.5682v-6.3828h-6.8662v-4.4073h6.8662v-6.3828h4.5762v6.3828h6.8837v4.4073h-6.8837v6.3828h-4.5762Z" />
        <path class="cls-3" d="M603.36,291.5682v-6.3828h-6.8662v-4.4073h6.8662v-6.3828h4.5772v6.3828h6.8818v4.4073h-6.8818v6.3828h-4.5772Z" />
        <path class="cls-3" d="M632.0671,291.5682v-6.3828h-6.8672v-4.4073h6.8672v-6.3828h4.5761v6.3828h6.8819v4.4073h-6.8819v6.3828h-4.5761Z" />
        <path class="cls-3" d="M660.7712,291.5682v-6.3828h-6.8643v-4.4073h6.8643v-6.3828h4.5761v6.3828h6.8848v4.4073h-6.8848v6.3828h-4.5761Z" />
        <path class="cls-3" d="M689.4782,291.5682v-6.3828h-6.8662v-4.4073h6.8662v-6.3828h4.5771v6.3828h6.8829v4.4073h-6.8829v6.3828h-4.5771Z" />
        <path class="cls-3" d="M718.1823,291.5682v-6.3828h-6.8643v-4.4073h6.8643v-6.3828h4.5771v6.3828h6.8829v4.4073h-6.8829v6.3828h-4.5771Z" />
        <path class="cls-3" d="M746.8884,291.5682v-6.3828h-6.8653v-4.4073h6.8653v-6.3828h4.5771v6.3828h6.8828v4.4073h-6.8828v6.3828h-4.5771Z" />
        <path class="cls-3" d="M775.5954,291.5682v-6.3828h-6.8662v-4.4073h6.8662v-6.3828h4.5762v6.3828h6.8828v4.4073h-6.8828v6.3828h-4.5762Z" />
        <path class="cls-3" d="M488.5358,318.2557v-6.3838h-6.8642v-4.4063h6.8642v-6.3828h4.5781v6.3828h6.8829v4.4063h-6.8829v6.3838h-4.5781Z" />
        <path class="cls-3" d="M517.2428,318.2557v-6.3838h-6.8662v-4.4063h6.8662v-6.3828h4.5772v6.3828h6.8838v4.4063h-6.8838v6.3838h-4.5772Z" />
        <path class="cls-3" d="M545.9489,318.2557v-6.3838h-6.8643v-4.4063h6.8643v-6.3828h4.5762v6.3828h6.8838v4.4063h-6.8838v6.3838h-4.5762Z" />
        <path class="cls-3" d="M574.654,318.2557v-6.3838h-6.8662v-4.4063h6.8662v-6.3828h4.5762v6.3828h6.8837v4.4063h-6.8837v6.3838h-4.5762Z" />
        <path class="cls-3" d="M603.36,318.2557v-6.3838h-6.8662v-4.4063h6.8662v-6.3828h4.5772v6.3828h6.8818v4.4063h-6.8818v6.3838h-4.5772Z" />
        <path class="cls-3" d="M632.0671,318.2557v-6.3838h-6.8672v-4.4063h6.8672v-6.3828h4.5761v6.3828h6.8819v4.4063h-6.8819v6.3838h-4.5761Z" />
        <path class="cls-3" d="M660.7712,318.2557v-6.3838h-6.8643v-4.4063h6.8643v-6.3828h4.5761v6.3828h6.8848v4.4063h-6.8848v6.3838h-4.5761Z" />
        <path class="cls-3" d="M689.4782,318.2557v-6.3838h-6.8662v-4.4063h6.8662v-6.3828h4.5771v6.3828h6.8829v4.4063h-6.8829v6.3838h-4.5771Z" />
        <path class="cls-3" d="M718.1823,318.2557v-6.3838h-6.8643v-4.4063h6.8643v-6.3828h4.5771v6.3828h6.8829v4.4063h-6.8829v6.3838h-4.5771Z" />
    </g>
    <path class="cls-3" d="M747.1823,24.6941v-6.3828h-6.8643v-4.4072h6.8643v-5.0791l4.5771,2v3.0791h6.8829v4.4072h-6.8829v6.3828h-4.5771Z" />
    <path class="cls-3" d="M833.0065,104.7562v-6.3829h-6.8652v-4.4062h6.8652v-6.3838h4.5772v6.3838h3.0361l1.2178,4.4062h-4.2539v6.3829h-4.5772Z" />
    <path class="cls-3" d="M833.0065,238.1932v-6.3838h-6.8652v-4.4063h6.8652v-6.3828h4.5772v6.3828h4.2861l-2.125,4.4063h-2.1611l-1.0889,6.3838h-3.4883Z" />
    <path class="cls-3" d="M746.8874,314.95v-3.0781h-6.8643v-4.4063h6.8643v-6.3828h4.5771v6.3828h6.8828v3.6094l-6.8828,.7969v1.9531l-4.5771,1.125Z" />
    <path class="cls-3" d="M804.3005,51.3821v-6.3842h-6.8662v-4.4063h3.3525l1.334,2.2041,5.2099,4.5693,.4893-1.3779,.4668,1.1294,.25,1,.3398,.417v2.8486h-4.5761Z" />
    <path class="cls-3" d="M800.0378,283.784l-1.25,1.4014h-1.3535v-4.4073h6.8662v-6.3828h4.5761v1.2217l-3.4228,4.1728-2.1885,2.0772-.6445,.75-1.167,.917-1.416,.25Z" />
    <path class="cls-3" d="M475.12,.5V323.24H161.87C72.75,323.24,.5,250.99,.5,161.87S72.75,.5,161.87,.5H475.12Zm-161.9328,74.4012V32.0057h-28.3691v42.8955h-44.4336v27.6855h44.4336v43.75h28.3691v-43.75h44.4336v-27.6855h-44.4336Zm-115.5996,131.1338h7.9126l-10.064-42.9849h-10.5747l-9.5542,42.9849h7.5483l2.0059-9.3526h10.6113l2.1148,9.3526Zm-11.4868-15.4942l3.9751-19.2407,4.0839,19.2407h-8.059Zm37.4497-1.9209c2.5039,0,4.582-.2202,6.2363-.6611,1.6528-.4409,3.0625-1.1445,4.2295-2.1094,2.626-2.1836,3.9385-5.5215,3.9385-10.0141s-1.3125-7.8306-3.9385-10.0147c-2.2124-1.8467-5.7012-2.7705-10.4658-2.7705h-12.7984v42.9849h7.73v-17.4151h5.0684Zm-5.0684-19.4297h3.355c2.8442,0,4.8369,.3892,5.9805,1.1651,1.4585,.9448,2.1879,2.7715,2.1879,5.48s-.7294,4.5341-2.1879,5.4794c-1.1436,.7764-3.1363,1.1646-5.9805,1.1646h-3.355v-13.2891Zm50.9053,2.2671c-.3408-1.8052-1.1304-3.4424-2.3701-4.9121-2.3096-2.7505-5.8833-4.1255-10.7203-4.1255s-8.4238,1.375-10.7578,4.1255c-1.021,1.2173-1.75,2.6138-2.1875,4.1885-.438,1.5742-.6562,3.5693-.6562,5.9829v15.6509c0,1.8891,.1577,3.643,.4736,5.2593,.3648,1.8056,1.1543,3.4443,2.3701,4.9121,2.3096,2.7509,5.8951,4.1259,10.7578,4.1259,4.837,0,8.4107-1.375,10.7203-4.1259,1.0214-1.2168,1.7509-2.6133,2.1879-4.1885,.4375-1.5742,.6563-3.5684,.6563-5.9829v-15.6509c0-1.8892-.1582-3.6416-.4741-5.2593Zm-18.8521,2.2676c.0728-.9863,.3643-1.8999,.8755-2.7397,.9234-1.5533,2.5523-2.3301,4.8862-2.3301,3.0137,0,4.8619,1.312,5.543,3.936,.1939,.7559,.2905,2.1734,.2905,4.2515v15.3994c0,1.2178-.0356,2.2461-.1088,3.085-.0728,1.0078-.3648,1.9326-.875,2.7714-.9244,1.5547-2.5406,2.3301-4.8497,2.3301-3.0146,0-4.8745-1.3223-5.5791-3.9668-.1958-.7558-.2919-2.1621-.2919-4.2197v-15.3994c0-1.2173,.0366-2.2564,.1093-3.1177Zm50.9785-4.5347v-6.1401h-27.0214v6.1401h9.664v36.8448h7.7305v-36.8448h9.6269Zm22.8999,36.8448h7.7305v-42.9849h-7.7305v17.918h-10.9033v-17.918h-7.7304v42.9849h7.7304v-18.9263h10.9033v18.9263Zm15.2789-42.9849v42.9849h22.5722v-6.1416h-14.8418v-13.2569h10.94v-6.1406h-10.94v-11.3057h14.8418v-6.1401h-22.5722Zm27.8598,0v42.9849h22.5713v-6.1416h-14.8408v-13.2569h10.9394v-6.1406h-10.9394v-11.3057h14.8408v-6.1401h-22.5713Zm27.8589,0v42.9849h7.73v-14.2657l4.0849-6.0146,8.3877,20.2803h8.4229l-12.0332-27.3663,10.5381-15.6186h-8.2774l-11.123,17.7915v-17.7915h-7.73Zm-220.0352,50.7681v51.4189h26.4019v-7.3447h-17.3594v-15.8594h12.7954v-7.3447h-12.7954v-13.5244h17.3594v-7.3457h-26.4019Zm41.3213,0v51.4189h26.9566v-7.3447h-17.9141v-44.0742h-9.0425Zm56.25,30.5879c2.9283,0,5.3594-.2637,7.2935-.7901,1.9331-.5273,3.5825-1.3691,4.9473-2.5254,3.0712-2.6113,4.6064-6.6045,4.6064-11.9775s-1.5352-9.3682-4.6064-11.9805c-2.5874-2.2099-6.668-3.3144-12.2408-3.3144h-14.9712v51.4189h9.0425v-20.831h5.9287Zm-5.9287-23.2422h3.9239c3.3266,0,5.6582,.4648,6.9951,1.3935,1.706,1.1299,2.5591,3.3155,2.5591,6.5557s-.8531,5.4248-2.5591,6.5547c-1.3369,.9277-3.6685,1.3935-6.9951,1.3935h-3.9239v-15.8974Zm37.6533-7.3457v51.4189h26.4014v-7.3447h-17.3594v-15.8594h12.7959v-7.3447h-12.7959v-13.5244h17.3594v-7.3457h-26.4014Zm55.7378,30.3242l7.7198,21.0947h9.4687l-8.5727-23.3164c5.2314-2.3857,7.8481-6.8428,7.8481-13.374,0-5.0967-1.7349-8.9785-5.2036-11.6397-2.6733-2.0586-6.5117-3.0888-11.5161-3.0888h-14.1607v51.4189h9.0425v-21.0947h5.374Zm-5.374-22.9785h3.2842c1.5352,0,2.8428,.0752,3.9238,.2265,1.2222,.1758,2.2608,.6533,3.1138,1.4317,1.478,1.2793,2.2178,3.3271,2.2178,6.1406,0,3.8174-1.3223,6.2275-3.9668,7.2314-1.0523,.4014-2.815,.6036-5.2886,.6036h-3.2842v-15.6338Zm52.2832-8.0987c-4.0957,0-7.522,1.0157-10.2798,3.0508-3.27,2.3613-4.9048,5.5625-4.9048,9.6074,0,4.0674,2.0186,7.8223,6.0567,11.2618,.8808,.7539,3.5117,2.6377,7.8906,5.6513,3.0137,2.084,5.1465,3.7676,6.3975,5.0469,1.5078,1.5078,2.2607,3.1641,2.2607,4.9736,0,1.7315-.5967,3.1397-1.791,4.2178-1.1943,1.1055-2.8154,1.6572-4.8623,1.6572-4.8633,0-7.8906-3.0752-9.085-9.2285l-8.6157,2.2217c1.8477,9.6445,7.7481,14.4658,17.7007,14.4658,4.834,0,8.7148-1.2422,11.6436-3.7295,2.872-2.4355,4.3076-5.5488,4.3076-9.3428,0-3.6152-1.251-6.7666-3.753-9.4541-1.6201-1.7324-4.5205-4.0292-8.7011-6.8935-4.0948-2.7627-6.668-4.6465-7.7198-5.6504-1.6211-1.5576-2.4316-3.2773-2.4316-5.1611,0-1.5323,.583-2.7998,1.749-3.8047,1.1084-.9551,2.4737-1.4307,4.0948-1.4307,3.7812,0,6.3691,2.5488,7.7626,7.6465l8.6163-2.2598c-2.503-8.5634-7.9483-12.8457-16.336-12.8457Zm-231.9463,61.9453v15.9961h7.2539v-2.2852h-4.7695v-4.9336h3.5156v-2.2852h-3.5156v-4.207h4.7695v-2.2852h-7.2539Zm8.9531,0v15.9961h7.2539v-2.2852h-4.7695v-4.9336h3.5156v-2.2852h-3.5156v-4.207h4.7695v-2.2852h-7.2539Zm15.4688,0v9.9492l-4.0312-9.9492h-2.4844v15.9961h2.3555v-10.6406l4.2891,10.6406h2.2266v-15.9961h-2.3555Zm12.5859,9.5156c.8047,0,1.4727-.082,2.0039-.2461s.9844-.4258,1.3594-.7852c.8438-.8125,1.2656-2.0547,1.2656-3.7266s-.4219-2.9141-1.2656-3.7266c-.7109-.6875-1.832-1.0312-3.3633-1.0312h-4.1133v15.9961h2.4844v-6.4805h1.6289Zm-1.6289-7.2305h1.0781c.9141,0,1.5547,.1445,1.9219,.4336,.4688,.3516,.7031,1.0312,.7031,2.0391s-.2344,1.6875-.7031,2.0391c-.3672,.2891-1.0078,.4336-1.9219,.4336h-1.0781v-4.9453Zm7.9453-2.2852v15.9961h7.4062v-2.2852h-4.9219v-13.7109h-2.4844Zm14.918,11.2383c0,.9141-.1172,1.5664-.3516,1.957-.2812,.4766-.7461,.7148-1.3945,.7148s-1.1133-.2383-1.3945-.7148c-.2344-.3984-.3516-1.0508-.3516-1.957v-11.2383h-2.4844v10.8398c0,.7734,.0469,1.4688,.1406,2.0859,.1016,.6875,.3633,1.3086,.7852,1.8633,.7266,.9609,1.8281,1.4414,3.3047,1.4414,1.9844,0,3.2812-.8398,3.8906-2.5195,.2266-.625,.3398-1.582,.3398-2.8711v-10.8398h-2.4844v11.2383Zm8.8359-11.4727c-1.125,0-2.0664,.3164-2.8242,.9492-.8984,.7344-1.3477,1.7305-1.3477,2.9883,0,1.2656,.5547,2.4336,1.6641,3.5039,.2422,.2344,.9648,.8203,2.168,1.7578,.8281,.6484,1.4141,1.1719,1.7578,1.5703,.4141,.4688,.6211,.9844,.6211,1.5469,0,.5391-.1641,.9766-.4922,1.3125-.3281,.3438-.7734,.5156-1.3359,.5156-1.3359,0-2.168-.957-2.4961-2.8711l-2.3672,.6914c.5078,3,2.1289,4.5,4.8633,4.5,1.3281,0,2.3945-.3867,3.1992-1.1602,.7891-.7578,1.1836-1.7266,1.1836-2.9062,0-1.125-.3438-2.1055-1.0312-2.9414-.4453-.5391-1.2422-1.2539-2.3906-2.1445-1.125-.8594-1.832-1.4453-2.1211-1.7578-.4453-.4844-.668-1.0195-.668-1.6055,0-.4766,.1602-.8711,.4805-1.1836,.3047-.2969,.6797-.4453,1.125-.4453,1.0391,0,1.75,.793,2.1328,2.3789l2.3672-.7031c-.6875-2.6641-2.1836-3.9961-4.4883-3.9961Zm18.7617,.2344h-2.5078l-2.1094,12.1641-2.4141-12.1641h-2.5547l3.4336,15.9961h3.0703l3.082-15.9961Zm10.043,3.1289c-.1094-.6719-.3633-1.2812-.7617-1.8281-.7422-1.0234-1.8906-1.5352-3.4453-1.5352s-2.707,.5117-3.457,1.5352c-.3281,.4531-.5625,.9727-.7031,1.5586s-.2109,1.3281-.2109,2.2266v5.8242c0,.7031,.0508,1.3555,.1523,1.957,.1172,.6719,.3711,1.2812,.7617,1.8281,.7422,1.0234,1.8945,1.5352,3.457,1.5352,1.5547,0,2.7031-.5117,3.4453-1.5352,.3281-.4531,.5625-.9727,.7031-1.5586s.2109-1.3281,.2109-2.2266v-5.8242c0-.7031-.0508-1.3555-.1523-1.957Zm-6.0586,.8438c.0234-.3672,.1172-.707,.2812-1.0195,.2969-.5781,.8203-.8672,1.5703-.8672,.9688,0,1.5625,.4883,1.7812,1.4648,.0625,.2812,.0938,.8086,.0938,1.582v5.7305c0,.4531-.0117,.8359-.0352,1.1484-.0234,.375-.1172,.7188-.2812,1.0312-.2969,.5781-.8164,.8672-1.5586,.8672-.9688,0-1.5664-.4922-1.793-1.4766-.0625-.2812-.0938-.8047-.0938-1.5703v-5.7305c0-.4531,.0117-.8398,.0352-1.1602Zm16.9102-.8438c-.1094-.6719-.3633-1.2812-.7617-1.8281-.7422-1.0234-1.8906-1.5352-3.4453-1.5352s-2.707,.5117-3.457,1.5352c-.3281,.4531-.5625,.9727-.7031,1.5586s-.2109,1.3281-.2109,2.2266v5.8242c0,.7031,.0508,1.3555,.1523,1.957,.1172,.6719,.3711,1.2812,.7617,1.8281,.7422,1.0234,1.8945,1.5352,3.457,1.5352,1.5547,0,2.7031-.5117,3.4453-1.5352,.3281-.4531,.5625-.9727,.7031-1.5586s.2109-1.3281,.2109-2.2266v-5.8242c0-.7031-.0508-1.3555-.1523-1.957Zm-6.0586,.8438c.0234-.3672,.1172-.707,.2812-1.0195,.2969-.5781,.8203-.8672,1.5703-.8672,.9688,0,1.5625,.4883,1.7812,1.4648,.0625,.2812,.0938,.8086,.0938,1.582v5.7305c0,.4531-.0117,.8359-.0352,1.1484-.0234,.375-.1172,.7188-.2812,1.0312-.2969,.5781-.8164,.8672-1.5586,.8672-.9688,0-1.5664-.4922-1.793-1.4766-.0625-.2812-.0938-.8047-.0938-1.5703v-5.7305c0-.4531,.0117-.8398,.0352-1.1602Zm12.457,5.4609l2.1211,6.5625h2.6016l-2.3555-7.2539c1.4375-.7422,2.1562-2.1289,2.1562-4.1602,0-1.5859-.4766-2.793-1.4297-3.6211-.7344-.6406-1.7891-.9609-3.1641-.9609h-3.8906v15.9961h2.4844v-6.5625h1.4766Zm-1.4766-7.1484h.9023c.4219,0,.7812,.0234,1.0781,.0703,.3359,.0547,.6211,.2031,.8555,.4453,.4062,.3984,.6094,1.0352,.6094,1.9102,0,1.1875-.3633,1.9375-1.0898,2.25-.2891,.125-.7734,.1875-1.4531,.1875h-.9023v-4.8633Zm17.707,8.9531c0,.9141-.1172,1.5664-.3516,1.957-.2812,.4766-.7461,.7148-1.3945,.7148s-1.1133-.2383-1.3945-.7148c-.2344-.3984-.3516-1.0508-.3516-1.957v-11.2383h-2.4844v10.8398c0,.7734,.0469,1.4688,.1406,2.0859,.1016,.6875,.3633,1.3086,.7852,1.8633,.7266,.9609,1.8281,1.4414,3.3047,1.4414,1.9844,0,3.2812-.8398,3.8906-2.5195,.2266-.625,.3398-1.582,.3398-2.8711v-10.8398h-2.4844v11.2383Zm18.5156-11.2383h-2.3203l-1.6172,10.3125-2.0977-10.3125h-2.1562l-1.9219,10.3125-1.8164-10.3125h-2.4023l2.9883,15.9961h2.332l1.9219-10.8516,2.0625,10.8516h2.3203l2.707-15.9961Zm9.4453,10.0898h2.0273v.6445c0,.9844-.1094,1.7227-.3281,2.2148-.2812,.6406-.7812,.9609-1.5,.9609-.8516,0-1.4102-.4062-1.6758-1.2188-.1797-.5391-.2695-1.4062-.2695-2.6016v-4.8867c0-.4766,.0156-.8906,.0469-1.2422,.0312-.375,.1328-.7266,.3047-1.0547,.2891-.5469,.7812-.8203,1.4766-.8203,.75,0,1.2812,.3516,1.5938,1.0547,.1875,.4297,.2812,1.1172,.2812,2.0625h2.4844c.0078-1.4531-.1836-2.5547-.5742-3.3047-.7344-1.4219-1.9922-2.1328-3.7734-2.1328-.8047,0-1.5234,.1562-2.1562,.4688-.9141,.4531-1.5391,1.207-1.875,2.2617-.1953,.5938-.293,1.6562-.293,3.1875v4.4062c0,.7969,.0312,1.5156,.0938,2.1562,.0703,.7578,.2734,1.4609,.6094,2.1094,.3047,.5859,.748,1.0449,1.3301,1.377s1.2402,.498,1.9746,.498c.7734,0,1.4453-.1914,2.0156-.5742,.3281-.2266,.6602-.5664,.9961-1.0195l.4336,1.3594h1.2891v-7.9453h-4.5117v2.0391Zm6.6914-10.0898v15.9961h7.2539v-2.2852h-4.7695v-4.9336h3.5156v-2.2852h-3.5156v-4.207h4.7695v-2.2852h-7.2539Zm10.9453,13.7109l5.5781-11.4258v-2.2852h-7.7812v2.2852h5.0742l-5.6016,11.3789v2.332h8.3789v-2.2852h-5.6484Zm15.7617-10.582c-.1094-.6719-.3633-1.2812-.7617-1.8281-.7422-1.0234-1.8906-1.5352-3.4453-1.5352s-2.707,.5117-3.457,1.5352c-.3281,.4531-.5625,.9727-.7031,1.5586s-.2109,1.3281-.2109,2.2266v5.8242c0,.7031,.0508,1.3555,.1523,1.957,.1172,.6719,.3711,1.2812,.7617,1.8281,.7422,1.0234,1.8945,1.5352,3.457,1.5352,1.5547,0,2.7031-.5117,3.4453-1.5352,.3281-.4531,.5625-.9727,.7031-1.5586s.2109-1.3281,.2109-2.2266v-5.8242c0-.7031-.0508-1.3555-.1523-1.957Zm-6.0586,.8438c.0234-.3672,.1172-.707,.2812-1.0195,.2969-.5781,.8203-.8672,1.5703-.8672,.9688,0,1.5625,.4883,1.7812,1.4648,.0625,.2812,.0938,.8086,.0938,1.582v5.7305c0,.4531-.0117,.8359-.0352,1.1484-.0234,.375-.1172,.7188-.2812,1.0312-.2969,.5781-.8164,.8672-1.5586,.8672-.9688,0-1.5664-.4922-1.793-1.4766-.0625-.2812-.0938-.8047-.0938-1.5703v-5.7305c0-.4531,.0117-.8398,.0352-1.1602Zm15.0117-3.9727v9.9492l-4.0312-9.9492h-2.4844v15.9961h2.3555v-10.6406l4.2891,10.6406h2.2266v-15.9961h-2.3555Zm8.707,15.9961c3.1094,0,4.6523-1.668,4.6289-5.0039v-5.9883c.0234-3.3359-1.5195-5.0039-4.6289-5.0039h-3.9141v15.9961h3.9141Zm-1.4297-13.7109h1.207c.8516,.0078,1.4609,.2617,1.8281,.7617,.2031,.2812,.3438,.6152,.4219,1.002s.1172,.9316,.1172,1.6348v4.6289c0,.5781-.0312,1.082-.0938,1.5117-.0625,.4219-.2109,.7969-.4453,1.125-.3672,.5-.9766,.7539-1.8281,.7617h-1.207v-11.4258Zm14.3203,13.7109h2.4844v-15.9961h-2.4844v6.668h-3.5039v-6.668h-2.4844v15.9961h2.4844v-7.043h3.5039v7.043Zm4.9102-15.9961v15.9961h7.2539v-2.2852h-4.7695v-4.9336h3.5156v-2.2852h-3.5156v-4.207h4.7695v-2.2852h-7.2539Zm8.9531,0v15.9961h2.4844v-15.9961h-2.4844Zm8.8242,15.9961c3.1094,0,4.6523-1.668,4.6289-5.0039v-5.9883c.0234-3.3359-1.5195-5.0039-4.6289-5.0039h-3.9141v15.9961h3.9141Zm-1.4297-13.7109h1.207c.8516,.0078,1.4609,.2617,1.8281,.7617,.2031,.2812,.3438,.6152,.4219,1.002s.1172,.9316,.1172,1.6348v4.6289c0,.5781-.0312,1.082-.0938,1.5117-.0625,.4219-.2109,.7969-.4453,1.125-.3672,.5-.9766,.7539-1.8281,.7617h-1.207v-11.4258Z" />
</svg>