<svg width="401" height="97" viewBox="0 0 401 97" fill="none" xmlns="http://www.w3.org/2000/svg">
<g clip-path="url(#clip0_117_46)">
<path d="M115.708 33.4231L117.154 31.9761C114.603 28.0321 111.858 24.0231 108.383 20.5521C83.2801 -4.53993 45.2541 -7.21193 19.7501 18.2801C-1.34887 39.3701 -4.70687 71.4711 9.66213 96.0721H50.1131C46.4351 94.3591 42.9881 91.9861 39.9521 88.9511C26.0061 75.0111 26.0061 52.4111 39.9521 38.4721C50.8251 27.6051 64.6331 26.2651 76.5671 32.1611L48.9161 59.8001L69.1171 79.9921L96.1341 52.9871L115.708 33.4231ZM90.4561 88.9511C87.4201 91.9861 83.9731 94.3591 80.2951 96.0721H120.734C124.62 89.4121 127.199 82.2031 128.486 74.8121H99.1111C97.4291 79.9801 94.5641 84.8451 90.4561 88.9511Z" fill="white"/>
<path d="M389.764 35.6381H399.589C398.926 28.6021 393.442 25.2051 386.752 25.2051C380.302 25.2051 373.794 29.2011 373.794 36.1171C373.794 40.7651 377.772 43.3291 381.749 44.7611C383.196 45.2961 384.641 45.7741 386.089 46.2501C387.896 46.9661 390.608 47.6811 390.608 50.0651C390.608 51.7961 388.62 52.6301 387.113 52.6301C385.125 52.6301 383.618 51.6171 383.316 49.5891H373.372C374.155 56.8631 380.002 60.5591 386.993 60.5591C393.803 60.5591 400.614 56.7431 400.614 49.2911C400.614 37.6061 383.799 40.5271 383.799 35.3411C383.799 33.8501 385.305 33.1341 386.632 33.1341C388.38 33.1341 389.704 33.7891 389.764 35.6381ZM366.085 56.3251C368.796 52.9881 369.097 50.2451 369.097 46.1321V26.3361H359.092V44.6411C359.092 48.3971 358.249 51.3931 353.729 51.3931H353.257C348.736 51.3931 347.891 48.3971 347.891 44.6411V26.3361H337.887V46.1321C337.887 50.2451 338.189 52.9881 340.901 56.3251C343.271 59.1981 347.286 60.4131 350.893 60.5541C350.893 60.5541 352.197 60.6381 353.493 60.6381C354.831 60.6381 356.09 60.5541 356.09 60.5541C359.714 60.4131 363.714 59.1981 366.085 56.3251ZM322.013 59.5811H332.018V39.7871C332.018 35.6751 331.717 32.9331 329.005 29.5951C326.635 26.7221 322.635 25.5071 319.011 25.3671C319.011 25.3671 317.752 25.2831 316.413 25.2831C315.118 25.2831 313.815 25.3671 313.815 25.3671C311.077 25.4741 308.11 26.5561 305.799 28.1541C303.493 26.5561 300.532 25.4741 297.783 25.3671C297.783 25.3671 296.523 25.2831 295.184 25.2831C293.889 25.2831 292.587 25.3671 292.587 25.3671C288.977 25.5071 284.964 26.7221 282.593 29.5951C279.882 32.9331 279.58 35.6751 279.58 39.7871V59.5811H289.585V41.2791C289.585 37.5231 290.428 34.5201 294.948 34.5201H295.421C299.942 34.5201 300.786 37.5231 300.786 41.2791V59.5811H310.813V41.2791C310.813 37.5231 311.657 34.5201 316.176 34.5201H316.649C321.171 34.5201 322.013 37.5231 322.013 41.2791V59.5811ZM258.319 35.3411C258.319 33.8501 259.825 33.1341 261.151 33.1341C262.899 33.1341 264.225 33.7891 264.286 35.6381H274.109C273.446 28.6021 267.962 25.2051 261.272 25.2051C254.823 25.2051 248.314 29.2011 248.314 36.1171C248.314 40.7651 252.292 43.3291 256.269 44.7611C257.715 45.2961 259.163 45.7741 260.609 46.2501C262.417 46.9661 265.13 47.6811 265.13 50.0651C265.13 51.7961 263.139 52.6301 261.633 52.6301C259.644 52.6301 258.137 51.6171 257.837 49.5891H247.891C248.675 56.8631 254.522 60.5591 261.512 60.5591C268.323 60.5591 275.133 56.7431 275.133 49.2911C275.133 37.6061 258.319 40.5271 258.319 35.3411ZM232.764 59.4271H242.769V26.3391H232.764V29.8541H232.643C230.655 26.5771 226.557 25.2051 222.881 25.2051C212.815 25.2051 206.065 33.1951 206.065 42.8521C206.065 52.6881 212.575 60.5591 222.881 60.5591C226.497 60.5591 230.837 59.2471 232.643 55.8491H232.764V59.4271ZM232.764 42.8521C232.764 47.6211 229.268 51.3181 224.387 51.3181C219.686 51.3181 216.07 47.5611 216.07 42.9721C216.07 38.2611 219.446 34.4471 224.328 34.4471C229.21 34.4471 232.764 38.0231 232.764 42.8521ZM201.633 34.5971H203.65V25.2831C202.354 25.2831 199.272 25.3671 199.272 25.3671C195.662 25.5071 191.65 26.7221 189.278 29.5951C186.568 32.9331 186.265 35.6751 186.265 39.7871V59.5811H196.27V41.2791C196.27 37.5231 197.114 34.5971 201.633 34.5971ZM180.452 45.8931C180.632 44.9981 180.693 44.1621 180.693 43.2701C180.693 33.3131 173.28 25.2051 163.034 25.2051C153.209 25.2051 145.494 33.3711 145.494 42.9721C145.494 52.6301 153.451 60.4991 163.215 60.4991C170.549 60.4991 176.331 55.9161 179.303 49.5701H168.856C167.349 51.2551 165.682 52.1541 163.215 52.1541C159.298 52.1541 155.983 49.8271 155.38 45.8931H180.452ZM170.688 39.2161H155.5C156.284 35.6381 159.477 33.5521 163.094 33.5521C166.709 33.5521 169.905 35.6381 170.688 39.2161Z" fill="white"/>
<path d="M156.31 89.0552V82.8542H150.437V89.0552H148.357V74.8052H150.437V80.9482H156.31V74.8052H158.389V89.0552H156.31Z" fill="white"/>
<path d="M169.785 76.4421C167.57 76.4421 165.818 77.6361 164.952 79.6581C164.643 80.3701 164.451 81.1411 164.451 81.9301C164.451 82.7191 164.643 83.5091 164.952 84.2411C165.838 86.2441 167.59 87.4181 169.785 87.4181C172.135 87.4181 173.944 86.0711 174.753 83.8951C174.984 83.2961 175.119 82.6431 175.119 81.9881C175.119 78.9651 172.886 76.4421 169.785 76.4421ZM169.785 89.3251C165.703 89.3251 162.371 86.0121 162.371 81.9301C162.371 77.8091 165.683 74.5361 169.785 74.5361C173.944 74.5361 177.199 77.8281 177.199 81.9691C177.199 86.0321 173.848 89.3251 169.785 89.3251Z" fill="white"/>
<path d="M190.806 88.6311C189.844 89.0751 188.765 89.3251 187.706 89.3251C183.623 89.3251 180.408 86.0321 180.408 81.9691C180.408 77.8861 183.567 74.5361 187.687 74.5361C190.364 74.5361 192.809 76.0371 194.08 78.3871H191.654C190.595 77.1941 189.402 76.4421 187.764 76.4421C184.76 76.4421 182.488 79.0411 182.488 81.9691C182.488 84.8581 184.838 87.4181 187.784 87.4181C190.055 87.4181 191.885 85.9741 192.695 83.8751H186.05V81.9691H195.062C195.024 84.8961 193.502 87.3991 190.806 88.6311Z" fill="white"/>
<path d="M198.734 89.0552V74.8052H206.417V76.7112H200.813V80.9092H206.417V82.8162H200.813V87.1492H206.417V89.0552H198.734Z" fill="white"/>
<path d="M213.924 89.3251C211.324 89.3251 209.533 87.4181 209.533 84.8381H211.613C211.613 86.2251 212.422 87.4181 213.924 87.4181C215.348 87.4181 216.215 86.3981 216.215 85.0111C216.215 83.4911 215.117 83.1431 213.924 82.6811C211.709 81.8341 209.937 81.1781 209.937 78.4071C209.937 76.1921 211.748 74.5361 213.924 74.5361C216.292 74.5361 218.006 76.0951 218.006 78.5021H215.926C215.926 77.2701 215.156 76.4421 213.924 76.4421C212.883 76.4421 212.017 77.3461 212.017 78.3861C212.017 81.4111 218.295 79.6001 218.295 85.0111C218.295 87.5731 216.465 89.3251 213.924 89.3251Z" fill="white"/>
<path d="M232.772 78.4451C231.713 77.2121 230.441 76.4421 228.767 76.4421C225.762 76.4421 223.471 78.9261 223.471 81.8911C223.471 84.7801 225.762 87.4181 228.728 87.4181C230.23 87.4181 231.655 86.6671 232.618 85.5321H235.178C233.832 87.9001 231.443 89.3251 228.709 89.3251C224.646 89.3251 221.391 85.8971 221.391 81.8721C221.391 77.7891 224.666 74.5361 228.728 74.5361C230.25 74.5361 231.847 75.0371 233.081 75.9231C234.082 76.6351 234.678 77.3851 235.276 78.4451H232.772Z" fill="white"/>
<path d="M246.861 89.0552V82.8542H240.988V89.0552H238.908V74.8052H240.988V80.9482H246.861V74.8052H248.94V89.0552H246.861Z" fill="white"/>
<path d="M260.336 76.4421C258.121 76.4421 256.369 77.6361 255.503 79.6581C255.194 80.3701 255.002 81.1411 255.002 81.9301C255.002 82.7191 255.194 83.5091 255.503 84.2411C256.388 86.2441 258.14 87.4181 260.336 87.4181C262.685 87.4181 264.495 86.0711 265.303 83.8951C265.535 83.2961 265.67 82.6431 265.67 81.9881C265.67 78.9651 263.436 76.4421 260.336 76.4421ZM260.336 89.3251C256.254 89.3251 252.922 86.0121 252.922 81.9301C252.922 77.8091 256.234 74.5361 260.336 74.5361C264.495 74.5361 267.75 77.8281 267.75 81.9691C267.75 86.0321 264.399 89.3251 260.336 89.3251Z" fill="white"/>
<path d="M278.373 76.4421C276.158 76.4421 274.406 77.6361 273.54 79.6581C273.231 80.3701 273.039 81.1411 273.039 81.9301C273.039 82.7191 273.231 83.5091 273.54 84.2411C274.425 86.2441 276.177 87.4181 278.373 87.4181C280.722 87.4181 282.532 86.0711 283.34 83.8951C283.572 83.2961 283.707 82.6431 283.707 81.9881C283.707 78.9651 281.473 76.4421 278.373 76.4421ZM278.373 89.3251C274.291 89.3251 270.959 86.0121 270.959 81.9301C270.959 77.8091 274.271 74.5361 278.373 74.5361C282.532 74.5361 285.787 77.8281 285.787 81.9691C285.787 86.0321 282.436 89.3251 278.373 89.3251Z" fill="white"/>
<path d="M289.824 89.0552V74.8052H291.903V87.1492H296.852V89.0552H289.824Z" fill="white"/>
<path d="M320.894 83.5092C320.298 82.7192 319.489 82.6432 318.564 82.6432H316.562V87.1492H318.815C320.163 87.1492 321.395 86.3782 321.395 84.9142C321.395 84.4142 321.203 83.8952 320.894 83.5092ZM318.14 76.7112H316.562V80.7372H318.256C319.604 80.7372 320.548 80.1592 320.548 78.7342C320.548 77.2122 319.469 76.7112 318.14 76.7112ZM323.129 86.6292C322.339 88.4392 320.587 89.0552 318.738 89.0552H314.482V74.8052H318.179C319.989 74.8052 321.645 75.4212 322.339 77.1932C322.531 77.6942 322.628 78.2332 322.628 78.7522C322.628 79.9282 322.223 80.6982 321.357 81.4492C322.705 82.2192 323.475 83.3172 323.475 84.9142C323.475 85.5122 323.359 86.0902 323.129 86.6292Z" fill="white"/>
<path d="M331.674 76.7112H329.479V82.1612H330.904C332.754 82.1612 334.833 81.6412 334.833 79.3702C334.833 77.5592 333.331 76.7112 331.674 76.7112ZM334.216 83.4712C333.793 83.6252 333.293 83.7412 332.83 83.7412L336.816 89.0552H334.216L329.518 82.4502H329.479V89.0552H327.4V74.8052H331.809C333.158 74.8052 334.602 75.0172 335.603 75.9982C336.508 76.8662 336.913 78.1372 336.913 79.3702C336.913 81.2952 336.065 82.8162 334.216 83.4712Z" fill="white"/>
<path d="M348.866 88.1122C347.961 88.9202 346.748 89.3252 345.535 89.3252C344.321 89.3252 343.108 88.9202 342.203 88.1122C341.144 87.1682 340.758 85.8392 340.758 84.4532V74.8052H342.839V84.3952C342.839 86.0902 343.762 87.4182 345.535 87.4182C347.305 87.4182 348.23 86.0902 348.23 84.3952V74.8052H350.31V84.4532C350.31 85.8392 349.925 87.1682 348.866 88.1122Z" fill="white"/>
<path d="M358.412 89.3251C355.812 89.3251 354.021 87.4181 354.021 84.8381H356.101C356.101 86.2251 356.91 87.4181 358.412 87.4181C359.837 87.4181 360.703 86.3981 360.703 85.0111C360.703 83.4911 359.605 83.1431 358.412 82.6811C356.197 81.8341 354.425 81.1781 354.425 78.4071C354.425 76.1921 356.236 74.5361 358.412 74.5361C360.78 74.5361 362.494 76.0951 362.494 78.5021H360.415C360.415 77.2701 359.644 76.4421 358.412 76.4421C357.372 76.4421 356.506 77.3461 356.506 78.3861C356.506 81.4111 362.783 79.6001 362.783 85.0111C362.783 87.5731 360.954 89.3251 358.412 89.3251Z" fill="white"/>
<path d="M370.25 89.3251C367.65 89.3251 365.859 87.4181 365.859 84.8381H367.939C367.939 86.2251 368.748 87.4181 370.25 87.4181C371.674 87.4181 372.541 86.3981 372.541 85.0111C372.541 83.4911 371.443 83.1431 370.25 82.6811C368.035 81.8341 366.263 81.1781 366.263 78.4071C366.263 76.1921 368.074 74.5361 370.25 74.5361C372.618 74.5361 374.332 76.0951 374.332 78.5021H372.253C372.253 77.2701 371.482 76.4421 370.25 76.4421C369.21 76.4421 368.343 77.3461 368.343 78.3861C368.343 81.4111 374.621 79.6001 374.621 85.0111C374.621 87.5731 372.792 89.3251 370.25 89.3251Z" fill="white"/>
<path d="M378.527 89.0552V74.8052H386.21V76.7112H380.606V80.9092H386.21V82.8162H380.606V87.1492H386.21V89.0552H378.527Z" fill="white"/>
<path d="M390.539 89.0552V74.8052H392.618V87.1492H397.567V89.0552H390.539Z" fill="white"/>
</g>
<defs>
<clipPath id="clip0_117_46">
<rect width="401" height="97" fill="white"/>
</clipPath>
</defs>
</svg>
