<?xml version="1.0" encoding="UTF-8"?><svg id="Layer_1" xmlns="http://www.w3.org/2000/svg" viewBox="0 0 3262.3429 2203.0992"><defs><style>.cls-1{fill:#fff;}</style></defs><g id="rZtqbp.tif"><g><path class="cls-1" d="M2293.0581,718.4409c-1.7997,170.6263-57.8043,321.4526-167.4905,452.0238-73.7932,87.8438-164.5042,153.1608-270.639,196.8265-45.6094,18.7644-92.7624,32.1581-141.5031,40.2916-41.0925,6.8573-82.3789,10.6011-123.9779,10.7593-66.6889,.2535-131.9331-9.3955-195.9314-28.3716-64.7933-19.2116-126.4597-45.1723-183.096-82.2842-93.8618-61.5042-168.5824-141.432-226.4866-237.2373-31.4694-52.0678-54.172-107.9616-69.551-166.7364-9.4105-35.9642-15.6708-72.5486-19.4803-109.5983-3.2506-31.6141-4.6994-63.2476-4.1467-94.9781,.8171-46.9084,6.2338-93.3005,16.1722-139.1763,15.7768-72.827,42.5593-141.3513,80.8205-205.2592,55.268-92.3144,128.109-167.2817,220.3002-223.4769,61.4433-37.4528,126.0912-67.4296,195.1537-87.5073,43.5803-12.6696,88.0346-21.0888,133.3603-25.2499,48.6061-4.4623,97.0899-3.6588,145.4041,2.0021,130.1435,15.2487,244.7971,67.0314,346.3547,148.9255,29.1979,23.5447,57.2386,48.3802,83.9071,74.8174,11.4632,11.3639,16.7652,26.724,27.8476,38.2659,20.8738,21.7395,38.6175,45.9862,53.9149,71.9406,26.546,45.0399,46.9158,92.8397,62.9387,142.5409,12.7482,39.5442,22.5144,79.8107,28.757,120.8887,5.0579,33.2849,8.1307,66.7411,7.3715,100.5932Z"/><path class="cls-1" d="M1908.6172,1441.9771c25.7493-15.9545,52.3476-29.3332,77.8246-44.7363,43.0555-26.0308,83.5589-55.4716,121.3896-88.6834,55.0653-48.3419,102.5922-103.1632,142.546-164.5173,36.9869-56.7982,66.089-117.3802,87.4701-181.778,14.0138-42.2083,24.0262-85.3059,30.921-129.112,8.016-50.9314,9.407-102.3437,7.0508-153.741-1.7449-38.0633-7.2899-75.7476-14.8696-113.1744-15.4009-76.0465-42.1543-147.8836-78.935-216.0152-27.9394-51.7538-61.8193-99.397-100.7299-143.5786-50.6985-57.5658-108.6111-106.5432-172.907-148.19-29.8908-19.3614-61.5083-35.638-92.7286-52.6363-1.9851-1.0808-4.5562-1.4326-6.1413-4.4952,3.0201,0,5.5527,.0003,8.0856,0,360.3896-.0479,720.78,.2406,1081.1682-.4464,66.8439-.1274,133.7023-.0383,200.5477-.8701,6.9255-.0862,8.7815,1.7263,8.7786,8.7101-.1685,474.7947-.1709,949.5895,.0187,1424.3843,.0028,7.3742-1.9046,9.1064-9.1653,9.103-427.7529-.2023-855.5058-.2033-1283.2587-.2234-2.3552,0-4.7104,.0002-7.0656,.0002Z"/><path class="cls-1" d="M1178.7067,1400.3249c-7.1257,0-14.2515,.0025-21.3772-.0004-246.5966-.0936-493.1933-.2528-739.79-.2548-122.6939-.0011-245.3877,.2928-368.0816,.4255-8.1761,.0088-16.3595-.475-24.5265-.2533-5.7854,.1573-7.227-.8377-4.2724-6.6896,14.1665-28.0575,27.8621-56.3521,41.8458-84.5026,56.249-113.2342,112.4092-226.5128,168.8538-339.6495,70.3504-141.0095,140.9734-281.8828,211.4335-422.8376,74.9573-149.9513,149.8608-299.9294,224.7946-449.8923,1.3904-2.7825,2.8661-5.5224,4.8443-9.3247,7.3616,14.5844,14.4477,28.3775,21.3194,42.2765,42.2243,85.4058,86.2359,169.9313,126.3898,256.3567,8.2824,17.8267,16.2048,35.7994,23.1979,54.195,3.46,9.1017,3.917,17.672,1.3787,27.1614-9.4081,35.172-18.5111,70.4327-27.1384,105.804-6.2217,25.5087-8.1872,51.6467-8.8998,77.8211-.8308,30.5136-2.3567,61.0449-1.1731,91.5649,1.5435,39.7989,.9463,79.7864,8.3522,119.1616,5.1003,27.1166,12.8222,53.5978,20.7012,80.0033,9.2555,31.0188,18.4182,62.1277,31.5032,91.7991,30.9567,70.1969,74.3712,132.6621,123.0645,191.3052,52.7031,63.4722,113.4386,118.797,179.9188,167.7352,2.7015,1.9885,5.3266,4.0812,7.9874,6.1252-.1086,.5566-.2173,1.1133-.326,1.6698Z"/><path class="cls-1" d="M1827.8842,1732.6102c-1.4226,57.5604-1.5319,112.8508-1.5922,168.142-.015,13.7054-.3727,27.4132-.1974,41.1151,.0573,4.4753-1.3368,5.6718-5.733,5.6409-26.9421-.1885-53.8867-.1741-80.8292-.0092-4.1659,.0254-5.2859-1.3053-5.2495-5.3633,.5963-66.3553,1.0034-132.7126,1.5631-199.0683,.4196-49.765,.9634-99.5293,1.5189-149.2931,.212-18.9873,.7059-37.9717,.8471-56.9591,.0294-3.9572,.8007-5.1987,5.2292-5.0653,27.1529,.8185,54.3181,1.2882,81.4821,1.6397,3.9856,.0516,5.7043,1.4066,7.3382,5.0484,24.3149,54.1905,48.8371,108.2877,73.3321,162.3972,1.4801,3.2697,3.1419,6.457,5.1122,10.4864,6.6146-9.5685,10.7224-19.6996,15.1993-29.5554,21.6934-47.7574,43.2197-95.5912,64.5471-143.513,1.7071-3.8356,3.6229-4.7944,7.4498-4.8488,26.2029-.373,52.4149-.6487,78.5947-1.6949,6.9338-.2768,7.813,2.3351,7.8427,8,.114,21.6359,.5258,43.2707,.8605,64.9052,1.4128,91.3398,2.7855,182.6806,4.298,274.0188,.342,20.659,1.0228,41.3168,1.9139,61.9593,.2234,5.1762-.6943,7.0446-6.4384,6.9714-26.4581-.3369-52.9242-.2962-79.384-.0254-5.1277,.0525-6.2204-1.4223-6.308-6.3846-1.2038-68.247-2.6539-136.4896-5.3002-205.189-4.6589,10.5123-9.3507,21.0102-13.9691,31.5403-6.6368,15.1317-13.3089,30.2494-19.7601,45.4602-1.5049,3.5481-3.4784,5.0789-7.4559,5.1443-26.4355,.4332-52.8717,.9549-79.2959,1.812-4.9379,.1601-7.1837-1.5839-9.0562-5.8775-11.0123-25.2543-22.2652-50.4035-33.4584-75.5787-.6314-1.4202-1.4515-2.7567-3.1013-5.8557Z"/><path class="cls-1" d="M2780.2949,1763.2392c0-26.4298-.0909-52.8598,.0201-79.2892,.1889-44.9572,.5005-89.9141,.7845-134.871,.012-1.9135,.2583-3.8259,.4113-5.7378q.9119-11.4184,12.7792-11.4182c24.0539,.0005,48.1084,.0953,72.1609-.0821,4.5063-.0331,6.2019,.9177,6.1966,5.9362-.148,134.67-.1382,269.3401-.0331,404.0103,.0035,4.3615-1.1342,5.7591-5.6179,5.7229-26.4579-.2142-52.9189-.2831-79.3752-.0171-4.5978,.0462-6.262-2.358-8.0739-5.5396-30.465-53.5002-60.9604-106.9828-91.4224-160.4846-12.0902-21.2343-24.106-42.5108-36.1848-63.7518-.9965-1.7523-2.2144-3.3788-4.2839-6.506,0,4.4128-.0002,7.1839-.0002,9.955-.0002,72.8662-.0908,145.7327,.1591,218.598,.0217,6.3168-1.4406,7.9218-7.7997,7.8194-25.4904-.4105-50.9942-.3753-76.4864-.015-5.8535,.083-6.9236-1.7313-6.9176-7.157,.1487-133.9483,.1519-267.897-.0136-401.8454-.0067-5.4015,1.2723-6.8437,6.7128-6.7782,25.2529,.305,50.5147,.3407,75.766-.0241,5.6241-.0814,8.4891,1.7803,11.1724,6.5246,41.8727,74.0281,83.9265,147.9539,125.9384,221.9035,.6557,1.1538,1.3141,2.306,1.9714,3.4591,.7119-.1374,1.424-.2747,2.136-.4121Z"/><path class="cls-1" d="M3167.9463,1768.0253c0-2.507,.0004-5.0143,.0004-7.5213,0-73.6023,.0902-147.2048-.16-220.8063-.0219-6.4043,1.5543-8.0324,7.931-7.9358,25.7368,.3887,51.4845,.2805,77.2251,.058,4.9159-.0425,6.5442,1.1277,6.5209,6.3427-.5953,133.9547-1.0464,267.9102-1.3495,401.866-.0113,5.004-1.6716,5.8765-6.1769,5.8441-26.4632-.1906-52.9284-.1709-79.392-.0065-3.7465,.0234-6.1025-.8487-8.0339-4.256-43.8397-77.3345-87.7769-154.6141-132.0025-232.4443-1.4478,2.5842-.8378,5.1501-.8392,7.5181-.0412,74.324-.111,148.6479,.1096,222.9713,.0183,6.1147-1.113,8.0613-7.7023,7.9448-25.7347-.4556-51.4841-.3391-77.2237-.0557-5.1125,.0564-6.2696-1.3465-6.2643-6.3326,.1417-134.4564,.1406-268.9129,.0053-403.3693-.0049-5.0114,1.0464-6.2634,6.2943-6.0853,25.9486,.8807,51.9152,1.407,77.8786,1.5696,5.742,.0361,8.8565,1.7377,11.7113,6.7819,42.0214,74.2436,84.2687,148.3597,126.4741,222.4993,1.112,1.9528,2.3554,3.8303,3.5378,5.7429l1.4559-.3256Z"/><path class="cls-1" d="M1367.8833,1739.3105c0-66.8548,.0811-133.71-.1394-200.5639-.0196-5.9364,1.2727-7.6126,7.4406-7.4528,47.3413,1.2253,94.7026,1.723,142.0385,3.1024,36.6565,1.0682,71.2534,9.7577,101.2427,32.0165,25.7611,19.1208,40.1427,45.3149,45.3002,76.6642,6.2402,37.9294,1.8091,74.5555-14.7837,109.4014-8.5284,17.9096-22.6649,31.3852-36.9561,44.5806-3.4353,3.1718-3.4964,5.6577-1.4697,9.5907,12.2395,23.7545,32.1627,40.4097,52.4854,56.525,9.7375,7.7213,20.5397,14.124,31.0269,20.8639,3.8374,2.4663,4.457,4.9295,2.2052,8.8136-11.6925,20.168-24.8388,39.3091-39.6815,57.2981-2.9036,3.519-5.9755,2.6978-9.6751,1.7976-36.373-8.8515-64.1666-30.6426-87.7886-58.4554-14.7407-17.356-28.9585-35.1655-37.8753-56.5007-2.4542-5.8728-8.0223-5.6335-13.0115-5.2387-12.4386,.9838-24.8405,2.4249-37.2643,3.6069-11.5776,1.1017-11.5816,1.0588-11.5816,12.8023,0,30.7822-.1688,61.5659,.1484,92.3447,.0604,5.8545-1.7217,7.0923-7.23,7.0322-25.7348-.2808-51.4773-.3319-77.2103,.0254-6.1917,.0858-7.3761-1.8673-7.3574-7.6895,.2143-66.8543,.1364-133.7094,.1366-200.5642Zm91.5262-57.3709c0,17.5526,.1242,35.1067-.092,52.6566-.0506,4.1105,1.186,5.1513,5.2281,5.2003,15.4127,.1862,30.7767-.7729,46.0008-2.7565,13.2998-1.7329,26.1779-5.3936,38.237-11.7991,26.948-14.3144,31.416-44.6852,22.9366-65.6252-5.9048-14.5824-19.0508-20.8844-33.2001-25.1315-23.9511-7.1887-48.7599-7.389-73.4193-8.9547-5.2047-.3303-5.8322,1.5125-5.7769,5.9177,.2109,16.8285,.0853,33.6613,.0856,50.4925Z"/><path class="cls-1" d="M316.1131,1738.9537c0-66.8573,.0606-133.7145-.1144-200.5713-.0141-5.3751,.9589-7.2923,6.896-7.1469,49.7488,1.2179,99.516,1.7373,149.2577,3.1645,31.5125,.904,61.1592,9.7797,87.988,26.229,35.7655,21.9284,52.7763,55.2606,54.4399,96.5483,1.0549,26.1846,.2462,52.3284-7.933,77.656-5.1013,15.7966-13.8815,29.3657-24.9849,41.5083-6.4794,7.0856-13.0198,14.1391-19.9232,20.8026-3.0247,2.9197-3.0924,5.2776-1.4218,8.7734,8.3806,17.5368,22.4268,30.3042,36.266,43.1942,12.4942,11.6374,25.7671,22.2954,41.0696,30.181,2.5357,1.3064,4.8389,3.1494,7.0474,4.9871,4.1192,3.4286,4.8393,6.373,.7901,11.3162-10.0204,12.2323-17.7033,26.1571-26.2386,39.4578-12.3138,19.189-15.8816,20.6617-37.0343,12.9307-27.0643-9.8914-48.2385-28.2524-67.913-48.5402-18.1772-18.7438-33.1374-39.7726-43.6696-63.7505-1.6546-3.7673-3.6524-4.7343-7.6538-4.3238-16.717,1.7153-33.4603,3.2251-50.2214,4.4288-4.8712,.3495-5.7231,2.4142-5.7009,6.7835,.1646,32.4657-.0615,64.9343,.229,97.3982,.0518,5.7845-1.0513,7.7008-7.3048,7.6015-25.4919-.4047-50.9966-.3633-76.4903-.022-5.8383,.0782-7.5638-1.1253-7.5402-7.3138,.2568-67.0969,.1604-134.195,.1605-201.2927Zm90.9372-55.3434c0,17.0683,.1572,34.1389-.1052,51.2032-.0697,4.535,1.2875,5.8671,5.7096,5.4908,12.6788-1.0787,25.4276-1.4475,38.0687-2.8294,19.593-2.142,39.1923-4.7199,55.2768-17.841,14.6517-11.9526,21.5081-27.4208,19.2733-46.2226-2.2531-18.9561-12.8261-30.9032-31.2839-37.0098-26.1884-8.6642-53.0512-10.316-80.2526-10.5622-5.2106-.0472-6.9817,.9315-6.8415,6.5703,.4238,17.0576,.1532,34.1326,.1549,51.2007Z"/><path class="cls-1" d="M2463.443,1947.4156c-13.4684,0-26.9391-.1323-40.404,.0842-3.821,.0613-5.4292-1.2678-6.5112-4.8883-6.1015-20.4163-12.5427-40.731-18.6789-61.1374-1.5042-5.0025-3.8871-6.8715-9.5382-6.8323-44.492,.3097-88.989,.3694-133.4796-.0312-7.0548-.0636-9.8932,2.2109-11.7624,8.6459-5.7432,19.7721-12.1709,39.345-18.0067,59.0918-1.0557,3.5728-2.1645,5.1924-6.1618,5.1501-26.9324-.2852-53.8689-.1994-80.8007-.5294-10.3021-.1263-11.0015-1.2481-8.0501-10.722,15.1667-48.6863,30.4475-97.3373,45.6501-146.0124,16.2666-52.0825,32.4966-104.1764,48.731-156.2691,10.1118-32.4456,20.2544-64.8818,30.2336-97.3681,1.2068-3.9286,3.1436-4.8589,7.177-4.7872,39.9,.7097,79.8045,1.2762,119.7097,1.5196,5.1194,.0312,6.5297,2.5398,7.7287,6.3842,10.0473,32.2148,20.1003,64.4279,30.1876,96.6301,12.5263,39.9883,25.185,79.9355,37.6081,119.9556,15.2551,49.1434,30.3422,98.3389,45.4635,147.5237,3.3769,10.9838,6.5341,22.035,9.9084,33.0198,2.4357,7.9293,1.8681,9.5037-6.4546,9.7739-14.1696,.4602-28.3649,.1267-42.5494,.1267,0,.2239-.0002,.4478-.0002,.6718Zm-97.9008-168.3522c-15.2749-46.2335-27.9926-92.7577-44.0922-138.1893l-2.4512-.0222c-14.2813,45.9472-28.5628,91.8942-42.9592,138.2115h89.5027Z"/><path class="cls-1" d="M1049.2606,1739.4477c-.0004-66.6281,.1146-133.2567-.1782-199.8835-.0293-6.6533,1.9376-7.7914,8.05-7.7762,81.3193,.2021,162.6395,.1772,243.959,.037,5.2343-.009,7.4118,.713,7.4115,6.8613-.0011,26.922,.5127,53.8482,1.2067,80.7632,.1382,5.3641-1.1579,6.8303-6.6624,6.8058-51.4855-.2289-102.9733-.0004-154.458-.3051-6.5034-.0386-7.9918,1.6993-7.8267,7.9647,.4561,17.3063,.4295,34.6393,.0147,51.9479-.1512,6.3088,1.1762,8.4431,8.0688,8.3987,51.2439-.3316,102.491-.1031,153.7362-.2939,5.352-.0199,7.328,.9318,7.1509,6.8772-.7729,25.9502-1.2673,51.9177-1.217,77.8777,.0122,6.3257-2.4475,6.701-7.4534,6.6874-50.7644-.1371-101.5298,.0224-152.2933-.223-6.0698-.0292-8.2426,1.0185-8.0377,7.7107,.5517,18.0232,.3931,36.0779,.0597,54.1119-.0959,5.1825,1.5127,6.2828,6.4391,6.2657,51.2454-.1781,102.4921,.012,153.7366-.2659,6.2678-.034,8.0271,1.3474,7.9272,7.7998-.4091,26.4525-.293,52.916-.0679,79.3729,.0448,5.2593-.7723,7.407-6.8998,7.3893-82.0409-.2348-164.083-.216-246.1242-.0261-5.4674,.0125-6.684-1.4424-6.6686-6.7704,.1936-67.1087,.1271-134.2179,.1267-201.3271Z"/><path class="cls-1" d="M.138,1739.8984c0-66.8513,.0789-133.7026-.1378-200.5531-.019-5.8601,1.2289-7.59,7.3767-7.5729,81.2979,.2264,162.5967,.2156,243.8947,.0155,5.8041-.0143,7.7748,1.1089,7.6926,7.3238-.3559,26.9284-.2896,53.8651-.0322,80.7956,.0492,5.1416-1.5131,6.336-6.4622,6.3194-51.7131-.1739-103.4274-.0106-155.1401-.2403-5.8282-.0259-7.7667,1.2303-7.6173,7.3897,.4372,18.0248,.3847,36.0718,.0174,54.0997-.1113,5.464,1.4181,6.756,6.7909,6.7338,51.7128-.2132,103.4275-.0023,155.1395-.2921,6.224-.0347,7.3712,1.7616,7.2953,7.5602-.3333,25.4857-.3414,50.9808,.0038,76.4663,.0797,5.8849-1.2183,7.5734-7.3682,7.5401-51.4717-.2777-102.946-.0511-154.4179-.3011-6.0204-.0291-7.6005,1.5474-7.4563,7.5234,.4235,17.5442,.4152,35.1114,.0063,52.6563-.1411,6.0567,1.0051,8.0336,7.6751,7.9898,51.4709-.3391,102.9454-.1013,154.4177-.3118,5.4858-.0224,7.2197,1.1402,7.1467,6.9551-.3414,27.1689-.2564,54.3457-.0493,81.5174,.0351,4.5997-1.0583,6.0209-5.8813,6.012-82.2605-.1552-164.5215-.1637-246.7819,.0125-5.1509,.0109-6.2387-1.4264-6.2262-6.3645,.1692-67.0911,.1137-134.183,.1137-201.2746Z"/><path class="cls-1" d="M775.498,1681.3533c26.0888-35.261,52.169-70.5282,78.2708-105.7796,9.7183-13.1247,19.5362-26.1761,29.1845-39.3519,1.6484-2.2514,3.0801-3.8989,6.2449-3.9029,34.6366-.0446,69.273-.2294,103.9095-.343,.6472-.0021,1.2957,.4017,2.3581,.7535-3.0981,6.9817-7.5785,12.8289-11.9486,18.7027-41.9253,56.3513-83.8582,112.697-125.9635,168.9137-3.0282,4.043-3.637,6.846-.7508,11.3208,29.7921,46.1889,65.3345,87.0954,109.3725,120.3222,12.4568,9.3988,24.8141,18.9543,38.6577,26.2762,3.1078,1.6438,3.4634,3.0264,1.9573,6.1022-10.9869,22.4381-23.9651,43.6546-38.5898,63.8893-2.5122,3.4757-5.0316,4.7022-9.6343,2.8883-32.5473-12.8282-61.471-31.141-86.8139-55.3023-29.6997-28.3148-55.2522-59.9796-77.7598-94.2041-3.2846-4.9943-6.9426-9.7642-10.6945-14.4235-2.7508-3.4161-4.9198-3.0183-6.56,1.3721-2.084,5.5782-1.8514,11.3395-2.0181,17.06-1.3029,44.7252-.5466,89.4633-.4734,134.1945,.0106,6.4684-1.6892,7.8217-7.8872,7.7299-25.4974-.3768-51.0048-.2868-76.5055-.0495-5.2484,.0488-7.3031-.7946-7.2941-6.8418,.2005-133.9792,.1823-267.9583,.0425-401.9375-.0054-5.1704,.9473-7.0326,6.614-6.9625,26.2208,.3243,52.449,.2866,78.6711,.0217,5.1844-.0523,6.3066,1.5791,6.2868,6.4913-.1824,45.2203-.1085,90.4418-.1091,135.6627,0,2.3213,0,4.6429,0,6.9642,.4776,.1445,.9551,.2888,1.4328,.4332Z"/><path class="cls-1" d="M421.2963,2078.5567c-8.0967,15.6516-16.0832,31.3616-24.3381,46.9294-3.9226,7.398-8.1326,14.6664-12.6149,21.7387-5.7028,8.9979-7.0387,8.9281-13.0166-.2881-8.2281-12.6853-14.9865-26.2013-21.96-39.5899-5.4739-10.5095-10.91-21.0387-18.0152-31.3297,0,14.7424,.13,29.4863-.0291,44.227-.2697,24.9911-.8451,49.9794-.9858,74.9707-.0257,4.5835-1.5486,5.565-5.8112,5.5916-14.073,.0872-14.0471,.2535-14.1978-13.6724-.5202-48.0659-.9278-96.1341-1.748-144.1951-.1096-6.4251,1.525-8.4075,7.8931-7.803,7.3724,.7003,16.3816-2.0342,21.8208,1.3358,5.4232,3.3594,7.3429,12.4124,10.7334,19.0028,8.7727,17.0523,17.6106,34.0721,26.1985,51.2173,2.5686,5.1279,4.0936,4.8395,6.5431-.0352,10.7511-21.3953,21.8327-42.626,32.4301-64.0964,2.6178-5.3034,5.4015-8.3545,11.8331-7.4323,4.7132,.6755,9.6488,.5567,14.399,.024,5.7232-.6422,6.6563,1.7442,6.6342,6.8872-.1906,44.4817-.111,88.9647-.1115,133.4473,0,6.7325-.136,13.469,.0583,20.196,.1017,3.524-.7168,4.9813-4.7267,5.1392-18.7632,.7387-18.8048,.8837-18.8245-17.9508-.0361-34.5772-.0103-69.1543-.0103-103.7315-.718-.194-1.436-.3881-2.154-.5823Z"/><path class="cls-1" d="M2730.0288,2087.9693c-2.1127,7.9307-1.2203,14.4425-1.3645,20.8386-.6439,28.5878-1.1708,57.1809-1.3484,85.7746-.0326,5.2458-1.6373,6.6959-6.5396,6.1846-6.1586-.6424-14.1271,2.5428-18.0909-1.2632-4.0043-3.8448-1.2457-11.8428-1.2609-18.0008-.114-46.4118,.0478-92.8246-.2016-139.2355-.031-5.7752,1.7647-6.5435,7.165-7.2903,13.58-1.8777,20.8068,3.8113,27.533,15.3816,19.0212,32.7203,39.5035,64.5918,59.4245,96.7887,.968,1.5645,2.072,3.0449,3.5015,5.1321,1.8124-3.0881,1.1654-5.9707,1.1904-8.6628,.3172-34.1371,.6703-68.2746,.7377-102.4127,.0093-4.7213,1.2663-6.0565,6.0194-6.0639,17.4486-.0266,17.4482-.21,17.4484,16.8546,0,47.1336-.1225,94.2679,.1517,141.3999,.0354,6.0888-1.7811,6.9195-7.5141,7.6119-13.0874,1.5807-19.9322-3.8474-26.4378-15.0047-19.0379-32.6521-39.5612-64.4387-60.4138-98.0325Z"/><path class="cls-1" d="M1841.9106,2153.378c1.9502-3.6133,1.2931-6.2845,1.2968-8.8407,.0506-34.1415,.1822-68.2843-.1077-102.4234-.0488-5.775,1.6411-7.1092,7.1638-6.988,15.3882,.3381,15.3938,.0869,15.3938,15.2177,0,47.8462-.1223,95.6932,.1459,143.5378,.0359,6.4186-2.0001,6.3192-7.673,6.707-14.0697,.9616-20.398-6.7572-26.8662-17.5787-18.9258-31.6639-38.9144-62.6931-58.4875-93.9703-.6011-.9607-1.2126-1.9147-2.9196-4.6082-.1893,4.2299-.3909,6.6575-.3923,9.0851-.0194,33.1798-.2136,66.362,.1634,99.5376,.0747,6.5794-1.8509,8.4778-8.069,7.7491-4.2702-.5002-8.6754-.4093-12.9674-.0118-4.6686,.4323-5.5829-1.5296-5.5726-5.7775,.1242-51.4523,.1424-102.9054-.0153-154.3575-.0143-4.6741,1.8165-4.9868,5.8379-5.5875,13.6438-2.038,21.8144,2.6954,29.0074,15.1545,19.037,32.9747,39.8868,64.9034,60.0307,97.2388,1.0952,1.7581,2.3305,3.429,4.0311,5.9161Z"/><path class="cls-1" d="M707.5026,2147.4941c0-19.8343-.1175-39.6697,.0372-59.5028,.1234-15.8476,.7066-31.6914,.7968-47.5386,.023-4.0317,1.13-5.6104,5.2916-5.2512,6.4152,.5541,14.5824-2.534,18.8254,1.1852,4.0171,3.521,1.2239,11.7767,1.2384,17.9321,.1082,46.1575-.0438,92.3161,.1861,138.4728,.0295,5.9138-.9976,7.596-7.5817,8.2884-12.9499,1.3619-19.9713-3.3661-26.5411-14.5861-18.8765-32.237-39.2623-63.5907-59.0704-95.282-.9749-1.5595-2.0941-3.0291-3.5775-5.16-1.7742,2.9644-1.1215,5.5791-1.1636,8.009-.5828,33.6308-1.2501,67.2614-1.5285,100.8951-.0419,5.0615-1.7675,5.8518-6.2137,5.8469-16.3696-.0183-16.37,.1276-16.3699-16.47,.0005-47.36,.1005-94.7205-.13-142.0792-.0274-5.6413,1.5752-6.6198,7.0668-7.2845,11.5811-1.402,17.7861,3.1263,23.7039,13.013,20.1583,33.6784,41.4833,66.6585,62.3631,99.9053,.889-.1311,1.7782-.2622,2.6673-.3932Z"/><path class="cls-1" d="M998.3762,2117.5877c.0007-25.4654,.1331-50.932-.1123-76.3951-.0484-5.0227,1.2227-6.5287,6.37-6.2491,19.3917,1.0543,38.8186,.3177,58.2103,2.7755,32.2977,4.0937,53.7434,21.6823,65.2699,51.317,15.9101,40.9046-2.3867,85.7212-41.8335,105.1035-7.5915,3.7304-15.6139,4.5409-23.6951,5.1807-19.6498,1.5564-39.3543,1.3946-59.0529,1.51-5.0624,.0298-5.2199-2.3337-5.206-6.1258,.0937-25.7054,.049-51.4111,.0496-77.1168Zm25.3908,1.2035c0,18.7547,.1136,37.5105-.0894,56.263-.044,4.0661,1.082,5.3398,5.2101,5.2909,11.052-.1314,22.0091-.5694,32.9844-2.3222,26.0867-4.1668,42.9857-21.0916,46.5264-47.4028,4.1178-30.6003-8.9525-55.7239-34.8483-66.6844-14.0664-5.9536-28.9704-5.8553-43.8887-5.9341-4.6893-.0247-6.0814,1.1949-6.0078,5.97,.2818,18.2693,.1139,36.5459,.1134,54.8196Z"/><path class="cls-1" d="M2403.1475,2117.9545c.0007-25.489,.1389-50.9792-.1165-76.4656-.0508-5.0738,1.3789-6.4723,6.4132-6.3367,21.8245,.589,43.7544-1.1892,65.3894,3.2377,16.0011,3.2741,30.2821,8.8296,37.6992,25.2369,10.8105,23.9132,5.0366,53.7939-14.336,70.9279-3.9059,3.4549-5.4604,6.6328-2.4317,11.6931,8.5989,14.3668,19.1271,26.933,32.795,36.6902,1.2055,.8606,2.7695,1.2979,2.5431,2.9078-.9232,6.5615-4.7129,11.5354-9.8515,15.2595-4.0871,2.9623-8.2641,1.2944-11.9036-1.5467-12.8747-10.0497-22.313-23.0463-31.185-36.5177-1.1835-1.797-2.3927-3.5927-3.3903-5.4938-4.1179-7.8486-9.7768-11.2438-19.2097-9.4339-7.6873,1.4752-15.8078,1.0072-23.7252,.8483-4.547-.0913-6.2527,.9153-6.1121,5.9004,.3799,13.4552-.0566,26.9321,.237,40.3917,.099,4.5396-1.3537,5.5502-5.7159,5.568-17.1009,.0701-17.1002,.2368-17.1002-16.4998,0-22.1224,0-44.2449,.0007-66.3673Zm22.6644-25.9709c0,9.621,.1725,19.2466-.0825,28.8609-.1064,4.0111,.9934,5.46,5.1998,5.3298,10.3104-.3191,20.5888-.2178,30.8997-1.4981,22.4481-2.7868,32.8124-14.574,31.6326-37.0619-.6978-13.3026-6.6495-20.9416-19.4994-25.3514-13.95-4.7877-28.4113-3.7505-42.78-4.2022-4.7821-.1503-5.576,1.6038-5.4567,5.7842,.2672,9.3726,.0837,18.7584,.0865,28.1387Z"/><path class="cls-1" d="M8.7631,2117.8952c0-25.4883,.1502-50.978-.1256-76.4633-.0558-5.1526,1.4338-6.4233,6.4287-6.2805,21.8201,.6249,43.7316-1.1348,65.3936,3.1401,15.3983,3.0388,28.7824,8.9891,36.8601,23.4904,3.8653,6.9392,4.505,14.4649,5.0987,22.1714,1.6706,21.6839-2.9559,40.6186-22.1439,53.5902-3.0407,2.0557-2.9518,3.982-.8859,6.8569,10.0844,14.034,19.5841,28.557,34.3207,38.4273,3.1516,2.1108,3.4932,4.5359,1.7444,7.9878-6.7827,13.3884-13.9119,15.0232-25.2473,4.9713-12.1536-10.7775-21.493-23.9212-29.5314-37.8961-4.5633-7.9336-9.6131-12.2595-19.6237-9.9128-6.8888,1.6152-14.368,1.297-21.5391,.9445-5.999-.2947-8.3567,.8592-7.9995,7.6289,.6707,12.7087-.0301,25.4841,.3083,38.2192,.1285,4.8372-1.4094,6.0349-6.0873,6.0491-16.9713,.0511-16.9707,.2246-16.9707-16.5588,0-22.1219,0-44.2439,0-66.3657Zm22.8184-26.1c0,9.8546-.0117,19.7092,.0087,29.5639,.0047,2.2984-.7121,4.8212,3.2929,4.784,15.5768-.1446,31.2396,.685,46.2182-4.9251,12.6536-4.7398,18.7239-14.3386,18.6214-29.2822-.1066-15.544-6.2692-24.9295-19.3254-29.527-14.8506-5.2294-30.2916-3.9952-45.6055-4.3108-4.074-.084-3.1773,2.6453-3.1892,4.8548-.0515,9.6138-.0221,19.2283-.0211,28.8424Z"/><path class="cls-1" d="M1464.8285,2117.9871c-.0012-25.4777,.1288-50.9567-.1138-76.4321-.0472-4.9565,1.1617-6.5562,6.3161-6.4149,18.4884,.5072,37.012-.5074,55.4766,1.2588,16.7648,1.6036,31.6687,7.2151,43.3233,19.9536,2.6135,2.8566,5.4648,5.661,6.1528,9.5472,2.9857,16.8661,4.5319,33.8068-1.0936,50.4294-2.3626,6.9813-7.7296,12.0232-13.2446,16.7498-8.1242,6.9626-8.0073,6.9085-2.5191,15.6132,8.2355,13.0618,17.2771,25.3669,30.4144,34.0217,3.15,2.0749,3.6488,4.3102,1.9095,7.886-6.4148,13.1862-12.5628,15.0299-23.9004,5.9475-13.7063-10.9799-23.7213-25.0383-31.3091-40.7275-3.1769-6.5685-6.9549-9.0361-14.6052-7.9186-9.446,1.3797-19.1715,1.151-28.7699,1.046-4.5534-.0497-5.6757,1.3909-5.5894,5.7503,.2661,13.4547-.0606,26.9208,.1914,40.376,.0809,4.3141-1.0009,5.7251-5.5693,5.7586-17.0699,.1247-17.0685,.3131-17.0685-16.507,0-22.1127,0-44.2254-.0012-66.3381Zm22.4522-26.2453c0,9.8599-.0307,19.7198,.0259,29.5794,.0113,1.9741-.8617,4.7174,2.6382,4.7295,16.7821,.0587,33.7698,1.1339,49.5868-6.0187,11.6202-5.2549,17.0321-15.4404,16.2626-28.7445-.931-16.096-6.7588-24.4122-20.1345-29.0114-14.6574-5.04-29.8575-3.8354-44.9409-4.1554-3.8138-.0809-3.4488,2.3224-3.4451,4.7628,.0152,9.6194,.0063,19.2387,.007,28.8581Z"/><path class="cls-1" d="M2861.1724,2117.293c0-25.4712,.0994-50.9431-.0945-76.4129-.0338-4.4441,.7289-6.2803,5.7512-6.0074,20.3596,1.1066,40.7699,.3853,61.1125,2.9221,30.0493,3.7472,60.9314,34.1141,64.9933,63.9572,2.7547,20.2401,2.3593,39.8249-8.7913,57.6489-15.1223,24.1726-35.86,39.2226-65.597,40.3834-17.0586,.666-34.1024,.5997-51.1468,1.0395-5.1055,.1314-6.3908-1.3985-6.3426-6.3974,.2488-25.7092,.1152-51.4218,.1152-77.1333Zm22.3695,1.6274c0,18.2556,.234,36.5157-.1403,54.7638-.1142,5.5867,1.6561,6.7243,6.9135,6.7117,11.8008-.028,23.528-.5689,35.0497-3.062,20.3254-4.3978,35.5312-15.0222,41.8878-35.8403,2.9218-9.5692,3.0328-19.4062,2.2775-29.2332-1.949-25.3694-15.9554-42.5635-40.3413-50.2319-13.0524-4.1043-26.4646-3.6948-39.8803-4.0405-5.0505-.1298-5.9073,1.7102-5.8569,6.1666,.2069,18.2531,.0863,36.5101,.0902,54.7657Z"/><path class="cls-1" d="M2274.7815,2117.8043c-.0009-25.2445,.1242-50.4898-.1064-75.7323-.0462-5.0405,.7636-7.0336,6.5464-6.9688,30.0561,.3365,60.1188,.2615,90.1772,.0523,4.8338-.0337,6.6247,.9188,6.5796,6.22-.1429,16.7672,.0975,16.7693-16.7068,16.7693-18.9979,.0002-37.9969,.1158-56.9926-.0869-4.3736-.0465-6.3512,.6424-6.1827,5.7375,.405,12.2482,.3644,24.5255,.0148,36.777-.1376,4.8208,1.3733,5.9873,6.0314,5.9385,22.3621-.2341,44.731,.081,67.091-.2384,5.4533-.0777,6.836,1.4202,6.7459,6.8152-.2758,16.5065-.0277,16.5105-16.3896,16.5107-18.9979,.0004-37.9981,.16-56.9921-.1094-4.8135-.0684-6.67,.8617-6.5035,6.1607,.408,12.97,.3792,25.9684,.0095,38.9407-.1412,4.9582,1.6087,5.8654,6.1048,5.8235,22.3627-.2074,44.7312,.1025,67.0907-.2345,5.4891-.0828,6.8088,1.4424,6.6786,6.79-.335,13.7308-.056,13.7378-14.1261,13.738-26.9337,.0002-53.8732-.3048-80.7975,.201-7.2966,.1371-8.5437-2.149-8.4341-8.816,.4074-24.7568,.1625-49.5245,.1616-74.288Z"/><path class="cls-1" d="M483.6016,2117.6894c.0006-25.4825,.1088-50.9657-.0996-76.4464-.0374-4.5669,.9451-6.1415,5.8683-6.1027,30.2957,.2385,60.5947,.22,90.8909,.0153,4.7551-.0322,6.0297,1.3254,6.0267,6.0539-.0105,16.9351,.1778,16.9353-16.538,16.9353-18.5151,.0002-37.0317,.1239-55.5444-.0906-4.388-.0507-6.2913,.6524-6.1203,5.7192,.4132,12.2464,.3459,24.522,.025,36.7739-.1219,4.6552,1.1193,6.0326,5.8981,5.975,21.8783-.2644,43.7648,.0876,65.641-.2563,5.5842-.0877,6.7357,1.6349,6.6508,6.8966-.2649,16.4319-.035,16.4356-16.4501,16.4358-18.5151,.0002-37.0342,.2116-55.5429-.1346-5.2173-.0974-6.3316,1.5264-6.2036,6.4156,.3396,12.9728,.3083,25.9645,.0081,38.9393-.102,4.4096,1.0667,5.6575,5.5473,5.6092,22.1194-.2378,44.2449,.0566,66.3632-.2304,5.1401-.0664,6.3377,1.5278,6.263,6.4327-.2145,14.0734,.0038,14.0773-13.7916,14.0773-27.6527,.0002-55.3062-.1048-82.9573,.1011-4.6517,.0345-6.0988-1.1131-6.0521-5.9519,.2484-25.7205,.1168-51.4444,.1175-77.1671Z"/><path class="cls-1" d="M277.6584,2201.3021c-14.0464-.5107-16.1713-2.1577-20.3531-15.4837-1.9326-6.1585-4.1765-12.2255-5.9266-18.4333-.9947-3.5287-3.0396-4.223-6.3381-4.1157-19.6793,.6408-39.3617,1.2799-59.048,1.5289-4.0229,.0511-5.4222,1.8182-6.4065,5.0292-2.4575,8.0169-5.2,15.954-7.396,24.0405-1.2435,4.5791-3.6151,6.4362-8.3887,6.8911-20.0612,1.9131-19.9338,2.0969-13.4373-16.72,16.2353-47.0244,32.4262-94.0642,48.4192-141.1712,1.6198-4.771,3.7635-7.2204,8.9871-6.8659,3.5723,.2422,7.1918-.2222,10.7906-.3568,11.7516-.4394,11.6358-.3957,15.6086,10.7114,17.1564,47.9659,33.6611,96.153,49.4046,144.6007,.2218,.6827,.5113,1.345,.704,2.0349,2.3907,8.5599,2.3281,8.6355-6.62,8.3101Zm-60.3328-131.593c-1.0332,1.1022-1.6761,1.5275-1.9551,2.1231-9.4376,20.1537-15.9435,41.378-22.813,62.4716-1.7928,5.5049,2.4765,5.6464,5.5285,5.7135,12.2336,.2699,24.4772,.1901,36.7157,.0858,5.4494-.0463,6.6813-2.5883,4.7916-7.7741-7.5192-20.6351-14.7433-41.3776-22.2678-62.62Z"/><path class="cls-1" d="M2609.6233,2164.9142c-9.593,0-19.1937,.2282-28.775-.1052-4.2087-.1464-5.8527,1.5285-6.9565,5.2829-2.567,8.7317-5.7432,17.2869-8.211,26.0438-1.0755,3.8159-2.994,4.9112-6.6571,4.6196-4.5405-.361-9.1159-.2611-13.6677-.5116-4.3567-.24-5.8024-2.2119-4.2489-6.6348,10.07-28.6669,20.0297-57.3728,29.9633-86.0873,7.5795-21.9101,15.1559-43.8223,22.5091-65.8085,1.2373-3.6992,2.8655-5.2103,6.9317-5.5904,23.9312-2.2363,23.8482-2.3388,31.2966,19.5058,14.3562,42.1035,28.8088,84.1742,43.1905,126.2692,.8506,2.49,1.3736,5.09,2.1404,7.611,2.7839,9.1513,1.8764,10.4649-7.8198,11.1675q-12.5471,.9093-16.3255-10.9205c-2.2599-7.0632-4.6436-14.0886-6.7731-21.1906-1.2054-4.0199-3.3565-5.5271-7.7631-5.342-9.5944,.4035-19.2176,.1246-28.8291,.1246-.0016,.5222-.003,1.0442-.0046,1.5664Zm1.7344-96.6511c-10.6232,23.1019-17.7922,45.0418-24.7017,67.0895-1.4196,4.5298,2.1236,4.4589,4.2365,4.583,13.1664,.7733,26.3562,.8155,39.528,.0055,4.7278-.2909,5.2183-2.8982,3.5859-6.89-1.9811-4.8451-3.5523-9.8587-5.2752-14.8083-5.5471-15.9371-11.0826-31.8782-17.3737-49.9796Z"/><path class="cls-1" d="M1618.4189,2117.6448c.0002-25.4932,.1214-50.9877-.1091-76.4788-.0426-4.7169,1.214-6.0472,5.9734-6.0137,30.3092,.2134,60.6209,.1991,90.9302,.0085,4.4861-.0282,5.6285,1.2891,5.6683,5.6961,.1572,17.2894,.3214,17.288-16.9377,17.288-18.7637,0-37.5299,.163-56.2895-.1122-4.7985-.0705-6.704,.7614-6.5103,6.1272,.442,12.2496,.3531,24.532,.0291,36.789-.1193,4.5128,1.2358,5.6052,5.6282,5.5608,22.1292-.2234,44.2645,.0862,66.3914-.2331,5.6784-.0819,7.9291,.8969,7.746,7.2782-.4608,16.034-.1152,16.0436-16.1849,16.0436-19.0042,0-38.0136,.2493-57.0094-.1526-5.6266-.1191-6.7392,1.6305-6.5842,6.8333,.3796,12.7353,.3479,25.4957,.0104,38.2333-.1279,4.8287,1.4151,5.9633,6.055,5.9137,22.129-.2364,44.2636,.0391,66.3923-.2119,5.2505-.0597,7.5377,.7518,7.3222,6.8622-.4797,13.6176-.1017,13.6314-13.5909,13.631-27.4237-.0004-54.8493-.1508-82.2702,.1277-5.3402,.0543-6.8703-1.2137-6.8016-6.7119,.3191-25.4894,.1412-50.9849,.1413-76.4783Z"/><path class="cls-1" d="M3064.7892,2035.2598c14.8622-.0002,14.657,.0687,19.5257,14.5868,13.0799,39.0022,26.4226,77.9163,39.4958,116.9206,3.1131,9.2882,5.385,18.8565,8.4273,28.1706,1.6949,5.1878-.4286,6.2843-5.0061,6.4011-12.3894,.3157-16.5627-2.4202-20.7589-14.1661-1.4461-4.0488-2.8425-8.1156-4.2342-12.1835q-3.9523-11.553-15.8719-11.5539c-16.8253,.0004-33.6544,.1846-50.474-.1239-4.506-.0826-6.3034,1.5314-7.4418,5.5956-2.0015,7.1462-4.3685,14.1994-6.8254,21.2062-2.7469,7.8326-17.2933,14.3684-24.4969,10.9755-3.7162-1.7502-1.8972-5.0308-1.0778-7.5121,6.154-18.6492,12.4056-37.267,18.7686-55.846,10.9144-31.8709,22.1831-63.6244,32.6803-95.6313,1.9487-5.9408,4.5722-7.5764,10.0848-6.8892,2.3667,.2951,4.801,.0495,7.2046,.0495Zm.5798,33.9359c-.5681-.1013-1.1359-.2028-1.7041-.3043-8.417,24.0128-16.8344,48.0256-25.4351,72.5623,17.0561,1.0268,33.0108-1.383,49.0177-1.1753,4.015,.0521,2.5626-2.8502,1.9797-4.4972-7.8708-22.2244-15.8818-44.3987-23.8583-66.5856Z"/><path class="cls-1" d="M1163.5007,2117.7081c-.0004-25.4867,.1063-50.9745-.0993-76.4594-.0367-4.5544,.9216-6.152,5.8631-6.1106,29.3386,.2461,58.6813,.235,88.0202,.01,4.9236-.0377,5.9299,1.6085,5.9288,6.1857-.0041,16.8111,.1634,16.8111-16.7278,16.8111-18.2778,0-36.5575,.1394-54.8321-.1015-4.3617-.0574-5.8191,1.0076-5.7006,5.5463,.3135,12.0137,.3686,24.0496-.011,36.0594-.1664,5.2653,1.1283,6.9889,6.6998,6.8985,21.3987-.3469,42.8084,.0185,64.2092-.2578,5.0838-.0655,6.4214,1.4116,6.3775,6.4325-.1474,16.8743,.0572,16.8763-16.7755,16.8759-18.2779-.0002-36.5576,.1425-54.8321-.1029-4.4965-.0603-5.7454,1.3023-5.6569,5.7079,.2654,13.219,.2772,26.4504-.0022,39.6687-.0979,4.629,1.6781,5.5615,5.8778,5.5275,21.4029-.1737,42.8105,.0971,64.2107-.2023,5.4585-.0763,7.4007,1.1008,7.2108,6.9906-.4355,13.5086-.0955,13.5195-13.7072,13.5195-26.4548,0-52.9112-.1531-79.3629,.129-5.2995,.0564-6.9029-1.1283-6.8324-6.6698,.324-25.4827,.1426-50.9717,.1421-76.4584Z"/><path class="cls-1" d="M1419.1842,2101.5596c-.4277,16.8631,1.0727,37.8884-2.4135,58.5758-4.313,25.5958-17.5509,38.6567-43.2942,41.6352-14.6688,1.6971-29.7311,2.3784-44.3525-1.8918-19.5803-5.7184-29.2235-19.3412-32.1116-39.042-3.4693-23.665-2.7034-47.4549-3.0669-71.2144-.2501-16.3458,.0604-32.6997-.125-49.0472-.0449-3.9716,.993-5.3245,5.2016-5.4278,17.4751-.4279,17.3864-.5825,17.6827,16.8141,.4993,29.3098,1.0303,58.6196,1.7471,87.9247,.1875,7.6638,.857,15.4475,4.0428,22.5248,6.5442,14.5373,26.2162,22.9908,43.3983,19.2936,21.7995-4.6899,26.3479-15.0979,28.4009-35.7946,3.3995-34.2714,1.7448-68.6968,1.7055-103.0561-.0078-6.6878,1.9691-7.9075,8.0697-7.7391,15.1071,.4172,15.1152,.1217,15.1152,15.5371v50.9077Z"/><path class="cls-1" d="M2187.1274,2167.2137c11.0156-26.6483,19.4328-52.3194,28.2271-77.8513,5.6158-16.3042,11.3333-32.578,16.5934-48.997,1.399-4.3671,3.6296-5.5144,7.7615-5.1619,4.0645,.3469,8.1742,.416,12.2534,.2794,5.422-.1818,6.5909,1.8786,4.8256,6.936-8.2061,23.5121-16.1389,47.1195-24.2722,70.6575-9.3077,26.9367-18.858,53.7909-27.945,80.8014-1.3321,3.9593-3.1211,5.2361-6.9669,5.5527-24.6528,2.0292-24.7743,2.1334-33.032-21.6893-15.7595-45.465-31.231-91.0302-47.185-136.4265-2.035-5.7907,.3035-5.7472,4.4929-5.9931,18.3022-1.0743,18.0327-1.044,23.5478,14.929,12.7371,36.8908,25.7507,73.6865,38.6862,110.5088,.6039,1.7192,1.5382,3.3222,3.0132,6.4544Z"/><path class="cls-1" d="M3230.1676,2056.4766c-5.8343,.6792-12.4536-1.4991-19.2314-.4438-9.9928,1.5562-17.5707,7.6732-19.673,16.3888-2.1104,8.747,1.3699,16.4115,10.4207,22.4369,12.1681,8.1006,25.9049,13.574,37.662,22.3756,.382,.2859,.8103,.5125,1.2251,.7528,16.9846,9.8319,24.4719,23.9642,20.8999,43.8233-3.1903,17.7364-13.4376,29.7134-29.5516,36.1578-17.6969,7.077-36.339,5.778-54.6459,2.3978-8.0075-1.4785-12.8768-17.2582-8.1756-23.8363,1.4584-2.0412,2.803-.5511,4.3516-.2551,14.1897,2.7111,28.556,4.3597,42.9635,3.7621,17.5044-.7262,27.0725-15.3666,21.0912-31.0795-2.1795-5.7262-6.6922-9.3812-11.65-12.3014-12.1751-7.1714-24.4719-14.146-36.8648-20.9356-27.4754-15.0533-23.9287-51.9872-9.8462-66.8004,12.9477-13.6198,29.5033-17.0438,47.4187-15.9358,5.0033,.3095,9.954,1.4422,14.9316,2.1806,7.4411,1.1043,13.5098,14.8958,9.3137,21.2077-1.002,1.5072-2.508,.9789-3.9139,.907-5.2792-.2706-10.5602-.5095-16.7255-.8023Z"/><path class="cls-1" d="M864.8037,2143.3227c-9.6003,.0005-19.2028-.1156-28.7998,.0622-3.4588,.064-5.0014-.8485-3.9718-4.469,.3271-1.1501,.5524-2.3365,.7296-3.5206,.7006-4.6809-1.4246-10.9894,1.932-13.72,3.828-3.1145,10.13-.9729,15.3447-1.0264,14.399-.1476,28.8029,.0987,43.1994-.1422,4.3091-.0721,5.7289,1.0476,5.7857,5.5713,.2167,17.2464,.3923,17.244-16.9393,17.244-5.7602,0-11.5204,.0002-17.2806,.0007Z"/><path class="cls-1" d="M1998.9959,2143.3225c-9.8578,.0002-19.7179-.1242-29.5721,.0678-3.4317,.0666-4.3671-1.0113-4.5222-4.464-.8244-18.3333-.9356-18.3283,17.4101-18.3283,13.9451,0,27.8921,.1284,41.8341-.0816,3.9701-.0599,5.7801,.6538,6.4931,5.1638,2.7942,17.6758,3.0077,17.6418-15.0532,17.6418-5.53,0-11.0598,.0002-16.5898,.0005Z"/><path class="cls-1" d="M3156.2794,2041.8175c.1205,7.7429-12.4624,26.1604-22.0689,29.6988-4.9895,1.8383-8.638-.9359-8.0382-6.2176,.1875-1.6487,.5287-3.3679,1.2254-4.8553,3.3362-7.1242,3.2058-13.9971,.3408-21.4254-2.2288-5.7783-1.7308-12.0895,3.8578-16.2759,5.3191-3.9843,11.3561-3.3002,17.0096-.6941,7.4101,3.4163,7.4383,10.4341,7.6734,19.7695Z"/></g></g></svg>