<svg id="Layer_1" xmlns="http://www.w3.org/2000/svg" viewBox="0 0 809.5302 237.345">
    <defs>
        <style>.cls-1{fill:#fff;fill-rule:evenodd;}</style>
    </defs>
    <path class="cls-1" d="M56.5961,168.576c.311-4.337,.623-8.702,.935-13.124,3.231-.794,5.924-1.899,8.079-3.373,2.097-1.389,4.195-3.459,6.378-6.208,.141-.17,.255-.312,.368-.511,2.296-2.891,4.195-6.009,5.698-9.184,1.446-3.175,2.948-7.427,4.45-12.7271,.681-2.5229,1.446-4.2809,2.041-5.2159,.68-.9641,1.474-1.4171,2.523-1.4171,1.332,0,2.239,.623,2.693,1.984,.425,1.36,.539,3.657,.255,7.03-1.02,14.116-2.041,28.205-3.09,42.746h-30.33Zm5.726-84.529c4.705,.028,9.411,.028,14.201,.028h3.0049c-.567,7.739-1.134,15.478-1.7289,23.443-.255,3.77-.681,6.435-1.333,7.88-.51,1.276-1.304,1.985-2.409,2.155-.17,.028-.369,0-.539,.028-1.105,0-1.956-.567-2.522-1.729-.511-1.106-.908-2.977-1.078-5.698-.425-5.612-1.304-9.779-2.579-12.812-1.332-3.033-3.175-5.018-5.528-5.953,.17-2.41,.312-4.819,.511-7.342Zm-6.095,0c-2.069,27.921-4.053,55.758-6.179,84.529-11.339,0-22.706-.028-34.413-.028-1.729,0-3.061-.567-3.912-1.673-.907-1.048-1.219-2.664-1.077-4.62,.255-3.317,1.389-5.471,3.402-6.548,1.672-.879,2.664-1.446,2.948-1.644,.255-.227,.595-.595,.935-1.417,.68-1.304,1.077-3.345,1.304-6.152,1.502-20.608,3.005-41.215,4.564-62.447,10.686,0,21.373,.028,32.428,0Z" />
    <path class="cls-1" d="M123.9471,109.446c.9641,4.563,1.956,9.127,2.948,13.804-1.7859,4.054-3.572,8.079-5.414,12.246-1.985,4.535-3.062,8.107-3.2599,10.8-.255,3.855,.793,6.661,3.373,8.447,1.361,.992,2.268,1.956,2.721,2.948,.5099,.936,.652,2.325,.539,3.969-.199,2.267-.851,4.167-2.1541,5.527-.454,.624-.964,.964-1.588,1.134-.482,.199-1.531,.255-3.033,.255h-18.794c-1.559,0-2.778-.567-3.571-1.672-.822-1.021-1.191-2.58-1.049-4.507,.113-1.531,.51-2.835,1.134-3.855,.652-.964,1.672-1.9,3.118-2.807,3.855-2.352,6.973-6.151,9.354-11.508,5.159-11.509,10.318-22.933,15.676-34.781Zm37.53-25.371c4.706,21.232,9.44,42.435,14.344,64.262,.652,2.863,1.729,4.904,3.118,6.179,1.19,1.134,2.012,2.211,2.438,3.175,.397,.936,.51,2.381,.397,3.997-.199,2.211-.794,3.912-1.843,5.216-.935,1.105-2.693,1.701-5.386,1.701-11.31,0-22.564-.029-34.214,0-2.608,0-4.309-.341-5.074-.822-1.559-1.248-2.268-3.317-2.069-6.237,.056-1.02,.34-1.956,.708-2.721,.426-.794,1.106-1.701,2.098-2.806,1.814-2.041,2.75-3.884,2.806-5.584,.085-1.389-.226-3.43-.822-6.208-4.507-19.843-8.957-39.685-13.606-60.123,12.246,0,24.491,0,37.105-.029Z" />
    <path class="cls-1" d="M248.0761,84.132h27.694c-3.798,7.484-8.759,13.068-14.825,16.611-5.1021,2.9771-12.2451,4.536-21.515,4.479,.34-4.252,.624-8.532,.964-12.926,2.154-.85,3.685-1.673,4.592-2.551,.907-.879,1.786-2.268,2.523-4.11,.198-.482,.368-.993,.567-1.503Zm-13.295,0c-1.502,20.296-3.004,40.592-4.507,61.512-.226,3.09-.028,5.414,.624,6.718,.312,.85,.624,1.304,.9919,1.559,.2841,.17,1.389,.709,3.175,1.417,2.296,.993,3.316,3.175,3.033,6.747-.142,2.126-.879,3.77-2.239,5.074-.9641,.992-2.58,1.474-4.7061,1.446-12.189,.028-24.378,.028-36.907,0-1.758,.028-3.061-.567-3.94-1.673-.879-1.02-1.219-2.664-1.077-4.62,.226-3.317,1.332-5.471,3.373-6.548,1.729-.851,2.664-1.446,2.976-1.644,.227-.227,.567-.624,.879-1.389,.709-1.333,1.162-3.345,1.361-6.18,1.53-20.579,3.004-41.187,4.592-62.419,10.63-.028,21.345-.028,32.371,0Z" />
    <path class="cls-1" d="M329.5441,168.661c.3401-4.45,.652-8.986,.9921-13.606,2.438-.68,4.3929-1.502,5.839-2.353,1.4459-.935,2.863-2.211,4.252-3.912,2.2681-2.664,4.394-6.321,6.463-10.998,2.0131-4.706,3.7421-9.865,5.244-15.647,1.106-4.451,2.0129-7.342,2.806-8.788,.7939-1.389,1.73-2.126,3.0339-2.126,1.3881,.029,2.296,.992,2.834,2.835,.1991,.879,.2271,2.665,0,5.301-1.1899,16.299-2.3529,32.542-3.5709,49.323-9.213,0-18.397,0-27.8931-.029Zm-5.8959,0c-11.3961,0-22.7061,0-34.413-.028-1.729,.028-3.005-.567-3.912-1.673-.879-1.02-1.19-2.636-1.049-4.62,.255-3.317,1.333-5.471,3.374-6.548,1.672-.85,2.636-1.446,2.948-1.644,.2549-.199,.566-.624,.907-1.389,.708-1.304,1.162-3.345,1.36-6.151,1.503-20.608,3.005-41.216,4.564-62.448,10.658,0,21.373-.028,32.3719,0-2.0129,27.922-4.082,55.758-6.1509,84.501Z" />
    <path class="cls-1" d="M420.7911,84.189c11.423,.028,22.8469,.028,34.554,.028-.028,.652-.057,1.304-.142,1.984-2.041,28.007-8.3621,49.862-18.9921,65.509-8.192,12.189-17.745,18.85-28.715,20.268,.312-4.394,.652-8.816,.964-13.351,1.332-.482,2.3251-1.106,3.118-1.871,.7369-.766,1.474-1.899,2.183-3.373,1.559-3.317,2.608-8.306,3.09-14.996,1.3041-17.886,2.608-35.745,3.9401-54.198Zm-19.701,0c-1.304,17.886-2.608,35.7729-3.9399,54.198-.51,7.115-.255,12.133,.709,14.996,.6229,2.211,1.955,3.826,3.9399,4.903,.255,.142,.4821,.227,.7371,.341-.3401,4.393-.652,8.815-.9921,13.351-10.687-1.503-19.2479-8.249-25.682-20.268-8.3619-15.675-11.4519-37.531-9.411-65.537,.0281-.652,.0851-1.304,.1411-1.9839,11.396-.029,22.7909,0,34.4979,0Z" />
    <path class="cls-1" d="M488.7661,158.173c-.369,4.564-.681,9.128-1.049,13.833-3.9691,0-8.192-1.956-12.728-5.697-1.7571-1.418-2.9191-2.297-3.5431-2.722-.652-.368-1.304-.567-1.928-.567-.963,0-1.729,.255-2.2109,.794-.5381,.51-1.4451,1.843-2.6641,3.94-.964,1.786-2.0129,2.665-3.033,2.665-2.722-.029-3.799-3.487-3.317-10.403,1.077-14.57,2.126-29.169,3.26-44.136,.142-2.296,.652-4.167,1.559-5.782,.879-1.531,1.9281-2.353,3.062-2.438,1.105-.085,1.87,.425,2.381,1.53,.567,1.049,.963,2.977,1.1901,5.755,.595,6.945,1.7579,13.436,3.4299,19.445,1.6731,6.067,3.77,11.197,6.2931,15.449,2.5509,4.337,5.641,7.115,9.298,8.334Zm41.839-73.956c3.288,8.873,4.507,18.992,3.6851,30.473-.765,10.488-3.005,19.984-6.718,28.63-3.7981,8.617-8.532,15.392-14.343,20.324-3.147,2.608-6.4351,4.592-10.063,6.094-3.5441,1.503-6.86,2.268-9.8931,2.268,.312-4.564,.623-9.099,.9921-13.833,4.3939-1.701,7.625-4.053,9.751-7.087,2.069-2.976,3.288-7.114,3.657-12.33,.397-5.358-.7369-10.177-3.345-14.287-1.729-2.636-5.2161-5.924-10.375-9.949-5.613-4.337-9.496-7.456-11.5651-9.27-2.126-1.899-4.054-4.053-5.953-6.604-3.26-4.252-5.783-9.071-7.5969-14.429h61.767Z" />
    <path class="cls-1" d="M583.6411,168.775c-11.99-.029-24.009-.029-36.368-.029-1.729,0-3.005-.595-3.912-1.672-.879-1.049-1.219-2.665-1.077-4.621,.2271-3.316,1.389-5.47,3.373-6.548,1.701-.878,2.665-1.445,2.976-1.644,.255-.226,.567-.623,.9071-1.417,.709-1.304,1.106-3.345,1.304-6.151,1.531-20.608,3.005-41.216,4.564-62.447,10.715,0,21.402,.028,32.4,0-1.446,20.607-2.948,41.244-4.535,62.475-.199,2.778-.114,4.847,.4821,6.123,.198,.794,.453,1.191,.6799,1.417,.2271,.227,1.134,.794,2.693,1.673,1.8711,1.049,2.6641,3.203,2.3811,6.548-.113,1.956-.7091,3.571-1.7581,4.62-.963,1.106-2.3521,1.644-4.11,1.673Z" />
    <path class="cls-1" d="M658.5041,84.302c11.396,0,22.7909-.028,34.5549,0-.0289,.652-.085,1.304-.142,1.984-2.069,28.035-8.4191,49.834-19.049,65.509-8.135,12.161-17.6881,18.879-28.687,20.268,.2839-4.365,.652-8.816,.964-13.351,1.3319-.482,2.381-1.134,3.1179-1.871,.766-.766,1.446-1.899,2.155-3.373,1.587-3.317,2.636-8.306,3.118-14.967,1.304-17.915,2.6079-35.802,3.968-54.199Zm-19.701-.028c-1.332,17.886-2.636,35.773-3.968,54.198-.51,7.115-.2839,12.133,.6801,14.996,.7369,2.466,2.2679,4.195,4.677,5.244-.311,4.393-.652,8.815-.9921,13.351-10.658-1.503-19.275-8.277-25.682-20.268-8.333-15.675-11.48-37.502-9.439-65.565,.085-.652,.142-1.304,.17-1.9839,11.424,.028,22.819,.028,34.554,.028Z" />
    <path class="cls-1" d="M720.4701,84.302c-1.163,15.818-2.296,31.607-3.4869,47.906-.425,5.641-.255,10.318,.652,13.946,.879,3.657,2.494,6.577,4.7899,8.958,.6521,.652,1.333,1.332,2.0131,2.069,1.219,1.219,1.701,3.061,1.531,5.442-.142,1.843-.709,3.402-1.701,4.564-.907,1.049-2.494,1.616-4.9609,1.616-5.527,0-11.083-.028-16.8091,0-4.45,0-6.5199-2.183-6.236-6.293,.113-1.474,.4821-2.608,.963-3.515,.567-.822,1.645-1.956,3.317-3.458,4.9609-4.195,7.8519-12.076,8.674-23.358,1.162-15.789,2.296-31.578,3.515-47.877h7.739Zm57.486,0c1.4181,.029,2.7781,.029,4.167,.029-.3119,3.968-.595,7.823-.85,11.678-1.1339-3.968-2.2109-7.8231-3.317-11.707Zm-6.605,0c2.7781,10.233,5.613,20.495,8.4761,31.04-1.276,17.659-2.5791,35.291-3.8831,53.489-6.577,0-13.153-.028-19.9-.028-6.3779-22.989-12.7269-45.978-19.1899-69.449-1.389-4.989-2.806-10.006-4.167-15.052,1.729,0,3.458,.029,5.244,0,11.027,.029,22.0819,0,33.4199,0Z" />
    <path class="cls-1" d="M73.0931,84.047c.17-2.183,.34-4.394,.51-6.69,1.361-1.077,2.58-2.154,3.657-3.288,1.2469-1.36,2.296-2.721,3.147-4.138,1.559-2.637,2.806-6.208,3.77-10.659,.595-3.061,1.247-5.1591,2.012-6.3491,.369-.624,.822-1.049,1.276-1.361,.453-.255,.964-.368,1.502-.368,.567,0,1.049,.113,1.474,.396,.766,.454,1.247,1.304,1.559,2.58,.227,1.049,.255,3.458-.056,7.2-.539,7.483-1.078,14.995-1.644,22.705h-13.777c-1.134,0-2.268,0-3.4301-.028ZM79.3291,3.203h29.424c-1.077,14.173-2.069,28.29-3.146,42.86-.199,2.551-.567,4.337-1.276,5.471-.652,1.134-1.616,1.701-2.891,1.701-1.049,0-1.815-.369-2.2401-1.049-.113-.142-.198-.369-.312-.624-.311-.794-.566-2.126-.765-3.912-1.134-9.354-3.345-16.526-6.576-21.458-2.608-3.997-6.01-6.661-10.233-8.079-.936-.312-1.956-.567-2.977-.765,.34-4.706,.681-9.326,.992-14.145Zm-6.463,0c-1.162,16.072-2.352,32.145-3.543,48.331-.765,10.743-1.559,21.571-2.353,32.513-10.686,.028-21.43,.028-32.4,0,.7939-10.8,1.559-21.6,2.381-32.513,.652-8.646,1.276-17.462,1.9-26.334,.226-2.806,.085-4.876-.426-6.151-.226-.681-.453-1.191-.708-1.389-.284-.199-1.162-.794-2.693-1.673-1.871-1.02-2.693-3.203-2.438-6.519,.142-2.013,.737-3.6,1.786-4.649,.9919-1.134,2.409-1.644,4.11-1.644,11.367,.028,22.706,.028,34.384,.028Z" />
    <path class="cls-1" d="M172.9011,57.968c-.482-2.126-.964-4.223-1.474-6.378-.539-2.324-1.077-4.677-1.587-7.086,1.587-3.799,3.26-7.569,4.904-11.481,1.133-2.692,1.729-4.988,1.899-6.944,.085-1.758-.085-3.459-.595-5.103-.567-1.757-1.333-3.033-2.353-3.827-.794-.623-1.588-1.247-2.41-1.927-.453-.425-.822-1.191-1.105-2.324-.255-1.106-.397-2.268-.312-3.374,.142-1.956,.68-3.515,1.559-4.592,.879-1.134,2.069-1.701,3.402-1.701,6.973,0,13.918,0,21.118,.029,1.332-.029,2.438,.482,3.26,1.502,.822,1.021,1.218,2.296,1.048,3.912-.113,1.956-.6801,3.628-1.7,5.074-.369,.567-1.474,1.502-3.26,3.061-3.657,3.118-6.832,7.711-9.581,13.635-3.289,7.002-6.548,14.0309-9.865,21.146-.992,2.126-1.927,4.252-2.948,6.378Zm-14.031-33.533c2.069,9.042,4.053,18.085,6.094,27.184,2.438,10.715,4.791,21.515,7.285,32.513-12.246-.028-24.491-.028-37.105-.028-2.438-10.8-4.876-21.629-7.342-32.514-2.041-8.985-4.082-18-6.151-27.184-.454-2.041-.936-3.628-1.559-4.819-.567-1.134-1.389-2.239-2.438-3.175-.936-.85-1.503-1.729-1.871-2.692-.255-.908-.369-2.2971-.198-3.9691,.141-2.409,.793-4.139,1.927-5.102,1.134-1.021,3.005-1.418,5.698-1.446,11.168,.028,22.422,.028,33.959,.028,2.494,0,4.28,.511,5.301,1.559,1.02,1.078,1.417,2.778,1.247,5.074-.199,2.353-1.162,4.422-2.835,6.18-.85,.964-1.417,1.644-1.729,2.268-.2549,.595-.482,1.417-.567,2.466-.057,1.105,.057,2.381,.284,3.657Z" />
    <path class="cls-1" d="M258.8191,84.132c.936-2.976,1.588-6.69,1.928-11.282,.5099-7.058,1.049-14.088,1.559-21.231,.397-5.726,.822-11.594,1.275-17.462,.256-3.798,.312-6.633,.085-8.475-.198-1.843-.765-3.544-1.672-5.074-1.219-2.325-3.033-3.7141-5.414-4.252,.34-4.309,.623-8.646,.992-13.096,10.035,0,17.291,1.559,21.827,4.677,5.272,3.685,9.156,9.269,11.849,16.781,2.607,7.37,3.543,16.299,2.891,26.929-.028,.425-.028,.851-.085,1.2759-.907,12.415-3.288,22.6201-7.172,30.557-.142,.255-.227,.454-.368,.652h-27.695ZM251.4491,3.26c-1.19,16.072-2.324,32.145-3.543,48.359-.794,10.743-1.559,21.571-2.353,32.513h-32.4c.794-10.8,1.587-21.6,2.381-32.513,.624-8.703,1.276-17.462,1.956-26.334,.17-2.806,0-4.876-.482-6.151-.255-.737-.482-1.191-.68-1.446-.312-.142-1.162-.737-2.75-1.616-1.899-1.02-2.636-3.26-2.409-6.519,.142-2.013,.652-3.6,1.701-4.649,1.077-1.134,2.466-1.644,4.195-1.644h34.384Z" />
    <path class="cls-1" d="M308.1421,84.16c.822-10.8,1.616-21.6,2.409-32.513,.624-8.674,1.276-17.4611,1.928-26.334,.198-2.806,.057-4.875-.425-6.151-.2549-.709-.5099-1.19-.709-1.417-.283-.17-1.162-.766-2.693-1.644-1.927-1.021-2.693-3.26-2.494-6.52,.142-2.013,.708-3.6,1.786-4.649,1.048-1.134,2.437-1.644,4.167-1.644,12.189,0,24.349,.028,36.907,0,2.1541,0,3.656,.425,4.478,1.446,1.191,1.304,1.673,3.033,1.531,5.074-.255,3.571-1.559,5.782-3.9969,6.69-1.899,.708-3.0901,1.162-3.4301,1.417-.34,.255-.708,.765-1.1899,1.474-.879,1.474-1.389,3.685-1.6161,6.746-.652,8.504-1.219,17.008-1.871,25.512-.7939,10.743-1.559,21.543-2.381,32.513h-32.4Z" />
    <path class="cls-1" d="M429.8901,13.124c.312-4.45,.595-8.759,.9349-13.124,5.2161,.453,9.8931,2.268,14.032,5.386,4.1101,3.146,7.8241,7.767,11.1121,13.804,4.875,8.873,8.0499,19.73,9.5809,32.542,1.1901,9.695,1.3611,20.551,.5951,32.485-11.764,0-23.1591,0-34.583-.028,.7939-10.999,1.588-21.77,2.353-32.514,.5389-7.2,1.049-14.428,1.5879-21.628,.3401-4.28,.141-7.597-.5389-10.176-.51-1.701-1.105-2.9771-1.786-3.9691-.765-.964-1.899-1.899-3.288-2.778Zm-5.9811,0c-2.636,1.474-4.479,3.402-5.698,5.953-1.1899,2.466-2.012,6.151-2.381,10.998-.538,7.172-1.049,14.372-1.5869,21.629-.7661,10.715-1.5591,21.486-2.353,32.485h-34.5541c.964-11.821,2.7781-22.649,5.3571-32.485,.369-1.276,.681-2.466,1.021-3.657,3.345-11.338,7.767-20.92,13.266-28.857,4.167-6.066,8.589-10.658,13.124-13.833,.9919-.68,1.984-1.304,3.033-1.842,3.6851-1.984,7.597-3.147,11.736-3.487-.3119,4.309-.6809,8.674-.964,13.096Z" />
    <path class="cls-1" d="M519.6351,14.031c.34-4.422,.624-8.787,.964-13.351,2.863,.34,5.386,.964,7.455,1.899,2.097,.879,4.9601,2.6931,8.7311,5.471,.907,.652,1.7,.936,2.324,.964,.964,0,1.672-.539,2.126-1.616,.652-1.134,1.2469-2.296,1.899-3.458,.907-1.757,1.8989-2.636,3.033-2.636,1.304,0,2.2109,.737,2.693,2.353,.4821,1.587,.652,4.053,.397,7.455-.964,13.181-1.928,26.362-2.9199,39.94-.0281,.227-.056,.453-.0851,.68-.198,2.041-.708,3.742-1.559,5.103-.9351,1.445-2.012,2.182-3.288,2.211-.9351,0-1.786-.567-2.5801-1.588-.3679-.623-.651-1.446-.907-2.353-.141-.737-.255-1.87-.34-3.373,0-.397-.0281-.822-.056-1.275-.199-3.912-.822-8.051-1.843-12.218-1.049-4.223-2.324-7.937-3.77-11.225-3.0609-6.633-7.1429-10.913-12.2739-12.983ZM514.873,.057c-.34,4.592-.709,9.212-1.021,13.974-3.1179,1.361-5.527,3.459-7.37,6.322-1.814,2.863-2.8059,6.349-3.146,10.601-.2839,4.054,.113,7.6541,1.1901,10.63,1.134,3.033,3.005,5.896,5.783,8.646,.453,.397,.9921,.935,1.672,1.474,2.3251,2.097,6.123,5.1021,11.396,9.212,4.167,3.147,7.313,6.01,9.552,8.561,2.2111,2.495,4.281,5.698,6.123,9.468,.879,1.729,1.616,3.486,2.325,5.301-20.381-.0291-40.7629-.0291-61.767-.0291-2.75-8.277-3.714-17.858-2.92-28.8,.0851-1.247,.2271-2.466,.3401-3.685,.8219-7.795,2.5229-15.052,4.9609-21.827,2.834-7.767,6.491-14.059,10.97-18.822,6.123-6.633,13.4081-10.289,21.912-11.026Z" />
    <path class="cls-1" d="M566.18,84.246c.765-10.8,1.587-21.6,2.3811-32.514,.6239-8.674,1.276-17.461,1.927-26.334,.199-2.806,.0859-4.875-.425-6.151-.226-.709-.453-1.19-.7371-1.417-.226-.17-1.0769-.766-2.6639-1.644-1.9-1.021-2.665-3.232-2.438-6.52,.142-2.013,.709-3.6,1.7009-4.649,1.077-1.134,2.494-1.644,4.223-1.644,11.963,.028,24.01,0,36.369,0,1.729,.028,3.033,.51,3.8831,1.673,.907,1.048,1.276,2.636,1.1339,4.648-.283,3.2599-1.417,5.5-3.401,6.4919-1.7009,.907-2.6649,1.502-2.9769,1.6721-.2831,.227-.567,.68-.907,1.417-.709,1.248-1.1051,3.345-1.3611,6.123-.6229,8.788-1.2749,17.547-1.8989,26.334-.7931,10.743-1.5591,21.543-2.381,32.514h-32.4281Z" />
    <path class="cls-1" d="M667.5471,13.209c.312-4.422,.6229-8.787,.9349-13.124,5.244,.482,9.921,2.268,14.0321,5.357,4.1379,3.204,7.8799,7.796,11.1399,13.862,4.875,8.872,8.05,19.729,9.5811,32.485,1.162,9.723,1.332,20.579,.567,32.513-11.736-.028-23.188,0-34.5541,0,.7931-10.998,1.6151-21.77,2.3811-32.542,.538-7.228,1.048-14.4,1.559-21.628,.312-4.252,.141-7.625-.5391-10.148-.5099-1.701-1.105-3.005-1.7859-4.025-.7931-.936-1.899-1.871-3.316-2.75Zm-5.953,.029c-2.636,1.474-4.479,3.373-5.726,5.8961-1.191,2.5229-2.0131,6.179-2.3241,10.998-.511,7.2-1.049,14.428-1.559,21.628-.823,10.744-1.616,21.515-2.41,32.514-11.395,0-22.7899-.028-34.526-.028,.907-11.764,2.693-22.593,5.329-32.457,.3401-1.247,.7091-2.495,1.021-3.657,3.316-11.338,7.738-20.92,13.238-28.857,4.166-6.066,8.588-10.658,13.152-13.833,4.536-3.118,9.468-4.875,14.769-5.357-.312,4.365-.624,8.674-.964,13.153Z" />
    <path class="cls-1" d="M788.7001,84.331c-.9359-3.289-1.871-6.605-2.807-10.007,.5391-7.455,1.077-14.938,1.6161-22.478,.283-3.686,.5389-7.371,.85-11.112,.4819-6.775,.255-11.934-.6801-15.534-.879-3.6-2.835-6.718-5.6129-9.298-1.02-.822-1.587-1.644-1.899-2.579-.368-.936-.51-2.126-.397-3.572,.1699-2.183,.7369-3.77,1.673-4.762,.907-1.021,2.353-1.559,4.223-1.531h18.199c2.4659,.028,4.053,.624,4.762,1.899,.709,1.361,.9921,2.863,.879,4.621-.114,1.701-.397,3.005-.964,3.798-.5391,.907-1.729,2.013-3.572,3.487-2.749,2.183-4.9039,5.527-6.576,10.063-1.1339,3.288-1.9559,7.767-2.381,13.408-.2269,3.685-.5389,7.398-.7939,11.083-.7941,10.715-1.559,21.487-2.381,32.514h-4.1381Zm-62.4189-38.41c.567,1.984,1.1329,3.969,1.729,5.868,1.502,5.216,3.004,10.318,4.478,15.449-.425,5.811-.8501,11.423-1.2471,17.064h-7.767c.7939-11.027,1.616-21.798,2.353-32.485,.1699-1.984,.312-3.94,.454-5.896ZM759.956,3.458c4.422,16.044,8.816,32.145,13.238,48.331,2.948,10.771,5.9241,21.6,8.929,32.542h-38.693c-1.4449-5.245-2.891-10.46-4.3369-15.733-1.5591-5.584-3.118-11.14-4.649-16.809-2.267-8.136-4.535-16.356-6.8309-24.718-.8511-3.062-1.588-5.244-2.2111-6.435-.567-1.219-1.304-2.126-2.381-2.693-.879-.567-1.7581-1.134-2.665-1.701-.7369-.34-1.1899-1.105-1.559-2.154-.397-1.02-.538-2.183-.453-3.487,.085-1.389,.4249-2.664,.9919-3.826,.51-1.191,1.077-2.041,1.8711-2.552,.85-.51,3.174-.793,6.803-.793,5.272,.028,10.5449,0,15.845,0,5.2729,.028,10.687,0,16.101,.028Z" />
    <path class="cls-1" d="M.0161,225.751c1.389-.142,2.806-.255,4.224-.397,.085,1.673,.425,3.062,1.105,4.139,.624,1.077,1.729,1.956,3.203,2.608,1.474,.68,3.147,.992,5.103,.992,1.672,0,3.174-.255,4.507-.766,1.332-.453,2.353-1.19,3.033-2.069,.737-.879,1.105-1.814,1.19-2.863,.085-1.049-.17-1.927-.737-2.749-.51-.794-1.502-1.446-2.863-1.985-.8781-.34-2.806-.878-5.867-1.615-3.033-.737-5.159-1.446-6.322-2.126-1.53-.851-2.664-1.871-3.373-3.119-.708-1.218-.992-2.607-.879-4.138,.171-1.701,.737-3.288,1.815-4.791,1.105-1.445,2.522-2.551,4.45-3.345,1.899-.708,3.997-1.133,6.236-1.133,2.495,0,4.677,.425,6.52,1.218,1.871,.794,3.203,1.956,4.11,3.515,.936,1.559,1.361,3.317,1.304,5.301-1.446,.114-2.863,.199-4.337,.312-.028-2.126-.68-3.713-1.956-4.819-1.219-1.049-3.175-1.616-5.726-1.616-2.693,0-4.734,.511-6.009,1.474-1.276,.993-2.013,2.183-2.098,3.544-.113,1.219,.284,2.211,1.106,2.976,.793,.794,2.948,1.587,6.491,2.41,3.628,.85,6.009,1.53,7.342,2.126,1.842,.935,3.231,2.04,4.053,3.429,.851,1.389,1.191,2.977,1.049,4.763-.113,1.785-.794,3.486-1.928,5.045-1.105,1.588-2.636,2.807-4.677,3.685-1.927,.879-4.138,1.304-6.548,1.304-3.061,0-5.556-.425-7.568-1.332-1.956-.879-3.487-2.183-4.507-3.969-1.077-1.785-1.559-3.77-1.446-6.009Z" />
    <path class="cls-1" d="M36.4701,220.252c-.284,4.053,.595,7.257,2.607,9.581,2.013,2.324,4.678,3.43,7.937,3.458,3.345-.028,6.208-1.162,8.533-3.486,2.324-2.41,3.656-5.698,3.968-10.063,.199-2.693-.085-5.046-.85-7.144-.794-2.012-2.013-3.543-3.714-4.705-1.672-1.134-3.628-1.701-5.867-1.701-3.203,.028-5.953,1.077-8.334,3.26-2.438,2.154-3.912,5.783-4.28,10.8Zm-4.564-.057c.425-5.556,2.268-9.949,5.4709-13.096,3.203-3.146,7.228-4.734,11.934-4.734,3.118,0,5.867,.766,8.22,2.268,2.409,1.446,4.139,3.543,5.244,6.208,1.134,2.579,1.559,5.584,1.304,8.957-.255,3.43-1.134,6.407-2.693,9.128-1.587,2.664-3.685,4.705-6.321,6.094-2.608,1.361-5.386,2.07-8.306,2.041-3.146,0-5.924-.737-8.305-2.267-2.41-1.531-4.11-3.572-5.216-6.237-1.077-2.636-1.531-5.442-1.332-8.362Z" />
    <path class="cls-1" d="M93.1061,202.989h4.45c-.453,6.406-.907,12.784-1.389,19.389-.255,3.373-.85,6.038-1.757,8.022-.907,1.956-2.381,3.572-4.479,4.847-2.098,1.219-4.762,1.843-7.994,1.843-3.175,0-5.669-.539-7.625-1.588-1.871-1.134-3.26-2.664-3.968-4.734-.652-2.041-.879-4.847-.624-8.419,.482-6.377,.935-12.784,1.417-19.36h4.422c-.425,6.378-.907,12.784-1.389,19.36-.226,2.892-.085,5.074,.312,6.435,.482,1.389,1.332,2.438,2.551,3.203,1.304,.737,2.892,1.134,4.819,1.134,3.26,0,5.641-.765,7.144-2.268,1.502-1.474,2.409-4.308,2.692-8.504,.482-6.377,.936-12.755,1.418-19.36Z" />
    <path class="cls-1" d="M102.4881,236.523c.794-11.055,1.616-22.139,2.467-33.534h4.535c5.187,8.731,10.403,17.376,15.732,26.334,.624-8.703,1.248-17.348,1.9-26.306,1.417-.028,2.806-.028,4.28-.028-.822,11.055-1.616,22.138-2.466,33.534h-4.536c-5.187-8.674-10.403-17.377-15.76-26.334-.624,8.702-1.276,17.376-1.928,26.362-1.389-.028-2.778-.028-4.224-.028Z" />
    <path class="cls-1" d="M141.1531,232.583c2.381-.029,4.734,0,7.2,0,2.239,0,3.94-.199,5.272-.596,1.276-.425,2.325-.992,3.119-1.757,1.162-1.049,2.069-2.466,2.778-4.224,.708-1.786,1.19-3.94,1.36-6.463,.255-3.515-.085-6.208-1.134-8.079-1.048-1.899-2.352-3.146-3.94-3.77-1.162-.482-3.061-.708-5.726-.708-2.324-.029-4.677,0-7.058,0-.624,8.419-1.247,16.866-1.871,25.597Zm-4.705,3.968c.822-11.055,1.615-22.139,2.466-33.534,3.826-.028,7.625,0,11.537-.028,2.636,.028,4.592,.17,5.952,.538,1.928,.426,3.459,1.219,4.763,2.353,1.644,1.531,2.8911,3.43,3.571,5.755,.709,2.352,.936,4.96,.709,7.993-.17,2.523-.652,4.791-1.361,6.747-.737,1.984-1.615,3.6-2.693,4.875-.992,1.276-2.097,2.296-3.231,3.033-1.191,.766-2.523,1.304-4.1671,1.701-1.587,.369-3.402,.539-5.443,.539-3.968,.028-7.965,.028-12.103,.028Z" />
    <path class="cls-1" d="M182.0001,226.488c.114-1.332,.199-2.693,.312-4.139,4.167,0,8.334,0,12.6429,.029-.085,1.332-.199,2.693-.312,4.11h-12.643Z" />
    <path class="cls-1" d="M211.8771,236.551c.823-11.055,1.616-22.139,2.467-33.534h4.45c-.709,9.751-1.4171,19.503-2.1541,29.594h16.526c-.085,1.304-.17,2.608-.284,3.968-6.916,0-13.861-.028-21.005-.028Z" />
    <path class="cls-1" d="M238.9481,236.551c.794-11.027,1.616-22.11,2.438-33.505h4.451c-.766,11.055-1.616,22.138-2.438,33.533-1.503,0-2.948,0-4.451-.028Z" />
    <path class="cls-1" d="M267.9181,223.427c.085-1.276,.199-2.552,.284-3.884,4.734-.028,9.411-.057,14.258-.028-.312,4.082-.595,8.22-.907,12.444-2.324,1.701-4.705,3.033-7.058,3.883-2.41,.879-4.819,1.333-7.257,1.304-3.316,0-6.264-.68-8.816-2.097-2.636-1.418-4.507-3.459-5.669-6.123-1.219-2.665-1.672-5.641-1.446-8.929,.255-3.288,1.134-6.322,2.778-9.156,1.503-2.835,3.629-4.876,6.293-6.265,2.693-1.417,5.698-2.069,9.043-2.097,2.409,0,4.592,.425,6.519,1.19,1.871,.822,3.345,1.899,4.366,3.317,.992,1.389,1.701,3.174,2.154,5.471-1.36,.396-2.721,.708-4.082,1.077-.397-1.729-.935-3.033-1.616-4.025-.68-.936-1.672-1.73-3.033-2.353-1.332-.567-2.863-.879-4.563-.879-2.041,0-3.827,.312-5.329,.964-1.56,.595-2.807,1.389-3.771,2.409-.992,.992-1.785,2.098-2.324,3.317-1.049,2.069-1.672,4.337-1.842,6.718-.227,3.033,.113,5.527,.992,7.512,.907,2.012,2.296,3.515,4.195,4.507,1.899,.964,3.997,1.474,6.151,1.502,1.928-.028,3.855-.425,5.783-1.162,1.871-.737,3.345-1.531,4.337-2.353,.142-2.069,.312-4.11,.453-6.236-3.26-.028-6.519-.028-9.893-.028Z" />
    <path class="cls-1" d="M287.9031,236.579c.822-11.055,1.6151-22.138,2.466-33.533,1.474,0,2.919,.028,4.422,.028-.34,4.535-.68,9.099-1.021,13.776,5.783,0,11.566-.028,17.462,0,.34-4.535,.68-9.099,.992-13.776h4.479c-.822,11.055-1.616,22.138-2.438,33.534h-4.4789c.397-5.216,.765-10.432,1.162-15.818-5.754,0-11.508,0-17.461-.028-.369,5.244-.737,10.432-1.134,15.846-1.474-.029-2.92-.029-4.45-.029Z" />
    <path class="cls-1" d="M330.196,236.608c.708-9.751,1.4171-19.503,2.1541-29.566-3.657,.029-7.285,0-11.027,0,.085-1.304,.199-2.607,.255-3.968,8.788,0,17.575,0,26.674,.028-.141,1.276-.198,2.58-.312,3.94h-11.111c-.709,9.78-1.418,19.503-2.183,29.566h-4.4501Z" />
    <path class="cls-1" d="M361.972,226.573c.113-1.361,.198-2.721,.312-4.167,4.1951,0,8.3621,.029,12.6991,.029-.113,1.36-.198,2.721-.312,4.138-4.1951-.028-8.39-.028-12.6991,0Z" />
    <path class="cls-1" d="M392.133,236.636c.822-11.055,1.644-22.138,2.4661-33.534,1.304,0,2.608-.028,3.912,0h20.4089c-.1129,1.304-.198,2.636-.3119,3.997-6.5481-.028-13.0961-.028-19.842-.028-.255,3.401-.511,6.803-.7371,10.289h18.623c-.141,1.304-.2271,2.608-.312,3.941h-18.6229c-.2841,3.741-.5391,7.511-.8511,11.367h20.665c-.113,1.332-.2271,2.636-.312,3.968h-25.0861Z" />
    <path class="cls-1" d="M423.6251,236.636c.7939-11.055,1.645-22.138,2.438-33.534,7.484,.029,14.996,0,22.677,0-.056,1.304-.198,2.608-.283,3.997-6.009-.028-12.047-.028-18.255-.028-.1991,3.43-.4821,6.888-.7371,10.375,5.2161,.028,10.431,.028,15.7891,0-.0851,1.303-.1991,2.636-.2841,3.968-5.215,0-10.431,0-15.7889-.028-.368,5.074-.7371,10.063-1.1621,15.278-1.417,0-2.891-.028-4.3939-.028Z" />
    <path class="cls-1" d="M452.3401,236.636c.7941-11.027,1.588-22.11,2.438-33.505,7.4551,0,14.9391-.029,22.677,0-.141,1.304-.198,2.607-.311,3.968-5.9819-.028-12.048,0-18.2269-.028-.255,3.458-.51,6.888-.7371,10.403,5.187,0,10.4031,0,15.76-.028-.1129,1.332-.198,2.636-.283,3.968h-15.7889c-.368,5.046-.7371,10.035-1.1061,15.25-1.474,0-2.9189,0-4.422-.028Z" />
    <path class="cls-1" d="M480.857,236.664c.822-11.055,1.6161-22.138,2.438-33.533,8.05,0,16.072,0,24.349,.028-.1129,1.276-.198,2.579-.283,3.94-6.5759,0-13.124,.028-19.871,0-.255,3.402-.51,6.803-.765,10.29h18.567c-.085,1.332-.199,2.636-.2841,3.94-6.1229,.028-12.246,.028-18.5669,0-.2831,3.742-.5381,7.512-.822,11.367,6.803,0,13.606,0,20.636,.028-.0851,1.276-.198,2.58-.2831,3.94h-25.115Z" />
    <path class="cls-1" d="M536.9551,224.929c1.417,.369,2.863,.737,4.337,1.134-1.191,3.628-3.09,6.435-5.641,8.334s-5.585,2.834-9.1,2.863c-3.6281-.029-6.4911-.737-8.6741-2.24-2.126-1.474-3.713-3.571-4.705-6.349-.964-2.778-1.332-5.811-1.106-9.014,.256-3.459,1.163-6.52,2.637-9.128,1.53-2.608,3.5709-4.564,6.151-5.896,2.579-1.361,5.3569-2.041,8.334-2.041,3.345-.028,6.123,.85,8.249,2.58,2.182,1.672,3.6279,4.081,4.28,7.2-1.474,.34-2.8921,.68-4.451,1.02-.595-2.438-1.587-4.224-3.004-5.357-1.389-1.106-3.203-1.645-5.4709-1.673-2.5801,0-4.7621,.652-6.605,1.843-1.786,1.275-3.175,2.891-4.025,5.045-.85,2.013-1.3611,4.139-1.5021,6.378-.2269,2.892,.0281,5.386,.6801,7.512,.6799,2.098,1.871,3.713,3.543,4.706,1.701,1.105,3.572,1.587,5.613,1.587,2.4659,.028,4.6489-.709,6.491-2.098,1.786-1.474,3.147-3.6,3.969-6.406Z" />
    <path class="cls-1" d="M554.5581,236.693c.708-9.751,1.417-19.503,2.1541-29.566h-11.0551c.057-1.332,.198-2.607,.255-3.968h26.674c-.1129,1.332-.1699,2.636-.283,3.968h-11.141c-.7371,9.752-1.4449,19.503-2.182,29.566h-4.422Z" />
    <path class="cls-1" d="M573.9751,225.949c1.389-.141,2.778-.255,4.224-.396,.113,1.672,.453,3.061,1.049,4.138,.6801,1.106,1.7571,1.956,3.2311,2.636,1.4459,.681,3.203,.964,5.074,.993,1.701-.029,3.2321-.284,4.564-.766,1.332-.51,2.353-1.219,3.0331-2.097,.6799-.851,1.105-1.786,1.162-2.835,.085-1.049-.17-1.984-.709-2.778-.566-.765-1.5021-1.446-2.863-1.984-.907-.312-2.863-.851-5.896-1.588s-5.13-1.445-6.293-2.154c-1.53-.85-2.6641-1.871-3.401-3.118-.6801-1.219-.964-2.608-.8501-4.11,.113-1.701,.708-3.317,1.785-4.819,1.0491-1.418,2.5801-2.523,4.422-3.345,1.928-.709,4.026-1.134,6.293-1.106,2.495-.028,4.649,.426,6.4921,1.191,1.814,.822,3.203,1.984,4.167,3.543,.907,1.559,1.332,3.288,1.218,5.273-1.389,.141-2.834,.226-4.28,.34-.085-2.126-.765-3.742-1.984-4.819s-3.147-1.616-5.726-1.616c-2.693-.028-4.7061,.482-5.9811,1.446-1.304,.992-1.984,2.182-2.126,3.543-.057,1.219,.312,2.239,1.105,2.977,.822,.793,3.005,1.587,6.52,2.409,3.572,.822,6.009,1.531,7.285,2.154,1.899,.879,3.2319,2.041,4.082,3.43,.8219,1.361,1.1899,2.92,1.0769,4.762-.142,1.786-.7649,3.487-1.8989,5.046-1.162,1.559-2.7211,2.778-4.7061,3.685-1.984,.879-4.1949,1.276-6.5759,1.304-3.005-.028-5.584-.453-7.5121-1.361-2.012-.878-3.543-2.182-4.564-3.968-1.048-1.758-1.502-3.77-1.417-6.01Z" />
    <path class="cls-1" d="M617.6571,226.63c.085-1.361,.198-2.693,.283-4.11h12.7001c-.114,1.36-.199,2.721-.312,4.138-4.1951,0-8.3621,0-12.671-.028Z" />
    <path class="cls-1" d="M648.498,236.721c.7941-11.055,1.6161-22.138,2.4381-33.534h4.45c-.765,11.055-1.587,22.139-2.438,33.534h-4.4501Z" />
    <path class="cls-1" d="M660.6301,236.721c.822-11.055,1.616-22.138,2.4659-33.534,2.183,0,4.394,.029,6.6901,0,2.041,7.881,4.1389,15.676,6.236,23.783,.567,2.211,.964,3.855,1.219,4.932,.4821-1.219,1.2471-2.976,2.2111-5.357,3.203-7.71,6.4349-15.392,9.751-23.329h5.953c-.7941,11.055-1.616,22.138-2.438,33.533-1.417,0-2.863-.028-4.308-.028,.6799-9.241,1.36-18.482,2.069-28.006-3.912,9.241-7.795,18.51-11.792,28.006-1.332,.028-2.665,0-4.025,0-2.5229-9.411-5.046-18.822-7.625-28.545-.681,9.411-1.389,18.851-2.0699,28.545-1.4451,.028-2.863,0-4.337,0Z" />
    <path class="cls-1" d="M706.92,223.001h11.395c-.9349-3.061-1.8989-6.122-2.8629-9.297-.8501-2.806-1.474-5.131-1.842-6.945-.5959,2.126-1.333,4.309-2.296,6.406-1.4459,3.26-2.892,6.492-4.394,9.836Zm-10.715,13.748c5.074-11.055,10.1481-22.138,15.364-33.533h4.79c3.4869,10.374,7.002,20.749,10.6019,31.379,.2271,.709,.4821,1.446,.6801,2.154h-5.045c-1.049-3.344-2.098-6.689-3.147-10.148h-14.088c-1.4459,3.345-2.891,6.69-4.3939,10.148h-4.7621Z" />
    <path class="cls-1" d="M747.9371,223.597c.085-1.304,.199-2.58,.2839-3.884,4.677,0,9.411-.028,14.201-.056-.283,4.138-.595,8.248-.907,12.444-2.2671,1.757-4.649,3.033-7.058,3.94-2.353,.85-4.791,1.275-7.2571,1.304-3.26-.029-6.2639-.737-8.787-2.126-2.608-1.418-4.479-3.459-5.698-6.095-1.162-2.721-1.615-5.669-1.389-8.929,.2841-3.316,1.134-6.349,2.693-9.184,1.588-2.835,3.7141-4.904,6.3781-6.293,2.693-1.361,5.6691-2.069,9.043-2.069,2.437,.028,4.592,.425,6.4911,1.219,1.871,.765,3.3729,1.842,4.3939,3.288,1.02,1.389,1.7001,3.203,2.1541,5.499-1.361,.34-2.7211,.709-4.11,1.049-.3401-1.729-.907-3.033-1.6161-3.997-.652-.992-1.672-1.786-3.005-2.353-1.3319-.595-2.891-.907-4.563-.879-2.0699,0-3.799,.284-5.3579,.908-1.531,.595-2.806,1.417-3.77,2.437-.9921,.992-1.7571,2.126-2.353,3.345-1.02,2.07-1.616,4.337-1.786,6.69-.198,3.033,.114,5.528,.993,7.512,.8779,2.041,2.267,3.515,4.1949,4.479,1.899,.992,3.9401,1.502,6.1791,1.502,1.8999,0,3.8269-.369,5.698-1.106,1.8989-.765,3.402-1.559,4.365-2.352,.142-2.098,.2839-4.167,.454-6.265-3.26-.028-6.52,0-9.865-.028Z" />
    <path class="cls-1" d="M767.8651,236.778c.822-11.055,1.616-22.139,2.438-33.534h24.321c-.113,1.304-.17,2.608-.312,3.968-6.52,0-13.0961-.028-19.871,0-.2271,3.402-.453,6.804-.7371,10.262,6.151,0,12.274,.028,18.624,.028-.114,1.304-.199,2.608-.2841,3.94-6.151,0-12.302-.028-18.6229,0-.2841,3.742-.5391,7.484-.822,11.367h20.636c-.113,1.304-.198,2.608-.312,3.969h-25.058Z" />
</svg>