<svg width="875" height="226" viewBox="0 0 875 226" fill="none" xmlns="http://www.w3.org/2000/svg">
    <g clip-path="url(#clip0_118_75)">
        <path
            d="M18.9491 85.5599L1.37914 85.4999C1.19841 85.4999 1.02199 85.4467 0.872383 85.3469C0.722775 85.2472 0.60676 85.1055 0.539138 84.9399C0.0658043 83.8065 -0.0675291 82.8399 0.139138 82.0399C0.173155 81.9024 0.257736 81.7802 0.379267 81.6932C0.500798 81.6061 0.652211 81.5591 0.809138 81.5599L18.5891 81.4999C18.7108 81.4999 18.8313 81.476 18.9435 81.4296C19.0558 81.3833 19.1577 81.3153 19.2432 81.2298C19.3288 81.1442 19.3964 81.0427 19.442 80.9312C19.4876 80.8196 19.5105 80.7002 19.5091 80.5799C19.4091 70.8132 19.9825 61.3699 21.2291 52.2499C22.0158 46.4965 23.3658 40.9132 25.2791 35.4999C27.4125 29.4799 30.0158 24.4099 33.0891 20.2899C39.6491 11.4765 48.6058 5.65319 59.9591 2.81986C65.6191 1.40653 71.7591 0.506526 78.3791 0.119859C78.485 0.113003 78.5912 0.126992 78.6911 0.160971C78.7911 0.19495 78.8827 0.248204 78.9604 0.317475C79.0381 0.386745 79.1002 0.470576 79.143 0.563836C79.1858 0.657097 79.2083 0.757826 79.2091 0.85986L79.2291 3.17986C79.2293 3.31758 79.1767 3.45235 79.0802 3.56158C78.9837 3.67081 78.8492 3.74787 78.6991 3.77986C65.6325 6.41986 56.8491 14.0599 52.3491 26.6999C49.3625 35.0932 47.4125 44.6932 46.4991 55.4999C45.8058 63.6532 45.5625 72.1732 45.7691 81.0599C45.7743 81.1784 45.825 81.2903 45.9107 81.3723C45.9965 81.4543 46.1105 81.5 46.2291 81.4999H155.629C155.86 81.4999 156.081 81.5915 156.244 81.7547C156.407 81.9178 156.499 82.1391 156.499 82.3699C156.499 121.957 156.482 161.333 156.449 200.5C156.442 203.507 156.789 206.45 157.489 209.33C158.189 212.203 159.332 214.38 160.919 215.86C162.699 217.527 164.976 218.74 167.749 219.5C168.929 219.827 169.236 220.577 168.669 221.75C168.606 221.882 168.503 221.993 168.372 222.071C168.241 222.149 168.087 222.19 167.929 222.19H119.059C118.902 222.19 118.75 222.147 118.622 222.065C118.494 221.983 118.395 221.866 118.339 221.73C117.852 220.537 118.266 219.753 119.579 219.38C125.672 217.66 129.032 213.613 129.659 207.24C129.886 204.913 130.006 202.583 130.019 200.25C130.172 168.417 130.249 136.583 130.249 104.75C130.249 99.4499 129.396 95.3032 127.689 92.3099C125.589 88.6499 122.589 86.4832 118.689 85.8099C116.729 85.4765 114.166 85.3165 110.999 85.3299C89.6658 85.4432 68.1025 85.4999 46.3091 85.4999C46.1606 85.4999 46.0182 85.5589 45.9132 85.6639C45.8081 85.7689 45.7491 85.9113 45.7491 86.0599C45.7491 123.767 45.7458 161.413 45.7391 199C45.7391 204.127 46.4091 208.21 47.7491 211.25C49.5091 215.237 53.2958 218.037 59.1091 219.65C59.4582 219.748 59.7764 219.934 60.0336 220.189C60.2909 220.445 60.4786 220.762 60.5791 221.11C60.8458 222.023 60.3525 222.44 59.0991 222.36C57.9791 222.287 57.4058 222.25 57.3791 222.25C41.0258 222.277 24.6691 222.257 8.30914 222.19C8.16045 222.19 8.01721 222.142 7.90406 222.054C7.79091 221.966 7.71491 221.845 7.68914 221.71C7.46914 220.457 8.09247 219.657 9.55914 219.31C15.2591 217.99 18.3958 214.387 18.9691 208.5C19.2358 205.753 19.3725 203.003 19.3791 200.25C19.4925 162.19 19.5125 124.13 19.4391 86.0699C19.4391 85.9346 19.3875 85.8049 19.2956 85.7092C19.2037 85.6136 19.0791 85.5599 18.9491 85.5599Z"
            fill="white" />
        <path
            d="M101.229 1.01C100.649 0.336668 100.806 1.20627e-06 101.699 1.20627e-06H128.399C128.628 -0.000309516 128.853 0.0594135 129.053 0.173339C129.252 0.287264 129.42 0.451497 129.539 0.650001L153.089 39.74C153.503 40.4267 153.313 40.7633 152.519 40.75L135.499 40.51C135.342 40.5103 135.187 40.4755 135.044 40.4082C134.9 40.3408 134.772 40.2424 134.669 40.12L101.229 1.01Z"
            fill="white" />
        <path
            d="M261.23 208.43C275.843 210.91 289.12 207.037 301.06 196.81C304.553 193.824 307.28 190.104 309.24 185.65C309.305 185.499 309.405 185.37 309.53 185.279C309.654 185.188 309.797 185.14 309.94 185.14C310.846 185.134 311.8 185.53 312.8 186.33C312.93 186.433 313.027 186.573 313.077 186.732C313.127 186.891 313.128 187.061 313.08 187.22C312.4 189.52 311.566 191.657 310.58 193.63C303.546 207.684 292.983 217.067 278.89 221.78C272.837 223.8 266.28 224.857 259.22 224.95C241.993 225.19 227.33 219.417 215.23 207.63C210.503 203.017 206.507 197.72 203.24 191.74C197.84 181.854 194.75 171.107 193.97 159.5C193.456 151.814 193.826 144.17 195.08 136.57C196.64 127.057 199.783 118.237 204.51 110.11C207.95 104.19 212.116 99.0302 217.01 94.6302C230.096 82.8635 246.093 77.6568 265 79.0102C282.073 80.2368 295.297 87.1735 304.67 99.8202C308.343 104.78 311.29 110.724 313.51 117.65C316.61 127.324 318.103 137.547 317.99 148.32C317.987 148.568 317.886 148.804 317.708 148.978C317.53 149.153 317.29 149.25 317.04 149.25L222.69 149.19C222.557 149.19 222.43 149.243 222.336 149.337C222.243 149.43 222.19 149.558 222.19 149.69C222.163 160.917 224.163 171.624 228.19 181.81C231.363 189.844 236.256 196.247 242.87 201.02C248.063 204.767 254.183 207.237 261.23 208.43ZM222.59 144.98C245.676 145.36 268.696 145.384 291.65 145.05C291.794 145.048 291.931 144.99 292.032 144.889C292.133 144.788 292.19 144.652 292.19 144.51C292.296 132.944 290.55 121.61 286.95 110.51C285.923 107.337 284.21 103.647 281.81 99.4402C278.496 93.6202 274.18 89.1268 268.86 85.9602C266.273 84.4268 263.716 83.4435 261.19 83.0102C258.19 82.4968 255.396 82.6802 252.81 83.5602C247.19 85.4868 242.393 88.7168 238.42 93.2502C235.4 96.6968 232.5 101.317 229.72 107.11C227.34 112.064 225.553 117.267 224.36 122.72C222.78 129.954 222.013 137.197 222.06 144.45C222.062 144.59 222.119 144.723 222.218 144.822C222.317 144.921 222.45 144.978 222.59 144.98Z"
            fill="white" />
        <path
            d="M481.149 97.8999C490.923 87.6399 502.873 81.4999 516.999 79.4799C525.713 78.2332 534.349 78.6365 542.909 80.6899C553.563 83.2432 562.339 88.3632 569.239 96.0499C573.306 100.583 576.693 106.277 579.399 113.13C583.693 124.023 585.716 135.78 585.469 148.4C585.467 148.626 585.375 148.842 585.214 149.002C585.053 149.161 584.836 149.25 584.609 149.25H490.389C490.302 149.25 490.215 149.267 490.134 149.301C490.054 149.335 489.981 149.384 489.919 149.447C489.858 149.509 489.809 149.583 489.777 149.664C489.744 149.745 489.728 149.832 489.729 149.92C489.869 159.52 491.299 168.543 494.019 176.99C499.719 194.723 510.983 205.15 527.809 208.27C534.616 209.53 541.223 209.37 547.629 207.79C555.456 205.857 562.526 202.123 568.839 196.59C571.719 194.063 574.023 191.11 575.749 187.73C576.509 186.237 576.906 185.477 576.939 185.45C577.613 184.91 578.699 185.217 580.199 186.37C580.376 186.506 580.506 186.696 580.568 186.911C580.631 187.127 580.625 187.357 580.549 187.57C573.416 208.023 558.899 220.16 536.999 223.98C526.366 225.833 516.133 225.167 506.299 221.98C500.073 219.96 494.196 216.89 488.669 212.77C478.543 205.217 471.339 195.607 467.059 183.94C458.766 161.307 459.246 138.993 468.499 117C471.433 110.033 475.649 103.667 481.149 97.8999ZM505.439 94.1899C500.919 99.7432 497.546 105.607 495.319 111.78C491.466 122.487 489.546 133.313 489.559 144.26C489.559 144.388 489.585 144.515 489.633 144.633C489.682 144.752 489.754 144.859 489.844 144.949C489.934 145.04 490.041 145.111 490.159 145.159C490.277 145.207 490.402 145.231 490.529 145.23L559.189 144.94C559.322 144.94 559.449 144.887 559.543 144.793C559.637 144.7 559.689 144.572 559.689 144.44C559.803 133.293 558.206 122.407 554.899 111.78C552.819 105.08 549.579 99.0032 545.179 93.5499C542.773 90.5699 539.943 88.0732 536.689 86.0599C531.143 82.6199 525.289 82.0199 519.129 84.2599C513.816 86.1932 509.253 89.5032 505.439 94.1899Z"
            fill="white" />
        <path
            d="M740.811 214.69C742.251 216.183 744.571 217.406 747.771 218.36C747.928 218.407 748.071 218.485 748.19 218.589C748.309 218.693 748.402 218.819 748.461 218.96C749.521 221.406 748.824 222.55 746.371 222.39C744.938 222.296 744.188 222.25 744.121 222.25C729.081 222.25 714.041 222.25 699.001 222.25C698.85 222.25 698.703 222.205 698.582 222.12C698.462 222.036 698.374 221.916 698.331 221.78C698.018 220.733 698.098 219.726 698.571 218.76C698.634 218.625 698.732 218.505 698.858 218.406C698.984 218.308 699.136 218.234 699.301 218.19C704.421 216.863 707.738 213.633 709.251 208.5C709.938 206.18 710.278 201.763 710.271 195.25C710.258 173.163 710.261 151.08 710.281 129C710.288 123.26 709.268 117.723 707.221 112.39C702.981 101.33 694.824 95.2831 682.751 94.2498C680.018 94.0165 677.388 94.1298 674.861 94.5898C672.494 95.0165 670.048 95.9031 667.521 97.2498C659.294 101.636 653.494 108.206 650.121 116.96C649.374 118.9 649.001 121.156 649.001 123.73C649.001 147.57 649.001 171.41 649.001 195.25C649.001 199.863 649.361 203.973 650.081 207.58C650.674 210.533 651.731 212.766 653.251 214.28C655.064 216.093 657.401 217.293 660.261 217.88C660.527 217.934 660.766 218.074 660.938 218.276C661.111 218.478 661.207 218.73 661.211 218.99L661.231 221.68C661.231 221.747 661.217 221.813 661.189 221.875C661.161 221.937 661.121 221.993 661.07 222.04C661.019 222.088 660.958 222.125 660.891 222.151C660.825 222.177 660.753 222.19 660.681 222.19L611.851 222.25C611.676 222.25 611.505 222.192 611.364 222.086C611.224 221.98 611.121 221.83 611.071 221.66C610.764 220.56 610.694 219.68 610.861 219.02C611.001 218.453 611.611 218.01 612.691 217.69C615.658 216.803 617.974 215.19 619.641 212.85C620.908 211.076 621.698 208.533 622.011 205.22C622.318 201.98 622.481 198.073 622.501 193.5C622.688 146.446 622.604 114.78 622.251 98.4998C622.178 95.2265 620.574 92.2465 617.441 89.5598C615.374 87.7931 612.284 86.4131 608.171 85.4198C608.021 85.3842 607.885 85.3089 607.779 85.2026C607.673 85.0964 607.601 84.9636 607.571 84.8198C607.364 83.7998 607.394 82.7898 607.661 81.7898C607.699 81.6516 607.784 81.5297 607.903 81.4429C608.022 81.3561 608.169 81.3093 608.321 81.3098L648.331 81.2498C648.509 81.2498 648.679 81.3204 648.805 81.4461C648.93 81.5717 649.001 81.7421 649.001 81.9198V108.49C649.001 109.81 649.281 109.873 649.841 108.68C653.148 101.626 657.594 95.7931 663.181 91.1798C678.594 78.4465 695.514 75.4065 713.941 82.0598C721.021 84.6198 726.521 89.7031 730.441 97.3098C734.301 104.816 736.238 113.63 736.251 123.75C736.284 149.336 736.438 174.926 736.711 200.52C736.744 203.94 736.944 206.413 737.311 207.94C737.978 210.706 739.144 212.956 740.811 214.69Z"
            fill="white" />
        <path
            d="M784.07 92.3302C786.497 89.6635 789.284 87.4435 792.43 85.6702C799.35 81.7768 806.794 79.5868 814.76 79.1002C826.76 78.3668 838.65 79.2035 850.43 81.6102C856.79 82.9102 863.03 85.0202 869.15 87.9402C869.405 88.0624 869.619 88.254 869.77 88.4928C869.92 88.7316 870 89.008 870 89.2902C870 100.143 870 110.857 870 121.43C870 121.47 870.05 122.18 870.15 123.56C870.317 125.753 869.194 126.437 866.78 125.61C866.642 125.562 866.519 125.474 866.425 125.356C866.332 125.238 866.271 125.094 866.25 124.94C865.23 116.847 863.127 109.803 859.94 103.81C854.254 93.1302 845.617 86.5802 834.03 84.1602C829.177 83.1402 824.807 82.6568 820.92 82.7102C817.894 82.7435 814.924 83.1868 812.01 84.0402C808.85 84.9602 806.21 86.2968 804.09 88.0502C798.944 92.2902 797.164 98.1068 798.75 105.5C799.544 109.193 801.23 112.84 803.81 116.44C807.264 121.247 812.097 125.534 818.31 129.3C821.71 131.36 823.44 132.41 823.5 132.45C838.527 142.017 847.527 147.783 850.5 149.75C856.727 153.87 862.244 159.27 867.05 165.95C876.644 179.257 877.524 193.17 869.69 207.69C868.117 210.597 865.51 213.31 861.87 215.83C854.764 220.744 846.887 223.594 838.24 224.38C821.314 225.934 804.847 223.924 788.84 218.35C785.167 217.07 781.63 215.417 778.23 213.39C777.992 213.25 777.795 213.051 777.659 212.81C777.522 212.57 777.45 212.297 777.45 212.02C777.33 199.18 777.264 186.614 777.25 174.32C777.25 174.267 777.22 173.89 777.16 173.19C777.027 171.657 778.08 171.05 780.32 171.37C780.618 171.413 780.894 171.554 781.104 171.771C781.313 171.988 781.446 172.269 781.48 172.57C782.307 179.964 784.07 187.06 786.77 193.86C792.77 208.947 804.014 217.744 820.5 220.25C827.08 221.25 833.147 221.1 838.7 219.8C847.807 217.68 852.574 212.163 853 203.25C853.194 199.23 852.074 194.83 849.64 190.05C846.1 183.097 841.024 177.543 834.41 173.39C827.164 168.837 819.91 164.293 812.65 159.76C812.61 159.733 810.784 158.634 807.17 156.46C800.037 152.18 793.65 147.05 788.01 141.07C782.544 135.27 778.96 129.73 777.26 124.45C774.367 115.463 775.594 106.293 780.94 96.9402C782.134 94.8468 783.177 93.3102 784.07 92.3302Z"
            fill="white" />
        <path
            d="M382.249 108.28C382.256 109.58 382.599 109.667 383.279 108.54C391.759 94.3735 403.249 85.0269 417.749 80.5002C421.929 79.1935 426.416 79.2335 431.209 80.6202C435.523 81.8669 438.733 84.1835 440.839 87.5702C442.766 90.6769 443.499 94.2802 443.039 98.3802C442.519 103 440.516 106.66 437.029 109.36C433.003 112.48 428.499 113.61 423.519 112.75C418.199 111.83 414.179 108.537 411.459 102.87C410.373 100.597 410.029 98.3502 410.429 96.1302C410.749 94.3635 410.026 93.6535 408.259 94.0002C405.253 94.5869 402.466 95.7135 399.899 97.3802C392.586 102.154 386.829 108.684 382.629 116.97C382.209 117.81 381.999 118.697 381.999 119.63C381.999 143.124 381.999 166.747 381.999 190.5C381.999 196.027 382.089 200.614 382.269 204.26C382.649 211.814 386.419 216.42 393.579 218.08C393.748 218.119 393.9 218.2 394.007 218.31C394.115 218.419 394.172 218.55 394.169 218.68L394.109 221.67C394.107 221.825 394.037 221.973 393.915 222.081C393.794 222.19 393.63 222.25 393.459 222.25C377.413 222.25 361.669 222.25 346.229 222.25C344.789 222.25 344.003 222.16 343.869 221.98C343.503 221.474 343.533 220.377 343.959 218.69C344.011 218.491 344.116 218.309 344.262 218.164C344.408 218.02 344.59 217.918 344.789 217.87C350.883 216.397 354.299 212.357 355.039 205.75C355.326 203.177 355.469 200.594 355.469 198C355.489 167.927 355.499 137.857 355.499 107.79C355.499 101.457 355.319 97.6169 354.959 96.2702C353.846 92.0969 351.089 89.0269 346.689 87.0602C346.049 86.7735 344.246 86.1202 341.279 85.1002C341.127 85.0471 340.991 84.9623 340.881 84.8528C340.772 84.7433 340.692 84.6122 340.649 84.4702C340.349 83.4969 340.346 82.5202 340.639 81.5402C340.682 81.401 340.772 81.2793 340.894 81.1929C341.016 81.1065 341.166 81.06 341.319 81.0602L381.239 81.0002C381.445 81.0003 381.641 81.0832 381.787 81.2311C381.933 81.3789 382.017 81.5798 382.019 81.7902L382.249 108.28Z"
            fill="white" />
    </g>
    <defs>
        <clipPath id="clip0_118_75">
            <rect width="875" height="226" fill="white" />
        </clipPath>
    </defs>
</svg>