<svg width="1792" height="1043" viewBox="0 0 1792 1043" fill="none" xmlns="http://www.w3.org/2000/svg">
<g clip-path="url(#clip0_447_686)">
<path d="M1113.56 23.4619L1114.38 23.6059C1118.25 24.4889 1119.53 25.3199 1121.63 28.6409C1121.43 33.6989 1120.75 33.7809 1117.2 37.5169L1114.74 36.8479C1111.56 35.7909 1110.65 34.3649 1109.28 31.4139C1109.95 27.1669 1110.8 26.5989 1113.56 23.4619Z" fill="white"/>
<path d="M675.103 23.4932L679.691 24.6222C682.272 25.9522 682.493 27.0862 683.463 29.6172C682.733 34.0702 681.787 34.4672 678.712 37.5862L676.248 36.8512C673.017 35.6872 672.291 34.2311 670.902 31.3391C671.571 27.1951 672.434 26.5792 675.103 23.4932Z" fill="white"/>
<path d="M756.231 4.77295L761.234 5.02295C763.103 7.64495 762.718 11.0159 762.943 14.1969L764.633 40.0199C762.515 39.8679 760.689 39.7969 758.674 39.0679L756.231 4.77295Z" fill="white"/>
<path d="M946.69 0.249023C948.32 0.362023 949.62 0.697017 951.18 1.20502C952.06 7.51202 951.41 14.244 951.24 20.603C951.12 25.284 951.46 30.514 950.28 35.058C947.7 35.322 947.42 35.816 945.12 34.365L944.99 29.861L945.6 8.06302L938.48 12.877L935.94 10.086C936.45 6.71203 943.8 2.48102 946.69 0.249023Z" fill="white"/>
<path d="M1057.54 5.73096C1062.82 6.09696 1072.46 5.59096 1076.96 7.96896L1077.02 10.574C1074.53 13.844 1067.42 11.315 1063.15 12.13C1062.44 14.509 1061.86 15.843 1062.61 18.305L1063.99 18.485C1068.19 19.1 1072.37 19.653 1074.99 23.435C1076.84 26.113 1077.54 30.443 1076.44 33.625C1074.96 37.97 1072.03 39.91 1068.13 41.971C1065.18 42.162 1061.53 41.902 1058.74 40.848C1055.64 39.676 1054.08 37.244 1052.74 34.402L1053.51 33.035L1057.62 32.361L1060.75 35.812C1063.78 36.963 1064.87 36.74 1067.87 35.965C1069.69 33.774 1070.96 32.696 1070.78 29.617C1070.62 26.843 1069.18 26.008 1067.27 24.327C1064.04 23.346 1061.74 23.517 1058.39 23.899C1056.57 24.106 1057.54 24.252 1055.67 23.334L1057.54 5.73096Z" fill="white"/>
<path d="M727.084 6.30698L730.524 6.23096C733.789 6.33296 737.026 7.03096 739.262 9.53696L736.385 13.504L734.379 12.841C733.025 12.328 732.436 11.909 730.961 11.674C728.12 11.221 726.287 12.836 724.282 14.48L724.152 17.898C727.762 21.517 731.355 21.163 735.844 23.02C739.031 24.338 740.247 26.076 741.618 29.129C741.594 32.525 742.027 34.837 740.134 37.845C737.823 41.519 733.477 42.428 729.533 43.326L723.148 42.26C720.868 41.569 719.5 40.691 718.551 38.501L721.684 35.052C725.264 37.095 727.319 37.77 731.449 37.393C733.96 35.973 734.197 35.57 735.622 33.035C733.7 25.774 723.652 27.596 718.579 21.554C717.366 17.889 717.325 16.243 718.424 12.527C720.969 9.26198 723.331 7.96398 727.084 6.30698Z" fill="white"/>
<path d="M840.408 0.484107C843.953 0.277107 848.115 -0.293914 851.545 0.675086C854.447 1.49409 856.59 2.5871 857.99 5.2031L854.984 8.04911C854.255 7.96411 853.619 7.92309 852.906 7.64509C849.084 6.14809 846.765 4.51209 842.491 6.09409C839.316 7.26909 836.671 9.72211 835.387 12.8641C834.044 16.1481 834.08 20.4151 835.458 23.6861C836.699 26.6321 839 29.2981 842.118 30.2911C846.757 31.7691 850.476 30.3231 854.478 28.0151L855.137 27.1111C856.82 28.1791 858.791 28.7741 859.263 30.7601C858.105 31.9991 856.888 33.2711 855.473 34.2211C851.658 36.7821 845.604 37.1291 841.254 36.0881C836.537 34.9601 832.519 32.0351 830.082 27.8321C827.465 23.3191 826.883 17.0381 828.513 12.1131C830.594 5.82711 834.742 3.31211 840.408 0.484107Z" fill="white"/>
<path d="M873.335 0.290982C880.6 0.233982 888.569 -0.467993 895.725 0.635007L896.25 3.738C893.171 7.766 884.327 3.712 879.64 6.668L879.591 13.016C883.155 16.702 891.198 12.261 895.512 15.386C895.554 17.613 895.797 17.512 894.535 19.565L879.55 19.848L879.614 27.664C882.122 31.266 892.314 28.739 897.11 30.105C897.41 32.511 897.76 32.455 896.49 34.696L873.524 35.229L873.335 0.290982Z" fill="white"/>
<path d="M1124.36 994.48L1134.28 994.6C1136.45 996.93 1135.52 1004.01 1135.52 1007.37L1135.54 1041.3L1124.34 1041.33L1124.36 994.48Z" fill="white"/>
<path fill-rule="evenodd" clip-rule="evenodd" d="M981.658 1.43126C981.437 1.4584 981.215 1.48576 980.99 1.51297C980.858 1.61673 980.726 1.72007 980.595 1.82316C977.707 4.0877 974.971 6.23239 974.34 10.086C973.78 13.451 974.01 17.054 976.28 19.746C978.89 22.827 981.59 23.883 985.58 24.201L986.77 24.246C987.056 26.3458 985.195 28.4056 983.4 30.3936C981.553 32.4377 979.775 34.406 980.47 36.264L985.56 37.493C986.475 36.2074 987.561 34.7992 988.717 33.3006C993.908 26.573 1000.5 18.0224 999.27 10.55C998.72 7.21295 996.15 4.10196 993.24 2.55096C989.356 0.485748 985.815 0.92066 981.658 1.43126ZM988.77 6.18506L983.52 5.68506C981.37 8.46306 980.54 9.98406 980.15 13.5041C980.315 13.8963 980.461 14.268 980.6 14.6205C981.392 16.6347 981.937 18.0197 984.38 19.0121C985.487 19.4613 987.142 19.5328 988.552 19.5937C988.95 19.6109 989.329 19.6273 989.67 19.6511C992.11 16.9901 992.97 15.6401 993.44 12.0391C992.059 8.62037 991.616 8.29221 988.825 6.22574L988.77 6.18506Z" fill="white"/>
<path fill-rule="evenodd" clip-rule="evenodd" d="M1032.23 4.09787L1026.98 3.48389C1026.14 4.61555 1025.12 5.89861 1024 7.29033C1018.88 13.6734 1011.93 22.3422 1013.35 29.1729C1014.15 33.0449 1016.03 35.8079 1019.54 37.7209C1023.58 39.9259 1027.94 39.6089 1032.24 38.3689C1035.72 35.3379 1038.44 32.6929 1038.65 27.8269C1038.8 24.3939 1037.49 21.2759 1035.01 18.9099C1033.17 17.1557 1031.12 16.7563 1028.99 16.3387C1027.82 16.1106 1026.62 15.8772 1025.42 15.4149L1033.01 5.22888L1032.23 4.09787ZM1027.84 20.9911L1022.8 20.5791C1020.42 23.4651 1019.45 24.8631 1019.29 28.6411C1019.4 28.8845 1019.5 29.1166 1019.6 29.3386C1020.52 31.4129 1021.05 32.5974 1023.44 33.7591C1024.63 34.3368 1026.54 34.4102 1028.03 34.4672C1028.3 34.4777 1028.56 34.4877 1028.8 34.5001C1031.19 31.7461 1032.11 30.3421 1032.51 26.6881C1031.14 23.3321 1030.83 23.0701 1027.84 20.9911Z" fill="white"/>
<path d="M804.461 1.72607C807.304 2.01907 808.923 1.52607 810.905 3.73807L812.094 28.1521C812.24 31.1331 812.967 33.9911 811.527 36.6511L806.156 37.2641C803.161 36.0151 801.794 32.9561 799.964 30.3151L786.601 11.347L788.176 38.7061C785.365 38.5011 783.871 39.0001 781.787 36.9411L780.568 12.1391C780.43 9.40007 779.758 6.09705 781.104 3.63705L788.09 3.29105L805.793 28.2461L804.461 1.72607Z" fill="white"/>
<path d="M920.43 993.65C929.45 993.14 934.31 993.68 942.06 998.89C939.65 1001.43 937.31 1003.92 934.57 1006.12C932.38 1004.51 929.54 1002.83 926.76 1002.6C923.68 1002.33 922.33 1003.74 920.24 1005.69L920.18 1008.62C922.74 1012.18 928.39 1013.14 932.37 1014.66C936.1 1016.08 939.35 1018.72 940.81 1022.55C942.09 1025.92 941.77 1030.17 940.23 1033.41C937.63 1038.85 933.31 1040.53 927.88 1042.28C918.59 1042.53 913.5 1040.9 905.57 1036.15C907.88 1033.82 911.12 1029.32 914.29 1028.9C917.34 1031.29 920.16 1033.32 924.22 1032.84C927.63 1032.44 927.73 1032.18 929.82 1029.42C929.13 1020.23 914.86 1022.4 909.99 1014.5C908.1 1011.43 908.04 1006.26 909.18 1002.93C910.92 997.81 915.86 995.64 920.43 993.65Z" fill="white"/>
<path d="M972.3 993.71C975.78 993.53 979.61 993.13 983.06 993.65C986.76 994.21 991.33 996.26 993.41 999.34C991.33 1001.86 989.32 1004.04 986.82 1006.14C984.58 1004.68 981.76 1002.85 979.01 1002.64C976.04 1002.42 974.62 1003.62 972.46 1005.4L972.22 1008.62C974.54 1011.59 977.05 1011.91 980.47 1013.13C985.36 1014.88 990.71 1016.92 992.81 1022.12C994.25 1025.67 993.86 1030.76 992.03 1034.1C989.36 1039.01 984.79 1040.74 979.74 1042.31C970.71 1042.56 965.27 1040.87 957.61 1036.14C960.14 1033.54 962.67 1030.44 965.82 1028.63C969.03 1030.88 971.82 1033.11 975.94 1032.82C979.48 1032.58 979.52 1032.35 981.89 1029.62C981.79 1028.42 982.09 1027.12 981.61 1026.01C981.02 1024.66 977.96 1023.38 976.64 1022.9C970.74 1020.73 964.1 1019.29 961.4 1012.92C960.06 1009.77 960.18 1005.9 961.47 1002.75C963.49 997.79 967.66 995.76 972.3 993.71Z" fill="white"/>
<path d="M624.013 993.58C630.24 993.33 636.518 992.97 642.182 996.15C644.386 997.38 646.069 998.37 646.754 1000.81C644.491 1003.11 642.365 1005.4 639.652 1007.19L634.77 1004.28C631.465 1002.88 627.111 1003.3 623.981 1004.97C620.508 1006.82 618.154 1010.41 617.209 1014.17C616.161 1018.33 617.114 1023.18 619.504 1026.73C621.38 1029.52 624.498 1031.38 627.82 1031.8C633.272 1032.49 636.076 1030.77 640.206 1027.47L648.058 1034.97C645.514 1037.15 642.571 1039.4 639.5 1040.75C633.141 1043.54 624.429 1042.88 618.229 1040.07C612.06 1037.26 607.785 1032.27 605.711 1025.83C603.65 1019.44 604.354 1011.71 607.403 1005.75C610.968 998.78 616.903 995.94 624.013 993.58Z" fill="white"/>
<path d="M1014.2 994.47C1019.66 994.44 1041.73 992.85 1045.3 995.44L1045.48 1002.76C1040.92 1006.83 1030.38 1001.72 1025.24 1005.3L1025.08 1011.06C1028.51 1015.79 1039.86 1010.29 1044.31 1013.99L1044.47 1020.34C1041.7 1023.17 1029.52 1021.93 1024.99 1022.2L1025.08 1029.62C1028.37 1034.36 1041.31 1029.31 1046.51 1032.55L1046.7 1039.87L1045.41 1041.19L1014.19 1041.31L1014.2 994.47Z" fill="white"/>
<path d="M1158.48 994.47C1164.59 994.48 1185.31 992.8 1189.65 995.55L1189.85 1002.27C1186.48 1006.83 1174.83 1002.11 1169.59 1005.2L1169.45 1011.55C1173.76 1015.4 1183.75 1010.57 1188.62 1014.06C1188.7 1017.23 1189.26 1019.08 1187.5 1021.78L1169.38 1021.88L1169.39 1030.11C1173.75 1034.25 1185.17 1029.18 1190.72 1032.55L1190.95 1039.87C1190.45 1040.35 1190.1 1041.06 1189.46 1041.3C1188.04 1041.83 1184.41 1041.3 1182.68 1041.3L1158.46 1041.31L1158.48 994.47Z" fill="white"/>
<path fill-rule="evenodd" clip-rule="evenodd" d="M859.357 993.555C858.633 993.593 857.915 993.63 857.204 993.66C849.976 996.46 844.011 999.43 840.687 1006.98C837.79 1013.56 837.747 1021.81 840.668 1028.4C843.348 1034.45 848.318 1038.8 854.496 1041.02C859.201 1042.71 864.116 1042.44 869.014 1042.16C869.47 1042.14 869.926 1042.11 870.382 1042.09C877.676 1039.28 883.534 1036.33 886.959 1028.77C889.77 1022.58 890.339 1013.98 887.579 1007.66C884.741 1001.16 879.714 996.81 873.051 994.54C868.722 993.072 863.937 993.319 859.357 993.555ZM863.755 1004.19L860.247 1004C860.178 1004.04 860.109 1004.07 860.04 1004.11C856.033 1006.18 852.635 1007.94 850.999 1012.42C849.468 1016.62 849.659 1022.2 851.836 1026.15C853.226 1028.67 855.853 1031.29 858.672 1032.13C861.097 1032.85 864.093 1032.96 866.602 1032.79C871.511 1030.08 874.71 1028.01 876.142 1022.34C877.206 1018.11 876.457 1013.26 873.932 1009.68C871.328 1006 868.11 1004.7 863.755 1004.19Z" fill="white"/>
<path d="M2.69922 1015.94H417.649C434.107 1015.94 522.705 1014.3 527.021 1016.92L527.89 1022.67C479.452 1022.68 8.24222 1024.27 3.60022 1021.8L2.69922 1015.94Z" fill="white"/>
<path d="M1249.43 1015.94L1681.23 1015.93H1781.98C1783.69 1015.93 1787.54 1015.44 1789.07 1015.93C1789.69 1016.13 1790.21 1016.59 1790.78 1016.92L1791.12 1022.67L1273.59 1022.68H1257.27C1255.91 1022.68 1252.66 1023.07 1251.47 1022.68C1250.85 1022.48 1250.36 1022.01 1249.8 1021.68L1249.43 1015.94Z" fill="white"/>
<path d="M3.29785 481.14C82.2359 481.139 690.199 479.576 694.34 482.006L694.785 487.715L33.1719 487.727L12.3069 487.728C10.5919 487.728 6.36986 488.224 4.88686 487.728C4.32486 487.54 3.94485 487.008 3.47385 486.648L3.29785 481.14Z" fill="white"/>
<path d="M1097.38 481.171L1268.7 481.152L1612.17 481.153L1745.18 481.171L1775.1 481.176C1778.53 481.176 1783.86 480.452 1787.11 481.178C1787.79 481.329 1788.31 481.895 1788.9 482.254L1789.83 487.717L1278.03 487.726L1145.77 487.729H1112.13C1108.47 487.73 1103.12 488.437 1099.61 487.73C1098.95 487.595 1098.46 487.009 1097.88 486.648L1097.38 481.171Z" fill="white"/>
<path d="M1397.09 233.35L1471.29 256.592C1481.65 259.801 1495.39 262.377 1504.89 267.391C1506.69 268.342 1508.17 269.742 1509.28 271.438C1511.23 274.409 1511.61 277.765 1510.91 281.195C1510.56 282.889 1509.85 284.996 1508.29 285.965C1503.61 288.857 1496.56 290.771 1491.38 292.892L1449.19 310.205C1443.69 312.403 1436.08 314.474 1431.46 318.023C1428.23 320.501 1426.42 325.273 1427.07 329.282C1427.9 334.378 1432.42 340.556 1434.88 345.134L1461.47 394.308C1462.96 397.07 1467.84 403.936 1468.21 406.762C1468.3 407.42 1468.02 408.076 1467.87 408.722C1466.97 412.565 1464.84 416.406 1461.3 418.343C1459.25 419.467 1456.6 420.007 1454.26 419.731C1446.5 418.814 1437.71 414.909 1430.18 412.535L1381.11 397.209L1283.49 366.666C1265.71 361.19 1246.8 356.52 1229.5 349.839C1226.99 348.871 1224.92 347.684 1223.27 345.517C1221.43 343.117 1220.1 339.239 1220.79 336.21C1221.06 335.028 1225.6 325.401 1226.14 325.226C1228.07 324.594 1236.42 326.519 1238.73 326.809L1319.34 339.143L1337.77 342.605C1341.8 343.43 1346.27 344.875 1350.4 344.782C1354 344.701 1358.17 343.147 1361.2 341.258C1366.81 337.755 1370.46 332.518 1371.77 326.066L1397.09 233.35Z" fill="white"/>
<path fill-rule="evenodd" clip-rule="evenodd" d="M690.629 994.45L679.502 994.47L659.937 1041.31L672.276 1041.35L675.902 1032.07H692.914L693.68 1032.94C695.115 1034.86 696.016 1037.36 696.86 1039.71C697.061 1040.26 697.258 1040.81 697.458 1041.34L709.986 1041.28L690.629 994.45ZM689.29 1020.87C688.516 1016.69 686.548 1009.88 683.987 1006.55L679 1019.9L679.582 1021.13L686.455 1022.25L689.29 1020.87Z" fill="white"/>
<path fill-rule="evenodd" clip-rule="evenodd" d="M733.079 994.319C730.992 994.39 728.942 994.459 726.98 994.47L726.977 1041.33H737.939C737.938 1040.44 737.884 1039.22 737.821 1037.84C737.587 1032.63 737.242 1024.99 739.262 1022.78L741.542 1023C742.374 1024.23 743.474 1026.34 744.705 1028.71C747.457 1033.99 750.864 1040.53 753.398 1041.31L763.676 1041.2L764.272 1039.87L753.425 1021.51L754.453 1020.91C758.158 1018.7 760.648 1016.86 762.091 1012.66C763.13 1009.64 762.725 1004.42 761.037 1001.69C758.493 997.58 754.282 995.61 749.646 994.82C744.501 993.932 738.658 994.13 733.079 994.319ZM737.927 1002.02C737.732 1002.02 737.537 1002.02 737.34 1002.02L737.469 1012.08C740.277 1013.73 745.518 1012.96 748.61 1012.15L749.894 1011.78C749.975 1011.39 750.055 1011.03 750.129 1010.69C750.619 1008.46 750.875 1007.29 750.016 1004.73C746.368 1002.03 742.357 1002.03 737.927 1002.02Z" fill="white"/>
<path fill-rule="evenodd" clip-rule="evenodd" d="M1088.89 994.65L1067.41 994.47L1067.4 1039.87C1069.23 1041.57 1072.29 1041.44 1075.06 1041.33C1075.79 1041.3 1076.49 1041.27 1077.15 1041.27C1078.99 1038.74 1078.96 1033.15 1078.93 1027.92C1078.91 1024.67 1078.9 1021.56 1079.33 1019.39C1083.67 1024.72 1086.95 1030.95 1090.17 1037.07C1090.92 1038.49 1091.67 1039.92 1092.43 1041.32L1105.54 1041.1L1093.72 1021.64L1094.92 1020.89C1098.83 1018.4 1101.66 1016.59 1102.73 1011.89C1103.58 1008.15 1102.96 1003.47 1100.59 1000.38C1097.86 996.83 1093.22 995.09 1088.89 994.65ZM1079.01 1002C1078.66 1002 1078.32 1002 1077.98 1002V1011.6C1079.69 1013.15 1080.68 1013.06 1082.51 1012.89C1082.93 1012.85 1083.4 1012.81 1083.93 1012.78C1086.34 1012.66 1088.19 1012.36 1090.45 1011.56C1090.51 1011.09 1090.58 1010.67 1090.64 1010.28C1091 1008 1091.19 1006.82 1090.03 1004.27C1087.06 1002.02 1082.75 1002.01 1079.01 1002Z" fill="white"/>
<path fill-rule="evenodd" clip-rule="evenodd" d="M789.734 994.332C787.698 994.395 785.691 994.457 783.749 994.47L783.753 1029.94C783.753 1030.47 783.702 1031.35 783.642 1032.38C783.487 1035.08 783.272 1038.79 783.754 1039.87C783.937 1040.28 784.296 1040.57 784.654 1040.85C784.83 1040.99 785.006 1041.14 785.16 1041.29L793.949 1041.09C795.47 1038.19 795.338 1033.49 795.208 1028.86C795.112 1025.43 795.016 1022.05 795.598 1019.47C797.44 1021.48 799.479 1025.25 801.572 1029.13C804.439 1034.43 807.406 1039.92 810.101 1041.31L820.316 1041.27L821.158 1040.36L810.151 1021.63L811.203 1021C815.182 1018.57 818.078 1016.49 819.203 1011.76C820.041 1008.24 819.496 1004.3 817.595 1001.19C815.37 997.55 810.998 995.55 806.929 994.87C801.515 993.968 795.507 994.154 789.734 994.332ZM795.382 1002.03C794.953 1002.03 794.533 1002.04 794.124 1002.04L794.322 1012.15C797.054 1013.79 802.529 1012.79 805.562 1012.14L806.727 1011.82C806.797 1011.46 806.865 1011.13 806.929 1010.82C807.417 1008.44 807.656 1007.28 806.76 1004.56C803.872 1001.94 799.294 1001.99 795.382 1002.03Z" fill="white"/>
<path d="M393.136 233.785L395.023 233.574C398.122 236.65 399.43 246.599 400.748 251.253L417.535 311.558C419.285 317.794 420.158 325.089 422.555 330.979C424.118 334.818 426.762 338.282 430.066 340.783C433.742 343.564 438.285 345.527 442.933 345.658C448.236 345.807 454.242 343.787 459.477 342.75L486.872 337.744L565.769 326.175L566.384 327.315L567.387 329.215L569.834 333.709C571.178 336.65 571.239 339.96 569.864 342.917C568.651 345.527 566.397 347.83 563.801 349.065C558.857 351.417 552.969 352.721 547.711 354.339L519.268 363.218L414.605 395.913C401.521 400.059 340.803 421.537 332.512 419.261C328.993 418.295 326.525 415.672 324.951 412.476C324.116 410.78 323.198 408.004 323.701 406.082C324.68 402.34 328.631 396.945 330.534 393.42L353.678 350.579C357.097 344.238 362.177 336.907 364.281 330.077C365.515 326.072 363.482 321.007 360.355 318.387C355.382 314.218 345.928 311.729 339.868 309.277L297.178 291.824C293.73 290.44 282.936 287.211 281.531 284.012C279.877 280.248 279.774 276.057 281.665 272.381C282.939 269.902 284.569 268.236 287.113 267.079C297.048 262.557 309.281 259.994 319.839 256.694L393.136 233.785Z" fill="white"/>
<path fill-rule="evenodd" clip-rule="evenodd" d="M893.931 374.801C888.29 371.61 884.085 370.988 877.695 370.708C870.977 371.797 863.923 373.234 858.891 378.231C858.387 378.732 857.821 379.505 857.209 380.343C855.715 382.387 853.942 384.812 852.097 384.585C843.814 383.568 835.875 387.621 829.634 392.787C823.684 397.712 820.968 404 819.632 411.426L818.54 411.907L816.898 412.676L815.899 413.124C808.335 416.636 803.962 423.834 801.273 431.473C799.229 437.279 798.191 444.061 800.208 450.027L799.434 450.8C793.336 457.061 793 462.738 793.154 471.044C793.288 478.255 793.416 484.585 799.112 489.79L830.484 513.905L830.282 515.238C828.971 524.459 827.682 539.504 833.767 547.258C836.807 551.13 840.912 552.442 845.658 552.892C852.548 553.546 858.691 552.209 864.873 550.863C868.833 550.002 872.808 549.136 877.007 548.788C878.873 548.634 879.583 549.092 880.747 549.844C881.041 550.033 881.363 550.241 881.74 550.463C882.103 550.677 882.469 550.893 882.838 551.112C886.507 553.288 890.429 555.613 894.66 556.205C899.829 556.928 906.806 552.852 911.947 549.848C912.863 549.312 913.721 548.811 914.5 548.377C914.731 548.438 914.965 548.501 915.204 548.565C926.094 551.471 945.25 556.584 955.28 550.616C960.08 547.76 962.21 541.875 963.07 536.636C964.088 530.431 963.5 523.175 962.979 516.748C962.932 516.166 962.885 515.591 962.84 515.024L983.86 499.043C984.884 498.272 985.914 497.522 986.937 496.777C994.101 491.561 1000.89 486.622 1002.11 476.883C1003.34 467.151 1000.73 455.128 994.48 447.586C995.94 437.884 996.27 430.205 990.07 421.894C986.02 416.46 981.36 413.456 975.07 411.113C972.36 400.621 969.64 394.107 959.7 388.323C953.37 384.643 946.65 382.918 939.44 384.821L938.48 385.138L937.69 384.067C932.45 377.063 926.52 373.847 917.8 372.574C910.56 371.519 904.7 371.452 898.07 374.805C897.372 375.16 897.115 375.296 896.842 375.35C896.517 375.415 896.169 375.365 895.023 375.434L893.931 374.801ZM876.367 379.276C875.921 379.298 875.478 379.32 875.04 379.338C874.755 379.433 874.463 379.53 874.167 379.628L874.166 379.628L874.166 379.628C869.515 381.168 863.684 383.098 861.76 388.016C859.724 393.215 862.18 401.77 864.11 408.494C864.651 410.379 865.151 412.121 865.499 413.604L878.89 470.776C879.139 471.803 879.581 473.291 880.089 475.001L880.089 475.001C881.558 479.947 883.576 486.744 883.06 489.578C882.928 490.303 882.457 490.898 881.986 491.493C881.75 491.791 881.515 492.088 881.322 492.402L881.067 492.508L881.067 492.508C879.982 492.958 879.442 493.182 878.902 493.184C878.368 493.186 877.833 492.971 876.768 492.543L876.768 492.543L876.469 492.423C873.364 488.086 872.06 480.836 870.922 474.509L870.922 474.508C870.534 472.349 870.165 470.297 869.75 468.505L856.002 409.493C855.886 408.989 855.718 408.114 855.508 407.021C854.65 402.552 853.093 394.445 851.566 393.231C851.306 393.024 850.956 393.008 850.608 392.993C850.456 392.986 850.306 392.979 850.163 392.957C845.226 392.178 839.311 395.758 835.645 398.698C831.687 401.872 828.723 406.078 828.397 411.23C828.011 417.335 832.347 424.542 836.034 430.671L836.034 430.671L836.034 430.671C837.072 432.396 838.059 434.036 838.874 435.542L862.713 481.036C863.106 481.792 863.683 482.785 864.333 483.902L864.333 483.903L864.334 483.903C866.326 487.328 868.999 491.923 869.122 494.461C869.155 495.142 868.861 495.78 868.568 496.418L868.568 496.418C868.421 496.737 868.274 497.056 868.168 497.38C865.725 498.72 865.708 498.717 863.103 498.19L862.903 498.15C859.037 493.559 856.087 487.363 853.291 481.494C852.25 479.307 851.23 477.165 850.193 475.169L826.172 429.683C826.012 429.391 825.714 428.791 825.338 428.035C824.096 425.54 822.01 421.347 821.293 420.932C820.904 420.706 820.438 420.722 819.971 420.737H819.971H819.971C819.737 420.745 819.502 420.753 819.278 420.73C813.431 423.972 810.438 429.653 808.673 435.917C808.569 436.287 808.46 436.66 808.351 437.037C807.619 439.556 806.85 442.206 807.062 444.774L841.827 486.592C842.721 487.647 843.903 488.913 845.202 490.304L845.202 490.304C849.375 494.772 854.751 500.529 855.647 504.715L855.548 504.908C854.28 507.405 854.272 507.422 851.566 508.564C847.974 507.794 844.562 503.357 841.808 499.776C841.091 498.842 840.418 497.968 839.799 497.231L813.227 465.605C813.042 465.385 812.671 464.912 812.192 464.3L812.192 464.3C810.396 462.008 807.066 457.758 806.156 457.454C805.79 457.331 805.398 457.406 805.006 457.482C804.811 457.519 804.615 457.557 804.423 457.57C800.281 462.829 800.926 470.016 801.629 476.395C802.237 481.914 804.933 484.01 809.126 487.207L868.397 531.708C869.735 532.655 871.132 533.675 872.575 534.73C879.799 540.007 888.195 546.139 896.23 548.192C906.396 544.434 915.703 537.968 924.668 531.739C925.844 530.922 927.014 530.109 928.18 529.307L980.19 491.408C980.934 490.846 981.762 490.257 982.63 489.64L982.631 489.639L982.632 489.639C987.164 486.417 992.811 482.403 993.6 477.15C994.69 469.901 992.82 462.347 990.79 455.455C981.059 463.838 972.376 473.903 963.876 483.758L963.876 483.758L963.874 483.76C961.779 486.189 959.696 488.604 957.61 490.979C956.573 492.157 955.4 493.624 954.134 495.207C949.917 500.481 944.664 507.049 939.95 508.587C937.64 507.519 937.44 507.357 936.1 505.203C936.729 501.423 940.074 497.886 943.045 494.744C943.852 493.892 944.63 493.068 945.32 492.277L972.02 462.358C973.425 460.853 975.124 459.265 976.867 457.635C979.975 454.73 983.223 451.695 985.19 448.77C988.66 443.593 987.35 432.54 983.93 427.658C981.03 423.526 977.64 421.324 973.37 418.798L939.17 480.753C938.557 481.863 937.802 483.424 936.962 485.161C934.773 489.687 932.01 495.403 929.69 497.416C929.225 497.818 928.659 498.071 928.094 498.323C927.808 498.451 927.522 498.579 927.25 498.726C924.433 498.126 924.345 498.003 922.898 496C922.773 495.827 922.638 495.64 922.49 495.438C922.718 491.966 925.691 487.166 928.121 483.241C928.885 482.008 929.595 480.861 930.15 479.869L954.66 435.66C955.573 433.993 956.633 432.226 957.728 430.4C960.746 425.366 964.029 419.89 965.24 414.871C966.42 409.951 965.52 404.784 962.18 400.898C958.88 397.046 951.94 392.714 946.78 392.218C944.154 391.964 942.876 392.911 940.977 394.318L940.975 394.32L940.97 394.323C940.796 394.452 940.616 394.585 940.43 394.722C937.21 401.413 935.551 409.177 933.948 416.675L933.948 416.677C933.47 418.913 932.997 421.124 932.49 423.277L920.89 472.534C920.489 474.254 920.135 476.114 919.774 478.016L919.774 478.016L919.774 478.017C919.008 482.042 918.208 486.252 916.85 489.701C915.925 492.051 915.334 492.336 913.323 493.306L913.09 493.419C912.96 493.373 912.836 493.33 912.718 493.288C910.335 492.45 910.157 492.388 908.69 490.066C909.463 483.929 911.013 477.776 912.547 471.68C913.175 469.187 913.801 466.703 914.37 464.233L926.62 412.229C927.037 410.472 927.627 408.485 928.243 406.407C929.708 401.468 931.326 396.016 931.15 391.922C931.07 389.927 930.52 388.557 929.43 386.899C926.61 382.639 918.8 380.85 913.95 380.383C909.74 379.976 906.26 380.042 902.35 381.851C902.088 382.158 901.791 382.445 901.494 382.731C900.907 383.298 900.319 383.865 900 384.598C899.298 386.194 899.596 391.508 899.815 395.401C899.898 396.888 899.97 398.168 899.97 398.954C899.964 401.434 900.033 406.512 900.123 413.036L900.123 413.038V413.038C900.464 437.803 901.091 483.391 898.93 486.72L892.582 486.724C890.83 483.803 891.191 476.013 891.458 470.246C891.542 468.444 891.616 466.839 891.614 465.643L891.517 400.974C891.503 399.542 891.584 397.838 891.67 396.039C891.86 392.048 892.071 387.589 891.325 384.598C890.64 381.851 886.778 380.119 884.225 379.565C881.694 379.014 878.98 379.147 876.367 379.276ZM837.624 519.284L867.486 541.593L866.407 542.88C858.979 544.726 847.591 546.924 840.736 542.889C836.766 536.883 837.116 529.905 837.463 522.973C837.525 521.74 837.587 520.508 837.624 519.284ZM953.6 521.634L955.12 522.223L955.43 527.189C955.65 533.071 955.26 539.036 951.18 543.514C945.687 545.96 939.162 545.055 933.125 544.218C931.864 544.044 930.624 543.872 929.42 543.734C928.028 543.38 926.833 542.871 925.512 542.309L925.49 542.3C926.513 539.893 940.198 530.689 948.346 525.209C950.714 523.617 952.614 522.339 953.6 521.634Z" fill="white"/>
<path fill-rule="evenodd" clip-rule="evenodd" d="M984.12 92.1629L826.679 91.6699C695.906 95.2689 561.46 104.504 434.062 136.055L409.432 142.589C408.4 142.87 407.379 143.101 406.378 143.328C402.566 144.191 399.031 144.992 396.189 148.27C393.862 150.953 391.975 154.689 392.505 158.317L436.687 318.868C437.452 322.753 439.477 325.672 442.78 327.885C445.679 329.828 448.811 330.74 452.233 329.91L519.138 313.205C617.232 293.017 717.589 282.396 817.649 279.059L966.56 278.741C1091.28 283.561 1218.59 295.016 1339.01 329.397L1339.01 329.397C1342.18 330.302 1344.05 330.836 1347.17 329.483L1348.35 328.98C1352.17 327.247 1354.84 324.489 1356.26 320.512C1357.28 317.624 1357.95 314.472 1358.62 311.329C1359.09 309.095 1359.56 306.865 1360.16 304.738L1373.49 256.876L1392.14 189.478L1400.39 159.968C1400.97 157.408 1400.99 156.049 1400.08 153.641L1399.67 152.526C1398.26 149.029 1395.56 146.204 1392.07 144.723C1389.51 143.633 1386.6 143.028 1383.73 142.431C1382.09 142.089 1380.46 141.75 1378.91 141.324L1335.9 130.645C1221.17 104.883 1101.39 95.8609 984.12 92.1629ZM920.27 147.825L924.1 148.977C923.606 151.148 920.282 154.158 917.74 156.459C916.938 157.185 916.213 157.842 915.68 158.378L918.09 167.929L927.81 170.59L936.53 161.976L937.86 162.918L937.81 168.289C937.34 171.876 934.92 176.182 932.01 178.349C927.312 181.861 920.432 180.558 914.886 179.507L914.885 179.507L914.872 179.505C914.415 179.418 913.967 179.333 913.53 179.253L904.24 189.924C905.225 190.781 906.706 191.986 908.471 193.422C916.432 199.899 930.165 211.073 930.19 216.141C930.2 218.856 928.87 220.52 927.28 222.488C925.12 223.721 923.97 224.326 921.42 224.126C916.372 223.73 906.152 211.146 899.894 203.44L899.894 203.439L899.893 203.439L899.893 203.439C898.392 201.59 897.119 200.022 896.2 198.971L881.369 216.084C880.884 216.633 880.378 217.247 879.851 217.887L879.851 217.887C877.893 220.266 875.642 223 873.051 224.048C870.13 225.23 867.774 224.159 865.237 223.004L865.236 223.004C864.76 222.787 864.278 222.568 863.784 222.36C863.714 222.181 863.643 222.001 863.572 221.821C862.902 220.127 862.209 218.373 862.307 216.537C862.615 210.819 875.742 200.267 883.871 193.732C885.775 192.201 887.405 190.89 888.532 189.914L879.434 179.622C878.911 179.704 878.381 179.79 877.846 179.877C874.199 180.467 870.318 181.095 866.703 180.838C862.663 180.552 859.691 179.092 857.305 175.842C854.157 171.554 853.605 167.699 854.283 162.542C855.884 162.326 858.147 164.74 860.25 166.983C861.525 168.342 862.741 169.639 863.714 170.249C864.704 170.869 870.699 169.272 871.924 168.701C874.328 167.58 875.041 163.846 875.611 160.86L875.611 160.86L875.612 160.859L875.612 160.858C875.753 160.121 875.885 159.43 876.031 158.835L867.563 149.734L868.168 148.763L874.516 148.788C878.186 149.318 881.868 151.789 884.051 154.738C887.393 159.251 886.185 166.124 885.231 171.557C885.13 172.13 885.033 172.687 884.943 173.223L896.19 182.975L907.19 173.536C905.69 167.825 904.27 159.91 907.7 154.624C910.44 150.394 915.67 148.959 920.27 147.825ZM767.299 171.634L781.853 171.058L782.604 182.65L768.189 183.426L767.094 185.379L768.559 186.907L781.624 186.459L782.404 197.355L768.653 198.074L767.882 200.027L769.047 201.605L781.01 201.372C781.422 201.362 781.741 201.338 782 201.32C783.06 201.242 783.12 201.238 784.5 202.469L785.008 212.856L755.452 214.326L753.286 172.343L767.299 171.634ZM1023.1 178.632C1015.2 172.91 1009.13 170.939 999.24 172.345C995.01 174.347 991.32 176.527 989.61 181.145C988.57 183.946 988.46 187.98 989.79 190.709C991.665 194.573 995.248 196.104 998.714 197.585C1001.59 198.813 1004.38 200.007 1006.06 202.469L1004.4 204.259C1000.01 204.214 997.633 202.673 994.132 200.403L993.904 200.255L993.67 200.104L984.66 208.838C992.36 213.636 998.04 216.36 1007.49 215.801C1012.37 214.039 1016.71 212.069 1019.13 207.162C1020.49 204.407 1020.78 199.832 1019.5 197.006C1017.76 193.179 1013.71 191.338 1010.06 189.675C1007.03 188.3 1004.27 187.046 1003.31 184.891L1004.89 183.298C1007.87 183.414 1009.16 184.005 1011.76 185.379L1014.09 186.528L1023.1 178.632ZM1036.81 175.028L1071.21 177.869C1071.18 178.563 1071.17 179.323 1071.16 180.118V180.118V180.119V180.12V180.121V180.122V180.122V180.123V180.124V180.125V180.125V180.126V180.127V180.128C1071.12 183.379 1071.07 187.218 1069.34 189.552L1060.07 188.785L1058.37 207.114L1057.39 218.769L1043.33 217.658L1045.8 187.862C1045.13 187.781 1044.4 187.726 1043.65 187.669C1040.77 187.453 1037.49 187.206 1035.78 185.379L1036.81 175.028ZM1177.45 190.168L1142.94 185.553L1141.45 197.237L1151.58 199.058L1147.67 228.581L1161.37 230.396L1163 219.305L1165.75 200.931L1176 201.835L1177.45 190.168ZM1207.93 194.956L1194.16 192.848L1187.69 234.302L1201.66 236.266L1207.93 194.956ZM656.667 180.356L662.113 179.846C662.696 179.963 663.289 180.15 663.772 180.496C665.315 181.604 675.063 201.443 680.602 212.718L680.605 212.724L680.607 212.728L680.608 212.73L680.61 212.734L680.611 212.735C682.251 216.075 683.522 218.66 684.098 219.781C683.147 219.884 682.193 219.997 681.237 220.11C677.155 220.594 673.033 221.083 668.949 220.783L666.02 215.898L664.137 215.662C663.454 215.708 662.665 215.728 661.823 215.751C658.961 215.825 655.487 215.916 653.464 217.052C652.474 217.607 652.093 219.429 651.795 220.854C651.712 221.25 651.636 221.615 651.554 221.914C648.968 223.873 644.061 224.112 639.953 224.312L639.952 224.312C638.676 224.374 637.477 224.432 636.449 224.537L644.695 195.075C644.979 194.048 645.248 192.912 645.528 191.73C646.391 188.081 647.359 183.994 649.184 181.293L656.667 180.356ZM654.253 205.106L661.98 205.008C662.628 205 663.097 204.387 662.936 203.76L660.111 192.734C659.989 192.256 659.536 191.939 659.045 191.987L656.183 192.268C655.741 192.311 655.38 192.641 655.298 193.078L653.257 203.921C653.14 204.541 653.621 205.114 654.253 205.106ZM550.297 194.402L544.55 194.996C544.217 195.046 543.732 195.099 543.161 195.162L543.16 195.162L543.159 195.162C540.824 195.418 537.057 195.832 536.347 196.802C534.026 199.98 530.514 218.121 528.148 230.35L528.147 230.352L528.147 230.352L528.147 230.353L528.147 230.353L528.147 230.353L528.146 230.357C527.32 234.624 526.634 238.17 526.186 240.109C527.174 239.971 528.326 239.874 529.553 239.772C533.754 239.42 538.827 238.995 541.127 236.567L541.996 232.113C545.115 230.806 548.349 230.391 551.653 229.967H551.653L551.658 229.967C552.104 229.909 552.552 229.852 553.001 229.792C555.388 230.401 556.1 231.745 556.741 232.957C557.2 233.824 557.623 234.622 558.598 235.035C559.421 235.384 565.982 234.198 569.864 233.497L569.865 233.497L569.865 233.497C571.095 233.274 572.056 233.101 572.48 233.04L573.126 232.515L558.536 207.419C557.944 206.396 557.354 205.306 556.75 204.192C554.87 200.721 552.864 197.019 550.297 194.402ZM543.764 221.719L550.377 220.25C550.97 220.118 551.309 219.492 551.096 218.923L547.277 208.739C547.115 208.306 546.676 208.041 546.217 208.098L543.844 208.395C543.357 208.456 542.987 208.86 542.969 209.35L542.548 220.706C542.524 221.361 543.125 221.861 543.764 221.719ZM733.161 178.045C725.367 174.222 720.117 173.331 711.392 174.356C704.873 177.168 699.13 180.427 696.533 187.542C694.408 193.363 694.737 200.658 697.443 206.218C699.885 211.236 704.623 215.253 709.965 216.85C719.089 219.578 728.228 216.728 736.414 212.697C736.339 211.71 736.291 210.286 736.234 208.619C736.012 202.081 735.663 191.822 733.102 189.697L732.896 189.595L715.351 190.963L716.437 201.004C718.074 202.103 719.448 201.995 721.187 201.859C721.484 201.836 721.792 201.811 722.114 201.792L723.171 203.445L722.134 205.165C721.786 205.202 721.426 205.246 721.058 205.29C718.644 205.584 715.891 205.919 713.871 204.542C711.205 202.726 709.923 199.756 709.588 196.609C709.315 194.052 710.383 191.208 711.918 189.212C713.397 187.289 716.276 186.218 718.622 186.091C720.278 186.002 721.592 186.565 723.042 187.186C723.238 187.269 723.436 187.354 723.637 187.438L725.019 188.005L725.913 188.406L733.161 178.045ZM485.927 203.6L497.074 203.413C500.227 203.693 502.241 204.458 504.375 206.863L504.153 207.29C502.419 210.622 500.747 213.834 498.392 216.803C498.058 216.692 497.717 216.573 497.371 216.452C495.856 215.923 494.244 215.36 492.68 215.296C490.333 215.2 487.861 216.354 486.201 217.961C484.117 219.979 483.307 222.917 483.518 225.756C483.812 229.701 485.294 231.722 488.285 234.122C491.426 235.027 493.575 234.74 496.772 234.207L497.688 232.254L496.586 230.792L492.191 231.405C490.175 229.887 489.645 226.345 489.195 223.335C489.069 222.487 488.949 221.682 488.803 220.976C492.713 219.369 497.747 218.678 502.457 218.032L502.457 218.032H502.457L502.457 218.032L502.458 218.032C504.318 217.776 506.127 217.528 507.796 217.233L511.83 240.162L506.025 243.372C498.641 247.129 490.327 248.674 482.395 245.741C477.075 243.774 473.045 239.706 470.897 234.485C468.602 228.906 468.114 222.051 470.576 216.445C473.722 209.283 479.091 206.405 485.927 203.6ZM598.745 187.22C603.542 186.264 609.688 186.375 613.776 189.279C616.465 191.189 618.182 193.941 618.583 197.214C619.308 203.131 617.988 205.343 614.247 209.785L613.327 210.86C614.184 211.896 615.304 213.115 616.514 214.433L616.515 214.434L616.515 214.435C619.853 218.07 623.879 222.454 624.972 225.793L610.054 228.118L605.78 222.338L599.995 214.586L599.608 214.857L601.38 229.102L587.725 231.003L582.273 189.152L598.745 187.22ZM594.155 198.376L595.311 204.93C595.413 205.506 595.984 205.873 596.551 205.729C600.005 204.851 605.78 203.5 606.5 203.5C607.5 203.5 606.5 197.5 605.5 196C604.763 194.894 598.447 196.252 594.852 197.254C594.364 197.39 594.067 197.877 594.155 198.376ZM1290.85 209.655L1304.64 212.572L1312.25 235.978L1316.09 214.76L1329.06 217.622L1320.32 258.608L1306.34 255.441L1299.14 233.662C1298.58 235.83 1298.21 238.322 1297.83 240.871V240.871C1297.16 245.33 1296.46 249.962 1294.72 253.325L1282.21 250.722L1290.85 209.655ZM1238.94 200.614C1239.55 200.593 1240.16 200.566 1240.78 200.539C1245.03 200.355 1249.41 200.166 1253.42 201.624C1259.65 203.886 1265.04 207.807 1267.65 214.091C1270.05 219.868 1269.45 226.6 1266.99 232.254C1264.04 239.022 1258.69 241.812 1252.23 244.382L1251.87 244.401C1246.93 244.66 1241.94 244.922 1237.24 243.107C1231.54 240.906 1226.73 237.086 1224.34 231.332C1221.89 225.447 1221.86 218.582 1224.52 212.723C1227.64 205.83 1232.34 203.341 1238.94 200.614ZM1242.62 213.143C1242.93 213.149 1243.25 213.15 1243.59 213.152C1245.82 213.162 1248.5 213.175 1250.25 214.456C1252.58 216.166 1254.07 218.486 1254.25 221.427C1254.52 225.655 1251.9 228.594 1249.15 231.42C1245.25 231.857 1243.64 231.701 1240.24 229.703L1240.21 229.656L1240.21 229.656C1238.21 226.821 1237.7 226.089 1237.64 222.463C1237.56 218.113 1239.65 216.05 1242.62 213.143ZM1099.8 180.719L1114.68 182.303L1126.39 225.952C1125.47 225.86 1124.55 225.777 1123.63 225.694C1119.48 225.322 1115.3 224.945 1111.33 223.717L1108.99 217.616L1096.68 216.486C1095.51 218.642 1094.45 220.276 1092.78 222.115L1078.8 220.749L1099.8 180.719ZM1108.4 206.89L1100.7 206.12C1100.08 206.058 1099.66 205.446 1099.84 204.845L1102.75 194.842C1102.9 194.36 1103.37 194.057 1103.87 194.133L1108.65 194.87C1109.14 194.945 1109.5 195.365 1109.5 195.858V205.895C1109.5 206.487 1108.99 206.949 1108.4 206.89Z" fill="white"/>
<path fill-rule="evenodd" clip-rule="evenodd" d="M607.158 637.866L481.079 637.594C479.411 639.812 479.223 642.627 479.041 645.355C479.01 645.821 478.979 646.284 478.941 646.741C477.992 658.115 478.807 669.686 480.314 680.992C487.134 681.257 493.52 681.258 500.288 680.311C501.918 690.681 502.106 702.234 501.537 712.723C501.454 714.258 501.29 715.723 501.129 717.163C500.78 720.291 500.443 723.307 500.968 726.69C501.591 730.707 501.18 735.263 500.774 739.764C500.507 742.726 500.242 745.664 500.275 748.41L502.866 809.41C503.194 814.588 505.231 818.42 507.292 822.295C508.729 824.998 510.177 827.722 511.065 830.94C512.243 835.21 515.571 838.457 518.767 841.575C519.531 842.32 520.287 843.058 521.004 843.8C522.411 845.251 523.715 846.815 525.019 848.379C526.698 850.393 528.378 852.407 530.277 854.18C535.791 859.32 544.601 864.006 551.584 867.72C552.141 868.017 552.686 868.306 553.217 868.59C555.787 869.954 558.623 870.902 561.437 871.842C562.872 872.322 564.303 872.8 565.689 873.33C594.704 884.43 627.304 885.86 657.982 882.9C661.956 882.518 665.882 881.758 669.809 880.997C674.006 880.184 678.203 879.371 682.46 879.02C706.019 877.07 731.351 862.35 746.176 844.58C746.825 843.804 747.515 843.014 748.217 842.211C750.372 839.744 752.636 837.153 754.127 834.46C756.822 829.585 758.767 824.211 760.698 818.872C761.766 815.921 762.83 812.981 764.015 810.14C767.611 801.519 767.122 790.379 766.673 780.148C766.515 776.553 766.362 773.071 766.393 769.85L767.396 744.35C767.393 742.311 767.03 740.465 766.665 738.608C766.415 737.332 766.163 736.052 766.026 734.7C765.821 732.672 766.022 730.508 766.22 728.368C766.344 727.036 766.467 725.714 766.49 724.44L767.118 701.004C767.173 698.661 766.951 696.431 766.731 694.231C766.359 690.512 765.996 686.877 766.999 682.917C767.025 682.815 767.04 682.708 767.056 682.601C767.089 682.371 767.122 682.141 767.257 681.961C767.645 681.446 768.19 681.085 768.735 680.724C769.008 680.543 769.282 680.362 769.535 680.162C775.9 680.825 781.978 681.197 788.376 680.974C788.495 678.631 788.706 676.159 788.923 673.626C789.596 665.75 790.321 657.279 788.471 650.213C787.603 646.897 788.351 643.479 789.077 640.162C789.186 639.662 789.295 639.165 789.398 638.67C769.886 635.499 748.895 636.311 728.473 637.101C721.272 637.38 714.141 637.656 707.171 637.753C701.323 637.835 695.429 637.702 689.527 637.568C681.425 637.385 673.309 637.202 665.277 637.574C665.307 638.322 665.345 639.075 665.383 639.829C665.597 644.098 665.815 648.434 664.62 652.539C663.153 657.575 663.614 664.128 664.056 670.42C664.3 673.896 664.539 677.292 664.444 680.309C673.074 680.088 680.885 680.37 689.382 681.943L689.05 683.577C688.276 687.528 688.684 690.507 689.103 693.561C689.389 695.647 689.68 697.767 689.602 700.254C689.554 701.779 689.395 703.296 689.235 704.813C689.032 706.747 688.829 708.682 688.857 710.631C688.882 712.365 689.022 714.132 689.163 715.904C689.383 718.667 689.604 721.443 689.388 724.13C689.322 724.952 689.254 725.778 689.186 726.606C688.573 734.112 687.939 741.856 688.022 749.34C688.047 751.588 688.285 753.822 688.523 756.056C688.77 758.372 689.016 760.688 689.025 763.02C689.039 766.473 688.821 769.929 688.603 773.391C688.37 777.098 688.136 780.812 688.185 784.54C688.208 786.294 688.358 787.925 688.504 789.519C688.792 792.658 689.067 795.655 688.337 799.17L688.135 800.27C687.411 803.764 684.828 807.32 682.397 810.668C681.328 812.14 680.288 813.572 679.448 814.94C676.506 819.73 667.362 826.81 661.7 828.24C647.571 831.8 627.776 833.48 613.81 828.83C610.696 827.794 607.764 826.246 604.837 824.701C602.991 823.726 601.148 822.753 599.262 821.91C593.792 819.48 587.92 809.58 585.833 804.01C584.407 800.21 583.828 796.32 583.314 792.31L583.132 790.99C582.709 787.47 583.126 783.926 583.543 780.391C583.733 778.775 583.924 777.16 584.033 775.55C584.249 772.375 584.078 769.2 583.907 766.025C583.783 763.72 583.659 761.415 583.683 759.11C583.703 757.172 583.85 755.276 583.996 753.395C584.289 749.61 584.577 745.889 583.817 742.02C582.489 735.253 582.889 728.428 583.29 721.587C583.463 718.641 583.636 715.693 583.671 712.746L582.973 681.056L607.242 680.583L607.158 637.866ZM559.861 791.191L557.173 791.341C556.627 791.472 556.058 791.585 555.48 791.699C553.356 792.121 551.123 792.564 549.587 793.971C551.349 795.959 556.119 796.66 559.738 797.193C560.743 797.341 561.66 797.475 562.398 797.621L566.618 796.861L567.235 795.161C566.93 794.868 566.646 794.587 566.374 794.318C564.44 792.403 563.172 791.147 559.861 791.191Z" fill="white"/>
<path fill-rule="evenodd" clip-rule="evenodd" d="M1581.54 636.727C1572.45 636.194 1562.96 635.637 1554.1 636.388C1553.38 636.489 1552.7 636.561 1552.05 636.63C1549.22 636.932 1546.99 637.169 1544.64 639.48L1544.85 641.159C1545.39 646.077 1545.09 651.108 1544.8 656.124C1544.38 663.324 1543.96 670.493 1546.01 677.252L1546.4 678.747L1546.66 679.64C1547.8 679.698 1549.1 679.716 1550.48 679.735C1555.46 679.805 1561.49 679.888 1564.98 681.93C1566.34 686.035 1563.04 692.625 1560.97 696.759C1560.88 696.935 1560.79 697.106 1560.71 697.273C1559.05 700.6 1557.83 704.03 1556.61 707.457C1554.96 712.121 1553.3 716.778 1550.54 721.157C1549.3 723.118 1548.87 725.164 1548.43 727.243C1548.14 728.579 1547.85 729.93 1547.35 731.28C1545.79 735.451 1543.9 739.561 1542 743.689C1538.69 750.884 1535.36 758.133 1533.72 765.86C1532.97 769.382 1531.23 772.529 1529.48 775.692C1528.34 777.746 1527.2 779.806 1526.33 781.98C1524.49 786.539 1523.06 791.186 1521.63 795.831L1521.63 795.832C1520.5 799.48 1519.38 803.127 1518.06 806.73C1517.49 808.273 1516.59 809.609 1515.69 810.937C1514.86 812.173 1514.03 813.401 1513.48 814.78C1512.97 816.055 1512.75 817.439 1512.54 818.827C1512.34 820.095 1512.15 821.366 1511.72 822.56C1510.16 826.96 1507.48 831.93 1504.54 835.56C1503.11 835.568 1501.56 835.519 1499.95 835.469H1499.95C1495.48 835.328 1490.59 835.175 1486.79 836.19C1484.71 844.498 1485.01 853.054 1485.32 861.649C1485.5 866.75 1485.68 871.865 1485.36 876.95C1485.57 877.208 1485.76 877.445 1485.93 877.662C1486.95 878.946 1487.43 879.555 1489.49 879.82C1491.39 880.064 1493.43 879.823 1495.45 879.583C1496.83 879.42 1498.2 879.258 1499.52 879.25C1501.36 879.24 1503.2 879.372 1505.04 879.504H1505.04H1505.04C1507.09 879.65 1509.14 879.797 1511.2 879.75C1513.79 879.692 1516.38 879.464 1518.96 879.235H1518.96H1518.96C1521.76 878.988 1524.55 878.741 1527.35 878.71C1530.15 878.677 1532.94 878.907 1535.73 879.138C1538.02 879.327 1540.3 879.515 1542.58 879.56L1575.45 879.12C1577.78 879.125 1580.1 879.303 1582.42 879.481C1584.9 879.671 1587.37 879.86 1589.85 879.84L1590.01 879.838C1593.68 879.809 1599.06 879.765 1602.31 878.12C1602.4 874.251 1602.1 870.524 1601.82 866.807L1601.82 866.806C1601.59 863.961 1601.37 861.122 1601.32 858.23C1601.28 856.089 1601.31 854.07 1601.34 852.099V852.099V852.099C1601.42 847.378 1601.49 842.932 1600.58 837.74C1597.83 837.131 1594.78 837.354 1591.71 837.577C1586.57 837.952 1581.4 838.329 1577.61 834.79C1577.99 830.782 1579.87 826.235 1581.64 821.918L1581.64 821.918C1582.5 819.825 1583.34 817.787 1583.98 815.89C1585.79 815.866 1587.62 815.866 1589.46 815.866H1589.46C1595.37 815.866 1601.36 815.865 1607.13 815.08C1611.3 814.509 1615.84 814.887 1620.35 815.262H1620.35H1620.35C1623.19 815.499 1626.01 815.734 1628.72 815.73L1675.06 814.77C1675.53 815.83 1676.17 817.117 1676.87 818.541L1676.87 818.544L1676.87 818.545C1679.64 824.183 1683.46 831.957 1682.62 836.22C1678.59 838.939 1672.7 838.566 1667.45 838.233C1666.37 838.164 1665.32 838.098 1664.31 838.06L1664.29 838.06C1661.46 838.09 1661.15 838.093 1658.8 839.68C1657.79 845.323 1658.07 851.3 1658.35 857.303V857.303V857.303C1658.58 862.31 1658.81 867.334 1658.3 872.2L1657.84 876.79C1658.16 877.041 1658.46 877.332 1658.75 877.622L1658.75 877.623C1659.33 878.188 1659.91 878.753 1660.65 879.03C1661.27 879.265 1663.04 879.201 1664.41 879.152H1664.41C1664.96 879.132 1665.45 879.114 1665.76 879.12C1666.03 879.125 1666.3 879.13 1666.57 879.134C1666.78 879.138 1666.99 879.142 1667.2 879.145L1667.2 879.146H1667.2C1671.46 879.219 1675.72 879.293 1679.93 879.94C1684.27 880.606 1688.93 880.208 1693.55 879.813C1696.48 879.562 1699.4 879.313 1702.21 879.34L1746.59 879.92C1749.97 879.883 1753.35 879.595 1756.74 879.308L1756.74 879.308C1759.7 879.056 1762.67 878.804 1765.63 878.72C1768.89 878.63 1772.15 878.745 1775.41 878.86C1779.05 878.989 1782.7 879.118 1786.35 878.96C1786.4 878.772 1786.46 878.586 1786.51 878.401C1786.56 878.228 1786.61 878.055 1786.66 877.884C1787.95 873.364 1789.04 869.579 1788.21 864.71C1787.71 861.794 1787.83 857.757 1787.95 853.576C1788.15 846.961 1788.36 839.984 1786.14 836.51C1783.04 835.305 1780.02 835.853 1777.16 836.37C1772.28 837.253 1767.88 838.049 1764.43 829.91C1763.31 827.285 1762.43 824.561 1761.54 821.833C1760.67 819.166 1759.8 816.495 1758.71 813.91C1757.54 811.135 1756.21 808.402 1754.89 805.667C1752.98 801.751 1751.08 797.831 1749.64 793.78C1748.85 791.56 1748.29 789.26 1747.72 786.961L1747.72 786.961L1747.72 786.96L1747.72 786.96C1747.08 784.309 1746.43 781.658 1745.43 779.13C1744.44 776.613 1743.26 774.177 1742.08 771.74L1742.08 771.739L1742.08 771.739C1740.54 768.57 1739 765.397 1737.88 762.04C1737.21 760.019 1736.71 757.973 1736.21 755.924L1736.21 755.923L1736.21 755.923L1736.21 755.923C1735.57 753.297 1734.93 750.664 1733.91 748.07C1731.33 741.464 1728.25 734.709 1725.12 727.857C1718.34 712.999 1711.35 697.685 1708.81 682.449C1711.01 680.395 1715.06 680.253 1719.02 680.114C1724.27 679.93 1729.38 679.751 1729.82 675.125C1730.09 672.324 1729.37 640.812 1728.86 639.48C1728.62 638.867 1728.16 638.383 1727.7 637.899C1727.48 637.663 1727.25 637.426 1727.05 637.174C1721.99 635.896 1716.69 635.955 1711.46 636.014C1710.49 636.025 1709.52 636.036 1708.55 636.038L1675.3 637.112C1671.38 637.249 1667.55 636.96 1663.71 636.67C1661.07 636.471 1658.43 636.272 1655.77 636.212L1604.5 636.144C1601.82 636.089 1599.09 636.356 1596.36 636.621C1593.33 636.916 1590.32 637.21 1587.41 637.059C1585.48 636.959 1583.52 636.844 1581.54 636.727ZM1707.37 778.141L1701.82 778.761L1686.72 782.241C1690.67 782.901 1694.33 783.341 1698.33 783.221C1699 783.258 1699.67 783.313 1700.34 783.368C1703.68 783.644 1707.03 783.921 1709.87 781.931C1709.53 779.836 1709.35 779.693 1708.31 778.891C1708.05 778.694 1707.75 778.457 1707.37 778.141ZM1629.52 684.011C1638.13 683.854 1642.96 685.371 1650.04 690.288C1652.09 691.712 1652.69 692.232 1653.18 694.689C1651.11 695.669 1650.33 695.497 1648.53 695.098L1648.53 695.098C1648.19 695.023 1647.81 694.939 1647.38 694.853C1641.8 691.04 1636.43 690.982 1630.73 690.921C1627.6 690.888 1624.37 690.853 1620.95 690.191L1620.5 688.183C1622.78 686.215 1625.44 685.346 1628.21 684.44C1628.65 684.299 1629.08 684.158 1629.52 684.011ZM1639.97 700.786L1630.03 700.579L1605.04 768.751C1605.24 769.073 1605.43 769.378 1605.6 769.666C1606.51 771.169 1607.14 772.209 1609.23 772.721L1638.77 772.601L1662.78 771.341C1661.52 761.968 1658.84 755.131 1655.73 747.174C1655.01 745.325 1654.26 743.416 1653.51 741.401C1652.57 738.929 1652.08 736.403 1651.6 733.878C1651.17 731.673 1650.75 729.469 1650.03 727.301C1648.74 723.466 1647.2 719.862 1645.65 716.263C1643.51 711.292 1641.38 706.331 1639.97 700.786Z" fill="white"/>
<path fill-rule="evenodd" clip-rule="evenodd" d="M71.8771 636.45L83.6131 636.239L115.584 637.179C116.196 637.201 116.934 637.203 117.745 637.205C120.98 637.215 125.367 637.229 127.447 638.504C128.07 638.886 128.794 639.744 129.438 640.506L129.438 640.507L129.438 640.507C129.731 640.853 130.007 641.18 130.249 641.434C130.745 649.048 130.485 656.612 130.224 664.21L130.224 664.217C130.177 665.573 130.13 666.93 130.088 668.289C130.069 668.888 130.066 669.474 130.062 670.051V670.051C130.045 672.853 130.029 675.415 128.304 677.939C124.836 679.967 122.14 679.91 118.904 679.842C117.629 679.815 116.272 679.786 114.75 679.882C111.13 680.111 110.494 680.783 108.258 683.146L107.993 683.426C107.823 685.566 107.406 688.048 106.971 690.637L106.971 690.637C106.061 696.053 105.073 701.935 106.107 706.131C107.323 711.065 107.607 717.086 106.56 722.09C106.504 722.358 106.448 722.617 106.395 722.869L106.394 722.869C105.705 726.092 105.269 728.127 107.125 731.28C107.271 731.376 107.417 731.474 107.563 731.573L107.565 731.574L107.565 731.574C108.888 732.461 110.251 733.376 111.859 733.61C114.855 734.035 118.194 733.827 121.449 733.623C123.166 733.516 124.861 733.41 126.469 733.4L163.569 733.41L193.491 734.4C194.445 734.417 195.479 734.469 196.553 734.523L196.554 734.523C199.938 734.694 203.713 734.885 206.606 734.05C209.647 733.172 210.664 731.437 212.127 728.941L212.186 728.84C212.065 726.185 212.225 723.41 212.384 720.626V720.626C212.62 716.511 212.857 712.376 212.194 708.572C211.256 703.187 210.549 696.069 211.853 690.75C212.461 688.269 212.51 686.942 212.129 684.402C208.138 679.789 204.362 680.075 200.4 680.375C197.261 680.612 194.005 680.859 190.434 678.682C186.153 671.655 188.161 651.957 189.32 643.794C189.719 640.982 190.136 638.326 192.973 636.9C195.046 635.858 198.334 636.061 201.017 636.226C201.68 636.267 202.305 636.306 202.867 636.323L229.984 637.477L285.582 636.699C287.079 636.671 288.868 636.58 290.82 636.48C298.037 636.112 307.472 635.632 312.504 637.824C313.778 638.379 315.155 639.411 315.681 640.734C316.691 643.273 316.862 646.452 317.02 649.362V649.362C317.06 650.116 317.1 650.851 317.153 651.553C317.183 651.953 317.214 652.351 317.244 652.746C317.957 662.053 318.551 669.802 314.238 678.543C310.907 680.697 308.652 680.482 306.104 680.24C304.545 680.091 302.877 679.933 300.785 680.299C297.836 680.815 296.523 682.653 294.926 684.917C294.506 694.589 295.089 703.884 295.68 713.321V713.321L295.681 713.324C295.93 717.295 296.18 721.291 296.358 725.35C296.44 727.215 296.04 728.8 295.646 730.358C295.088 732.569 294.543 734.727 295.404 737.56C296.421 740.904 296.088 743.479 295.722 746.305C295.541 747.704 295.352 749.164 295.315 750.81C295.244 753.939 295.363 757.063 295.481 760.186C295.634 764.23 295.788 768.273 295.531 772.33C295.452 773.59 295.256 774.922 295.058 776.273C294.655 779.019 294.24 781.847 294.761 784.32C295.95 789.959 295.592 794.554 295.204 799.531V799.531C295.033 801.729 294.856 804.001 294.804 806.47C294.739 809.579 294.869 812.626 295 815.666C295.191 820.115 295.381 824.548 294.955 829.14C294.771 831.121 295.17 831.694 295.985 832.865C296.203 833.178 296.45 833.533 296.724 833.97C300.811 836.21 301.913 836.23 306.645 836.03C310.073 835.9 311.519 835.97 314.659 837.54C314.912 837.89 315.188 838.227 315.463 838.563C316.006 839.226 316.547 839.887 316.916 840.65C318.114 843.138 317.386 849.149 316.75 854.396C316.402 857.266 316.082 859.908 316.12 861.62C316.165 863.62 316.517 865.557 316.868 867.491C317.162 869.115 317.457 870.737 317.568 872.39C317.731 874.81 316.824 876.29 315.045 877.86C310.94 881.467 302.375 880.564 295.59 879.849L295.59 879.849C293.515 879.63 291.606 879.429 290.043 879.38L251.933 879.05L194.34 880.17C191.322 879.833 189.775 877.66 188.155 875.383L188.11 875.32C188.04 874.791 187.959 874.244 187.877 873.684L187.877 873.682L187.877 873.682C187.426 870.615 186.921 867.179 187.728 864.33C189.016 859.79 188.794 855.752 188.573 851.734V851.733C188.395 848.502 188.218 845.284 188.828 841.83C189.549 837.743 195.144 837.263 200.658 836.791H200.658C204.251 836.483 207.81 836.178 209.965 834.88C210.136 834.609 210.386 834.266 210.658 833.893L210.658 833.893L210.658 833.892C211.278 833.04 212.011 832.034 212.179 831.38C212.7 829.345 212.561 826.194 212.437 823.365V823.364C212.38 822.078 212.327 820.859 212.339 819.84C212.371 817.213 212.492 814.463 212.615 811.658C212.963 803.754 213.33 795.416 211.769 788.19L211.473 786.94C211.421 786.7 211.374 786.453 211.327 786.202C211.152 785.278 210.969 784.306 210.473 783.52C207.225 778.405 189.744 779.669 176.137 780.653H176.136C169.978 781.098 164.613 781.486 161.719 781.2L112.309 780.62C110.546 781.04 109.558 781.79 108.514 783.19C105.549 787.16 105.615 801.22 106.288 806.23C106.688 809.209 106.602 812.757 106.512 816.397V816.398C106.361 822.569 106.204 829.006 108.402 833.39C111.636 835.481 115.062 835.503 118.553 835.525C121.172 835.541 123.829 835.558 126.469 836.45C129.027 837.31 130.219 839.28 131.266 841.63C130.463 845.391 130.656 850.532 130.854 855.846V855.846C131.168 864.25 131.499 873.085 127.934 877.57C119.934 881.22 109.609 880.481 100.254 879.812C97.3053 879.601 94.4534 879.397 91.8011 879.34C90.1949 879.304 88.6037 879.541 87.0101 879.778H87.0099C85.4573 880.008 83.9023 880.24 82.3291 880.22L41.7601 880.28C39.8953 880.255 38.0559 880.037 36.2178 879.819C34.4069 879.604 32.5973 879.39 30.7661 879.36C28.145 879.314 25.303 879.531 22.3993 879.752C16.3497 880.213 10.0324 880.694 4.88706 878.87C2.50836 875.751 2.4278 873.396 2.32464 870.381C2.28825 869.317 2.24903 868.171 2.10507 866.88L2.05394 866.422C1.2936 859.618 -0.279796 845.537 2.07406 839.77C3.71266 835.756 8.59077 835.796 13.2767 835.834C15.9688 835.856 18.5975 835.878 20.5121 835.13C20.6798 834.955 20.9761 834.682 21.3199 834.364L21.3201 834.364C22.1956 833.556 23.3793 832.464 23.5351 831.99C24.5895 828.787 23.9537 825.204 23.3018 821.531C22.6572 817.9 21.9969 814.18 22.9391 810.65C23.8167 807.368 23.5035 804.635 23.1636 801.67C23.0074 800.308 22.8455 798.896 22.7911 797.36C22.7066 794.971 22.9728 792.596 23.2388 790.222C23.4896 787.984 23.7402 785.747 23.6971 783.5C23.6496 781.04 23.3024 778.566 22.955 776.09C22.5482 773.191 22.1412 770.29 22.2151 767.41C22.3355 762.724 22.7106 757.846 23.0903 752.908C23.8459 743.082 24.6198 733.018 23.4411 723.76C22.7759 718.53 23.0879 713.673 23.4076 708.695C23.5589 706.339 23.712 703.955 23.7641 701.492C23.8571 697.061 23.6831 684.911 20.5121 682.018C18.5981 680.272 17.0043 680.282 14.6477 680.297C14.5919 680.297 14.5356 680.298 14.4788 680.298C14.423 680.298 14.3668 680.299 14.3101 680.299C11.2661 680.314 8.49606 680.143 5.48806 679.705C5.11519 679.439 4.76447 679.205 4.43603 678.985C2.75969 677.865 1.66408 677.132 1.16906 674.637C0.171451 669.606 0.780598 664.104 1.37325 658.751C1.65804 656.179 1.93902 653.641 2.03607 651.207C2.0931 649.773 1.96533 648.47 1.84414 647.234C1.58077 644.548 1.34853 642.18 3.11206 639.48C8.03387 636.39 15.5775 636.778 22.0788 637.113C23.9508 637.209 25.7364 637.301 27.3481 637.304C30.9365 637.311 34.5747 637.372 38.2353 637.433C48.8385 637.611 59.629 637.792 69.9411 636.671L71.8771 636.45ZM252.761 751.701L253.687 751.621L254.925 753.121C252.285 756.246 248.277 756.492 244.21 756.742C243.058 756.813 241.902 756.884 240.77 757.021C239.929 756.393 239.258 755.525 238.602 754.677C238.401 754.417 238.202 754.159 238 753.911L238.973 752.561L252.761 751.701ZM256.482 783.616C255.784 783.629 255.098 783.642 254.446 783.621C254.223 783.749 254.015 783.868 253.819 783.979C251.072 785.543 250.837 785.677 249.486 789.261L250.829 790.941L257.822 789.371C258.306 789.15 258.756 788.959 259.179 788.78C261.083 787.973 262.421 787.405 263.728 785.351C262.001 783.511 259.159 783.565 256.482 783.616Z" fill="white"/>
<path fill-rule="evenodd" clip-rule="evenodd" d="M1056.16 636.063L1002.12 636.488L969.17 637.049C967.817 637.036 966.283 636.947 964.675 636.854C960.54 636.616 955.916 636.349 952.64 637.258C952.724 637.774 952.811 638.283 952.897 638.788C953.547 642.608 954.152 646.157 953.18 650.062C952.428 653.096 952.777 655.526 953.143 658.072C953.341 659.452 953.545 660.867 953.58 662.43C953.642 665.167 953.407 667.979 953.169 670.822C952.911 673.896 952.651 677.006 952.76 680.099C962.75 681.022 972.13 680.959 982.11 680.406L976.35 780.59C975.935 787.043 975.15 793.506 974.363 799.977C972.894 812.067 971.422 824.181 972.36 836.29L950.45 835.61C951.594 843.251 951.124 850.771 950.652 858.328C950.224 865.172 949.795 872.046 950.56 879.07C950.979 879.12 951.396 879.171 951.812 879.222L951.834 879.225L951.849 879.227L951.86 879.228L951.86 879.228C957.116 879.87 962.158 880.485 967.49 879.82C973.157 879.112 978.604 879.466 984.075 879.822C987.563 880.049 991.06 880.277 994.63 880.23C996.504 880.205 998.367 879.977 1000.23 879.747L1000.24 879.747L1000.24 879.747C1002.16 879.511 1004.08 879.275 1006.02 879.26C1009.34 879.246 1012.67 879.418 1016 879.589C1019.79 879.785 1023.58 879.98 1027.35 879.9C1029.44 879.856 1031.53 879.742 1033.61 879.628C1038.64 879.353 1043.64 879.079 1048.67 879.8C1054.11 880.58 1060.39 880.37 1065.85 879.84C1065.92 878.228 1066.02 876.586 1066.12 874.93L1066.12 874.929L1066.12 874.929L1066.12 874.929L1066.12 874.928L1066.12 874.928L1066.12 874.928L1066.12 874.927L1066.12 874.927L1066.12 874.927L1066.12 874.926C1066.41 870.328 1066.7 865.622 1066.38 861.16C1066.29 859.846 1065.94 858.605 1065.6 857.362C1065.32 856.363 1065.04 855.362 1064.89 854.32C1064.22 849.528 1065.38 843.547 1066.34 838.55C1066.46 837.969 1066.57 837.401 1066.67 836.85L1042.65 836.57C1042.89 833.488 1042.9 830.148 1042.91 826.747C1042.93 820.325 1042.95 813.684 1044.51 808.14C1045.31 805.309 1045.09 803.041 1044.87 800.742C1044.71 799.151 1044.56 797.546 1044.74 795.73C1044.87 794.407 1045.22 793.122 1045.56 791.835C1045.9 790.544 1046.24 789.252 1046.38 787.92C1046.61 785.718 1046.59 783.491 1046.58 781.263C1046.57 779.243 1046.56 777.222 1046.73 775.22C1047.07 771.069 1047.83 766.843 1048.58 762.624C1049.12 759.636 1049.65 756.652 1050.04 753.7L1057.66 764.5C1059.32 767.136 1061.53 769.295 1063.74 771.465C1065.61 773.295 1067.48 775.133 1069.05 777.27L1093.6 813.67C1095.07 815.663 1096.77 817.427 1098.47 819.185C1100.21 820.99 1101.95 822.788 1103.41 824.82C1105.29 827.422 1106.88 830.215 1108.47 833.006C1110.55 836.652 1112.62 840.294 1115.33 843.5C1116.6 845.004 1118.16 846.154 1119.72 847.299L1119.72 847.299C1121.14 848.347 1122.56 849.391 1123.75 850.7C1124.89 851.956 1125.83 853.493 1126.79 855.043C1128.71 858.18 1130.67 861.366 1134.35 862.37C1138.43 863.48 1144.34 861.27 1147.46 858.65C1153.7 853.426 1159.42 844.678 1164.58 836.807C1166.43 833.98 1168.2 831.267 1169.9 828.87L1185.75 807.45C1186.7 806.044 1187.47 804.528 1188.25 803.008L1188.25 803.007L1188.25 803.007L1188.25 803.007L1188.25 803.007L1188.25 803.007L1188.25 803.006L1188.25 803.006L1188.25 803.006L1188.25 803.006L1188.25 803.005C1189.02 801.479 1189.8 799.948 1190.77 798.52C1192.07 796.605 1193.46 794.722 1194.86 792.835C1197.13 789.765 1199.41 786.685 1201.3 783.44C1202.25 781.804 1203.18 780.006 1204.14 778.154C1207.57 771.529 1211.36 764.214 1217.78 761.15L1220.1 761.3C1221.85 763.693 1221.68 767.924 1221.53 771.613C1221.48 772.918 1221.43 774.156 1221.47 775.22L1222.7 795.66C1222.74 798.248 1222.65 800.842 1222.56 803.434C1222.45 806.733 1222.34 810.029 1222.49 813.31C1222.62 816.121 1223.11 818.816 1223.6 821.502C1224.29 825.285 1224.97 829.049 1224.65 833.09L1223.64 836.36C1219.3 838.027 1210.93 836.788 1205.03 835.913C1203.92 835.749 1202.89 835.597 1202 835.48C1203.02 848.99 1204.16 864.94 1201.94 878.31C1208.67 879.216 1215.06 879.234 1221.61 879.253C1223.89 879.26 1226.18 879.266 1228.52 879.31L1253.28 880.28L1278.32 879.64L1308.6 879.35C1310.52 879.307 1312.42 879.418 1314.31 879.528H1314.31H1314.31H1314.31H1314.31H1314.31H1314.31H1314.31H1314.31H1314.31H1314.31C1316.85 879.676 1319.38 879.824 1321.98 879.6L1323.79 877.76L1323.51 876.11L1322.9 872.75C1322.37 870.104 1322.77 868.046 1323.19 865.844C1323.41 864.685 1323.64 863.486 1323.75 862.14C1323.92 860.006 1323.89 857.885 1323.86 855.765V855.765V855.765V855.765V855.765V855.764V855.764V855.764V855.764V855.763V855.763C1323.83 852.998 1323.79 850.235 1324.19 847.45C1324.56 844.896 1323.75 842.5 1322.94 840.089C1322.5 838.799 1322.07 837.505 1321.81 836.18C1320.72 836.189 1319.62 836.205 1318.52 836.222C1313.06 836.305 1307.55 836.39 1302.15 835.44C1301.92 834.023 1301.65 832.586 1301.38 831.134L1301.38 831.134C1300.28 825.148 1299.13 818.936 1300.14 813.06C1300.67 809.926 1300.13 808.36 1299.21 805.696L1299.21 805.695L1299.2 805.687L1299.2 805.665C1299.08 805.329 1298.96 804.976 1298.83 804.6C1297.66 801.124 1298.19 797.032 1298.72 793.022C1299.06 790.409 1299.4 787.831 1299.26 785.48C1299 781.128 1298.26 776.697 1297.51 772.264V772.263V772.263V772.263V772.262V772.262V772.262V772.262V772.261V772.261V772.261L1297.51 772.26L1297.51 772.259L1297.51 772.259L1297.51 772.258L1297.51 772.257L1297.51 772.256L1297.51 772.256L1297.51 772.255L1297.51 772.254L1297.51 772.253C1296.91 768.693 1296.32 765.132 1295.97 761.61L1294.18 728.35C1294.04 726.52 1293.83 724.732 1293.62 722.962C1293.09 718.408 1292.58 713.972 1293.22 709.244C1293.6 706.512 1293.11 704.245 1292.63 701.987C1292.07 699.395 1291.52 696.815 1292.28 693.557C1293.28 689.269 1292.75 685.482 1292.16 681.249C1292.13 681.017 1292.09 680.784 1292.06 680.55C1302.16 679.976 1311.2 680.541 1321.23 681.251C1321.25 679.064 1321.37 676.77 1321.5 674.438V674.437V674.437V674.436V674.436V674.435V674.435V674.435V674.434L1321.5 674.428L1321.5 674.425C1321.82 668.531 1322.16 662.384 1320.8 657.051C1319.93 653.628 1320.44 649.352 1320.95 645.132C1321.29 642.309 1321.62 639.51 1321.54 637.008L1271.49 636.961C1267.9 636.816 1264.23 636.628 1260.52 636.438C1247.92 635.792 1234.86 635.122 1222.66 636.051C1220.42 636.222 1218.47 637.07 1216.76 638.527C1212.84 641.861 1210.21 646.51 1207.6 651.123C1205.79 654.317 1203.99 657.495 1201.78 660.206C1199.54 662.955 1198.12 666.023 1196.68 669.125C1195.85 670.923 1195.02 672.731 1194.01 674.496L1174.27 708.328C1173.25 710.254 1172.34 712.24 1171.43 714.227L1171.43 714.228L1171.43 714.228L1171.43 714.228L1171.43 714.229L1171.43 714.229L1171.43 714.229L1171.43 714.229L1171.43 714.23L1171.43 714.23L1171.43 714.23L1171.43 714.23C1170.3 716.695 1169.16 719.161 1167.83 721.512C1166.94 723.079 1166.05 724.385 1165.2 725.628C1163.41 728.262 1161.81 730.606 1160.86 734.52C1160.42 736.32 1144.79 760.1 1143.56 761.04C1140.22 761.36 1138.08 761.2 1135.42 758.94C1132.68 756.633 1130.94 752.813 1129.29 749.192C1128.53 747.508 1127.78 745.866 1126.96 744.44C1122.89 737.36 1118.14 729.49 1113.45 722.83C1110.49 718.628 1108.69 713.691 1107.13 708.836C1105.49 703.749 1101.72 698.815 1098.31 694.755C1095.42 691.298 1093.43 686.802 1091.49 682.397C1090.46 680.053 1089.43 677.736 1088.29 675.613C1084.69 668.898 1080.15 662.711 1075.62 656.548L1075.62 656.547C1073.96 654.281 1072.3 652.019 1070.69 649.734C1069.96 648.701 1069.25 647.572 1068.51 646.419C1066.71 643.568 1064.81 640.574 1062.41 638.549C1060.58 637.003 1058.53 636.235 1056.16 636.063ZM1153.75 785.721C1152.37 785.261 1151.21 785.211 1149.77 785.261L1143.4 788.391V789.151C1143.89 789.391 1144.46 789.716 1145.07 790.069C1147.19 791.275 1149.85 792.797 1151.51 792.271L1151.57 792.255L1151.57 792.254L1151.57 792.254L1151.57 792.254C1152.58 791.938 1152.92 791.832 1153.24 791.682C1153.4 791.606 1153.56 791.519 1153.79 791.388L1153.79 791.387C1154.05 791.245 1154.4 791.05 1154.94 790.761C1156.53 789.911 1157.04 789.691 1158.77 789.731L1165.86 790.051L1166.96 788.441C1166.71 788.246 1166.51 788.082 1166.35 787.944L1166.35 787.943L1166.34 787.942C1165.58 787.311 1165.48 787.228 1163.9 787.211C1160.11 787.161 1157.38 786.951 1153.75 785.721ZM1094.77 754.961C1096.5 755.75 1097.29 756.779 1098.38 758.211C1098.45 758.303 1098.52 758.396 1098.59 758.491L1097.24 760.451C1091.37 762.491 1085.79 763.961 1079.67 765.011C1079.35 764.903 1079.06 764.807 1078.79 764.719C1076.81 764.077 1076.07 763.838 1074.56 761.911C1076.15 760.144 1077.94 760.085 1080.07 760.016C1080.65 759.997 1081.25 759.977 1081.88 759.921C1086.53 759.521 1089.35 758.111 1093.31 755.811L1094.77 754.961ZM1088.07 721.386C1084.21 718.513 1075.05 718.997 1070.2 719.356C1069.36 719.431 1068.32 719.466 1067.19 719.505C1063.22 719.641 1058.11 719.815 1056.13 721.874C1057.9 723.881 1058.63 724.541 1061.38 724.701C1063.58 724.822 1065.72 724.721 1067.86 724.621C1070.69 724.488 1073.52 724.355 1076.51 724.731C1076.94 724.715 1077.37 724.703 1077.8 724.691C1080.94 724.603 1083.82 724.522 1086.77 723.131L1088.07 721.386ZM1239.78 724.961C1244.54 724.711 1249.11 724.711 1253.85 725.271L1254.15 725.305C1257.35 725.673 1262.03 726.21 1263.99 728.711C1262.11 730.118 1260.07 730.658 1257.88 731.234C1257.41 731.358 1256.94 731.484 1256.45 731.621C1256.01 731.639 1255.53 731.661 1255.03 731.683H1255.03C1248.29 731.984 1236.26 732.521 1231.46 729.201C1233.4 727.566 1235.78 726.599 1238.13 725.643C1238.69 725.418 1239.24 725.194 1239.78 724.961ZM1090.48 743.204C1085.52 742.689 1080.46 742.162 1075.6 742.451C1075.04 742.674 1074.48 742.904 1073.91 743.137L1073.91 743.137L1073.91 743.137L1073.91 743.137C1071.41 744.156 1068.83 745.207 1066.24 745.761C1065.48 745.923 1064.2 746.055 1062.78 746.201C1059.92 746.496 1056.5 746.849 1055.51 747.631C1055.19 747.885 1055.01 748.269 1054.83 748.652C1054.74 748.84 1054.65 749.029 1054.54 749.201C1056.22 751.741 1057.05 752.661 1059.91 754.031C1062.74 753.485 1064.77 751.975 1066.97 750.338C1067.27 750.117 1067.57 749.894 1067.87 749.671C1070.76 749.059 1073.66 748.576 1076.56 748.093L1076.56 748.093L1076.56 748.093L1076.56 748.093L1076.56 748.093L1076.57 748.093L1076.57 748.093C1082.86 747.045 1089.12 746.002 1095.11 743.661C1093.59 743.527 1092.04 743.366 1090.48 743.204L1090.48 743.204ZM1236.42 759.331C1241.9 758.431 1248.39 758.141 1253.75 759.831C1255.39 760.343 1256.6 760.948 1257.7 761.499C1259.84 762.575 1261.58 763.447 1265.32 763.031C1265.66 762.994 1265.97 762.955 1266.27 762.918L1266.27 762.918C1268.09 762.691 1269.37 762.531 1271.29 763.381L1270.51 764.351L1267.66 765.211C1263.25 766.481 1258.84 767.131 1254.24 766.961C1249.74 766.791 1236.28 764.361 1233.48 761.421L1236.42 759.331ZM1251.38 712.056C1248.71 710.184 1245.96 708.252 1243.76 708.06C1238.84 709.889 1235.13 711.546 1231.05 715.015C1230.14 715.051 1229.22 715.049 1228.31 715.047C1224.95 715.038 1221.67 715.029 1218.84 716.97L1219.36 718.633C1223.76 719.299 1227.57 719.321 1232 718.89C1238.69 717.007 1244.32 715.57 1251.31 715.69L1257.78 715.806L1256.25 715.115C1254.78 714.438 1253.1 713.259 1251.38 712.056ZM1069.35 704.629C1070.16 704.431 1071 704.558 1071.83 704.685L1071.83 704.685C1072.06 704.721 1072.3 704.757 1072.53 704.785L1072.98 707.714C1071.02 711.368 1068.55 710.493 1065.81 709.527C1064.27 708.983 1062.65 708.41 1060.99 708.602C1059.34 708.794 1057.73 709.735 1056.16 710.655L1056.16 710.655C1054.72 711.495 1053.32 712.317 1051.93 712.535C1050.63 712.741 1049.07 712.405 1047.52 712.069C1046.07 711.758 1044.62 711.446 1043.37 711.563C1042.48 711.646 1040.97 712.426 1039.7 713.084C1039.14 713.374 1038.62 713.641 1038.22 713.814C1037.81 714.228 1037.14 714.441 1036.53 714.638C1036.34 714.699 1036.16 714.758 1035.98 714.821C1035.68 714.523 1035.4 714.268 1035.16 714.04C1033.65 712.627 1033.29 712.284 1033.05 709.693C1037.25 705.547 1044.31 705.914 1050.71 706.247H1050.71H1050.71H1050.71C1053.03 706.367 1055.25 706.482 1057.22 706.379C1060.63 706.2 1064.08 705.578 1067.47 704.967L1067.47 704.966L1067.47 704.966C1068.1 704.853 1068.73 704.739 1069.35 704.629ZM1167.03 769.014L1167.03 769.014C1165.45 768.609 1163.93 768.219 1162.28 768.151C1160.29 768.341 1158.28 768.514 1156.28 768.688H1156.28C1146.88 769.503 1137.38 770.328 1128.34 772.891L1127.79 774.321L1128.97 774.581C1129.24 774.643 1129.51 774.702 1129.78 774.761L1129.78 774.762C1131.97 775.237 1133.87 775.653 1135.73 777.131C1138.86 776.619 1142.04 776.47 1145.19 776.322H1145.19C1148.39 776.173 1151.56 776.024 1154.64 775.501C1157.89 774.944 1161.25 773.422 1164.39 771.999L1164.39 771.998C1165.14 771.659 1165.87 771.325 1166.6 771.011L1167.85 769.221C1167.57 769.153 1167.3 769.083 1167.03 769.015L1167.03 769.014L1167.03 769.014ZM1233.97 740.571L1267.65 741.281C1268.19 741.294 1268.66 741.288 1269.07 741.282C1270.89 741.259 1271.66 741.249 1273.29 742.981C1271.23 745.381 1269.79 745.826 1267.26 746.608C1266.82 746.742 1266.36 746.886 1265.85 747.051C1255.52 748.121 1243.6 749.351 1233.27 747.851C1233.15 747.832 1233.02 747.813 1232.9 747.794C1232.82 747.782 1232.74 747.77 1232.67 747.759C1231.11 747.518 1229.79 747.313 1228.17 747.801L1226.9 748.251L1224.97 747.261L1225.43 745.431L1233.97 740.571ZM1037.3 721.18C1036.99 721.165 1036.66 721.149 1036.3 721.129C1035.58 721.282 1034.85 721.435 1034.11 721.588C1026.31 723.218 1018.12 724.93 1010.97 728.321C1012.71 728.362 1014.96 728.243 1017.45 728.112C1025.36 727.695 1035.7 727.15 1039.46 731.181C1040.65 732.468 1041.25 733.906 1041.9 735.467C1041.98 735.653 1042.05 735.841 1042.13 736.031C1045.31 738.261 1050.46 738.541 1054.28 738.311C1055.78 737.969 1057.33 737.641 1058.89 737.31C1064.4 736.137 1070.16 734.912 1075.17 732.831C1071.34 730.176 1065.66 731.064 1059.97 731.955C1052.99 733.047 1045.99 734.142 1042.33 728.711C1042.34 728.595 1042.35 728.479 1042.36 728.364C1042.51 726.482 1042.65 724.698 1043.09 722.851C1040.77 721.346 1039.64 721.292 1037.3 721.18Z" fill="white"/>
</g>
<defs>
<clipPath id="clip0_447_686">
<rect width="1792" height="1043" fill="white"/>
</clipPath>
</defs>
</svg>
