<svg width="1380" height="774" viewBox="0 0 1380 774" fill="none" xmlns="http://www.w3.org/2000/svg">
<g clip-path="url(#clip0_448_1296)">
<path d="M811.148 721.708L825.591 721.706L825.643 759.175C825.633 763.262 826.611 770.42 824.3 773.846L811.117 773.847L811.148 721.708Z" fill="white"/>
<path d="M459.411 721.713L473.467 721.708C474.492 724.865 473.81 730.125 473.801 733.517L473.695 761.349L497.873 761.334L497.894 773.826L459.376 773.852L459.411 721.713Z" fill="white"/>
<path d="M870.639 721.729L885.576 721.769L885.637 742.561L902.136 721.757L917.49 721.859L900.888 742.14C902.272 749.218 911.792 755.757 912.577 763.097C915.686 765.213 918.16 770.567 920.18 773.786L903.997 773.885L891.459 754.002C889.816 755.989 886.633 758.898 885.578 761.115C884.843 762.661 885.571 771.7 885.569 773.831L871.599 773.826L871.676 736.896C871.673 733.053 872.651 725.406 870.852 722.081L870.639 721.729Z" fill="white"/>
<path d="M538.423 721.71L579.247 721.772L579.254 734.658C574.789 734.659 555.399 733.433 552.706 735.575L552.659 740.304C553.059 740.687 553.38 741.174 553.857 741.452C554.908 742.064 575.934 741.502 578.686 741.508L578.581 754.249L556.736 754.133C555.169 754.113 554.188 754.297 552.73 754.882L552.609 760.253C553.025 760.604 553.373 761.057 553.857 761.305C555.281 762.035 576.691 761.348 579.668 761.354L579.563 773.833L538.408 773.864L538.423 721.71Z" fill="white"/>
<path d="M716.815 721.743L731.905 721.748C734.174 723.519 735.947 726.67 737.681 729.012C742.462 735.466 747.142 742.894 752.697 748.65L752.734 721.787L766.548 721.755L766.404 772.913L765.009 773.823L754.486 773.845C751.984 773.294 733.362 746.772 730.652 743.131L730.6 773.816L716.824 773.836L716.815 721.743Z" fill="white"/>
<path d="M622.784 721.782L638.123 721.806L658.492 749.352L658.537 721.737L672.377 721.751L672.103 773.297L670.646 773.817L659.203 773.818L636.573 743.504L636.489 773.813L622.713 773.826L622.784 721.782Z" fill="white"/>
<path d="M1099.07 464.088L1115.33 463.619L1115.35 493.006L1114.1 492.996C1098.07 492.975 1083.68 496.768 1072.15 508.43C1065.55 515.108 1060.68 523.589 1058.44 532.727C1055.43 545.036 1056.8 559.317 1056.81 571.951L1056.87 627.053L1042.61 627.039L1027.44 627.083L1027.42 569.482C1027.43 556.382 1026.38 542.587 1028.87 529.715C1031 518.707 1035.4 508.427 1041.71 499.173C1055.66 478.729 1075.26 468.551 1099.07 464.088Z" fill="white"/>
<path d="M686.01 462.497C687.892 462.499 688.637 462.304 690.26 463.322L690.337 492.027C673.823 491.966 659.395 495.156 647.365 507.192C640.934 513.627 635.854 522.023 633.568 530.867C630.535 542.6 632.018 557.174 632.015 569.288L632.045 625.89L606.628 625.899L602.982 625.632C602.539 625.028 602.343 624.613 602.319 623.853L602.283 576.537C602.293 561.803 601.164 545.963 603.416 531.4C605.789 516.056 612.908 501.001 623.468 489.585C640.774 470.878 660.943 463.442 686.01 462.497Z" fill="white"/>
<path d="M1124.83 402.351L1155.7 402.343L1155.66 463.643L1205.51 463.635L1205.48 492.872L1155.66 492.834L1155.64 529.45C1155.65 541.041 1154.72 553.05 1159 564.073C1165.37 580.44 1177.14 588.757 1192.62 595.523C1199.4 597.049 1205.71 597.366 1212.64 597.37L1212.68 627.017C1203.7 627.235 1195.3 626.285 1186.58 624.163C1155.77 616.663 1131.65 588.674 1126.99 557.635C1125.95 550.634 1126.25 543.419 1126.24 536.356V504.881L1126.3 429.532L1126.25 412.47C1126.24 408.939 1126.74 405.485 1124.83 402.351Z" fill="white"/>
<path d="M1238.87 463.612L1278.65 463.631C1297.36 463.63 1314.71 462.946 1332.2 470.972C1350.99 479.599 1367.25 496.24 1374.4 515.783C1381.95 536.438 1381.85 559.195 1372.52 579.299C1363.3 599.152 1346.52 614.724 1325.88 622.146C1307.17 628.874 1286.75 628.527 1268.25 621.244C1262.51 618.982 1257.39 615.807 1251.83 613.189C1250.46 610.449 1244.46 606.843 1242.01 604.511C1237.88 600.574 1234.35 596.132 1230.84 591.649L1255.23 574.938L1259.17 579.912C1268.63 590.111 1281.22 596.869 1295.34 597.383C1310.3 597.928 1323.91 592.966 1334.73 582.577C1344.82 572.883 1350.41 559.054 1350.48 545.109C1350.54 531.575 1344.96 518.195 1335.4 508.635C1328.72 501.961 1320.56 497.239 1311.42 494.8C1301.37 492.118 1290.41 492.929 1280.09 492.952L1240.06 493.04L1240.13 473.954C1240.12 470.36 1240.52 466.907 1238.87 463.612Z" fill="white"/>
<path fill-rule="evenodd" clip-rule="evenodd" d="M343.06 462.863L335.368 463.207C312.096 466.404 292.47 476.827 278.196 495.772C265.709 512.347 259.792 534.621 262.734 555.201C265.929 577.546 277.473 596.901 295.563 610.362C312.521 622.981 334.32 628.356 355.218 625.328C376.161 622.292 396.026 611.022 408.704 593.928L416.506 582.101L390.485 569.243L389.597 569.639C380.653 583.483 369.907 592.246 353.52 595.796C340.572 598.601 325.791 595.194 314.888 587.936C303.627 580.439 297.114 569.83 292.904 557.17L423.495 557.151C423.506 554.167 423.624 551.008 423.745 547.785C424.03 540.193 424.328 532.242 423.268 525.368C421.234 512.181 411.308 496.6 402.024 487.284C386.093 471.3 365.611 462.812 343.06 462.863ZM362.408 495.688C355.584 493.054 347.42 491.798 340.123 492.35C325.296 494.215 312.19 500.082 302.867 512.069C299.257 516.711 296.726 521.761 294.347 527.111L348.53 526.92L393.014 526.917C386.668 512.526 377.385 501.469 362.408 495.688Z" fill="white"/>
<path fill-rule="evenodd" clip-rule="evenodd" d="M514.279 462.877C511.32 462.818 508.233 462.756 505.413 463.217C482.174 466.352 462.843 476.876 448.517 495.644C435.001 513.351 430.164 535.457 433.176 557.385C435.903 577.23 448.114 597.109 464.012 609.151C481.81 622.632 503.908 628.521 526.045 625.298C547.239 622.213 566.871 610.258 579.557 593.031L586.571 582.003L560.352 569.18L559.527 569.968C550.703 583.703 540.078 592.108 523.96 595.7C510.758 598.642 496.215 595.241 485.029 587.932C473.464 580.376 467.632 569.896 463.036 557.187L593.76 557.108C593.782 554.262 593.903 551.242 594.027 548.155C594.331 540.595 594.652 532.629 593.568 525.815C591.364 511.964 581.6 496.887 571.907 487.005C557.704 472.525 537.098 463.042 516.693 462.915C515.904 462.91 515.096 462.894 514.279 462.877ZM532.693 495.769C525.855 493.122 517.779 491.726 510.437 492.361C494.993 494.223 482.38 500.25 472.62 512.608C469.222 516.911 466.691 521.829 464.797 526.961L518.165 526.918L563.207 526.922C556.908 512.618 547.555 501.521 532.693 495.769Z" fill="white"/>
<path fill-rule="evenodd" clip-rule="evenodd" d="M938.93 462.91L926.15 463.32C902.081 467.875 882.686 478.689 868.742 499.249C857.267 516.168 852.316 538.822 856.24 558.95C860.519 580.897 873.044 600.224 891.725 612.624C910.431 625.039 932.76 628.743 954.62 624.213C974.27 620.143 993.57 606.96 1004.49 590.14L1009.41 582.05C1008.4 581.546 1006.65 580.611 1004.51 579.469C997.222 575.58 985.438 569.29 982.98 569.418L981.03 570.732C980.8 574.705 974.43 580.871 971.51 583.429C960.22 593.324 946.42 597.471 931.51 596.418C918.22 595.48 905.344 588.068 896.874 578.042C891.553 571.743 888.619 564.903 886.029 557.18L1016.62 557.11C1016.64 554.252 1016.75 551.232 1016.86 548.148C1017.15 540.448 1017.44 532.347 1016.33 525.362C1014.18 511.95 1004.23 496.674 994.82 487.123C980.21 472.288 959.86 463.022 938.93 462.91ZM953.73 495.11C946.36 492.597 938.78 491.942 931.04 492.477C915.36 495.334 902.84 501.848 893.642 515.111C891.04 518.864 889.212 522.819 887.555 527.049L938.99 526.918L986.19 526.87C978.91 512.023 969.93 500.636 953.73 495.11Z" fill="white"/>
<path d="M115.296 424.123C119.734 423.474 124.874 423.71 129.356 423.873C165.184 425.177 194.755 441.9 218.791 467.711L196.342 486.707C182.973 472.556 168.496 462.038 149.513 456.667C125.938 449.998 99.8898 453.109 78.5138 465.026C56.4448 477.33 40.0688 497.85 33.2178 522.209C26.5388 545.952 29.5688 572.223 41.7118 593.722C53.9548 615.397 74.7278 632.091 98.8448 638.625C122.938 645.152 149.213 642.088 170.905 629.629C194.912 615.84 209.308 594.386 216.4 568.015L216.704 556.086L245.982 556.1L245.99 668.423L216.687 668.417L216.692 629.952C194.632 652.691 167.559 668.343 135.505 671.258C103.512 674.166 70.1498 663.725 45.4468 643.253C19.4838 621.739 3.76121 591.369 0.743812 557.86C-2.12539 525.998 8.24401 493.181 28.7738 468.668C50.9148 442.233 81.1368 427.19 115.296 424.123Z" fill="white"/>
<path fill-rule="evenodd" clip-rule="evenodd" d="M762.285 462.109C759.97 462.078 757.572 462.045 755.366 462.44C733.358 465.257 713.534 475.447 699.778 493.134C685.667 511.277 680.203 532.88 683.137 555.627C685.834 576.538 698.024 596.087 714.653 608.819C731.868 622 754.076 627.545 775.512 624.561L789.615 621.258C800.245 617.233 809.038 612.331 817.806 605.044L817.802 625.384L845.641 625.423L845.632 571.217C845.629 567.907 845.689 564.541 845.749 561.151C845.918 551.672 846.09 542.003 844.909 532.827C842.604 514.925 834.054 498.35 821.33 485.641C806.262 470.59 785.628 462.043 764.351 462.125C763.674 462.128 762.983 462.118 762.285 462.109ZM793.638 500.643C783.77 493.869 771.833 490.764 759.936 491.598C745.213 493.407 732.272 499.439 722.977 511.276C713.944 522.779 710.346 537.048 712.276 551.51C714.02 564.576 721.829 577.402 732.349 585.275C743.512 593.629 755.757 596.439 769.45 595.613C784.776 593.02 797.352 586.613 806.505 573.798C815.146 561.697 817.712 547.379 815.118 532.918C812.868 520.382 804.115 507.835 793.638 500.643Z" fill="white"/>
<path fill-rule="evenodd" clip-rule="evenodd" d="M967.58 29.5635C866.069 6.01789 762.734 -0.996608 658.789 0.110692L553.313 6.47689C441.114 17.8942 265.133 50.8039 185.649 136.195C169.38 153.672 156.484 177.751 157.145 202.2C157.954 232.129 174.919 257.271 196.232 277.057C220.293 299.394 249.974 316.137 279.717 329.687C322.236 349.058 367.489 362.606 412.962 373.043C461.82 384.256 511.607 391.911 561.522 396.504C614.094 401.341 666.694 402.73 719.462 401.999C798.986 400.017 877.777 392.359 955.6 375.425C1005.42 364.584 1054.8 350.081 1101.22 328.775C1133.23 314.08 1166.01 295.365 1190.48 269.567C1209.35 249.666 1222.61 226.004 1221.7 197.951C1220.73 167.788 1201.86 143.006 1180.58 123.318C1156.61 101.138 1126.21 84.8451 1096.62 71.5046C1055.32 52.8878 1011.65 39.784 967.58 29.5635ZM671.445 19.9306L667.063 20.1275C597.167 21.6099 527.802 27.2462 458.938 39.5506C407.718 48.7024 356.653 61.4438 308.208 80.6197C270.764 95.4408 232.451 114.634 204.286 143.966C187.896 161.036 177.882 180.58 178.349 204.613C178.786 227.068 192.844 248.098 208.628 263.133C237.611 290.741 274.921 308.91 311.946 323.17C398.39 356.466 493.371 371.445 585.429 378.234L712.913 381.68C774.087 380.712 835.066 375.962 895.546 366.674C955.75 357.429 1015.35 343.719 1072.18 321.515C1108.43 307.347 1146.59 288.395 1174.07 260.24C1190.23 243.677 1202.04 223.455 1201.62 199.775C1201.19 175.08 1186.81 154.543 1169.61 138.066C1142.82 112.407 1107.69 95.0018 1073.5 81.3365C999.38 51.7142 919.24 36.7009 840.164 28.0164C784.409 21.8928 727.546 18.65 671.445 19.9306Z" fill="white"/>
<path d="M645.528 136.247L649.421 136.357C651.407 138.835 651.587 139.711 651.426 142.927C651.139 148.656 646.021 153.293 642.029 156.766L639.442 157.803L638.149 157.043C637.286 153.705 637.009 150.113 637.723 146.715C638.888 141.174 640.884 139.204 645.528 136.247Z" fill="white"/>
<path fill-rule="evenodd" clip-rule="evenodd" d="M661.457 35.3906L666.77 35.2237C708.173 34.3235 749.742 35.944 791.039 38.7804C881.862 45.0185 975.57 59.0413 1061.08 91.3319C1095.21 104.218 1131.13 120.939 1157.78 146.466C1172.74 160.795 1185.1 178.861 1185.45 200.31C1185.76 220.259 1175.47 238.112 1161.89 251.972C1133.14 281.297 1093.8 299.493 1055.72 313.477C988.55 338.136 916.77 351.335 845.852 359.199C804.326 363.804 762.404 366.817 720.614 367.26C637.862 368.712 555.129 364.348 473.375 350.993C422.236 342.639 371.383 331.003 322.697 313.069C287.984 300.282 251.49 283.699 224.127 258.254C209.171 244.346 195.18 225.884 194.564 204.613C193.96 183.756 202.636 166.67 216.687 151.742C237.931 129.172 266.515 113.545 294.601 101.114C374.206 65.8798 464.499 50.3481 550.61 41.7554L661.457 35.3906ZM569.571 67.6133C590.418 66.7791 610.911 70.1088 631.373 73.4334C636.452 74.2586 641.529 75.0835 646.609 75.8444C681.182 81.0226 715.751 85.8218 750.746 86.9007C767.931 87.4307 785.185 87.2857 802.32 85.7852C808.012 85.2868 813.704 84.4653 819.301 83.3108C820.321 83.1003 821.357 82.8622 822.402 82.6216C827.503 81.4482 832.851 80.2179 837.861 81.8743C837.947 81.9551 838.031 82.0331 838.111 82.1086L838.127 82.1234C839.629 83.5272 840.223 84.0822 840.164 86.4547C840.065 90.4227 836.218 94.0877 833.419 96.4347C826.482 102.251 817.978 106.522 809.642 109.929C768.519 126.735 724.637 115.183 684.09 102.311L659.98 94.3237C659.128 94.0452 658.249 93.7426 657.351 93.4339L657.35 93.4335C653.771 92.2019 649.905 90.8717 646.351 90.5807C646.685 92.3517 646.407 93.7697 645.322 95.2327C642.028 99.6759 637.043 103.575 632.167 107.39C629.284 109.646 626.438 111.872 624.003 114.163C608.802 128.465 596.274 145.561 585.717 163.5C596.222 163.306 606.554 162.014 616.955 160.608C618.006 160.466 619.116 160.35 620.251 160.233L620.251 160.233C623.542 159.891 627.037 159.528 629.857 158.431L628.752 152.51C628.036 146.948 630.366 139.398 633.779 135.012C636.48 131.541 639.704 129.035 644.15 128.516C648.207 128.043 651.839 128.491 655.105 131.111C657.903 133.356 659.12 135.81 659.433 139.372C660.103 147.009 654.256 156.149 648.288 160.495C647.365 161.167 646.319 161.776 645.262 162.39C643.334 163.512 641.369 164.654 640.042 166.25C641.276 169.704 643.415 170.568 645.833 171.545C646.988 172.012 648.207 172.504 649.421 173.317C649.174 175.022 648.676 176.27 647.886 177.796C646.623 177.873 645.296 177.933 644.048 177.688C638.65 176.633 635.348 172.349 632.411 168.106L592.703 173.351C591.388 173.507 589.836 173.588 588.218 173.674C584.992 173.843 581.501 174.027 579.084 174.842C577.798 175.275 567.791 191.588 562.236 200.645L562.232 200.652C560.638 203.25 559.411 205.25 558.862 206.106C558.043 207.381 557.221 208.665 556.394 209.955L556.385 209.969L556.385 209.97C539.935 235.642 521.857 263.854 499.17 284.011C482.37 298.937 463.883 304.723 441.443 303.357C427.152 302.487 412.501 295.847 403.028 285.015C392.81 273.331 389.324 258.646 390.305 243.429C391.083 231.367 398.257 220.977 405.805 212.047L410.106 208.218C417.56 201.953 431.342 193.06 441.407 193.897C441.534 194.005 441.654 194.105 441.767 194.2C441.855 194.273 441.939 194.342 442.019 194.409C443.28 195.455 443.619 195.735 443.928 197.708C442.346 200.007 440.114 201.208 437.823 202.441C436.621 203.088 435.403 203.743 434.253 204.571C430.274 207.436 426.55 211.474 423.635 215.403C417.183 224.1 412.763 234.212 414.502 245.237C415.766 253.244 420.048 261.219 426.749 265.943C434.971 271.74 445.801 271.177 455.273 269.484C466.876 267.41 477.685 261.122 487.087 254.235C514.807 233.934 537.494 204.113 557.067 176.108C554.919 176.411 552.722 176.685 550.5 176.962L550.499 176.962C541.412 178.095 531.907 179.28 523.65 182.744C521.829 183.507 520.269 184.565 518.697 185.631L518.697 185.631C517.783 186.251 516.865 186.874 515.889 187.443C513.824 188.647 513.699 188.695 511.484 188.117C511.342 187.897 511.208 187.702 511.084 187.522C510.423 186.563 510.058 186.033 510.431 184.595C511.763 179.459 519.362 175.678 523.743 173.768C532.263 170.054 542.091 168.181 551.25 166.804C552.027 166.687 553.387 166.594 554.944 166.488C558.386 166.252 562.787 165.952 563.968 165.183C564.553 164.802 565.353 163.444 566.013 162.324C566.3 161.837 566.56 161.396 566.764 161.1L576.536 147.505C593.849 124.858 615.502 101.851 641.011 88.5907C635.796 87.5936 630.662 86.5444 625.58 85.5056L625.579 85.5055C599.186 80.111 574.174 74.9989 546.237 78.9434C524.085 82.0709 498.797 89.3087 484.862 108.154C479.542 115.349 476.101 124.868 477.549 133.872C478.28 138.415 480.274 141.886 484.107 144.562C488.616 147.709 495.351 147.818 500.62 146.711C514.277 143.842 528.487 133.443 535.942 121.892C535.988 121.821 536.033 121.751 536.077 121.683L536.139 121.587C537.502 119.466 538.195 118.389 540.809 117.844C541.017 118.015 541.208 118.167 541.383 118.305C542.459 119.159 542.933 119.534 543.1 121.275C543.977 130.431 532.828 145.8 527.051 152.428C517.084 163.863 503.279 171.778 487.957 172.645C479.288 173.136 471.516 171.08 464.962 165.224C457.827 158.848 452.726 149.571 452.289 139.893C451.597 124.548 456.643 111.473 467.113 100.234C492.298 73.1972 534.85 68.8494 569.571 67.6133ZM989.88 138.362L961.87 138.318C960.592 143.631 956.671 149.584 953.121 154.972C951.755 157.046 950.444 159.037 949.36 160.875L918.55 212.882C913.649 203.379 908.947 194.475 897.965 191.045C886.863 187.578 871.445 191.174 861.504 196.521C850.455 202.463 841.519 211.816 832.785 220.959C830.293 223.568 827.817 226.16 825.313 228.651C814.532 239.374 805.146 248.155 789.027 248.61C788.715 248.619 788.4 248.629 788.083 248.639C785.304 248.728 782.321 248.823 779.683 248.066C775.478 246.859 771.615 243.49 769.617 239.615C767.057 234.649 767.614 228.455 769.292 223.281C770.471 219.647 772.913 215.802 776.521 214.157L778.443 213.437C779.455 214.617 780.231 215.935 781.009 217.256C781.548 218.17 782.087 219.085 782.706 219.958C785.909 224.475 790.849 226.147 796.163 226.645C800.451 227.047 805.375 225.445 808.626 222.635C813.012 218.845 815.815 213.229 816.123 207.427C816.365 202.884 814.599 198.533 811.565 195.221C807.859 191.175 802.857 189.46 797.487 189.276C786.783 188.909 778.779 192.947 771.085 200.22L762.19 209.251C761.367 202.493 760.6 196.221 754.81 191.733C749.21 187.391 740.585 186.831 733.778 187.902C719.081 190.215 700.016 213.81 688.608 227.929C687.169 229.709 685.853 231.339 684.682 232.756C684.895 219.22 684.799 204.302 674.694 193.809C673.631 192.706 672.784 192.121 671.208 192.092C668.603 192.044 666.755 192.426 664.772 194.227C662.975 195.859 662.276 198.066 661.947 200.393C662.527 202.579 663.783 204.574 665.055 206.593C666.163 208.353 667.283 210.131 667.977 212.07C671.781 222.702 668.955 242.493 663.233 252.236C655.355 265.652 643.482 280.193 627.729 284.031C621.456 285.559 614.074 285.737 608.419 282.148C603.519 279.039 600.124 273.614 599.044 267.964C596.532 254.82 602.922 238.462 610.447 227.738C615.68 220.281 623.402 213.179 631.349 208.71C635.502 206.375 639.934 204.502 644.487 203.109C644.986 202.956 646.043 202.717 647.257 202.443C649.717 201.887 652.825 201.184 653.259 200.756C653.533 200.485 653.695 200.127 653.858 199.769C653.939 199.59 654.02 199.41 654.116 199.242C653.284 196.462 651.713 192.82 648.873 191.551C642.309 188.62 627.684 193.754 621.579 196.678C600.627 206.713 590.416 226.962 580.444 246.737L580.331 246.962C579.661 248.289 579.002 249.68 578.333 251.09C576.465 255.03 574.521 259.129 572.068 262.461C567.444 268.74 561.219 273.381 555.035 277.993C553.277 279.304 551.522 280.613 549.808 281.956C551.394 284.98 552.927 287.799 555.089 290.452L564.508 285.745C569.65 282.416 574.364 279.091 578.659 274.671C582.057 285.571 586.708 293.425 597.226 298.893C607.348 304.155 620.402 304.551 631.126 300.972C642.927 297.032 654.14 288.878 662.733 280.03C666.677 275.968 672.214 268.442 678.626 259.727C695.328 237.026 717.965 206.257 733.854 207.632C735.893 208.711 736.961 209.55 738.183 211.518C740.199 222.427 725.766 245.469 716.947 259.55C715.233 262.286 713.731 264.684 712.603 266.589L692.129 301.475L721.302 301.506L755.143 239.279C758.295 247.629 761.766 256.094 770.583 259.905C781.997 264.838 800.503 262.769 811.694 258.078L812.778 257.607C811.547 270.223 812.142 281.572 820.711 291.814C825.688 297.762 833.057 300.568 840.636 301.11C856.197 302.221 875.319 296.165 888.181 287.546L888.25 287.745C890.188 293.319 891.753 297.819 897.52 300.53C904.386 303.758 914.59 302.18 921.4 299.586C938.76 292.97 952.9 278.591 964.53 264.571C964.999 264.005 965.48 263.432 965.966 262.853C969.137 259.078 972.543 255.021 974.59 250.649C974.99 249.797 975.21 248.89 975.34 247.963C974.34 246.235 973.98 246.011 972.22 245.017C968.864 245.413 962.652 252.267 958.174 257.207C956.674 258.862 955.368 260.303 954.43 261.214C948.64 266.847 922.07 291.566 913.468 283.737C912.531 282.885 911.828 281.181 911.819 279.924C911.778 274.379 956.91 195.823 978.98 157.408C984.213 148.3 988.149 141.449 989.88 138.362Z" fill="white"/>
<path d="M883.184 206.528C886.749 205.917 891.35 205.754 894.777 206.962C898.401 208.238 901.427 210.776 902.977 214.351C906.238 221.875 902.107 227.48 900.507 234.284C900.041 236.268 902.06 235.726 902.959 237.605L901.953 239.257C892.507 254.611 876.602 277.698 857.969 282.156L857.575 282.398C853.982 283.872 848.092 283.333 844.606 281.724C841.53 280.304 839.927 278.104 838.819 274.969C835.028 264.241 839.153 252.545 843.767 242.747C851.491 226.34 866.143 212.66 883.184 206.528Z" fill="white"/>
<path d="M317.261 658.455C317.261 661.627 316.66 664.326 315.457 666.551C314.264 668.777 312.635 670.476 310.571 671.651C308.516 672.815 306.205 673.398 303.639 673.398C301.054 673.398 298.734 672.811 296.679 671.636C294.624 670.462 293 668.762 291.807 666.537C290.614 664.312 290.017 661.617 290.017 658.455C290.017 655.282 290.614 652.583 291.807 650.358C293 648.133 294.624 646.437 296.679 645.273C298.734 644.098 301.054 643.511 303.639 643.511C306.205 643.511 308.516 644.098 310.571 645.273C312.635 646.437 314.264 648.133 315.457 650.358C316.66 652.583 317.261 655.282 317.261 658.455ZM311.026 658.455C311.026 656.4 310.718 654.667 310.102 653.256C309.496 651.845 308.639 650.775 307.531 650.045C306.423 649.316 305.126 648.952 303.639 648.952C302.152 648.952 300.855 649.316 299.747 650.045C298.639 650.775 297.777 651.845 297.162 653.256C296.556 654.667 296.253 656.4 296.253 658.455C296.253 660.509 296.556 662.242 297.162 663.653C297.777 665.064 298.639 666.134 299.747 666.864C300.855 667.593 302.152 667.957 303.639 667.957C305.126 667.957 306.423 667.593 307.531 666.864C308.639 666.134 309.496 665.064 310.102 663.653C310.718 662.242 311.026 660.509 311.026 658.455ZM335.355 660.386V673H329.304V651.182H335.071V655.031H335.327C335.81 653.762 336.619 652.759 337.756 652.02C338.892 651.272 340.27 650.898 341.889 650.898C343.404 650.898 344.725 651.229 345.852 651.892C346.979 652.555 347.855 653.502 348.48 654.733C349.105 655.955 349.417 657.413 349.417 659.108V673H343.366V660.188C343.376 658.852 343.035 657.811 342.344 657.062C341.652 656.305 340.701 655.926 339.488 655.926C338.674 655.926 337.954 656.101 337.329 656.452C336.714 656.802 336.231 657.313 335.881 657.986C335.54 658.649 335.364 659.449 335.355 660.386ZM361.673 673V669.392L372.355 656.168V656.011H362.042V651.182H379.642V655.116L369.613 668.014V668.17H380.011V673H361.673ZM401.556 673.426C399.312 673.426 397.38 672.972 395.761 672.062C394.151 671.144 392.911 669.847 392.039 668.17C391.168 666.485 390.733 664.491 390.733 662.19C390.733 659.946 391.168 657.976 392.039 656.281C392.911 654.586 394.137 653.265 395.718 652.318C397.309 651.371 399.175 650.898 401.315 650.898C402.754 650.898 404.094 651.13 405.335 651.594C406.585 652.048 407.674 652.735 408.602 653.653C409.539 654.572 410.269 655.727 410.789 657.119C411.31 658.502 411.571 660.121 411.571 661.977V663.639H393.147V659.889H405.875C405.875 659.018 405.685 658.246 405.306 657.574C404.928 656.902 404.402 656.376 403.73 655.997C403.067 655.609 402.295 655.415 401.414 655.415C400.496 655.415 399.681 655.628 398.971 656.054C398.27 656.471 397.721 657.034 397.323 657.744C396.926 658.445 396.722 659.226 396.713 660.088V663.653C396.713 664.733 396.912 665.666 397.309 666.452C397.716 667.238 398.289 667.844 399.028 668.27C399.767 668.696 400.643 668.909 401.656 668.909C402.328 668.909 402.944 668.814 403.502 668.625C404.061 668.436 404.539 668.152 404.937 667.773C405.335 667.394 405.638 666.93 405.846 666.381L411.443 666.75C411.159 668.095 410.576 669.269 409.696 670.273C408.824 671.267 407.697 672.044 406.315 672.602C404.942 673.152 403.356 673.426 401.556 673.426ZM458.131 657.403L452.591 657.744C452.496 657.271 452.293 656.845 451.98 656.466C451.668 656.078 451.256 655.77 450.744 655.543C450.242 655.306 449.641 655.188 448.94 655.188C448.003 655.188 447.212 655.386 446.568 655.784C445.924 656.172 445.602 656.693 445.602 657.347C445.602 657.867 445.811 658.308 446.227 658.668C446.644 659.027 447.359 659.316 448.372 659.534L452.321 660.33C454.442 660.765 456.024 661.466 457.065 662.432C458.107 663.398 458.628 664.667 458.628 666.239C458.628 667.669 458.206 668.923 457.364 670.003C456.53 671.082 455.384 671.925 453.926 672.531C452.477 673.128 450.806 673.426 448.912 673.426C446.024 673.426 443.723 672.825 442.009 671.622C440.304 670.41 439.305 668.762 439.011 666.679L444.963 666.366C445.143 667.247 445.579 667.92 446.27 668.384C446.961 668.838 447.847 669.065 448.926 669.065C449.987 669.065 450.839 668.862 451.483 668.455C452.136 668.038 452.468 667.503 452.477 666.849C452.468 666.3 452.236 665.85 451.781 665.5C451.327 665.14 450.626 664.866 449.679 664.676L445.901 663.923C443.77 663.497 442.184 662.759 441.142 661.707C440.11 660.656 439.594 659.316 439.594 657.688C439.594 656.286 439.973 655.079 440.73 654.065C441.497 653.052 442.572 652.271 443.955 651.722C445.347 651.172 446.975 650.898 448.841 650.898C451.597 650.898 453.765 651.48 455.347 652.645C456.938 653.81 457.866 655.396 458.131 657.403ZM479.981 673.426C477.737 673.426 475.805 672.972 474.186 672.062C472.576 671.144 471.336 669.847 470.464 668.17C469.593 666.485 469.158 664.491 469.158 662.19C469.158 659.946 469.593 657.976 470.464 656.281C471.336 654.586 472.562 653.265 474.143 652.318C475.734 651.371 477.6 650.898 479.74 650.898C481.179 650.898 482.519 651.13 483.76 651.594C485.01 652.048 486.099 652.735 487.027 653.653C487.964 654.572 488.694 655.727 489.214 657.119C489.735 658.502 489.996 660.121 489.996 661.977V663.639H471.572V659.889H484.3C484.3 659.018 484.11 658.246 483.731 657.574C483.353 656.902 482.827 656.376 482.155 655.997C481.492 655.609 480.72 655.415 479.839 655.415C478.921 655.415 478.106 655.628 477.396 656.054C476.695 656.471 476.146 657.034 475.748 657.744C475.351 658.445 475.147 659.226 475.138 660.088V663.653C475.138 664.733 475.337 665.666 475.734 666.452C476.141 667.238 476.714 667.844 477.453 668.27C478.192 668.696 479.068 668.909 480.081 668.909C480.753 668.909 481.369 668.814 481.927 668.625C482.486 668.436 482.964 668.152 483.362 667.773C483.76 667.394 484.063 666.93 484.271 666.381L489.868 666.75C489.584 668.095 489.001 669.269 488.121 670.273C487.249 671.267 486.122 672.044 484.74 672.602C483.367 673.152 481.781 673.426 479.981 673.426ZM501.544 673V651.182H507.411V654.989H507.638C508.036 653.634 508.704 652.612 509.641 651.92C510.579 651.22 511.658 650.869 512.88 650.869C513.183 650.869 513.509 650.888 513.86 650.926C514.21 650.964 514.518 651.016 514.783 651.082V656.452C514.499 656.366 514.106 656.291 513.604 656.224C513.102 656.158 512.643 656.125 512.226 656.125C511.336 656.125 510.541 656.319 509.84 656.707C509.149 657.086 508.599 657.616 508.192 658.298C507.794 658.98 507.596 659.766 507.596 660.656V673H501.544ZM546.517 651.182L538.889 673H532.071L524.443 651.182H530.835L535.366 666.793H535.593L540.11 651.182H546.517ZM557.213 673V651.182H563.264V673H557.213ZM560.253 648.369C559.353 648.369 558.582 648.071 557.938 647.474C557.303 646.868 556.986 646.144 556.986 645.301C556.986 644.468 557.303 643.753 557.938 643.156C558.582 642.55 559.353 642.247 560.253 642.247C561.153 642.247 561.92 642.55 562.554 643.156C563.198 643.753 563.52 644.468 563.52 645.301C563.52 646.144 563.198 646.868 562.554 647.474C561.92 648.071 561.153 648.369 560.253 648.369ZM585.57 673.426C583.335 673.426 581.412 672.953 579.803 672.006C578.202 671.049 576.971 669.723 576.109 668.028C575.257 666.333 574.831 664.383 574.831 662.176C574.831 659.941 575.262 657.981 576.124 656.295C576.995 654.6 578.231 653.279 579.831 652.332C581.431 651.376 583.335 650.898 585.541 650.898C587.445 650.898 589.111 651.243 590.541 651.935C591.971 652.626 593.103 653.597 593.936 654.847C594.769 656.097 595.229 657.564 595.314 659.25H589.604C589.443 658.161 589.017 657.285 588.325 656.622C587.643 655.95 586.749 655.614 585.641 655.614C584.703 655.614 583.884 655.869 583.183 656.381C582.492 656.883 581.952 657.616 581.564 658.582C581.176 659.548 580.982 660.718 580.982 662.091C580.982 663.483 581.171 664.667 581.55 665.642C581.938 666.617 582.482 667.361 583.183 667.872C583.884 668.384 584.703 668.639 585.641 668.639C586.332 668.639 586.952 668.497 587.501 668.213C588.06 667.929 588.519 667.517 588.879 666.977C589.249 666.428 589.49 665.77 589.604 665.003H595.314C595.219 666.67 594.765 668.137 593.95 669.406C593.145 670.666 592.033 671.651 590.612 672.361C589.192 673.071 587.511 673.426 585.57 673.426ZM616.731 673.426C614.487 673.426 612.555 672.972 610.936 672.062C609.326 671.144 608.086 669.847 607.214 668.17C606.343 666.485 605.908 664.491 605.908 662.19C605.908 659.946 606.343 657.976 607.214 656.281C608.086 654.586 609.312 653.265 610.893 652.318C612.484 651.371 614.35 650.898 616.49 650.898C617.929 650.898 619.269 651.13 620.51 651.594C621.76 652.048 622.849 652.735 623.777 653.653C624.714 654.572 625.444 655.727 625.964 657.119C626.485 658.502 626.746 660.121 626.746 661.977V663.639H608.322V659.889H621.05C621.05 659.018 620.86 658.246 620.481 657.574C620.103 656.902 619.577 656.376 618.905 655.997C618.242 655.609 617.47 655.415 616.589 655.415C615.671 655.415 614.856 655.628 614.146 656.054C613.445 656.471 612.896 657.034 612.498 657.744C612.101 658.445 611.897 659.226 611.888 660.088V663.653C611.888 664.733 612.087 665.666 612.484 666.452C612.891 667.238 613.464 667.844 614.203 668.27C614.942 668.696 615.818 668.909 616.831 668.909C617.503 668.909 618.119 668.814 618.677 668.625C619.236 668.436 619.714 668.152 620.112 667.773C620.51 667.394 620.813 666.93 621.021 666.381L626.618 666.75C626.334 668.095 625.751 669.269 624.871 670.273C623.999 671.267 622.872 672.044 621.49 672.602C620.117 673.152 618.531 673.426 616.731 673.426Z" fill="white"/>
<path d="M892.415 673V651.182H898.182V655.031H898.438C898.892 653.753 899.65 652.744 900.71 652.006C901.771 651.267 903.04 650.898 904.517 650.898C906.013 650.898 907.287 651.272 908.338 652.02C909.389 652.759 910.09 653.762 910.44 655.031H910.668C911.113 653.781 911.918 652.782 913.082 652.034C914.257 651.277 915.644 650.898 917.244 650.898C919.28 650.898 920.933 651.546 922.202 652.844C923.48 654.132 924.119 655.959 924.119 658.327V673H918.082V659.52C918.082 658.308 917.76 657.399 917.116 656.793C916.473 656.187 915.668 655.884 914.702 655.884C913.603 655.884 912.746 656.234 912.131 656.935C911.515 657.626 911.207 658.54 911.207 659.676V673H905.341V659.392C905.341 658.322 905.033 657.47 904.418 656.835C903.812 656.201 903.011 655.884 902.017 655.884C901.345 655.884 900.739 656.054 900.199 656.395C899.669 656.726 899.247 657.195 898.935 657.801C898.622 658.398 898.466 659.098 898.466 659.903V673H892.415ZM942.721 673.412C941.329 673.412 940.088 673.17 938.999 672.688C937.91 672.195 937.048 671.471 936.414 670.514C935.789 669.548 935.476 668.346 935.476 666.906C935.476 665.694 935.699 664.676 936.144 663.852C936.589 663.028 937.195 662.366 937.962 661.864C938.729 661.362 939.6 660.983 940.576 660.727C941.561 660.472 942.593 660.292 943.672 660.188C944.941 660.055 945.964 659.932 946.741 659.818C947.517 659.695 948.081 659.515 948.431 659.278C948.781 659.042 948.957 658.691 948.957 658.227V658.142C948.957 657.242 948.672 656.546 948.104 656.054C947.546 655.562 946.75 655.315 945.718 655.315C944.629 655.315 943.762 655.557 943.118 656.04C942.475 656.513 942.048 657.11 941.84 657.83L936.243 657.375C936.528 656.049 937.086 654.903 937.92 653.938C938.753 652.962 939.828 652.214 941.144 651.693C942.47 651.163 944.004 650.898 945.746 650.898C946.958 650.898 948.118 651.04 949.226 651.324C950.344 651.608 951.333 652.048 952.195 652.645C953.066 653.241 953.753 654.009 954.255 654.946C954.757 655.874 955.008 656.987 955.008 658.284V673H949.269V669.974H949.099C948.748 670.656 948.279 671.258 947.692 671.778C947.105 672.29 946.4 672.692 945.576 672.986C944.752 673.27 943.8 673.412 942.721 673.412ZM944.454 669.236C945.344 669.236 946.13 669.061 946.812 668.71C947.493 668.35 948.029 667.867 948.417 667.261C948.805 666.655 948.999 665.969 948.999 665.202V662.886C948.81 663.009 948.549 663.123 948.218 663.227C947.896 663.322 947.531 663.412 947.124 663.497C946.717 663.573 946.31 663.644 945.903 663.71C945.495 663.767 945.126 663.819 944.795 663.866C944.084 663.971 943.464 664.136 942.934 664.364C942.404 664.591 941.992 664.899 941.698 665.287C941.404 665.666 941.258 666.139 941.258 666.707C941.258 667.531 941.556 668.161 942.153 668.597C942.759 669.023 943.526 669.236 944.454 669.236ZM973.524 673.412C972.132 673.412 970.891 673.17 969.802 672.688C968.713 672.195 967.852 671.471 967.217 670.514C966.592 669.548 966.28 668.346 966.28 666.906C966.28 665.694 966.502 664.676 966.947 663.852C967.392 663.028 967.998 662.366 968.765 661.864C969.532 661.362 970.404 660.983 971.379 660.727C972.364 660.472 973.396 660.292 974.476 660.188C975.745 660.055 976.767 659.932 977.544 659.818C978.32 659.695 978.884 659.515 979.234 659.278C979.584 659.042 979.76 658.691 979.76 658.227V658.142C979.76 657.242 979.476 656.546 978.907 656.054C978.349 655.562 977.553 655.315 976.521 655.315C975.432 655.315 974.566 655.557 973.922 656.04C973.278 656.513 972.852 657.11 972.643 657.83L967.047 657.375C967.331 656.049 967.889 654.903 968.723 653.938C969.556 652.962 970.631 652.214 971.947 651.693C973.273 651.163 974.807 650.898 976.549 650.898C977.762 650.898 978.922 651.04 980.03 651.324C981.147 651.608 982.137 652.048 982.998 652.645C983.87 653.241 984.556 654.009 985.058 654.946C985.56 655.874 985.811 656.987 985.811 658.284V673H980.072V669.974H979.902C979.551 670.656 979.083 671.258 978.495 671.778C977.908 672.29 977.203 672.692 976.379 672.986C975.555 673.27 974.603 673.412 973.524 673.412ZM975.257 669.236C976.147 669.236 976.933 669.061 977.615 668.71C978.297 668.35 978.832 667.867 979.22 667.261C979.608 666.655 979.802 665.969 979.802 665.202V662.886C979.613 663.009 979.352 663.123 979.021 663.227C978.699 663.322 978.334 663.412 977.927 663.497C977.52 663.573 977.113 663.644 976.706 663.71C976.298 663.767 975.929 663.819 975.598 663.866C974.887 663.971 974.267 664.136 973.737 664.364C973.207 664.591 972.795 664.899 972.501 665.287C972.208 665.666 972.061 666.139 972.061 666.707C972.061 667.531 972.359 668.161 972.956 668.597C973.562 669.023 974.329 669.236 975.257 669.236ZM1003.59 666.722L1003.6 659.463H1004.48L1011.47 651.182H1018.42L1009.03 662.148H1007.59L1003.59 666.722ZM998.105 673V643.909H1004.16V673H998.105ZM1011.74 673L1005.32 663.497L1009.36 659.222L1018.83 673H1011.74ZM1040.59 651.182V655.727H1027.45V651.182H1040.59ZM1030.44 645.955H1036.49V666.295C1036.49 666.854 1036.57 667.29 1036.74 667.602C1036.91 667.905 1037.15 668.118 1037.45 668.241C1037.77 668.365 1038.12 668.426 1038.53 668.426C1038.82 668.426 1039.1 668.402 1039.38 668.355C1039.67 668.298 1039.89 668.256 1040.04 668.227L1040.99 672.73C1040.69 672.825 1040.26 672.934 1039.71 673.057C1039.16 673.189 1038.49 673.27 1037.71 673.298C1036.25 673.355 1034.97 673.161 1033.87 672.716C1032.78 672.271 1031.94 671.58 1031.33 670.642C1030.72 669.705 1030.43 668.521 1030.44 667.091V645.955ZM1075.04 660.386V673H1068.99V643.909H1074.87V655.031H1075.13C1075.62 653.743 1076.42 652.735 1077.51 652.006C1078.61 651.267 1079.99 650.898 1081.65 650.898C1083.16 650.898 1084.48 651.229 1085.61 651.892C1086.75 652.545 1087.63 653.488 1088.25 654.719C1088.89 655.94 1089.2 657.403 1089.19 659.108V673H1083.14V660.188C1083.15 658.843 1082.81 657.796 1082.12 657.048C1081.43 656.3 1080.48 655.926 1079.25 655.926C1078.42 655.926 1077.69 656.101 1077.06 656.452C1076.43 656.802 1075.94 657.313 1075.58 657.986C1075.23 658.649 1075.05 659.449 1075.04 660.386ZM1111.5 673.426C1109.25 673.426 1107.32 672.972 1105.7 672.062C1104.09 671.144 1102.85 669.847 1101.98 668.17C1101.11 666.485 1100.67 664.491 1100.67 662.19C1100.67 659.946 1101.11 657.976 1101.98 656.281C1102.85 654.586 1104.08 653.265 1105.66 652.318C1107.25 651.371 1109.11 650.898 1111.25 650.898C1112.69 650.898 1114.03 651.13 1115.27 651.594C1116.52 652.048 1117.61 652.735 1118.54 653.653C1119.48 654.572 1120.21 655.727 1120.73 657.119C1121.25 658.502 1121.51 660.121 1121.51 661.977V663.639H1103.09V659.889H1115.81C1115.81 659.018 1115.62 658.246 1115.25 657.574C1114.87 656.902 1114.34 656.376 1113.67 655.997C1113.01 655.609 1112.23 655.415 1111.35 655.415C1110.43 655.415 1109.62 655.628 1108.91 656.054C1108.21 656.471 1107.66 657.034 1107.26 657.744C1106.86 658.445 1106.66 659.226 1106.65 660.088V663.653C1106.65 664.733 1106.85 665.666 1107.25 666.452C1107.66 667.238 1108.23 667.844 1108.97 668.27C1109.71 668.696 1110.58 668.909 1111.59 668.909C1112.27 668.909 1112.88 668.814 1113.44 668.625C1114 668.436 1114.48 668.152 1114.88 667.773C1115.27 667.394 1115.58 666.93 1115.79 666.381L1121.38 666.75C1121.1 668.095 1120.52 669.269 1119.63 670.273C1118.76 671.267 1117.64 672.044 1116.25 672.602C1114.88 673.152 1113.29 673.426 1111.5 673.426ZM1144.66 651.182V655.727H1131.52V651.182H1144.66ZM1134.51 645.955H1140.56V666.295C1140.56 666.854 1140.64 667.29 1140.81 667.602C1140.98 667.905 1141.22 668.118 1141.52 668.241C1141.84 668.365 1142.2 668.426 1142.6 668.426C1142.89 668.426 1143.17 668.402 1143.46 668.355C1143.74 668.298 1143.96 668.256 1144.11 668.227L1145.06 672.73C1144.76 672.825 1144.33 672.934 1143.78 673.057C1143.23 673.189 1142.57 673.27 1141.78 673.298C1140.32 673.355 1139.04 673.161 1137.94 672.716C1136.86 672.271 1136.01 671.58 1135.4 670.642C1134.8 669.705 1134.5 668.521 1134.51 667.091V645.955ZM1193.4 651.182L1185.78 673H1178.96L1171.33 651.182H1177.72L1182.25 666.793H1182.48L1187 651.182H1193.4ZM1213.34 673.426C1211.1 673.426 1209.16 672.972 1207.55 672.062C1205.94 671.144 1204.69 669.847 1203.82 668.17C1202.95 666.485 1202.52 664.491 1202.52 662.19C1202.52 659.946 1202.95 657.976 1203.82 656.281C1204.69 654.586 1205.92 653.265 1207.5 652.318C1209.09 651.371 1210.96 650.898 1213.1 650.898C1214.54 650.898 1215.88 651.13 1217.12 651.594C1218.37 652.048 1219.46 652.735 1220.39 653.653C1221.32 654.572 1222.05 655.727 1222.57 657.119C1223.09 658.502 1223.35 660.121 1223.35 661.977V663.639H1204.93V659.889H1217.66C1217.66 659.018 1217.47 658.246 1217.09 657.574C1216.71 656.902 1216.19 656.376 1215.51 655.997C1214.85 655.609 1214.08 655.415 1213.2 655.415C1212.28 655.415 1211.47 655.628 1210.76 656.054C1210.05 656.471 1209.51 657.034 1209.11 657.744C1208.71 658.445 1208.51 659.226 1208.5 660.088V663.653C1208.5 664.733 1208.7 665.666 1209.09 666.452C1209.5 667.238 1210.07 667.844 1210.81 668.27C1211.55 668.696 1212.43 668.909 1213.44 668.909C1214.11 668.909 1214.73 668.814 1215.29 668.625C1215.85 668.436 1216.32 668.152 1216.72 667.773C1217.12 667.394 1217.42 666.93 1217.63 666.381L1223.23 666.75C1222.94 668.095 1222.36 669.269 1221.48 670.273C1220.61 671.267 1219.48 672.044 1218.1 672.602C1216.73 673.152 1215.14 673.426 1213.34 673.426ZM1234.9 673V651.182H1240.77V654.989H1241C1241.4 653.634 1242.06 652.612 1243 651.92C1243.94 651.22 1245.02 650.869 1246.24 650.869C1246.54 650.869 1246.87 650.888 1247.22 650.926C1247.57 650.964 1247.88 651.016 1248.14 651.082V656.452C1247.86 656.366 1247.47 656.291 1246.96 656.224C1246.46 656.158 1246 656.125 1245.59 656.125C1244.7 656.125 1243.9 656.319 1243.2 656.707C1242.51 657.086 1241.96 657.616 1241.55 658.298C1241.15 658.98 1240.95 659.766 1240.95 660.656V673H1234.9ZM1277.02 657.403L1271.48 657.744C1271.39 657.271 1271.19 656.845 1270.87 656.466C1270.56 656.078 1270.15 655.77 1269.64 655.543C1269.14 655.306 1268.53 655.188 1267.83 655.188C1266.9 655.188 1266.11 655.386 1265.46 655.784C1264.82 656.172 1264.5 656.693 1264.5 657.347C1264.5 657.867 1264.7 658.308 1265.12 658.668C1265.54 659.027 1266.25 659.316 1267.27 659.534L1271.21 660.33C1273.34 660.765 1274.92 661.466 1275.96 662.432C1277 663.398 1277.52 664.667 1277.52 666.239C1277.52 667.669 1277.1 668.923 1276.26 670.003C1275.42 671.082 1274.28 671.925 1272.82 672.531C1271.37 673.128 1269.7 673.426 1267.81 673.426C1264.92 673.426 1262.62 672.825 1260.9 671.622C1259.2 670.41 1258.2 668.762 1257.91 666.679L1263.86 666.366C1264.04 667.247 1264.47 667.92 1265.16 668.384C1265.85 668.838 1266.74 669.065 1267.82 669.065C1268.88 669.065 1269.73 668.862 1270.38 668.455C1271.03 668.038 1271.36 667.503 1271.37 666.849C1271.36 666.3 1271.13 665.85 1270.67 665.5C1270.22 665.14 1269.52 664.866 1268.57 664.676L1264.79 663.923C1262.66 663.497 1261.08 662.759 1260.04 661.707C1259 660.656 1258.49 659.316 1258.49 657.688C1258.49 656.286 1258.87 655.079 1259.62 654.065C1260.39 653.052 1261.47 652.271 1262.85 651.722C1264.24 651.172 1265.87 650.898 1267.73 650.898C1270.49 650.898 1272.66 651.48 1274.24 652.645C1275.83 653.81 1276.76 655.396 1277.02 657.403ZM1298.79 673.426C1296.56 673.426 1294.63 672.953 1293.02 672.006C1291.42 671.049 1290.19 669.723 1289.33 668.028C1288.48 666.333 1288.05 664.383 1288.05 662.176C1288.05 659.941 1288.48 657.981 1289.34 656.295C1290.22 654.6 1291.45 653.279 1293.05 652.332C1294.65 651.376 1296.56 650.898 1298.76 650.898C1300.66 650.898 1302.33 651.243 1303.76 651.935C1305.19 652.626 1306.32 653.597 1307.16 654.847C1307.99 656.097 1308.45 657.564 1308.53 659.25H1302.82C1302.66 658.161 1302.24 657.285 1301.55 656.622C1300.86 655.95 1299.97 655.614 1298.86 655.614C1297.92 655.614 1297.1 655.869 1296.4 656.381C1295.71 656.883 1295.17 657.616 1294.78 658.582C1294.4 659.548 1294.2 660.718 1294.2 662.091C1294.2 663.483 1294.39 664.667 1294.77 665.642C1295.16 666.617 1295.7 667.361 1296.4 667.872C1297.1 668.384 1297.92 668.639 1298.86 668.639C1299.55 668.639 1300.17 668.497 1300.72 668.213C1301.28 667.929 1301.74 667.517 1302.1 666.977C1302.47 666.428 1302.71 665.77 1302.82 665.003H1308.53C1308.44 666.67 1307.98 668.137 1307.17 669.406C1306.37 670.666 1305.25 671.651 1303.83 672.361C1302.41 673.071 1300.73 673.426 1298.79 673.426ZM1326.06 660.386V673H1320.01V643.909H1325.89V655.031H1326.14C1326.64 653.743 1327.43 652.735 1328.53 652.006C1329.63 651.267 1331.01 650.898 1332.66 650.898C1334.18 650.898 1335.5 651.229 1336.63 651.892C1337.76 652.545 1338.64 653.488 1339.27 654.719C1339.9 655.94 1340.22 657.403 1340.21 659.108V673H1334.16V660.188C1334.17 658.843 1333.82 657.796 1333.13 657.048C1332.45 656.3 1331.5 655.926 1330.26 655.926C1329.44 655.926 1328.71 656.101 1328.08 656.452C1327.45 656.802 1326.96 657.313 1326.6 657.986C1326.25 658.649 1326.07 659.449 1326.06 660.386ZM1352.57 673V651.182H1358.62V673H1352.57ZM1355.61 648.369C1354.71 648.369 1353.94 648.071 1353.29 647.474C1352.66 646.868 1352.34 646.144 1352.34 645.301C1352.34 644.468 1352.66 643.753 1353.29 643.156C1353.94 642.55 1354.71 642.247 1355.61 642.247C1356.51 642.247 1357.28 642.55 1357.91 643.156C1358.55 643.753 1358.88 644.468 1358.88 645.301C1358.88 646.144 1358.55 646.868 1357.91 647.474C1357.28 648.071 1356.51 648.369 1355.61 648.369ZM1377.12 643.909V673H1371.07V643.909H1377.12Z" fill="white"/>
</g>
<defs>
<clipPath id="clip0_448_1296">
<rect width="1380" height="774" fill="white"/>
</clipPath>
</defs>
</svg>
