<svg width="656" height="194" viewBox="0 0 656 194" fill="none" xmlns="http://www.w3.org/2000/svg">
<g clip-path="url(#clip0_447_860)">
<path d="M103.69 20.29L87.2205 34.88C82.8905 29.94 80.7305 28.59 75.9405 25.96C71.1505 23.33 68.1905 23.05 62.9605 23.05C54.4805 23.05 47.1205 26.1 40.8805 32.19C34.6305 38.28 31.5105 45.47 31.5105 53.75C31.5105 62.55 34.6305 70.01 40.8805 76.13C47.1305 82.25 53.9405 83.15 62.7505 83.15C67.5405 83.15 72.4605 82.94 76.3905 79.87C79.5805 77.37 83.1705 72.28 85.8605 65.98H58.3005V46.15H112.32V62.27C112.32 69.09 109.84 76.42 104.89 84.26C99.9405 92.1 93.4205 97.83 85.3305 101.45C77.2405 105.07 69.0705 106.88 60.8105 106.88C45.8405 106.88 33.2105 101.75 22.9205 91.49C12.6305 81.23 7.48047 68.55 7.48047 53.44C7.48047 39.12 12.7805 26.88 23.3705 16.72C33.9605 6.55999 46.7205 1.48999 61.6305 1.48999C80.6705 1.48999 93.6805 9.13999 103.68 20.29H103.69Z" fill="white"/>
<path d="M141.51 2.88988H215.03V23.1999H169.67V43.8999H211.03V63.8999H169.67V85.1499H215.03V105.46H141.51V2.87988V2.88988Z" fill="white"/>
<path d="M249.51 2.18993H271.77V64.9199C271.77 70.7499 273.42 75.4399 276.72 78.9799C280.02 82.5199 284.35 84.2899 289.72 84.2899C295.89 84.2899 300.68 82.5099 304.08 78.9399C307.48 75.3699 309.19 70.3299 309.19 63.8199V2.17992H331.37V68.5899C331.37 74.4199 329.83 80.4799 326.74 86.7499C323.65 93.0299 318.91 97.8299 312.5 101.16C306.09 104.49 298.92 106.16 291 106.16C276.64 106.16 266.14 102.24 259.49 94.3999C252.84 86.5599 249.52 78.3199 249.52 69.6699V2.16992L249.51 2.18993Z" fill="white"/>
<path d="M369.76 2.88988H406.5C417.67 2.88988 426.5 5.59989 432.99 11.0099C439.48 16.4199 442.73 23.7399 442.73 32.9499C442.73 38.2099 441.24 43.6799 438.26 49.3499C435.28 55.0199 429.79 59.4699 421.79 62.6999L453 105.46H425.38L396.51 65.7699H393.79V105.46H369.75V2.87988L369.76 2.88988ZM393.97 21.1799V47.8999H399.17C411.73 47.8999 418.01 43.1899 418.01 33.7599C418.01 29.9099 416.38 26.8499 413.11 24.5799C409.84 22.3099 405.31 21.1799 399.51 21.1799H393.97Z" fill="white"/>
<path d="M468.88 2.88989H556.8V24.6899H524.28V105.47H501.23V24.6899H468.88V2.88989Z" fill="white"/>
<path d="M652.27 12.7699L636.64 27.85C628.41 23.58 620.71 20.35 617.1 20.35C614.32 20.35 611.92 21.2799 609.91 23.1199C607.9 24.9699 606.89 27.17 606.89 29.72C606.89 34.77 614.5 38.78 624.93 42.48C632.57 45.35 637.95 48.25 641.86 50.56C645.77 52.88 648.82 56.17 651.46 60.29C654.09 64.41 655.39 69.93 655.39 74.72C655.39 83.52 651.35 91.18 643.27 97.69C635.19 104.2 624.06 107.41 613.04 107.41C600.96 107.41 585.94 100.1 574.15 90.1L589.53 74.32C596.93 81.04 609.68 85.5799 616.13 85.5799C619.15 85.5799 622.05 84.4 624.83 82.04C627.61 79.68 627.58 77.04 627.58 74.44C627.58 69.09 622.58 64.53 609.73 60.45C602.39 58.09 597.17 55.8899 594.1 53.8299C591.02 51.7699 586.73 49.1999 584.63 45.2699C582.53 41.3399 581.48 37.31 581.48 33.2C581.48 24.09 584.58 15.5799 591.33 9.89995C598.08 4.21995 608.6 0.959961 619.49 0.959961C632.4 0.959961 643.51 5.63994 652.28 12.7699H652.27Z" fill="white"/>
<path d="M0.889648 149.18H7.75965C11.4996 149.18 14.2496 150.1 16.0296 151.93C17.8096 153.76 18.6996 156.63 18.6996 160.53C18.6996 166.04 16.5896 169.54 12.3796 171.02C16.9596 171.95 19.2496 175.58 19.2496 181.89C19.2496 185.35 18.4196 188.03 16.7496 189.9C15.0896 191.78 12.7196 192.72 9.63965 192.72H0.889648V149.18ZM6.69965 153.66V168.8C8.92965 168.73 10.5596 168.15 11.5696 167.06C12.5796 165.97 13.0896 164.06 13.0896 161.35C13.0896 158.41 12.6496 156.39 11.7696 155.3C10.8896 154.21 9.19965 153.66 6.68965 153.66H6.69965ZM6.69965 173.14V188.32C9.01965 188.28 10.6796 187.77 11.6696 186.8C12.6596 185.83 13.1596 183.93 13.1596 181.11C13.1596 178.1 12.6596 176.03 11.6596 174.89C10.6596 173.75 9.00965 173.17 6.69965 173.15V173.14Z" fill="white"/>
<path d="M46.55 192.73H30.79V149.19H46.27V154.15H36.6V167.96H45.56V172.92H36.6V187.92H46.55V192.74V192.73Z" fill="white"/>
<path d="M57.9697 149.18H66.4497C70.4597 149.18 73.6197 150.69 75.9297 153.71C78.2397 156.73 79.3997 162.41 79.3997 170.75C79.3997 179.09 78.3897 184.47 76.3597 187.77C74.3297 191.07 70.6897 192.73 65.4197 192.73H57.9697V149.19V149.18ZM63.8397 153.66V188.32C66.2997 188.32 68.1697 187.86 69.4497 186.95C70.7297 186.04 71.6797 184.34 72.2997 181.86C72.9297 179.38 73.2397 175.65 73.2397 170.68C73.2397 164.35 72.6497 159.93 71.4797 157.42C70.3097 154.91 68.0197 153.66 64.6297 153.66H63.8397Z" fill="white"/>
<path d="M110.47 192.73H104.37L97.5502 172.29H97.0402V192.73H91.1602V149.19H99.2902C105.92 149.19 109.24 152.9 109.24 160.33C109.24 163.7 108.75 166.24 107.77 167.95C106.79 169.66 105.2 170.95 102.99 171.81L110.47 192.73ZM97.0302 168.29C99.3102 168.25 100.95 167.7 101.97 166.67C102.98 165.63 103.49 163.75 103.49 161.01C103.49 158.27 103.03 156.52 102.11 155.4C101.19 154.28 99.6101 153.73 97.3801 153.73H97.0402V168.29H97.0302Z" fill="white"/>
<path d="M122.05 149.18H127.93V192.72H122.05V149.18Z" fill="white"/>
<path d="M152.57 184.9C152.57 190.53 149.79 193.34 144.23 193.34C142.98 193.34 141.09 193.07 138.56 192.52V187.19C140.59 187.99 142.13 188.39 143.17 188.39C144.21 188.39 145.12 188 145.75 187.21C146.38 186.42 146.69 185.35 146.69 183.98V149.19H152.57V184.91V184.9Z" fill="white"/>
<path d="M180.63 154.14H170.62V167.88H179.58V172.84H170.62V192.73H164.81V149.19H180.64V154.15L180.63 154.14Z" fill="white"/>
<path d="M206.06 154.79C204.15 153.76 202.43 153.25 200.9 153.25C199.37 153.25 198.07 153.8 196.99 154.89C195.91 155.98 195.37 157.31 195.37 158.85C195.37 159.94 195.69 161.11 196.34 162.35C196.98 163.59 198.44 165.58 200.7 168.31C202.96 171.04 204.69 173.41 205.89 175.42C207.09 177.43 207.68 179.73 207.68 182.33C207.68 185.57 206.71 188.2 204.76 190.21C202.81 192.23 200.27 193.24 197.12 193.24C195.39 193.24 193.27 192.73 190.76 191.7V186.47C190.83 186.49 190.9 186.53 190.97 186.57C191.31 186.82 192.03 187.2 193.12 187.71C194.21 188.22 195.28 188.48 196.33 188.48C198.04 188.48 199.45 187.91 200.55 186.77C201.65 185.63 202.21 184.17 202.21 182.39C202.21 181.16 201.93 180.02 201.37 178.97C200.81 177.92 199.79 176.5 198.31 174.69L194.39 169.86C192.87 167.99 191.74 166.28 191.01 164.73C190.28 163.18 189.92 161.33 189.92 159.19C189.92 156.02 190.84 153.44 192.69 151.46C194.54 149.48 196.93 148.48 199.87 148.48C201.92 148.48 203.99 148.99 206.09 150.02V154.77L206.06 154.79Z" fill="white"/>
<path d="M251.25 149.18L243.73 192.72H239.05L233.82 161.99H233.65L228.55 192.72H223.94L216.66 149.18H221.75L226.61 179.29H226.75L231.97 149.18H235.97L240.9 179.16H241.07L246.04 149.18H251.24H251.25Z" fill="white"/>
<path d="M281.12 192.73H275.45L273.86 184.12H264.64L263.03 192.73H257.44L266.84 149.19H271.66L281.13 192.73H281.12ZM273.08 179.71L269.25 159.05H269.11L265.49 179.71H273.08Z" fill="white"/>
<path d="M312.84 177.31C312.84 182.32 311.99 186.21 310.28 188.98C308.57 191.75 305.55 193.13 301.22 193.13C297.35 193.13 294.54 191.7 292.81 188.84C291.08 185.98 290.21 180.48 290.21 172.35C290.21 171.39 290.31 168.85 290.52 164.71C290.73 160.57 291.03 157.77 291.43 156.3C291.83 154.83 292.49 153.46 293.43 152.2C294.36 150.93 295.55 149.99 296.98 149.36C298.42 148.73 300.1 148.42 302.04 148.42C304.77 148.42 307.13 149.25 309.12 150.9C311.11 152.55 312.2 154.73 312.4 157.44L306.86 159.46C306.4 155.27 304.8 153.17 302.04 153.17C299.92 153.17 298.45 154.26 297.61 156.43C296.78 158.61 296.36 162.21 296.36 167.25V169.47C296.36 172.39 296.45 175.17 296.63 177.83C296.81 180.48 296.98 182.43 297.14 183.66C297.3 184.89 297.63 185.87 298.13 186.6C298.63 187.33 299.16 187.82 299.72 188.07C300.28 188.32 300.93 188.45 301.69 188.45C303.1 188.45 304.2 188.02 304.97 187.15C305.74 186.28 306.28 185.04 306.58 183.41C306.88 181.78 307.02 179.01 307.02 175.09H301.69V169.96H312.83V177.31H312.84Z" fill="white"/>
<path d="M339.98 192.73H324.22V149.19H339.7V154.15H330.03V167.96H338.99V172.92H330.03V187.92H339.98V192.74V192.73Z" fill="white"/>
<path d="M371.76 192.73H367.15L356.04 162.84H355.9V192.73H350.64V149.19H355.32L366.46 179.07L366.6 179.1V149.19H371.76V192.73Z" fill="white"/>
<path d="M385.57 149.18H391.45V192.72H385.57V149.18Z" fill="white"/>
<path d="M425.66 192.73H421.05L409.94 162.84H409.8V192.73H404.54V149.19H409.22L420.36 179.07L420.5 179.1V149.19H425.66V192.73Z" fill="white"/>
<path d="M457.79 192.73H451.69L444.87 172.29H444.36V192.73H438.48V149.19H446.61C453.24 149.19 456.56 152.9 456.56 160.33C456.56 163.7 456.07 166.24 455.09 167.95C454.11 169.66 452.52 170.95 450.31 171.81L457.79 192.73ZM444.36 168.29C446.64 168.25 448.28 167.7 449.3 166.67C450.31 165.63 450.82 163.75 450.82 161.01C450.82 158.27 450.36 156.52 449.44 155.4C448.52 154.28 446.94 153.73 444.71 153.73H444.37V168.29H444.36Z" fill="white"/>
<path d="M469.37 149.18H475.25V192.72H469.37V149.18Z" fill="white"/>
<path d="M506.9 191.98C505.15 192.82 503.39 193.24 501.64 193.24C498.13 193.24 495.1 191.88 492.53 189.17C489.97 186.46 488.69 180.79 488.69 172.17C488.69 162.82 489.97 156.53 492.53 153.29C495.09 150.05 498.2 148.43 501.84 148.43C503.21 148.43 504.89 148.66 506.9 149.11V154.44C505.58 153.92 504.34 153.65 503.17 153.65C500.89 153.65 498.94 154.81 497.33 157.12C495.71 159.44 494.9 164 494.9 170.82C494.9 174.88 495.08 178.06 495.43 180.35C495.78 182.64 496.6 184.47 497.87 185.82C499.15 187.18 500.75 187.86 502.69 187.86C503.83 187.86 505.23 187.51 506.89 186.8V191.96L506.9 191.98Z" fill="white"/>
<path d="M518.8 149.18H524.68V166.13H533.74V149.18H539.62V192.72H533.74V171.08H524.68V192.72H518.8V149.18Z" fill="white"/>
<path d="M568.94 154.14H562.27V192.73H556.39V154.14H549.76V149.18H568.93V154.14H568.94Z" fill="white"/>
<path d="M580.15 149.18H586.03V192.72H580.15V149.18Z" fill="white"/>
<path d="M620.24 192.73H615.63L604.52 162.84H604.38V192.73H599.12V149.19H603.8L614.94 179.07L615.08 179.1V149.19H620.24V192.73Z" fill="white"/>
<path d="M655.41 177.31C655.41 182.32 654.56 186.21 652.85 188.98C651.14 191.75 648.12 193.13 643.79 193.13C639.92 193.13 637.11 191.7 635.38 188.84C633.65 185.98 632.78 180.48 632.78 172.35C632.78 171.39 632.88 168.85 633.09 164.71C633.3 160.57 633.6 157.77 634 156.3C634.4 154.83 635.06 153.46 636 152.2C636.93 150.93 638.12 149.99 639.55 149.36C640.99 148.73 642.67 148.42 644.61 148.42C647.34 148.42 649.7 149.25 651.69 150.9C653.68 152.55 654.77 154.73 654.97 157.44L649.43 159.46C648.97 155.27 647.37 153.17 644.61 153.17C642.49 153.17 641.02 154.26 640.18 156.43C639.34 158.6 638.93 162.21 638.93 167.25V169.47C638.93 172.39 639.02 175.17 639.2 177.83C639.38 180.48 639.55 182.43 639.71 183.66C639.87 184.89 640.2 185.87 640.7 186.6C641.2 187.33 641.73 187.82 642.29 188.07C642.85 188.32 643.5 188.45 644.26 188.45C645.67 188.45 646.77 188.02 647.54 187.15C648.31 186.28 648.85 185.04 649.15 183.41C649.45 181.78 649.59 179.01 649.59 175.09H644.26V169.96H655.4V177.31H655.41Z" fill="white"/>
</g>
<defs>
<clipPath id="clip0_447_860">
<rect width="656" height="194" fill="white"/>
</clipPath>
</defs>
</svg>
