<svg width="3822" height="1714" viewBox="0 0 3822 1714" fill="none" xmlns="http://www.w3.org/2000/svg">
<g clip-path="url(#clip0_946_1520)">
<path d="M3823.71 0.846191V1716.55H-3.41797V0.846191H3823.71ZM2714.72 665.726C2632.32 665.726 2568.4 696.642 2526.01 747.944L2614.55 832.539C2638.82 799.592 2667.19 783.278 2714.72 783.278C2763.26 783.278 2795.04 808.414 2810.44 842.048C2819.32 862.779 2821.03 877.732 2822.06 902.866V911.703H2677.8C2549.93 914.424 2489.42 987.457 2489.42 1075.79C2489.42 1125.74 2505.84 1171.27 2536.6 1202.86C2570.78 1236.49 2617.96 1252.8 2682.92 1252.8C2748.9 1252.8 2785.14 1236.49 2823.77 1198.44V1247.36H2963.24V954.51C2963.24 954.51 2963.24 913.735 2962.91 911.366C2960.17 753.72 2861.03 665.726 2714.72 665.726ZM1384.54 673.539C1236.17 673.539 1134.98 777.5 1134.98 962.322C1134.98 1191.65 1264.88 1252.47 1399.92 1252.47C1503.5 1252.47 1559.57 1221.2 1617.68 1163.44L1530.85 1079.88C1494.27 1115.88 1463.51 1133.22 1400.95 1133.22C1320.61 1133.22 1275.48 1079.88 1275.48 1007.16H1633.75V943.976C1633.75 788.711 1543.84 673.539 1384.54 673.539ZM3382.03 675.236C3372.79 674.218 3363.22 673.537 3352.96 673.876C3291.43 673.876 3236.39 702.076 3209.04 734.691V680.333H3069.57V1246.35H3212.47V905.235C3212.47 833.563 3260.67 800.937 3304.76 800.937C3339.99 800.937 3358.77 812.832 3380.67 834.572L3382.03 833.211V675.236ZM1947.25 680.335L2158.51 1246.02H2270.63L2480.54 680.335H2329.78L2214.57 1029.93L2098 680.335H1947.25ZM475.189 472.75V1246H628.001V922.236H892.943V1246H1045.75V472.75H892.943V788.712H628.001V472.75H475.189ZM1721.28 472.75V1084.29C1721.28 1164.47 1770.84 1246 1888.45 1246H1969.81V1126.41H1914.76C1878.53 1126.41 1864.17 1109.09 1864.17 1075.46V472.75H1721.28ZM2821.72 1008.19V1038.76C2821.72 1073.42 2816.25 1096.19 2800.87 1110.45C2775.57 1134.23 2750.27 1137.64 2710.61 1137.64C2654.55 1137.64 2628.22 1111.48 2628.22 1072.4C2628.22 1031.98 2656.95 1008.19 2708.56 1008.19H2821.72ZM1384.19 790.75C1432.74 790.751 1464.53 815.889 1479.92 849.524C1488.8 870.255 1492.22 885.192 1493.25 910.341H1275.48C1276.51 885.543 1279.93 870.255 1288.47 849.524C1303.86 815.889 1335.99 790.75 1384.19 790.75Z" fill="white"/>
</g>
<defs>
<clipPath id="clip0_946_1520">
<rect width="3822" height="1714" fill="white"/>
</clipPath>
</defs>
</svg>
