<svg width="560" height="111" viewBox="0 0 560 111" fill="none" xmlns="http://www.w3.org/2000/svg">
<g clip-path="url(#clip0_119_83)">
<path d="M479.651 36.4402C476.244 51.8136 472.768 67.1736 469.221 82.5202C469.185 82.6658 469.097 82.7932 468.974 82.8781C468.85 82.9629 468.7 82.9993 468.551 82.9802C342.624 65.4736 216.784 65.4369 91.031 82.8702C90.8953 82.8888 90.7576 82.856 90.6447 82.7783C90.5319 82.7006 90.4521 82.5836 90.421 82.4502L75.011 14.4202C74.997 14.3592 74.9963 14.2959 75.0092 14.2343C75.0221 14.1726 75.0482 14.114 75.0859 14.0623C75.1235 14.0105 75.1719 13.9667 75.2279 13.9336C75.2838 13.9006 75.3462 13.879 75.411 13.8702C105.144 9.70357 139.414 6.16357 178.221 3.25024C207.774 1.03024 234.191 0.0535725 257.471 0.320239C291.224 0.700239 324.978 1.26691 358.731 2.02024C365.791 2.18024 372.444 2.47357 378.691 2.90024C413.931 5.32691 449.048 8.98357 484.041 13.8702C484.105 13.8798 484.166 13.9022 484.221 13.9361C484.277 13.9699 484.325 14.0146 484.363 14.0676C484.401 14.1206 484.428 14.1808 484.443 14.2447C484.459 14.3087 484.461 14.3751 484.451 14.4402C483.771 18.3869 482.974 22.3069 482.061 26.2002C480.468 32.9802 479.664 36.3936 479.651 36.4402ZM296.841 26.1802C294.881 24.6002 292.861 24.3936 290.781 25.5602C287.454 27.4402 285.694 30.1769 285.501 33.7702C285.348 36.5302 285.978 38.8502 287.391 40.7302C289.018 42.8836 291.461 43.9469 294.721 43.9202C297.654 43.9002 300.104 42.8602 302.071 40.8002C302.187 40.682 302.26 40.5318 302.275 40.3821C302.29 40.2324 302.245 40.0952 302.151 40.0002L299.811 37.6102C299.716 37.5102 299.579 37.4563 299.432 37.4601C299.284 37.4638 299.137 37.5249 299.021 37.6302C297.401 39.1102 295.908 39.6536 294.541 39.2602C293.314 38.9136 292.441 37.9269 291.921 36.3002C291.234 34.1269 291.664 32.0902 293.211 30.1902C293.418 29.9315 293.701 29.7547 294.011 29.6902C295.951 29.2902 297.084 30.0602 297.411 32.0002C297.439 32.1708 297.509 32.3264 297.61 32.4384C297.711 32.5504 297.836 32.6114 297.961 32.6102L301.551 32.6602C301.691 32.6625 301.827 32.6006 301.928 32.4881C302.03 32.3757 302.088 32.2218 302.091 32.0602L302.171 26.2302C302.17 26.0618 302.107 25.8973 301.993 25.7631C301.879 25.6289 301.72 25.5328 301.541 25.4902C299.654 25.0636 298.314 25.2669 297.521 26.1002C297.432 26.1979 297.312 26.2606 297.186 26.2754C297.06 26.2903 296.936 26.2563 296.841 26.1802ZM280.771 39.4902C280.718 37.5036 279.814 35.9769 278.061 34.9102C278.003 34.8751 277.955 34.8252 277.923 34.7654C277.891 34.7057 277.875 34.6381 277.877 34.5694C277.879 34.5008 277.899 34.4334 277.934 34.3739C277.97 34.3144 278.021 34.2649 278.081 34.2302C280.688 32.7902 281.398 30.8202 280.211 28.3202C279.324 26.4402 277.981 25.5069 276.181 25.5202L265.841 25.5802C265.698 25.5795 265.558 25.6322 265.442 25.7301C265.326 25.8279 265.241 25.9652 265.201 26.1202C264.788 27.7202 264.988 28.7002 265.801 29.0602C265.948 29.1233 266.075 29.2148 266.167 29.3243C266.258 29.4338 266.312 29.5571 266.321 29.6802C266.494 32.3336 266.551 34.9902 266.491 37.6502C266.484 37.6969 266.508 38.0969 266.561 38.8502C266.621 39.7102 266.278 40.2502 265.531 40.4702C265.376 40.5163 265.24 40.5986 265.142 40.705C265.045 40.8114 264.992 40.936 264.991 41.0602V43.1902C264.991 43.3282 265.047 43.4604 265.146 43.5579C265.246 43.6555 265.38 43.7102 265.521 43.7102L272.921 43.7002C273.083 43.7003 273.239 43.6534 273.361 43.5676C273.483 43.4819 273.565 43.3626 273.591 43.2302C273.624 43.0702 273.631 42.9036 273.611 42.7302C273.551 42.3236 273.538 42.0002 273.571 41.7602C273.698 40.9202 273.431 40.4169 272.771 40.2502C272.599 40.2064 272.445 40.1386 272.318 40.052C272.192 39.9654 272.097 39.8622 272.041 39.7502C271.581 38.7969 271.518 37.8069 271.851 36.7802C271.899 36.6353 271.99 36.5081 272.111 36.4154C272.232 36.3226 272.379 36.2686 272.531 36.2602C273.798 36.2069 274.444 36.7869 274.471 38.0002C274.558 41.8269 276.141 43.7836 279.221 43.8702C280.581 43.9102 281.631 43.5302 282.371 42.7302C283.238 41.7836 283.494 40.5302 283.141 38.9702C282.868 37.7636 282.261 37.9802 281.321 39.6202C280.974 40.2269 280.791 40.1836 280.771 39.4902ZM311.871 39.7102C311.818 39.4702 311.808 39.2269 311.841 38.9802C311.901 38.5669 311.914 38.2402 311.881 38.0002C311.734 36.8669 312.091 36.3169 312.951 36.3502C313.784 36.3836 314.301 36.3902 314.501 36.3702C316.834 36.0836 317.628 37.1336 316.881 39.5202C316.798 39.7895 316.579 40.0436 316.271 40.2302C315.151 40.9036 314.824 41.9202 315.291 43.2802C315.34 43.4295 315.432 43.5596 315.554 43.6528C315.676 43.7459 315.822 43.7975 315.971 43.8002L322.971 44.0202C323.118 44.0265 323.263 43.9832 323.386 43.8967C323.508 43.8101 323.601 43.6851 323.651 43.5402C324.131 42.0802 323.801 40.9836 322.661 40.2502C322.529 40.1637 322.422 40.0478 322.354 39.9154C322.285 39.783 322.256 39.6393 322.271 39.5002C322.511 36.8736 322.654 34.2436 322.701 31.6102C322.721 30.8636 322.868 30.1569 323.141 29.4902C323.421 28.8169 323.704 28.1369 323.991 27.4502C324.531 26.1502 324.101 25.5002 322.701 25.5002C321.214 25.5002 319.724 25.4536 318.231 25.3602C315.211 25.1736 314.451 26.3636 315.951 28.9302C317.931 32.2969 316.938 33.6802 312.971 33.0802C312.811 33.0556 312.66 32.9953 312.533 32.9046C312.406 32.814 312.305 32.6957 312.241 32.5602C311.441 30.8602 311.771 29.5636 313.231 28.6702C313.519 28.4912 313.72 28.2324 313.791 27.9502C314.271 26.0102 313.714 25.1469 312.121 25.3602C310.734 25.5469 309.358 25.5102 307.991 25.2502C305.404 24.7702 304.724 26.0936 305.951 29.2202C306.311 30.1402 306.488 31.0502 306.481 31.9502L306.421 39.1902C306.421 39.3293 306.382 39.4709 306.307 39.6031C306.232 39.7354 306.124 39.8544 305.991 39.9502C305.524 40.2902 305.184 40.7236 304.971 41.2502C304.291 42.9169 305.124 43.7502 307.471 43.7502H312.731C312.881 43.7501 313.027 43.7069 313.149 43.6265C313.27 43.5461 313.362 43.4322 313.411 43.3002C313.938 41.8869 313.634 40.9102 312.501 40.3702C312.335 40.293 312.191 40.1927 312.081 40.0778C311.971 39.9629 311.899 39.8368 311.871 39.7102ZM253.741 39.9402L253.561 37.0602C253.555 36.9789 253.562 36.8972 253.582 36.8203C253.601 36.7434 253.633 36.6728 253.675 36.6129C253.717 36.553 253.769 36.505 253.827 36.4719C253.884 36.4387 253.947 36.4212 254.011 36.4202L257.471 36.3602C257.654 36.3544 257.827 36.3001 257.963 36.2058C258.099 36.1115 258.19 35.9828 258.221 35.8402C258.754 33.4736 258.254 32.4369 256.721 32.7302C253.714 33.3036 252.658 32.2969 253.551 29.7102C253.597 29.5762 253.686 29.4599 253.806 29.3774C253.927 29.295 254.071 29.2505 254.221 29.2502C254.448 29.2502 254.674 29.2502 254.901 29.2502C255.201 29.2502 255.574 29.1869 256.021 29.0602C257.321 28.7002 257.911 29.1802 257.791 30.5002C257.778 30.6468 257.811 30.7921 257.886 30.9109C257.961 31.0296 258.073 31.1143 258.201 31.1502C259.341 31.4769 260.498 31.5269 261.671 31.3002C261.815 31.2718 261.945 31.1938 262.036 31.0802C262.128 30.9667 262.176 30.8249 262.171 30.6802L261.961 26.0602C261.956 25.9266 261.896 25.8003 261.795 25.7087C261.694 25.617 261.56 25.5673 261.421 25.5702L247.181 25.7602C247.017 25.763 246.858 25.8184 246.73 25.9178C246.602 26.0171 246.511 26.155 246.471 26.3102C245.958 28.2369 246.271 29.3069 247.411 29.5202C247.553 29.5485 247.682 29.616 247.776 29.712C247.87 29.8081 247.925 29.9272 247.931 30.0502C248.091 32.9569 248.188 35.8602 248.221 38.7602C248.221 38.8336 248.251 39.1569 248.311 39.7302C248.391 40.4302 248.134 40.8002 247.541 40.8402C247.377 40.8524 247.224 40.9011 247.102 40.9798C246.981 41.0585 246.897 41.1633 246.861 41.2802C246.594 42.1069 246.578 42.9402 246.811 43.7802C246.849 43.9152 246.934 44.0337 247.054 44.117C247.173 44.2002 247.32 44.2436 247.471 44.2402L261.391 43.9802C261.679 43.975 261.954 43.8579 262.156 43.654C262.358 43.4502 262.471 43.1759 262.471 42.8902V39.2002C262.471 38.9959 262.402 38.797 262.273 38.6356C262.144 38.4741 261.964 38.3595 261.761 38.3102C258.988 37.6502 257.624 38.1336 257.671 39.7602C257.676 39.9161 257.633 40.0666 257.552 40.1791C257.472 40.2915 257.36 40.3566 257.241 40.3602L254.281 40.5002C254.148 40.5071 254.017 40.4523 253.916 40.3476C253.815 40.2429 253.752 40.0967 253.741 39.9402ZM334.521 29.4302C336.374 28.9636 337.578 29.4702 338.131 30.9502C338.197 31.1225 338.284 31.2752 338.386 31.3978C338.487 31.5203 338.602 31.6099 338.721 31.6602C339.548 32.0202 340.578 32.1036 341.811 31.9102C341.973 31.8842 342.12 31.8116 342.229 31.7043C342.339 31.597 342.403 31.4615 342.411 31.3202L342.701 27.0602C342.71 26.9346 342.691 26.8083 342.645 26.689C342.6 26.5698 342.528 26.4601 342.434 26.3665C342.341 26.273 342.228 26.1976 342.101 26.145C341.975 26.0923 341.839 26.0635 341.701 26.0602L327.731 25.7402C327.587 25.7367 327.446 25.7834 327.331 25.8725C327.217 25.9617 327.135 26.0879 327.101 26.2302C326.741 27.6769 326.951 28.7002 327.731 29.3002C327.865 29.403 327.974 29.525 328.05 29.6567C328.127 29.7885 328.168 29.9265 328.171 30.0602C328.251 32.7269 328.201 35.3902 328.021 38.0502C328.021 38.0702 328.044 38.5336 328.091 39.4402C328.118 40.1202 327.848 40.5469 327.281 40.7202C327.109 40.7755 326.956 40.8554 326.836 40.9531C326.716 41.0508 326.632 41.1631 326.591 41.2802C326.344 42.0269 326.331 42.7769 326.551 43.5302C326.591 43.6702 326.677 43.794 326.795 43.8838C326.914 43.9736 327.059 44.0248 327.211 44.0302L341.631 44.5002C341.702 44.5029 341.773 44.4919 341.839 44.4678C341.905 44.4438 341.965 44.4072 342.016 44.3604C342.066 44.3135 342.106 44.2574 342.133 44.1955C342.16 44.1335 342.173 44.0671 342.171 44.0002L342.101 39.1902C342.098 39.0304 342.039 38.878 341.936 38.7657C341.834 38.6535 341.695 38.5905 341.551 38.5902L338.511 38.6002C338.309 38.6038 338.115 38.6914 337.969 38.8453C337.822 38.9993 337.734 39.2083 337.721 39.4302C337.648 40.7102 337.138 41.2102 336.191 40.9302C335.878 40.8436 335.554 40.8136 335.221 40.8402C333.854 40.9736 333.348 39.8336 333.701 37.4202C333.725 37.2547 333.782 37.0957 333.869 36.9524C333.956 36.8092 334.071 36.6846 334.206 36.586C334.342 36.4873 334.497 36.4165 334.661 36.3778C334.825 36.339 334.995 36.3331 335.161 36.3602C338.174 36.8736 339.341 36.1136 338.661 34.0802C338.57 33.7976 338.386 33.5534 338.138 33.3867C337.89 33.22 337.592 33.1403 337.291 33.1602C334.331 33.3402 333.191 32.2969 333.871 30.0302C333.916 29.8843 334 29.7522 334.114 29.647C334.228 29.5418 334.368 29.4671 334.521 29.4302ZM241.411 34.3502C242.818 33.0169 243.308 31.4802 242.881 29.7402C242.601 28.6136 241.978 27.7469 241.011 27.1402C240.051 26.5269 238.954 26.2102 237.721 26.1902C235.468 26.1502 233.218 26.2169 230.971 26.3902C230.851 26.4036 230.028 26.3902 228.501 26.3502C226.728 26.3036 226.164 27.2802 226.811 29.2802C226.863 29.4496 226.947 29.6003 227.057 29.7164C227.166 29.8326 227.295 29.9099 227.431 29.9402L227.911 30.0402C228.048 30.0684 228.172 30.1348 228.262 30.229C228.353 30.3232 228.405 30.4398 228.411 30.5602L228.871 40.4302C228.877 40.5786 228.843 40.7252 228.772 40.8539C228.701 40.9827 228.597 41.0887 228.471 41.1602C227.164 41.9069 226.841 43.0336 227.501 44.5402C227.56 44.6749 227.66 44.7883 227.789 44.8651C227.918 44.942 228.069 44.9787 228.221 44.9702C231.801 44.7369 235.384 44.5802 238.971 44.5002C240.251 44.4736 241.404 44.0436 242.431 43.2102C243.364 42.4502 243.941 41.4602 244.161 40.2402C244.594 37.9069 243.701 36.1336 241.481 34.9202C241.432 34.8943 241.39 34.857 241.359 34.8113C241.328 34.7656 241.308 34.7127 241.301 34.6572C241.295 34.6016 241.301 34.5448 241.32 34.4914C241.339 34.4381 241.37 34.3897 241.411 34.3502ZM363.431 33.0602L363.141 40.5302C363.128 40.8339 362.986 41.1498 362.741 41.4202C361.541 42.7602 361.218 43.9602 361.771 45.0202C361.834 45.1438 361.938 45.2483 362.072 45.3223C362.206 45.3964 362.365 45.4371 362.531 45.4402C363.524 45.4536 365.254 45.5569 367.721 45.7502C370.168 45.9369 370.784 44.9136 369.571 42.6802C369.504 42.5536 369.414 42.4502 369.301 42.3702C369.194 42.2969 369.084 42.2269 368.971 42.1602C368.838 42.0823 368.729 41.974 368.655 41.8471C368.581 41.7203 368.545 41.5796 368.551 41.4402L369.001 31.5702C369.007 31.4331 369.056 31.2961 369.142 31.1733C369.228 31.0504 369.348 30.9459 369.491 30.8702C370.464 30.3569 370.751 29.3302 370.351 27.7902C370.314 27.6461 370.231 27.5181 370.116 27.4259C370 27.3338 369.858 27.2826 369.711 27.2802L361.281 27.0702C361.13 27.0639 360.981 27.1055 360.858 27.1887C360.735 27.2718 360.645 27.3919 360.601 27.5302L358.271 35.0602C357.864 36.3669 357.514 36.3502 357.221 35.0102L355.541 27.2802C355.512 27.1401 355.436 27.0132 355.324 26.9192C355.212 26.8252 355.07 26.7693 354.921 26.7602L346.281 26.3102C346.136 26.3022 345.993 26.3461 345.878 26.4341C345.762 26.5221 345.682 26.6484 345.651 26.7902C345.371 28.0169 345.604 29.1436 346.351 30.1702C346.552 30.4551 346.657 30.768 346.651 31.0602L346.471 38.7502C346.464 39.1436 346.028 40.0402 345.161 41.4402C344.548 42.4269 344.481 43.3869 344.961 44.3202C345.027 44.4492 345.133 44.5576 345.267 44.6335C345.401 44.7094 345.558 44.7498 345.721 44.7502C346.494 44.7502 347.268 44.7502 348.041 44.7502C348.188 44.7502 348.961 44.8336 350.361 45.0002C352.048 45.2069 352.538 44.2936 351.831 42.2602C351.733 41.9937 351.534 41.7485 351.261 41.5602L350.871 41.2902C350.752 41.2106 350.657 41.0957 350.593 40.9571C350.53 40.8186 350.502 40.661 350.511 40.5002L350.781 34.3102C350.854 32.6502 351.084 32.6302 351.471 34.2502L353.801 44.0602C353.848 44.2477 353.941 44.415 354.066 44.5388C354.192 44.6625 354.344 44.7365 354.501 44.7502L359.041 45.1502C359.166 45.1605 359.297 45.1095 359.411 45.0056C359.526 44.9017 359.618 44.7515 359.671 44.5802L363.251 33.0302C363.391 32.5769 363.451 32.5869 363.431 33.0602ZM207.381 33.9702C206.748 31.8569 207.384 30.7769 209.291 30.7302C210.051 30.7102 210.501 30.6969 210.641 30.6902C211.661 30.6636 212.044 30.9869 211.791 31.6602C211.75 31.7702 211.733 31.888 211.741 32.0052C211.75 32.1224 211.784 32.2364 211.841 32.3392C211.898 32.4419 211.977 32.531 212.072 32.6003C212.167 32.6696 212.276 32.7173 212.391 32.7402C215.331 33.3136 216.561 32.8502 216.081 31.3502C215.834 30.5769 215.798 29.7969 215.971 29.0102C216.284 27.5369 215.934 26.8836 214.921 27.0502C214.321 27.1502 213.968 27.2036 213.861 27.2102C210.661 27.3236 207.461 27.4802 204.261 27.6802C204.201 27.6869 203.504 27.6802 202.171 27.6602C200.111 27.6336 199.481 28.6736 200.281 30.7802C200.326 30.8996 200.415 31.0046 200.537 31.0827C200.66 31.1608 200.81 31.2086 200.971 31.2202C201.198 31.2402 201.408 31.3102 201.601 31.4302C201.715 31.5009 201.811 31.613 201.881 31.7562C201.951 31.8994 201.992 32.0692 202.001 32.2502C202.154 35.3302 202.311 38.4136 202.471 41.5002C202.511 42.2936 202.278 42.7336 201.771 42.8202C201.605 42.8505 201.455 42.9096 201.337 42.9908C201.218 43.0721 201.137 43.1723 201.101 43.2802C200.828 44.0936 200.828 44.9102 201.101 45.7302C201.147 45.8681 201.238 45.9869 201.361 46.0682C201.484 46.1496 201.632 46.189 201.781 46.1802L216.281 45.3602C216.427 45.3519 216.563 45.2904 216.661 45.1891C216.758 45.0879 216.809 44.9552 216.801 44.8202L216.491 40.0502C216.483 39.9111 216.422 39.7789 216.317 39.6779C216.212 39.5769 216.072 39.5138 215.921 39.5002C214.734 39.3736 213.591 39.5036 212.491 39.8902C212.37 39.9317 212.269 40.021 212.208 40.141C212.147 40.2609 212.13 40.4031 212.161 40.5402C212.474 42.0069 211.824 42.6102 210.211 42.3502C209.911 42.3036 209.591 42.3202 209.251 42.4002C208.231 42.6469 207.761 42.2002 207.841 41.0602C207.868 40.7136 207.834 40.3902 207.741 40.0902C207.241 38.4102 207.898 37.7369 209.711 38.0702C212.364 38.5636 213.338 37.6169 212.631 35.2302C212.584 35.0775 212.496 34.9424 212.379 34.8426C212.261 34.7427 212.119 34.6827 211.971 34.6702L208.041 34.4302C207.886 34.4184 207.739 34.3682 207.622 34.2861C207.504 34.2041 207.42 34.094 207.381 33.9702ZM383.051 39.2802L380.911 32.3002C380.875 32.1869 380.886 32.0572 380.942 31.9298C380.997 31.8023 381.095 31.6835 381.221 31.5902C381.868 31.1102 382.078 30.1036 381.851 28.5702C381.828 28.4208 381.753 28.2837 381.638 28.1818C381.524 28.0798 381.376 28.0193 381.221 28.0102L373.471 27.5402C373.313 27.5313 373.159 27.5645 373.027 27.6357C372.896 27.707 372.792 27.8129 372.731 27.9402C371.944 29.5269 372.271 30.6702 373.711 31.3702C374 31.5112 374.222 31.7509 374.331 32.0402L379.601 45.7202C379.66 45.8817 379.756 46.0222 379.877 46.1251C379.997 46.228 380.138 46.2888 380.281 46.3002L384.021 46.6002C384.164 46.6089 384.309 46.5691 384.441 46.4857C384.572 46.4022 384.683 46.2787 384.761 46.1302L391.551 33.0202C391.681 32.7667 391.919 32.5359 392.231 32.3602C393.238 31.8002 393.558 30.8036 393.191 29.3702C393.151 29.2184 393.068 29.0829 392.953 28.9826C392.838 28.8823 392.698 28.8221 392.551 28.8102L386.661 28.4402C386.509 28.4294 386.357 28.4687 386.231 28.5519C386.104 28.6352 386.009 28.7577 385.961 28.9002C385.601 29.9336 385.784 31.1202 386.511 32.4602C386.563 32.5564 386.592 32.6632 386.593 32.7713C386.595 32.8794 386.57 32.9855 386.521 33.0802L383.451 39.3102C383.291 39.6302 383.158 39.6202 383.051 39.2802ZM184.781 32.5102H185.911C186.042 32.5114 186.169 32.5687 186.265 32.6707C186.362 32.7727 186.421 32.9118 186.431 33.0602L187.071 43.1902C187.076 43.2642 187.064 43.3383 187.038 43.4073C187.012 43.4764 186.971 43.5388 186.919 43.5902C186.866 43.6416 186.804 43.6807 186.735 43.7049C186.666 43.7291 186.593 43.7378 186.521 43.7302C184.854 43.5836 184.561 44.6302 185.641 46.8702C185.697 46.9886 185.786 47.0873 185.895 47.1534C186.004 47.2194 186.128 47.2497 186.251 47.2402L194.071 46.6902C194.22 46.6783 194.36 46.6165 194.469 46.5148C194.578 46.4132 194.649 46.2776 194.671 46.1302C195.011 43.9969 194.504 43.0236 193.151 43.2102C193.084 43.2194 193.016 43.2164 192.951 43.2015C192.886 43.1867 192.825 43.1602 192.773 43.1237C192.72 43.0873 192.677 43.0415 192.646 42.9894C192.615 42.9372 192.596 42.8797 192.591 42.8202L191.801 32.8102C191.789 32.6541 191.82 32.4983 191.891 32.3605C191.962 32.2226 192.069 32.1082 192.201 32.0302C193.434 31.3102 194.021 31.9069 193.961 33.8202C193.956 34.0242 194.022 34.2234 194.148 34.3839C194.274 34.5444 194.452 34.6563 194.651 34.7002C197.171 35.2669 198.261 34.7869 197.921 33.2602C197.688 32.1869 197.641 30.8969 197.781 29.3902C197.794 29.2357 197.774 29.0801 197.723 28.9341C197.672 28.7881 197.59 28.655 197.484 28.544C197.378 28.433 197.249 28.3466 197.107 28.2907C196.965 28.2349 196.813 28.2108 196.661 28.2202L180.711 29.2702C180.635 29.2756 180.561 29.2951 180.492 29.3276C180.424 29.3602 180.363 29.4051 180.313 29.4599C180.263 29.5147 180.224 29.5783 180.2 29.647C180.176 29.7157 180.166 29.7881 180.171 29.8602L180.531 35.3602C180.54 35.5046 180.601 35.6434 180.706 35.7553C180.811 35.8673 180.953 35.9463 181.111 35.9802C183.764 36.5402 184.858 35.5636 184.391 33.0502C184.379 32.9844 184.38 32.9168 184.394 32.8521C184.408 32.7875 184.435 32.7273 184.472 32.6759C184.509 32.6245 184.556 32.583 184.609 32.5544C184.663 32.5258 184.721 32.5107 184.781 32.5102ZM395.541 30.0202C395.121 31.5736 395.284 32.4502 396.031 32.6502C396.18 32.6901 396.311 32.7669 396.403 32.8674C396.494 32.9678 396.539 33.0856 396.531 33.2002L395.731 43.1502C395.723 43.2559 395.693 43.3586 395.642 43.4523C395.591 43.5459 395.521 43.6285 395.436 43.6949C395.351 43.7614 395.252 43.8103 395.147 43.8387C395.041 43.8671 394.93 43.8745 394.821 43.8602C394.021 43.7669 393.821 44.7436 394.221 46.7902C394.258 46.9688 394.354 47.1308 394.495 47.2516C394.635 47.3725 394.813 47.4457 395.001 47.4602L408.701 48.5002C408.83 48.5113 408.959 48.4968 409.082 48.4576C409.205 48.4185 409.318 48.3555 409.415 48.2724C409.512 48.1893 409.591 48.0878 409.647 47.9741C409.703 47.8603 409.735 47.7365 409.741 47.6102L409.971 43.5802C409.976 43.429 409.934 43.2799 409.849 43.1542C409.765 43.0286 409.643 42.9327 409.501 42.8802C408.068 42.3536 406.901 42.1969 406.001 42.4102C405.877 42.4371 405.768 42.5179 405.695 42.6376C405.621 42.7573 405.588 42.9075 405.601 43.0602C405.734 44.3802 405.268 44.9102 404.201 44.6502C403.854 44.5702 403.528 44.5536 403.221 44.6002C401.548 44.8602 400.914 44.2336 401.321 42.7202C401.394 42.4336 401.414 42.1136 401.381 41.7602C401.328 41.2469 401.421 40.7902 401.661 40.3902C401.719 40.2975 401.824 40.2219 401.964 40.1723C402.103 40.1228 402.272 40.1012 402.451 40.1102L405.911 40.2502C406.052 40.2566 406.194 40.2081 406.315 40.1123C406.436 40.0165 406.53 39.8787 406.581 39.7202C407.354 37.2936 406.288 36.3236 403.381 36.8102C403.239 36.8345 403.094 36.8305 402.953 36.7983C402.813 36.7662 402.681 36.7065 402.563 36.6229C402.446 36.5392 402.347 36.4331 402.271 36.3108C402.195 36.1885 402.144 36.0524 402.121 35.9102C401.768 33.7636 402.224 32.7836 403.491 32.9702C404.191 33.0702 404.724 33.1302 405.091 33.1502C406.084 33.1969 406.451 33.7169 406.191 34.7102C406.155 34.8519 406.165 34.9995 406.221 35.1261C406.276 35.2528 406.372 35.35 406.491 35.4002C407.671 35.9002 408.898 36.0336 410.171 35.8002C410.298 35.7744 410.414 35.7002 410.502 35.5885C410.591 35.4769 410.646 35.3337 410.661 35.1802L411.041 31.3302C411.057 31.1704 411.042 31.0092 410.998 30.8561C410.954 30.7031 410.881 30.5613 410.784 30.4391C410.687 30.3169 410.568 30.2169 410.434 30.145C410.299 30.073 410.152 30.0306 410.001 30.0202L396.911 29.0602C396.604 29.0371 396.299 29.1205 396.049 29.2958C395.799 29.471 395.619 29.7273 395.541 30.0202ZM162.781 42.2702L166.161 41.9802C166.319 41.9653 166.469 41.9093 166.591 41.8188C166.713 41.7284 166.804 41.6073 166.851 41.4702C167.178 40.5302 167.114 39.6202 166.661 38.7402C166.607 38.6366 166.508 38.5509 166.377 38.4939C166.245 38.437 166.086 38.4114 165.921 38.4202L162.411 38.6102C162.266 38.6179 162.123 38.5658 162.013 38.4651C161.903 38.3643 161.834 38.2227 161.821 38.0702L161.531 34.8202C161.52 34.6814 161.567 34.5438 161.66 34.4372C161.754 34.3305 161.887 34.2634 162.031 34.2502L164.931 33.9902C165.015 33.9824 165.1 33.9953 165.179 34.0278C165.257 34.0604 165.327 34.1116 165.382 34.1772C165.436 34.2428 165.475 34.3209 165.494 34.405C165.513 34.489 165.512 34.5766 165.491 34.6602C165.158 36.0002 165.658 36.5069 166.991 36.1802C167.658 36.0202 168.334 35.9669 169.021 36.0202C169.974 36.1002 170.361 35.7236 170.181 34.8902C170.061 34.3302 170.008 33.8969 170.021 33.5902C170.061 32.5302 169.914 31.5102 169.581 30.5302C169.535 30.3986 169.446 30.286 169.326 30.21C169.207 30.134 169.064 30.0989 168.921 30.1102L154.981 31.2902C154.833 31.3016 154.691 31.3587 154.577 31.4536C154.462 31.5485 154.38 31.6766 154.341 31.8202C153.854 33.6002 154.214 34.6502 155.421 34.9702C155.571 35.0113 155.704 35.0899 155.803 35.1955C155.901 35.3011 155.96 35.4284 155.971 35.5602L156.941 45.2502C156.953 45.3879 156.92 45.5303 156.846 45.6612C156.772 45.792 156.659 45.906 156.521 45.9902C155.261 46.7636 154.994 47.8702 155.721 49.3102C155.786 49.438 155.891 49.5433 156.023 49.6127C156.155 49.6822 156.307 49.7126 156.461 49.7002L164.561 49.0102C164.687 48.9996 164.805 48.9496 164.898 48.8681C164.99 48.7867 165.051 48.6784 165.071 48.5602C165.524 46.1069 164.918 45.1002 163.251 45.5402C163.108 45.5774 162.959 45.5678 162.829 45.5129C162.699 45.4581 162.597 45.3616 162.541 45.2402C162.174 44.4802 162.058 43.6669 162.191 42.8002C162.211 42.6636 162.281 42.5373 162.387 42.4413C162.494 42.3453 162.633 42.2851 162.781 42.2702ZM419.571 45.1902L420.191 35.5002C420.2 35.3586 420.25 35.2205 420.336 35.1008C420.423 34.981 420.542 34.884 420.681 34.8202C422.048 34.1869 422.454 33.0669 421.901 31.4602C421.86 31.3381 421.773 31.2295 421.653 31.1477C421.532 31.0659 421.382 31.0147 421.221 31.0002L414.911 30.4002C414.746 30.3851 414.585 30.4069 414.445 30.4634C414.306 30.5198 414.194 30.6087 414.121 30.7202C413.254 32.0669 413.408 33.2269 414.581 34.2002C414.701 34.3021 414.795 34.4283 414.854 34.5677C414.914 34.7072 414.937 34.8557 414.921 35.0002C414.694 37.3402 414.481 39.6802 414.281 42.0202C414.281 42.0402 414.291 42.5269 414.311 43.4802C414.338 44.3736 413.964 44.9936 413.191 45.3402C413.019 45.4157 412.871 45.5148 412.763 45.6262C412.655 45.7375 412.592 45.8568 412.581 45.9702L412.361 48.0602C412.354 48.1273 412.363 48.1954 412.386 48.2605C412.41 48.3256 412.449 48.3864 412.5 48.4394C412.551 48.4924 412.614 48.5366 412.684 48.5693C412.755 48.6021 412.832 48.6228 412.911 48.6302L426.161 49.9102C426.307 49.9226 426.452 49.8814 426.564 49.7954C426.676 49.7094 426.747 49.5855 426.761 49.4502L427.291 43.9402C427.306 43.7975 427.266 43.652 427.179 43.5269C427.092 43.4018 426.962 43.3044 426.811 43.2502C425.718 42.8502 424.598 42.8002 423.451 43.1002C423.32 43.1367 423.205 43.2209 423.129 43.338C423.052 43.455 423.017 43.5975 423.031 43.7402C423.244 46.0936 422.234 46.8102 420.001 45.8902C419.865 45.8355 419.75 45.7381 419.673 45.6122C419.595 45.4864 419.56 45.3385 419.571 45.1902ZM152.254 39.7479C152.166 38.6523 151.863 37.5848 151.362 36.6063C150.862 35.6278 150.173 34.7575 149.336 34.0451C148.499 33.3327 147.53 32.7922 146.484 32.4543C145.438 32.1165 144.336 31.988 143.24 32.0761L141.625 32.206C140.53 32.2942 139.462 32.5973 138.484 33.098C137.505 33.5987 136.635 34.2873 135.923 35.1243C135.21 35.9614 134.67 36.9305 134.332 37.9765C133.994 39.0225 133.865 40.1247 133.954 41.2203L134.148 43.6325C134.236 44.7282 134.539 45.7957 135.04 46.7742C135.54 47.7527 136.229 48.623 137.066 49.3354C137.903 50.0478 138.872 50.5883 139.918 50.9261C140.964 51.264 142.066 51.3925 143.162 51.3043L144.777 51.1744C145.872 51.0863 146.94 50.7832 147.918 50.2825C148.897 49.7818 149.767 49.0932 150.48 48.2562C151.192 47.4191 151.732 46.4499 152.07 45.404C152.408 44.358 152.537 43.2558 152.449 42.1601L152.254 39.7479ZM430.911 46.6702C429.904 46.6969 429.474 47.2269 429.621 48.2602C429.661 48.5336 429.634 48.8502 429.541 49.2102C429.494 49.4169 429.484 49.6236 429.511 49.8302C429.531 49.9644 429.604 50.0892 429.718 50.1852C429.832 50.2811 429.981 50.3427 430.141 50.3602C432.588 50.5869 435.028 50.8236 437.461 51.0702C441.374 51.4636 444.274 50.4336 446.161 47.9802C447.868 45.7669 448.488 43.1369 448.021 40.0902C447.414 36.0969 444.668 33.7102 439.781 32.9302C437.274 32.5302 434.758 32.2336 432.231 32.0402C432.071 32.0283 431.912 32.0564 431.773 32.1216C431.634 32.1868 431.519 32.2866 431.441 32.4102C430.554 33.8436 430.754 34.9602 432.041 35.7602C432.173 35.8439 432.279 35.9576 432.348 36.0883C432.417 36.2191 432.446 36.3618 432.431 36.5002L431.471 46.1902C431.456 46.3186 431.391 46.4376 431.289 46.5257C431.186 46.6138 431.052 46.665 430.911 46.6702ZM130.481 47.9502L129.341 38.0502C129.326 37.9259 129.361 37.7981 129.439 37.6887C129.517 37.5793 129.635 37.495 129.771 37.4502C130.864 37.0636 130.984 36.0236 130.131 34.3302C130.063 34.1954 129.956 34.0841 129.824 34.0109C129.692 33.9378 129.541 33.9062 129.391 33.9202C127.791 34.0602 126.248 34.2202 124.761 34.4002C124.688 34.4069 124.158 34.4202 123.171 34.4402C121.951 34.4602 121.634 35.1469 122.221 36.5002C122.396 36.9035 122.585 37.263 122.763 37.5309C122.942 37.7989 123.102 37.9626 123.221 38.0002C123.834 38.2136 124.114 38.6336 124.061 39.2602C124.034 39.6202 124.071 39.9369 124.171 40.2102C124.538 41.2636 124.158 41.8802 123.031 42.0602C121.784 42.2669 120.741 42.3602 119.901 42.3402C119.759 42.3364 119.624 42.2818 119.519 42.1863C119.415 42.0909 119.348 41.9609 119.331 41.8202L119.021 39.4902C119.003 39.3559 119.03 39.2147 119.099 39.0835C119.168 38.9523 119.276 38.8366 119.411 38.7502C120.578 37.9836 120.841 36.8869 120.201 35.4602C120.139 35.3236 120.036 35.2096 119.905 35.1343C119.774 35.059 119.622 35.0261 119.471 35.0402L112.831 35.7402C112.692 35.7552 112.561 35.8117 112.454 35.9026C112.348 35.9934 112.27 36.1145 112.231 36.2502C111.711 38.2236 111.978 39.2836 113.031 39.4302C113.18 39.4497 113.317 39.5096 113.42 39.6003C113.524 39.691 113.587 39.8072 113.601 39.9302L114.681 49.5102C114.696 49.6472 114.673 49.7926 114.614 49.9349C114.555 50.0772 114.462 50.2125 114.341 50.3302C113.354 51.2769 113.208 52.3802 113.901 53.6402C113.973 53.771 114.083 53.8776 114.218 53.947C114.353 54.0163 114.507 54.0453 114.661 54.0302L121.411 53.2602C121.561 53.242 121.702 53.1799 121.816 53.0819C121.93 52.9839 122.012 52.8545 122.051 52.7102C122.464 51.0902 121.951 50.0436 120.511 49.5702C120.367 49.5208 120.241 49.4353 120.15 49.3246C120.059 49.214 120.007 49.0836 120.001 48.9502L119.911 46.7002C119.906 46.55 119.949 46.4018 120.036 46.2775C120.122 46.1533 120.247 46.0595 120.391 46.0102C121.644 45.5902 122.928 45.4736 124.241 45.6602C124.398 45.685 124.542 45.7563 124.648 45.8621C124.754 45.9678 124.815 46.1014 124.821 46.2402L124.961 48.6902C124.968 48.8083 124.922 48.936 124.829 49.0571C124.736 49.1782 124.601 49.2872 124.441 49.3702C123.848 49.6702 123.634 50.1402 123.801 50.7802C123.894 51.1469 123.934 51.4702 123.921 51.7502C123.868 52.7636 124.254 53.1736 125.081 52.9802C125.881 52.7936 126.324 52.6969 126.411 52.6902C128.031 52.5436 129.718 52.3902 131.471 52.2302C131.631 52.2164 131.782 52.1489 131.899 52.0384C132.017 51.9279 132.095 51.7807 132.121 51.6202C132.428 49.8336 132.061 48.7969 131.021 48.5102C130.877 48.4725 130.749 48.3989 130.652 48.2989C130.556 48.199 130.496 48.0774 130.481 47.9502Z" fill="white"/>
<path d="M106.33 94.1999C107.15 94.6333 107.103 94.9133 106.19 95.0399C78.5099 98.8533 50.8132 103.517 23.0999 109.03C22.9892 109.052 22.8746 109.046 22.7674 109.01C22.6602 108.975 22.564 108.912 22.4883 108.829C22.4126 108.745 22.36 108.643 22.3357 108.533C22.3115 108.422 22.3163 108.308 22.3499 108.2L34.1399 71.5799C34.2285 71.3081 34.2368 71.0183 34.1638 70.7476C34.0908 70.4768 33.9397 70.2374 33.7299 70.0599L0.729853 41.8299C0.289853 41.4499 0.349853 41.2033 0.909853 41.0899C25.5965 36.0833 50.1465 31.8066 74.5599 28.2599C74.6996 28.2405 74.8414 28.2727 74.9577 28.3503C75.0741 28.4278 75.1568 28.5453 75.1899 28.6799L88.4499 84.1999C88.4877 84.3602 88.5556 84.5085 88.6488 84.6345C88.742 84.7605 88.8584 84.8613 88.9899 84.9299L106.33 94.1999Z" fill="white"/>
<path d="M275.56 31.56C275.266 32.9334 274.35 33.5067 272.81 33.28C272.658 33.2598 272.516 33.195 272.4 33.0937C272.285 32.9923 272.201 32.8589 272.16 32.71C271.853 31.57 271.853 30.4334 272.16 29.3C272.202 29.1523 272.286 29.0204 272.401 28.9208C272.517 28.8212 272.659 28.7583 272.81 28.74C275.103 28.4667 276.02 29.4067 275.56 31.56Z" fill="white"/>
<path d="M237.179 30.7102C238.212 32.2369 237.632 33.2302 235.439 33.6902C234.432 33.8969 234.002 33.4969 234.149 32.4902C234.196 32.1436 234.179 31.8236 234.099 31.5302C233.706 30.0702 234.216 29.4602 235.629 29.7002C236.282 29.8136 236.799 30.1502 237.179 30.7102Z" fill="white"/>
<path d="M525.96 72.5399L537.64 109.66C537.681 109.787 537.688 109.922 537.659 110.053C537.631 110.183 537.569 110.304 537.48 110.404C537.39 110.504 537.276 110.579 537.148 110.622C537.02 110.665 536.883 110.675 536.75 110.65C509.03 105.183 481.524 100.583 454.23 96.8499C453.117 96.6965 453.057 96.3532 454.05 95.8199L471 86.6799C471.138 86.6079 471.26 86.5046 471.357 86.3768C471.453 86.2491 471.523 86.1 471.56 85.9399L484.64 30.3699C484.678 30.2189 484.771 30.0873 484.9 30.0005C485.029 29.9137 485.186 29.8779 485.34 29.8999C510.3 33.6399 535.02 37.9399 559.5 42.7999C559.887 42.8732 559.93 43.0365 559.63 43.2899L526.19 71.7399C526.078 71.835 525.996 71.9615 525.955 72.1037C525.915 72.246 525.916 72.3976 525.96 72.5399Z" fill="white"/>
<path d="M140.667 41.9492C140.997 44.9909 142.498 47.3228 144.019 47.1576C145.54 46.9924 146.505 44.3926 146.174 41.3509C145.844 38.3091 144.343 35.9772 142.822 36.1424C141.301 36.3076 140.336 38.9074 140.667 41.9492Z" fill="white"/>
<path d="M437.929 37.9999C438.043 36.0466 438.906 35.6499 440.519 36.8099C441.173 37.2766 441.649 37.8799 441.949 38.6199C442.856 40.8066 442.736 43.0433 441.589 45.3299C440.903 46.7033 439.669 47.4333 437.889 47.5199C437.801 47.5242 437.714 47.5101 437.632 47.4784C437.55 47.4468 437.475 47.3983 437.413 47.3362C437.351 47.274 437.302 47.1995 437.271 47.1175C437.239 47.0355 437.225 46.9477 437.229 46.8599C437.343 44.5999 437.526 42.4333 437.779 40.3599C437.793 40.2799 437.843 39.4933 437.929 37.9999Z" fill="white"/>
<path d="M237.81 37.3702C239.237 39.9769 238.387 41.2736 235.26 41.2602C235.1 41.2594 234.947 41.2072 234.831 41.1143C234.716 41.0215 234.648 40.8948 234.64 40.7602L234.45 37.5002C234.442 37.3556 234.489 37.211 234.584 37.0908C234.679 36.9706 234.815 36.8821 234.97 36.8402C235.67 36.6536 236.37 36.6402 237.07 36.8002C237.224 36.8349 237.37 36.9038 237.497 37.0021C237.625 37.1004 237.732 37.2259 237.81 37.3702Z" fill="white"/>
<path d="M174.04 93.16H176.04V107.16H174.04V93.16ZM166 107.16H164V93.16H166V107.16ZM174.22 100.92H165.8V99.18H174.22V100.92Z" fill="white"/>
<path d="M191.95 107.32C190.884 107.32 189.89 107.14 188.97 106.78C188.064 106.42 187.277 105.92 186.61 105.28C185.944 104.627 185.424 103.867 185.05 103C184.677 102.133 184.49 101.187 184.49 100.16C184.49 99.1333 184.677 98.1867 185.05 97.32C185.424 96.4533 185.944 95.7 186.61 95.06C187.277 94.4067 188.064 93.9 188.97 93.54C189.877 93.18 190.87 93 191.95 93C193.017 93 193.997 93.18 194.89 93.54C195.797 93.8867 196.584 94.3867 197.25 95.04C197.93 95.68 198.45 96.4333 198.81 97.3C199.184 98.1667 199.37 99.12 199.37 100.16C199.37 101.2 199.184 102.153 198.81 103.02C198.45 103.887 197.93 104.647 197.25 105.3C196.584 105.94 195.797 106.44 194.89 106.8C193.997 107.147 193.017 107.32 191.95 107.32ZM191.95 105.54C192.724 105.54 193.437 105.407 194.09 105.14C194.757 104.873 195.33 104.5 195.81 104.02C196.304 103.527 196.684 102.953 196.95 102.3C197.23 101.647 197.37 100.933 197.37 100.16C197.37 99.3867 197.23 98.6733 196.95 98.02C196.684 97.3667 196.304 96.8 195.81 96.32C195.33 95.8267 194.757 95.4467 194.09 95.18C193.437 94.9133 192.724 94.78 191.95 94.78C191.164 94.78 190.437 94.9133 189.77 95.18C189.117 95.4467 188.544 95.8267 188.05 96.32C187.557 96.8 187.17 97.3667 186.89 98.02C186.624 98.6733 186.49 99.3867 186.49 100.16C186.49 100.933 186.624 101.647 186.89 102.3C187.17 102.953 187.557 103.527 188.05 104.02C188.544 104.5 189.117 104.873 189.77 105.14C190.437 105.407 191.164 105.54 191.95 105.54Z" fill="white"/>
<path d="M209.647 99.2H216.847V100.9H209.647V99.2ZM209.827 105.42H217.987V107.16H207.827V93.16H217.707V94.9H209.827V105.42Z" fill="white"/>
<path d="M230.47 107.16L224.31 93.16H226.47L232.13 106.08H230.89L236.59 93.16H238.59L232.45 107.16H230.47Z" fill="white"/>
<path d="M247.596 99.2H254.796V100.9H247.596V99.2ZM247.776 105.42H255.936V107.16H245.776V93.16H255.656V94.9H247.776V105.42Z" fill="white"/>
<path d="M268.654 107.32C267.588 107.32 266.568 107.16 265.594 106.84C264.621 106.507 263.854 106.08 263.294 105.56L264.034 104C264.568 104.467 265.248 104.853 266.074 105.16C266.901 105.467 267.761 105.62 268.654 105.62C269.468 105.62 270.128 105.527 270.634 105.34C271.141 105.153 271.514 104.9 271.754 104.58C271.994 104.247 272.114 103.873 272.114 103.46C272.114 102.98 271.954 102.593 271.634 102.3C271.328 102.007 270.921 101.773 270.414 101.6C269.921 101.413 269.374 101.253 268.774 101.12C268.174 100.987 267.568 100.833 266.954 100.66C266.354 100.473 265.801 100.24 265.294 99.96C264.801 99.68 264.401 99.3067 264.094 98.84C263.788 98.36 263.634 97.7467 263.634 97C263.634 96.28 263.821 95.62 264.194 95.02C264.581 94.4067 265.168 93.92 265.954 93.56C266.754 93.1867 267.768 93 268.994 93C269.808 93 270.614 93.1067 271.414 93.32C272.214 93.5333 272.908 93.84 273.494 94.24L272.834 95.84C272.234 95.44 271.601 95.1533 270.934 94.98C270.268 94.7933 269.621 94.7 268.994 94.7C268.208 94.7 267.561 94.8 267.054 95C266.548 95.2 266.174 95.4667 265.934 95.8C265.708 96.1333 265.594 96.5067 265.594 96.92C265.594 97.4133 265.748 97.8067 266.054 98.1C266.374 98.3933 266.781 98.6267 267.274 98.8C267.781 98.9733 268.334 99.1333 268.934 99.28C269.534 99.4133 270.134 99.5667 270.734 99.74C271.348 99.9133 271.901 100.14 272.394 100.42C272.901 100.7 273.308 101.073 273.614 101.54C273.921 102.007 274.074 102.607 274.074 103.34C274.074 104.047 273.881 104.707 273.494 105.32C273.108 105.92 272.508 106.407 271.694 106.78C270.894 107.14 269.881 107.32 268.654 107.32Z" fill="white"/>
<path d="M282.396 107.16V93.16H284.396V105.42H291.976V107.16H282.396Z" fill="white"/>
<path d="M297.551 107.16L303.891 93.16H305.871L312.231 107.16H310.131L304.471 94.28H305.271L299.611 107.16H297.551ZM300.251 103.66L300.791 102.06H308.671L309.251 103.66H300.251Z" fill="white"/>
<path d="M325.844 107.32C324.764 107.32 323.771 107.147 322.864 106.8C321.958 106.44 321.171 105.94 320.504 105.3C319.838 104.647 319.318 103.887 318.944 103.02C318.571 102.153 318.384 101.2 318.384 100.16C318.384 99.12 318.571 98.1667 318.944 97.3C319.318 96.4333 319.838 95.68 320.504 95.04C321.184 94.3867 321.978 93.8867 322.884 93.54C323.791 93.18 324.791 93 325.884 93C326.991 93 328.004 93.18 328.924 93.54C329.844 93.9 330.624 94.44 331.264 95.16L330.024 96.4C329.451 95.84 328.824 95.4333 328.144 95.18C327.478 94.9133 326.751 94.78 325.964 94.78C325.164 94.78 324.418 94.9133 323.724 95.18C323.044 95.4467 322.451 95.82 321.944 96.3C321.451 96.78 321.064 97.3533 320.784 98.02C320.518 98.6733 320.384 99.3867 320.384 100.16C320.384 100.92 320.518 101.633 320.784 102.3C321.064 102.953 321.451 103.527 321.944 104.02C322.451 104.5 323.044 104.873 323.724 105.14C324.404 105.407 325.144 105.54 325.944 105.54C326.691 105.54 327.404 105.427 328.084 105.2C328.778 104.96 329.418 104.567 330.004 104.02L331.144 105.54C330.451 106.127 329.638 106.573 328.704 106.88C327.784 107.173 326.831 107.32 325.844 107.32ZM329.224 105.28V100.08H331.144V105.54L329.224 105.28Z" fill="white"/>
<path d="M342.193 99.2H349.393V100.9H342.193V99.2ZM342.373 105.42H350.533V107.16H340.373V93.16H350.253V94.9H342.373V105.42Z" fill="white"/>
<path d="M359.172 107.16V93.16H364.632C365.859 93.16 366.905 93.3533 367.772 93.74C368.639 94.1267 369.305 94.6867 369.772 95.42C370.239 96.1533 370.472 97.0267 370.472 98.04C370.472 99.0533 370.239 99.9267 369.772 100.66C369.305 101.38 368.639 101.933 367.772 102.32C366.905 102.707 365.859 102.9 364.632 102.9H360.272L361.172 101.98V107.16H359.172ZM368.532 107.16L364.972 102.08H367.112L370.712 107.16H368.532ZM361.172 102.18L360.272 101.2H364.572C365.852 101.2 366.819 100.927 367.472 100.38C368.139 99.82 368.472 99.04 368.472 98.04C368.472 97.04 368.139 96.2667 367.472 95.72C366.819 95.1733 365.852 94.9 364.572 94.9H360.272L361.172 93.9V102.18Z" fill="white"/>
<path d="M379.103 107.16V93.16H381.103V107.16H379.103Z" fill="white"/>
<path d="M392.495 107.32C391.668 107.32 390.895 107.147 390.175 106.8C389.455 106.453 388.868 105.953 388.415 105.3L389.575 103.94C389.961 104.473 390.395 104.887 390.875 105.18C391.368 105.46 391.908 105.6 392.495 105.6C394.095 105.6 394.895 104.653 394.895 102.76V94.9H389.835V93.16H396.875V102.66C396.875 104.22 396.501 105.387 395.755 106.16C395.021 106.933 393.935 107.32 392.495 107.32Z" fill="white"/>
</g>
<defs>
<clipPath id="clip0_119_83">
<rect width="560" height="111" fill="white"/>
</clipPath>
</defs>
</svg>
