<svg width="439" height="223" viewBox="0 0 439 223" fill="none" xmlns="http://www.w3.org/2000/svg">
<path fill-rule="evenodd" clip-rule="evenodd" d="M140.08 0.409912H297.72V109.17H140.08V0.409912ZM157.93 20.3099V88.5199H165.93V20.3099H157.93ZM215.46 27.5299H202.34V19.5299H215.46V27.5299ZM236.717 14.6L271.59 73.8154V18.5699H279.59V88.4899L272.143 90.5197L229.823 18.6597L236.717 14.6Z" fill="white"/>
<path d="M1.1001 165.57H3.0201V221.44H1.1001V165.57Z" fill="white"/>
<path d="M17.7998 165.57H20.5198L65.5998 218.17V165.57H67.9498V221.44H65.2298L20.1498 168.84V221.44H17.7998V165.57Z" fill="white"/>
<path d="M91.7798 168.09H74.8198V165.58H110.71V168.09H93.6998V221.44H91.7798V168.09Z" fill="white"/>
<path d="M118.48 165.57H144.25V168.08H119.94V191.45H143.48V193.96H119.94V218.92H144.25V221.43H118.48V165.56V165.57Z" fill="white"/>
<path d="M157.39 165.57H170.63C176.2 165.57 181.77 170.23 181.77 181.46C181.39 197.55 173.31 197.35 169.42 197.32H166.15L184.04 221.44H182.05L164.43 197.32H158.84V221.44H157.39V165.57ZM171.51 194.79C177.25 194.8 179.61 187.31 179.61 181.43C179.61 174 176.42 168.08 170.67 168.08H158.83V194.8H171.5L171.51 194.79Z" fill="white"/>
<path d="M302.81 165.57H316.05C321.62 165.57 327.19 170.23 327.19 181.46C326.81 197.55 318.73 197.35 314.84 197.32H311.57L329.46 221.44H327.47L309.85 197.32H304.26V221.44H302.81V165.57ZM316.93 194.79C322.67 194.8 325.03 187.31 325.03 181.43C325.03 174 321.84 168.08 316.09 168.08H304.25V194.8H316.92L316.93 194.79Z" fill="white"/>
<path d="M195.27 165.57H197.19V221.44H195.27V165.57Z" fill="white"/>
<path d="M213.59 165.57H239.36V168.08H215.05V191.45H238.59V193.96H215.05V218.92H239.36V221.43H213.59V165.56V165.57Z" fill="white"/>
<path d="M252.51 195.56V165.07H254.24V195.56C254.24 209.97 259.76 219.43 270.31 219.43C280.86 219.43 286.38 209.96 286.38 195.56V165.07H288.11V195.56C288.11 211.48 282.05 221.95 270.3 221.95C258.55 221.95 252.49 211.31 252.49 195.56H252.51Z" fill="white"/>
<path d="M341.13 165.57H342.57V218.93H364.12V221.44H341.13V165.57Z" stroke="white" stroke-width="3" stroke-miterlimit="10"/>
<path d="M373.85 165.57H375.77V221.44H373.85V165.57Z" stroke="white" stroke-width="3" stroke-miterlimit="10"/>
<path d="M390.27 165.57H392.82L435.06 218.17V165.57H437.26V221.44H434.71L392.47 168.84V221.44H390.27V165.57Z" stroke="white" stroke-width="3" stroke-miterlimit="10"/>
</svg>
