<svg id="Layer_1" xmlns="http://www.w3.org/2000/svg" viewBox="0 0 312.892 185.931">
    <defs>
        <style>.cls-1{fill:#fff;}</style>
    </defs>
    <path class="cls-1" d="M213.06,109.211h-57.531V44.218h57.531V109.211Zm-27.689-2.151h25.539v-29.271h-25.539v29.271Zm-27.691,0h25.54v-29.271h-25.54v29.271Zm27.691-31.422h25.539v-29.268h-25.539v29.268Zm-27.691,0h25.54v-29.268h-25.54v29.268Zm-49.117-6.78h-2.151V26.675l-17.51,8.305h-.636v-1.906l-.067-.142,.067-.032v-.072h.151L157.637,0l38.365,18.687-.941,1.934L157.625,2.387l-49.062,23.268v43.203Zm35.868-24.06h-15.608v-12.756h26.582v2.151h-24.43v8.454h13.457v2.151h-.001Z" />
    <g>
        <rect class="cls-1" x=".353" y="125.269" width="7.437" height="36.873" />
        <polygon class="cls-1" points="34.9 125.269 34.9 131.364 26.845 131.364 26.845 162.141 19.406 162.141 19.406 131.364 11.351 131.364 11.351 125.269 34.9 125.269" />
        <polygon class="cls-1" points="59.686 125.269 59.686 131.364 51.631 131.364 51.631 162.141 44.194 162.141 44.194 131.364 36.137 131.364 36.137 125.269 59.686 125.269" />
        <polygon class="cls-1" points="83.491 125.269 83.491 131.364 70.322 131.364 70.322 140.039 82.716 140.039 82.716 146.133 70.322 146.133 70.322 156.048 84.007 156.048 84.007 162.141 62.885 162.141 62.885 125.269 83.491 125.269" />
        <path class="cls-1" d="M95.16,141.381h3.099c3.562,0,5.577-1.55,5.577-5.526,0-3.409-1.808-5.112-5.165-5.112h-3.511v10.638Zm-7.436-16.112h13.736c6.095,0,9.813,3.203,9.813,9.502,0,4.905-1.962,8.211-6.146,9.089v.104c5.062,.671,5.834,3.459,5.938,11.258,.052,3.873,.259,5.889,1.652,6.61v.31h-8.055c-.722-1.031-.878-2.426-.929-3.874l-.206-7.074c-.105-2.891-1.396-4.646-4.392-4.646h-3.975v15.595h-7.437v-36.874h.001Z" />
        <path class="cls-1" d="M123.87,141.95h3.306c2.943,0,4.957-1.756,4.957-5.526,0-3.615-1.445-5.681-5.163-5.681h-3.099v11.207h-.001Zm-7.436-16.681h13.014c7.54,0,10.123,5.527,10.123,11.051,0,7.644-4.699,11.103-11.725,11.103h-3.975v14.719h-7.436v-36.873h-.001Z" />
        <polygon class="cls-1" points="143.234 162.142 143.234 125.269 150.67 125.269 150.67 156.048 163.839 156.048 163.839 162.142 143.234 162.142" />
        <path class="cls-1" d="M175.301,148.25h7.229l-3.562-16.576h-.104l-3.563,16.576Zm-.981-22.981h9.192l9.761,36.873h-7.747l-1.704-7.799h-9.812l-1.705,7.799h-7.746l9.761-36.873Z" />
        <path class="cls-1" d="M201.843,150.625v1.084c0,3.461,.98,5.681,4.905,5.681,2.274,0,4.44-1.446,4.44-4.544,0-3.355-1.703-4.596-6.608-6.301-6.611-2.272-9.658-5.009-9.658-11.155,0-7.177,4.39-10.845,11.414-10.845,6.61,0,11.413,2.842,11.413,9.916v1.032h-7.129c0-3.459-1.186-5.472-4.027-5.472-3.356,0-4.234,2.116-4.234,4.285,0,2.273,.672,3.668,3.821,5.009l5.733,2.48c5.577,2.427,7.023,5.266,7.023,9.761,0,7.798-4.752,11.308-12.808,11.308-8.417,0-11.723-3.924-11.723-10.739v-1.499h7.438v-.001Z" />
        <polygon class="cls-1" points="244.239 125.269 244.239 131.364 236.183 131.364 236.183 162.141 228.748 162.141 228.748 131.364 220.69 131.364 220.69 125.269 244.239 125.269" />
        <rect class="cls-1" x="247.8" y="125.269" width="7.437" height="36.873" />
        <polygon class="cls-1" points="281.366 125.269 281.366 131.364 268.197 131.364 268.197 140.039 280.591 140.039 280.591 146.133 268.197 146.133 268.197 156.048 281.883 156.048 281.883 162.141 260.762 162.141 260.762 125.269 281.366 125.269" />
        <polygon class="cls-1" points="293.035 125.269 293.035 140.039 293.138 140.039 302.537 125.269 310.592 125.269 300.575 141.072 311.729 162.141 303.364 162.141 295.772 147.009 293.035 151.193 293.035 162.141 285.598 162.141 285.598 125.269 293.035 125.269" />
        <path class="cls-1" d="M4.168,172.966c-1.357,0-1.955,1.276-1.955,2.683,0,1.39,.598,2.665,1.955,2.665s1.955-1.275,1.955-2.665c0-1.406-.598-2.683-1.955-2.683m-4.168-4.683H2.293v4.2h.033c.564-.856,1.598-1.243,2.632-1.243,1.665,0,3.457,1.339,3.457,4.392,0,3.069-1.792,4.411-3.457,4.411-1.227,0-2.245-.372-2.745-1.293h-.033v1.065H0v-11.532Z" />
        <rect class="cls-1" x="9.956" y="177.327" width="2.537" height="2.488" />
        <polygon class="cls-1" points="18.966 179.815 16.414 179.815 13.554 171.464 15.962 171.464 17.722 177.166 17.753 177.166 19.515 171.464 21.792 171.464 18.966 179.815" />
        <rect class="cls-1" x="21.948" y="177.327" width="2.535" height="2.488" />
        <path class="cls-1" d="M30.504,172.966c-1.357,0-1.955,1.276-1.955,2.683,0,1.39,.598,2.665,1.955,2.665s1.955-1.275,1.955-2.665c-.001-1.406-.598-2.683-1.955-2.683m-4.168-4.683h2.293v4.2h.033c.564-.856,1.598-1.243,2.632-1.243,1.665,0,3.458,1.339,3.458,4.392,0,3.069-1.793,4.411-3.458,4.411-1.226,0-2.244-.372-2.745-1.293h-.033v1.065h-2.18v-11.532Z" />
        <rect class="cls-1" x="36.293" y="177.327" width="2.537" height="2.488" />
        <path class="cls-1" d="M45.884,175.729c-.39,.338-1.197,.354-1.906,.484-.712,.146-1.359,.388-1.359,1.229,0,.856,.664,1.066,1.405,1.066,1.795,0,1.859-1.423,1.859-1.923v-.856h.001Zm-5.299-1.696c.128-2.148,2.052-2.795,3.924-2.795,1.665,0,3.667,.373,3.667,2.375v4.345c0,.76,.08,1.519,.29,1.857h-2.326c-.08-.257-.144-.531-.162-.808-.726,.759-1.793,1.033-2.809,1.033-1.584,0-2.844-.79-2.844-2.503,0-1.889,1.421-2.343,2.844-2.535,1.406-.21,2.714-.163,2.714-1.098,0-.987-.68-1.133-1.487-1.133-.872,0-1.437,.355-1.519,1.261h-2.292v.001Z" />
        <rect class="cls-1" x="50.041" y="177.327" width="2.537" height="2.488" />
        <path class="cls-1" d="M271.061,177.102c.018,1,.856,1.405,1.76,1.405,.664,0,1.503-.259,1.503-1.067,0-.692-.952-.936-2.599-1.29-1.326-.292-2.651-.762-2.651-2.231,0-2.131,1.841-2.681,3.636-2.681,1.824,0,3.505,.613,3.682,2.665h-2.181c-.063-.888-.743-1.131-1.566-1.131-.517,0-1.275,.098-1.275,.775,0,.825,1.292,.938,2.601,1.243,1.34,.308,2.649,.793,2.649,2.344,0,2.196-1.907,2.907-3.813,2.907-1.937,0-3.827-.727-3.925-2.939h2.179Z" />
        <rect class="cls-1" x="278.047" y="177.327" width="2.535" height="2.488" />
        <path class="cls-1" d="M288.637,175.666c0-1.326-.531-2.698-2.001-2.698-1.503,0-1.987,1.34-1.987,2.698,0,1.354,.518,2.647,2.003,2.647,1.501,0,1.985-1.293,1.985-2.647m-6.202-4.202h2.181v1.067h.033c.549-.89,1.452-1.293,2.485-1.293,2.619,0,3.797,2.116,3.797,4.491,0,2.229-1.227,4.312-3.666,4.312-1.001,0-1.954-.436-2.504-1.259h-.033v3.973h-2.293v-11.291Z" />
        <rect class="cls-1" x="292.391" y="177.327" width="2.536" height="2.488" />
        <path class="cls-1" d="M296.781,171.464h2.181v1.552h.033c.418-1.052,1.552-1.777,2.665-1.777,.161,0,.355,.033,.5,.08v2.134c-.21-.049-.549-.082-.823-.082-1.681,0-2.261,1.211-2.261,2.683v3.763h-2.295v-8.353Z" />
        <rect class="cls-1" x="301.707" y="177.327" width="2.534" height="2.488" />
        <rect class="cls-1" x="306.161" y="168.283" width="2.293" height="11.532" />
        <rect class="cls-1" x="310.355" y="177.327" width="2.537" height="2.488" />
    </g>
</svg>