<svg width="188" height="34" viewBox="0 0 188 34" fill="none" xmlns="http://www.w3.org/2000/svg">
<path d="M12.6158 5.752C11.5118 5.224 10.9838 4.264 10.7438 3.304C10.6478 2.92 10.7918 2.728 11.2718 2.728C15.2558 2.92 20.3438 1.528 23.0318 1.528C25.0958 1.528 26.3438 2.488 26.9678 3.976C27.1118 4.36 27.0157 4.696 26.3918 4.696C22.7918 4.648 19.4318 5.608 16.5038 6.04C14.8238 8.776 12.5678 12.664 10.2158 16.984C11.4638 16.744 12.5678 16.648 13.4318 16.6C15.8318 16.456 17.0318 17.464 17.4638 18.904C17.6078 19.336 17.5118 19.624 16.9358 19.624C14.5358 19.576 10.8398 20.296 8.10375 20.968C6.27975 24.52 4.50375 28.12 3.11175 31.336C2.91975 31.816 2.63175 31.816 2.29575 31.528C1.38375 30.76 0.90375 29.224 1.91175 26.248C3.35175 22.024 8.39175 12.616 12.6158 5.752ZM24.8419 15.832C26.3779 15.64 28.0099 14.872 29.7859 13.624C30.3619 13.24 30.7459 13.144 31.0819 13.528C31.9939 14.536 33.1459 16.648 31.7539 18.232C29.5939 20.68 27.2419 23.704 26.4739 26.2C25.7059 28.696 26.2819 30.568 27.6739 30.616C29.5459 30.712 31.8499 27.736 33.3859 24.28C33.5779 23.896 33.8659 23.848 34.0579 24.232C34.2979 24.76 34.3459 25.912 33.8179 27.208C32.7139 29.992 29.9299 32.008 27.3859 31.912C23.9299 31.768 22.5379 28.6 23.7379 25C24.7939 21.832 27.5779 18.424 29.4979 16.216C27.3859 17.608 25.3219 18.04 23.8819 18.04C22.0579 21.4 17.4499 28.216 16.5379 32.584C16.4419 33.016 16.1539 33.256 15.7219 32.824C14.3299 31.384 14.3299 29.176 15.6259 26.728C16.7299 24.616 19.9459 20.104 21.7219 17.56C18.9859 15.784 23.1619 10.12 24.9379 10.072C26.4259 10.024 26.0419 12.808 24.8419 15.832ZM43.9016 8.968C44.5256 10.216 44.1896 11.512 43.5656 12.184C42.9416 12.856 41.5976 12.712 40.8776 11.464C40.1096 10.168 40.3496 8.728 41.1176 7.912C41.8856 7.096 43.2776 7.672 43.9016 8.968ZM36.0776 31.72C32.4296 31.72 31.5176 28.648 32.8616 24.712C34.0616 21.208 37.2296 15.544 39.0056 13.048C39.4376 12.472 39.7736 12.328 40.1576 12.76C40.8776 13.528 41.2616 15.592 40.1096 17.992C39.1016 20.104 37.0856 23.368 36.0776 25.768C34.9256 28.552 35.0216 30.424 36.5576 30.328C38.7176 30.232 41.3576 27.064 42.7976 23.752C43.0376 23.32 43.3736 23.368 43.5656 23.752C43.9496 24.52 43.8056 25.528 43.2296 26.728C41.7896 29.704 38.7656 31.72 36.0776 31.72ZM48.4219 12.328C46.7899 12.328 45.6859 11.608 45.3019 11.08C44.8219 10.408 45.1099 10.072 45.8299 10.12C47.1739 10.168 48.5179 10.072 49.8139 9.928C51.3019 7.288 52.6459 5.032 53.4619 3.976C53.8939 3.352 54.3739 3.4 54.6139 3.976C55.1419 5.32 55.1419 6.904 53.9899 9.4C55.8619 9.352 56.5819 10.216 56.9659 10.84C57.3019 11.416 57.1099 11.752 56.3899 11.752C55.3339 11.608 53.8459 11.752 52.6459 11.944C50.7739 15.16 48.0379 19.816 46.2139 23.848C44.6299 27.352 45.1579 30.328 47.1739 30.424C49.3339 30.52 52.0699 27.112 53.8459 23.512C54.1339 22.936 54.6619 22.84 54.8539 23.512C55.0939 24.28 54.8539 25.144 54.3739 26.248C53.7499 27.64 50.5819 31.864 46.7419 31.72C43.5739 31.624 41.0299 28.072 43.3339 22.552C44.3419 20.152 46.3579 16.12 48.4219 12.328ZM61.6268 27.112C59.9468 29.368 57.4028 31.816 54.7148 31.624C51.3067 31.384 51.2107 27.832 52.2668 24.664C53.3228 21.496 55.7708 16.792 58.8908 12.424C59.2747 11.896 59.7548 11.944 60.1388 12.376C61.1948 13.96 60.9548 16.12 59.2268 18.856C57.4508 21.688 56.4908 23.608 55.4828 25.912C54.4748 28.264 54.6188 29.992 55.7228 30.088C57.5948 30.232 60.2348 26.872 62.8268 22.696C65.8508 17.8 67.2428 14.488 68.7788 12.424C69.2588 11.752 69.5948 11.656 69.9788 12.136C70.6988 13 71.0828 15.112 69.9308 17.512C68.8748 19.672 66.4748 23.272 65.3708 25.72C64.1228 28.456 64.3148 30.472 66.0428 30.376C68.0588 30.28 70.5068 27.112 72.3788 23.752C72.6188 23.32 73.0508 23.272 73.2428 23.704C73.4348 24.088 73.4828 25.384 72.8108 26.728C71.4188 29.416 68.4428 31.864 65.6108 31.864C62.4908 31.864 61.2428 29.896 61.6268 27.112ZM106.58 26.872C105.38 29.752 102.5 31.768 99.9563 31.72C96.2123 31.624 94.7723 28.312 95.9723 24.472C96.9803 21.256 99.9563 17.656 101.972 15.352C99.8603 16.696 97.7963 17.176 96.2123 17.176C93.7163 23.512 89.6363 31.192 84.4523 31.624C81.5723 31.864 80.1803 29.896 80.4203 27.16C78.7403 29.416 76.3403 31.768 73.7003 31.576C70.2442 31.336 70.1962 27.784 71.2523 24.664C72.3083 21.496 74.6603 16.84 77.8763 12.52C78.2603 12.04 78.6443 11.992 78.9803 12.472C80.1323 14.056 79.8923 16.024 78.1643 18.904C76.4843 21.736 75.2843 23.656 74.3723 25.912C73.4123 28.264 73.5563 29.944 74.6123 30.04C76.4843 30.184 79.1723 26.872 81.7163 22.744C84.7403 17.8 86.0843 14.584 87.6203 12.52C88.0523 11.944 88.3883 11.848 88.7723 12.232C89.4923 13 89.8763 15.112 88.7243 17.512C87.7163 19.672 85.2682 23.272 84.2123 25.72C83.0123 28.456 83.2523 30.328 84.7403 30.184C87.8123 29.896 91.7963 23.752 94.3403 16.936C90.5003 15.496 95.0123 9.016 96.9803 8.872C98.5163 8.776 98.1323 11.752 97.0763 14.92C98.7563 14.68 100.484 13.912 102.356 12.664C102.932 12.184 103.412 12.04 103.796 12.52C104.66 13.576 105.86 15.784 104.42 17.416C102.164 19.96 99.8603 23.272 98.9963 25.72C98.0843 28.36 98.6603 30.28 100.196 30.376C102.116 30.472 104.564 27.352 106.1 23.752C106.292 23.32 106.628 23.32 106.82 23.752C107.06 24.28 107.156 25.432 106.58 26.872ZM119.23 20.008C119.903 19.864 120.239 20.152 119.951 20.968C117.599 27.784 119.471 29.944 120.959 30.28C125.279 31.288 128.783 23.992 131.999 17.32C134.591 11.992 138.719 3.784 140.255 1.432C140.639 0.855999 141.071 0.903998 141.406 1.48C142.031 2.536 142.271 4.648 141.071 7.48C139.487 11.224 134.831 20.776 132.191 25.144C128.495 31.288 124.511 32.44 120.623 31.768C117.023 31.144 114.958 27.832 116.062 23.704C116.591 21.64 117.983 20.296 119.23 20.008ZM159.864 2.344C165.816 4.936 164.472 14.392 160.872 21.016C156.984 28.168 150.936 33.784 144.408 31.384C140.472 29.944 138.936 26.344 138.936 22.408C138.936 12.184 147.912 3.304 153.336 1.384C156.12 0.423999 158.52 0.951998 159.864 2.344ZM157.368 19.672C161.736 11.656 161.544 4.456 158.904 3.496C156.552 2.632 150.456 5.896 145.944 12.904C141.336 20.056 141.24 28.168 144.504 29.56C147.672 30.904 153.336 27.064 157.368 19.672ZM160.744 24.568C162.328 24.088 164.296 24.52 165.592 25.576C167.512 27.112 170.776 29.608 173.896 29.608C175.24 29.608 176.248 29.272 176.872 28.744C177.688 27.832 177.448 26.824 176.776 26.248C174.232 24.088 166.648 21.112 166.648 16.168C166.648 9.592 174.088 3.976 178.36 2.152C180.664 1.192 182.968 0.808 184.552 2.248C185.752 3.352 186.616 4.936 186.952 6.28C187.432 8.2 186.28 10.072 185.56 11.08C184.312 12.76 182.92 15.208 182.248 16.408C182.008 16.84 181.72 17.08 181.192 16.552C180.28 15.64 179.704 14.152 180.712 11.896C181.72 9.592 185.32 5.608 184.168 4.408C182.536 2.728 170.728 10.072 170.488 16.072C170.344 19.192 176.488 21.736 179.176 23.656C181 24.952 180.76 27.16 178.648 29.608C175.768 32.92 167.416 33.832 160.648 25.672C160.12 25.048 160.312 24.712 160.744 24.568Z" fill="white"/>
</svg>
