<svg width="2374" height="1777" viewBox="0 0 2374 1777" fill="none" xmlns="http://www.w3.org/2000/svg">
<path d="M2155.02 1548.1L2181.12 1547.89L2248.92 1653.57L2285.03 1596.86C2295.43 1580.7 2305.27 1563.67 2317.39 1548.72C2323.24 1546.16 2335.38 1547.75 2341.98 1547.74L2309.72 1598.39C2304.77 1606.09 2299.78 1617 2292.71 1622.59C2292.51 1628.7 2268.68 1662.77 2263.85 1669.9C2258.12 1678.36 2259.95 1692.5 2259.89 1702.49L2260.53 1772.52L2237.86 1773.15L2237.52 1682.8C2237.29 1679 2237.14 1674.82 2235.29 1671.43C2230 1661.73 2222.76 1652.23 2216.74 1642.89L2176.57 1580.76L2164.06 1561C2161.49 1556.68 2159.56 1551.97 2155.67 1548.63L2155.02 1548.1Z" fill="white"/>
<path d="M32.3477 1547.97L171.284 1547.87L171.03 1566.8L54.4037 1566.86L54.6948 1648.34L163.478 1647.78L163.178 1666.75L94.8002 1666.87C81.4294 1666.84 67.5668 1668.06 54.3053 1666.68L54.7722 1752.74C62.8078 1755.49 79.3178 1753.34 88.2175 1753.32L176.38 1753.24L176.066 1772.57L32.7717 1772.95L32.3477 1547.97Z" fill="white"/>
<path d="M906.187 1547.93L1044.92 1547.87L1044.63 1566.82L927.882 1566.82C929.59 1578.34 928.84 1590.55 928.858 1602.22C928.882 1617.44 929.426 1632.88 928.403 1648.06L1037.3 1647.8L1037.13 1666.78L927.718 1666.66C930.016 1680.02 928.903 1694.83 928.918 1708.42C928.934 1722.77 929.906 1737.97 928.44 1752.2L928.318 1753.28L1050.37 1753.24L1049.85 1772.56L906.437 1772.98L906.187 1547.93Z" fill="white"/>
<path d="M1810.14 1543.16C1823.31 1541.34 1838.59 1542.72 1851.66 1544.73C1868.68 1547.34 1894.18 1558.74 1904.64 1573.02C1900.14 1578.99 1895.02 1584.09 1889.67 1589.31C1883.97 1583.78 1877.91 1578.63 1871.09 1574.52C1848.56 1560.97 1822.09 1558.93 1796.97 1565.21C1776.61 1570.3 1757.07 1583.88 1746.33 1602.04C1743.4 1606.99 1740.5 1611.72 1738.29 1617.07C1727.3 1643.69 1727.46 1677.45 1738.67 1704C1748.62 1727.56 1767.02 1743.61 1790.55 1752.84C1820.15 1764.44 1858.1 1757.28 1886.09 1744.99L1885.58 1669.58L1877 1669.58L1832.91 1670.13C1831 1665.16 1832.18 1656.24 1832.21 1650.74L1908.23 1650.63L1908.3 1756.89C1894.5 1764.1 1876.84 1772.75 1861.33 1775.3C1849.31 1777.28 1835.31 1777.02 1823.14 1776.88C1799.87 1776.62 1781.93 1773.47 1761.54 1761.14C1756.88 1758.32 1750.99 1755.21 1747.26 1751.22C1742.72 1746.35 1737.3 1742.17 1733.2 1736.91C1721.09 1721.37 1712.3 1701.38 1709.53 1681.88C1704.91 1649.22 1710.38 1612.4 1731.09 1585.84C1751.86 1559.22 1777.05 1547.26 1810.14 1543.16Z" fill="white"/>
<path d="M440.237 1547.97L467.349 1548.01C470.52 1550.98 473.334 1553.68 475.589 1557.45L604.083 1742.38C605.962 1724.27 603.977 1703.85 603.959 1685.47L603.82 1548.04L626.438 1547.8L626.178 1730.34L626.238 1761.19C626.244 1763.54 626.991 1768.8 626.259 1770.67C625.92 1771.53 625.125 1772.14 624.557 1772.87C616.255 1773.52 607.588 1772.73 599.261 1772.46C593.729 1766.57 589.576 1759.39 585.014 1752.75L562.177 1719.84L462.082 1575.4L463.08 1772.59L440.729 1772.97L440.237 1547.97Z" fill="white"/>
<path d="M1314.09 1547.9L1389.86 1548.36C1403.73 1549.3 1426.66 1553.28 1436.01 1564.3C1440.83 1569.99 1445.88 1574.5 1448.69 1581.65C1450.33 1585.83 1452.18 1590.04 1453.11 1594.45C1456.26 1609.25 1453.91 1627.29 1445.55 1640.08C1434.31 1657.28 1415.94 1663.27 1396.7 1667.04L1461.91 1772.2C1459.71 1773.95 1441.73 1772.69 1437.74 1772.68L1426.02 1753.83L1374.89 1666.58L1337.24 1666.88L1335.84 1666.75C1337.6 1679.42 1336.66 1692.9 1336.69 1705.71L1336.91 1772.56L1314.41 1773.03L1314.09 1547.9ZM1335.8 1566.8L1335.99 1568.58L1336.7 1648.31L1374.49 1647.56C1383.63 1647.37 1393.82 1647.61 1402.59 1644.62C1408.23 1642.7 1414 1638.48 1418.89 1635.13C1426.68 1626.5 1432.76 1617.37 1431.82 1605.13L1431.01 1599.86L1430.79 1598.48C1429.36 1590.11 1424.18 1581.72 1417.21 1576.93C1394.69 1561.46 1361.89 1567.76 1335.8 1566.8Z" fill="white"/>
<path d="M379.682 0.930647L557.5 0.712402L558.105 173.493C548.294 175.468 538.242 176.378 528.504 178.64C510.567 182.802 494.197 189.097 477.358 196.46C451.265 210.713 428.412 227.366 407.475 248.609C398.084 258.136 389.628 268.39 379.729 277.431L379.682 0.930647Z" fill="white"/>
<path d="M626.588 240.508L713.281 239.89L877.061 239.966L982.086 240.182C1012.57 240.313 1045.4 239.258 1075.32 245.16C1101.81 250.386 1127.81 260.079 1150.39 274.966C1154.98 277.996 1159.92 280.705 1164 284.436C1166.53 286.758 1169.21 288.537 1171.97 290.559C1181.87 297.804 1191.66 308.921 1199.4 318.388C1223.34 347.671 1241.67 383.34 1247.35 421.091C1256.74 483.47 1251.32 549.509 1251.37 612.544C1251.41 668.75 1255.61 726.49 1249.88 782.499C1247.76 803.178 1243.44 823.509 1236.42 843.085C1222.06 883.095 1194.81 916.94 1159.89 940.975C1142.38 953.03 1123.41 962.336 1104.2 971.321C1111.66 985.948 1122.39 999.482 1132.32 1012.52L1169.17 1060.93L1308.29 1244.13L1380.74 1338.17L1399.53 1362.25C1400.58 1363.72 1403.46 1366.8 1403.91 1368.31C1404.2 1369.26 1403.94 1370.31 1403.95 1371.31C1401.71 1372.31 1399.69 1372.84 1397.21 1372.9L1256.61 1372.94C1235.48 1372.97 1214.28 1374.92 1193.23 1374.32C1188.76 1374.19 1184.59 1373.4 1180.33 1372.1C1166.47 1359.66 1155.78 1342.07 1144.65 1327.17L1088.79 1253.11L974.737 1104.17L905.283 1011.39C901.062 1005.56 896.877 999.003 891.866 993.846C887.583 989.439 883.357 987.143 877.227 986.448C866.428 985.224 854.537 986.237 843.599 986.322L782.58 986.606L585.875 986.875L585.822 1114.64C585.804 1145.83 586.959 1177.4 580.593 1208.11C572.141 1248.88 546.949 1284.1 517.926 1312.96C490.699 1340.04 458.858 1358.42 421.543 1367.88C390.809 1375.67 358.271 1375.55 326.798 1375.55L245.074 1375.55L2.18652 1375.42L2.70685 1193.88L364.059 1192.67C377.4 1191.79 392.062 1186.64 397.816 1173.63C405.29 1156.71 402.572 1133.12 402.577 1114.87L402.587 1044.87L402.772 640.447L402.811 521.49C402.869 488.138 401.711 454.051 407.641 421.112C414.46 383.234 430.328 345.059 455.758 315.877C486.599 280.489 527.62 257.062 573.373 246.834C590.968 242.901 608.662 241.756 626.588 240.508ZM620.129 419.672C609.925 420.986 599.885 423.718 593.307 432.301C588.952 437.984 586.37 443.968 585.628 451.071C583.475 471.745 585.151 494.198 585.198 515.04L585.243 636.258L585.212 734.335C585.209 747.696 583.322 764.428 585.741 777.394C587.423 786.408 592.984 794.206 600.619 799.176C603.169 800.837 605.651 801.956 608.494 803.004L610.336 803.694C616.442 805.876 622.943 805.492 629.331 805.507L659.945 805.384L737.85 805.357H1039.98C1050.72 803.683 1059.61 800.298 1066.35 791.155C1070.39 785.668 1072.79 779.674 1073.38 772.874C1075.29 750.668 1073.72 727.009 1073.73 704.677L1073.74 567.45L1073.7 484.789C1073.69 473.256 1075.14 459.187 1073.03 447.899C1071.3 438.619 1065.27 430.524 1057.39 425.49C1052.36 422.281 1047.17 420.407 1041.23 419.948C1026.01 418.774 1010.06 419.68 994.771 419.68L904.873 419.709L620.129 419.672Z" fill="white"/>
<path d="M1366.92 10.6016L1547.37 10.7714L1547.41 238.558C1568.78 240.114 1590.68 239.69 1612.13 239.829L1715.02 240.243L2007.16 240.224C2053.13 240.232 2099.54 238.895 2145.44 241.722C2166.64 243.028 2187.7 244.428 2208.32 250.046C2265.01 265.502 2312.52 303.351 2341.02 354.687C2353.11 376.453 2366.25 405.327 2369.1 430.174C2370.57 442.992 2370.13 455.939 2370.13 468.82L2370.15 526.137L2370.15 713.643L2370.23 1002.18L2371.4 1146.97C2370.73 1166.6 2367.81 1189.36 2362.4 1208.23C2352.99 1240.98 2338.13 1272.4 2316 1298.54C2311.9 1303.38 2307.59 1309.44 2301.99 1312.55C2300.2 1316.91 2295.29 1320.29 2291.76 1323.32C2277.45 1335.6 2261.81 1345.23 2244.67 1353.06C2219.81 1364.42 2190.62 1371.98 2163.44 1374.76C2128.15 1378.37 2091.31 1376.42 2055.82 1376.44L1871.55 1376.42L1680.84 1376.5C1643.28 1376.59 1604.61 1378.51 1567.18 1375.47C1544.19 1373.6 1522.73 1367.18 1501.26 1359.1C1449.02 1339.44 1406.41 1295.26 1383.94 1244.95C1369.28 1212.12 1365.44 1176.91 1363.7 1141.4C1362.26 1111.93 1363.64 1082.29 1364.28 1052.82L1365.3 944.253L1364.92 249.157L1364.94 94.755L1364.96 41.429C1364.97 32.2625 1363.68 19.1359 1366.92 10.6016ZM1601.91 419.749C1584.19 421.644 1569.99 427.828 1558.73 442.173C1552.04 450.689 1548.06 461.059 1547.22 471.816C1545.91 488.428 1546.61 505.434 1546.6 522.093L1546.57 606.349L1546.56 873.56L1546.62 1057.04L1546.66 1111.62C1546.67 1123.12 1546.13 1135.09 1547.79 1146.5C1548.15 1149.01 1548.87 1151.24 1549.77 1153.59C1555.18 1167.81 1565.53 1180.93 1579.89 1187.09C1587.33 1190.28 1596.25 1192.58 1604.33 1192.28L2131.01 1192.42C2144.16 1190.83 2152.31 1187.73 2163.44 1180.71C2170.12 1176.5 2176.5 1168.37 2180.12 1161.41L2181.03 1159.68C2184.59 1152.82 2186.29 1143.75 2186.75 1136.1C2188.9 1100.22 2187.17 1063.36 2187.17 1027.34L2187.19 816.73L2187.15 589.409L2187.02 476.244C2186.69 469.805 2185.3 463.071 2183.17 456.984C2178.71 444.245 2166.9 431.324 2154.83 425.469C2148.91 422.602 2142.38 420.367 2135.81 419.92C2115.57 418.54 2094.57 419.678 2074.26 419.675L1953.14 419.701L1601.91 419.749Z" fill="white"/>
</svg>
