<svg width="1249" height="242" viewBox="0 0 1249 242" fill="none" xmlns="http://www.w3.org/2000/svg">
<g clip-path="url(#clip0_447_342)">
<path d="M833.643 0H837.995C840.768 0.565022 844.058 1.92999 846.105 3.91753C848.146 5.8988 849.53 9.05633 849.583 11.9C849.654 15.7521 848.844 18.9138 846.098 21.701C843.506 24.3321 840.477 25.6584 836.789 25.6513C833.489 25.6449 830.495 24.5659 828.141 22.18C825.78 19.7855 824.407 16.3064 824.449 12.9398C824.546 5.31659 829.032 4.56945 833.419 0.225904L833.643 0Z" fill="white"/>
<path d="M828.02 52.9051C833.948 52.3168 840.691 52.4995 846.619 52.9925L846.665 175.862L844.282 177.673C842.444 178.489 831.543 178.454 829.545 177.783C829.007 177.602 828.055 177.23 827.812 176.695C826.82 174.51 827.312 170.504 827.305 168.082L827.297 147.36L827.286 82.4186L827.314 63.1265C827.324 59.8227 826.909 56.0453 828.02 52.9051Z" fill="white"/>
<path d="M1.49512 52.8459L20.7222 52.6726L62.8015 113.112C62.3755 117.515 25.5489 171.815 19.5395 177.869C14.3161 177.895 5.50162 179.091 0.762225 177.291C0.590925 176.97 0.0345215 176.181 0.0014215 175.865C-0.0295785 175.569 0.45532 174.597 0.59022 174.31C2.92932 169.344 7.54512 164.161 10.7093 159.612L36.4085 122.572C37.4185 121.098 42.2245 115.121 42.3805 113.761C42.3925 113.659 40.5415 111.142 40.3445 110.86L10.05 68.0902C7.72572 64.823 1.88192 58.5226 1.17742 54.9092C1.09042 54.4627 1.41832 53.3449 1.49512 52.8459Z" fill="white"/>
<path d="M1186.86 52.9052L1200.57 52.758C1200.8 52.7629 1202.13 52.9513 1202.25 53.1494C1202.47 53.5397 1202.3 56.0336 1202.31 56.6005L1202.51 67.3479C1202.52 68.2754 1202.29 70.329 1202.57 71.1486C1202.7 71.509 1203.8 72.4122 1204.12 72.7417C1208.5 72.5101 1217.25 61.5993 1220.88 58.5889C1229.07 51.8013 1238.48 52.0686 1248.56 53.0066L1248.54 72.6321C1246.42 73.8375 1236.44 72.1757 1233.3 72.2627C1230.61 72.3369 1227.88 72.9902 1225.33 73.8078C1214.6 77.2521 1206.47 87.3723 1205.61 98.6789C1205.32 102.477 1206.56 109.77 1204.87 112.972L1204.14 114.203L1204.78 115.123C1206.69 118.212 1205.38 170.675 1205.29 177.653C1199.23 178.526 1192.42 178.05 1186.3 177.729C1185.5 167.677 1185.08 57.125 1186.86 52.9052Z" fill="white"/>
<path d="M1011.21 26.6346C1013.46 26.2504 1018.06 25.785 1020.09 26.8132C1021.25 28.6378 1020.85 31.6659 1020.86 33.7976L1021.13 52.1934C1023.83 53.7091 1042.4 52.7582 1046.99 52.9222L1047.02 68.7746L1021.07 69.3771C1020.2 79.9473 1020.89 91.118 1020.88 101.746V125.73C1020.89 131.973 1020.63 138.477 1022.71 144.444C1026.91 156.478 1036.59 159.484 1047.11 164.627L1046.95 178.784C1044.84 180.833 1042.98 180.276 1040.16 180.312C1030.66 179.042 1022.19 174.941 1015.37 168.192C1009.57 162.457 1005.12 154.959 1003.1 147.027C1000.51 136.817 1001.58 125.16 1001.57 114.629L1001.47 69.4239C994.93 68.3701 987.56 69.0511 980.89 68.7545C979.42 67.2032 979.64 66.7314 979.58 64.5915C979.42 59.0566 983.51 56.4485 987.08 52.6801L1002.72 52.5863C1004.01 50.7968 1003.21 41.0801 1003.22 38.4494C1003.22 37.8662 1003.02 35.8916 1003.23 35.4352C1004.52 32.6787 1009.18 29.6654 1011.11 26.7808L1011.21 26.6346Z" fill="white"/>
<path d="M458.77 52.9044L474.166 53.0013L474.292 64.1165C474.301 64.965 474.06 67.1452 474.334 67.8649C474.542 68.4084 475.677 69.4978 476.083 69.9917C478.557 69.551 480.321 67.4213 482.121 65.8078C491.285 57.5934 498.368 52.209 511.339 52.7141C524.437 53.2242 536.407 58.2335 545.329 67.964C549.978 73.0347 553.572 79.8211 555.155 86.5142C558.249 99.5961 556.707 115.114 556.719 128.52L556.466 177.379C554.303 179.04 540.975 177.889 537.468 177.788C536.674 171.733 537.283 164.921 537.294 158.793L537.32 120.946C537.313 117.531 538.22 109.558 536.698 106.669L535.97 105.432C536.896 104.175 537.281 103.021 537.303 101.461C537.422 92.9085 534.998 84.71 528.935 78.4865C523.287 72.6896 515.98 69.3244 507.881 69.2281C499.527 69.1288 492.037 71.6847 485.986 77.6527C481.699 81.8807 479.032 87.3306 477.849 93.2026C476.032 102.219 477.187 113.257 477.198 122.478L477.15 177.389C475.81 178.14 473.614 177.902 472.105 177.936L458.201 177.734L458.083 102.083L458.094 67.7312C458.099 63.4459 457.251 56.7783 458.77 52.9044Z" fill="white"/>
<path d="M328.909 52.901L340.062 52.7801C340.498 52.7934 344.197 52.7949 344.339 52.9255C344.738 53.292 344.352 54.0092 344.358 54.551C344.399 57.7989 343.549 65.4739 344.619 68.2298C344.787 68.6625 345.869 69.5587 346.233 69.946C348.796 69.6173 350.707 67.2495 352.543 65.5978C361.217 57.7957 367.953 52.6579 380.226 52.6911C392.763 52.725 405.076 57.3699 413.957 66.3111C420.494 72.8921 424.189 80.8769 426.057 89.8793C427.93 98.9103 426.807 110.119 426.806 119.419L426.684 177.341C422.696 179.321 412.265 177.921 407.708 177.772C407.081 171.365 407.583 164.496 407.596 158.046L407.63 121.2C407.625 117.602 408.604 108.972 407.011 105.938L406.285 104.699L407.55 102.162C407.24 93.0689 405.584 85.1025 399.01 78.3447C393.336 72.5114 385.888 69.3026 377.791 69.223C369.743 69.1439 362.129 71.7307 356.346 77.4803C351.644 82.1557 349.016 87.812 347.778 94.3145C346.283 102.167 347.379 112.382 347.383 120.501L347.344 177.633C341.261 178.511 334.509 178 328.374 177.77C327.4 169.303 328.096 160.101 328.093 151.564L328.098 99.4406L328.076 68.003C328.079 63.5761 327.251 57.0129 328.909 52.901Z" fill="white"/>
<path d="M95.1701 0H113.539C114.99 7.81651 113.91 17.7315 113.92 25.7384L113.902 86.7574C113.908 89.9492 112.984 98.4816 114.2 101.141C114.793 102.439 115.183 102.515 116.443 102.989C120.918 101.416 156.654 59.9047 163.196 52.6964C168.382 52.6576 175.325 51.7613 180.307 52.796C182.14 53.1767 182.254 53.5911 183.229 55.0946C182.757 58.313 176.619 63.2585 174.241 65.6529L146.435 94.0162C147.042 97.8852 153.219 105.697 155.407 109.263L185.421 157.934C188.43 162.757 193.094 168.443 195.03 173.66C195.613 175.233 195.518 175.515 194.857 176.959C190.752 179.494 179.199 177.985 174.151 177.93C170.142 174.732 166.245 165.8 163.488 161.27C153.137 144.265 143.347 126.394 131.982 110.081L128.868 112.743L117.324 124.525C116.585 125.284 114.286 127.138 113.921 128.023C113.216 129.728 113.927 136.22 113.928 138.492L113.838 177.654C109.93 178.253 98.3781 179.062 95.2081 177.046C93.7501 173.119 93.4431 7.93499 95.1701 0Z" fill="white"/>
<path fill-rule="evenodd" clip-rule="evenodd" d="M922.163 50.1362L911.664 50.7158C897.513 54.7937 886.656 61.708 879.339 74.9172C876.879 79.3589 874.727 84.5085 873.888 89.5359C873.114 94.1834 873.243 99.2269 873.369 104.129C873.418 106.03 873.466 107.91 873.46 109.737C873.452 112.585 873.368 115.526 873.282 118.514C872.989 128.776 872.679 139.587 875.383 149.04C878.378 159.507 885.186 168.846 894.826 174.134C907.861 181.285 924.794 182.692 938.992 178.539C948.63 175.721 959.72 170.249 964.71 161.056C965.59 159.44 966.66 156.827 966.09 154.978C965.722 153.783 962.539 152.307 960.686 151.447C960.328 151.281 960.019 151.138 959.79 151.024C959.167 150.715 958.557 150.39 957.953 150.068C955.389 148.702 952.929 147.391 949.95 147.592C949.625 147.862 949.295 148.149 948.961 148.44C947.951 149.32 946.898 150.239 945.77 150.839C944.51 154.697 938.1 159.442 934.568 161.223C928.015 164.526 920.322 165.392 913.294 163.009C905.708 160.438 899.06 154.771 895.555 147.524C892.266 140.725 892.336 133.187 892.404 125.817C892.408 125.376 892.412 124.934 892.415 124.494C892.419 123.954 892.404 123.367 892.388 122.756C892.337 120.782 892.279 118.565 892.845 116.932L893.023 116.479L971.71 116.078C971.722 113.685 971.811 111.166 971.901 108.598C972.13 102.133 972.369 95.3511 971.41 89.4536C969.9 80.2213 965.14 71.6441 958.6 65.0395C948.63 54.9519 936.232 50.18 922.163 50.1362ZM932.333 67.9937C927.029 66.0987 921.145 65.8468 915.595 66.77C906.547 69.9488 899.81 74.037 895.526 82.9065C892.82 88.5118 891.986 94.921 892.713 101.068L894.082 102.611L927.821 102.816L944.22 102.771C944.755 102.77 945.28 102.784 945.796 102.798C947.955 102.858 949.967 102.913 951.96 101.797C953.82 96.588 951.72 88.1585 949.45 83.348C946.09 76.2182 939.733 70.6372 932.333 67.9937Z" fill="white"/>
<path fill-rule="evenodd" clip-rule="evenodd" d="M1115.41 50.1223L1102.66 50.716C1088.35 54.9499 1077.42 61.8848 1070.12 75.3179C1067.79 79.5982 1065.71 84.6156 1064.91 89.4453C1064.14 94.1783 1064.26 99.3294 1064.38 104.331C1064.43 106.251 1064.48 108.148 1064.47 109.992C1064.46 112.791 1064.37 115.686 1064.29 118.63C1063.98 128.956 1063.66 139.879 1066.48 149.35C1069.68 160.097 1076.59 169.194 1086.54 174.554C1099.77 181.678 1117.05 182.479 1131.26 178.159C1140.25 175.426 1151.03 169.825 1155.58 161.194C1156.63 159.214 1157.57 156.961 1156.99 154.703C1153.99 152.1 1149.73 150.183 1145.76 148.403C1144.42 147.8 1143.11 147.213 1141.9 146.62C1141.47 147.011 1141.03 147.423 1140.59 147.84C1139.23 149.13 1137.81 150.471 1136.28 151.417C1135.54 154.378 1129.78 158.786 1127.22 160.342C1121.07 164.085 1113.41 165.359 1106.39 163.617C1098.92 161.762 1091.85 156.605 1087.88 149.968C1083.41 142.489 1083.36 135.026 1083.41 126.577C1083.41 125.792 1083.39 124.95 1083.36 124.084C1083.3 121.906 1083.23 119.581 1083.59 117.658C1083.67 117.254 1083.85 116.845 1084.02 116.476L1162.74 116.069C1162.76 115.251 1162.78 114.437 1162.8 113.626C1163.22 95.8092 1163.61 79.6749 1150.21 65.6365C1141.02 56.0084 1128.71 50.4183 1115.41 50.1223ZM1114.84 66.3617C1112.14 66.3347 1109.33 66.3551 1106.65 66.7699C1097.69 69.8712 1090.9 73.8908 1086.6 82.7598C1083.46 89.217 1083.25 95.484 1083.59 102.493L1118.22 102.816C1120.55 102.813 1123.05 102.906 1125.62 103.002C1131.66 103.227 1138.05 103.465 1143.38 102.49C1143.49 91.9754 1142.61 83.3406 1134.94 75.4777C1129.78 70.1764 1122.31 66.4362 1114.84 66.3617Z" fill="white"/>
<path fill-rule="evenodd" clip-rule="evenodd" d="M633.498 50.1201L622.021 50.7156C607.814 54.8958 596.713 61.8305 589.435 75.218C586.92 79.8446 584.958 85.2576 584.146 90.4661C583.419 95.1283 583.53 100.199 583.638 105.126C583.679 107.011 583.72 108.874 583.714 110.686C583.704 113.335 583.632 116.062 583.558 118.829C583.287 129.112 583 139.956 585.829 149.474C589.066 160.366 596.066 169.31 606.11 174.694C619.234 181.728 636.66 182.413 650.692 178.115C659.564 175.398 670.457 169.779 674.97 161.221C676.17 158.945 676.806 156.747 676.088 154.217L661.391 146.496C660.938 146.905 660.481 147.337 660.019 147.774C658.623 149.094 657.172 150.466 655.604 151.421C654.721 154.593 648.631 159.178 645.794 160.772C639.606 164.25 631.981 165.409 625.095 163.421C617.569 161.248 610.728 156.209 606.901 149.293C601.94 140.326 602.004 126.521 603.183 116.421L682.1 116.098C682.115 114.469 682.14 112.861 682.165 111.273C682.436 93.9793 682.67 79.0753 669.33 65.4735C659.514 55.4651 647.522 50.2372 633.498 50.1201ZM634.318 66.3636C631.627 66.3285 628.794 66.3306 626.137 66.7698C617.269 69.702 610.523 73.6933 606.189 82.2477C603.062 88.4197 602.428 95.7871 603.063 102.618L637.483 102.816L662.604 102.607C662.769 92.1293 661.98 83.3468 654.333 75.474C649.192 70.1803 641.764 66.4605 634.318 66.3636Z" fill="white"/>
<path fill-rule="evenodd" clip-rule="evenodd" d="M259.834 51.5519C254.122 50.5957 248.512 50.3452 242.735 50.624C229.516 52.1781 215.752 56.0819 207.106 67.0126C205.574 68.9489 203.368 72.4855 203.738 75.0814L204.029 76.2569C208.008 79.0479 214.53 82.8332 219.226 84.0451C219.554 83.6884 219.88 83.3334 220.205 82.9803C227.979 74.5126 234.705 67.1869 247.282 66.7579C254.765 66.5026 262.906 69.7641 268.31 74.8683C274.238 80.4667 277.118 88.1648 277.313 96.2307C277.328 96.8343 277.384 97.7247 277.449 98.7704C277.686 102.539 278.049 108.325 277.069 109.963L251.46 110.118C250.236 110.121 249.007 110.115 247.776 110.109C234.481 110.047 220.977 109.984 210.869 120.224C204.27 126.909 202.025 135.439 202.108 144.606C202.155 149.878 202.925 153.717 204.767 158.658C209.648 167.594 216.068 173.457 225.889 176.34C235.182 179.068 250.897 179.528 259.438 174.755C262.585 172.997 265.314 170.279 268.034 167.569C271.269 164.347 274.492 161.137 278.39 159.568C279.814 160.335 280.202 160.66 280.657 162.265C281.504 165.255 281.281 169.649 281.084 173.532C281.008 175.039 280.936 176.469 280.931 177.71C281.535 177.741 282.302 177.802 283.173 177.871C287.479 178.215 294.329 178.762 296.627 176.814C297.792 169.908 297.508 161.978 297.236 154.395C297.121 151.188 297.008 148.044 297.008 145.066L296.977 109.499C296.974 107.911 296.99 106.313 297.005 104.71C297.067 98.4169 297.129 92.0443 296.053 85.8802C295.032 80.0267 292.512 74.0359 289.08 69.205C282.24 59.5755 271.403 53.489 259.834 51.5519ZM244.135 123.69C240.299 123.601 236.27 123.508 232.715 124.185C227.673 126.637 223.804 129.301 221.909 134.877C220.22 139.848 220.652 147.723 223.006 152.392C225.164 156.669 229.01 159.566 233.522 160.965C235.437 161.56 237.705 161.52 239.816 161.482C240.374 161.472 240.921 161.463 241.448 161.465C242.057 161.468 242.66 161.474 243.258 161.48C249.152 161.537 254.565 161.59 260.04 158.612L261.644 157.593C267.365 153.042 276.408 143.622 277.292 136.067C277.55 133.867 277.932 125.415 276.912 123.838L247.965 123.748C246.728 123.75 245.443 123.72 244.135 123.69Z" fill="white"/>
<path fill-rule="evenodd" clip-rule="evenodd" d="M741.293 52.9051C747.014 52.5904 753.558 52.462 758.929 54.683C763.887 56.7334 768.006 60.6422 771.945 64.3803L771.945 64.3806C772.814 65.2048 773.673 66.0206 774.532 66.8065C774.789 67.0421 775.04 67.281 775.29 67.5183C776.645 68.8052 777.952 70.0457 779.872 70.4724C782.379 68.4679 782.12 64.5016 781.865 60.5827V60.5827C781.679 57.7332 781.496 54.9087 782.378 52.8818L798.1 52.9793L798.081 105.345C797.202 117.943 791.315 128.905 781.793 137.079C769.836 147.343 754.725 148.867 739.663 147.686C737.721 148.783 735.721 149.914 734.047 151.402C731.295 153.847 729.522 156.933 729.335 160.645C729.165 164.039 730.136 167.289 732.475 169.8C733.717 171.132 737.28 174.054 739.127 174.465C740.878 174.854 743.373 174.708 745.64 174.575C746.697 174.514 747.704 174.455 748.564 174.454L776.683 174.532C786.37 174.902 796.134 178.202 802.844 185.466C809.367 192.527 811.794 200.966 811.37 210.433C811.224 213.701 810.827 217.697 808.295 220.013L808.51 221.577C807.259 225.486 804.076 229.511 801.078 232.265C796.074 236.86 789.74 239.459 783.153 240.804C778.131 241.83 772.654 241.728 767.346 241.63L767.344 241.63C765.693 241.599 764.059 241.569 762.46 241.573L732.657 241.452C723.499 241.003 714.108 237.132 707.92 230.263C702.255 223.975 699.269 215.8 699.763 207.306C700.496 194.718 707.547 188.605 715.956 181.316C716.976 180.432 718.016 179.531 719.067 178.599C712.962 166.393 710.445 159.036 717.381 146.404C717.522 146.146 717.805 145.705 718.137 145.188L718.137 145.187C718.944 143.929 720.038 142.223 720.071 141.638C720.1 141.118 719.09 139.777 718.748 139.375C717.223 137.585 715.5 135.767 713.745 133.916C710.185 130.163 706.498 126.274 704.089 122.206C702.065 118.788 701.069 114.559 700.378 110.666C698.048 97.55 700.409 83.2219 708.13 72.2518C716.288 60.6609 727.7 55.2413 741.293 52.9051ZM730.81 191.554C736.543 190.705 742.912 190.892 749.063 191.072C751.61 191.147 754.118 191.22 756.529 191.219C758.62 191.218 760.815 191.144 763.05 191.07H763.051C768.335 190.894 773.839 190.711 778.692 191.45C780.707 191.758 782.643 192.724 784.326 193.852C788.287 196.506 790.817 200.378 791.72 205.034C792.512 209.112 791.543 214.095 789.198 217.537C786.285 221.813 782.846 223.773 777.871 224.723C774.42 225.819 769.754 225.639 765.571 225.479C764.109 225.422 762.706 225.368 761.434 225.372L743.024 225.373C742.413 225.371 741.799 225.374 741.183 225.377C737.378 225.397 733.511 225.417 729.881 224.19C725.982 222.871 722.516 219.921 720.742 216.19C718.579 211.641 718.306 206.388 720.021 201.648C721.953 196.309 725.947 193.8 730.81 191.554ZM766.512 75.0199C759.081 69.4457 750.467 68.3913 741.525 69.6886C732.712 72.8248 725.981 77.0322 721.784 85.8366C718.196 93.3639 717.629 103.617 720.441 111.466C723.202 119.174 728.66 125.6 736.137 129.072C741.484 131.554 747.172 132.383 752.986 131.369C761.275 130.223 767.988 126.041 773.048 119.362C778.273 112.465 779.598 102.964 778.411 94.5527C777.317 86.8005 772.717 79.6741 766.512 75.0199Z" fill="white"/>
</g>
<defs>
<clipPath id="clip0_447_342">
<rect width="1249" height="242" fill="white"/>
</clipPath>
</defs>
</svg>
