<svg width="1022" height="253" viewBox="0 0 1022 253" fill="none" xmlns="http://www.w3.org/2000/svg">
<g clip-path="url(#clip0_540_62)">
<path d="M279.492 226.121C279.492 225.546 279.438 224.755 279.28 224.18C278.601 221.242 276.08 218.825 272.613 218.825C267.834 218.825 264.996 223.021 264.996 228.642C264.996 233.788 267.517 238.046 272.505 238.046C275.605 238.046 278.442 235.996 279.28 232.53C279.438 231.9 279.492 231.271 279.492 230.534V226.121ZM284.113 203.909V234.63C284.113 236.888 284.167 239.463 284.321 241.196H280.176L279.963 236.784H279.859C278.442 239.621 275.342 241.771 271.192 241.771C265.051 241.771 260.326 236.571 260.326 228.855C260.271 220.396 265.521 215.196 271.717 215.196C275.605 215.196 278.23 217.038 279.388 219.084H279.492V203.909H284.113Z" fill="white"/>
<path d="M308.525 226.017C308.579 223.075 307.317 218.509 302.117 218.509C297.442 218.509 295.396 222.817 295.029 226.017H308.525ZM294.975 229.325C295.079 235.575 299.071 238.146 303.692 238.146C307 238.146 308.996 237.571 310.729 236.838L311.517 240.146C309.892 240.879 307.108 241.771 303.063 241.771C295.238 241.771 290.562 236.571 290.562 228.904C290.562 221.242 295.079 215.196 302.483 215.196C310.783 215.196 312.988 222.496 312.988 227.171C312.988 228.117 312.883 228.854 312.829 229.325H294.975Z" fill="white"/>
<path d="M323.955 203.909H319.334V241.196H323.955V203.909Z" fill="white"/>
<path d="M332.355 241.196V215.775H336.975V241.196H332.355ZM337.5 208.634C337.555 210.209 336.396 211.471 334.559 211.471C332.93 211.471 331.775 210.209 331.775 208.634C331.775 207.009 332.984 205.746 334.663 205.746C336.396 205.746 337.5 207.009 337.5 208.634Z" fill="white"/>
<path d="M347.055 215.775L352.042 230.063C352.884 232.371 353.567 234.471 354.092 236.571H354.251C354.826 234.471 355.563 232.371 356.405 230.063L361.338 215.775H366.171L356.192 241.196H351.78L342.117 215.775H347.055Z" fill="white"/>
<path d="M386.746 226.017C386.801 223.075 385.538 218.509 380.342 218.509C375.667 218.509 373.617 222.817 373.251 226.017H386.746ZM373.196 229.325C373.305 235.575 377.292 238.146 381.917 238.146C385.226 238.146 387.221 237.571 388.955 236.838L389.742 240.146C388.113 240.879 385.33 241.771 381.284 241.771C373.459 241.771 368.788 236.571 368.788 228.904C368.788 221.242 373.305 215.196 380.709 215.196C389.005 215.196 391.213 222.496 391.213 227.171C391.213 228.117 391.105 228.854 391.055 229.325H373.196Z" fill="white"/>
<path d="M397.558 223.704C397.558 220.717 397.504 218.138 397.346 215.775H401.392L401.55 220.763H401.758C402.912 217.354 405.696 215.196 408.796 215.196C409.321 215.196 409.687 215.25 410.108 215.359V219.713C409.637 219.613 409.162 219.559 408.533 219.559C405.279 219.559 402.967 222.025 402.337 225.492C402.233 226.121 402.125 226.859 402.125 227.646V241.196H397.558V223.704Z" fill="white"/>
<path d="M415.563 241.196V215.775H420.188V241.196H415.563ZM420.713 208.634C420.767 210.209 419.613 211.471 417.772 211.471C416.142 211.471 414.988 210.209 414.988 208.634C414.988 207.009 416.197 205.746 417.88 205.746C419.613 205.746 420.713 207.009 420.713 208.634Z" fill="white"/>
<path d="M428.48 222.654C428.48 220.034 428.426 217.879 428.271 215.775H432.367L432.63 219.979H432.734C433.996 217.563 436.934 215.196 441.138 215.196C444.655 215.196 450.117 217.3 450.117 226.017V241.196H445.496V226.542C445.496 222.446 443.971 219.034 439.613 219.034C436.567 219.034 434.205 221.188 433.417 223.759C433.205 224.338 433.101 225.125 433.101 225.913V241.196H428.48V222.654Z" fill="white"/>
<path d="M475.368 225.804C475.368 225.021 475.313 224.338 475.105 223.704C474.263 221.029 472.005 218.825 468.647 218.825C464.234 218.825 461.084 222.55 461.084 228.434C461.084 233.421 463.605 237.571 468.593 237.571C471.43 237.571 474.001 235.788 475.001 232.846C475.263 232.054 475.368 231.163 475.368 230.375V225.804ZM479.938 237.521C479.938 243.346 478.78 246.921 476.313 249.125C473.847 251.438 470.272 252.167 467.072 252.167C464.026 252.167 460.663 251.438 458.613 250.071L459.772 246.55C461.451 247.604 464.076 248.546 467.226 248.546C471.955 248.546 475.422 246.079 475.422 239.671V236.838H475.313C473.897 239.2 471.168 241.088 467.226 241.088C460.926 241.088 456.409 235.734 456.409 228.696C456.409 220.084 462.03 215.196 467.859 215.196C472.268 215.196 474.684 217.509 475.788 219.613H475.893L476.105 215.775H480.147C480.043 217.617 479.938 219.663 479.938 222.763V237.521Z" fill="white"/>
<path d="M504.708 205.8H500.142V241.196H504.708V205.8Z" fill="white"/>
<path d="M539.101 240.038C537.422 240.88 534.063 241.771 529.755 241.771C519.776 241.771 512.268 235.417 512.268 223.813C512.268 212.734 519.776 205.221 530.751 205.221C535.159 205.221 537.943 206.167 539.155 206.796L538.051 210.525C536.318 209.684 533.847 209.055 530.909 209.055C522.613 209.055 517.101 214.359 517.101 223.655C517.101 232.321 522.088 237.888 530.701 237.888C533.48 237.888 536.318 237.309 538.155 236.417L539.101 240.038Z" fill="white"/>
<path d="M553.638 209.684H542.871V205.8H569.075V209.684H558.259V241.196H553.638V209.684Z" fill="white"/>
<path d="M567.393 247.65C568.493 244.554 569.913 238.938 570.493 235.104L575.638 234.579C574.43 239.042 572.122 244.871 570.651 247.338L567.393 247.65Z" fill="white"/>
<path d="M598.209 236.467C599.576 237.363 601.996 238.304 604.301 238.304C607.663 238.304 609.242 236.625 609.242 234.525C609.242 232.321 607.926 231.113 604.513 229.85C599.942 228.221 597.792 225.704 597.792 222.654C597.792 218.559 601.101 215.196 606.559 215.196C609.134 215.196 611.392 215.934 612.809 216.775L611.655 220.138C610.659 219.509 608.817 218.663 606.459 218.663C603.726 218.663 602.201 220.238 602.201 222.129C602.201 224.229 603.726 225.179 607.034 226.438C611.446 228.117 613.705 230.321 613.705 234.109C613.705 238.571 610.238 241.771 604.201 241.771C601.417 241.771 598.842 241.038 597.055 239.988L598.209 236.467Z" fill="white"/>
<path d="M620.255 203.909H624.88V219.767H624.984C625.717 218.459 626.872 217.3 628.292 216.513C629.655 215.721 631.284 215.196 633.017 215.196C636.43 215.196 641.897 217.3 641.897 226.071V241.196H637.272V226.596C637.272 222.496 635.751 219.034 631.388 219.034C628.397 219.034 626.034 221.134 625.192 223.655C624.93 224.284 624.88 224.967 624.88 225.859V241.196H620.255V203.909Z" fill="white"/>
<path d="M663.417 228.221C658.375 228.117 652.65 229.013 652.65 233.946C652.65 236.942 654.646 238.359 657.013 238.359C660.321 238.359 662.417 236.259 663.154 234.109C663.308 233.629 663.417 233.104 663.417 232.634V228.221ZM667.879 235.104C667.879 237.309 667.984 239.463 668.304 241.196H664.1L663.734 237.992H663.575C662.158 239.988 659.425 241.771 655.804 241.771C650.654 241.771 648.029 238.146 648.029 234.471C648.029 228.329 653.492 224.967 663.309 225.021V224.496C663.309 222.396 662.734 218.613 657.538 218.613C655.171 218.613 652.7 219.35 650.921 220.504L649.867 217.454C651.971 216.092 655.013 215.196 658.221 215.196C665.992 215.196 667.879 220.504 667.879 225.6V235.104Z" fill="white"/>
<path d="M675.959 223.704C675.959 220.717 675.909 218.138 675.755 215.775H679.792L679.951 220.763H680.163C681.322 217.354 684.105 215.196 687.201 215.196C687.726 215.196 688.097 215.25 688.513 215.359V219.713C688.042 219.613 687.567 219.559 686.938 219.559C683.68 219.559 681.372 222.025 680.742 225.492C680.638 226.121 680.53 226.859 680.53 227.646V241.196H675.959V223.704Z" fill="white"/>
<path d="M693.972 241.196V215.775H698.593V241.196H693.972ZM699.118 208.634C699.172 210.209 698.013 211.471 696.176 211.471C694.547 211.471 693.393 210.209 693.393 208.634C693.393 207.009 694.601 205.746 696.28 205.746C698.013 205.746 699.118 207.009 699.118 208.634Z" fill="white"/>
<path d="M706.884 222.654C706.884 220.034 706.834 217.879 706.68 215.775H710.771L711.034 219.979H711.142C712.401 217.563 715.342 215.196 719.542 215.196C723.059 215.196 728.526 217.3 728.526 226.017V241.196H723.901V226.542C723.901 222.446 722.38 219.034 718.017 219.034C714.976 219.034 712.609 221.188 711.821 223.759C711.613 224.338 711.509 225.125 711.509 225.913V241.196H706.884V222.654Z" fill="white"/>
<path d="M753.776 225.804C753.776 225.021 753.726 224.338 753.514 223.704C752.676 221.029 750.418 218.825 747.055 218.825C742.638 218.825 739.493 222.55 739.493 228.434C739.493 233.421 742.013 237.571 747.001 237.571C749.839 237.571 752.409 235.788 753.405 232.846C753.672 232.054 753.776 231.163 753.776 230.375V225.804ZM758.343 237.521C758.343 243.346 757.188 246.921 754.722 249.125C752.251 251.438 748.684 252.167 745.476 252.167C742.434 252.167 739.072 251.438 737.022 250.071L738.176 246.55C739.855 247.604 742.484 248.546 745.634 248.546C750.363 248.546 753.826 246.079 753.826 239.671V236.838H753.726C752.305 239.2 749.572 241.088 745.634 241.088C739.33 241.088 734.813 235.734 734.813 228.696C734.813 220.084 740.434 215.196 746.268 215.196C750.676 215.196 753.093 217.509 754.197 219.613H754.301L754.509 215.775H758.555C758.447 217.617 758.343 219.663 758.343 222.763V237.521Z" fill="white"/>
<path d="M781.905 227.438H782.013C782.642 226.542 783.534 225.438 784.271 224.55L791.725 215.775H797.296L787.471 226.23L798.659 241.196H793.038L784.271 229.013L781.905 231.638V241.196H777.338V203.909H781.905V227.438Z" fill="white"/>
<path d="M803.638 222.654C803.638 220.034 803.584 217.879 803.43 215.775H807.526L807.788 219.979H807.896C809.151 217.563 812.092 215.196 816.296 215.196C819.813 215.196 825.276 217.3 825.276 226.017V241.196H820.655V226.542C820.655 222.446 819.134 219.034 814.771 219.034C811.726 219.034 809.363 221.188 808.576 223.759C808.367 224.338 808.259 225.125 808.259 225.913V241.196H803.638V222.654Z" fill="white"/>
<path d="M836.242 228.542C836.242 234.109 839.447 238.304 843.963 238.304C848.372 238.304 851.684 234.159 851.684 228.434C851.684 224.125 849.53 218.663 844.067 218.663C838.609 218.663 836.242 223.704 836.242 228.542ZM856.409 228.275C856.409 237.675 849.901 241.771 843.755 241.771C836.876 241.771 831.567 236.729 831.567 228.696C831.567 220.188 837.134 215.196 844.176 215.196C851.476 215.196 856.409 220.504 856.409 228.275Z" fill="white"/>
<path d="M864.33 215.775L867.692 228.696C868.43 231.53 869.109 234.159 869.58 236.784H869.738C870.317 234.209 871.159 231.48 871.996 228.696L876.146 215.775H880.034L883.971 228.488C884.917 231.53 885.655 234.209 886.23 236.784H886.384C886.809 234.209 887.492 231.53 888.33 228.542L891.955 215.775H896.521L888.33 241.196H884.13L880.242 229.067C879.35 226.23 878.613 223.705 877.988 220.717H877.88C877.25 223.759 876.463 226.384 875.571 229.117L871.471 241.196H867.275L859.604 215.775H864.33Z" fill="white"/>
<path d="M906.38 203.909H901.759V241.196H906.38V203.909Z" fill="white"/>
<path d="M930.901 226.017C930.955 223.075 929.697 218.509 924.497 218.509C919.822 218.509 917.776 222.817 917.405 226.017H930.901ZM917.355 229.325C917.455 235.575 921.447 238.146 926.072 238.146C929.38 238.146 931.376 237.571 933.105 236.838L933.897 240.146C932.268 240.879 929.484 241.771 925.438 241.771C917.618 241.771 912.938 236.571 912.938 228.904C912.938 221.242 917.455 215.196 924.863 215.196C933.159 215.196 935.364 222.496 935.364 227.171C935.364 228.117 935.263 228.854 935.209 229.325H917.355Z" fill="white"/>
<path d="M959.042 226.121C959.042 225.546 958.988 224.755 958.834 224.18C958.151 221.242 955.63 218.825 952.167 218.825C947.384 218.825 944.546 223.021 944.546 228.642C944.546 233.788 947.071 238.046 952.059 238.046C955.155 238.046 957.992 235.996 958.834 232.53C958.988 231.9 959.042 231.271 959.042 230.534V226.121ZM963.663 203.909V234.63C963.663 236.888 963.717 239.463 963.876 241.196H959.726L959.513 236.784H959.413C957.992 239.621 954.896 241.771 950.746 241.771C944.601 241.771 939.871 236.571 939.871 228.855C939.826 220.396 945.071 215.196 951.271 215.196C955.155 215.196 957.78 217.038 958.938 219.084H959.042V203.909H963.663Z" fill="white"/>
<path d="M989.076 225.804C989.076 225.021 989.022 224.338 988.809 223.704C987.972 221.029 985.713 218.825 982.355 218.825C977.938 218.825 974.788 222.55 974.788 228.434C974.788 233.421 977.313 237.571 982.301 237.571C985.138 237.571 987.709 235.788 988.705 232.846C988.972 232.054 989.076 231.163 989.076 230.375V225.804ZM993.642 237.521C993.642 243.346 992.488 246.921 990.017 249.125C987.551 251.438 983.98 252.167 980.776 252.167C977.73 252.167 974.372 251.438 972.322 250.071L973.476 246.55C975.155 247.604 977.784 248.546 980.934 248.546C985.663 248.546 989.13 246.079 989.13 239.671V236.838H989.022C987.601 239.2 984.872 241.088 980.934 241.088C974.63 241.088 970.113 235.734 970.113 228.696C970.113 220.084 975.734 215.196 981.563 215.196C985.976 215.196 988.392 217.509 989.497 219.613H989.601L989.809 215.775H993.851C993.747 217.617 993.642 219.663 993.642 222.763V237.521Z" fill="white"/>
<path d="M1017 226.017C1017.06 223.075 1015.8 218.509 1010.6 218.509C1005.92 218.509 1003.88 222.817 1003.51 226.017H1017ZM1003.46 229.325C1003.56 235.575 1007.55 238.146 1012.17 238.146C1015.48 238.146 1017.48 237.571 1019.21 236.838L1020 240.146C1018.37 240.879 1015.58 241.771 1011.54 241.771C1003.72 241.771 999.043 236.571 999.043 228.904C999.043 221.242 1003.56 215.196 1010.96 215.196C1019.26 215.196 1021.46 222.496 1021.46 227.171C1021.46 228.117 1021.36 228.854 1021.31 229.325H1003.46Z" fill="white"/>
<path d="M307.584 133.988H297.417C295.938 133.988 295.305 133.354 295.305 131.871V74.9044C295.305 62.8336 285.35 52.4544 272.642 52.4544C259.73 52.4544 250.192 62.4086 250.192 74.9044V131.871C250.192 133.354 249.563 133.988 248.075 133.988H237.909C236.429 133.988 235.792 133.354 235.792 131.871V42.5044C235.792 41.0252 236.429 40.3835 237.909 40.3835H245.746C247.234 40.3835 247.863 41.0252 247.863 42.5044V50.9752C247.863 52.2461 248.713 53.3044 249.563 53.3044C251.042 53.3044 252.734 51.1877 255.913 48.4336C260.784 44.4085 264.388 40.3835 274.555 40.3835C294.25 40.3835 309.705 54.5752 309.705 74.9044V131.871C309.705 133.354 309.071 133.988 307.584 133.988Z" fill="white"/>
<path d="M404.992 133.988H394.826C393.338 133.988 392.709 133.354 392.709 131.871V74.9044C392.709 62.8336 382.755 52.4544 370.046 52.4544C357.125 52.4544 347.596 62.4086 347.596 74.9044V131.871C347.596 133.354 346.963 133.988 345.484 133.988H335.317C333.838 133.988 333.196 133.354 333.196 131.871V42.5044C333.196 41.0252 333.838 40.3835 335.317 40.3835H343.15C344.63 40.3835 345.267 41.0252 345.267 42.5044V50.9752C345.267 52.2461 346.117 53.3044 346.963 53.3044C348.446 53.3044 350.138 51.1877 353.317 48.4336C358.188 44.4085 361.784 40.3835 371.95 40.3835C391.646 40.3835 407.109 54.5752 407.109 74.9044V131.871C407.109 133.354 406.471 133.988 404.992 133.988Z" fill="white"/>
<path d="M486.929 72.7877C486.929 60.7168 476.984 50.3418 464.275 50.3418C451.354 50.3418 441.825 60.2918 441.825 72.7877V75.7544C441.825 77.2335 442.463 77.871 443.942 77.871H484.809C486.296 77.871 486.929 77.2335 486.929 75.7544V72.7877ZM499.221 87.8252H443.942C442.463 87.8252 441.825 88.4627 441.825 89.9419V101.375C441.825 113.659 451.567 124.038 464.275 124.038C469.359 124.038 474.442 121.921 478.25 118.313C482.696 114.084 484.6 111.117 485.871 111.117C486.088 111.117 486.513 111.117 486.929 111.329L495.829 115.784C496.879 116.2 497.096 116.625 497.096 117.471C497.096 124.246 484.184 136.104 464.275 136.104C441.825 136.104 427.638 122.342 427.638 101.375V72.7877C427.638 64.9502 431.234 56.271 437.592 49.4877C444.579 42.0793 453.471 38.271 464.275 38.271C484.809 38.271 501.334 54.5752 501.334 72.7877V85.7085C501.334 87.1877 500.696 87.8252 499.221 87.8252Z" fill="white"/>
<path d="M622.721 133.988H612.559C611.075 133.988 610.442 133.354 610.442 131.871V42.5042C610.442 41.0251 611.075 40.3834 612.559 40.3834H622.721C624.204 40.3834 624.838 41.0251 624.838 42.5042V131.871C624.838 133.354 624.204 133.988 622.721 133.988ZM617.429 19.9584C612.346 19.9584 608.325 15.9376 608.325 10.4292C608.325 5.34589 612.559 1.11255 617.429 1.11255C622.934 1.11255 626.954 5.13339 626.954 10.4292C626.954 15.5126 622.721 19.9584 617.429 19.9584Z" fill="white"/>
<path d="M704.263 72.7877C704.263 60.7168 694.313 50.3418 681.609 50.3418C668.693 50.3418 659.163 60.2918 659.163 72.7877V75.7544C659.163 77.2335 659.797 77.871 661.28 77.871H702.151C703.638 77.871 704.263 77.2335 704.263 75.7544V72.7877ZM716.551 87.8252H661.28C659.797 87.8252 659.163 88.4627 659.163 89.9419V101.375C659.163 113.659 668.905 124.038 681.609 124.038C686.688 124.038 691.772 121.921 695.588 118.313C700.034 114.084 701.938 111.117 703.213 111.117C703.426 111.117 703.843 111.117 704.263 111.329L713.168 115.784C714.222 116.2 714.434 116.625 714.434 117.471C714.434 124.246 701.513 136.104 681.609 136.104C659.163 136.104 644.972 122.342 644.972 101.375V72.7877C644.972 64.9502 648.576 56.271 654.926 49.4877C661.909 42.0793 670.809 38.271 681.609 38.271C702.151 38.271 718.668 54.5752 718.668 72.7877V85.7085C718.668 87.1877 718.034 87.8252 716.551 87.8252Z" fill="white"/>
<path d="M847.588 72.7877C847.588 60.7168 837.634 50.3418 824.926 50.3418C812.005 50.3418 802.48 60.2918 802.48 72.7877V75.7544C802.48 77.2335 803.117 77.871 804.596 77.871H845.471C846.951 77.871 847.588 77.2335 847.588 75.7544V72.7877ZM859.88 87.8252H804.596C803.117 87.8252 802.48 88.4627 802.48 89.9419V101.375C802.48 113.659 812.221 124.038 824.926 124.038C830.009 124.038 835.092 121.921 838.901 118.313C843.346 114.084 845.255 111.117 846.526 111.117C846.738 111.117 847.159 111.117 847.588 111.329L856.48 115.784C857.542 116.2 857.755 116.625 857.755 117.471C857.755 124.246 844.834 136.104 824.926 136.104C802.48 136.104 788.288 122.342 788.288 101.375V72.7877C788.288 64.9502 791.896 56.271 798.242 49.4877C805.234 42.0793 814.126 38.271 824.926 38.271C845.471 38.271 861.996 54.5752 861.996 72.7877V85.7085C861.996 87.1877 861.359 87.8252 859.88 87.8252Z" fill="white"/>
<path d="M924.464 55.4211C922.768 55.4211 920.014 54.7836 916.414 54.7836C903.501 54.7836 893.972 64.5252 893.972 77.0211V131.871C893.972 133.354 893.334 133.988 891.855 133.988H881.689C880.209 133.988 879.576 133.354 879.576 131.871V42.5044C879.576 41.0252 880.209 40.3835 881.689 40.3835H889.526C891.009 40.3835 891.643 41.0252 891.643 42.5044V53.0919C891.643 54.5752 892.493 55.4211 893.334 55.4211C895.664 55.4211 899.047 50.1252 906.676 43.9919C909.005 42.0794 913.455 40.3835 916.414 40.3835H924.251C925.735 40.3835 926.368 41.0252 926.368 42.5044V53.3044C926.368 54.9961 925.947 55.4211 924.464 55.4211Z" fill="white"/>
<path d="M135.767 130.809L99.7668 72.5752C99.5543 72.1502 99.5543 71.9377 99.5543 71.5127C99.5543 71.096 99.7668 70.4585 100.184 70.0335L126.025 43.9918C126.663 43.3502 126.875 42.9293 126.875 42.2876C126.875 41.2335 126.025 40.3835 124.546 40.3835H112.892C112.425 40.3835 112.2 40.4585 112.071 40.5335C111.767 40.7043 111.413 41.0251 111.413 41.0251L78.5876 77.2335C77.9501 77.871 77.321 78.0835 76.6835 78.0835C75.621 78.0835 74.9918 77.2335 74.9918 75.7543V2.90012C74.9918 1.42095 74.3543 0.783447 72.8751 0.783447H62.7085C61.221 0.783447 60.5918 1.42095 60.5918 2.90012V131.871C60.5918 133.354 61.221 133.988 62.7085 133.988H72.8751C74.3543 133.988 74.9918 133.354 74.9918 131.871V97.4835C75.0001 97.4419 74.9751 97.1919 74.9793 97.1335C75.0085 96.6669 75.0543 96.3877 75.3293 96.1377L75.696 95.7877L86.6377 84.646C87.371 83.921 87.9043 83.796 88.3293 83.796C88.9668 83.796 89.5835 84.3002 90.0252 85.071L119.25 132.934C119.25 132.934 119.638 133.559 120.096 133.767C120.504 133.959 121.154 133.988 121.154 133.988H133.863C135.342 133.988 136.192 133.142 136.192 132.296C136.192 131.871 135.979 131.238 135.767 130.809Z" fill="white"/>
<path d="M176.309 121.921H167.834C161.059 121.921 155.338 116.2 155.338 109.213V105.825C155.338 98.8336 160.846 93.3336 167.834 93.3336H195.788C197.063 93.3336 197.905 94.1753 197.905 95.4503V99.2586L197.809 101.254C197.809 101.254 197.705 103.8 197.234 104.629C191.592 116.084 184.555 121.921 176.309 121.921ZM175.246 38.696C155.13 38.696 142.425 50.5502 142.425 57.1127C142.425 57.7502 142.85 58.1752 143.692 58.6002L152.592 63.2586C153.009 63.4711 153.434 63.4711 153.646 63.4711C155.13 63.4711 156.609 60.2919 161.059 56.2711C164.871 52.6711 169.959 50.7669 175.246 50.7669C188.163 50.7669 197.48 60.2919 197.692 72.7877L197.905 81.2627C197.905 82.7419 197.267 83.3794 195.788 83.3794H167.834C151.955 83.3794 141.15 93.7502 141.15 107.946V109.213C141.15 123.4 151.955 133.988 167.834 133.988H176.309C179.059 133.988 183.292 132.509 186.046 130.392C192.821 124.888 196.425 120.225 198.542 120.225C199.392 120.225 200.234 121.279 200.234 122.767V131.871C200.234 133.354 200.871 133.988 202.35 133.988H210.188C211.675 133.988 212.305 133.354 212.305 131.871V72.7877C212.305 52.2461 197.905 38.696 175.246 38.696Z" fill="white"/>
<path d="M757.609 52.4544H773.072C774.555 52.4544 775.188 51.8169 775.188 50.3419V42.5044C775.188 41.0252 774.555 40.3836 773.072 40.3836H757.609C756.13 40.3836 755.492 39.7502 755.492 38.2711V22.5961C755.492 21.1169 754.642 20.4794 753.38 20.4794H751.001C750.972 20.4752 750.388 20.4794 750.388 20.4794C749.513 20.4794 748.592 21.0086 748.113 21.4877L742.759 27.1127C742.559 27.3294 742.392 27.7419 742.392 28.0336V38.2877C742.392 39.4586 741.522 40.4127 740.351 40.4127H730.671C730.38 40.4127 729.971 40.5877 729.776 40.8002L724.934 45.9127C724.734 46.1294 724.567 46.5419 724.567 46.8336V48.3252C724.567 48.3711 724.563 48.4127 724.567 48.4586V50.3419C724.567 51.8169 725.209 52.4544 726.692 52.4544H738.976C740.455 52.4544 741.092 53.0919 741.092 54.5753V101.375C741.092 121.704 756.976 135.892 772.859 135.892C774.555 135.892 775.188 135.267 775.188 133.775V125.521C775.188 124.246 774.555 123.825 773.497 123.4C767.351 120.225 762.48 118.529 760.151 115.359C756.976 110.904 755.492 106.459 755.492 101.375V54.5753C755.492 53.0919 756.13 52.4544 757.609 52.4544Z" fill="white"/>
<path d="M571.2 169.567H541.333C534.35 169.567 528.842 164.271 528.842 156.646C528.842 149.234 534.35 143.942 541.333 143.942H571.2C578.184 143.942 583.904 149.446 583.904 156.646C583.904 164.059 578.184 169.567 571.2 169.567ZM528.842 77.0169V74.9002C528.842 62.4086 538.371 52.4502 551.292 52.4502C563.996 52.4502 573.95 62.8336 573.95 74.9002V77.0169C573.95 89.3003 563.996 99.6794 551.292 99.6794C538.579 99.6794 528.842 89.3003 528.842 77.0169ZM571.2 131.659H545.313C544.533 131.629 543.959 131.475 543.617 131.334C538.804 129.038 536.675 125.942 536.675 121.492C536.675 117.563 538.908 114.346 543.946 111.625C544.4 111.421 544.704 111.363 545.071 111.375C547.388 111.567 549.154 111.75 551.292 111.75C573.104 111.75 588.35 96.5003 588.35 77.0169V42.5002C588.35 41.021 587.713 40.3835 586.229 40.3835H578.392C576.917 40.3835 576.279 41.021 576.279 42.5002V51.3961C576.279 52.8752 575.434 53.7252 574.579 53.7252C572.25 53.7252 568.867 48.0044 561.029 42.9252C558.913 41.446 554.679 40.3835 549.596 40.3835C530.321 40.3835 514.654 55.6336 514.654 74.9002V77.0169C514.654 85.0669 516.771 91.4169 519.1 93.9586C526.088 102.009 529.904 105.825 529.904 106.667C529.904 108.784 524.608 113.021 524.608 121.492C524.608 128.059 528.842 132.084 528.842 134.413C528.842 135.675 525.246 137.8 519.95 143.088C516.558 146.267 514.654 151.567 514.654 157.284C514.654 171.05 525.875 181.638 541.333 181.638H571.2C587.075 181.638 598.304 171.05 598.304 156.646C598.304 142.25 587.288 131.659 571.2 131.659Z" fill="white"/>
<path d="M45.7417 83.3128C47.3167 85.5086 46.6209 87.4961 45.0375 89.9211C43.4542 92.3461 37.9834 100.613 37.9834 100.613C37.9834 100.613 15.875 132.567 15.475 133.163C15.075 133.763 14.6042 133.909 14.2917 133.909C13.9708 133.9 1.625 133.909 1.625 133.909C0.591667 133.909 0 133.313 0 132.721C0 132.421 0.025 132.15 0.291667 131.679C0.291667 131.679 30.3334 88.5211 30.8625 87.6919C31.3959 86.8753 31.7417 86.4336 31.6959 85.9878C31.6667 85.7294 31.6667 85.7461 31.3959 85.2461L1.275 42.7502C0.983334 42.3044 0.837501 41.8586 0.837501 41.5669C0.837501 40.8252 1.42083 40.3794 2.4625 40.3794C2.4625 40.3794 14.3333 40.3836 14.825 40.3794C15.3167 40.3794 15.7458 40.6252 16.0042 40.9711C16.3125 41.3836 43.7625 80.4586 43.7625 80.4586C43.7625 80.4586 44.3417 81.3794 45.7417 83.3128Z" fill="white"/>
</g>
<defs>
<clipPath id="clip0_540_62">
<rect width="1022" height="253" fill="white"/>
</clipPath>
</defs>
</svg>
