<svg width="103" height="12" viewBox="0 0 103 12" fill="none" xmlns="http://www.w3.org/2000/svg">
<path d="M1.024 8.416L0.976 6.976L7.76 0H9.12L4.176 5.184L3.504 5.904L1.024 8.416ZM0 11.2V0H1.184V11.2H0ZM8.048 11.2L3.216 5.632L4.016 4.768L9.456 11.2H8.048Z" fill="white"/>
<path d="M16.1803 11.2V9.344L16.1322 9.04V5.936C16.1322 5.22133 15.9296 4.672 15.5243 4.288C15.1296 3.904 14.5376 3.712 13.7483 3.712C13.2042 3.712 12.6869 3.80267 12.1962 3.984C11.7056 4.16533 11.2896 4.40533 10.9482 4.704L10.4362 3.856C10.8629 3.49333 11.3749 3.216 11.9722 3.024C12.5696 2.82133 13.1989 2.72 13.8602 2.72C14.9482 2.72 15.7856 2.992 16.3723 3.536C16.9696 4.06933 17.2683 4.88533 17.2683 5.984V11.2H16.1803ZM13.2842 11.28C12.6549 11.28 12.1056 11.1787 11.6362 10.976C11.1776 10.7627 10.8256 10.4747 10.5802 10.112C10.3349 9.73867 10.2122 9.312 10.2122 8.832C10.2122 8.39467 10.3136 8 10.5162 7.648C10.7296 7.28533 11.0709 6.99733 11.5402 6.784C12.0202 6.56 12.6602 6.448 13.4602 6.448H16.3563V7.296H13.4922C12.6816 7.296 12.1163 7.44 11.7963 7.728C11.4869 8.016 11.3322 8.37333 11.3322 8.8C11.3322 9.28 11.5189 9.664 11.8923 9.952C12.2656 10.24 12.7882 10.384 13.4602 10.384C14.1002 10.384 14.6496 10.24 15.1083 9.952C15.5776 9.65333 15.9189 9.22667 16.1322 8.672L16.3883 9.456C16.1749 10.0107 15.8016 10.4533 15.2683 10.784C14.7456 11.1147 14.0842 11.28 13.2842 11.28Z" fill="white"/>
<path d="M24.6418 2.72C25.3244 2.72 25.9218 2.85333 26.4338 3.12C26.9564 3.376 27.3618 3.77067 27.6498 4.304C27.9484 4.83733 28.0977 5.50933 28.0977 6.32V11.2H26.9618V6.432C26.9618 5.54667 26.7378 4.88 26.2898 4.432C25.8524 3.97333 25.2338 3.744 24.4338 3.744C23.8364 3.744 23.3138 3.86667 22.8658 4.112C22.4284 4.34667 22.0871 4.69333 21.8418 5.152C21.6071 5.6 21.4897 6.144 21.4897 6.784V11.2H20.3538V2.8H21.4418V5.104L21.2658 4.672C21.5324 4.064 21.9591 3.58933 22.5458 3.248C23.1324 2.896 23.8311 2.72 24.6418 2.72Z" fill="white"/>
<path d="M33.8223 11.28C33.0329 11.28 32.4249 11.0667 31.9983 10.64C31.5716 10.2133 31.3583 9.61067 31.3583 8.832V0.944H32.4942V8.768C32.4942 9.25867 32.6169 9.63733 32.8622 9.904C33.1182 10.1707 33.4809 10.304 33.9502 10.304C34.4516 10.304 34.8676 10.16 35.1982 9.872L35.5982 10.688C35.3742 10.8907 35.1022 11.04 34.7822 11.136C34.4729 11.232 34.1529 11.28 33.8223 11.28ZM29.8542 3.744V2.8H35.0542V3.744H29.8542Z" fill="white"/>
<path d="M40.7934 11.28C39.9827 11.28 39.252 11.0987 38.6014 10.736C37.9614 10.3627 37.4547 9.856 37.0814 9.216C36.708 8.56533 36.5214 7.824 36.5214 6.992C36.5214 6.14933 36.708 5.408 37.0814 4.768C37.4547 4.128 37.9614 3.62667 38.6014 3.264C39.2414 2.90133 39.972 2.72 40.7934 2.72C41.6254 2.72 42.3614 2.90133 43.0014 3.264C43.652 3.62667 44.1587 4.128 44.5214 4.768C44.8947 5.408 45.0814 6.14933 45.0814 6.992C45.0814 7.824 44.8947 8.56533 44.5214 9.216C44.1587 9.856 43.652 10.3627 43.0014 10.736C42.3507 11.0987 41.6147 11.28 40.7934 11.28ZM40.7934 10.272C41.4014 10.272 41.94 10.1387 42.4094 9.872C42.8787 9.59467 43.2467 9.21067 43.5134 8.72C43.7907 8.21867 43.9294 7.64267 43.9294 6.992C43.9294 6.33067 43.7907 5.75467 43.5134 5.264C43.2467 4.77333 42.8787 4.39467 42.4094 4.128C41.94 3.85067 41.4067 3.712 40.8094 3.712C40.212 3.712 39.6787 3.85067 39.2094 4.128C38.74 4.39467 38.3667 4.77333 38.0894 5.264C37.812 5.75467 37.6734 6.33067 37.6734 6.992C37.6734 7.64267 37.812 8.21867 38.0894 8.72C38.3667 9.21067 38.74 9.59467 39.2094 9.872C39.6787 10.1387 40.2067 10.272 40.7934 10.272Z" fill="white"/>
<path d="M50.8246 11.28C50.014 11.28 49.2833 11.0987 48.6326 10.736C47.9926 10.3627 47.486 9.856 47.1126 9.216C46.7393 8.56533 46.5526 7.824 46.5526 6.992C46.5526 6.14933 46.7393 5.408 47.1126 4.768C47.486 4.128 47.9926 3.62667 48.6326 3.264C49.2726 2.90133 50.0033 2.72 50.8246 2.72C51.6566 2.72 52.3926 2.90133 53.0326 3.264C53.6833 3.62667 54.19 4.128 54.5526 4.768C54.926 5.408 55.1126 6.14933 55.1126 6.992C55.1126 7.824 54.926 8.56533 54.5526 9.216C54.19 9.856 53.6833 10.3627 53.0326 10.736C52.382 11.0987 51.646 11.28 50.8246 11.28ZM50.8246 10.272C51.4326 10.272 51.9713 10.1387 52.4406 9.872C52.91 9.59467 53.278 9.21067 53.5446 8.72C53.822 8.21867 53.9606 7.64267 53.9606 6.992C53.9606 6.33067 53.822 5.75467 53.5446 5.264C53.278 4.77333 52.91 4.39467 52.4406 4.128C51.9713 3.85067 51.438 3.712 50.8406 3.712C50.2433 3.712 49.71 3.85067 49.2406 4.128C48.7713 4.39467 48.398 4.77333 48.1206 5.264C47.8433 5.75467 47.7046 6.33067 47.7046 6.992C47.7046 7.64267 47.8433 8.21867 48.1206 8.72C48.398 9.21067 48.7713 9.59467 49.2406 9.872C49.71 10.1387 50.238 10.272 50.8246 10.272Z" fill="white"/>
<path d="M57.4319 11.2V2.8H58.5199V5.088L58.4079 4.688C58.6425 4.048 59.0372 3.56267 59.5919 3.232C60.1465 2.89067 60.8345 2.72 61.6559 2.72V3.824C61.6132 3.824 61.5705 3.824 61.5279 3.824C61.4852 3.81333 61.4425 3.808 61.3999 3.808C60.5145 3.808 59.8212 4.08 59.3199 4.624C58.8185 5.15733 58.5679 5.92 58.5679 6.912V11.2H57.4319Z" fill="white"/>
<path d="M69.4813 11.296C68.8519 11.296 68.2599 11.1573 67.7053 10.88C67.1613 10.6027 66.7239 10.208 66.3932 9.696L67.0813 8.896C67.3906 9.344 67.7479 9.68533 68.1533 9.92C68.5586 10.1547 69.0066 10.272 69.4973 10.272C70.8839 10.272 71.5773 9.45067 71.5773 7.808V1.024H67.4813V0H72.7453V7.76C72.7453 8.944 72.4679 9.82933 71.9133 10.416C71.3693 11.0027 70.5586 11.296 69.4813 11.296Z" fill="white"/>
<path d="M81.3209 11.2V9.344L81.2729 9.04V5.936C81.2729 5.22133 81.0702 4.672 80.6649 4.288C80.2702 3.904 79.6782 3.712 78.8889 3.712C78.3449 3.712 77.8275 3.80267 77.3369 3.984C76.8462 4.16533 76.4302 4.40533 76.0889 4.704L75.5769 3.856C76.0035 3.49333 76.5155 3.216 77.1129 3.024C77.7102 2.82133 78.3395 2.72 79.0009 2.72C80.0889 2.72 80.9262 2.992 81.5129 3.536C82.1102 4.06933 82.4089 4.88533 82.4089 5.984V11.2H81.3209ZM78.4249 11.28C77.7955 11.28 77.2462 11.1787 76.7769 10.976C76.3182 10.7627 75.9662 10.4747 75.7209 10.112C75.4755 9.73867 75.3529 9.312 75.3529 8.832C75.3529 8.39467 75.4542 8 75.6569 7.648C75.8702 7.28533 76.2115 6.99733 76.6809 6.784C77.1609 6.56 77.8009 6.448 78.6009 6.448H81.4969V7.296H78.6329C77.8222 7.296 77.2569 7.44 76.9369 7.728C76.6275 8.016 76.4729 8.37333 76.4729 8.8C76.4729 9.28 76.6595 9.664 77.0329 9.952C77.4062 10.24 77.9289 10.384 78.6009 10.384C79.2409 10.384 79.7902 10.24 80.2489 9.952C80.7182 9.65333 81.0595 9.22667 81.2729 8.672L81.5289 9.456C81.3155 10.0107 80.9422 10.4533 80.4089 10.784C79.8862 11.1147 79.2249 11.28 78.4249 11.28Z" fill="white"/>
<path d="M89.7824 2.72C90.465 2.72 91.0624 2.85333 91.5744 3.12C92.097 3.376 92.5024 3.77067 92.7904 4.304C93.089 4.83733 93.2384 5.50933 93.2384 6.32V11.2H92.1024V6.432C92.1024 5.54667 91.8784 4.88 91.4304 4.432C90.993 3.97333 90.3744 3.744 89.5744 3.744C88.977 3.744 88.4544 3.86667 88.0064 4.112C87.569 4.34667 87.2277 4.69333 86.9824 5.152C86.7477 5.6 86.6304 6.144 86.6304 6.784V11.2H85.4944V2.8H86.5824V5.104L86.4064 4.672C86.673 4.064 87.0997 3.58933 87.6864 3.248C88.273 2.896 88.9717 2.72 89.7824 2.72Z" fill="white"/>
<path d="M98.5629 11.28C97.8695 11.28 97.2135 11.184 96.5949 10.992C95.9762 10.7893 95.4909 10.5387 95.1389 10.24L95.6509 9.344C95.9922 9.6 96.4295 9.824 96.9629 10.016C97.4962 10.1973 98.0562 10.288 98.6429 10.288C99.4429 10.288 100.019 10.1653 100.371 9.92C100.723 9.664 100.899 9.328 100.899 8.912C100.899 8.60267 100.798 8.36267 100.595 8.192C100.403 8.01067 100.147 7.87733 99.8269 7.792C99.5069 7.696 99.1495 7.616 98.7549 7.552C98.3602 7.488 97.9655 7.41333 97.5709 7.328C97.1869 7.24267 96.8349 7.12 96.5149 6.96C96.1949 6.78933 95.9335 6.56 95.7309 6.272C95.5389 5.984 95.4429 5.6 95.4429 5.12C95.4429 4.66133 95.5709 4.25067 95.8269 3.888C96.0829 3.52533 96.4562 3.24267 96.9469 3.04C97.4482 2.82667 98.0562 2.72 98.7709 2.72C99.3149 2.72 99.8589 2.79467 100.403 2.944C100.947 3.08267 101.395 3.26933 101.747 3.504L101.251 4.416C100.878 4.16 100.478 3.97867 100.051 3.872C99.6242 3.75467 99.1975 3.696 98.7709 3.696C98.0135 3.696 97.4535 3.82933 97.0909 4.096C96.7389 4.352 96.5629 4.68267 96.5629 5.088C96.5629 5.408 96.6589 5.65867 96.8509 5.84C97.0535 6.02133 97.3149 6.16533 97.6349 6.272C97.9655 6.368 98.3229 6.448 98.7069 6.512C99.1015 6.576 99.4909 6.656 99.8749 6.752C100.27 6.83733 100.627 6.96 100.947 7.12C101.278 7.26933 101.539 7.488 101.731 7.776C101.934 8.05333 102.035 8.42133 102.035 8.88C102.035 9.37067 101.896 9.79733 101.619 10.16C101.352 10.512 100.958 10.7893 100.435 10.992C99.9229 11.184 99.2989 11.28 98.5629 11.28Z" fill="white"/>
</svg>
