<svg width="643" height="100" viewBox="0 0 643 100" fill="none" xmlns="http://www.w3.org/2000/svg">
<path d="M597.764 99.2565C594.351 99.2565 590.937 98.3606 587.524 96.5686C584.111 94.6912 580.825 91.7472 577.668 87.7365L587.14 69.1765C588.079 70.7979 589.444 72.3339 591.236 73.7845C593.113 75.2352 595.076 76.3872 597.124 77.2405C599.172 78.0939 600.921 78.5205 602.372 78.5205C604.591 78.5205 606.681 77.8379 608.644 76.4725C610.692 75.1072 611.716 73.2726 611.716 70.9686C611.716 67.9819 610.351 65.2512 607.62 62.7766C604.889 60.3019 601.817 57.8699 598.404 55.4805C595.076 53.0912 592.004 50.4032 589.188 47.4165C586.457 44.3445 585.092 40.8459 585.092 36.9205C585.092 32.4832 586.372 28.3872 588.932 24.6325C591.492 20.7925 594.82 17.4645 598.916 14.6485C603.012 11.7472 607.364 9.52855 611.972 7.99255C616.665 6.37121 621.103 5.56055 625.284 5.56055C628.271 5.56055 631.044 6.07255 633.604 7.09654C636.164 8.03521 638.212 9.61388 639.748 11.8325C641.284 14.0512 642.052 17.0379 642.052 20.7925C642.052 21.3899 642.009 21.9872 641.924 22.5845C641.924 23.1819 641.881 23.7792 641.796 24.3765C641.711 24.9739 641.583 25.6139 641.412 26.2965C641.327 26.8939 641.241 27.5339 641.156 28.2165L622.596 33.5925C622.767 32.9099 622.895 32.2272 622.98 31.5445C623.151 30.8619 623.236 30.1792 623.236 29.4965C623.236 26.9365 622.767 25.1019 621.828 23.9925C620.975 22.7979 619.823 22.2005 618.372 22.2005C617.604 22.2005 616.495 22.6272 615.044 23.4805C613.593 24.2485 612.271 25.3579 611.076 26.8085C609.967 28.1739 609.412 29.7099 609.412 31.4165C609.412 34.2325 610.564 36.5792 612.868 38.4565C615.257 40.2485 617.988 42.0832 621.06 43.9605C622.511 44.8139 624.132 46.1792 625.924 48.0565C627.716 49.8485 629.252 52.3232 630.532 55.4805C631.897 58.5525 632.58 62.5206 632.58 67.3846C632.58 73.6992 631.001 79.2459 627.844 84.0246C624.772 88.8032 620.591 92.5579 615.3 95.2886C610.009 97.9339 604.164 99.2565 597.764 99.2565Z" fill="white"/>
<path d="M518.641 99.64C521.201 87.352 523.633 75.448 525.937 63.928C527.814 53.0907 529.649 42.68 531.441 32.696C533.233 22.712 534.513 13.5387 535.281 5.176C535.878 5.26133 536.39 5.304 536.817 5.304C537.329 5.304 537.755 5.304 538.097 5.304H540.785C543.003 5.304 545.478 5.26133 548.209 5.176C550.939 5.00534 553.457 4.87734 555.761 4.792C556.358 7.77867 556.913 10.7227 557.425 13.624C558.022 16.5253 558.534 19.3413 558.961 22.072C559.387 24.4613 559.857 26.936 560.369 29.496C560.881 31.9707 561.393 34.488 561.905 37.048C562.331 39.608 562.758 41.9973 563.185 44.216C563.697 46.3493 564.123 48.312 564.465 50.104C565.489 45.0693 566.427 40.12 567.281 35.256C568.219 30.392 569.115 25.9973 569.969 22.072L573.681 4.92001L589.297 3C587.846 9.48534 586.481 15.8427 585.201 22.072C583.921 28.3013 582.726 34.3173 581.617 40.12C579.483 50.5307 577.606 60.344 575.985 69.56C574.363 78.776 573.126 86.7973 572.273 93.624C573.211 93.624 573.041 93.752 571.761 94.008C570.566 94.1787 568.774 94.4773 566.385 94.904C563.995 95.2453 561.435 95.7147 558.705 96.312C555.974 96.9093 553.542 97.6347 551.409 98.488C551.153 95.0747 550.897 91.7467 550.641 88.504C550.385 85.2613 550.086 82.104 549.745 79.032C549.233 73.5707 548.635 68.152 547.953 62.776C547.27 57.4 546.587 53.1333 545.905 49.976C545.307 53.7307 544.582 58.04 543.729 62.904C542.875 67.6827 541.937 72.504 540.913 77.368L537.329 95.288L518.641 99.64Z" fill="white"/>
<path d="M495.777 98.7444C495.948 97.2937 496.119 95.8857 496.289 94.5203C496.46 93.155 496.631 91.7897 496.801 90.4243L497.569 83.2563C497.655 82.0617 497.74 80.9524 497.826 79.9284C497.911 78.9044 497.996 77.9657 498.081 77.1124H486.945L481.826 95.5443C479.948 95.8003 477.729 96.099 475.169 96.4404C472.609 96.6964 470.22 96.9524 468.001 97.2084C466.636 97.379 465.271 97.5497 463.905 97.7204C462.625 97.891 461.303 98.0617 459.938 98.2324L470.049 64.6964C471.244 60.6857 472.609 56.1204 474.145 51.0004C475.681 45.8804 477.217 40.6323 478.753 35.2563C480.375 29.8803 481.868 24.8457 483.233 20.1523C484.684 15.3737 485.836 11.363 486.689 8.12035C492.492 7.69368 498.38 7.18168 504.353 6.58434C510.412 5.98701 516.3 5.17635 522.018 4.15234C521.591 8.93101 521.164 14.3497 520.737 20.4083C520.396 26.3817 520.055 32.5683 519.714 38.9683C519.458 45.3683 519.159 51.683 518.818 57.9124C518.647 63.8004 518.433 69.9017 518.177 76.2164C517.921 82.4457 517.665 88.8457 517.409 95.4164C516.129 95.587 514.85 95.7577 513.57 95.9284C512.29 96.099 511.009 96.2697 509.729 96.4404C507.596 96.7817 505.249 97.1657 502.689 97.5924C500.129 98.019 497.825 98.403 495.777 98.7444ZM490.017 64.3123C490.529 64.3123 491.468 64.2697 492.833 64.1843C494.284 64.099 495.65 64.0137 496.93 63.9283C498.21 63.843 498.977 63.8004 499.233 63.8004C499.233 62.691 499.404 60.4297 499.745 57.0163C500.087 53.603 500.428 50.019 500.77 46.2643C500.94 44.0457 501.111 41.7843 501.281 39.4803C501.537 37.091 501.793 34.659 502.049 32.1843L502.818 21.0483L500.897 21.1763L497.953 32.1843L490.017 64.3123Z" fill="white"/>
<path d="M440.314 99.1272C437.925 99.1272 435.322 98.6152 432.506 97.5912C429.775 96.5672 426.746 94.8178 423.418 92.3432L432.25 72.6312C432.677 73.4845 433.487 74.2525 434.682 74.9352C435.962 75.5325 437.327 75.8312 438.778 75.8312C439.887 75.8312 440.869 74.9352 441.722 73.1432C442.575 71.3512 443.258 69.1752 443.77 66.6152C444.367 64.0552 444.837 61.6658 445.178 59.4472C445.519 57.1432 445.733 55.5218 445.818 54.5832C446.671 50.4018 447.482 46.2632 448.25 42.1672C449.018 38.0712 449.743 33.9325 450.426 29.7512C451.109 25.6552 451.877 21.5592 452.73 17.4632C453.669 13.3672 454.607 9.27117 455.546 5.17517C459.386 4.83384 463.141 4.32184 466.81 3.63917C470.565 2.87117 474.319 1.97517 478.074 0.951172C476.794 5.30317 475.471 10.2525 474.106 15.7992C472.741 21.2605 471.418 26.9352 470.138 32.8232C468.858 38.7112 467.621 44.4285 466.426 49.9752C465.317 55.5218 464.335 60.5138 463.482 64.9512C462.714 68.5352 461.775 72.3325 460.666 76.3432C459.557 80.2685 458.106 83.9805 456.314 87.4792C454.522 90.8925 452.303 93.7085 449.658 95.9272C447.098 98.0605 443.983 99.1272 440.314 99.1272Z" fill="white"/>
<path d="M345.512 99.1276L352.168 65.8476C353.192 59.7036 354.301 53.389 355.496 46.9036C356.69 40.4183 357.8 34.0183 358.824 27.7036C359.933 21.389 360.786 15.4583 361.384 9.91164C366.248 8.37564 371.496 7.2663 377.128 6.58363C382.76 5.81564 388.349 5.43164 393.896 5.43164C400.381 5.43164 404.776 6.83964 407.08 9.65564C409.469 12.4716 410.664 16.269 410.664 21.0476C410.664 25.3996 409.64 29.7943 407.592 34.2316C405.544 38.5836 402.856 42.5516 399.528 46.1356C396.285 49.6343 392.701 52.4076 388.776 54.4556C390.312 57.869 391.933 61.6236 393.64 65.7196C395.432 69.7303 397.096 73.5703 398.632 77.2396C399.485 79.373 400.338 81.5063 401.192 83.6396C402.13 85.773 403.026 87.9063 403.88 90.0396L384.04 96.9516L379.432 81.5916C378.152 77.325 376.957 73.229 375.848 69.3036C374.824 65.293 374.226 62.477 374.056 60.8556L372.392 61.3676C372.136 62.733 371.837 64.2263 371.496 65.8476C371.24 67.3836 370.941 69.0903 370.6 70.9676C370.258 72.845 369.917 74.6796 369.576 76.4716C369.234 78.1783 368.893 79.885 368.552 81.5916L366.248 93.7516L345.512 99.1276ZM375.592 43.5756C377.128 43.405 379.005 42.765 381.224 41.6556C383.528 40.461 385.789 39.0103 388.008 37.3036C390.312 35.597 392.232 33.8476 393.768 32.0556C395.304 30.2636 396.072 28.685 396.072 27.3196C396.072 25.613 395.048 24.5036 393 23.9916C391.037 23.3943 388.434 23.0956 385.192 23.0956H382.376C381.864 23.181 381.394 23.2236 380.968 23.2236C380.541 23.2236 380.114 23.2236 379.688 23.2236L375.592 43.5756Z" fill="white"/>
<path d="M305.044 99.5119C299.412 99.5119 294.804 97.3359 291.22 92.9839C287.636 88.6319 285.844 82.0612 285.844 73.2719C285.844 68.4079 286.441 63.2879 287.636 57.9119C288.83 52.5359 290.494 47.2452 292.628 42.0399C294.761 36.8345 297.236 32.0132 300.052 27.5759C304.574 20.4079 309.78 14.5625 315.668 10.0399C321.556 5.51719 327.742 3.25586 334.228 3.25586C339.348 3.25586 343.273 4.57853 346.004 7.22386C348.82 9.78386 350.782 13.1119 351.892 17.2079C353.001 21.2185 353.556 25.3999 353.556 29.7519C353.556 39.9065 351.977 49.3785 348.82 58.1679C345.748 66.8719 341.737 74.2532 336.788 80.3119C331.838 86.5412 326.548 91.3199 320.916 94.6479C315.369 97.8905 310.078 99.5119 305.044 99.5119ZM311.956 78.3919C315.796 78.3919 319.166 77.1119 322.068 74.5519C325.054 71.9919 327.572 68.7492 329.62 64.8239C331.668 60.8132 333.204 56.6319 334.228 52.2799C335.252 47.9279 335.764 44.0025 335.764 40.5039C335.764 39.1385 335.636 37.6879 335.38 36.1519C335.124 34.5305 334.569 33.1225 333.716 31.9279C332.862 30.7332 331.54 30.1359 329.748 30.1359C325.822 30.1359 322.281 31.5865 319.124 34.4879C315.966 37.3039 313.321 40.8879 311.188 45.2399C309.054 49.6772 307.476 54.0292 306.452 58.2959C305.428 62.5625 304.916 66.4452 304.916 69.9439C304.916 71.7359 305.556 73.6132 306.836 75.5759C308.116 77.4532 309.822 78.3919 311.956 78.3919Z" fill="white"/>
<path d="M241.919 99.5119C236.287 99.5119 231.679 97.3359 228.095 92.9839C224.511 88.6319 222.719 82.0612 222.719 73.2719C222.719 68.4079 223.316 63.2879 224.511 57.9119C225.705 52.5359 227.369 47.2452 229.503 42.0399C231.636 36.8345 234.111 32.0132 236.927 27.5759C241.449 20.4079 246.655 14.5625 252.543 10.0399C258.431 5.51719 264.617 3.25586 271.103 3.25586C276.223 3.25586 280.148 4.57853 282.879 7.22386C285.695 9.78386 287.657 13.1119 288.767 17.2079C289.876 21.2185 290.431 25.3999 290.431 29.7519C290.431 39.9065 288.852 49.3785 285.695 58.1679C282.623 66.8719 278.612 74.2532 273.663 80.3119C268.713 86.5412 263.423 91.3199 257.791 94.6479C252.244 97.8905 246.953 99.5119 241.919 99.5119ZM248.831 78.3919C252.671 78.3919 256.041 77.1119 258.943 74.5519C261.929 71.9919 264.447 68.7492 266.495 64.8239C268.543 60.8132 270.079 56.6319 271.103 52.2799C272.127 47.9279 272.639 44.0025 272.639 40.5039C272.639 39.1385 272.511 37.6879 272.255 36.1519C271.999 34.5305 271.444 33.1225 270.591 31.9279C269.737 30.7332 268.415 30.1359 266.623 30.1359C262.697 30.1359 259.156 31.5865 255.999 34.4879C252.841 37.3039 250.196 40.8879 248.063 45.2399C245.929 49.6772 244.351 54.0292 243.327 58.2959C242.303 62.5625 241.791 66.4452 241.791 69.9439C241.791 71.7359 242.431 73.6132 243.711 75.5759C244.991 77.4532 246.697 78.3919 248.831 78.3919Z" fill="white"/>
<path d="M183.895 99.1275C184.833 94.4342 185.772 89.7835 186.711 85.1755C187.735 80.4822 188.673 75.8742 189.527 71.3515C192.769 55.1382 195.415 39.6075 197.463 24.7595C196.524 24.5888 195.543 24.5035 194.519 24.5035C193.495 24.4182 192.513 24.4182 191.575 24.5035C189.527 24.6742 187.521 24.4182 185.559 23.7355C185.644 23.0528 185.687 22.3275 185.687 21.5595C185.687 20.7062 185.687 19.8528 185.687 18.9995C185.687 18.0608 185.687 17.1648 185.687 16.3115C185.687 15.3728 185.729 14.4768 185.815 13.6235C185.9 12.6848 185.943 11.7035 185.943 10.6795C185.943 9.57017 185.985 8.46084 186.071 7.3515C188.289 7.52217 190.508 7.65016 192.727 7.7355C194.945 7.82083 197.164 7.8635 199.383 7.8635C205.697 7.8635 211.713 7.65017 217.431 7.2235C223.233 6.79683 228.567 6.28483 233.431 5.6875L232.023 12.5995L230.871 18.6155C230.444 20.8342 230.06 22.5835 229.719 23.8635C228.78 24.1195 227.841 24.3328 226.903 24.5035C225.964 24.6742 225.025 24.8022 224.087 24.8875C223.148 24.9728 222.167 25.1008 221.143 25.2715C220.204 25.4422 219.265 25.6128 218.327 25.7835C217.047 32.0982 215.98 37.5595 215.127 42.1675C214.359 46.7755 213.633 51.2128 212.951 55.4795C212.353 59.6608 211.628 64.2688 210.775 69.3035C209.324 77.9222 208.044 86.6688 206.935 95.5435L183.895 99.1275Z" fill="white"/>
<path d="M115.141 99.64C117.701 87.352 120.133 75.448 122.437 63.928C124.314 53.0907 126.149 42.68 127.941 32.696C129.733 22.712 131.013 13.5387 131.781 5.176C132.378 5.26133 132.89 5.304 133.317 5.304C133.829 5.304 134.255 5.304 134.597 5.304H137.285C139.503 5.304 141.978 5.26133 144.709 5.176C147.439 5.00534 149.957 4.87734 152.261 4.792C152.858 7.77867 153.413 10.7227 153.925 13.624C154.522 16.5253 155.034 19.3413 155.461 22.072C155.887 24.4613 156.357 26.936 156.869 29.496C157.381 31.9707 157.893 34.488 158.405 37.048C158.831 39.608 159.258 41.9973 159.685 44.216C160.197 46.3493 160.623 48.312 160.965 50.104C161.989 45.0693 162.927 40.12 163.781 35.256C164.719 30.392 165.615 25.9973 166.469 22.072L170.181 4.92001L185.797 3C184.346 9.48534 182.981 15.8427 181.701 22.072C180.421 28.3013 179.226 34.3173 178.117 40.12C175.983 50.5307 174.106 60.344 172.485 69.56C170.863 78.776 169.626 86.7973 168.773 93.624C169.711 93.624 169.541 93.752 168.261 94.008C167.066 94.1787 165.274 94.4773 162.885 94.904C160.495 95.2453 157.935 95.7147 155.205 96.312C152.474 96.9093 150.042 97.6347 147.909 98.488C147.653 95.0747 147.397 91.7467 147.141 88.504C146.885 85.2613 146.586 82.104 146.245 79.032C145.733 73.5707 145.135 68.152 144.453 62.776C143.77 57.4 143.087 53.1333 142.405 49.976C141.807 53.7307 141.082 58.04 140.229 62.904C139.375 67.6827 138.437 72.504 137.413 77.368L133.829 95.288L115.141 99.64Z" fill="white"/>
<path d="M92.2775 98.7444C92.4482 97.2937 92.6188 95.8857 92.7895 94.5203C92.9602 93.155 93.1308 91.7897 93.3015 90.4243L94.0695 83.2563C94.1548 82.0617 94.2402 80.9524 94.3255 79.9284C94.4108 78.9044 94.4962 77.9657 94.5815 77.1124H83.4455L78.3255 95.5443C76.4482 95.8003 74.2295 96.099 71.6695 96.4404C69.1095 96.6964 66.7202 96.9524 64.5015 97.2084C63.1362 97.379 61.7708 97.5497 60.4055 97.7204C59.1255 97.891 57.8028 98.0617 56.4375 98.2324L66.5495 64.6964C67.7442 60.6857 69.1095 56.1204 70.6455 51.0004C72.1815 45.8804 73.7175 40.6323 75.2535 35.2563C76.8748 29.8803 78.3682 24.8457 79.7335 20.1523C81.1842 15.3737 82.3362 11.363 83.1895 8.12035C88.9922 7.69368 94.8802 7.18168 100.853 6.58434C106.912 5.98701 112.8 5.17635 118.517 4.15234C118.091 8.93101 117.664 14.3497 117.237 20.4083C116.896 26.3817 116.555 32.5683 116.213 38.9683C115.957 45.3683 115.659 51.683 115.318 57.9124C115.147 63.8004 114.934 69.9017 114.678 76.2164C114.422 82.4457 114.166 88.8457 113.91 95.4164C112.63 95.587 111.349 95.7577 110.069 95.9284C108.789 96.099 107.51 96.2697 106.23 96.4404C104.096 96.7817 101.75 97.1657 99.1895 97.5924C96.6295 98.019 94.3255 98.403 92.2775 98.7444ZM86.5175 64.3123C87.0295 64.3123 87.9682 64.2697 89.3335 64.1843C90.7842 64.099 92.1495 64.0137 93.4295 63.9283C94.7095 63.843 95.4775 63.8004 95.7335 63.8004C95.7335 62.691 95.9042 60.4297 96.2455 57.0163C96.5868 53.603 96.9282 50.019 97.2695 46.2643C97.4402 44.0457 97.6108 41.7843 97.7815 39.4803C98.0375 37.091 98.2935 34.659 98.5495 32.1843L99.3175 21.0483L97.3975 21.1763L94.4535 32.1843L86.5175 64.3123Z" fill="white"/>
<path d="M0.894531 99.1288C2.17453 93.1554 3.41186 87.2674 4.60653 81.4648C5.8012 75.6621 6.9532 69.9448 8.06253 64.3128C9.85453 54.1581 11.6039 44.1314 13.3105 34.2328C15.0172 24.2488 16.2545 14.7341 17.0225 5.68877L23.6785 6.07277C24.8732 6.1581 26.0252 6.24343 27.1345 6.32877C28.3292 6.4141 29.4812 6.49943 30.5905 6.58476C31.8705 6.6701 33.1505 6.75543 34.4305 6.84077C35.7105 6.84077 36.9905 6.84077 38.2705 6.84077C38.0999 7.52343 37.8012 8.88877 37.3745 10.9368C37.0332 12.9848 36.6492 15.0754 36.2225 17.2088C35.8812 19.2568 35.6252 20.6648 35.4545 21.4328L33.1505 34.1048L33.9185 33.9768C36.3932 30.1368 39.2519 25.6994 42.4945 20.6648C45.7372 15.6301 48.7665 10.8088 51.5825 6.20077C55.8492 5.85943 60.1159 5.47543 64.3825 5.04877C68.6492 4.6221 72.9159 4.06743 77.1825 3.38477C75.2199 6.0301 73.2572 8.67543 71.2945 11.3208C69.3319 13.9661 67.4119 16.6114 65.5345 19.2568C63.5719 21.9874 61.4385 24.9741 59.1345 28.2168C56.8305 31.4594 54.6119 34.6594 52.4785 37.8168C50.4305 40.8888 48.7239 43.5341 47.3585 45.7528C48.2972 50.0194 49.3212 54.2434 50.4305 58.4248C51.5399 62.6061 52.7345 66.7021 54.0145 70.7128C55.2945 74.7234 56.5745 78.7768 57.8545 82.8728C59.1345 86.9688 60.4572 91.1074 61.8225 95.2888C59.8599 95.2034 57.8545 95.1608 55.8065 95.1608C53.7585 95.0754 51.7532 95.0328 49.7905 95.0328C47.3159 95.0328 44.9265 95.0754 42.6225 95.1608C40.3185 95.1608 37.9292 95.2034 35.4545 95.2888C35.1132 92.5581 34.7292 89.7421 34.3025 86.8408C33.8759 83.8541 33.4492 80.8248 33.0225 77.7528C32.5959 74.7661 32.1692 71.8221 31.7425 68.9208C31.3159 65.9341 30.8892 63.0754 30.4625 60.3448L28.1585 63.0328C27.5612 65.5074 26.9212 68.6648 26.2385 72.5048C25.8972 74.3821 25.5132 76.2594 25.0865 78.1368C24.7452 79.9288 24.4039 81.6781 24.0625 83.3848C23.7212 85.4328 23.3372 87.5234 22.9105 89.6568C22.4839 91.7048 22.0572 93.8381 21.6305 96.0568L0.894531 99.1288Z" fill="white"/>
</svg>
