<svg width="318" height="86" viewBox="0 0 318 86" fill="none" xmlns="http://www.w3.org/2000/svg">
<path d="M118.638 0V29.4422H109.973V0H118.638ZM135.967 0L127.681 13.0713L136.724 29.4422H126.882L118.89 13.7482L127.05 0H135.967Z" fill="white"/>
<path d="M149.729 0V29.4422H141.064V0H149.729Z" fill="white"/>
<path d="M180.475 29.4422H169.623L163.23 7.95278L163.356 8.88342C163.665 10.9421 163.903 12.8316 164.071 14.5519C164.268 16.244 164.366 18.1617 164.366 20.305V29.4422H156.711V0H167.352L173.998 21.574L173.872 20.6857C173.535 18.7398 173.269 16.9349 173.073 15.271C172.904 13.5789 172.82 11.6331 172.82 9.43335V0H180.475V29.4422Z" fill="white"/>
<path d="M206.695 0L205.812 6.04919H196.138V11.5485H204.634V17.4284H196.138V23.3507H206.485V29.4422H187.473V0H206.695Z" fill="white"/>
<path d="M12.5764 50.5509C14.399 50.5509 15.9693 50.8188 17.2873 51.3546C18.6332 51.8623 19.9652 52.666 21.2831 53.7659L18.9277 56.2194C17.8901 55.3733 16.8947 54.767 15.9413 54.4004C14.9879 54.0338 13.8663 53.8505 12.5764 53.8505C11.0902 53.8505 9.7162 54.2594 8.45435 55.0772C7.22055 55.8669 6.21107 57.15 5.42593 58.9267C4.64078 60.6752 4.24821 62.9031 4.24821 65.6104C4.24821 69.6996 4.90717 72.689 6.22509 74.5785C7.57106 76.4679 9.54795 77.4127 12.1558 77.4127C14.2869 77.4127 16.1236 76.9756 17.6658 76.1013V67.3025H12.5343L12.0716 64.0453H21.6196V78.1318C18.6192 79.8521 15.4646 80.7122 12.1558 80.7122C8.34219 80.7122 5.35582 79.4291 3.19667 76.8628C1.06556 74.2964 0 70.5457 0 65.6104C0 62.4519 0.560819 59.7445 1.68246 57.4884C2.83214 55.2041 4.36037 53.4838 6.26716 52.3276C8.20198 51.1431 10.3051 50.5509 12.5764 50.5509Z" fill="white"/>
<path d="M36.924 67.8524H32.4235V80.2046H28.4276V51.0585H36.0407C39.658 51.0585 42.392 51.7495 44.2427 53.1313C46.1215 54.5132 47.0608 56.5719 47.0608 59.3074C47.0608 61.3379 46.5421 62.9877 45.5046 64.2568C44.4671 65.5258 42.8968 66.4847 40.7937 67.1333L48.6171 80.2046H43.8642L36.924 67.8524ZM36.4614 64.7644C38.5644 64.7644 40.1487 64.3414 41.2143 63.4953C42.2799 62.6211 42.8126 61.2251 42.8126 59.3074C42.8126 57.5025 42.2658 56.2053 41.1722 55.4156C40.1067 54.5978 38.3822 54.1889 35.9987 54.1889H32.4235V64.7644H36.4614Z" fill="white"/>
<path d="M63.872 50.5509C66.3115 50.5509 68.4426 51.1431 70.2653 52.3276C72.116 53.4838 73.5461 55.19 74.5556 57.4461C75.5931 59.7022 76.1118 62.4378 76.1118 65.6527C76.1118 68.8113 75.5931 71.5186 74.5556 73.7747C73.5461 76.0308 72.116 77.7511 70.2653 78.9356C68.4426 80.12 66.3115 80.7122 63.872 80.7122C61.4324 80.7122 59.2873 80.1341 57.4366 78.9779C55.6139 77.8216 54.1838 76.1154 53.1463 73.8593C52.1368 71.6032 51.6321 68.8818 51.6321 65.695C51.6321 62.5647 52.1368 59.8574 53.1463 57.573C54.1838 55.2887 55.6279 53.5543 57.4786 52.3699C59.3293 51.1572 61.4604 50.5509 63.872 50.5509ZM63.872 53.8505C61.3483 53.8505 59.3854 54.8093 57.9833 56.727C56.5813 58.6447 55.8803 61.634 55.8803 65.695C55.8803 69.7278 56.5813 72.689 57.9833 74.5785C59.4134 76.4679 61.3763 77.4127 63.872 77.4127C69.1997 77.4127 71.8636 73.4927 71.8636 65.6527C71.8636 57.7846 69.1997 53.8505 63.872 53.8505Z" fill="white"/>
<path d="M98.3364 51.0585L97.8737 54.2735H86.6433V63.7914H96.4015V67.0064H86.6433V76.9897H98.6729V80.2046H82.6475V51.0585H98.3364Z" fill="white"/>
<path d="M112.77 51.0585C116.359 51.0585 119.135 51.82 121.098 53.3428C123.061 54.8375 124.042 57.0795 124.042 60.0689C124.042 63.2556 123.019 65.6245 120.972 67.1756C118.925 68.7267 116.205 69.5022 112.812 69.5022H109.153V80.2046H105.157V51.0585H112.77ZM112.644 66.3296C114.971 66.3296 116.738 65.8783 117.944 64.9759C119.177 64.0735 119.794 62.4519 119.794 60.1112C119.794 58.0243 119.177 56.5155 117.944 55.5849C116.738 54.6542 114.999 54.1889 112.728 54.1889H109.153V66.3296H112.644Z" fill="white"/>
<path d="M135.926 50.5509C137.861 50.5509 139.515 50.8329 140.889 51.3969C142.263 51.9328 143.595 52.7788 144.885 53.9351L142.698 56.3886C141.604 55.5143 140.525 54.8798 139.459 54.485C138.421 54.062 137.3 53.8505 136.094 53.8505C134.58 53.8505 133.332 54.203 132.351 54.908C131.369 55.6131 130.878 56.6424 130.878 57.9961C130.878 58.8421 131.047 59.5612 131.383 60.1535C131.72 60.7175 132.337 61.2392 133.234 61.7186C134.159 62.1981 135.491 62.7057 137.23 63.2415C139.052 63.8055 140.567 64.4119 141.772 65.0605C142.978 65.7091 143.946 66.6116 144.675 67.7678C145.432 68.8959 145.81 70.3342 145.81 72.0826C145.81 73.7747 145.39 75.2694 144.548 76.5667C143.735 77.8639 142.544 78.8792 140.973 79.6124C139.431 80.3456 137.594 80.7122 135.463 80.7122C131.453 80.7122 128.173 79.4573 125.621 76.9474L127.808 74.4939C128.986 75.4527 130.177 76.1859 131.383 76.6936C132.589 77.173 133.935 77.4127 135.421 77.4127C137.216 77.4127 138.702 76.9756 139.88 76.1013C141.057 75.1989 141.646 73.9016 141.646 72.2095C141.646 71.2507 141.464 70.4611 141.099 69.8406C140.735 69.192 140.104 68.6139 139.207 68.1062C138.337 67.5986 137.061 67.091 135.379 66.5834C132.407 65.6809 130.234 64.5952 128.86 63.3261C127.486 62.0571 126.799 60.3368 126.799 58.1653C126.799 56.6988 127.177 55.3874 127.934 54.2312C128.719 53.0749 129.799 52.1725 131.173 51.5239C132.575 50.8752 134.159 50.5509 135.926 50.5509Z" fill="white"/>
<path d="M159.309 51.0585C162.898 51.0585 165.674 51.82 167.637 53.3428C169.6 54.8375 170.581 57.0795 170.581 60.0689C170.581 63.2556 169.558 65.6245 167.511 67.1756C165.464 68.7267 162.744 69.5022 159.351 69.5022H155.691V80.2046H151.696V51.0585H159.309ZM159.183 66.3296C161.51 66.3296 163.277 65.8783 164.482 64.9759C165.716 64.0735 166.333 62.4519 166.333 60.1112C166.333 58.0243 165.716 56.5155 164.482 55.5849C163.277 54.6542 161.538 54.1889 159.267 54.1889H155.691V66.3296H159.183Z" fill="white"/>
<path d="M184.632 67.8524H180.131V80.2046H176.136V51.0585H183.749C187.366 51.0585 190.1 51.7495 191.951 53.1313C193.829 54.5132 194.769 56.5719 194.769 59.3074C194.769 61.3379 194.25 62.9877 193.213 64.2568C192.175 65.5258 190.605 66.4847 188.502 67.1333L196.325 80.2046H191.572L184.632 67.8524ZM184.169 64.7644C186.272 64.7644 187.857 64.3414 188.922 63.4953C189.988 62.6211 190.521 61.2251 190.521 59.3074C190.521 57.5025 189.974 56.2053 188.88 55.4156C187.815 54.5978 186.09 54.1889 183.707 54.1889H180.131V64.7644H184.169Z" fill="white"/>
<path d="M217.039 80.2046L214.852 72.8864H203.874L201.687 80.2046H197.649L206.944 51.0585H211.992L221.245 80.2046H217.039ZM204.841 69.6291H213.884L209.384 54.4004L204.841 69.6291Z" fill="white"/>
<path d="M229.71 51.0585V80.2046H225.714V51.0585H229.71ZM245.483 51.0585L234.505 64.3837L246.282 80.2046H241.361L229.92 64.6375L240.94 51.0585H245.483Z" fill="white"/>
<path d="M267.602 51.0585L267.181 54.485H259.147V80.2046H255.151V54.485H246.907V51.0585H267.602Z" fill="white"/>
<path d="M276.207 51.0585V80.2046H272.211V51.0585H276.207Z" fill="white"/>
<path d="M289.243 76.1436C289.243 79.0202 288.612 81.1776 287.35 82.6158C286.117 84.0541 284.224 85.1822 281.672 86L280.621 83.0812C281.91 82.5735 282.878 82.0236 283.523 81.4314C284.168 80.8392 284.616 80.12 284.869 79.274C285.121 78.4279 285.247 77.3281 285.247 75.9744V51.0585H289.243V76.1436Z" fill="white"/>
<path d="M301.428 51.0585V80.2046H297.432V51.0585H301.428ZM317.201 51.0585L306.223 64.3837L318 80.2046H313.079L301.638 64.6375L312.658 51.0585H317.201Z" fill="white"/>
</svg>
