<svg width="2583" height="1956" viewBox="0 0 2583 1956" fill="none" xmlns="http://www.w3.org/2000/svg">
<g clip-path="url(#clip0_444_134)">
<path d="M375.7 983.43C375.7 966.363 367.667 953.98 355.954 945.947C345.246 938.584 329.517 934.234 304.417 934.234H216.733V943.605C243.842 945.947 246.854 948.292 246.854 976.067V1110.27C246.854 1136.71 245.179 1139.72 216.733 1142.4V1151.77H299.063C322.488 1151.77 339.554 1148.42 356.959 1138.72C376.704 1128.01 389.421 1109.93 389.421 1087.18C389.421 1054.72 363.317 1039.32 331.188 1033.97C349.929 1029.28 375.7 1014.89 375.7 983.43ZM275.633 1029.95V966.03C275.633 955.317 276.638 951.638 279.317 949.63C282.663 947.288 288.688 946.284 298.058 946.284C330.183 946.284 344.575 964.355 344.575 987.78C344.575 1015.23 329.517 1029.95 292.704 1029.95H275.633ZM275.633 1041.66H291.7C332.529 1041.66 356.625 1056.39 356.625 1090.53C356.625 1125.66 331.188 1139.72 305.083 1139.72C281.325 1139.72 275.633 1133.7 275.633 1109.6V1041.66Z" fill="white"/>
<path d="M467.059 949.63C467.059 938.922 459.363 931.222 449.992 931.222C440.284 931.222 431.917 938.922 431.917 949.63C431.917 959.001 440.284 967.368 449.655 967.368C459.363 967.368 467.059 959.001 467.059 949.63ZM488.813 1151.77V1142.4C467.059 1140.39 464.717 1138.72 464.717 1115.96V1000.16C450.326 1006.19 434.596 1010.54 417.192 1013.55V1021.58C437.271 1024.93 438.276 1026.27 438.276 1047.02V1115.96C438.276 1138.72 435.934 1140.39 414.851 1142.4V1151.77H488.813Z" fill="white"/>
<path d="M600.926 1042.33C599.255 1034.3 596.913 1013.22 595.909 1005.18C589.213 1004.18 577.834 1000.83 563.78 1000.83C532.322 1000.83 511.572 1019.58 511.572 1044.01C511.572 1068.1 530.647 1078.81 554.076 1090.19C571.813 1098.89 580.847 1106.59 580.847 1121.65C580.847 1135.71 570.138 1144.41 557.422 1144.41C533.993 1144.41 522.28 1127.01 516.255 1105.58L506.551 1107.26C507.888 1118.3 510.901 1136.71 512.576 1146.41C519.605 1150.43 534.997 1155.78 552.401 1155.78C578.838 1155.78 606.951 1140.06 606.951 1109.27C606.951 1087.18 592.559 1077.14 563.78 1063.42C545.038 1054.72 535.334 1048.02 535.334 1033.63C535.334 1020.25 544.367 1011.88 556.08 1011.88C576.497 1011.88 585.197 1025.26 591.222 1044.68L600.926 1042.33Z" fill="white"/>
<path d="M713.375 1139.72L710.363 1131.02C705.675 1133.36 697.98 1136.38 689.946 1136.38C681.246 1136.38 670.538 1131.36 670.538 1104.25V1018.57H706.68C710.696 1015.56 711.7 1008.2 708.688 1004.85H670.538C670.538 988.784 670.871 969.376 671.542 955.318L666.521 954.651C660.163 961.343 650.459 970.043 644.096 976.738V1004.85H628.705L619.667 1014.56L621.004 1018.57H644.096V1115.96C644.096 1142.73 655.475 1155.78 676.896 1155.78C680.242 1155.78 685.596 1154.45 691.288 1151.43L713.375 1139.72Z" fill="white"/>
<path d="M802.392 1142.4C776.621 1140.39 774.95 1138.72 774.95 1116.63V1053.71C782.313 1036.64 794.696 1026.27 801.721 1026.27C807.746 1026.27 811.763 1029.62 816.784 1034.63C819.459 1036.98 822.138 1037.31 825.484 1035.31C831.509 1031.96 836.863 1024.6 836.863 1016.9C836.863 1008.53 829.834 1000.83 817.455 1000.83C800.721 1000.83 786.663 1019.24 774.95 1036.64V999.83C759.221 1006.86 744.159 1010.88 727.763 1013.55V1021.92C747.171 1024.26 748.513 1025.26 748.513 1047.35V1116.96C748.513 1138.72 746.505 1140.39 725.417 1142.4V1151.77H802.392V1142.4Z" fill="white"/>
<path d="M848.58 1081.16C848.58 1118.64 876.693 1155.78 922.876 1155.78C955.676 1155.78 995.834 1130.02 995.834 1075.8C995.834 1032.63 964.709 1000.83 922.876 1000.83C891.084 1000.83 848.58 1026.61 848.58 1081.16ZM964.376 1083.16C964.376 1129.01 946.972 1144.07 926.226 1144.07C898.78 1144.07 880.038 1113.28 880.038 1070.78C880.038 1031.96 898.447 1012.21 918.863 1012.21C948.313 1012.21 964.376 1044.01 964.376 1083.16Z" fill="white"/>
<path d="M1259.21 1093.54C1254.19 1105.92 1247.16 1119.31 1238.8 1128.01C1231.1 1136.38 1226.08 1138.38 1209.01 1138.38C1207.01 1138.38 1182.91 1138.05 1182.57 1138.05C1163.5 1137.71 1160.82 1133.03 1160.82 1112.61V976.405C1160.82 947.622 1164.5 946.284 1191.28 943.605V934.234H1101.58V943.605C1128.36 946.284 1131.71 947.955 1131.71 976.405V1109.27C1131.71 1137.71 1129.03 1139.39 1098.57 1142.4V1151.77H1254.19C1257.54 1141.4 1267.58 1106.59 1269.59 1096.21L1259.21 1093.54Z" fill="white"/>
<path d="M1427.88 1139.05L1424.53 1129.68C1420.85 1131.69 1416.5 1133.36 1412.48 1133.36C1406.46 1133.36 1400.77 1128.68 1400.77 1113.28V1048.69C1400.77 1031.29 1395.42 1019.91 1383.7 1009.87C1376 1003.85 1365.63 1000.83 1355.59 1000.83C1336.51 1004.85 1317.1 1017.23 1307.4 1024.26C1300.7 1028.95 1296.35 1032.96 1296.35 1037.65C1296.35 1045.68 1304.72 1052.37 1311.08 1052.37C1316.1 1052.37 1319.11 1050.03 1320.78 1044.68C1323.8 1034.97 1326.14 1027.61 1329.82 1022.92C1333.17 1018.91 1337.85 1015.23 1345.55 1015.23C1362.95 1015.23 1375 1028.95 1375 1052.71V1059.4C1367.64 1065.43 1342.54 1074.13 1322.12 1081.16C1303.72 1087.51 1294.68 1098.22 1294.68 1114.62C1294.68 1136.04 1311.75 1155.78 1335.51 1155.78C1345.88 1155.78 1362.28 1143.4 1375.67 1134.37C1377.34 1140.39 1379.35 1145.08 1383.7 1149.43C1387.05 1153.11 1394.41 1155.78 1399.43 1155.78L1427.88 1139.05ZM1375 1123.32C1368.31 1130.02 1356.26 1135.37 1347.56 1135.37C1336.85 1135.37 1323.46 1127.34 1323.46 1109.6C1323.46 1097.22 1331.16 1090.86 1343.88 1085.17C1351.58 1081.83 1367.64 1074.8 1375 1071.11V1123.32Z" fill="white"/>
<path d="M1799.36 1151.77V1142.4C1769.91 1139.39 1768.9 1137.71 1767.56 1101.91L1766.22 973.392C1765.56 949.963 1769.23 946.951 1798.02 943.605V934.234H1739.45L1660.13 1103.91L1586.17 934.234H1527.94V943.605C1557.39 946.284 1560.73 951.972 1559.4 969.376C1550.7 1091.53 1550.36 1103.58 1548.36 1118.3C1545.68 1136.38 1537.64 1140.39 1518.23 1142.4V1151.77H1597.55V1142.4C1574.79 1140.06 1566.43 1137.38 1566.09 1118.64C1566.09 1112.28 1566.43 1085.84 1572.11 968.705C1597.55 1029.28 1635.37 1121.31 1646.75 1151.77H1655.45C1667.16 1122.32 1711.34 1026.61 1738.78 965.359L1738.45 1101.91C1738.78 1137.71 1737.78 1139.72 1710.33 1142.4V1151.77H1799.36Z" fill="white"/>
<path d="M1815.08 1081.16C1815.08 1118.64 1843.2 1155.78 1889.38 1155.78C1922.18 1155.78 1962.34 1130.02 1962.34 1075.8C1962.34 1032.63 1931.22 1000.83 1889.38 1000.83C1857.59 1000.83 1815.08 1026.61 1815.08 1081.16ZM1930.88 1083.16C1930.88 1129.01 1913.48 1144.07 1892.73 1144.07C1865.29 1144.07 1846.54 1113.28 1846.54 1070.78C1846.54 1031.96 1864.95 1012.21 1885.37 1012.21C1914.82 1012.21 1930.88 1044.01 1930.88 1083.16Z" fill="white"/>
<path d="M2061.06 1142.4C2035.3 1140.39 2033.62 1138.72 2033.62 1116.63V1053.71C2040.99 1036.64 2053.37 1026.27 2060.4 1026.27C2066.42 1026.27 2070.44 1029.62 2075.46 1034.63C2078.14 1036.98 2080.81 1037.31 2084.16 1035.31C2090.18 1031.96 2095.54 1024.6 2095.54 1016.9C2095.54 1008.53 2088.51 1000.83 2076.13 1000.83C2059.39 1000.83 2045.34 1019.24 2033.62 1036.64V999.83C2017.89 1006.86 2002.84 1010.88 1986.44 1013.55V1021.92C2005.84 1024.26 2007.19 1025.26 2007.19 1047.35V1116.96C2007.19 1138.72 2005.18 1140.39 1984.09 1142.4V1151.77H2061.06V1142.4Z" fill="white"/>
<path d="M2203.63 1042.33C2201.96 1034.3 2199.61 1013.22 2198.61 1005.18C2191.92 1004.18 2180.54 1000.83 2166.48 1000.83C2135.02 1000.83 2114.27 1019.58 2114.27 1044.01C2114.27 1068.1 2133.35 1078.81 2156.78 1090.19C2174.51 1098.89 2183.55 1106.59 2183.55 1121.65C2183.55 1135.71 2172.84 1144.41 2160.12 1144.41C2136.7 1144.41 2124.98 1127.01 2118.96 1105.58L2109.26 1107.26C2110.59 1118.3 2113.61 1136.71 2115.28 1146.41C2122.31 1150.43 2137.7 1155.78 2155.11 1155.78C2181.54 1155.78 2209.66 1140.06 2209.66 1109.27C2209.66 1087.18 2195.26 1077.14 2166.48 1063.42C2147.74 1054.72 2138.03 1048.02 2138.03 1033.63C2138.03 1020.25 2147.07 1011.88 2158.78 1011.88C2179.2 1011.88 2187.9 1025.26 2193.93 1044.68L2203.63 1042.33Z" fill="white"/>
<path d="M2368.95 1139.05L2365.61 1129.68C2361.92 1131.69 2357.57 1133.36 2353.56 1133.36C2347.53 1133.36 2341.84 1128.68 2341.84 1113.28V1048.69C2341.84 1031.29 2336.49 1019.91 2324.77 1009.87C2317.08 1003.85 2306.7 1000.83 2296.66 1000.83C2277.59 1004.85 2258.18 1017.23 2248.47 1024.26C2241.78 1028.95 2237.43 1032.96 2237.43 1037.65C2237.43 1045.68 2245.79 1052.37 2252.15 1052.37C2257.17 1052.37 2260.19 1050.03 2261.86 1044.68C2264.87 1034.97 2267.21 1027.61 2270.89 1022.92C2274.24 1018.91 2278.93 1015.23 2286.62 1015.23C2304.03 1015.23 2316.07 1028.95 2316.07 1052.71V1059.4C2308.71 1065.43 2283.61 1074.13 2263.19 1081.16C2244.79 1087.51 2235.75 1098.22 2235.75 1114.62C2235.75 1136.04 2252.82 1155.78 2276.58 1155.78C2286.96 1155.78 2303.36 1143.4 2316.74 1134.37C2318.41 1140.39 2320.42 1145.08 2324.77 1149.43C2328.12 1153.11 2335.49 1155.78 2340.5 1155.78L2368.95 1139.05ZM2316.07 1123.32C2309.38 1130.02 2297.33 1135.37 2288.63 1135.37C2277.92 1135.37 2264.54 1127.34 2264.54 1109.6C2264.54 1097.22 2272.23 1090.86 2284.95 1085.17C2292.65 1081.83 2308.71 1074.8 2316.07 1071.11V1123.32Z" fill="white"/>
<path d="M2576.18 1298.96V1292.71H12.4958L12.5 799.009H2569.93V1298.96H2576.18H2582.43V786.509H0V1305.21H2582.43V1298.96H2576.18Z" fill="white"/>
<path d="M260.638 1557.64C243.996 1557.33 234.658 1553.26 224.996 1545.8C211.654 1535.51 196.142 1510.43 215.525 1485.79C229.854 1467.23 250.908 1467.53 266.092 1479.24C274.371 1485.63 280.263 1494.17 283.538 1504.67C284.733 1507.87 285.379 1508.94 286.529 1509.83C289.058 1511.78 297.704 1512.47 301.008 1508.18C302.525 1506.22 303.029 1504.62 301.325 1500.17C299.667 1495.18 294.004 1486.83 283.654 1478.84C274.683 1471.91 258.675 1464.12 240.838 1462.03C218.396 1459.24 201.483 1464.98 190.6 1479.09C175.858 1498.19 178.917 1529.89 208.129 1552.44C221.929 1563.09 243.404 1567.13 261.517 1564.59L260.638 1557.64Z" fill="white"/>
<path d="M372.367 1649.91L373.3 1643.03C369.875 1642.46 366.083 1641.38 363.142 1639.51C358.729 1636.7 356.254 1631.39 361.817 1622.63L385.162 1585.9C391.45 1576.01 391.642 1567.04 386.687 1555.88C383.225 1548.87 376.712 1542.32 369.354 1537.65C353.925 1531.05 335.225 1529.05 325.575 1528.53C318.975 1528.07 314.337 1528.33 312.642 1530.99C309.742 1535.56 313.45 1543.26 318.112 1546.23C321.792 1548.56 324.842 1548.63 328.004 1546.37C333.721 1542.25 338.096 1539.16 342.487 1538.21C346.392 1537.48 351.154 1537.57 356.796 1541.16C369.546 1549.26 373.417 1562.67 364.829 1576.18L362.408 1579.99C354.837 1579.99 333.3 1573.25 315.8 1567.74C300.017 1562.78 289.525 1564.66 283.596 1573.99C275.854 1586.17 281.225 1605.35 298.637 1616.41C306.237 1621.24 322.729 1621.84 335.804 1622.93C334.854 1627.14 334.629 1630.74 336.246 1635.24C337.367 1638.89 341.796 1643.84 345.475 1646.18L372.367 1649.91ZM339.304 1616.34C331.983 1617.03 321.217 1614.47 314.842 1610.41C306.996 1605.43 300.087 1594.63 306.5 1584.54C310.975 1577.5 318.912 1577.46 330.287 1580.15C337.137 1581.83 351.45 1585.32 358.175 1586.65C352.492 1595.6 344.992 1607.4 339.304 1616.34Z" fill="white"/>
<path d="M433.555 1579.59L424.713 1582.5L424.555 1585.23L442.697 1595.06L411.026 1653.56C404.051 1666.45 401.83 1666.27 385.088 1658.75L382.084 1664.3L442.13 1696.81L445.138 1691.25C426.834 1679.29 424.13 1677.57 431.859 1663.29L462.884 1605.98L487.413 1619.26C490.976 1619.39 494.938 1615.13 494.372 1612.51L467.284 1597.85L472.33 1588.53C480.488 1573.46 491.33 1553.43 510.238 1563.66C518.672 1568.23 523.359 1576.66 526.534 1583C528.338 1585.77 530.167 1587.27 533.73 1587.41C537.147 1587.2 541.459 1585.95 543.301 1584.38C546.08 1582.29 546.642 1580.03 545.522 1576.61C543.476 1570.63 536.842 1563.96 528.259 1559.06C517.759 1554.66 506.222 1552.77 493.951 1554.08C472.059 1556.07 457.726 1567.29 449.997 1581.57L447.097 1586.92L433.555 1579.59Z" fill="white"/>
<path d="M564.434 1727.46C551.467 1729.95 539.829 1728.83 529 1723.87C510.246 1715.28 493.75 1694.08 507.129 1666.97C538.938 1680.55 573.596 1694.2 579.254 1695.8C583.859 1696.91 585.496 1695.43 587.638 1691.46C595.154 1675.05 584.763 1651.69 561.779 1641.16C548.046 1634.87 531.075 1633.54 515.567 1638.09C500.6 1642.15 488.346 1652.16 481.958 1666.11C471.154 1689.68 481.313 1719.14 513.538 1733.91C521.992 1737.78 542.079 1742.76 566.5 1734.11L564.434 1727.46ZM566.159 1677.65C564.75 1680.72 562.696 1681.02 557.942 1678.84C542.075 1672.31 527.284 1665.54 512.488 1658.76C523.796 1643.85 539.721 1640.48 551.871 1646.05C566.667 1652.82 571.4 1666.9 566.159 1677.65ZM556.529 1622.63L622.534 1609.71L622.963 1606.68C620.242 1604.94 604.129 1597.56 596.509 1596.05L551.954 1616.57L556.529 1622.63Z" fill="white"/>
<path d="M736.98 1754.6L673.596 1733.42L667.305 1745.82L730.692 1767L736.98 1754.6Z" fill="white"/>
<path d="M914.013 1784.33C913.813 1778.73 915.022 1764.43 915.388 1758.96C909.88 1756.99 900.759 1752.58 888.867 1749.83C862.251 1743.7 841.859 1751.96 838.163 1767.99C834.513 1783.82 849.03 1794.57 867.126 1806.61C880.817 1815.78 887.297 1822.6 885.013 1832.49C882.888 1841.72 872.509 1845.34 861.751 1842.86C841.93 1838.29 834.655 1824.58 832.801 1809.34L824.338 1808.55C823.797 1816.06 823.559 1828.73 823.505 1835.43C828.842 1839.44 841.059 1845.96 855.78 1849.35C878.147 1854.51 904.313 1849.67 908.976 1829.45C912.317 1814.95 901.663 1805.55 879.392 1790.93C864.855 1781.56 857.655 1775.27 859.834 1765.82C861.863 1757.03 870.772 1753.3 880.684 1755.58C897.955 1759.57 903.288 1770.05 905.447 1783.97L914.013 1784.33Z" fill="white"/>
<path d="M937.542 1775.27C955.596 1780.17 956.03 1781.15 953.925 1794.51L937.98 1895.87C935.63 1910.8 933.159 1911.55 914.259 1910.18L913.275 1916.41L981.305 1927.12L982.284 1920.88C960.43 1915.84 958.342 1914.14 960.934 1897.66L965.667 1867.58C969.405 1870 976.838 1873.23 985.417 1874.8C1023.86 1875.37 1061.67 1859.41 1066.99 1825.54C1070.46 1803.49 1054.45 1779.97 1022.88 1775C1019.15 1774.42 1012.88 1775.03 1005.53 1776.84C1004.32 1777.11 979.742 1783.74 978.809 1784.05C979.65 1778.7 980.771 1771.57 981.613 1766.23C967.746 1768.38 952.221 1769.82 938.488 1769.26L937.542 1775.27ZM977.655 1791.4C986.105 1788.16 998.967 1784.94 1009.01 1786.52C1029.39 1789.72 1045.34 1806.16 1041.55 1830.22C1037.63 1855.17 1018.99 1868.9 994.021 1864.97C984.55 1863.48 973.917 1858.16 968.121 1851.99L977.655 1791.4Z" fill="white"/>
<path d="M1203.15 1887.35L1200.76 1880.82C1197.47 1881.91 1193.61 1882.73 1190.14 1882.44C1184.93 1882.02 1180.26 1878.47 1181.1 1868.13L1184.64 1824.75C1185.59 1813.06 1181.58 1805.04 1172 1797.47C1165.66 1792.88 1156.85 1790.13 1148.16 1789.42C1131.44 1790.77 1113.96 1797.72 1105.18 1801.75C1099.13 1804.43 1095.15 1806.82 1094.89 1809.96C1094.45 1815.36 1101.32 1820.44 1106.83 1820.89C1111.17 1821.25 1113.9 1819.88 1115.64 1816.41C1118.78 1810.1 1121.21 1805.32 1124.65 1802.43C1127.77 1799.98 1132.03 1797.83 1138.69 1798.38C1153.75 1799.61 1163.42 1809.67 1162.12 1825.63L1161.75 1830.12C1155.05 1833.65 1132.85 1837.72 1114.8 1841C1098.53 1843.97 1090.12 1850.53 1089.23 1861.54C1088.05 1875.93 1101.74 1890.39 1122.3 1892.07C1131.28 1892.8 1146.15 1885.64 1158.23 1880.52C1159.34 1884.68 1160.83 1887.97 1164.35 1891.2C1167.05 1893.91 1173.27 1896.23 1177.61 1896.58L1203.15 1887.35ZM1158.25 1873.05C1152.09 1877.08 1141.38 1879.82 1133.84 1879.21C1124.58 1878.45 1113.43 1872.11 1114.4 1860.2C1115.08 1851.88 1122.09 1848.16 1133.41 1845.23C1140.25 1843.53 1154.54 1839.94 1161.11 1837.99C1160.25 1848.56 1159.11 1862.49 1158.25 1873.05Z" fill="white"/>
<path d="M1301.35 1832.63C1301.11 1850.89 1289.67 1859.09 1276.88 1859.38C1260.9 1859.17 1249.44 1846.62 1249.67 1828.81C1249.9 1810.99 1261.64 1801.9 1274.72 1802.06C1290.99 1802.28 1301.57 1815.04 1301.35 1832.63ZM1309.73 1903.33C1317.83 1906.14 1322.4 1912.29 1322.3 1919.96C1322.11 1934.38 1306.28 1945.23 1278.68 1944.87C1256.31 1944.59 1239.87 1935.13 1240.03 1922.72C1240.11 1916.18 1246.01 1909.49 1254.21 1904.41C1259.49 1901.1 1265.9 1899.83 1280.13 1900.01C1292.33 1900.17 1302.5 1900.76 1309.73 1903.33ZM1325.48 1831.14C1325.59 1823.02 1322.2 1815.76 1317.32 1810.51C1321.39 1810.79 1330.96 1811.81 1335.32 1811.87C1339.71 1809.9 1344.44 1803.64 1346.23 1800.06L1344.51 1798.01C1336.36 1799.48 1318.9 1801.06 1305.53 1800.88C1296.86 1797.16 1287.31 1795.01 1277.71 1794.89C1255.06 1794.59 1225.26 1806.16 1224.93 1831.87C1224.75 1846.07 1234.49 1856.57 1249.24 1861.95C1243.36 1867.51 1233.98 1873.26 1223.49 1876.05C1223.46 1878.31 1224.28 1882.38 1226.85 1885.79C1230.56 1890.58 1238.05 1895.86 1248.48 1898.25C1241.75 1902.22 1230.32 1909.52 1224.45 1914.18C1219.75 1917.73 1217.08 1921.98 1217.02 1926.93C1217.43 1940.25 1234.96 1955.36 1267.79 1955.78C1306.43 1956.28 1342.45 1934.65 1342.76 1911.2C1343.04 1888.87 1319.28 1883.83 1300.69 1883.59C1291.1 1883.47 1278.89 1883.53 1268.14 1883.39C1255.07 1883.23 1250.19 1878.65 1250.24 1874.59C1250.27 1872.11 1252.36 1868.31 1258.51 1864.55C1263.14 1865.51 1268.08 1866.03 1273.31 1866.1C1298.29 1866.42 1324.59 1855.26 1324.91 1830.68L1325.48 1831.14Z" fill="white"/>
<path d="M1503 1888.74L1502.59 1882.44C1485.71 1882.39 1483.31 1881.42 1482.36 1866.56L1479.83 1826.96C1478.1 1799.95 1460.83 1789.53 1437.06 1791.06C1421.4 1792.06 1405.98 1801.41 1396.06 1810.17L1392.93 1761.34C1392.35 1752.11 1391.71 1742.21 1391.15 1733.43C1380.91 1737.25 1363.73 1741.74 1348.43 1743.85L1348.81 1749.7C1368.32 1749.81 1369.38 1752.68 1370.14 1764.61L1377.09 1873.08C1378.05 1888.16 1374.36 1889.52 1357.61 1891.73L1358.01 1898.03L1421.23 1893.98L1420.82 1887.68C1403.34 1887.44 1400.93 1886.24 1400 1871.61L1396.6 1818.5C1404.24 1810.56 1415.56 1805.53 1426.58 1804.83C1446 1803.36 1455.88 1812.22 1457.08 1830.9L1459.44 1867.81C1460.39 1882.66 1458.14 1883.93 1441.41 1886.36L1441.81 1892.66L1503 1888.74Z" fill="white"/>
<path d="M1623.08 1847.32C1613.53 1856.43 1603.14 1861.79 1591.35 1863.48C1570.93 1866.41 1545.58 1857.51 1542.16 1827.48C1576.26 1821.68 1612.78 1814.39 1618.41 1812.68C1622.88 1811.12 1623.46 1808.99 1623.11 1804.48C1620.55 1786.63 1599.16 1772.61 1574.14 1776.19C1559.18 1778.34 1544.2 1786.41 1533.62 1798.63C1523.23 1810.14 1518.35 1825.2 1520.53 1840.38C1524.21 1866.05 1548.69 1885.32 1583.78 1880.29C1592.98 1878.97 1612.57 1872.29 1628.42 1851.79L1623.08 1847.32ZM1597.57 1804.5C1598.05 1807.85 1596.48 1809.21 1591.31 1809.96C1574.43 1813.06 1558.33 1815.36 1542.22 1817.67C1543.66 1799.01 1555.22 1787.56 1568.45 1785.66C1584.56 1783.36 1596.16 1792.63 1597.57 1804.5Z" fill="white"/>
<path d="M1730.49 1841.54L1726.71 1836.35C1723.06 1838.74 1716.95 1842.12 1710.13 1843.58C1702.74 1845.16 1692.94 1843.79 1689.13 1825.92L1677.08 1769.46L1707.77 1762.92C1710.76 1760.21 1710.58 1755.17 1707.55 1753.51L1675.16 1760.42C1672.9 1749.83 1670.45 1736.98 1669.04 1727.6L1664.68 1728.07C1660.23 1733.63 1653.21 1741.12 1648.75 1746.69L1652.71 1765.21L1639.63 1768L1633.33 1776.03L1635.03 1778.44L1654.63 1774.26L1668.33 1838.43C1672.09 1856.08 1683.59 1862.61 1701.78 1858.73C1704.62 1858.13 1708.98 1856.28 1713.38 1853.26L1730.49 1841.54Z" fill="white"/>
<path d="M1817.11 1818.43L1813.06 1813.45C1809.54 1816.03 1803.61 1819.72 1796.88 1821.53C1789.59 1823.49 1779.73 1822.64 1774.99 1805L1760 1749.25L1790.31 1741.11C1793.15 1738.24 1792.7 1733.22 1789.59 1731.72L1757.6 1740.32C1754.79 1729.87 1751.68 1717.16 1749.78 1707.86L1745.46 1708.56C1741.29 1714.35 1734.68 1722.2 1730.52 1727.98L1735.43 1746.28L1722.53 1749.75L1716.65 1758.1L1718.47 1760.41L1737.83 1755.21L1754.87 1818.58C1759.55 1836 1771.37 1841.93 1789.33 1837.11C1792.14 1836.35 1796.39 1834.27 1800.64 1831.03L1817.11 1818.43Z" fill="white"/>
<path d="M1836.35 1677.67C1834.13 1670.81 1826.17 1667.93 1818.43 1670.45C1810.41 1673.04 1805.11 1680.22 1807.33 1687.08C1809.28 1693.09 1817.93 1696.21 1825.66 1693.7C1833.68 1691.11 1838.3 1683.68 1836.35 1677.67ZM1896.32 1801.41L1894.38 1795.41C1875.99 1799.95 1873.71 1799.5 1868.98 1784.91L1853.68 1737.72C1850.76 1728.71 1847.84 1719.7 1844.92 1710.69C1834.29 1718.41 1822.2 1725.41 1808.45 1732L1810.12 1737.15C1827.4 1733.91 1828.51 1734.51 1832.82 1747.81L1847.15 1791.99C1851.88 1806.58 1850.29 1808.28 1833.29 1815.21L1835.24 1821.22L1896.32 1801.41Z" fill="white"/>
<path d="M2112.48 1711.19L2109.87 1705.44C2094.06 1711.38 2091.48 1711.31 2085.32 1697.76L2068.91 1661.63C2057.72 1636.99 2037.88 1633.36 2016.19 1643.22C2001.91 1649.71 1990.81 1663.91 1984.64 1675.63L1964.4 1631.07C1960.58 1622.66 1956.48 1613.62 1952.84 1605.61C1944.62 1612.81 1930.15 1623.1 1916.59 1630.49L1919.01 1635.83C1937.3 1629.01 1939.31 1631.32 1944.25 1642.21L1989.19 1741.17C1995.44 1754.93 1992.47 1757.52 1977.59 1765.51L1980.2 1771.26L2037.88 1745.07L2035.26 1739.32C2018.83 1745.3 2016.16 1745.03 2010.09 1731.68L1988.09 1683.23C1992.42 1673.08 2001.23 1664.38 2011.28 1659.81C2028.91 1651.56 2041.3 1656.33 2049.03 1673.38L2064.33 1707.05C2070.48 1720.6 2068.83 1722.59 2054.05 1730.79L2056.66 1736.54L2112.48 1711.19Z" fill="white"/>
<path d="M2249.7 1620.23L2242.53 1624.08C2232.73 1629.19 2229.93 1628.98 2224.31 1619.2L2186.68 1553.7C2181.34 1557.81 2164.93 1570.09 2149.15 1579.94L2152.07 1585.02L2160.58 1581.18C2169.71 1577.23 2173.52 1576.86 2179.58 1587.42L2205.76 1632.98C2200.78 1644.16 2193.26 1652.65 2183.94 1658C2172.6 1664.51 2158.2 1666.28 2148.32 1649.08L2133.04 1622.48C2125.63 1609.58 2120.23 1600.19 2117.4 1593.5C2109.51 1599.59 2094 1611.1 2083.39 1617.71L2086.31 1622.8L2093.93 1619.72C2100.78 1617.08 2103.48 1617.1 2109.54 1627.66L2131.33 1665.59C2143.58 1686.91 2162.79 1686.53 2179.68 1676.83C2193.53 1668.87 2201.03 1656.25 2209.58 1639.63C2212.38 1644.52 2216.43 1651.56 2218.22 1654.69C2229.39 1644.37 2241.53 1634.02 2252.84 1625.7L2249.7 1620.23Z" fill="white"/>
<path d="M2233.8 1479.37C2229.75 1473.4 2221.31 1472.86 2214.57 1477.42C2207.6 1482.15 2204.5 1490.52 2208.55 1496.49C2212.09 1501.72 2221.27 1502.31 2228 1497.74C2234.98 1493.01 2237.34 1484.6 2233.8 1479.37ZM2325.88 1581.5L2322.34 1576.27C2305.95 1585.75 2303.63 1585.96 2295.02 1573.27L2267.18 1532.21C2261.86 1524.37 2256.54 1516.53 2251.23 1508.69C2243.17 1519.06 2233.51 1529.16 2222.14 1539.32L2225.18 1543.8C2240.88 1535.88 2242.11 1536.13 2249.95 1547.71L2276.03 1586.15C2284.63 1598.84 2283.58 1600.92 2269.19 1612.31L2272.73 1617.54L2325.88 1581.5Z" fill="white"/>
<path d="M2363.08 1460.84C2358.62 1457.44 2348.34 1447.43 2344.34 1443.68C2339.32 1446.69 2330.12 1450.94 2320.46 1458.4C2298.83 1475.08 2292.28 1496.08 2302.34 1509.11C2312.25 1521.97 2329.77 1517.57 2350.56 1511.22C2366.33 1506.46 2375.72 1505.77 2381.91 1513.81C2387.7 1521.31 2383.92 1531.63 2375.17 1538.37C2359.07 1550.79 2343.86 1547.72 2330.9 1539.48L2324.91 1545.53C2330.38 1550.71 2340.03 1558.93 2345.17 1563.22C2351.66 1561.64 2364.44 1556.33 2376.41 1547.11C2394.58 1533.08 2407.44 1509.78 2394.76 1493.36C2385.67 1481.57 2371.65 1483.85 2346.21 1491.79C2329.75 1497.08 2320.32 1498.66 2314.4 1490.98C2308.89 1483.84 2311.66 1474.58 2319.71 1468.37C2333.75 1457.55 2345.24 1460.07 2357.37 1467.23L2363.08 1460.84Z" fill="white"/>
<path d="M1830.78 654.055C1841.63 654.925 1852.39 654.092 1861.62 650.334C1869.56 647.096 1882.25 640.259 1871.61 631.534C1870.48 630.605 1897.38 624.559 1903.45 611.971C1913 592.155 1883.98 582.734 1885.81 582.346C1901.28 579.08 1914.06 564.18 1904.78 549C1892.51 528.9 1864.63 530.984 1844.37 532.409C1817.23 534.321 1790.41 539.784 1764.01 546.217C1758.26 547.617 1752.3 548.95 1746.7 550.83C1778.73 540.642 1810.49 529.609 1842.53 519.409C1860.51 513.684 1881.8 509.159 1893.27 492.625C1900.21 482.625 1903.98 466.492 1893.27 457.346C1885.73 450.917 1856.46 458.734 1857.5 457.65C1878.5 435.646 1859.07 431.509 1846.91 431.496C1830.55 431.484 1797.64 444.959 1798.61 443.588C1800.81 440.467 1803.36 437.309 1804.9 433.784C1808.85 424.763 1784.65 428.075 1782.78 428.692C1771.38 432.434 1760.66 439.217 1751.71 447.129C1732.23 464.359 1718.98 487.088 1710.54 511.467C1700.66 539.98 1701.26 571.892 1720.11 596.213C1737.63 618.842 1763.28 633.955 1789.67 644.125C1801.11 648.538 1816.03 652.867 1830.78 654.055Z" fill="#DBDBDB"/>
<path d="M1229.99 687.642C1229.99 687.642 1790.01 729.546 1776.01 566.484C1767 461.646 1566 509.646 1459.5 243.396L1229.99 687.642Z" fill="#D1D1D1"/>
<path d="M1095.44 668.767C1079.28 563.325 980.005 428.646 980.005 428.646C980.005 428.646 924.447 370.517 885.446 491.2C846.442 611.884 884.005 649.125 884.005 649.125C884.005 649.125 847.98 637.159 834.751 654.709C834.751 654.709 831.001 662.492 834.751 666.692C834.688 666.688 783.255 662.134 789.126 688.634C789.126 688.634 754.496 683.651 749.246 707.651C747.592 715.213 756.651 723.334 772.055 730.78C781.155 736.959 798.93 742.776 821.692 747.355C852.388 754.617 887.901 758.846 918.001 757.105L918.68 757.046C1009.86 758.242 1105.98 737.509 1095.44 668.767Z" fill="#D1D1D1"/>
<path d="M1351.28 668.767C1367.44 563.325 1466.72 428.646 1466.72 428.646C1466.72 428.646 1522.28 370.517 1561.28 491.2C1600.28 611.884 1562.72 649.125 1562.72 649.125C1562.72 649.125 1598.74 637.159 1611.97 654.709C1611.97 654.709 1615.72 662.492 1611.97 666.692H1611.98C1612.04 666.688 1663.47 662.134 1657.6 688.634C1657.6 688.634 1692.22 683.651 1697.47 707.651C1699.13 715.213 1690.07 723.334 1674.67 730.78C1665.57 736.959 1647.79 742.776 1625.03 747.355C1594.33 754.617 1558.82 758.846 1528.72 757.105L1528.04 757.046C1436.86 758.242 1340.75 737.509 1351.28 668.767Z" fill="#D1D1D1"/>
<path d="M1516.46 442.971C1516.46 633.176 1385.34 739.184 1223.58 739.184C1061.83 739.184 930.705 633.176 930.705 442.971C930.705 252.767 1061.83 0.770874 1223.58 0.770874C1385.34 0.770874 1516.46 252.767 1516.46 442.971Z" fill="white"/>
<path d="M1223.58 687.713C1104.86 687.713 1004.96 622.542 975.613 503.446C999.901 630.096 1101.69 699.667 1223.58 699.667C1345.48 699.667 1447.26 630.096 1471.55 503.446C1442.2 622.542 1342.31 687.713 1223.58 687.713Z" fill="#DBDBDB"/>
<path d="M1223.58 556.642C1125.83 556.642 1043.59 502.984 1019.43 404.938C1039.42 509.209 1123.23 566.484 1223.58 566.484C1323.94 566.484 1407.74 509.209 1427.73 404.938C1403.57 502.984 1321.33 556.642 1223.58 556.642Z" fill="#D1D1D1"/>
<path d="M1133.24 274.746C1133.24 274.746 1133.99 396.246 1153.49 435.996C1153.49 435.996 1159.49 444.246 1160.24 429.996C1160.99 415.746 1174.51 274.746 1174.51 274.746H1133.24Z" fill="#D1D1D1"/>
<path d="M1312.54 274.746C1312.54 274.746 1311.79 396.246 1292.29 435.996C1292.29 435.996 1286.29 444.246 1285.54 429.996C1284.79 415.746 1271.27 274.746 1271.27 274.746H1312.54Z" fill="#D1D1D1"/>
<path d="M1319.43 136.809C1303.8 102.634 1265.81 70.1501 1221.38 70.1501C1176.93 70.1501 1138.93 102.667 1123.32 136.859C1108.94 161.225 1099.68 196.625 1099.68 226.409C1099.68 277.5 1126.92 305.975 1160.53 305.975C1192.34 305.975 1218.41 280.438 1221.12 234.396L1221.38 234.4L1221.66 234.396C1224.36 280.438 1250.43 305.975 1282.24 305.975C1315.85 305.975 1343.1 277.5 1343.1 226.409C1343.1 196.604 1333.82 161.179 1319.43 136.809Z" fill="#D1D1D1"/>
<path d="M1212.74 201.4C1212.74 201.4 1214.99 163.15 1183.49 163.9C1183.49 163.9 1170.74 163.15 1170.74 172.9C1170.74 182.65 1178.99 200.65 1186.49 193.15C1193.99 185.65 1188.74 176.65 1188.74 176.65C1188.74 176.65 1206.74 173.65 1212.74 201.4Z" fill="#626262"/>
<path d="M1230.03 201.4C1230.03 201.4 1227.78 163.15 1259.28 163.9C1259.28 163.9 1272.03 163.15 1272.03 172.9C1272.03 182.65 1263.78 200.65 1256.28 193.15C1248.78 185.65 1254.03 176.65 1254.03 176.65C1254.03 176.65 1236.03 173.65 1230.03 201.4Z" fill="#626262"/>
<path d="M1132.84 107.625C1132.84 118.258 1124.22 126.875 1113.59 126.875C1102.96 126.875 1094.34 118.258 1094.34 107.625C1094.34 96.9918 1102.96 88.3751 1113.59 88.3751C1124.22 88.3751 1132.84 96.9918 1132.84 107.625Z" fill="#626262"/>
<path d="M1112.22 101.625C1112.22 104.938 1109.53 107.625 1106.22 107.625C1102.91 107.625 1100.22 104.938 1100.22 101.625C1100.22 98.3126 1102.91 95.6251 1106.22 95.6251C1109.53 95.6251 1112.22 98.3126 1112.22 101.625Z" fill="#D1D1D1"/>
<path d="M1105.47 114.25C1105.47 115.7 1104.29 116.875 1102.84 116.875C1101.4 116.875 1100.22 115.7 1100.22 114.25C1100.22 112.8 1101.4 111.625 1102.84 111.625C1104.29 111.625 1105.47 112.8 1105.47 114.25Z" fill="#D1D1D1"/>
<path d="M1348.43 107.625C1348.43 118.258 1339.81 126.875 1329.18 126.875C1318.55 126.875 1309.93 118.258 1309.93 107.625C1309.93 96.9918 1318.55 88.3751 1329.18 88.3751C1339.81 88.3751 1348.43 96.9918 1348.43 107.625Z" fill="#626262"/>
<path d="M1327.81 101.625C1327.81 104.938 1325.12 107.625 1321.81 107.625C1318.49 107.625 1315.81 104.938 1315.81 101.625C1315.81 98.3126 1318.49 95.6251 1321.81 95.6251C1325.12 95.6251 1327.81 98.3126 1327.81 101.625Z" fill="#D1D1D1"/>
<path d="M1321.06 114.25C1321.06 115.7 1319.88 116.875 1318.43 116.875C1316.98 116.875 1315.81 115.7 1315.81 114.25C1315.81 112.8 1316.98 111.625 1318.43 111.625C1319.88 111.625 1321.06 112.8 1321.06 114.25Z" fill="#D1D1D1"/>
<path d="M1105.2 370.004C1104.44 370.004 1103.79 369.429 1103.71 368.654C1099.72 329.75 1110.95 305.175 1121.07 291.413C1132.09 276.425 1143.93 270.775 1144.43 270.538C1145.18 270.188 1146.08 270.509 1146.43 271.263C1146.78 272.013 1146.46 272.904 1145.71 273.259C1145.24 273.475 1099.28 295.971 1106.69 368.35C1106.78 369.175 1106.18 369.913 1105.36 369.996L1105.2 370.004Z" fill="#D1D1D1"/>
<path d="M1074.58 338.65L1074.36 338.634C1073.54 338.521 1072.97 337.763 1073.08 336.942C1078.2 300.38 1094.96 281.592 1108.11 272.267C1122.43 262.125 1135.38 260.709 1135.92 260.659C1136.73 260.571 1137.48 261.167 1137.56 261.996C1137.65 262.821 1137.05 263.555 1136.23 263.642C1135.72 263.692 1085.51 269.663 1076.05 337.359C1075.95 338.109 1075.31 338.65 1074.58 338.65Z" fill="#D1D1D1"/>
<path d="M1049.83 315.4L1049.67 315.392C1048.84 315.304 1048.24 314.567 1048.33 313.742C1052.27 275.871 1072.47 258.342 1088.72 250.304C1106.28 241.617 1122.66 241.892 1123.35 241.9C1124.18 241.921 1124.84 242.604 1124.82 243.429C1124.8 244.25 1124.13 244.9 1123.32 244.9L1122.78 244.892C1116.26 244.892 1058.32 246.809 1051.31 314.054C1051.23 314.825 1050.58 315.4 1049.83 315.4Z" fill="#D1D1D1"/>
<path d="M1162 371.48C1161.33 371.48 1160.72 371.03 1160.54 370.35C1152.46 338.934 1156.26 314.405 1160.88 299.359C1165.9 282.992 1172.77 274.184 1173.06 273.817C1173.57 273.171 1174.52 273.059 1175.17 273.567C1175.82 274.079 1175.93 275.025 1175.41 275.675C1175.14 276.021 1148.36 310.93 1163.45 369.609C1163.65 370.409 1163.17 371.225 1162.36 371.434L1162 371.48Z" fill="#D1D1D1"/>
<path d="M1074.57 237.4C1074.08 237.4 1073.59 237.154 1073.3 236.7C1072.86 236 1073.07 235.071 1073.77 234.629C1116.89 207.396 1154.12 234.421 1154.5 234.696C1155.16 235.188 1155.3 236.125 1154.81 236.792C1154.31 237.459 1153.37 237.596 1152.71 237.104C1152.35 236.838 1116.72 211.05 1075.37 237.167L1074.57 237.4Z" fill="#D1D1D1"/>
<path d="M1080.57 280.15L1079.69 279.863C1079.01 279.371 1078.87 278.434 1079.36 277.763C1105.86 241.429 1153.39 249.342 1153.86 249.421C1154.68 249.567 1155.22 250.342 1155.08 251.159C1154.93 251.971 1154.17 252.538 1153.34 252.375C1152.88 252.296 1107.16 244.729 1081.78 279.534C1081.49 279.934 1081.03 280.15 1080.57 280.15Z" fill="#D1D1D1"/>
<path d="M1134.81 327.43C1134.04 327.43 1133.39 326.838 1133.32 326.059C1129.33 279.421 1173.13 257.271 1173.57 257.055C1174.31 256.692 1175.22 256.996 1175.58 257.734C1175.95 258.48 1175.64 259.38 1174.91 259.742C1174.48 259.955 1132.49 281.238 1136.31 325.8C1136.38 326.625 1135.77 327.35 1134.94 327.421L1134.81 327.43Z" fill="#D1D1D1"/>
<path d="M1187.82 323.863C1187.2 323.863 1186.62 323.471 1186.4 322.846C1172.64 282.367 1189.8 267.6 1190.53 266.992C1191.17 266.463 1192.12 266.55 1192.65 267.192C1193.17 267.829 1193.08 268.771 1192.45 269.3C1192.29 269.438 1176.2 283.534 1189.24 321.879C1189.51 322.663 1189.09 323.517 1188.3 323.784L1187.82 323.863Z" fill="#D1D1D1"/>
<path d="M1337.57 370.004L1337.42 369.996C1336.59 369.913 1336 369.175 1336.08 368.35C1343.5 295.85 1297.53 273.475 1297.07 273.259C1296.32 272.904 1295.99 272.013 1296.34 271.263C1296.69 270.509 1297.59 270.188 1298.34 270.538C1298.82 270.767 1346.7 294.063 1339.06 368.654C1338.98 369.429 1338.33 370.004 1337.57 370.004Z" fill="#D1D1D1"/>
<path d="M1368.2 338.65C1367.46 338.65 1366.82 338.109 1366.72 337.359C1361.76 301.946 1345.68 283.8 1333.06 274.813C1319.38 265.067 1306.68 263.654 1306.55 263.642C1305.73 263.554 1305.12 262.821 1305.21 261.996C1305.29 261.167 1306.03 260.579 1306.85 260.659C1307.38 260.709 1359.88 266.838 1369.69 336.942C1369.8 337.763 1369.23 338.521 1368.41 338.634L1368.2 338.65Z" fill="#D1D1D1"/>
<path d="M1392.95 315.4C1392.19 315.4 1391.54 314.825 1391.46 314.054C1388.4 284.738 1375.37 264.196 1352.72 252.992C1335.81 244.625 1319.6 244.892 1319.48 244.9C1318.69 244.892 1317.97 244.258 1317.95 243.433C1317.93 242.604 1318.59 241.921 1319.41 241.9C1320.14 241.9 1386.89 241.229 1394.44 313.742C1394.53 314.567 1393.93 315.304 1393.1 315.392L1392.95 315.4Z" fill="#D1D1D1"/>
<path d="M1280.78 371.479L1280.41 371.434C1279.6 371.225 1279.12 370.409 1279.32 369.609C1287.21 338.938 1283.53 315.038 1279.07 300.392C1274.23 284.509 1267.42 275.763 1267.36 275.675C1266.84 275.025 1266.95 274.079 1267.6 273.567C1268.25 273.054 1269.2 273.167 1269.71 273.817C1270 274.171 1297.7 310.159 1282.23 370.35C1282.05 371.029 1281.44 371.479 1280.78 371.479Z" fill="#D1D1D1"/>
<path d="M1368.2 237.4L1367.4 237.167C1326.05 211.054 1290.41 236.838 1290.06 237.104C1289.4 237.596 1288.46 237.454 1287.97 236.792C1287.47 236.125 1287.61 235.188 1288.27 234.696C1288.65 234.421 1325.88 207.4 1369 234.629C1369.7 235.071 1369.91 236 1369.47 236.7C1369.18 237.154 1368.7 237.4 1368.2 237.4Z" fill="#D1D1D1"/>
<path d="M1362.2 280.15C1361.73 280.15 1361.28 279.934 1360.98 279.534C1335.61 244.729 1289.89 252.3 1289.43 252.375C1288.6 252.538 1287.84 251.971 1287.69 251.159C1287.55 250.342 1288.1 249.567 1288.91 249.421C1289.38 249.334 1336.91 241.425 1363.41 277.763C1363.9 278.434 1363.75 279.371 1363.08 279.863L1362.2 280.15Z" fill="#D1D1D1"/>
<path d="M1307.96 327.429L1307.83 327.421C1307.01 327.35 1306.39 326.625 1306.46 325.8C1310.28 281.184 1268.3 259.954 1267.88 259.742C1267.13 259.379 1266.83 258.479 1267.19 257.738C1267.56 256.996 1268.47 256.692 1269.2 257.054C1269.64 257.271 1313.44 279.421 1309.45 326.059C1309.38 326.838 1308.73 327.429 1307.96 327.429Z" fill="#D1D1D1"/>
<path d="M1254.95 323.863L1254.47 323.784C1253.68 323.517 1253.26 322.663 1253.53 321.879C1266.63 283.342 1250.49 269.442 1250.33 269.304C1249.68 268.779 1249.59 267.834 1250.12 267.192C1250.65 266.55 1251.6 266.463 1252.23 266.992C1252.97 267.6 1270.13 282.367 1256.37 322.846C1256.15 323.471 1255.58 323.863 1254.95 323.863Z" fill="#D1D1D1"/>
<path fill-rule="evenodd" clip-rule="evenodd" d="M1074.45 1596.16C1113.41 1622.91 1204.05 1641.24 1310.16 1641.24C1428.2 1641.24 1527.04 1618.61 1556.94 1586.9H1071.56L1073.29 1593.08C1084.18 1631.99 1193.9 1661.33 1328.48 1661.33C1370.66 1661.33 1410.39 1658.45 1445.4 1653.3C1445.41 1653.29 1445.41 1653.27 1445.42 1653.26C1410.4 1658.41 1370.67 1661.3 1328.49 1661.3C1197.46 1661.3 1090.02 1633.51 1074.45 1596.16ZM1467.03 1649.72C1510.99 1641.58 1545.66 1629.62 1565.64 1615.29C1545.66 1629.61 1510.98 1641.55 1467.03 1649.68L1467.03 1649.72ZM1584.57 1589.92L1585.41 1586.9H1585.4L1584.57 1589.92Z" fill="white"/>
<path d="M1412.72 1586.9H1412.32L1412.02 1583.08C1412.03 1583.09 1412.03 1583.09 1412.03 1583.1L1412.72 1586.9ZM1351.38 1586.9H1347.28L1351.34 1585.83C1351.36 1586.3 1351.37 1586.69 1351.38 1586.9ZM1469.43 1586.87L1469.76 1585.16L1469.61 1586.87L1469.43 1586.87ZM1529.35 1586.6L1530.38 1586.46L1530.49 1585.38L1530.45 1586.6L1529.35 1586.6ZM1555.96 1586.48L1556.28 1580.78C1556.28 1578.38 1556.16 1576 1555.93 1573.65C1556.55 1578 1556.66 1582.36 1555.96 1586.48ZM1530.84 1581.98L1530.91 1580.78L1535.59 1580.92L1530.84 1581.98ZM1325.73 1578.93C1325.47 1575.3 1324.94 1571.73 1324.15 1568.23C1324.18 1567.64 1324.21 1567.04 1324.25 1566.46L1325.02 1568.45C1325.01 1568.49 1325 1568.53 1324.99 1568.56C1325.01 1568.56 1325.04 1568.56 1325.07 1568.56L1325.63 1570.01L1326.15 1568.51C1326.36 1568.5 1326.56 1568.49 1326.77 1568.48C1326.17 1571.91 1325.82 1575.39 1325.73 1578.93ZM1411.46 1470.61C1406.2 1466 1400.39 1461.86 1394.15 1458.25C1394.62 1458.27 1395.05 1458.35 1395.43 1458.49C1399.97 1460.16 1405.86 1465.08 1411.46 1470.61Z" fill="white"/>
<path d="M1096.31 1588.54C1096.31 1588.54 1097.2 1587.99 1099.07 1587.09H1121.02L1121.03 1586.9H1300.36L1300.36 1587.09H1346.58L1347.28 1586.9H1351.38C1351.38 1587.02 1351.39 1587.09 1351.39 1587.09H1412.33L1412.32 1586.9H1412.72L1412.76 1587.09H1420.69L1096.31 1588.54Z" fill="white"/>
<path fill-rule="evenodd" clip-rule="evenodd" d="M1428.24 1527.77C1434.16 1530.99 1436.73 1536.35 1437.85 1540.3C1439.95 1547.63 1438.8 1556.14 1434.79 1563.03L1429.28 1572.6C1430.6 1569.83 1434.71 1561.08 1434.71 1561.08L1423.36 1555.76C1423.36 1555.76 1418.51 1564.53 1416.91 1567.5C1418.24 1564.44 1422.2 1555.21 1422.2 1555.21L1410.89 1549.9C1410.89 1549.9 1406.48 1558.56 1405.05 1561.39C1406.24 1558.41 1409.79 1549.38 1409.79 1549.38L1398.47 1544.06C1398.47 1544.06 1394.13 1553.28 1392.72 1556.32C1393.38 1554.57 1394.03 1552.78 1394.71 1550.99C1395.23 1549.72 1395.92 1547.91 1396.91 1545.28C1397.33 1544.15 1397.83 1543.05 1398.36 1541.99L1431.91 1557.76C1433.81 1552.15 1434.16 1546.09 1432.76 1540.7C1431.74 1536.8 1429.35 1531.53 1423.72 1528.45C1420.73 1527.26 1417.62 1526.88 1414.51 1527.26C1419.08 1525.83 1423.78 1525.98 1428.24 1527.77ZM1510.66 1351.56C1512.78 1352.55 1513.87 1354.6 1514.23 1356.66C1510.81 1356.84 1507.58 1358.87 1506.38 1361.31C1489.63 1394.46 1472.88 1427.62 1456.13 1460.78C1456.25 1460.33 1456.36 1459.89 1456.55 1459.45C1471.55 1424.6 1486.55 1389.78 1501.55 1354.93C1502.69 1352.19 1507.05 1349.83 1510.66 1351.56ZM1393.11 1543.82C1387.21 1559.42 1393.08 1543.8 1393.06 1543.8C1393.03 1543.91 1365.38 1617.33 1367.01 1618.09C1368.61 1618.85 1386.73 1577.23 1400.03 1549L1404.71 1551.19C1393.3 1580.32 1375.47 1622.07 1377.1 1622.83C1378.7 1623.58 1398.13 1582.59 1412.36 1554.78L1417.02 1556.97C1404.72 1585.68 1385.58 1626.82 1387.2 1627.58C1388.82 1628.34 1409.57 1587.96 1424.71 1560.59L1429.41 1562.8C1416.18 1591.07 1395.73 1631.58 1397.33 1632.34C1398.97 1633.11 1429.5 1579.16 1437.83 1564.83C1445.1 1552.33 1443.82 1535.43 1433.46 1526.81C1461.71 1471.9 1489.93 1416.99 1518.17 1362.09C1520.46 1357.76 1518.88 1349.72 1512.89 1346.93C1506.91 1344.09 1499.73 1348.01 1497.86 1352.55C1473.63 1409.33 1449.41 1466.11 1425.17 1522.9C1412.04 1520.22 1398.74 1528.91 1393.11 1543.82Z" fill="white"/>
<path d="M1295.68 1439.3C1295.68 1439.3 1310.33 1432.01 1356.18 1439.3L1354.63 1448.56C1354.63 1448.56 1321.94 1442.47 1297.11 1448.56L1295.68 1439.3Z" fill="#FCF7E1"/>
<path fill-rule="evenodd" clip-rule="evenodd" d="M1147.75 1356.97C1147.75 1356.97 1152.81 1377.17 1152.99 1386.85C1153.17 1396.54 1138.62 1361.48 1138.62 1361.48L1145.13 1352.35L1147.75 1356.97Z" fill="url(#paint0_linear_444_134)"/>
<path fill-rule="evenodd" clip-rule="evenodd" d="M1166.65 1608.37C1180.78 1629.83 1192.33 1632.7 1200.32 1630.71L1200.73 1630.6L1201.16 1630.51C1209.14 1628.53 1218.01 1620.59 1220.47 1595.01C1222.89 1569.82 1215.35 1549.78 1198.21 1537.88C1181.07 1525.97 1179.96 1526.25 1175.08 1506.57C1170.56 1488.38 1161.49 1437.31 1158.06 1420.56C1155.33 1407.24 1153.91 1393.91 1152.39 1382.1C1151.71 1380.46 1151.96 1378.46 1151.61 1376.75C1151.18 1374.65 1150.86 1372.56 1150.48 1370.45C1150.08 1368.22 1149.37 1366.04 1148.53 1363.93C1147.73 1361.92 1146.31 1360.06 1145.9 1357.92C1145.68 1356.77 1147.18 1356.23 1147.75 1356.97C1145.07 1348.31 1141.08 1342.67 1134.22 1341.78C1130.79 1341.33 1127.3 1342.2 1124.48 1344.19C1108.98 1355.17 1129.32 1387.66 1140.24 1424.98C1145.05 1441.39 1160.91 1490.78 1165.42 1508.97C1170.31 1528.65 1169.19 1528.92 1159.61 1547.46C1150.02 1565.99 1152.73 1587.23 1166.65 1608.37Z" fill="white"/>
<path d="M1328.49 1656.46C1185.35 1656.46 1086.97 1623.86 1077.98 1591.77H1578.99C1570 1623.86 1471.62 1656.46 1328.49 1656.46ZM1430.34 1686.91H1224.51C1208.54 1686.91 1196.14 1670.18 1195.18 1655.02C1235.98 1662.19 1282.5 1666.01 1328.49 1666.01C1374.46 1666.01 1420.97 1662.19 1461.75 1655.03C1460.63 1671.12 1445.43 1686.91 1430.34 1686.91ZM1210.64 1538.54C1175.54 1538.54 1146.91 1558 1145.67 1582.22H1125.84C1127.02 1548.3 1164.56 1520.96 1210.64 1520.96C1256.78 1520.96 1294.36 1548.3 1295.53 1582.22H1275.71C1274.47 1558 1245.8 1538.54 1210.64 1538.54ZM1234.96 1582.22H1186.43C1187.82 1574.87 1198.28 1568.92 1210.64 1568.92C1223.06 1568.92 1233.56 1574.87 1234.96 1582.22ZM1210.64 1559.37C1192.33 1559.37 1177.97 1569.3 1176.82 1582.22H1155.23C1156.56 1563.26 1180.87 1548.09 1210.64 1548.09C1240.47 1548.09 1264.82 1563.26 1266.16 1582.22H1244.57C1243.41 1569.3 1229.01 1559.37 1210.64 1559.37ZM1210.64 1498.37C1270.85 1498.37 1319.88 1535.85 1321.01 1582.22H1305.09C1303.95 1543.04 1262.06 1511.41 1210.64 1511.41C1159.27 1511.41 1117.43 1543.04 1116.29 1582.22H1100.38C1101.51 1535.85 1150.49 1498.37 1210.64 1498.37ZM1326.08 1445.68C1365.35 1445.68 1400.59 1461.51 1420.49 1487.25C1414.86 1488.03 1409.36 1489.06 1404.04 1490.43C1386.52 1470.63 1357.73 1458.81 1326.08 1458.81C1293.25 1458.81 1262.98 1471.9 1245.9 1493.02C1240.62 1491.73 1235.16 1490.83 1229.6 1490.13C1248.86 1462.99 1285.64 1445.68 1326.08 1445.68ZM1326.08 1516.21C1334.11 1516.21 1341.52 1518.86 1346.07 1522.89C1336.63 1532.59 1329.51 1543.74 1325.34 1555.88C1320.84 1544.33 1313.6 1533.76 1304.27 1524.54C1308.4 1519.54 1316.79 1516.21 1326.08 1516.21ZM1274.5 1503.53C1268.63 1500.6 1262.46 1498.01 1255.97 1495.91C1271.67 1478.81 1297.75 1468.36 1326.08 1468.36C1353.18 1468.36 1377.86 1477.67 1393.81 1493.45C1387.28 1495.67 1381.06 1498.36 1375.19 1501.43C1362.38 1491.09 1342.98 1484.48 1324.56 1484.48C1305.35 1484.48 1287.36 1491.43 1274.5 1503.53ZM1324.56 1494.03C1339.53 1494.03 1355.16 1498.84 1366.26 1506.58C1361.58 1509.55 1357.22 1512.81 1353.15 1516.28C1346.83 1510.35 1336.82 1506.66 1326.08 1506.66C1314.06 1506.66 1303.28 1511.16 1297.22 1518.21C1292.91 1514.64 1288.24 1511.38 1283.28 1508.38C1294.19 1499.2 1308.91 1494.03 1324.56 1494.03ZM1465.54 1580.78C1465.54 1581.28 1465.45 1581.75 1465.36 1582.22H1416.82C1416.73 1581.74 1416.45 1581.27 1416.45 1580.78C1416.45 1572.69 1427.71 1565.85 1441.04 1565.85C1454.32 1565.85 1465.54 1572.69 1465.54 1580.78ZM1441.04 1556.3C1421.89 1556.3 1406.9 1567.06 1406.9 1580.78C1406.9 1581.26 1407.03 1581.73 1407.08 1582.22H1385.6C1385.56 1581.73 1385.41 1581.27 1385.41 1580.78C1385.41 1561.07 1410.36 1545.03 1441.04 1545.03C1471.66 1545.03 1496.58 1561.07 1496.58 1580.78C1496.58 1581.27 1496.43 1581.74 1496.39 1582.22H1474.91C1474.95 1581.73 1475.09 1581.27 1475.09 1580.78C1475.09 1567.06 1460.14 1556.3 1441.04 1556.3ZM1441.04 1535.48C1405.1 1535.48 1375.86 1555.8 1375.86 1580.78C1375.86 1581.27 1376.03 1581.73 1376.05 1582.22H1356.12C1356.11 1581.73 1356.04 1581.27 1356.04 1580.78C1356.04 1546.1 1394.17 1517.89 1441.04 1517.89C1487.91 1517.89 1526.04 1546.1 1526.04 1580.78C1526.04 1581.27 1525.96 1581.73 1525.93 1582.22H1505.94C1505.96 1581.73 1506.13 1581.27 1506.13 1580.78C1506.13 1555.8 1476.93 1535.48 1441.04 1535.48ZM1441.04 1495.31C1501.9 1495.31 1551.41 1533.65 1551.41 1580.78C1551.41 1581.27 1551.36 1581.73 1551.35 1582.22H1535.49C1535.51 1581.73 1535.6 1581.27 1535.6 1580.78C1535.6 1540.84 1493.18 1508.34 1441.04 1508.34C1388.91 1508.34 1346.49 1540.84 1346.49 1580.78C1346.49 1581.27 1346.56 1581.73 1346.57 1582.22H1330.66C1330.64 1581.73 1330.57 1581.27 1330.57 1580.78C1330.57 1533.65 1380.13 1495.31 1441.04 1495.31ZM1584.43 1582.22H1560.9C1560.91 1581.73 1560.96 1581.27 1560.96 1580.78C1560.96 1528.38 1507.17 1485.76 1441.04 1485.76C1437.85 1485.76 1434.71 1485.94 1431.58 1486.13C1415.1 1461.82 1386.74 1444.91 1353.65 1438.81C1352.86 1439.35 1351.88 1439.68 1350.66 1439.67C1342.58 1439.57 1334.57 1438.41 1326.51 1438.2C1319.09 1438.01 1311.61 1438.49 1304.18 1438.49C1303.41 1438.49 1302.74 1438.34 1302.15 1438.1C1266.19 1443.92 1235.03 1462.61 1218.56 1489.14C1215.93 1489.01 1213.32 1488.82 1210.64 1488.82C1145.21 1488.82 1091.93 1530.58 1090.83 1582.22H1072.54C1069.9 1582.22 1067.76 1584.36 1067.76 1587C1067.76 1617.28 1117.5 1640.08 1185.46 1653.23C1185.49 1673.65 1202.18 1696.46 1224.51 1696.46H1430.34C1451.48 1696.46 1471.47 1675.46 1471.51 1653.23C1539.47 1640.08 1589.21 1617.28 1589.21 1587C1589.21 1584.36 1587.07 1582.22 1584.43 1582.22Z" fill="white"/>
</g>
<defs>
<linearGradient id="paint0_linear_444_134" x1="1138.62" y1="1370.45" x2="1152.99" y2="1370.45" gradientUnits="userSpaceOnUse">
<stop stop-color="#9F5440"/>
<stop offset="0.6" stop-color="#732B1B"/>
<stop offset="1" stop-color="#642C24"/>
</linearGradient>
<clipPath id="clip0_444_134">
<rect width="2583" height="1956" fill="white"/>
</clipPath>
</defs>
</svg>
