<?xml version="1.0" encoding="UTF-8"?><svg id="Laag_1" xmlns="http://www.w3.org/2000/svg" viewBox="0 0 5669.29 2614.91"><polygon points="675.88 1659.45 980.49 1659.45 285.86 2349.23 675.88 1659.45" fill="#fff"/><polygon points="1298.42 1343.74 1012.19 1627.96 247.05 1627.96 871.84 552.66 1169.51 552.66 727.1 1343.74 1298.42 1343.74" fill="#fff"/><polygon points="1224.87 1977.88 1224.87 1818.67 1330.54 1818.67 1330.54 1850.98 1261.53 1850.98 1261.53 1881.16 1326.75 1881.16 1326.75 1911.96 1261.53 1911.96 1261.53 1945.06 1334.53 1945.06 1334.53 1977.88 1224.87 1977.88" fill="#fff"/><polygon points="1388.6 1977.88 1388.6 1818.67 1426.8 1818.67 1426.8 1944.41 1487.64 1944.41 1487.64 1977.88 1388.6 1977.88" fill="#fff"/><polygon points="1534.43 1977.88 1534.43 1818.67 1640.1 1818.67 1640.1 1850.98 1571.09 1850.98 1571.09 1881.16 1636.31 1881.16 1636.31 1911.96 1571.09 1911.96 1571.09 1945.06 1644.09 1945.06 1644.09 1977.88 1534.43 1977.88" fill="#fff"/><polygon points="1794.09 1977.88 1735.69 1904.53 1735.29 1904.53 1735.29 1977.88 1698.22 1977.88 1698.22 1818.67 1735.29 1818.67 1735.29 1883.39 1735.94 1883.39 1792.07 1818.67 1839.59 1818.67 1771.95 1892.02 1843.58 1977.88 1794.09 1977.88" fill="#fff"/><polygon points="1949.64 1851.47 1949.64 1977.89 1911.67 1977.89 1911.67 1851.47 1867.29 1851.47 1867.29 1818.65 1994.05 1818.65 1994.05 1851.47 1949.64 1851.47" fill="#fff"/><path d="M2124.52,1977.9l-34.15-63.18h-12.88v63.18h-37.12v-159.26h59.98c7.54,0,14.9,.81,22.03,2.32,7.2,1.56,13.63,4.25,19.34,7.96,5.69,3.78,10.24,8.75,13.65,14.9,3.39,6.17,5.11,13.79,5.11,22.91,0,10.82-2.88,19.96-8.68,27.23-5.8,7.36-13.79,12.63-23.93,15.78l41.04,68.15h-44.38Zm-1.55-110.45c0-3.78-.79-6.78-2.37-9.15-1.55-2.32-3.57-4.13-5.99-5.39-2.48-1.23-5.22-2.09-8.24-2.58-3.09-.46-6.01-.72-8.84-.72h-20.29v37.16h18.08c3.11,0,6.29-.26,9.59-.81,3.23-.56,6.24-1.46,8.87-2.79,2.74-1.35,4.9-3.32,6.64-5.9,1.65-2.48,2.55-5.8,2.55-9.84" fill="#fff"/><rect x="2216.57" y="1818.66" width="38.21" height="159.22" fill="#fff"/><path d="M2428.7,1975.12c-10.14,4.71-21.96,7.13-35.26,7.13-12.09,0-23.35-2.02-33.61-6.13-10.28-4.06-19.24-9.82-26.74-17.2-7.57-7.47-13.44-16.34-17.78-26.65-4.29-10.4-6.41-21.77-6.41-34.17s2.18-24.4,6.5-34.68c4.41-10.42,10.4-19.2,18.06-26.46,7.78-7.33,16.74-12.84,27.07-16.76,10.42-3.9,21.56-5.92,33.54-5.92,11.1,0,22.05,2.02,32.75,6.06,10.77,3.95,19.45,9.75,26.04,17.36l-25.67,26.16c-3.6-4.99-8.19-8.63-14-11.07-5.8-2.41-11.72-3.62-17.78-3.62-6.66,0-12.7,1.25-18.27,3.74-5.59,2.48-10.35,5.9-14.39,10.24-3.95,4.41-7.08,9.54-9.29,15.46-2.23,5.9-3.34,12.42-3.34,19.5s1.11,13.72,3.34,19.78c2.21,5.97,5.25,11.12,9.19,15.39,3.99,4.29,8.61,7.57,14.14,9.96,5.46,2.41,11.47,3.62,17.97,3.62,7.57,0,14.09-1.46,19.75-4.43,5.64-3.04,10.12-6.92,13.53-11.77l26.44,25.19c-6.96,8.15-15.55,14.55-25.79,19.29" fill="#fff"/><rect x="2499.74" y="1818.66" width="38.16" height="159.22" fill="#fff"/><polygon points="2666.6 1851.47 2666.6 1977.89 2628.65 1977.89 2628.65 1851.47 2584.22 1851.47 2584.22 1818.65 2711.03 1818.65 2711.03 1851.47 2666.6 1851.47" fill="#fff"/><polygon points="2757.32 1977.88 2757.32 1818.67 2862.99 1818.67 2862.99 1850.98 2793.98 1850.98 2793.98 1881.16 2859.25 1881.16 2859.25 1911.96 2793.98 1911.96 2793.98 1945.06 2866.98 1945.06 2866.98 1977.88 2757.32 1977.88" fill="#fff"/><rect x="2921.1" y="1818.66" width="38.18" height="159.22" fill="#fff"/><polygon points="3087.99 1851.47 3087.99 1977.89 3049.97 1977.89 3049.97 1851.47 3005.63 1851.47 3005.63 1818.65 3132.35 1818.65 3132.35 1851.47 3087.99 1851.47" fill="#fff"/><path d="M3261.72,1859.96c-3.25-4.15-7.52-7.47-12.79-9.96-5.25-2.46-10.33-3.74-15.18-3.74-2.53,0-5.06,.21-7.68,.65-2.62,.51-4.94,1.39-6.96,2.6-2.14,1.3-3.83,2.97-5.2,5.04-1.46,1.97-2.11,4.55-2.11,7.73,0,2.72,.49,4.94,1.65,6.71,1.07,1.81,2.74,3.44,4.92,4.69,2.11,1.42,4.62,2.65,7.61,3.78,2.97,1.11,6.29,2.3,10,3.43,5.34,1.83,10.84,3.85,16.57,5.97,5.83,2.23,11.07,5.15,15.88,8.73,4.69,3.53,8.57,7.99,11.7,13.37,3.09,5.32,4.64,11.93,4.64,19.85,0,9.19-1.65,17.06-5.04,23.79-3.27,6.66-7.78,12.16-13.39,16.55-5.64,4.34-12,7.57-19.27,9.63-7.27,2.14-14.76,3.18-22.42,3.18-11.26,0-22.17-2.02-32.66-5.94-10.49-3.95-19.22-9.7-26.16-16.97l24.84-25.7c3.83,4.85,8.94,8.8,15.27,12.02,6.29,3.27,12.46,4.83,18.71,4.83,2.76,0,5.57-.26,8.19-.84,2.6-.63,4.99-1.63,6.96-2.95,2.02-1.35,3.62-3.23,4.8-5.39,1.18-2.23,1.76-5.01,1.76-8.12s-.72-5.52-2.18-7.68c-1.51-2.02-3.64-3.99-6.36-5.71-2.72-1.72-6.17-3.27-10.21-4.73-4.09-1.37-8.73-3-13.86-4.6-5.01-1.67-9.91-3.6-14.74-5.85-4.85-2.3-9.15-5.22-12.88-8.68-3.78-3.51-6.82-7.78-9.12-12.79-2.3-5.04-3.41-11.21-3.41-18.36,0-8.84,1.72-16.41,5.27-22.68,3.57-6.36,8.22-11.51,14.02-15.55,5.76-4.04,12.3-7.06,19.55-8.94,7.27-1.86,14.6-2.79,21.96-2.79,8.89,0,17.87,1.63,27.21,4.97,9.26,3.27,17.32,8.17,24.28,14.58l-24.16,25.86Z" fill="#fff"/><polygon points="3403.26 1851.47 3403.26 1977.89 3365.28 1977.89 3365.28 1851.47 3320.9 1851.47 3320.9 1818.65 3447.67 1818.65 3447.67 1851.47 3403.26 1851.47" fill="#fff"/><polygon points="3493.96 1977.88 3493.96 1818.67 3599.62 1818.67 3599.62 1850.98 3530.61 1850.98 3530.61 1881.16 3595.84 1881.16 3595.84 1911.96 3530.61 1911.96 3530.61 1945.06 3603.69 1945.06 3603.69 1977.88 3493.96 1977.88" fill="#fff"/><path d="M3770.24,1975.12c-10.14,4.71-22.01,7.13-35.24,7.13-12.16,0-23.38-2.02-33.64-6.13-10.28-4.06-19.22-9.82-26.79-17.2-7.52-7.47-13.44-16.34-17.73-26.65-4.27-10.4-6.45-21.77-6.45-34.17s2.23-24.4,6.57-34.68c4.39-10.42,10.38-19.2,18.06-26.46,7.73-7.33,16.71-12.84,27.07-16.76,10.35-3.9,21.56-5.92,33.52-5.92,11.1,0,22.07,2.02,32.78,6.06,10.75,3.95,19.48,9.75,26.04,17.36l-25.7,26.16c-3.6-4.99-8.19-8.63-14.04-11.07-5.76-2.41-11.65-3.62-17.73-3.62-6.66,0-12.74,1.25-18.27,3.74-5.59,2.48-10.33,5.9-14.37,10.24-3.99,4.41-7.08,9.54-9.28,15.46-2.23,5.9-3.34,12.42-3.34,19.5s1.11,13.72,3.34,19.78c2.21,5.97,5.22,11.12,9.17,15.39,3.99,4.29,8.59,7.57,14.16,9.96,5.43,2.41,11.4,3.62,17.94,3.62,7.59,0,14.11-1.46,19.8-4.43,5.55-3.04,10.1-6.92,13.49-11.77l26.44,25.19c-6.94,8.15-15.6,14.55-25.79,19.29" fill="#fff"/><polygon points="3940.48 1977.88 3940.48 1911.33 3879.23 1911.33 3879.23 1977.88 3841.3 1977.88 3841.3 1818.67 3879.23 1818.67 3879.23 1878.93 3940.48 1878.93 3940.48 1818.67 3978.46 1818.67 3978.46 1977.88 3940.48 1977.88" fill="#fff"/><polygon points="4139.74 1977.88 4076.49 1873.73 4075.79 1873.73 4076.69 1977.88 4039.83 1977.88 4039.83 1818.67 4083.12 1818.67 4146.15 1922.55 4146.94 1922.55 4145.96 1818.67 4182.85 1818.67 4182.85 1977.88 4139.74 1977.88" fill="#fff"/><rect x="4244.29" y="1818.66" width="38.18" height="159.22" fill="#fff"/><polygon points="4343.89 1977.88 4343.89 1818.67 4449.51 1818.67 4449.51 1850.98 4380.54 1850.98 4380.54 1881.16 4445.79 1881.16 4445.79 1911.96 4380.54 1911.96 4380.54 1945.06 4453.57 1945.06 4453.57 1977.88 4343.89 1977.88" fill="#fff"/><polygon points="4603.52 1977.88 4545.16 1904.53 4544.72 1904.53 4544.72 1977.88 4507.65 1977.88 4507.65 1818.67 4544.72 1818.67 4544.72 1883.39 4545.41 1883.39 4601.5 1818.67 4649.01 1818.67 4581.35 1892.02 4653 1977.88 4603.52 1977.88" fill="#fff"/><polygon points="4694.48 1977.88 4694.48 1818.67 4800.15 1818.67 4800.15 1850.98 4731.11 1850.98 4731.11 1881.16 4796.41 1881.16 4796.41 1911.96 4731.11 1911.96 4731.11 1945.06 4804.14 1945.06 4804.14 1977.88 4694.48 1977.88" fill="#fff"/><polygon points="4958.14 1977.88 4894.86 1873.73 4894.17 1873.73 4895.07 1977.88 4858.21 1977.88 4858.21 1818.67 4901.5 1818.67 4964.55 1922.55 4965.27 1922.55 4964.36 1818.67 5001.18 1818.67 5001.18 1977.88 4958.14 1977.88" fill="#fff"/><path d="M1015.06,309.61c0,8.73-1.72,15.99-5.13,21.96-3.43,5.9-8.1,10.7-13.74,14.28-5.76,3.6-12.21,6.2-19.5,7.73-7.27,1.63-14.72,2.37-22.35,2.37h-63.46V196.68h63.46c6.1,0,12.42,.65,18.87,1.9,6.48,1.21,12.33,3.44,17.57,6.52,5.25,3.06,9.49,7.27,12.84,12.46,3.27,5.25,4.94,11.91,4.94,20.03,0,8.84-2.44,16.2-7.22,21.91-4.81,5.8-11.07,9.94-18.89,12.47v.51c4.5,.77,8.73,2.11,12.72,4.13,3.99,2.02,7.43,4.67,10.35,7.73,2.88,3.23,5.27,6.92,6.96,11.05,1.74,4.25,2.58,8.94,2.58,14.21m-43.66-66.85c0-5.36-2.02-9.29-6.15-11.82-4.13-2.41-10.26-3.69-18.34-3.69h-18.87v32.87h20.64c7.22,0,12.84-1.46,16.78-4.39,3.97-2.92,5.94-7.27,5.94-12.98m5.2,63.25c0-6.61-2.46-11.14-7.4-13.67-4.97-2.58-11.56-3.9-19.85-3.9h-21.31v36.49h21.54c2.99,0,6.13-.28,9.35-.84,3.23-.46,6.15-1.42,8.77-2.79,2.62-1.35,4.76-3.27,6.43-5.76,1.6-2.46,2.46-5.66,2.46-9.54" fill="#fff"/><polygon points="1147.97 355.95 1109.48 355.95 1049.22 196.69 1092.38 196.69 1129.33 309.62 1130.19 309.62 1166.93 196.69 1209.46 196.69 1147.97 355.95" fill="#fff"/><polygon points="4570.99 552.67 4449.86 974.05 4442.71 552.67 4248.93 552.67 3938.58 1632.05 4151.95 1632.05 4276.12 1200.37 4292.57 1632.05 4474.05 1632.05 4784.4 552.67 4570.99 552.67" fill="#fff"/><polygon points="3361.55 552.67 3110.25 928.87 3076.15 552.67 2851.15 552.67 2540.75 1632.05 2765.73 1632.05 2936.92 1036.65 2936.92 1036.7 2986.09 1371.86 3221 1041.55 3051.18 1632.05 3276.17 1632.05 3586.55 552.67 3361.55 552.67" fill="#fff"/><polygon points="2503.66 552.67 2252.41 928.87 2218.29 552.67 1993.29 552.67 1682.86 1632.05 1907.86 1632.05 2079.1 1036.65 2079.1 1036.7 2128.22 1371.86 2363.06 1041.55 2193.31 1632.05 2418.35 1632.05 2728.66 552.67 2503.66 552.67" fill="#fff"/><polygon points="4080.19 748.39 4136.48 552.66 3713.52 552.66 3403.17 1632.04 3826.13 1632.04 3882.39 1436.32 3684.44 1436.32 3757.65 1181.72 3955.56 1181.72 4011.48 987.43 3813.54 987.43 3882.25 748.39 4080.19 748.39" fill="#fff"/><path d="M1408.62,552.68l-345.66,791.08h235.47l-94.41,93.73h187.49l-32.15,194.57h225l139.34-1079.38h-315.09Zm9.66,723.07h-108.08l188.25-484.68-80.18,484.68Z" fill="#fff"/><path d="M5004.72,552.67c-94.82,0-121.4,85.56-121.4,85.56l-122.24,424.93s-42.01,132.92,76.65,132.92h143.27l-58.01,200.42s-8.33,31.62-67.76,31.62h-168.96l-58.61,203.95h349.26c104.04,0,122.73-67.25,122.73-67.25l121.96-424.26s41.09-139.65-98.65-139.65h-118.82l63.3-220.61s10.26-30.73,55.52-30.73h174.51l58.01-196.89h-350.74Z" fill="#fff"/><path d="M5010.48,2083.37v281.36H540.14l279.8-277.58,4190.54-3.78Zm-4064.97,212.72c7.95,1.05,19.67,2.09,36.2,2.09,27.62,0,50.21-5.86,65.07-18.2,13.6-11.51,23.43-30.13,23.43-57.12,0-24.9-9.21-42.26-23.85-53.14-13.6-10.25-30.97-15.06-57.75-15.06-16.11,0-31.38,1.05-43.1,2.93v138.51Zm32.01-115.7c2.72-.63,7.32-1.26,14.44-1.26,27.41,0,44.57,15.48,44.36,44.77,0,33.69-18.83,49.59-47.7,49.38-3.98,0-8.37,0-11.09-.63v-92.27Zm175.75-26.99c-41.64,0-68.63,31.59-68.63,73.86s24.48,71.77,66.33,71.77,69.25-28.04,69.25-74.28c0-38.92-23.64-71.35-66.95-71.35Zm-.84,25.32c21.97,0,34.1,21.76,34.1,47.08,0,27.41-12.34,47.91-33.9,47.91s-34.31-19.46-34.31-47.08,12.55-47.91,34.1-47.91Zm210.07,118h31.18l-7.74-141.02h-41.64l-15.06,46.87c-4.6,15.69-9.42,34.31-13.39,50.63h-.63c-3.14-16.53-7.53-34.1-11.93-50.42l-13.81-47.08h-42.47l-9,141.02h29.5l2.51-53.56c1.05-17.58,1.67-39.33,2.51-58.38h.42c3.35,18.41,8.16,38.5,12.76,55.03l15.06,54.61h24.9l17.16-55.03c5.44-16.53,11.3-36.61,15.69-54.61h.63c0,20.5,.63,41.01,1.26,57.96l2.09,53.98Zm117.8-143.32c-41.64,0-68.63,31.59-68.63,73.86s24.48,71.77,66.33,71.77,69.25-28.04,69.25-74.28c0-38.92-23.64-71.35-66.95-71.35Zm-.84,25.32c21.97,0,34.1,21.76,34.1,47.08,0,27.41-12.34,47.91-33.9,47.91s-34.31-19.46-34.31-47.08,12.55-47.91,34.1-47.91Zm110.27,118h32.01v-114.24h38.5v-26.78h-108.38v26.78h37.87v114.24Zm87.46-141.02v141.02h32.01v-141.02h-32.01Zm158.38,112.15c-6.28,2.51-16.95,4.6-26.57,4.6-28.46,0-45.19-17.78-45.19-46.03,0-31.38,19.67-46.66,44.98-46.66,11.3,0,20.29,2.51,26.78,5.23l6.49-25.32c-5.65-2.93-18.2-6.28-34.73-6.28-42.68,0-77,26.78-77,74.9,0,40.17,25.11,70.51,73.86,70.51,17.16,0,30.34-3.14,36.2-6.07l-4.81-24.9Zm101.06-7.32l10.88,36.2h34.31l-43.73-141.02h-41.85l-43.1,141.02h33.06l10.04-36.2h40.38Zm-35.78-23.85l8.37-29.92c2.3-8.16,4.39-18.83,6.49-27.2h.42c2.09,8.37,4.6,18.83,7.11,27.2l8.79,29.92h-31.18Zm163.62,32.85c15.27,0,27.2-11.93,27.2-27.41s-12.14-27.41-27.2-27.41-27.62,12.14-27.2,27.41c0,15.69,12.13,27.41,27.2,27.41Zm154.41,27.2l47.49-141.02h-33.9l-17.99,60.26c-4.81,16.11-9.21,32.85-12.76,49.8h-.63c-3.35-17.58-7.74-33.69-12.55-50.42l-17.16-59.63h-34.94l45.19,141.02h37.24Zm146.46-85.57h-51.89v-29.29h55.03v-26.15h-87.04v141.02h89.97v-26.15h-57.96v-33.48h51.89v-25.94Zm27.83,85.57h31.59v-55.45h9.62c12.97,.21,19.04,5.02,22.81,22.6,4.18,17.37,7.53,28.87,9.83,32.85h32.64c-2.72-5.44-7.11-23.85-11.51-39.75-3.56-12.97-9-22.39-18.83-26.36v-.63c12.14-4.39,24.9-16.74,24.9-34.73,0-12.97-4.6-22.81-12.97-29.5-10.04-7.95-24.69-11.09-45.61-11.09-16.95,0-32.22,1.26-42.47,2.93v139.14Zm31.59-117.38c2.3-.42,6.7-1.05,14.44-1.05,14.65,.21,23.43,6.7,23.43,19.67s-9.42,20.29-25.32,20.29h-12.55v-38.92Zm92.48,117.38h88.09v-26.78h-56.07v-114.24h-32.01v141.02Zm106.92-141.02v141.02h32.01v-141.02h-32.01Zm158.39,112.15c-6.28,2.51-16.95,4.6-26.57,4.6-28.46,0-45.19-17.78-45.19-46.03,0-31.38,19.67-46.66,44.98-46.66,11.3,0,20.29,2.51,26.78,5.23l6.49-25.32c-5.65-2.93-18.2-6.28-34.73-6.28-42.68,0-77,26.78-77,74.9,0,40.17,25.11,70.51,73.86,70.51,17.16,0,30.34-3.14,36.2-6.07l-4.81-24.9Zm25.73-112.15v141.02h32.01v-59h52.52v59h31.8v-141.02h-31.8v54.19h-52.52v-54.19h-32.01Zm171.36,141.02h32.01v-114.24h38.5v-26.78h-108.38v26.78h37.87v114.24Zm87.46-141.02v141.02h32.01v-141.02h-32.01Zm88.92,141.02v-42.47c0-23.01-.42-42.89-1.26-61.51l.63-.21c6.9,16.53,16.11,34.73,24.48,49.8l30.13,54.4h33.48v-141.02h-29.29v41.22c0,21.13,.63,40.17,2.72,58.79h-.63c-6.28-15.9-14.65-33.48-23.02-48.33l-29.29-51.68h-37.24v141.02h29.29Zm232.87-80.76h-52.52v24.9h21.76v29.5c-2.51,1.26-8.37,2.09-15.69,2.09-26.15,0-44.36-17.16-44.36-46.24,0-30.55,20.09-45.61,46.66-45.61,15.48,0,25.11,2.72,32.85,6.07l6.7-25.53c-6.91-3.35-20.92-6.9-39.13-6.9-46.24,0-80.34,26.78-80.55,73.65-.21,20.71,6.9,39.13,19.88,51.26,12.97,12.55,31.59,19.04,57.33,19.04,18.62,0,37.24-4.6,47.08-7.95v-74.28Zm88.71,53.56c15.27,0,27.2-11.93,27.2-27.41s-12.14-27.41-27.2-27.41-27.62,12.14-27.2,27.41c0,15.69,12.13,27.41,27.2,27.41Zm91.43,27.2h88.09v-26.78h-56.07v-114.24h-32.01v141.02Zm106.92-141.02v141.02h32.01v-141.02h-32.01Zm158.38,112.15c-6.28,2.51-16.95,4.6-26.57,4.6-28.46,0-45.19-17.78-45.19-46.03,0-31.38,19.67-46.66,44.98-46.66,11.3,0,20.29,2.51,26.78,5.23l6.49-25.32c-5.65-2.93-18.2-6.28-34.73-6.28-42.68,0-77,26.78-77,74.9,0,40.17,25.11,70.51,73.86,70.51,17.16,0,30.34-3.14,36.2-6.07l-4.81-24.9Zm25.73-112.15v141.02h32.01v-59h52.52v59h31.8v-141.02h-31.8v54.19h-52.52v-54.19h-32.01Zm171.36,141.02h32.01v-114.24h38.5v-26.78h-108.38v26.78h37.87v114.24Zm80.34-6.49c7.95,4.39,23.85,8.58,39.96,8.58,38.71,0,56.91-20.09,56.91-43.73,0-19.88-11.72-32.85-36.62-42.05-18.2-6.9-26.15-10.88-26.15-19.88,0-7.32,6.7-13.6,20.5-13.6s23.85,3.98,29.5,6.7l7.11-25.74c-8.37-3.77-20.09-7.11-35.99-7.11-33.27,0-53.35,18.41-53.35,42.47,0,20.5,15.27,33.48,38.71,41.64,16.95,6.07,23.64,11.09,23.64,19.88s-7.74,15.27-22.39,15.27c-13.6,0-26.78-4.39-35.36-8.79l-6.49,26.36Zm145.62,6.49h32.01v-114.24h38.5v-26.78h-108.38v26.78h37.87v114.24Zm87.25-141.02v78.67c0,44.98,20.92,64.65,56.49,64.65s58.79-20.71,58.79-64.23v-79.09h-31.8v81.18c0,24.9-9.21,36.61-25.94,36.61s-25.53-12.34-25.53-36.61v-81.18h-32.01Zm142.91,140.39c7.95,1.05,19.67,2.09,36.2,2.09,27.62,0,50.21-5.86,65.07-18.2,13.6-11.51,23.43-30.13,23.43-57.12,0-24.9-9.21-42.26-23.85-53.14-13.6-10.25-30.97-15.06-57.75-15.06-16.11,0-31.38,1.05-43.1,2.93v138.51Zm32.01-115.7c2.72-.63,7.32-1.26,14.44-1.26,27.41,0,44.57,15.48,44.36,44.77,0,33.69-18.83,49.59-47.7,49.38-3.98,0-8.37,0-11.09-.63v-92.27Zm113.61-24.69v141.02h32.01v-141.02h-32.01Zm143.53,55.45h-51.89v-29.29h55.03v-26.15h-87.04v141.02h89.97v-26.15h-57.96v-33.48h51.89v-25.94Z" fill="#fff"/></svg>