<?xml version="1.0" encoding="UTF-8" standalone="no"?>
<!DOCTYPE svg PUBLIC "-//W3C//DTD SVG 1.1//EN" "http://www.w3.org/Graphics/SVG/1.1/DTD/svg11.dtd">
<svg xmlns="http://www.w3.org/2000/svg" version="1.1" viewBox="0.00 0.00 454.00 288.00">
<g stroke-width="2.00" fill="none" stroke-linecap="butt">
<path stroke="#ededed" vector-effect="non-scaling-stroke" d="
  M 232.84 53.24
  L 232.66 56.18"
/>
<path stroke="#ededed" vector-effect="non-scaling-stroke" d="
  M 222.52 56.27
  L 222.41 53.26"
/>
</g>
<path fill="#ffffff" d="
  M 315.3804 89.2313
  A 0.38 0.38 0.0 0 1 315.3804 89.7687
  L 227.4587 177.6904
  A 0.38 0.38 0.0 0 1 226.9213 177.6904
  L 138.9996 89.7687
  A 0.38 0.38 0.0 0 1 138.9996 89.2313
  L 226.9213 1.3096
  A 0.38 0.38 0.0 0 1 227.4587 1.3096
  L 315.3804 89.2313
  Z
  M 227.5994 7.8633
  A 0.48 0.48 0.0 0 0 226.9206 7.8633
  L 145.6033 89.1806
  A 0.48 0.48 0.0 0 0 145.6033 89.8594
  L 226.9206 171.1767
  A 0.48 0.48 0.0 0 0 227.5994 171.1767
  L 308.9167 89.8594
  A 0.48 0.48 0.0 0 0 308.9167 89.1806
  L 227.5994 7.8633
  Z"
/>
<path fill="#dbdbdb" d="
  M 232.84 53.24
  L 232.66 56.18
  L 232.67 129.31
  A 0.58 0.58 0.0 0 0 233.25 129.89
  Q 251.03 129.96 259.75 129.87
  Q 259.98 129.87 260.12 129.89
  A 0.40 0.40 0.0 0 1 260.34 130.57
  L 227.70 163.21
  A 0.68 0.67 44.7 0 1 226.75 163.21
  L 194.14 130.60
  A 0.41 0.41 0.0 0 1 194.43 129.90
  L 221.89 129.90
  A 0.63 0.63 0.0 0 0 222.52 129.27
  L 222.52 56.27
  L 222.41 53.26
  L 222.62 49.75
  A 0.56 0.55 -88.5 0 0 222.07 49.16
  L 194.45 49.16
  A 0.40 0.40 0.0 0 1 194.16 48.48
  L 226.75 15.89
  A 0.71 0.71 0.0 0 1 227.75 15.89
  L 260.46 48.60
  A 0.33 0.33 0.0 0 1 260.23 49.17
  L 233.53 49.17
  A 0.74 0.74 0.0 0 0 232.84 49.65
  Q 232.19 51.42 232.84 53.24
  Z"
/>
<path fill="#ffffff" d="
  M 222.41 53.26
  L 222.52 56.27
  L 197.45 56.33
  A 0.54 0.53 90.0 0 0 196.92 56.87
  L 196.92 125.10
  A 0.79 0.78 0.0 0 1 196.13 125.88
  L 194.85 125.88
  A 0.97 0.97 0.0 0 1 193.88 124.91
  L 193.88 53.69
  A 0.46 0.46 0.0 0 1 194.34 53.23
  L 222.41 53.26
  Z"
/>
<path fill="#ffffff" d="
  M 232.66 56.18
  L 232.84 53.24
  L 260.19 53.20
  A 0.38 0.37 90.0 0 1 260.56 53.58
  L 260.56 125.13
  A 0.71 0.71 0.0 0 1 259.85 125.84
  L 258.20 125.84
  A 0.72 0.71 90.0 0 1 257.49 125.12
  L 257.49 56.82
  A 0.54 0.54 0.0 0 0 256.95 56.28
  L 232.66 56.18
  Z"
/>
<path fill="#ffffff" d="
  M 265.95 54.15
  L 301.16 89.32
  A 0.31 0.31 0.0 0 1 301.16 89.76
  L 265.95 124.93
  A 0.31 0.31 0.0 0 1 265.42 124.71
  L 265.42 54.37
  A 0.31 0.31 0.0 0 1 265.95 54.15
  Z"
/>
<path fill="#ffffff" d="
  M 188.42 124.83
  L 153.32 89.79
  A 0.34 0.34 0.0 0 1 153.32 89.31
  L 188.42 54.27
  A 0.34 0.34 0.0 0 1 189.00 54.51
  L 189.00 124.59
  A 0.34 0.34 0.0 0 1 188.42 124.83
  Z"
/>
<path fill="#ffffff" d="
  M 52.01 201.53
  L 65.57 201.53
  A 0.38 0.38 0.0 0 1 65.95 201.91
  L 65.95 207.07
  A 0.38 0.38 0.0 0 1 65.57 207.45
  L 52.02 207.45
  A 0.38 0.38 0.0 0 0 51.64 207.83
  L 51.64 220.96
  A 0.38 0.38 0.0 0 1 51.26 221.34
  L 44.59 221.34
  A 0.38 0.38 0.0 0 1 44.21 220.96
  L 44.21 187.82
  A 0.38 0.38 0.0 0 1 44.59 187.44
  L 67.70 187.44
  A 0.38 0.38 0.0 0 1 68.08 187.82
  L 68.08 193.29
  A 0.38 0.38 0.0 0 1 67.70 193.67
  L 52.01 193.67
  A 0.38 0.38 0.0 0 0 51.63 194.05
  L 51.63 201.15
  A 0.38 0.38 0.0 0 0 52.01 201.53
  Z"
/>
<path fill="#ffffff" d="
  M 83.51 187.45
  Q 90.40 187.48 96.85 187.42
  A 0.61 0.61 0.0 0 1 97.46 188.03
  L 97.46 193.24
  A 0.57 0.56 -90.0 0 1 96.90 193.81
  L 87.75 193.81
  A 0.52 0.51 -90.0 0 0 87.24 194.33
  L 87.24 220.87
  A 0.50 0.50 0.0 0 1 86.73 221.37
  Q 85.14 221.32 83.49 221.32
  Q 81.84 221.32 80.26 221.36
  A 0.50 0.50 0.0 0 1 79.75 220.87
  L 79.77 194.33
  A 0.52 0.51 -89.9 0 0 79.26 193.81
  L 70.11 193.80
  A 0.57 0.56 -89.9 0 1 69.55 193.23
  L 69.56 188.02
  A 0.61 0.61 0.0 0 1 70.17 187.41
  Q 76.62 187.47 83.51 187.45
  Z"
/>
<path fill="#ffffff" d="
  M 26.87 215.25
  L 26.87 221.01
  A 0.34 0.34 0.0 0 1 26.53 221.35
  L 3.17 221.35
  A 0.34 0.34 0.0 0 1 2.83 221.01
  L 2.83 187.79
  A 0.34 0.34 0.0 0 1 3.17 187.45
  L 10.01 187.45
  A 0.34 0.34 0.0 0 1 10.35 187.79
  L 10.35 214.57
  A 0.34 0.34 0.0 0 0 10.69 214.91
  L 26.53 214.91
  A 0.34 0.34 0.0 0 1 26.87 215.25
  Z"
/>
<rect fill="#ffffff" x="30.14" y="187.43" width="7.44" height="33.92" rx="0.33"/>
<path fill="#ffffff" d="
  M 126.45 187.88
  L 126.45 193.12
  A 0.43 0.43 0.0 0 1 126.02 193.55
  L 108.80 193.55
  A 0.43 0.43 0.0 0 0 108.37 193.98
  L 108.37 200.45
  A 0.43 0.43 0.0 0 0 108.80 200.88
  L 124.54 200.88
  A 0.43 0.43 0.0 0 1 124.97 201.31
  L 124.97 206.34
  A 0.43 0.43 0.0 0 1 124.54 206.77
  L 108.82 206.77
  A 0.43 0.43 0.0 0 0 108.39 207.20
  L 108.39 214.66
  A 0.43 0.43 0.0 0 0 108.82 215.09
  L 126.37 215.09
  A 0.43 0.43 0.0 0 1 126.80 215.52
  L 126.80 220.93
  A 0.43 0.43 0.0 0 1 126.37 221.36
  L 101.38 221.36
  A 0.43 0.43 0.0 0 1 100.95 220.93
  L 100.95 187.88
  A 0.43 0.43 0.0 0 1 101.38 187.45
  L 126.02 187.45
  A 0.43 0.43 0.0 0 1 126.45 187.88
  Z"
/>
<path fill="#ffffff" d="
  M 143.54 205.98
  Q 141.97 203.49 139.42 199.33
  A 0.20 0.20 0.0 0 0 139.05 199.43
  L 139.05 220.90
  A 0.43 0.43 0.0 0 1 138.62 221.33
  L 132.25 221.33
  A 0.41 0.41 0.0 0 1 131.84 220.92
  L 131.84 187.97
  A 0.56 0.56 0.0 0 1 132.40 187.41
  L 138.70 187.41
  A 1.14 1.14 0.0 0 1 139.67 187.95
  Q 147.07 199.89 148.89 202.77
  Q 150.45 205.26 153.00 209.43
  A 0.20 0.20 0.0 0 0 153.37 209.32
  L 153.37 187.85
  A 0.43 0.43 0.0 0 1 153.80 187.42
  L 160.17 187.42
  A 0.41 0.41 0.0 0 1 160.58 187.83
  L 160.58 220.78
  A 0.56 0.56 0.0 0 1 160.02 221.34
  L 153.72 221.34
  A 1.14 1.14 0.0 0 1 152.76 220.81
  Q 145.35 208.86 143.54 205.98
  Z"
/>
<path fill="#ffffff" d="
  M 212.63 221.34
  A 0.40 0.40 0.0 0 1 212.24 220.86
  L 219.27 187.76
  A 0.37 0.37 0.0 0 1 219.62 187.47
  Q 222.45 187.38 234.46 187.45
  Q 247.44 187.53 248.49 198.40
  C 249.11 204.84 246.21 212.52 241.12 216.85
  Q 236.00 221.20 228.75 221.31
  Q 221.55 221.42 212.63 221.34
  Z
  M 224.68 212.73
  C 230.61 212.95 234.89 212.57 237.16 206.16
  C 238.87 201.33 237.87 196.11 231.73 196.00
  Q 228.44 195.95 228.32 195.97
  A 0.83 0.82 -1.8 0 0 227.71 196.61
  L 224.34 212.30
  A 0.36 0.36 0.0 0 0 224.68 212.73
  Z"
/>
<path fill="#ffffff" d="
  M 313.95 202.22
  A 0.09 0.09 0.0 0 0 313.77 202.19
  L 306.65 220.82
  A 0.85 0.83 -79.2 0 1 305.87 221.36
  L 296.74 221.36
  A 0.64 0.64 0.0 0 1 296.10 220.76
  L 294.09 188.12
  A 0.65 0.65 0.0 0 1 294.74 187.43
  L 303.69 187.43
  A 0.74 0.74 0.0 0 1 304.43 188.17
  L 304.43 205.93
  A 0.18 0.18 0.0 0 0 304.77 206.00
  L 312.60 187.93
  A 0.81 0.80 11.7 0 1 313.34 187.45
  L 321.21 187.45
  A 0.52 0.52 0.0 0 1 321.73 187.97
  L 321.73 205.76
  A 0.21 0.21 0.0 0 0 322.13 205.84
  L 329.98 187.71
  A 0.48 0.47 -77.2 0 1 330.41 187.43
  L 340.29 187.43
  A 0.11 0.11 0.0 0 1 340.39 187.59
  L 324.05 220.99
  A 0.66 0.66 0.0 0 1 323.46 221.36
  L 314.42 221.36
  A 0.47 0.47 0.0 0 1 313.95 220.89
  L 313.95 202.22
  Z"
/>
<path fill="#ffffff" d="
  M 406.47 199.02
  A 0.21 0.21 0.0 0 0 406.82 199.22
  Q 410.39 196.03 415.10 196.21
  C 419.82 196.39 422.61 199.31 421.74 204.03
  Q 420.84 208.96 418.21 220.92
  A 0.58 0.57 -83.7 0 1 417.65 221.38
  L 409.18 221.38
  A 0.41 0.40 -84.1 0 1 408.79 220.89
  L 411.80 206.70
  A 2.47 2.47 0.0 0 0 409.10 203.73
  L 408.78 203.77
  A 4.80 4.78 2.5 0 0 404.66 207.53
  L 401.78 221.13
  A 0.32 0.32 0.0 0 1 401.47 221.37
  L 392.69 221.37
  A 0.24 0.24 0.0 0 1 392.46 221.08
  L 399.53 187.75
  A 0.41 0.40 -83.7 0 1 399.92 187.43
  L 408.58 187.43
  A 0.28 0.28 0.0 0 1 408.85 187.77
  L 406.47 199.02
  Z"
/>
<path fill="#ffffff" d="
  M 379.35 217.43
  A 0.32 0.32 0.0 0 0 378.83 217.10
  Q 375.64 219.72 371.53 219.62
  C 361.40 219.40 362.42 208.31 366.08 202.40
  Q 369.46 196.95 375.66 196.14
  Q 380.47 195.51 382.62 198.83
  A 0.36 0.36 0.0 0 0 383.27 198.71
  L 383.58 197.23
  A 0.64 0.63 -83.8 0 1 384.20 196.73
  L 392.16 196.73
  A 0.54 0.54 0.0 0 1 392.69 197.38
  Q 391.12 204.52 388.27 217.99
  Q 385.71 230.09 372.70 229.59
  C 366.95 229.36 361.64 228.54 361.71 222.06
  A 0.59 0.58 0.0 0 1 362.30 221.48
  L 370.41 221.48
  A 0.93 0.93 0.0 0 1 371.16 221.86
  L 372.01 223.00
  A 1.24 1.23 78.9 0 0 372.69 223.46
  Q 376.14 224.37 378.07 221.84
  A 1.42 1.31 -20.8 0 0 378.31 221.36
  L 379.35 217.43
  Z
  M 380.0454 203.4884
  A 5.35 4.04 -58.5 0 0 373.8053 205.9391
  A 5.35 4.04 -58.5 0 0 374.4546 212.6116
  A 5.35 4.04 -58.5 0 0 380.6947 210.1609
  A 5.35 4.04 -58.5 0 0 380.0454 203.4884
  Z"
/>
<path fill="#ffffff" d="
  M 274.99 213.94
  A 0.49 0.49 0.0 0 1 275.39 214.72
  Q 269.92 222.23 261.08 222.06
  C 254.52 221.93 250.08 219.15 249.67 212.56
  C 249.17 204.68 256.27 197.63 263.45 196.48
  C 273.08 194.92 279.08 200.39 277.00 210.18
  A 1.27 1.27 0.0 0 1 275.76 211.19
  L 259.78 211.19
  A 1.43 1.42 -18.2 0 0 258.63 213.46
  L 259.76 214.99
  A 2.46 2.42 72.9 0 0 261.59 215.98
  Q 264.01 216.11 265.68 214.94
  C 267.96 213.34 271.42 213.93 274.99 213.94
  Z
  M 260.30 206.52
  L 268.80 206.22
  A 0.17 0.17 0.0 0 0 268.96 206.04
  L 268.96 205.95
  A 4.20 3.82 -2.0 0 0 264.63 202.28
  L 264.19 202.30
  A 4.20 3.82 -2.0 0 0 260.12 206.26
  L 260.13 206.35
  A 0.17 0.17 0.0 0 0 260.30 206.52
  Z"
/>
<path fill="#ffffff" d="
  M 359.05 213.93
  A 0.49 0.49 0.0 0 1 359.45 214.71
  Q 353.98 222.23 345.14 222.06
  C 338.58 221.93 334.13 219.15 333.72 212.56
  C 333.22 204.68 340.32 197.62 347.50 196.47
  C 357.14 194.91 363.14 200.38 361.06 210.17
  A 1.27 1.27 0.0 0 1 359.82 211.18
  L 343.84 211.18
  A 1.43 1.42 -18.2 0 0 342.69 213.46
  L 343.82 214.99
  A 2.47 2.42 72.9 0 0 345.65 215.98
  Q 348.07 216.11 349.74 214.93
  C 352.02 213.33 355.48 213.92 359.05 213.93
  Z
  M 344.33 206.53
  L 352.86 206.21
  A 0.16 0.16 0.0 0 0 353.02 206.05
  L 353.01 205.96
  A 4.30 3.81 -2.1 0 0 348.58 202.31
  L 348.32 202.32
  A 4.30 3.81 -2.1 0 0 344.16 206.28
  L 344.16 206.37
  A 0.16 0.16 0.0 0 0 344.33 206.53
  Z"
/>
<path fill="#ffffff" d="
  M 449.19 213.95
  A 0.49 0.49 0.0 0 1 449.59 214.73
  Q 444.12 222.23 435.28 222.05
  C 428.72 221.92 424.28 219.13 423.88 212.55
  C 423.39 204.67 430.49 197.62 437.67 196.48
  C 447.30 194.93 453.29 200.40 451.21 210.19
  A 1.27 1.27 0.0 0 1 449.97 211.20
  L 433.99 211.18
  A 1.43 1.42 -18.2 0 0 432.84 213.45
  L 433.97 214.98
  A 2.46 2.42 72.9 0 0 435.79 215.98
  Q 438.21 216.11 439.88 214.94
  C 442.17 213.34 445.62 213.93 449.19 213.95
  Z
  M 434.52 206.47
  L 443.02 206.21
  A 0.16 0.16 0.0 0 0 443.17 206.05
  L 443.17 205.97
  A 4.19 3.80 -1.7 0 0 438.87 202.29
  L 438.43 202.31
  A 4.19 3.80 -1.7 0 0 434.35 206.23
  L 434.36 206.31
  A 0.16 0.16 0.0 0 0 434.52 206.47
  Z"
/>
<rect fill="#ffffff" x="179.03" y="205.35" width="14.42" height="6.04" rx="0.41"/>
<path fill="#ffffff" d="
  M 316.28 284.67
  L 303.79 267.76
  A 0.35 0.35 0.0 0 0 303.26 267.72
  L 298.18 272.81
  A 0.35 0.35 0.0 0 0 298.08 273.05
  L 298.08 284.50
  A 0.35 0.35 0.0 0 1 297.73 284.85
  L 293.87 284.85
  A 0.35 0.35 0.0 0 1 293.52 284.50
  L 293.52 250.86
  A 0.35 0.35 0.0 0 1 293.87 250.51
  L 297.73 250.51
  A 0.35 0.35 0.0 0 1 298.08 250.86
  L 298.08 266.85
  A 0.35 0.35 0.0 0 0 298.68 267.10
  L 315.19 250.58
  A 0.35 0.35 0.0 0 1 315.44 250.48
  L 320.27 250.48
  A 0.35 0.35 0.0 0 1 320.51 251.08
  L 307.29 264.31
  A 0.35 0.35 0.0 0 0 307.26 264.76
  L 321.64 284.25
  A 0.35 0.35 0.0 0 1 321.36 284.81
  L 316.56 284.81
  A 0.35 0.35 0.0 0 1 316.28 284.67
  Z"
/>
<path fill="#ffffff" d="
  M 132.48 251.02
  A 0.60 0.60 0.0 0 1 133.08 250.42
  L 146.32 250.44
  A 14.84 14.40 -89.9 0 1 160.69 265.30
  L 160.69 270.04
  A 14.84 14.40 -89.9 0 1 146.26 284.86
  L 133.02 284.84
  A 0.60 0.60 0.0 0 1 132.42 284.24
  L 132.48 251.02
  Z
  M 137.03 254.86
  L 137.03 280.52
  A 0.44 0.44 0.0 0 0 137.47 280.96
  L 145.96 280.96
  A 10.98 10.17 -90.0 0 0 156.13 269.98
  L 156.13 265.40
  A 10.98 10.17 -90.0 0 0 145.96 254.42
  L 137.47 254.42
  A 0.44 0.44 0.0 0 0 137.03 254.86
  Z"
/>
<rect fill="#ffffff" x="165.83" y="250.49" width="4.62" height="34.32" rx="0.41"/>
<path fill="#ffffff" d="
  M 199.90 281.20
  L 199.90 284.43
  A 0.39 0.39 0.0 0 1 199.51 284.82
  L 177.49 284.82
  A 0.39 0.39 0.0 0 1 177.10 284.43
  L 177.10 250.92
  A 0.39 0.39 0.0 0 1 177.49 250.53
  L 181.29 250.53
  A 0.39 0.39 0.0 0 1 181.68 250.92
  L 181.68 280.42
  A 0.39 0.39 0.0 0 0 182.07 280.81
  L 199.51 280.81
  A 0.39 0.39 0.0 0 1 199.90 281.20
  Z"
/>
<path fill="#ffffff" d="
  M 225.21 266.81
  Q 231.27 269.32 230.58 275.81
  C 229.97 281.49 225.75 284.71 220.24 284.78
  Q 215.70 284.83 204.02 284.81
  A 0.55 0.55 0.0 0 1 203.47 284.26
  L 203.47 251.14
  A 0.56 0.56 0.0 0 1 204.02 250.58
  Q 215.34 250.34 215.73 250.33
  Q 219.57 250.25 223.37 251.14
  C 225.27 251.59 227.54 253.61 228.34 255.48
  Q 231.05 261.88 225.12 266.04
  A 0.44 0.44 0.0 0 0 225.21 266.81
  Z
  M 207.84 254.90
  L 207.92 264.76
  A 0.46 0.46 0.0 0 0 208.39 265.22
  L 218.99 265.13
  A 5.66 5.03 -0.5 0 0 224.60 260.05
  L 224.60 259.33
  A 5.66 5.03 -0.5 0 0 218.89 254.35
  L 208.29 254.44
  A 0.46 0.46 0.0 0 0 207.84 254.90
  Z
  M 207.93 269.22
  L 207.87 280.48
  A 0.45 0.45 0.0 0 0 208.32 280.93
  L 219.82 280.99
  A 6.25 5.79 0.3 0 0 226.10 275.24
  L 226.10 274.66
  A 6.25 5.79 0.3 0 0 219.88 268.84
  L 208.38 268.77
  A 0.45 0.45 0.0 0 0 207.93 269.22
  Z"
/>
<path fill="#ffffff" d="
  M 258.93 254.49
  L 240.64 254.49
  A 0.52 0.52 0.0 0 0 240.12 255.01
  L 240.12 264.68
  A 0.52 0.52 0.0 0 0 240.64 265.20
  L 257.63 265.20
  A 0.52 0.52 0.0 0 1 258.15 265.72
  L 258.15 268.53
  A 0.52 0.52 0.0 0 1 257.63 269.05
  L 240.66 269.05
  A 0.52 0.52 0.0 0 0 240.14 269.57
  L 240.14 280.31
  A 0.52 0.52 0.0 0 0 240.66 280.83
  L 259.16 280.83
  A 0.52 0.52 0.0 0 1 259.68 281.35
  L 259.68 284.31
  A 0.52 0.52 0.0 0 1 259.16 284.83
  L 236.09 284.83
  A 0.52 0.52 0.0 0 1 235.57 284.31
  L 235.57 251.03
  A 0.52 0.52 0.0 0 1 236.09 250.51
  L 258.93 250.51
  A 0.52 0.52 0.0 0 1 259.45 251.03
  L 259.45 253.97
  A 0.52 0.52 0.0 0 1 258.93 254.49
  Z"
/>
<path fill="#ffffff" d="
  M 287.77 250.52
  A 0.66 0.65 0.0 0 1 288.43 251.17
  L 288.44 253.79
  A 0.72 0.71 -89.6 0 1 287.72 254.51
  L 269.70 254.47
  A 0.64 0.63 -90.0 0 0 269.07 255.11
  L 269.14 264.58
  A 0.64 0.63 0.0 0 0 269.78 265.21
  L 286.42 265.19
  A 0.72 0.71 89.6 0 1 287.14 265.91
  L 287.13 268.33
  A 0.74 0.74 0.0 0 1 286.39 269.07
  L 269.65 269.03
  A 0.53 0.53 0.0 0 0 269.12 269.56
  L 269.11 280.28
  A 0.54 0.53 0.0 0 0 269.64 280.81
  L 288.03 280.82
  A 0.60 0.60 0.0 0 1 288.63 281.41
  L 288.65 284.22
  A 0.60 0.59 -90.0 0 1 288.05 284.83
  L 265.11 284.80
  A 0.56 0.56 0.0 0 1 264.55 284.24
  L 264.56 250.85
  A 0.34 0.34 0.0 0 1 264.89 250.51
  L 287.77 250.52
  Z"
/>
</svg>
