<svg width="830" height="163" viewBox="0 0 830 163" fill="none" xmlns="http://www.w3.org/2000/svg">
<path d="M829.248 10.5005C829.248 12.4949 828.427 14.4076 826.964 15.8179C825.501 17.2282 823.517 18.0205 821.448 18.0205C820.424 18.0205 819.41 17.826 818.464 17.448C817.517 17.0701 816.657 16.5162 815.933 15.8179C815.209 15.1196 814.634 14.2906 814.242 13.3782C813.85 12.4659 813.648 11.488 813.648 10.5005C813.648 9.51293 813.85 8.53506 814.242 7.62269C814.634 6.71032 815.209 5.88132 815.933 5.18303C816.657 4.48473 817.517 3.93081 818.464 3.55289C819.41 3.17498 820.424 2.98047 821.448 2.98047C823.517 2.98047 825.501 3.77275 826.964 5.18303C828.427 6.5933 829.248 8.50604 829.248 10.5005ZM827.878 10.5005C827.878 8.80043 827.203 7.17002 826.001 5.96791C824.799 4.76581 823.168 4.09047 821.468 4.09047C819.768 4.09047 818.138 4.76581 816.936 5.96791C815.734 7.17002 815.058 8.80043 815.058 10.5005C815.058 12.2005 815.734 13.8309 816.936 15.033C818.138 16.2351 819.768 16.9105 821.468 16.9105C823.168 16.9105 824.799 16.2351 826.001 15.033C827.203 13.8309 827.878 12.2005 827.878 10.5005Z" fill="white"/>
<path d="M739.131 76.1306C739.226 76.0364 739.339 75.9622 739.463 75.9126C739.587 75.863 739.72 75.8388 739.855 75.8416C739.989 75.8444 740.121 75.8741 740.245 75.9289C740.368 75.9837 740.479 76.0625 740.571 76.1606C749.591 85.9206 764.701 88.3606 777.441 85.9206C787.231 84.0406 795.831 76.6606 793.301 65.9206C791.661 58.9406 781.971 54.8006 775.841 53.1706C764.248 50.0706 756.995 48.0006 754.081 46.9606C750.228 45.5806 746.648 43.404 743.341 40.4306C735.241 33.1406 735.791 20.5906 743.341 13.0706C747.988 8.44396 753.735 5.53729 760.581 4.35063C772.728 2.25063 784.001 4.41063 794.401 10.8306C795.901 11.764 797.081 12.7806 797.941 13.8806C798.024 13.9873 798.065 14.1206 798.055 14.2551C798.046 14.3897 797.988 14.5163 797.891 14.6106L794.011 18.4906C793.844 18.6564 793.621 18.7535 793.386 18.7628C793.151 18.7721 792.921 18.6928 792.741 18.5406C784.441 11.5273 774.285 8.95063 762.271 10.8106C754.621 11.9906 747.251 16.2206 745.521 23.8106C743.141 34.3106 753.341 39.6906 761.991 42.2506C765.198 43.1973 771.641 45.0073 781.321 47.6806C790.001 50.0806 799.981 56.1506 801.131 65.9106C802.225 75.1506 798.728 82.4173 790.641 87.7106C784.071 92.0006 776.061 93.3406 768.131 93.4206C759.771 93.5006 751.775 91.5673 744.141 87.6206C740.835 85.914 737.941 83.7206 735.461 81.0406C735.303 80.8673 735.217 80.6394 735.223 80.4046C735.229 80.1698 735.325 79.9462 735.491 79.7806L739.131 76.1306Z" fill="white"/>
<path d="M86.0017 4.9707C113.715 4.9707 133.635 5.03404 145.762 5.1607C145.841 5.16063 145.919 5.17968 145.989 5.21621C146.059 5.25275 146.119 5.30569 146.164 5.37052C146.209 5.43536 146.238 5.51016 146.248 5.58855C146.258 5.66694 146.249 5.74659 146.222 5.8207L138.652 26.4607C138.497 26.8836 138.221 27.2515 137.858 27.5183C137.495 27.7851 137.062 27.939 136.612 27.9607C136.525 27.9674 119.642 27.9707 85.9617 27.9707C58.2484 27.9707 38.3284 27.9074 26.2017 27.7807C26.1239 27.7802 26.0473 27.7612 25.9783 27.7252C25.9093 27.6892 25.8498 27.6373 25.8049 27.5738C25.7599 27.5102 25.7307 27.4369 25.7197 27.3599C25.7088 27.2828 25.7163 27.2043 25.7417 27.1307L33.3117 6.4907C33.465 6.06591 33.7404 5.69591 34.1034 5.42723C34.4664 5.15856 34.9007 5.0032 35.3517 4.9807C35.4384 4.97404 52.3217 4.9707 86.0017 4.9707Z" fill="white"/>
<path d="M663.498 50.98V84.84C663.498 85.084 663.594 85.318 663.765 85.4905C663.935 85.6631 664.167 85.76 664.408 85.76H724.358C724.594 85.76 724.821 85.8527 724.987 86.0177C725.154 86.1828 725.248 86.4066 725.248 86.64V91.24C725.248 91.537 725.13 91.8219 724.92 92.032C724.71 92.242 724.425 92.36 724.128 92.36H656.438C656.276 92.36 656.121 92.2957 656.007 92.1813C655.892 92.0669 655.828 91.9118 655.828 91.75V5.37C655.828 5.32141 655.838 5.2733 655.856 5.22841C655.875 5.18352 655.902 5.14273 655.936 5.10837C655.971 5.07401 656.012 5.04676 656.057 5.02816C656.101 5.00957 656.15 5 656.198 5H722.958C723.17 5 723.374 5.08323 723.524 5.23139C723.674 5.37954 723.758 5.58048 723.758 5.79V10.44C723.758 10.7583 723.631 11.0635 723.404 11.2885C723.177 11.5136 722.869 11.64 722.548 11.64H664.728C664.402 11.64 664.089 11.7696 663.858 12.0003C663.628 12.2309 663.498 12.5438 663.498 12.87L663.508 42.61C663.508 42.7269 663.531 42.8426 663.575 42.9506C663.619 43.0586 663.684 43.1567 663.766 43.2393C663.848 43.322 663.945 43.3875 664.051 43.4323C664.158 43.477 664.273 43.5 664.388 43.5H710.228C710.785 43.5 711.319 43.7212 711.713 44.1151C712.107 44.5089 712.328 45.043 712.328 45.6V48.13C712.328 48.6949 712.105 49.2367 711.707 49.6361C711.31 50.0356 710.77 50.26 710.208 50.26H664.218C664.027 50.26 663.844 50.3359 663.709 50.4709C663.574 50.6059 663.498 50.789 663.498 50.98Z" fill="white"/>
<path d="M585.572 51.4395C577.252 42.3061 567.428 31.3261 556.102 18.4995C556.066 18.4639 556.02 18.439 555.971 18.4279C555.921 18.4167 555.87 18.4199 555.823 18.4369C555.777 18.4539 555.736 18.4841 555.708 18.5236C555.679 18.5631 555.663 18.6104 555.662 18.6595V91.1895C555.662 91.5979 555.5 91.9896 555.213 92.2784C554.927 92.5672 554.537 92.7295 554.132 92.7295H549.792C549.57 92.7295 549.35 92.6855 549.145 92.6C548.94 92.5146 548.753 92.3894 548.597 92.2315C548.44 92.0737 548.315 91.8863 548.23 91.68C548.145 91.4738 548.102 91.2527 548.102 91.0294V5.98945C548.101 5.83861 548.156 5.69311 548.256 5.58192C548.356 5.47073 548.494 5.40201 548.642 5.38945C550.075 5.25612 551.318 5.22612 552.372 5.29945C553.872 5.41279 555.108 6.04279 556.082 7.18945C565.115 17.8495 576.708 30.9461 590.862 46.4795C599.175 55.6128 608.995 66.5961 620.322 79.4295C620.357 79.4693 620.405 79.4976 620.457 79.5106C620.509 79.5235 620.564 79.5205 620.613 79.5018C620.663 79.4831 620.704 79.4498 620.733 79.4064C620.761 79.3629 620.775 79.3116 620.772 79.2595V6.72945C620.772 6.32102 620.933 5.92931 621.22 5.64051C621.507 5.3517 621.896 5.18945 622.302 5.18945H626.642C627.09 5.18945 627.52 5.36856 627.837 5.68737C628.154 6.00618 628.332 6.43858 628.332 6.88945V91.9295C628.332 92.0803 628.277 92.2258 628.177 92.337C628.077 92.4482 627.939 92.5169 627.792 92.5294C626.358 92.6628 625.115 92.6928 624.062 92.6195C622.562 92.5061 621.325 91.8761 620.352 90.7295C611.318 80.0761 599.725 66.9795 585.572 51.4395Z" fill="white"/>
<path d="M519.673 5.47476L514.053 5.48457C513.495 5.48554 513.044 5.93852 513.045 6.49632L513.193 91.7162C513.194 92.274 513.647 92.7254 514.205 92.7244L519.825 92.7146C520.383 92.7136 520.834 92.2607 520.833 91.7029L520.685 6.48299C520.684 5.92518 520.231 5.47378 519.673 5.47476Z" fill="white"/>
<path d="M327.731 6.47919C327.729 6.40744 327.742 6.33614 327.769 6.26947C327.795 6.20279 327.835 6.14208 327.885 6.09087C327.935 6.03966 327.995 5.99899 328.062 5.97123C328.128 5.94347 328.199 5.92918 328.271 5.92919L366.571 5.79919C380.043 5.75232 392.979 10.2647 402.534 18.3436C412.089 26.4226 417.48 37.4065 417.521 48.8792V49.6792C417.541 55.3605 416.247 60.9908 413.712 66.2486C411.178 71.5065 407.453 76.2888 402.749 80.3227C398.046 84.3565 392.457 87.5628 386.3 89.7584C380.144 91.9541 373.542 93.0961 366.871 93.1192L328.571 93.2492C328.429 93.2492 328.293 93.1937 328.192 93.0946C328.091 92.9955 328.033 92.8607 328.031 92.7192L327.731 6.47919ZM349.761 23.9692L349.841 75.0292C349.841 75.16 349.866 75.2896 349.917 75.4104C349.967 75.5311 350.041 75.6407 350.134 75.7328C350.227 75.8248 350.337 75.8976 350.459 75.9467C350.58 75.9959 350.71 76.0205 350.841 76.0192L365.791 75.9892C373.688 75.9745 381.256 73.1892 386.831 68.2459C392.407 63.3026 395.532 56.6061 395.521 49.6292V49.2092C395.515 45.7536 394.739 42.3332 393.236 39.1433C391.734 35.9534 389.535 33.0564 386.765 30.6179C383.995 28.1793 380.708 26.247 377.092 24.9312C373.476 23.6154 369.602 22.9419 365.691 22.9492L350.741 22.9792C350.48 22.9818 350.23 23.0873 350.047 23.2727C349.863 23.458 349.761 23.7083 349.761 23.9692Z" fill="white"/>
<path d="M444.85 86.2805H497.09C497.315 86.2805 497.531 86.37 497.691 86.5294C497.85 86.6888 497.94 86.905 497.94 87.1305V92.0205C497.94 92.2459 497.85 92.4621 497.691 92.6215C497.531 92.7809 497.315 92.8705 497.09 92.8705H437.19C436.964 92.8705 436.748 92.7809 436.589 92.6215C436.429 92.4621 436.34 92.2459 436.34 92.0205V6.58047C436.34 6.35503 436.429 6.13883 436.589 5.97943C436.748 5.82002 436.964 5.73047 437.19 5.73047H443.15C443.375 5.73047 443.591 5.82002 443.751 5.97943C443.91 6.13883 444 6.35503 444 6.58047V85.4305C444 85.6559 444.089 85.8721 444.249 86.0315C444.408 86.1909 444.624 86.2805 444.85 86.2805Z" fill="white"/>
<path d="M233.219 92.76V6.66C233.219 6.57333 233.236 6.4875 233.269 6.40743C233.302 6.32735 233.351 6.2546 233.412 6.19331C233.473 6.13202 233.546 6.08341 233.626 6.05024C233.706 6.01707 233.792 6 233.879 6H306.829C306.915 6 307.001 6.01707 307.081 6.05024C307.161 6.08341 307.234 6.13202 307.295 6.19331C307.357 6.2546 307.405 6.32735 307.439 6.40743C307.472 6.4875 307.489 6.57333 307.489 6.66V22.6C307.489 22.775 307.419 22.9429 307.295 23.0667C307.172 23.1905 307.004 23.26 306.829 23.26H255.809C255.634 23.26 255.466 23.3295 255.342 23.4533C255.218 23.5771 255.149 23.745 255.149 23.92V39.59C255.149 39.765 255.218 39.9329 255.342 40.0567C255.466 40.1805 255.634 40.25 255.809 40.25H295.579C295.665 40.25 295.751 40.2671 295.831 40.3002C295.911 40.3334 295.984 40.382 296.045 40.4433C296.107 40.5046 296.155 40.5774 296.189 40.6574C296.222 40.7375 296.239 40.8233 296.239 40.91V56.76C296.239 56.8467 296.222 56.9325 296.189 57.0126C296.155 57.0926 296.107 57.1654 296.045 57.2267C295.984 57.288 295.911 57.3366 295.831 57.3698C295.751 57.4029 295.665 57.42 295.579 57.42H255.909C255.734 57.42 255.566 57.4895 255.442 57.6133C255.318 57.7371 255.249 57.905 255.249 58.08V75.59C255.249 75.765 255.318 75.9329 255.442 76.0567C255.566 76.1805 255.734 76.25 255.909 76.25H308.589C308.764 76.25 308.932 76.3195 309.055 76.4433C309.179 76.5671 309.249 76.735 309.249 76.91V92.76C309.249 92.935 309.179 93.1029 309.055 93.2267C308.932 93.3505 308.764 93.42 308.589 93.42H233.879C233.704 93.42 233.536 93.3505 233.412 93.2267C233.288 93.1029 233.219 92.935 233.219 92.76Z" fill="white"/>
<path d="M819.539 14.3895C819.539 14.554 819.472 14.7117 819.354 14.8279C819.236 14.9442 819.076 15.0095 818.909 15.0095H818.609C818.463 15.0095 818.323 14.9526 818.22 14.8514C818.117 14.7501 818.059 14.6127 818.059 14.4695V6.59952C818.059 6.44645 818.118 6.29933 818.224 6.18924C818.331 6.07915 818.476 6.01471 818.629 6.00952C821.369 5.94952 822.899 6.02952 823.219 6.24952C824.465 7.09619 824.912 8.10952 824.559 9.28952C824.519 9.41427 824.451 9.52744 824.359 9.61952L822.909 11.0795C822.868 11.12 822.836 11.1687 822.815 11.2224C822.794 11.2762 822.785 11.3337 822.787 11.3912C822.79 11.4488 822.805 11.5051 822.831 11.5565C822.857 11.6079 822.894 11.6532 822.939 11.6895C823.739 12.3495 824.375 13.2195 824.849 14.2995C824.88 14.3725 824.893 14.4521 824.886 14.5313C824.879 14.6104 824.853 14.6866 824.809 14.753C824.765 14.8194 824.706 14.874 824.636 14.9117C824.566 14.9495 824.488 14.9694 824.409 14.9695H823.969C823.766 14.9691 823.568 14.905 823.405 14.7865C823.241 14.6679 823.12 14.5009 823.059 14.3095C822.692 13.2229 821.992 12.1862 820.959 11.1995C820.839 11.0858 820.69 11.0096 820.527 10.9804C820.365 10.9512 820.198 10.9703 820.047 11.0353C819.896 11.1003 819.767 11.2084 819.676 11.346C819.586 11.4837 819.538 11.6448 819.539 11.8095V14.3895ZM819.519 7.54952V9.42952C819.517 9.50175 819.53 9.57353 819.557 9.64077C819.583 9.70801 819.622 9.76938 819.673 9.82138C819.723 9.87339 819.783 9.915 819.849 9.94385C819.915 9.9727 819.986 9.98822 820.059 9.98952H821.539C821.753 9.99085 821.965 9.95749 822.163 9.89137C822.361 9.82525 822.542 9.72765 822.694 9.60414C822.846 9.48064 822.968 9.33365 823.051 9.17157C823.134 9.00949 823.177 8.8355 823.179 8.65952V8.35952C823.181 8.00414 823.012 7.66226 822.708 7.40908C822.404 7.15591 821.991 7.01218 821.559 7.00952H820.079C820.006 7.00819 819.935 7.02111 819.867 7.04753C819.8 7.07396 819.739 7.11337 819.687 7.16351C819.635 7.21366 819.593 7.27356 819.564 7.33979C819.535 7.40602 819.52 7.47729 819.519 7.54952Z" fill="white"/>
<path d="M219.529 76.48C219.852 76.48 220.163 76.6085 220.391 76.8373C220.62 77.0661 220.749 77.3764 220.749 77.7V92.9C220.749 93.0777 220.678 93.2481 220.553 93.3738C220.427 93.4994 220.256 93.57 220.079 93.57H152.629C152.454 93.57 152.286 93.5005 152.162 93.3767C152.038 93.2529 151.969 93.085 151.969 92.91V6.95C151.969 6.76435 152.042 6.5863 152.174 6.45503C152.305 6.32375 152.483 6.25 152.669 6.25H172.979C173.129 6.25011 173.275 6.30332 173.39 6.40026C173.506 6.49719 173.583 6.63166 173.609 6.78C173.869 8.4 173.999 9.97333 173.999 11.5C173.992 34.6333 173.992 55.81 173.999 75.03C174.001 75.4155 174.156 75.7843 174.43 76.0559C174.703 76.3276 175.073 76.48 175.459 76.48H219.529Z" fill="white"/>
<path d="M133.399 39.3402L125.729 60.4602C125.671 60.6184 125.567 60.755 125.429 60.8516C125.291 60.9482 125.127 61.0001 124.959 61.0002H14.0888C13.9571 61.0001 13.8273 60.9683 13.7105 60.9074C13.5937 60.8465 13.4933 60.7584 13.4178 60.6505C13.3422 60.5426 13.2938 60.418 13.2766 60.2874C13.2593 60.1569 13.2738 60.024 13.3188 59.9002L20.9888 38.7802C21.0463 38.6221 21.151 38.4855 21.2887 38.3889C21.4265 38.2923 21.5906 38.2404 21.7588 38.2402H132.629C132.761 38.2403 132.89 38.2722 133.007 38.3331C133.124 38.394 133.224 38.4821 133.3 38.59C133.375 38.6979 133.424 38.8224 133.441 38.953C133.458 39.0836 133.444 39.2164 133.399 39.3402Z" fill="white"/>
<path d="M0.549457 93.09L8.27946 71.82C8.34107 71.6523 8.45282 71.5076 8.59953 71.4056C8.74624 71.3037 8.92079 71.2493 9.09946 71.25H119.909C120.05 71.2495 120.188 71.2829 120.313 71.3474C120.438 71.412 120.545 71.5057 120.625 71.6207C120.706 71.7356 120.757 71.8684 120.776 72.0075C120.794 72.1467 120.778 72.2882 120.729 72.42L112.999 93.69C112.938 93.8577 112.826 94.0024 112.679 94.1044C112.533 94.2064 112.358 94.2607 112.179 94.26H1.36946C1.22909 94.2606 1.09068 94.2271 0.966033 94.1626C0.841387 94.098 0.734209 94.0043 0.653648 93.8893C0.573087 93.7744 0.521535 93.6417 0.503392 93.5025C0.485249 93.3633 0.501054 93.2218 0.549457 93.09Z" fill="white"/>
<path d="M451.561 151.63C451.577 151.67 451.583 151.712 451.578 151.754C451.574 151.797 451.558 151.837 451.534 151.873C451.509 151.908 451.476 151.938 451.437 151.958C451.398 151.979 451.355 151.99 451.311 151.99H445.391C445.315 151.99 445.24 151.966 445.178 151.922C445.115 151.877 445.067 151.814 445.041 151.74C443.794 148.287 441.714 142.607 438.801 134.7C438.354 133.494 438.227 132.127 438.421 130.6C438.443 130.432 438.524 130.278 438.651 130.166C438.778 130.054 438.941 129.991 439.111 129.99H443.821C443.897 129.99 443.972 129.975 444.043 129.946C444.113 129.917 444.177 129.874 444.231 129.82C444.285 129.767 444.327 129.703 444.357 129.632C444.386 129.562 444.401 129.486 444.401 129.41V118.33C444.401 118.243 444.367 118.159 444.307 118.097C444.247 118.035 444.166 118 444.081 118H436.891C436.814 118 436.74 118.031 436.686 118.085C436.631 118.14 436.601 118.213 436.601 118.29V151.62C436.601 151.716 436.563 151.807 436.495 151.875C436.428 151.942 436.336 151.98 436.241 151.98H430.911C430.815 151.98 430.724 151.942 430.656 151.875C430.589 151.807 430.551 151.716 430.551 151.62V112.66C430.551 112.492 430.617 112.331 430.735 112.211C430.853 112.092 431.013 112.023 431.181 112.02C441.001 111.94 446.571 111.987 447.891 112.16C449.671 112.394 450.571 113.504 450.591 115.49C450.617 117.73 450.614 122.817 450.581 130.75C450.561 133.92 448.031 133.98 445.391 134.02C445.309 134.022 445.228 134.044 445.156 134.084C445.084 134.124 445.023 134.181 444.978 134.25C444.933 134.319 444.905 134.398 444.897 134.479C444.888 134.561 444.9 134.644 444.931 134.72L451.561 151.63Z" fill="white"/>
<path d="M470.999 131.99C471.006 133.11 470.996 133.914 470.969 134.4C470.961 134.562 470.891 134.715 470.771 134.827C470.652 134.939 470.494 135.001 470.329 135H462.199C462.043 135 461.893 135.063 461.782 135.173C461.671 135.284 461.609 135.434 461.609 135.59V145.47C461.609 145.611 461.665 145.746 461.764 145.845C461.864 145.945 461.999 146 462.139 146H472.099C472.224 146 472.343 146.049 472.431 146.135C472.52 146.221 472.569 146.338 472.569 146.46V151.49C472.569 151.626 472.514 151.755 472.417 151.851C472.319 151.947 472.187 152 472.049 152H456.309C456.212 152 456.116 151.982 456.026 151.945C455.936 151.908 455.855 151.854 455.786 151.787C455.717 151.719 455.663 151.638 455.625 151.55C455.588 151.461 455.569 151.366 455.569 151.27C455.569 150.264 455.562 143.844 455.549 132.01C455.542 120.177 455.539 113.757 455.539 112.75C455.538 112.655 455.556 112.559 455.592 112.47C455.628 112.381 455.681 112.3 455.749 112.231C455.817 112.163 455.897 112.108 455.987 112.07C456.076 112.032 456.172 112.012 456.269 112.01L472.009 111.98C472.077 111.98 472.145 111.994 472.208 112.019C472.271 112.045 472.329 112.082 472.377 112.13C472.425 112.177 472.463 112.233 472.49 112.295C472.516 112.357 472.529 112.423 472.529 112.49L472.539 117.52C472.539 117.642 472.49 117.759 472.401 117.846C472.313 117.932 472.194 117.98 472.069 117.98L462.109 118C462.04 118 461.971 118.014 461.906 118.041C461.842 118.067 461.784 118.106 461.734 118.156C461.685 118.205 461.646 118.263 461.619 118.328C461.593 118.392 461.579 118.461 461.579 118.53L461.599 128.41C461.599 128.567 461.661 128.717 461.772 128.828C461.883 128.938 462.033 129 462.189 129L470.319 128.99C470.484 128.99 470.642 129.052 470.761 129.164C470.881 129.276 470.951 129.429 470.959 129.59C470.986 130.077 470.999 130.877 470.999 131.99Z" fill="white"/>
<path d="M476.551 112.511C476.551 112.367 476.608 112.23 476.709 112.129C476.81 112.028 476.948 111.971 477.091 111.971H489.091C491.234 111.971 493.289 112.855 494.804 114.428C496.32 116.002 497.171 118.136 497.171 120.361V143.641C497.171 144.742 496.962 145.833 496.556 146.851C496.15 147.869 495.555 148.794 494.804 149.573C494.054 150.352 493.163 150.97 492.183 151.392C491.203 151.814 490.152 152.031 489.091 152.031H477.091C476.948 152.031 476.81 151.974 476.709 151.873C476.608 151.771 476.551 151.634 476.551 151.491V112.511ZM482.601 118.371V145.611C482.601 145.719 482.644 145.824 482.721 145.901C482.798 145.978 482.902 146.021 483.011 146.021H487.661C488.515 146.021 489.334 145.681 489.938 145.078C490.542 144.474 490.881 143.655 490.881 142.801V121.181C490.881 120.327 490.542 119.508 489.938 118.904C489.334 118.3 488.515 117.961 487.661 117.961H483.011C482.902 117.961 482.798 118.004 482.721 118.081C482.644 118.158 482.601 118.262 482.601 118.371Z" fill="white"/>
<path d="M502.549 132C502.542 120.174 502.539 113.754 502.539 112.74C502.539 112.644 502.558 112.549 502.595 112.461C502.633 112.372 502.687 112.292 502.756 112.224C502.824 112.156 502.906 112.102 502.996 112.066C503.086 112.029 503.182 112.01 503.279 112.01L519.009 111.99C519.077 111.99 519.145 112.003 519.208 112.029C519.271 112.055 519.328 112.092 519.377 112.14C519.425 112.187 519.463 112.243 519.489 112.305C519.516 112.367 519.529 112.433 519.529 112.5L519.539 117.53C519.539 117.652 519.49 117.769 519.401 117.855C519.313 117.942 519.194 117.99 519.069 117.99L509.109 118C509.039 118 508.971 118.014 508.906 118.041C508.842 118.067 508.783 118.106 508.734 118.155C508.685 118.205 508.646 118.263 508.619 118.327C508.593 118.392 508.579 118.461 508.579 118.53L508.599 128.41C508.599 128.567 508.661 128.717 508.772 128.827C508.882 128.938 509.033 129 509.189 129L517.319 128.99C517.484 128.99 517.642 129.052 517.761 129.164C517.881 129.276 517.951 129.428 517.959 129.59C517.986 130.077 517.999 130.877 517.999 131.99C517.999 133.11 517.986 133.914 517.959 134.4C517.951 134.562 517.881 134.715 517.761 134.827C517.642 134.938 517.484 135.001 517.319 135H509.189C509.033 135 508.882 135.062 508.772 135.173C508.661 135.284 508.599 135.434 508.599 135.59V145.47C508.599 145.611 508.655 145.746 508.754 145.845C508.854 145.944 508.988 146 509.129 146H519.089C519.214 146 519.333 146.049 519.421 146.135C519.51 146.221 519.559 146.338 519.559 146.46V151.49C519.559 151.626 519.504 151.755 519.407 151.851C519.309 151.947 519.177 152 519.039 152L503.299 151.99C503.202 151.99 503.106 151.971 503.016 151.935C502.926 151.898 502.844 151.844 502.776 151.776C502.707 151.709 502.653 151.628 502.615 151.54C502.578 151.451 502.559 151.356 502.559 151.26C502.559 150.254 502.556 143.834 502.549 132Z" fill="white"/>
<path d="M538.741 129.39V134.6C538.741 134.703 538.7 134.803 538.627 134.876C538.553 134.949 538.454 134.99 538.351 134.99H529.991C529.887 134.99 529.788 135.031 529.715 135.104C529.642 135.177 529.601 135.277 529.601 135.38V151.6C529.601 151.703 529.56 151.803 529.487 151.876C529.413 151.949 529.314 151.99 529.211 151.99H523.941C523.89 151.99 523.839 151.98 523.792 151.96C523.744 151.941 523.701 151.912 523.665 151.876C523.629 151.84 523.6 151.797 523.581 151.749C523.561 151.702 523.551 151.651 523.551 151.6V112.39C523.551 112.287 523.592 112.187 523.665 112.114C523.738 112.041 523.837 112 523.941 112H540.021C540.124 112 540.223 112.041 540.297 112.114C540.37 112.187 540.411 112.287 540.411 112.39V117.61C540.411 117.713 540.37 117.813 540.297 117.886C540.223 117.959 540.124 118 540.021 118H529.991C529.887 118 529.788 118.041 529.715 118.114C529.642 118.187 529.601 118.287 529.601 118.39V128.61C529.601 128.713 529.642 128.813 529.715 128.886C529.788 128.959 529.887 129 529.991 129H538.351C538.454 129 538.553 129.041 538.627 129.114C538.7 129.187 538.741 129.287 538.741 129.39Z" fill="white"/>
<path d="M550.342 112H544.982C544.772 112 544.602 112.17 544.602 112.38V151.6C544.602 151.81 544.772 151.98 544.982 151.98H550.342C550.551 151.98 550.722 151.81 550.722 151.6V112.38C550.722 112.17 550.551 112 550.342 112Z" fill="white"/>
<path d="M561.441 128.07V151.64C561.441 151.686 561.432 151.732 561.414 151.774C561.397 151.817 561.371 151.855 561.338 151.888C561.306 151.92 561.267 151.946 561.225 151.964C561.182 151.981 561.137 151.99 561.091 151.99H555.901C555.855 151.99 555.809 151.981 555.767 151.963C555.724 151.945 555.686 151.918 555.653 151.885C555.621 151.851 555.595 151.812 555.577 151.768C555.56 151.724 555.551 151.678 555.551 151.63V112.63C555.551 112.461 555.617 112.298 555.735 112.178C555.853 112.058 556.014 111.99 556.181 111.99H560.421C560.588 111.99 560.751 112.04 560.889 112.135C561.026 112.229 561.132 112.364 561.191 112.52L570.151 135.36C570.16 135.39 570.18 135.415 570.206 135.43C570.232 135.445 570.263 135.451 570.294 135.445C570.324 135.439 570.353 135.422 570.374 135.398C570.396 135.373 570.409 135.342 570.411 135.31V112.33C570.411 112.243 570.446 112.159 570.507 112.097C570.569 112.035 570.653 112 570.741 112H576.091C576.173 112 576.252 112.033 576.31 112.091C576.368 112.149 576.401 112.228 576.401 112.31V151.49C576.401 151.623 576.347 151.75 576.251 151.844C576.156 151.938 576.026 151.99 575.891 151.99H571.521C571.365 151.991 571.212 151.943 571.082 151.854C570.952 151.765 570.851 151.638 570.791 151.49L561.591 128.05C561.586 128.031 561.572 128.013 561.555 128.001C561.537 127.989 561.516 127.984 561.496 127.986C561.476 127.989 561.459 127.999 561.449 128.015C561.438 128.031 561.435 128.051 561.441 128.07Z" fill="white"/>
<path d="M581.549 132C581.542 120.174 581.539 113.754 581.539 112.74C581.539 112.644 581.558 112.549 581.595 112.461C581.633 112.372 581.687 112.292 581.756 112.224C581.825 112.156 581.906 112.102 581.996 112.066C582.086 112.029 582.182 112.01 582.279 112.01L598.009 111.99C598.077 111.99 598.145 112.003 598.208 112.029C598.271 112.055 598.328 112.092 598.377 112.14C598.425 112.187 598.463 112.243 598.49 112.305C598.516 112.367 598.529 112.433 598.529 112.5L598.539 117.53C598.539 117.652 598.49 117.769 598.401 117.855C598.313 117.942 598.194 117.99 598.069 117.99L588.109 118C587.969 118 587.834 118.056 587.734 118.155C587.635 118.255 587.579 118.39 587.579 118.53L587.599 128.41C587.599 128.567 587.661 128.717 587.772 128.827C587.883 128.938 588.033 129 588.189 129L596.319 128.99C596.484 128.99 596.642 129.052 596.761 129.164C596.881 129.276 596.951 129.428 596.959 129.59C596.986 130.077 596.999 130.877 596.999 131.99C596.999 133.11 596.986 133.914 596.959 134.4C596.951 134.562 596.881 134.715 596.761 134.827C596.642 134.938 596.484 135.001 596.319 135H588.189C588.033 135 587.883 135.062 587.772 135.173C587.661 135.284 587.599 135.434 587.599 135.59V145.47C587.599 145.611 587.655 145.746 587.754 145.845C587.854 145.944 587.989 146 588.129 146H598.089C598.214 146 598.333 146.049 598.421 146.135C598.51 146.221 598.559 146.338 598.559 146.46V151.49C598.559 151.626 598.504 151.755 598.407 151.851C598.309 151.947 598.177 152 598.039 152L582.299 151.99C582.202 151.99 582.106 151.971 582.016 151.935C581.926 151.898 581.845 151.844 581.776 151.776C581.707 151.709 581.653 151.628 581.615 151.54C581.578 151.451 581.559 151.356 581.559 151.26C581.559 150.254 581.556 143.834 581.549 132Z" fill="white"/>
<path d="M630.741 146.44V151.55C630.741 151.667 630.694 151.779 630.612 151.861C630.529 151.944 630.417 151.99 630.301 151.99H614.991C614.874 151.99 614.762 151.944 614.68 151.861C614.597 151.779 614.551 151.667 614.551 151.55V112.44C614.551 112.323 614.597 112.211 614.68 112.129C614.762 112.046 614.874 112 614.991 112H620.161C620.277 112 620.389 112.046 620.472 112.129C620.554 112.211 620.601 112.323 620.601 112.44V145.56C620.601 145.677 620.647 145.789 620.73 145.871C620.812 145.954 620.924 146 621.041 146H630.301C630.417 146 630.529 146.046 630.612 146.129C630.694 146.211 630.741 146.323 630.741 146.44Z" fill="white"/>
<path d="M640.342 112H634.982C634.772 112 634.602 112.17 634.602 112.38V151.6C634.602 151.81 634.772 151.98 634.982 151.98H640.342C640.551 151.98 640.722 151.81 640.722 151.6V112.38C640.722 112.17 640.551 112 640.342 112Z" fill="white"/>
<path d="M656.809 135.99C656.717 135.99 656.626 135.972 656.541 135.937C656.456 135.902 656.379 135.85 656.314 135.785C656.249 135.72 656.197 135.643 656.162 135.558C656.127 135.473 656.109 135.382 656.109 135.29V130.88C656.109 130.644 656.202 130.418 656.369 130.251C656.536 130.084 656.762 129.99 656.999 129.99H666.369C666.455 129.99 666.54 130.007 666.62 130.041C666.699 130.074 666.771 130.123 666.832 130.184C666.892 130.246 666.94 130.318 666.972 130.398C667.004 130.478 667.02 130.564 667.019 130.65C666.985 132.304 666.992 137.877 667.038 147.37C667.048 150.47 666.019 151.96 662.759 151.98C655.472 152.04 651.002 152.017 649.348 151.91C648.122 151.83 647.202 151.154 646.589 149.88C646.464 149.631 646.399 149.357 646.399 149.08C646.392 138.854 646.392 128.647 646.399 118.46C646.399 115.18 645.869 113.16 648.919 112.15C649.177 112.064 649.45 112.017 649.728 112.01C657.975 111.97 662.709 111.99 663.929 112.07C665.949 112.2 666.958 113.78 666.978 116.03C667.005 118.844 667.015 121.34 667.009 123.52C667.006 123.648 666.953 123.771 666.861 123.86C666.77 123.95 666.647 124 666.519 124H661.179C661.062 124 660.95 123.954 660.867 123.871C660.785 123.789 660.739 123.677 660.739 123.56V119.06C660.739 118.776 660.625 118.504 660.422 118.304C660.22 118.103 659.945 117.99 659.658 117.99H653.779C653.466 117.99 653.165 118.115 652.944 118.336C652.723 118.557 652.598 118.857 652.598 119.17V145.7C652.598 145.78 652.629 145.856 652.683 145.912C652.738 145.969 652.812 146 652.889 146H660.439C660.515 146 660.589 145.969 660.644 145.912C660.698 145.856 660.728 145.78 660.728 145.7V136.51C660.728 136.372 660.674 136.24 660.576 136.143C660.479 136.045 660.346 135.99 660.209 135.99H656.809Z" fill="white"/>
<path d="M681.868 128C683.842 128 685.025 127.99 685.418 127.97C685.594 127.96 685.76 127.884 685.88 127.757C686.001 127.631 686.068 127.464 686.068 127.29V112.45C686.068 112.331 686.117 112.216 686.203 112.132C686.289 112.047 686.406 112 686.528 112H691.788C691.908 112 692.022 112.047 692.107 112.132C692.191 112.216 692.238 112.331 692.238 112.45V151.55C692.238 151.669 692.191 151.784 692.107 151.868C692.022 151.953 691.908 152 691.788 152L686.538 151.99C686.414 151.99 686.294 151.942 686.206 151.855C686.118 151.769 686.068 151.652 686.068 151.53V134.4C686.068 134.296 686.026 134.195 685.952 134.121C685.877 134.046 685.775 134.003 685.668 134C685.375 134 684.108 134 681.868 134C679.628 134 678.362 134 678.068 134C677.961 134.003 677.86 134.046 677.785 134.121C677.71 134.195 677.668 134.296 677.668 134.4L677.658 151.53C677.658 151.652 677.609 151.769 677.521 151.855C677.432 151.942 677.313 151.99 677.188 151.99L671.938 152C671.819 152 671.705 151.953 671.62 151.868C671.536 151.784 671.488 151.669 671.488 151.55L671.508 112.45C671.508 112.331 671.556 112.216 671.64 112.132C671.724 112.047 671.839 112 671.958 112H677.218C677.34 112 677.457 112.047 677.544 112.132C677.63 112.216 677.678 112.331 677.678 112.45L677.668 127.29C677.668 127.465 677.737 127.634 677.86 127.761C677.983 127.887 678.151 127.962 678.328 127.97C678.722 127.99 679.902 128 681.868 128Z" fill="white"/>
<path d="M705.502 111.999C709.742 111.993 712.922 111.996 715.042 112.009C715.138 112.012 715.23 112.051 715.297 112.118C715.364 112.186 715.402 112.276 715.402 112.369V117.629C715.402 117.677 715.392 117.724 715.374 117.767C715.356 117.811 715.33 117.851 715.296 117.884C715.263 117.917 715.223 117.944 715.179 117.962C715.136 117.98 715.089 117.989 715.042 117.989H709.202C709.123 117.989 709.045 118.005 708.972 118.035C708.899 118.065 708.833 118.109 708.777 118.165C708.722 118.221 708.677 118.287 708.647 118.36C708.617 118.433 708.602 118.511 708.602 118.589V151.549C708.6 151.642 708.567 151.73 708.506 151.8C708.446 151.869 708.363 151.915 708.272 151.929C707.998 151.976 707.075 151.999 705.502 151.999C703.928 151.999 703.005 151.976 702.732 151.929C702.641 151.915 702.557 151.869 702.497 151.8C702.437 151.73 702.403 151.642 702.402 151.549V118.589C702.402 118.43 702.338 118.278 702.226 118.165C702.113 118.053 701.961 117.989 701.802 117.989H695.962C695.866 117.989 695.775 117.951 695.707 117.884C695.64 117.816 695.602 117.725 695.602 117.629V112.369C695.602 112.276 695.639 112.186 695.706 112.118C695.774 112.051 695.865 112.012 695.962 112.009C698.082 111.996 701.262 111.993 705.502 111.999Z" fill="white"/>
<path d="M409.751 133.57V139.43C409.751 139.518 409.717 139.602 409.655 139.664C409.593 139.725 409.509 139.76 409.421 139.76H145.661C145.605 139.759 145.549 139.743 145.501 139.714C145.452 139.684 145.411 139.643 145.383 139.594C145.355 139.545 145.34 139.489 145.34 139.432C145.339 139.376 145.354 139.32 145.381 139.27L148.751 133.41C148.78 133.359 148.822 133.315 148.873 133.286C148.924 133.256 148.982 133.24 149.041 133.24H409.421C409.509 133.24 409.593 133.275 409.655 133.337C409.717 133.399 409.751 133.483 409.751 133.57Z" fill="white"/>
<path d="M726.02 139.38V133.62C726.02 133.519 726.06 133.423 726.131 133.352C726.202 133.28 726.299 133.24 726.4 133.24H791.87C791.936 133.24 792.002 133.258 792.06 133.291C792.118 133.324 792.166 133.372 792.199 133.43C792.233 133.488 792.25 133.553 792.25 133.62C792.25 133.687 792.233 133.752 792.2 133.81L788.88 139.57C788.846 139.628 788.798 139.676 788.74 139.71C788.682 139.743 788.616 139.76 788.549 139.76H726.4C726.299 139.76 726.202 139.72 726.131 139.649C726.06 139.578 726.02 139.481 726.02 139.38Z" fill="white"/>
</svg>
