<?xml version="1.0" encoding="UTF-8"?><svg id="Layer_2" xmlns="http://www.w3.org/2000/svg" viewBox="0 0 321.11 106.73"><g id="Layer_1-2"><g><g><path d="M37.64,39.57c0-.72-.23-1.13-.67-1.22-.45-.1-1.03-.14-1.74-.14H1.42v-1.29c1.42,0,2.13-.43,2.13-1.29V3.02c0-.86-.71-1.29-2.13-1.29V.43H13.64V1.72c-1.33,0-1.99,.43-1.99,1.29V31.6h23.58c.71,0,1.29-.17,1.74-.5,.45-.33,.67-.79,.67-1.36h1.28v9.84h-1.28Z" fill="#fff"/><path d="M39.45,36.91c1.23,0,1.85-.43,1.85-1.29V3.02c0-.86-.62-1.29-1.85-1.29V.43h11.79V1.72c-1.23,0-1.85,.43-1.85,1.29V35.62c0,.86,.61,1.29,1.85,1.29v1.29h-11.79v-1.29Z" fill="#fff"/><path d="M52.7,36.91c.38,0,.71-.11,.99-.32,.28-.22,.43-.54,.43-.97V2.87c0-.43-.14-.73-.43-.9-.28-.17-.62-.25-.99-.25V.43h13.28V1.72c-.24,0-.49,.07-.75,.22-.26,.14-.39,.36-.39,.65,0,.24,.09,.55,.28,.93,.19,.38,.4,.79,.64,1.22l10.16,18.67,10.23-18.45c.33-.62,.58-1.11,.75-1.47,.17-.36,.25-.68,.25-.97,0-.53-.31-.79-.92-.79V.43h13.14V1.72c-.38,0-.71,.08-.99,.25-.28,.17-.43,.47-.43,.9V35.62c0,.43,.14,.75,.43,.97,.28,.22,.61,.32,.99,.32v1.29h-11.15v-1.29c1.28,0,1.92-.43,1.92-1.29V11.78h-.14l-14.27,26.43h-.21l-13.99-26.5h-.14v23.91c0,.86,.66,1.29,1.99,1.29v1.29h-10.65v-1.29Z" fill="#fff"/><path d="M124.99,.43c2.18,0,4.28,.18,6.32,.54,2.04,.36,3.84,.93,5.4,1.72,1.56,.79,2.82,1.82,3.76,3.09,.95,1.27,1.42,2.84,1.42,4.7,0,2.25-.69,3.99-2.06,5.21-1.37,1.22-3.01,2.17-4.9,2.84v.14c2.23,.67,4.11,1.74,5.65,3.2,1.54,1.46,2.31,3.55,2.31,6.28,0,1.44-.31,2.76-.92,3.99-.62,1.22-1.53,2.29-2.73,3.2-1.21,.91-2.69,1.62-4.44,2.12-1.75,.5-3.74,.75-5.97,.75h-26.06v-1.29c1.32,0,1.99-.43,1.99-1.29V3.02c0-.86-.66-1.29-1.99-1.29V.43h22.23Zm1.42,14.79c2.13,0,3.89-.27,5.29-.83,1.4-.55,2.1-1.71,2.1-3.48s-.7-2.93-2.1-3.48c-1.4-.55-3.16-.83-5.29-.83h-13.56V15.22h13.56Zm0,16.37c2.98,0,5.12-.47,6.43-1.4,1.3-.93,1.95-2.17,1.95-3.7s-.65-2.76-1.95-3.7c-1.3-.93-3.44-1.4-6.43-1.4h-13.56v10.2h13.56Z" fill="#fff"/><path d="M167.03,0c2.6,0,5.25,.4,7.95,1.18,2.7,.79,5.16,1.97,7.39,3.55,2.22,1.58,4.05,3.58,5.47,6,1.42,2.42,2.13,5.28,2.13,8.58s-.71,6.16-2.13,8.58c-1.42,2.42-3.24,4.42-5.47,6-2.23,1.58-4.69,2.73-7.39,3.45-2.7,.72-5.35,1.08-7.95,1.08s-5.26-.36-7.95-1.08-5.16-1.87-7.39-3.45c-2.23-1.58-4.05-3.58-5.47-6-1.42-2.42-2.13-5.28-2.13-8.58s.71-6.16,2.13-8.58c1.42-2.42,3.24-4.42,5.47-6,2.23-1.58,4.69-2.76,7.39-3.55,2.7-.79,5.35-1.18,7.95-1.18Zm0,6.61c-1.8,0-3.6,.29-5.4,.86-1.8,.57-3.42,1.4-4.86,2.48-1.44,1.08-2.62,2.41-3.52,3.99-.9,1.58-1.35,3.37-1.35,5.39s.45,3.81,1.35,5.39c.9,1.58,2.07,2.91,3.52,3.99,1.44,1.08,3.06,1.9,4.86,2.48s3.6,.86,5.4,.86,3.6-.29,5.4-.86,3.42-1.4,4.87-2.48c1.44-1.08,2.62-2.41,3.52-3.99,.9-1.58,1.35-3.37,1.35-5.39s-.45-3.81-1.35-5.39c-.9-1.58-2.07-2.91-3.52-3.99s-3.07-1.9-4.87-2.48c-1.8-.57-3.6-.86-5.4-.86Z" fill="#fff"/><path d="M202.26,1.72c-1.04,0-1.56,.43-1.56,1.29V24.56c0,3.02,.96,5.09,2.88,6.21,1.92,1.13,4.72,1.69,8.42,1.69s6.5-.56,8.42-1.69c1.92-1.12,2.88-3.2,2.88-6.21V3.02c0-.86-.71-1.29-2.13-1.29V.43h11.36V1.72c-1.14,0-1.7,.43-1.7,1.29V24.2c0,2.83-.4,5.16-1.21,7-.81,1.84-2.01,3.32-3.62,4.42-1.61,1.1-3.61,1.84-6,2.23-2.39,.38-5.15,.57-8.27,.57s-5.88-.19-8.27-.57c-2.39-.38-4.39-1.12-6-2.23-1.61-1.1-2.82-2.57-3.62-4.42-.8-1.84-1.21-4.18-1.21-7V3.02c0-.86-.66-1.29-1.99-1.29V.43h11.65V1.72Z" fill="#fff"/><path d="M258.44,.43c2.27,0,4.33,.2,6.18,.61,1.85,.41,3.43,1.05,4.76,1.94,1.33,.89,2.34,2.04,3.05,3.45,.71,1.41,1.07,3.15,1.07,5.21,0,3.16-.92,5.58-2.77,7.25-1.85,1.68-4.33,2.8-7.46,3.37l9.45,13.64c.33,.48,.72,.77,1.17,.86,.45,.1,.86,.14,1.24,.14v1.29h-13.28v-1.29c.43,0,.79-.07,1.1-.22,.31-.14,.46-.33,.46-.57s-.09-.51-.28-.83c-.19-.31-.47-.73-.85-1.26l-7.81-11.2h-10.16v12.78c0,.43,.15,.75,.46,.97,.31,.22,.86,.32,1.67,.32v1.29h-12.29v-1.29c1.37,0,2.06-.43,2.06-1.29V3.02c0-.86-.69-1.29-2.06-1.29V.43h24.29Zm-1.85,16.8c1.7,0,3.13-.13,4.26-.4,1.14-.26,2.03-.63,2.7-1.11,.66-.48,1.14-1.04,1.42-1.69,.28-.65,.43-1.35,.43-2.12s-.14-1.47-.43-2.12c-.28-.65-.76-1.21-1.42-1.69-.66-.48-1.56-.85-2.7-1.11-1.14-.26-2.56-.4-4.26-.4h-12.29v10.63h12.29Z" fill="#fff"/><path d="M311.13,12.06l-1.42-.43c.09-.29,.14-.57,.14-.86,0-.72-.44-1.36-1.31-1.94-.88-.57-1.99-1.06-3.34-1.47-1.35-.41-2.82-.71-4.4-.9-1.59-.19-3.09-.29-4.51-.29-1.75,0-3.49,.25-5.22,.75s-3.27,1.28-4.62,2.33c-1.35,1.05-2.44,2.42-3.27,4.09-.83,1.68-1.24,3.71-1.24,6.1s.41,4.37,1.24,6.07c.83,1.7,1.92,3.08,3.27,4.13,1.35,1.05,2.89,1.83,4.62,2.33s3.47,.75,5.22,.75c2.7,0,5.13-.23,7.28-.68,2.15-.45,3.99-.94,5.5-1.47v-6.18h-9.09c-.66,0-1.16,.14-1.49,.43-.33,.29-.54,.91-.64,1.87h-1.28v-9.19h1.28c.09,.81,.31,1.33,.64,1.54,.33,.22,.83,.32,1.49,.32h17.76v1.29c-.95,.14-1.54,.31-1.78,.5-.24,.19-.35,.6-.35,1.22v8.11c0,.48,.14,.79,.43,.93,.28,.14,.61,.31,.99,.5v1.15c-1.56,1.1-3.21,2.01-4.94,2.73-1.73,.72-3.48,1.28-5.26,1.69-1.77,.41-3.55,.66-5.33,.75-1.77,.1-3.52,.14-5.22,.14-3.31,0-6.33-.42-9.06-1.26-2.72-.84-5.05-2.08-6.99-3.73-1.94-1.65-3.45-3.66-4.51-6.03-1.07-2.37-1.6-5.06-1.6-8.08s.53-5.71,1.6-8.08c1.06-2.37,2.57-4.39,4.51-6.07,1.94-1.68,4.27-2.96,6.99-3.84,2.72-.89,5.74-1.33,9.06-1.33,2.08,0,4.07,.14,5.97,.43,1.89,.29,3.57,.61,5.04,.97,1.47,.36,2.69,.69,3.66,1.01,.97,.31,1.57,.47,1.81,.47,.43,0,.76-.1,.99-.29,.24-.19,.47-.36,.71-.5l.85,.5-4.19,9.48Z" fill="#fff"/></g><path d="M320.43,71.65H.68v-22.56H320.43v22.56ZM5.48,67.82h7.72c.33,0,1-.07,2-.2,.76-.1,1.32-.26,1.7-.47,.61-.35,1.08-.82,1.43-1.42,.35-.6,.52-1.27,.52-2.02,0-.92-.25-1.69-.74-2.3-.49-.61-1.26-1.04-2.3-1.29,.68-.24,1.2-.56,1.56-.97,.53-.61,.8-1.35,.8-2.2,0-1.02-.37-1.88-1.12-2.57s-1.82-1.04-3.21-1.04H5.48v14.48Zm4.51-11.55h1.98c.68,0,1.15,.12,1.43,.36s.41,.57,.41,.99c0,.45-.14,.8-.41,1.04-.27,.24-.76,.36-1.46,.36h-1.95v-2.75Zm0,5.5h2.27c.78,0,1.33,.13,1.64,.39,.31,.26,.47,.6,.47,1.03,0,.46-.16,.83-.47,1.1-.32,.27-.86,.41-1.63,.41h-2.28v-2.93Zm15.6,6.04h4.48v-14.48h-4.48v14.48Zm11.89,0h12.21v-3.28h-7.72v-2.85h6.96v-2.95h-6.96v-2.3h7.51v-3.09h-11.99v14.48Zm23.38,0v-5.88h.4c.41,0,.77,.11,1.1,.34,.24,.17,.51,.54,.81,1.12l2.39,4.42h5.06l-2.17-4.2c-.11-.21-.31-.51-.63-.9-.31-.39-.55-.64-.72-.76-.24-.18-.63-.36-1.16-.53,.67-.15,1.19-.34,1.57-.57,.6-.36,1.07-.83,1.41-1.42,.34-.58,.51-1.28,.51-2.08,0-.92-.22-1.7-.67-2.35s-1.04-1.08-1.77-1.32-1.79-.36-3.17-.36h-7.46v14.48h4.49Zm0-11.56h1.97c.82,0,1.37,.13,1.67,.38,.3,.25,.44,.61,.44,1.08,0,.32-.09,.6-.28,.84-.19,.24-.43,.4-.73,.45-.59,.13-.98,.2-1.19,.2h-1.89v-2.94Zm15.41,11.56h4.47v-5.86h4.89v5.86h4.49v-14.48h-4.49v5.07h-4.89v-5.07h-4.47v14.48Zm30.66,0h4.69l-5.44-14.48h-4.88l-5.44,14.48h4.57l.71-2.39h5.08l.72,2.39Zm-4.83-5.52l1.58-5.21,1.6,5.21h-3.18Zm15.18,5.52h4.21v-7.95l5.42,7.95h4.22v-14.48h-4.22v8.01l-5.45-8.01h-4.18v14.48Zm21.09,0h6.65c.8,0,1.69-.13,2.67-.4,.72-.19,1.39-.57,2.01-1.15,.63-.58,1.11-1.29,1.47-2.14,.35-.85,.53-2.05,.53-3.6,0-.99-.12-1.92-.36-2.81-.24-.88-.62-1.66-1.15-2.32-.53-.66-1.19-1.18-2-1.53s-1.86-.53-3.18-.53h-6.65v14.48Zm5.59-11.2c1.16,0,1.99,.28,2.49,.85,.5,.57,.75,1.62,.75,3.15,0,1.16-.11,2-.34,2.51-.22,.52-.53,.88-.93,1.09s-1.06,.31-2,.31h-1.1v-7.91h1.12Zm14.28,11.2h12.21v-3.28h-7.72v-2.85h6.96v-2.95h-6.96v-2.3h7.51v-3.09h-11.99v14.48Zm18.83,0h11.46v-3.57h-6.98v-10.91h-4.47v14.48Zm16.68-3.56h5.85v-3.11h-5.85v3.11Zm12.04,3.85h6.65c.8,0,1.69-.13,2.67-.4,.72-.19,1.39-.57,2.01-1.15s1.11-1.29,1.47-2.14,.53-2.05,.53-3.6c0-.99-.12-1.92-.36-2.81s-.62-1.66-1.15-2.32-1.19-1.18-2-1.53-1.86-.53-3.18-.53h-6.65v14.48Zm5.59-11.2c1.16,0,1.99,.28,2.49,.85s.75,1.62,.75,3.15c0,1.16-.11,2-.34,2.51s-.53,.88-.93,1.09-1.06,.31-2,.31h-1.1v-7.91h1.12Zm18.84,11.2v-5.88h.4c.41,0,.77,.11,1.1,.34,.24,.17,.51,.54,.81,1.12l2.39,4.42h5.06l-2.17-4.2c-.1-.21-.31-.51-.63-.9-.31-.39-.55-.64-.72-.76-.24-.18-.63-.36-1.16-.53,.67-.15,1.19-.34,1.57-.57,.6-.36,1.07-.83,1.41-1.42s.51-1.28,.51-2.08c0-.92-.22-1.7-.67-2.35s-1.04-1.08-1.77-1.32-1.79-.36-3.17-.36h-7.46v14.48h4.49Zm0-11.56h1.97c.82,0,1.37,.12,1.67,.38s.44,.61,.44,1.08c0,.32-.09,.6-.28,.84s-.43,.4-.73,.45c-.59,.13-.98,.2-1.19,.2h-1.89v-2.94Zm15.57,11.56h4.48v-14.48h-4.48v14.48Zm11.93,0h4.21v-7.95l5.42,7.95h4.22v-14.48h-4.22v8.01l-5.45-8.01h-4.18v14.48Zm21.05,0h4.47v-3.53l2.31-2.42,3.05,5.95h5.51l-5.52-9.01,5.28-5.47h-5.95l-4.69,5.47v-5.47h-4.47v14.48Zm21.87-1.18c.95,.95,2.65,1.42,5.12,1.42,1.4,0,2.57-.2,3.49-.61s1.64-1,2.15-1.78,.77-1.64,.77-2.57c0-.79-.19-1.5-.58-2.14s-1-1.17-1.85-1.6-2.25-.86-4.2-1.28c-.79-.16-1.29-.34-1.5-.53-.22-.18-.33-.39-.33-.62,0-.32,.13-.58,.4-.8s.65-.33,1.18-.33c.63,0,1.13,.15,1.49,.44s.59,.77,.71,1.42l4.22-.25c-.18-1.5-.76-2.6-1.73-3.28s-2.38-1.03-4.23-1.03c-1.51,0-2.69,.19-3.56,.57s-1.51,.9-1.95,1.56-.65,1.36-.65,2.11c0,1.13,.42,2.06,1.26,2.8,.84,.73,2.24,1.32,4.2,1.76,1.2,.26,1.96,.54,2.29,.84s.49,.63,.49,1.01c0,.4-.17,.74-.52,1.04s-.84,.45-1.48,.45c-.86,0-1.51-.29-1.98-.88-.28-.36-.47-.89-.56-1.58l-4.26,.27c.13,1.46,.66,2.67,1.61,3.61Z" fill="#fff"/><g><g><line y1="94.17" x2="106.41" y2="94.17" fill="none" stroke="#fff" stroke-width="3.03"/><line x1="214.7" y1="94.17" x2="321.11" y2="94.17" fill="none" stroke="#fff" stroke-width="3.03"/></g><g><path d="M142.45,78.94v1.34c0,.55-.11,.9-.33,1.05-.22,.15-1.01,.53-2.39,1.17-1.38,.63-2.7,1.38-3.96,2.23,.49-.71,.93-1.24,1.33-1.58,.4-.34,.94-.77,1.63-1.28-.59-.24-1.42-.36-2.47-.36-1.63,0-3.39,.32-5.28,.97-1.89,.65-3.5,1.42-4.82,2.31-1.32,.9-1.99,1.65-1.99,2.25,0,.32,.2,.58,.6,.78,.4,.2,1.05,.36,1.94,.47,.89,.11,2,.19,3.33,.23,1.33,.04,2.97,.06,4.92,.06,1.42,0,2.34,.05,2.75,.16,.41,.11,.61,.35,.61,.73,0,.49-.24,1.04-.72,1.67-.48,.63-1.12,1-1.91,1.12-1.22,.2-2.2,.37-2.92,.5-.72,.14-1.58,.37-2.58,.7-.99,.33-2.1,.8-3.31,1.42-1.8,.95-3.21,1.91-4.23,2.88-1.01,.97-1.52,1.84-1.52,2.59,0,.65,.36,1.15,1.09,1.51,.72,.36,1.76,.54,3.12,.54,4.67,0,9.44-2.1,14.28-6.3,.03,1.29-.12,2.43-.42,3.41-.31,.98-.94,1.92-1.89,2.81-.79,.75-1.95,1.47-3.47,2.15s-3.18,1.23-4.98,1.64c-1.8,.41-3.49,.61-5.07,.61-1.83,0-3.35-.44-4.54-1.31-1.2-.88-1.8-2.04-1.8-3.49,0-1.05,.29-2.1,.87-3.14,.58-1.04,1.47-2.04,2.67-2.99,1.2-.95,2.72-1.82,4.55-2.6,1.84-.78,3.95-1.39,6.35-1.84,.34-.07,.51-.17,.51-.32,0-.16-.2-.25-.6-.29-.4-.03-1.14-.06-2.21-.07-1.07-.01-2.02-.06-2.83-.14-.82-.08-1.68-.25-2.59-.51-.94-.29-1.66-.8-2.16-1.52-.51-.72-.76-1.53-.76-2.41,0-1.13,.41-2.27,1.22-3.42,.82-1.15,1.97-2.18,3.46-3.1,1.49-.92,3.29-1.66,5.4-2.22,2.11-.56,4.43-.84,6.94-.84,1.45,0,2.46,.08,3.03,.25,.57,.16,.91,.38,1,.65,.09,.27,.14,.77,.14,1.51Z" fill="#fff"/><path d="M143.91,97.65l-.36,1.66c-.05,.21-.08,.45-.08,.71,0,.71,.3,1.07,.89,1.07s1.94-1.11,4.13-3.32c.01-.86,.33-1.84,.96-2.96,.63-1.12,1.32-2.1,2.07-2.94,.76-.84,1.32-1.26,1.69-1.26,.58,0,.87,.38,.87,1.15,0,.46-.11,1.02-.34,1.69-.22,.67-.55,1.38-.99,2.15s-.97,1.56-1.6,2.38c.33,.59,.66,.89,1.01,.89,.29,0,.61-.1,.96-.31,.35-.2,.79-.52,1.31-.94v1.32c-.74,.58-1.32,.97-1.75,1.19-.43,.21-.98,.32-1.65,.32-.26,0-.74-.18-1.42-.53-1.34,1.42-2.44,2.49-3.28,3.19-.84,.7-1.53,1.06-2.05,1.06-.91,0-1.68-.54-2.32-1.63-.64-1.09-.96-2.28-.96-3.59,0-1.75,.99-3.85,2.96-6.3,.59-.74,1.07-1.24,1.43-1.51,.36-.27,.77-.4,1.23-.4,.4,0,.77,.07,1.13,.22,.36,.15,.53,.32,.53,.51,0,.66-.44,1.62-1.32,2.89-.88,1.27-1.9,2.37-3.06,3.31Z" fill="#fff"/><path d="M157.56,98.32v.49c0,.78,.19,1.38,.57,1.82,.38,.43,.88,.65,1.5,.65s1.31-.15,2-.45c.69-.3,1.38-.7,2.06-1.2,.68-.5,1.52-1.17,2.51-2.01v1.2c-1.49,1.79-2.88,3.16-4.19,4.12s-2.63,1.43-3.97,1.43c-1.17,0-2.1-.45-2.79-1.36s-1.03-2.15-1.03-3.73c0-1.38,.32-2.64,.97-3.76s1.7-2.31,3.16-3.57c1-.86,2-1.5,2.98-1.94s1.87-.65,2.65-.65c.62,0,1.11,.14,1.47,.42,.36,.28,.54,.71,.54,1.27,0,.83-.31,1.66-.93,2.48-.62,.82-1.56,1.64-2.83,2.45s-2.83,1.59-4.69,2.34Zm.2-1.28c1.18-.46,2.2-1.03,3.04-1.72,.84-.68,1.46-1.34,1.87-1.97,.4-.63,.6-1.08,.6-1.37s-.14-.45-.41-.45c-.24,0-.62,.15-1.16,.45-.53,.3-1.07,.7-1.62,1.19-.55,.49-1.04,1.06-1.47,1.72-.43,.66-.72,1.38-.85,2.15Z" fill="#fff"/><path d="M179.53,94.03c-2.32,2.58-3.48,4.38-3.48,5.39,0,.57,.23,.85,.69,.85,.38,0,.88-.2,1.49-.6,.61-.4,1.57-1.12,2.87-2.14v1.36c-1.87,1.84-3.31,3.17-4.31,3.99-1,.82-1.82,1.22-2.45,1.22-1.08,0-1.62-.71-1.62-2.13,0-.42,.07-.84,.2-1.24,.13-.41,.31-.83,.54-1.27,.23-.44,.58-1.07,1.06-1.9,.47-.82,1.02-1.75,1.64-2.8-.75,.38-1.69,1.14-2.82,2.27-.74,.71-1.36,1.39-1.88,2.02-.51,.64-1.06,1.35-1.65,2.13-.59,.78-1.01,1.31-1.28,1.58-.27,.27-.54,.4-.82,.4-.42,0-.81-.44-1.17-1.32-.36-.88-.53-1.91-.53-3.08,0-.72,.08-1.29,.25-1.7,.16-.41,.49-.99,.98-1.74,.91-1.4,1.69-2.42,2.35-3.07s1.29-.98,1.9-.98c.42,0,.76,.07,1.02,.22,.26,.15,.39,.37,.39,.67,0,.13-.04,.27-.12,.41-.08,.15-.17,.28-.27,.4s-.31,.35-.62,.69c-2.08,2.3-3.12,3.8-3.12,4.48,0,.38,.13,.57,.38,.57,.16,0,.46-.25,.92-.76,.45-.51,1.04-1.17,1.76-2,.72-.82,1.57-1.68,2.55-2.58,.98-.9,2.1-1.76,3.35-2.59,.7-.49,1.28-.73,1.74-.73,.21,0,.42,.29,.62,.87,.2,.58,.31,1.17,.31,1.76,0,.29-.28,.73-.85,1.32Z" fill="#fff"/><path d="M187.92,87.36h.85c.7-1.25,1.33-2.14,1.9-2.66,.57-.52,1.21-.78,1.94-.78s1.09,.16,1.09,.49c0,.16-.28,.59-.85,1.28-.57,.7-.99,1.28-1.28,1.76,.45,.05,.85,.1,1.2,.14s.62,.07,.82,.1c-.75,1.4-1.69,2.82-2.82,4.29-.37-.03-.68-.05-.93-.07s-.5-.04-.76-.06-.57-.04-.94-.07c-.71,1.15-1.31,2.17-1.79,3.07-.48,.9-.85,1.73-1.11,2.48s-.39,1.46-.39,2.13c0,.91,.36,1.36,1.09,1.36,.5,0,1.16-.27,1.97-.8s1.89-1.35,3.25-2.46v1.32c-3.56,3.86-6.18,5.79-7.88,5.79-.59,0-1.07-.23-1.43-.69s-.54-1.05-.54-1.78c0-.49,.1-1.07,.31-1.74s.57-1.69,1.1-3.04c-.18,.16-.36,.31-.52,.46-.16,.15-.32,.29-.45,.41-.14,.13-.29,.26-.44,.4s-.32,.28-.47,.42v-1.36c1.38-1.16,3.05-3.19,5.02-6.1-.2-.01-.38-.02-.55-.03-.17,0-.38,0-.61,0-.78,0-1.36,.05-1.74,.16-.16,.04-.31,.08-.44,.13-.14,.05-.23,.07-.29,.07s-.08-.04-.08-.12c0-.43,.27-1.09,.81-1.96,.43-.74,.85-1.28,1.23-1.64s.86-.6,1.42-.72c.56-.12,1.35-.19,2.36-.19Z" fill="#fff"/><path d="M191.03,98.16v-.47c3.4-3.58,5.74-6.09,7.01-7.53,.29-1.62,.99-2.43,2.09-2.43,.28,0,.57,.08,.89,.24l.12,.38c-.05,.16-.08,.38-.08,.67,0,.25,.1,.71,.29,1.39,.19,.68,.34,1.25,.44,1.71,.11,.46,.16,.98,.16,1.56,0,.87-.2,1.7-.59,2.5-.4,.8-.97,1.56-1.72,2.29s-1.72,1.48-2.9,2.24c.47,.08,.85,.12,1.13,.12,.54,0,1.12-.13,1.75-.4,.63-.27,1.26-.63,1.92-1.09s1.41-1.04,2.28-1.77v1.32c-1.69,1.65-3.19,2.89-4.52,3.74s-2.48,1.27-3.44,1.27c-1.24,0-2.38-.53-3.44-1.58-.62-.63-1-1.24-1.16-1.82-.15-.58-.23-1.36-.23-2.35Zm7.37-3.02l-.36-2.88c-.82,.92-2.56,2.69-5.23,5.31,.79,.17,1.33,.4,1.62,.69,.29,.29,.7,.85,1.22,1.68,.9-.37,1.58-.87,2.06-1.51,.48-.64,.72-1.51,.72-2.62,0-.13,0-.25,0-.36,0-.11-.02-.21-.03-.32Z" fill="#fff"/></g></g></g></g></svg>