<?xml version="1.0" encoding="UTF-8"?>
<svg id="Laag_1" data-name="Laag 1" xmlns="http://www.w3.org/2000/svg" viewBox="0 0 429.65 293.09">
  <defs>
    <style>
      .cls-1 {
      fill: #fff;
      }
    </style>
  </defs>
  <polygon class="cls-1"
    points="0 212.44 0 253.84 28.16 253.84 28.16 245.15 10.14 245.15 10.14 212.44 0 212.44" />
  <rect class="cls-1" x="51" y="212.44" width="10.14" height="41.41" />
  <polygon class="cls-1"
    points="116.35 212.44 105.72 234.8 95.16 212.44 85.71 212.44 85.71 253.84 95.85 253.84 95.85 235.28 104.89 255.22 106.55 255.22 115.59 235.42 115.59 253.84 125.67 253.84 125.67 212.44 116.35 212.44" />
  <g>
    <path class="cls-1"
      d="m166.45,244.8c2.35,0,3.86-1.38,3.86-3.59,0-2-1.52-3.66-3.86-3.66h-6.14v7.25h6.14Zm-1.31-15.87c2.35,0,4-1.59,4-3.86,0-2.14-1.66-3.8-4-3.8h-4.83v7.66h4.83Zm-14.91-16.49h16.7c6.9,0,12.42,5.11,12.42,11.59,0,3.86-1.59,6.28-4.49,8.49v.14c4.28,3.04,6.07,5.93,6.07,10.21,0,5.73-4.55,10.97-12.42,10.97h-18.29v-41.41Z" />
    <path class="cls-1"
      d="m225.8,245.63c7.32,0,12.01-5.52,12.01-12.49s-4.69-12.49-12.01-12.49-12.01,5.52-12.01,12.49,4.62,12.49,12.01,12.49m0-34.57c13.04,0,22.29,9.73,22.29,22.08s-9.25,22.08-22.29,22.08-22.29-9.73-22.29-22.08,9.18-22.08,22.29-22.08" />
    <path class="cls-1"
      d="m273.07,212.44h10.08v25.95c0,5.52,2.62,7.45,6.14,7.45,3.86,0,6.28-1.93,6.28-7.45v-25.95h10.14v27.47c0,9.8-7.32,15.32-16.42,15.32s-16.22-5.8-16.22-15.32v-27.47Z" />
    <path class="cls-1"
      d="m348.57,230.38c2.28,0,3.8-2.35,3.8-4.76s-1.79-4.55-4.07-4.55h-7.87v9.32h8.14Zm-18.29-17.94h17.32c8.9,0,14.7,5.38,14.7,13.18,0,7.25-3.66,11.32-9.8,12.84l11.18,15.39h-12.7l-10.56-15.46v15.46h-10.14v-41.41Z" />
    <path class="cls-1"
      d="m407.43,211.06c7.66,0,12.97,2.83,17.32,7.25l-7.04,6.49c-2.83-2.55-6.35-4.14-10.28-4.14-7.38,0-12.15,5.52-12.15,12.49,0,7.66,5.45,12.49,12.35,12.49,7.25,0,10.77-4,11.04-8.01h-11.8v-8.76h22.77v3.93c0,12.21-7.18,22.43-22.22,22.43-13.11,0-22.43-9.73-22.43-22.08s9.32-22.08,22.43-22.08" />
  </g>
  <g>
    <g>
      <path class="cls-1"
        d="m230.5,47.85h-19.15v29.89h19.15c10.02,0,17.01-6.09,17.01-15.04,0-8.41-6.98-14.86-17.01-14.86Zm0,24.88h-12.53v-19.87h12.53c6.09,0,10.38,4.29,10.38,9.84,0,5.91-4.3,10.03-10.38,10.03Z" />
      <path class="cls-1"
        d="m255.74,82.4v-.36c7.52-5.73,11.64-11.99,11.64-22.02,0-16.83-14.32-30.07-32.22-30.07h-43.32v84.04h-7.35V29.95h-26.31v107.4h81.11c20.41,0,32.22-13.6,32.22-28.46,0-11.1-4.66-18.62-15.75-26.49Zm-44.22,49.94h-46.73V34.96h13.07v84.04h17.98s2.62,0,2.62,0h0s13.06,0,13.06,0v13.34Zm27.75,0h-21.3v-13.34h15.93c10.02,0,16.65-5.63,16.65-14.41,0-7.88-6.62-14.5-16.65-14.5h-22.55v23.89h0s-10.89,0-10.89,0h-2V34.96h36.7c14.14,0,25.6,11.1,25.6,25.06,0,8.59-3.22,15.93-13.25,21.84v1.43c12.35,6.98,17.36,16.29,17.36,25.6,0,12.17-9.31,23.45-25.6,23.45Zm-21.3-18.44v-18.79h15.93c6.09,0,10.02,4.29,10.02,9.49,0,5.73-3.94,9.31-10.02,9.31h-15.93Z" />
    </g>
    <path class="cls-1"
      d="m131.09,0v167.3h167.3V0h-167.3Zm160.79,160.79h-154.28V6.51h154.28v154.28Z" />
  </g>
  <path class="cls-1"
    d="m317.72,293.09c.18,0,.33-.05.43-.15.1-.1.15-.23.15-.4v-.38c0-.18-.05-.33-.15-.43-.1-.1-.24-.15-.43-.15h-8.64v-15.47c0-.17-.05-.3-.15-.4-.1-.1-.23-.15-.4-.15h-.48c-.17,0-.3.05-.4.15s-.15.23-.15.4v16.42c0,.17.05.3.15.4.1.1.23.15.4.15h9.66Zm-21.03,0c.18,0,.33-.05.43-.15.1-.1.15-.23.15-.4v-.38c0-.18-.05-.33-.15-.43-.1-.1-.24-.15-.43-.15h-8.94v-6.63h8.19c.18,0,.33-.05.43-.15s.15-.23.15-.4v-.38c0-.18-.05-.33-.15-.43s-.24-.15-.43-.15h-8.19v-6.38h8.74c.18,0,.33-.05.43-.15s.15-.23.15-.4v-.38c0-.18-.05-.33-.15-.43s-.24-.15-.43-.15h-9.76c-.17,0-.3.05-.4.15-.1.1-.15.24-.15.43v16.4c0,.17.05.3.15.4.1.1.23.15.4.15h9.96Zm-32.4-16.02h4.18c2,0,3.41.44,4.23,1.31s1.24,2.23,1.28,4.07c.02.5.03.94.03,1.3v1.11c0,.38,0,.81-.03,1.31-.02,1.3-.2,2.35-.54,3.14-.34.79-.9,1.37-1.68,1.73-.78.36-1.83.54-3.17.54h-4.31v-14.52Zm4.43,16.02c1.72,0,3.07-.25,4.06-.74.99-.49,1.69-1.24,2.1-2.24.42-1,.64-2.27.68-3.81.02-.75.03-1.41.03-1.99s0-1.24-.03-1.99c-.02-1.45-.24-2.68-.66-3.69s-1.14-1.77-2.14-2.29c-1-.52-2.39-.78-4.16-.78h-5.33c-.17,0-.3.05-.4.15s-.15.24-.15.43v16.4c0,.17.05.3.15.4.1.1.23.15.4.15h5.46Zm-28.64,0c.18,0,.33-.05.43-.15.1-.1.15-.23.15-.4v-13.82l9.21,14.07s.09.09.16.18c.08.08.2.13.36.13h.55c.17,0,.3-.05.4-.16.1-.11.15-.25.15-.41v-16.37c0-.18-.05-.33-.15-.43s-.24-.15-.43-.15h-.45c-.17,0-.3.05-.4.15s-.15.24-.15.43v13.84l-9.24-14.12s-.07-.09-.15-.18c-.08-.08-.21-.13-.38-.13h-.53c-.17,0-.3.05-.4.15s-.15.24-.15.43v16.4c0,.17.05.3.15.4.1.1.23.15.4.15h.45Zm-18-15.75l3.83,9.86h-7.66l3.83-9.86Zm-6.53,15.75c.17,0,.3-.05.39-.14.09-.09.15-.17.16-.24l1.55-4.01h8.86l1.55,4.01c.03.07.09.15.18.24.08.09.21.14.38.14h.5c.13,0,.25-.05.35-.15.1-.1.15-.22.15-.35,0-.08-.02-.18-.05-.28l-6.33-16.25c-.07-.17-.16-.29-.26-.38-.11-.08-.26-.13-.46-.13h-.85c-.2,0-.36.04-.46.13-.11.08-.2.21-.26.38l-6.33,16.25c-.03.1-.05.19-.05.28,0,.13.05.25.15.35.1.1.22.15.35.15h.5Zm-22.28,0c.18,0,.33-.05.43-.15.1-.1.15-.23.15-.4v-7.59h9.66v7.59c0,.17.05.3.15.4.1.1.23.15.4.15h.45c.18,0,.33-.05.43-.15.1-.1.15-.23.15-.4v-16.4c0-.18-.05-.33-.15-.43-.1-.1-.24-.15-.43-.15h-.45c-.17,0-.3.05-.4.15s-.15.24-.15.43v7.31h-9.66v-7.31c0-.18-.05-.33-.15-.43s-.24-.15-.43-.15h-.45c-.17,0-.3.05-.4.15s-.15.24-.15.43v16.4c0,.17.05.3.15.4.1.1.23.15.4.15h.45Zm-21.96-16.02h4.68c1.45,0,2.53.3,3.24.89.71.59,1.06,1.48,1.06,2.67s-.36,2.07-1.06,2.67c-.71.59-1.79.89-3.24.89h-4.68v-7.11Zm-.58,16.02c.18,0,.33-.05.43-.15.1-.1.15-.23.15-.4v-6.86h5.16l3.98,6.73c.1.17.22.32.35.46.13.14.33.21.6.21h.3c.13,0,.25-.05.35-.15.1-.1.15-.22.15-.35,0-.08-.03-.18-.08-.28l-4.03-6.86c1.18-.28,2.11-.83,2.78-1.63.67-.8,1-1.87,1-3.2,0-1.7-.52-2.97-1.56-3.81-1.04-.83-2.44-1.25-4.19-1.25h-5.83c-.17,0-.3.05-.4.15s-.15.24-.15.43v16.4c0,.17.05.3.15.4.1.1.23.15.4.15h.45Zm-11.82,0c.18,0,.33-.05.43-.15.1-.1.15-.23.15-.4v-.38c0-.18-.05-.33-.15-.43-.1-.1-.24-.15-.43-.15h-8.94v-6.63h8.19c.18,0,.33-.05.43-.15.1-.1.15-.23.15-.4v-.38c0-.18-.05-.33-.15-.43-.1-.1-.24-.15-.43-.15h-8.19v-6.38h8.74c.18,0,.33-.05.43-.15.1-.1.15-.23.15-.4v-.38c0-.18-.05-.33-.15-.43-.1-.1-.24-.15-.43-.15h-9.76c-.17,0-.3.05-.4.15s-.15.24-.15.43v16.4c0,.17.05.3.15.4.1.1.23.15.4.15h9.96Zm-22.28,0c.17,0,.3-.05.4-.15.1-.1.15-.23.15-.4v-16.42c0-.17-.05-.3-.15-.4s-.23-.15-.4-.15h-.48c-.17,0-.3.05-.4.15-.1.1-.15.23-.15.4v16.42c0,.17.05.3.15.4.1.1.23.15.4.15h.48Zm-22.31-16.02h5.18c1.24,0,2.17.25,2.82.75.64.5.96,1.24.96,2.23s-.32,1.75-.96,2.3c-.64.55-1.58.83-2.82.83h-5.18v-6.11Zm0,7.61h5.43c1.24,0,2.19.32,2.87.96s1.01,1.47,1.01,2.49-.34,1.83-1.01,2.48-1.63.98-2.87.98h-5.43v-6.91Zm5.68,8.41c1.14,0,2.09-.24,2.87-.71.78-.48,1.36-1.09,1.75-1.85.39-.76.59-1.56.59-2.39,0-1.05-.26-1.94-.78-2.68-.52-.73-1.11-1.27-1.78-1.6.33-.17.67-.41,1.01-.73.34-.32.63-.73.85-1.24.23-.51.34-1.12.34-1.84,0-.8-.18-1.54-.53-2.22-.35-.68-.9-1.22-1.64-1.64-.74-.42-1.7-.63-2.87-.63h-6.53c-.17,0-.3.05-.4.15-.1.1-.15.24-.15.43v16.4c0,.17.05.3.15.4.1.1.23.15.4.15h6.71Z" />
</svg>