<svg width="377" height="399" viewBox="0 0 377 399" fill="none" xmlns="http://www.w3.org/2000/svg">
<g clip-path="url(#clip0_441_511)">
<path d="M123.14 5.57995C123.14 5.57995 110.51 10.13 113.03 40.95C115.55 71.77 131.72 264.28 101.91 324.4C72.0998 384.52 39.7598 398.67 20.0598 383.52C0.359814 368.37 5.90981 326.93 120.61 344.11C235.31 361.29 290.88 377.96 324.23 325.42C305.03 329.97 286.84 346.14 179.22 330.47C71.5998 314.8 16.5298 331.99 6.92981 344.11C-2.67019 356.23 -10.7402 410.61 45.3298 396.66C96.1098 384.03 161.95 371.9 149.16 27.82C148.4 -8.56004 135.77 0.789949 123.14 5.58995V5.57995Z" fill="white"/>
<path d="M207.85 125.33C207.85 125.33 197.03 123.81 197.41 138.97C197.79 154.13 194.96 172.32 202.63 168.91C210.3 165.5 229.62 137.46 225.46 130.26C221.3 123.06 207.86 125.33 207.86 125.33H207.85Z" fill="white"/>
<path fill-rule="evenodd" clip-rule="evenodd" d="M194.78 174.378C194.94 174.405 195.1 174.433 195.26 174.46H195.27C201.2 175.47 204.65 179.01 207.14 186.59C209.133 192.676 205.017 215.434 200.67 239.467C195.118 270.169 189.189 302.95 195.14 305.71C205.362 310.45 219.454 271.231 229.619 242.942C230.005 241.868 230.386 240.81 230.76 239.77C234.55 208.32 250.84 151.1 292.91 153.75C334.98 156.4 339.52 214.76 337.63 232.19C351.65 231.81 366.44 199.22 367.57 193.92C368.7 188.62 375.9 177.25 376.66 187.1C378.17 218.55 346.34 247.73 335.35 247.51C334.59 262.45 322.09 301.92 281.54 305.33C240.99 308.74 231.9 262.89 231.9 262.89C231.9 262.89 218.63 326.17 190.97 322.38C166.373 319.01 174.507 243.754 178.41 207.644C178.896 203.147 179.317 199.258 179.6 196.19C181.815 172.147 188.333 173.269 194.78 174.378ZM285.96 179.2C285.801 179.24 258.672 186.154 256.02 231.87C253.36 277.72 266.25 292.69 281.22 293.07C300.73 293.56 313.62 264.84 313.62 245.7C312.993 245.013 311.778 244.321 310.192 243.418C301.71 238.589 282.611 227.716 285.96 179.2ZM304.15 187.92C304.15 187.92 298.66 215.58 314.57 227.71C317.79 217.86 314.19 196.26 304.15 187.92Z" fill="white"/>
</g>
<defs>
<clipPath id="clip0_441_511">
<rect width="377" height="399" fill="white"/>
</clipPath>
</defs>
</svg>
