<svg width="4013" height="942" viewBox="0 0 4013 942" fill="none" xmlns="http://www.w3.org/2000/svg">
<g clip-path="url(#clip0_441_551)">
<path d="M0 9C41.91 9 83.82 9 127 9C135.03 30.7952 135.03 30.7952 138.566 41.1367C138.962 42.2881 139.358 43.4395 139.766 44.6258C140.603 47.0603 141.439 49.495 142.274 51.9301C144.489 58.3886 146.711 64.8447 148.934 71.3008C149.265 72.2627 149.265 72.2627 149.602 73.2441C153.407 84.3005 157.25 95.343 161.125 106.375C166.438 121.506 171.697 136.656 176.938 151.812C182.436 167.716 187.95 183.614 193.5 199.5C198.771 214.593 204.026 229.691 209.262 244.796C210.028 247.007 210.795 249.218 211.563 251.429C215.883 263.873 220.153 276.329 224.24 288.851C225.972 294.11 227.876 299.246 229.965 304.373C231.968 309.456 233.693 314.639 235.457 319.809C236.1 321.682 236.743 323.556 237.386 325.429C238.064 327.407 238.741 329.384 239.418 331.362C241.549 337.59 243.688 343.816 245.826 350.042C246.305 351.435 246.783 352.828 247.261 354.221C251.346 366.118 255.469 378.002 259.625 389.875C263.705 401.535 267.766 413.201 271.793 424.879C272.412 426.675 272.412 426.675 273.044 428.508C274.713 433.345 276.381 438.183 278.047 443.022C283.658 459.328 283.658 459.328 289.43 475.578C289.675 476.259 289.921 476.939 290.174 477.64C291.242 480.595 292.32 483.546 293.411 486.492C293.764 487.458 294.117 488.423 294.48 489.418C294.778 490.22 295.076 491.022 295.384 491.848C296 494 296 494 296 498C297.32 498 298.64 498 300 498C300.106 496.858 300.212 495.716 300.322 494.54C300.908 489.897 302.262 485.745 303.852 481.359C304.142 480.537 304.433 479.714 304.732 478.866C305.36 477.089 305.992 475.313 306.627 473.539C308.354 468.714 310.053 463.879 311.758 459.047C312.288 457.548 312.288 457.548 312.828 456.019C316.151 446.612 319.374 437.172 322.577 427.723C327.837 412.208 333.16 396.716 338.562 381.25C339.027 379.919 339.027 379.919 339.502 378.56C342.569 369.782 345.644 361.007 348.731 352.237C354.847 334.863 360.886 317.474 366.665 299.986C371.077 286.646 375.673 273.374 380.321 260.114C385.806 244.469 391.193 228.794 396.521 213.095C396.8 212.274 397.079 211.452 397.367 210.606C397.882 209.091 398.396 207.576 398.909 206.06C400.051 202.699 401.229 199.36 402.486 196.041C404.105 191.762 405.583 187.44 407.047 183.105C407.642 181.351 408.238 179.596 408.833 177.841C409.145 176.922 409.457 176.003 409.778 175.056C415.232 158.968 420.756 142.906 426.375 126.875C432.854 108.388 439.179 89.8512 445.455 71.2944C445.977 69.7529 445.977 69.7529 446.509 68.1803C447.158 66.2646 447.805 64.3484 448.451 62.4319C448.743 61.5685 449.036 60.7052 449.337 59.8157C449.587 59.0749 449.837 58.3341 450.095 57.5709C451.342 54.0277 452.681 50.5172 454 47C458.29 34.46 462.58 21.92 467 9C509.57 9 552.14 9 596 9C596 195.12 596 381.24 596 573C552.44 573 508.88 573 464 573C464 506.34 464 439.68 464 371C463.01 371 462.02 371 461 371C460.859 371.566 460.718 372.132 460.572 372.715C458.02 382.511 454.725 392.058 451.504 401.648C450.867 403.552 450.231 405.456 449.595 407.36C447.927 412.35 446.256 417.339 444.584 422.327C441.911 430.302 439.243 438.278 436.576 446.255C435.651 449.019 434.725 451.782 433.798 454.545C431.105 462.586 428.471 470.633 426.009 478.748C424.135 484.788 422.11 490.779 420.1 496.775C419.295 499.179 418.491 501.583 417.688 503.987C415.694 509.956 413.697 515.924 411.699 521.892C410.006 526.952 408.314 532.013 406.623 537.075C405.842 539.412 405.059 541.749 404.276 544.086C403.783 545.559 403.291 547.032 402.799 548.505C402.59 549.128 402.38 549.752 402.164 550.394C399.663 557.896 397.36 565.447 395 573C330.65 573 266.3 573 200 573C194.72 556.5 189.44 540 184 523C179.251 509.106 179.251 509.106 174.461 495.227C172.247 488.797 170.242 482.334 168.369 475.799C165.399 465.63 161.81 455.653 158.312 445.656C156.058 439.186 153.874 432.74 152.047 426.133C149.328 416.343 145.855 406.801 142.485 397.221C136.393 379.867 136.393 379.867 135 371C134.01 371 133.02 371 132 371C132 437.66 132 504.32 132 573C88.44 573 44.88 573 0 573C0 386.88 0 200.76 0 9Z" fill="white"/>
<path d="M2586 9C2627.91 9 2669.82 9 2713 9C2716.05 16.3315 2719.01 23.5419 2721.61 31.0195C2722.09 32.3989 2722.09 32.3989 2722.59 33.8061C2723.28 35.7788 2723.98 37.7521 2724.67 39.7258C2726.55 45.0974 2728.45 50.4647 2730.34 55.832C2730.73 56.9347 2731.12 58.0373 2731.52 59.1734C2735.39 70.1367 2739.34 81.0706 2743.31 92C2749.54 109.147 2755.69 126.317 2761.81 143.5C2768.53 162.36 2775.33 181.191 2782.19 200C2788.77 218.055 2795.27 236.138 2801.67 254.261C2807.1 269.653 2812.59 285.022 2818.12 300.375C2823.52 315.345 2828.91 330.321 2834.25 345.312C2840.37 362.495 2846.56 379.655 2852.75 396.812C2860.43 418.091 2868.09 439.378 2875.72 460.676C2880.17 473.098 2884.62 485.517 2889.09 497.934C2889.35 498.654 2889.6 499.375 2889.87 500.117C2892.18 506.545 2894.49 512.973 2896.81 519.401C2899.5 526.879 2902.18 534.359 2904.87 541.84C2905.91 544.735 2906.95 547.629 2908 550.521C2908.55 552.072 2909.11 553.622 2909.67 555.172C2909.91 555.844 2910.16 556.516 2910.41 557.208C2911.4 559.968 2912 562.04 2912 565C2912.99 565 2913.98 565 2915 565C2915 381.52 2915 198.04 2915 9C2958.89 9 3002.78 9 3048 9C3048 195.12 3048 381.24 3048 573C2963.52 573 2879.04 573 2792 573C2781.64 545.373 2781.64 545.373 2777.83 534.914C2777.17 533.104 2777.17 533.104 2776.49 531.258C2775.32 528.046 2774.15 524.833 2772.98 521.619C2772.24 519.586 2771.49 517.553 2770.75 515.52C2763.1 494.543 2755.48 473.551 2747.9 452.549C2743.19 439.537 2738.47 426.535 2733.69 413.555C2733.26 412.401 2732.84 411.247 2732.4 410.058C2730.38 404.585 2728.36 399.114 2726.33 393.645C2725.62 391.722 2724.91 389.798 2724.2 387.875C2723.87 386.998 2723.55 386.121 2723.21 385.217C2722.91 384.421 2722.62 383.625 2722.32 382.805C2722.06 382.114 2721.81 381.422 2721.54 380.71C2721 379 2721 379 2721 377C2720.01 377 2719.02 377 2718 377C2718 441.68 2718 506.36 2718 573C2674.44 573 2630.88 573 2586 573C2586 386.88 2586 200.76 2586 9Z" fill="white"/>
<path d="M2291 4.00006C2292.11 4.20091 2292.11 4.20091 2293.25 4.40582C2349.42 14.7821 2402.17 44.0734 2434.86 91.503C2464.95 136.045 2474.54 183.184 2474.35 236.151C2474.33 240.686 2474.34 245.222 2474.34 249.757C2474.34 257.587 2474.33 265.416 2474.32 273.245C2474.29 284.565 2474.28 295.884 2474.28 307.204C2474.27 325.575 2474.25 343.947 2474.23 362.319C2474.2 380.149 2474.18 397.98 2474.16 415.81C2474.16 416.912 2474.16 418.014 2474.16 419.149C2474.16 424.678 2474.15 430.206 2474.15 435.735C2474.12 481.49 2474.06 527.245 2474 573C2430.44 573 2386.88 573 2342 573C2341.98 556.578 2341.98 556.578 2341.96 539.824C2341.91 504.767 2341.84 469.709 2341.77 434.652C2341.76 429.203 2341.75 423.755 2341.74 418.306C2341.73 416.679 2341.73 416.679 2341.73 415.02C2341.7 397.473 2341.67 379.927 2341.65 362.38C2341.63 344.367 2341.59 326.353 2341.55 308.339C2341.52 297.23 2341.51 286.121 2341.5 275.012C2341.5 267.387 2341.48 259.762 2341.45 252.137C2341.44 247.742 2341.43 243.348 2341.43 238.953C2341.44 234.92 2341.43 230.887 2341.41 226.854C2341.4 225.404 2341.4 223.955 2341.41 222.505C2341.48 199.588 2335.2 176.751 2319.25 159.688C2300.9 142.745 2278.21 134.847 2253.5 134.75C2251.57 134.719 2251.57 134.719 2249.6 134.688C2225.35 134.59 2202.35 144.056 2185 161C2174.57 172.861 2168.95 186.705 2166 202C2165.83 202.826 2165.66 203.652 2165.49 204.503C2163.96 212.722 2163.71 220.732 2163.72 229.072C2163.72 230.563 2163.71 232.054 2163.7 233.546C2163.69 237.612 2163.68 241.678 2163.68 245.744C2163.68 250.14 2163.66 254.537 2163.65 258.933C2163.63 266.54 2163.61 274.147 2163.6 281.754C2163.59 292.752 2163.56 303.75 2163.53 314.749C2163.49 332.595 2163.45 350.441 2163.42 368.287C2163.39 385.617 2163.36 402.947 2163.32 420.278C2163.31 421.347 2163.31 422.416 2163.31 423.518C2163.3 428.882 2163.28 434.246 2163.27 439.61C2163.17 484.073 2163.08 528.537 2163 573C2119.44 573 2075.88 573 2031 573C2030.93 526.672 2030.88 480.344 2030.85 434.016C2030.84 428.535 2030.84 423.055 2030.83 417.574C2030.83 416.483 2030.83 415.392 2030.83 414.268C2030.82 396.647 2030.8 379.027 2030.77 361.406C2030.74 343.3 2030.72 325.194 2030.72 307.087C2030.71 295.932 2030.7 284.777 2030.68 273.622C2030.66 265.952 2030.66 258.283 2030.66 250.613C2030.66 246.201 2030.66 241.789 2030.64 237.377C2030.43 177.525 2043.58 121.114 2084 75.0001C2084.5 74.4232 2085 73.8464 2085.51 73.252C2134.47 16.8965 2218.17 -9.72002 2291 4.00006Z" fill="white"/>
<path d="M1877 63C1883.65 69.1635 1889.39 75.888 1895 83C1895.79 83.9758 1896.59 84.9516 1897.4 85.957C1904.45 94.8101 1910.31 104.227 1916 114C1916.37 114.621 1916.74 115.241 1917.12 115.881C1925.87 130.706 1931.88 147.242 1935.94 163.937C1936.12 164.703 1936.31 165.469 1936.5 166.258C1939.82 181.069 1940.29 195.928 1940.19 211.035C1940.19 212.686 1940.19 214.336 1940.19 215.987C1940.18 222.012 1940.15 228.037 1940.12 234.062C1940.08 247.572 1940.04 261.081 1940 275C1896.44 275 1852.88 275 1808 275C1807.67 259.16 1807.34 243.32 1807 227C1802.59 202.735 1797.34 180.529 1782 161C1781.46 160.295 1780.92 159.59 1780.36 158.863C1771.3 147.746 1756.69 140.009 1742.75 136.937C1742.06 136.781 1741.38 136.626 1740.67 136.465C1731.89 134.937 1723.21 134.785 1714.31 134.75C1713.04 134.729 1711.77 134.709 1710.45 134.687C1688.2 134.597 1669.56 142.301 1653.69 157.75C1641.99 169.63 1635.39 184.812 1631.25 200.75C1631.05 201.498 1630.85 202.247 1630.65 203.018C1626.42 220.395 1626.68 238.206 1626.74 255.968C1626.75 259.435 1626.74 262.902 1626.73 266.369C1626.31 291.653 1626.31 291.653 1631.69 316.187C1631.95 316.935 1632.21 317.683 1632.48 318.453C1641.54 343.433 1659.77 357.107 1683 368C1697.24 374.463 1711.81 380.145 1726.41 385.739C1740.35 391.088 1754.2 396.64 1768.06 402.187C1769.23 402.655 1770.4 403.122 1771.6 403.604C1779.41 406.725 1787.21 409.857 1795 413C1796.03 413.413 1797.05 413.827 1798.11 414.253C1819.41 422.857 1819.41 422.857 1829.69 427.812C1830.72 428.312 1831.76 428.811 1832.82 429.326C1875.36 450.266 1908.86 484.107 1924.75 529.136C1927.71 537.994 1929.78 547.08 1931.81 556.187C1932.03 557.168 1932.25 558.149 1932.48 559.159C1932.68 560.09 1932.88 561.021 1933.08 561.98C1933.26 562.804 1933.44 563.628 1933.62 564.477C1934.05 567.346 1934.02 570.102 1934 573C1916.03 573.257 1898.06 573.451 1880.1 573.57C1871.75 573.627 1863.41 573.704 1855.07 573.83C1847.79 573.94 1840.52 574.01 1833.24 574.035C1829.39 574.049 1825.54 574.083 1821.69 574.163C1818.06 574.238 1814.44 574.261 1810.81 574.244C1808.85 574.249 1806.9 574.308 1804.94 574.369C1799.67 574.301 1796.35 574.188 1792.29 570.612C1790.02 567.831 1788.02 564.965 1786 562C1765.28 539.996 1730.51 530.13 1703.14 519.078C1689.15 513.426 1675.2 507.67 1661.25 501.927C1659.06 501.027 1656.87 500.128 1654.68 499.23C1596.9 475.516 1541.88 446.242 1515.94 386.286C1512.93 378.988 1510.44 371.508 1508 364C1507.73 363.197 1507.47 362.394 1507.19 361.567C1499.87 339.244 1496.31 316.598 1494.28 293.232C1494.1 291.203 1493.92 289.175 1493.71 287.149C1492.79 277.755 1492.8 268.367 1492.81 258.937C1492.81 258.056 1492.81 257.174 1492.81 256.266C1492.86 233.709 1494.36 211.731 1498.53 189.525C1498.93 187.358 1499.31 185.189 1499.68 183.016C1506.76 143.658 1523.91 105.376 1550 75C1550.83 73.9777 1551.65 72.9555 1552.51 71.9023C1567.31 53.6844 1585.57 39.4263 1606 28C1606.67 27.6224 1607.33 27.2449 1608.02 26.8559C1630.37 14.2651 1654.45 6.75513 1679.86 3.29244C1681.25 3.10187 1682.65 2.90088 1684.04 2.68795C1754.52 -8.02199 1824.63 15.5317 1877 63Z" fill="white"/>
<path d="M3840 3.99997C3840.71 4.11744 3841.42 4.23491 3842.15 4.35593C3872.98 9.58877 3903.29 21.6759 3928 41C3928.95 41.7386 3929.9 42.4772 3930.88 43.2383C3940.62 51.0307 3950.11 59.3027 3958 69C3958.42 69.5045 3958.84 70.009 3959.28 70.5288C4000.41 119.686 4012.91 177.332 4012.25 239.937C4012.17 251.178 4012.09 262.419 4012 274C3968.44 274 3924.88 274 3880 274C3879.67 254.86 3879.34 235.72 3879 216C3873.84 188.497 3863.75 162.325 3839.83 145.75C3819.97 133.461 3795.66 132.266 3773.03 136.242C3757.52 140.121 3743.62 147.412 3734.81 161.062C3722.57 182.238 3717.68 206.867 3717.72 231.116C3717.72 232.6 3717.71 234.084 3717.7 235.568C3717.69 239.609 3717.69 243.65 3717.68 247.691C3717.68 252.062 3717.66 256.433 3717.65 260.805C3717.63 268.366 3717.61 275.928 3717.6 283.489C3717.59 294.422 3717.56 305.355 3717.54 316.287C3717.49 334.027 3717.45 351.767 3717.42 369.508C3717.39 386.734 3717.36 403.961 3717.32 421.187C3717.32 422.25 3717.31 423.313 3717.31 424.408C3717.3 429.741 3717.29 435.074 3717.27 440.407C3717.17 484.604 3717.08 528.802 3717 573C3673.11 573 3629.22 573 3584 573C3583.91 525.466 3583.84 477.932 3583.8 430.398C3583.79 424.773 3583.79 419.147 3583.78 413.521C3583.78 412.401 3583.78 411.282 3583.78 410.128C3583.76 392.051 3583.73 373.974 3583.69 355.897C3583.65 337.316 3583.63 318.735 3583.62 300.154C3583.62 288.71 3583.6 277.266 3583.57 265.823C3583.55 257.95 3583.54 250.078 3583.55 242.206C3583.55 237.679 3583.55 233.154 3583.52 228.627C3583.25 168.231 3597.35 110.902 3640 66C3640.73 65.2174 3640.73 65.2174 3641.48 64.4189C3673.25 30.7257 3719.13 8.06694 3765.19 2.93747C3765.92 2.85514 3766.66 2.7728 3767.42 2.68796C3791.69 0.0451446 3815.89 -0.1006 3840 3.99997Z" fill="white"/>
<path d="M868.841 8.87686C870.056 8.87824 870.056 8.87824 871.296 8.87965C872.223 8.87828 873.15 8.8769 874.105 8.87549C875.643 8.88088 875.643 8.88088 877.211 8.88638C878.821 8.88616 878.821 8.88616 880.463 8.88594C884.029 8.88664 887.594 8.89444 891.16 8.90225C893.625 8.90412 896.09 8.90554 898.555 8.90654C905.057 8.91037 911.559 8.9202 918.06 8.93124C924.689 8.94199 931.318 8.94604 937.947 8.95108C950.965 8.96182 963.982 8.97871 977 8.99991C978.649 12.9916 979.736 16.8376 980.664 21.0624C980.817 21.7535 980.97 22.4446 981.127 23.1566C981.631 25.4368 982.128 27.7183 982.625 29.9999C982.979 31.6108 983.334 33.2217 983.689 34.8324C985.501 43.0684 987.286 51.3101 989.059 59.5546C989.225 60.3282 989.391 61.1018 989.563 61.8988C989.728 62.669 989.894 63.4393 990.064 64.2328C990.312 65.3822 990.312 65.3822 990.564 66.5549C990.897 68.1059 991.231 69.657 991.564 71.2081C994.09 82.9532 996.749 94.6591 999.503 106.353C1003.28 122.378 1006.8 138.455 1010.28 154.547C1011.12 158.448 1011.97 162.349 1012.81 166.25C1013.03 167.241 1013.24 168.232 1013.46 169.253C1016.56 183.572 1019.79 197.857 1023.12 212.124C1026.09 224.887 1028.9 237.681 1031.62 250.5C1036.63 274.053 1041.94 297.523 1047.45 320.964C1049.35 329.103 1051.15 337.259 1052.88 345.437C1055.24 356.657 1057.78 367.831 1060.38 379C1063.3 391.594 1066.2 404.192 1069 416.812C1069.16 417.536 1069.32 418.259 1069.49 419.004C1072.47 432.461 1075.34 445.944 1078.21 459.427C1080.55 470.422 1082.99 481.375 1085.69 492.289C1088.64 504.371 1091.15 516.551 1093.74 528.716C1095.93 539.064 1098.16 549.4 1100.59 559.698C1100.77 560.451 1100.94 561.204 1101.12 561.98C1101.27 562.598 1101.42 563.216 1101.57 563.852C1102.18 566.878 1102.56 569.945 1103 573C1062.41 573 1021.82 573 980 573C977.36 559.47 974.72 545.94 972 532C970.886 526.307 969.773 520.615 968.625 514.75C966.608 504.416 964.632 494.075 962.691 483.726C962.489 482.648 962.287 481.57 962.079 480.458C961.77 478.815 961.77 478.815 961.456 477.139C961.033 474.884 960.61 472.63 960.188 470.375C959.871 468.689 959.871 468.689 959.549 466.97C956.243 449.365 952.787 431.794 949.241 414.236C946.197 399.148 943.299 384.042 940.524 368.903C937.374 351.737 933.97 334.627 930.5 317.523C928.49 307.598 926.531 297.667 924.703 287.707C924.531 286.774 924.358 285.841 924.18 284.88C924.024 284.02 923.869 283.159 923.708 282.273C923.571 281.517 923.433 280.762 923.292 279.984C923 278 923 278 923 275C922.01 275 921.02 275 920 275C919.845 276.061 919.69 277.122 919.531 278.216C917.571 291.284 915.047 304.216 912.416 317.164C911.42 322.065 910.434 326.968 909.447 331.871C908.96 334.295 908.472 336.718 907.983 339.142C903.635 360.717 899.556 382.339 895.545 403.979C890.91 428.97 886.029 453.908 881.024 478.828C880.831 479.792 880.637 480.756 880.438 481.75C880.244 482.712 880.051 483.674 879.852 484.666C876.423 501.753 873.179 518.864 870 536C867.69 548.21 865.38 560.42 863 573C822.74 573 782.48 573 741 573C743.246 560.649 743.246 560.649 744.375 555.762C744.761 554.074 744.761 554.074 745.156 552.351C745.434 551.142 745.713 549.933 746 548.687C748.835 536.294 751.556 523.877 754.238 511.449C757.74 495.228 761.342 479.036 765.117 462.876C768.308 449.198 771.284 435.481 774.197 421.742C776.792 409.508 779.513 397.318 782.402 385.15C784.964 374.304 787.31 363.415 789.643 352.517C791.721 342.819 793.866 333.149 796.216 323.513C797.855 316.743 799.312 309.94 800.75 303.125C803.133 291.841 805.693 280.606 808.312 269.375C812.022 253.464 815.502 237.512 818.899 221.532C821.133 211.023 823.426 200.532 825.84 190.062C826.929 185.338 827.976 180.605 829.02 175.871C831.73 163.584 834.534 151.32 837.375 139.062C843.063 114.509 848.551 89.9163 853.775 65.2602C855.896 55.3269 858.196 45.4384 860.553 35.559C862.339 28.0268 863.924 20.4847 865.363 12.88C866.21 9.05274 866.21 9.05274 868.841 8.87686Z" fill="white"/>
<path d="M1808 671C1851.56 671 1895.12 671 1940 671C1940 700.693 1938.1 728.947 1933 758C1932.81 759.132 1932.61 760.264 1932.41 761.43C1924.75 805.174 1907.83 846.455 1877 879C1876.12 879.945 1875.24 880.89 1874.33 881.863C1863.17 893.598 1850.07 903.024 1836 911C1835.29 911.411 1834.59 911.821 1833.86 912.245C1779.9 943.378 1708.26 947.915 1648.54 932.485C1591.63 916.847 1543.59 879.469 1514.44 828.25C1496.36 795.674 1486.76 761.314 1486.9 723.953C1486.9 722.615 1486.9 721.277 1486.9 719.939C1486.91 715.043 1486.92 710.146 1486.94 705.25C1486.97 688.791 1486.97 688.791 1487 672C1530.56 672 1574.12 672 1619 672C1619.33 689.16 1619.66 706.32 1620 724C1624.38 748.851 1632.14 774.592 1652.81 790.938C1667.2 800.972 1683.98 806.142 1701.47 806.168C1702.67 806.173 1702.67 806.173 1703.89 806.178C1705.57 806.183 1707.25 806.185 1708.94 806.185C1711.46 806.187 1713.99 806.206 1716.52 806.225C1742.15 806.316 1764.73 801.341 1783.9 783.203C1791.72 774.925 1796.72 764.67 1800.37 754C1800.61 753.314 1800.85 752.627 1801.1 751.92C1804.64 740.873 1805.3 729.071 1806.06 717.562C1806.18 715.972 1806.18 715.972 1806.3 714.35C1807.28 699.909 1807.53 685.482 1808 671Z" fill="white"/>
<path d="M2031 671C2074.89 671 2118.78 671 2164 671C2164.33 691.13 2164.66 711.26 2165 732C2169.95 755.762 2169.95 755.762 2182 776C2182.5 776.672 2182.99 777.343 2183.51 778.035C2195.05 792.627 2215.98 803.072 2234.24 805.728C2252.51 807.529 2271.86 807.474 2289 800.375C2289.86 800.022 2290.72 799.67 2291.61 799.306C2311.9 790.727 2326.25 776.087 2335 756C2345.19 729.584 2341.53 697.699 2342 671C2385.89 671 2429.78 671 2475 671C2475 739.802 2475 739.802 2472 759C2471.84 760.041 2471.68 761.082 2471.51 762.154C2466.43 793.27 2454.03 822.234 2436 848C2435.42 848.838 2435.42 848.838 2434.82 849.693C2429.6 857.119 2423.74 863.906 2417.48 870.457C2416.48 871.494 2415.5 872.536 2414.52 873.582C2405.81 882.845 2396.31 890.586 2386 898C2385.39 898.444 2384.78 898.889 2384.15 899.347C2336.83 933.512 2274.93 946.315 2217.63 937.907C2191.8 933.71 2167.04 925.384 2144 913C2142.87 912.41 2141.74 911.819 2140.57 911.211C2125.21 902.877 2111.6 892.029 2099 880C2097.59 878.762 2096.17 877.532 2094.75 876.312C2077.58 861.295 2064.55 842.099 2054 822C2053.65 821.335 2053.3 820.67 2052.94 819.985C2046.81 808.126 2042.67 795.814 2039 783C2038.79 782.3 2038.59 781.601 2038.38 780.88C2036.95 775.962 2035.92 771.028 2035 766C2034.73 764.597 2034.73 764.597 2034.45 763.166C2028.79 732.618 2031 702.123 2031 671Z" fill="white"/>
<path d="M3880 669C3923.56 669 3967.12 669 4012 669C4012.09 685.83 4012.09 685.83 4012.19 703C4012.21 706.488 4012.24 709.976 4012.27 713.57C4012.37 734.92 4011.59 755.862 4006.31 776.688C4006.06 777.711 4005.81 778.734 4005.54 779.789C4001.36 796.022 3994.94 811.267 3987 826C3986.47 826.995 3986.47 826.995 3985.93 828.01C3960.5 875.776 3916.47 913.36 3865.01 930.334C3863.24 930.919 3861.49 931.541 3859.74 932.168C3811.66 948.551 3748.09 942.009 3702 922C3700.99 921.566 3700.99 921.566 3699.95 921.123C3678.73 911.922 3660.68 898.897 3644 883C3643.17 882.234 3642.34 881.469 3641.48 880.68C3603.18 844.224 3585.36 789.249 3583.84 737.555C3583.61 726.601 3583.73 715.643 3583.81 704.688C3583.87 693.571 3583.94 682.454 3584 671C3627.89 671 3671.78 671 3717 671C3717.33 691.13 3717.66 711.26 3718 732C3720.06 745.114 3720.06 745.114 3723.69 757.625C3723.94 758.314 3724.19 759.003 3724.45 759.713C3731.13 777.307 3740.05 791.528 3757.56 799.812C3779.45 809.058 3808.19 809.544 3830.23 800.641C3850.3 792.038 3863.18 779.18 3871.91 759.008C3882.35 730.195 3879.49 699.186 3880 669Z" fill="white"/>
<path d="M1252 9C1295.56 9 1339.12 9 1384 9C1384 195.12 1384 381.24 1384 573C1340.44 573 1296.88 573 1252 573C1252 386.88 1252 200.76 1252 9Z" fill="white"/>
<path d="M2828 671C2900.6 671 2973.2 671 3048 671C3048 757.13 3048 843.26 3048 932C3006.75 932 2965.5 932 2923 932C2914.97 911.344 2914.97 911.344 2911.25 900.996C2910.83 899.847 2910.42 898.697 2909.99 897.513C2908.89 894.454 2907.79 891.394 2906.68 888.335C2904.81 883.126 2902.92 877.92 2901.04 872.714C2900.34 870.764 2899.63 868.814 2898.93 866.864C2895.19 856.504 2891.42 846.155 2887.62 835.812C2887.04 834.228 2886.46 832.643 2885.88 831.058C2884.97 828.555 2884.05 826.051 2883.13 823.548C2878.52 810.954 2873.92 798.354 2869.32 785.755C2868.56 783.693 2867.81 781.631 2867.06 779.569C2862.17 766.186 2857.29 752.802 2852.43 739.41C2852.08 738.454 2851.73 737.498 2851.37 736.513C2850.05 732.876 2848.73 729.239 2847.41 725.601C2844.02 716.254 2840.61 706.917 2837.13 697.602C2836.82 696.771 2836.51 695.941 2836.19 695.085C2834.74 691.18 2833.28 687.277 2831.81 683.376C2831.3 682.019 2830.79 680.662 2830.28 679.305C2829.84 678.129 2829.4 676.953 2828.94 675.742C2828 673 2828 673 2828 671Z" fill="white"/>
<path d="M2586 671C2629.56 671 2673.12 671 2718 671C2718 757.13 2718 843.26 2718 932C2674.44 932 2630.88 932 2586 932C2586 845.87 2586 759.74 2586 671Z" fill="white"/>
<path d="M1252 671C1295.56 671 1339.12 671 1384 671C1384 757.13 1384 843.26 1384 932C1340.44 932 1296.88 932 1252 932C1252 845.87 1252 759.74 1252 671Z" fill="white"/>
<path d="M464 671C507.56 671 551.12 671 596 671C596 757.13 596 843.26 596 932C552.44 932 508.88 932 464 932C464 845.87 464 759.74 464 671Z" fill="white"/>
<path d="M0 671C43.56 671 87.12 671 132 671C132 757.13 132 843.26 132 932C88.44 932 44.88 932 0 932C0 845.87 0 759.74 0 671Z" fill="white"/>
<path d="M719 671C760.25 671 801.5 671 844 671C840.97 687.97 837.909 704.907 834.562 721.812C833.969 724.824 833.377 727.836 832.785 730.847C832.395 732.828 832.005 734.808 831.615 736.788C830.038 744.793 828.483 752.801 826.938 760.812C825.313 769.23 823.68 777.646 822.031 786.059C821.333 789.622 820.635 793.186 819.938 796.75C819.679 798.071 819.679 798.071 819.415 799.419C817.137 811.058 814.894 822.701 812.81 834.376C811.555 841.311 810.13 848.205 808.68 855.102C806.142 867.184 803.778 879.297 801.46 891.423C800.804 894.856 800.145 898.288 799.486 901.721C799.06 903.945 798.633 906.17 798.207 908.395C798.014 909.4 797.822 910.405 797.623 911.441C797.439 912.404 797.255 913.367 797.066 914.359C796.888 915.285 796.711 916.212 796.529 917.167C795.8 921.073 795.125 924.987 794.458 928.904C794 931 794 931 793 932C791.292 932.096 789.579 932.122 787.869 932.12C786.756 932.122 785.644 932.123 784.499 932.124C782.653 932.119 782.653 932.119 780.769 932.114C779.482 932.114 778.194 932.114 776.867 932.114C773.326 932.114 769.785 932.108 766.244 932.101C762.547 932.095 758.85 932.095 755.153 932.093C748.148 932.09 741.143 932.082 734.137 932.072C726.164 932.061 718.191 932.055 710.218 932.05C693.812 932.04 677.406 932.022 661 932C661.549 927.505 662.101 923.105 663.094 918.684C663.315 917.692 663.536 916.701 663.764 915.68C664.128 914.075 664.128 914.075 664.5 912.438C664.758 911.286 665.017 910.135 665.283 908.949C667.839 897.609 670.466 886.285 673.088 874.96C676.235 861.368 679.307 847.763 682.307 834.138C683.006 830.973 683.711 827.811 684.418 824.648C686.592 814.921 688.751 805.191 690.84 795.445C694.36 779.029 697.974 762.644 701.794 746.295C706.104 727.826 710.109 709.29 714.103 690.75C714.48 689.006 714.48 689.006 714.865 687.226C715.341 685.023 715.815 682.82 716.287 680.616C716.498 679.64 716.71 678.663 716.928 677.657C717.112 676.802 717.295 675.947 717.485 675.066C718 673 718 673 719 671Z" fill="white"/>
<path d="M1000 671C1041.25 671 1082.5 671 1125 671C1127.25 678.876 1127.25 678.876 1127.96 681.946C1128.12 682.639 1128.28 683.333 1128.44 684.047C1128.61 684.779 1128.78 685.511 1128.95 686.266C1129.14 687.057 1129.32 687.849 1129.51 688.665C1129.89 690.345 1130.28 692.026 1130.67 693.708C1131.23 696.174 1131.8 698.64 1132.37 701.105C1137.19 722.016 1141.79 742.976 1146.34 763.948C1150.54 783.322 1154.79 802.678 1159.3 821.983C1162.16 834.221 1164.86 846.485 1167.49 858.775C1170.48 872.786 1173.67 886.748 1176.94 900.697C1183 926.579 1183 926.579 1183 932C1139.44 932 1095.88 932 1051 932C1040.36 880.905 1040.36 880.905 1036.75 861.277C1034.47 848.927 1031.94 836.623 1029.46 824.31C1025.96 806.888 1022.46 789.467 1019.19 772C1019.05 771.274 1018.92 770.548 1018.78 769.8C1018.24 766.952 1017.71 764.104 1017.18 761.256C1015.69 753.311 1014.16 745.373 1012.62 737.438C1012.49 736.718 1012.35 735.999 1012.2 735.258C1010.38 725.859 1008.49 716.475 1006.56 707.098C1006.35 706.091 1006.14 705.084 1005.93 704.047C1004.91 699.085 1003.88 694.125 1002.84 689.166C1002.47 687.361 1002.1 685.555 1001.72 683.75C1001.55 682.923 1001.37 682.095 1001.19 681.243C1000.47 677.731 1000 674.601 1000 671Z" fill="white"/>
</g>
<defs>
<clipPath id="clip0_441_551">
<rect width="4013" height="942" fill="white"/>
</clipPath>
</defs>
</svg>
