<svg id="Layer_1" xmlns="http://www.w3.org/2000/svg" viewBox="0 0 254 123.8">
    <defs>
        <style>.cls-1{fill:#fff;}</style>
    </defs>
    <g>
        <polygon class="cls-1" points="54.4 105.3 70.4 105.3 70.4 98.2 61.5 98.2 61.5 72 70.4 72 70.4 64.9 61.5 64.9 61.5 43.1 70.4 43.1 70.4 36 54.4 36 54.4 105.3" />
        <polygon class="cls-1" points="38.4 45.1 32.5 59.1 26.5 45.1 26.5 36 19.4 36 19.4 105.3 26.5 105.3 26.5 63 32.5 77 38.4 63 38.4 105.3 45.5 105.3 45.5 36 38.4 36 38.4 45.1" />
    </g>
    <g>
        <path class="cls-1" d="M119,43.2c-2,0-3.5,1.6-3.5,3.5v25.3h7v-25.3c0-2-1.6-3.5-3.5-3.5Z" />
        <path class="cls-1" d="M178.8,43.2c-1.9,0-3.5,1.5-3.5,3.5v48c0,1.9,1.5,3.5,3.5,3.5,1.9,0,3.5-1.5,3.5-3.5V46.7c0-1.9-1.5-3.5-3.5-3.5Z" />
        <path class="cls-1" d="M0,0V123.8H254V0H0ZM74.4,109H14.4V14.8h60V109Zm26.1-61.1h-7.1s0,.1,0-4.8h-3.5c-2,0-3.5,1.6-3.5,3.5v48c0,2,1.6,3.5,3.5,3.5h3.5v-19.2h-3.5v-7.1h10.6v33.3h-10.6c-5.9,0-10.6-4.8-10.6-10.6V46.7c0-5.9,4.8-10.6,10.6-10.6h10.6v11.8Zm29,57.4h-7.1v-26.2h-7.1v26.2h-7.1V46.7h.1c0-5.9,4.8-10.6,10.6-10.6s10.6,4.8,10.6,10.6v58.6Zm30.2-14.2c0,7.9-6.4,14.2-14.2,14.2h-7.1V36h7v62.2c3.9,0,7.1-3.2,7.1-7.1V36h7.2v55.1Zm29.6,3.6c0,5.8-4.8,10.6-10.6,10.6s-10.6-4.7-10.6-10.6V46.7c0-5.8,4.8-10.6,10.6-10.6s10.6,4.7,10.6,10.6v48Zm27,10.6h-19V36h7.1v62.2h11.9v7.1Zm22.9-62.2h-7v62.2h-7.1V43.1h-7.1v-7.1h21.2v7.1Z" />
    </g>
</svg>