<svg width="458" height="369" viewBox="0 0 458 369" fill="none" xmlns="http://www.w3.org/2000/svg">
<g clip-path="url(#clip0_453_531)">
<path fill-rule="evenodd" clip-rule="evenodd" d="M192.57 20C201.37 32 199.04 50 187.85 56.82C180.58 61.26 178.21 60.41 175.15 52.26C173.75 48.53 174.03 43.56 175.15 39.62C177.77 30.52 184.24 24.33 192.54 20" fill="white"/>
<path fill-rule="evenodd" clip-rule="evenodd" d="M128.8 41.61C138.19 38.49 147.4 38.16 156.04 43.96C161.87 47.88 165.26 56.42 162.98 60.64C161.2 63.94 152.39 65.91 146.56 64.3C136.81 61.6 128.64 51.3 128.8 41.61Z" fill="white"/>
<path fill-rule="evenodd" clip-rule="evenodd" d="M156.09 0.160141C168.51 6.80014 174.9 18.3701 171.32 29.1601C170.09 32.8701 166.77 37.8901 163.71 38.4501C160.65 39.0101 155.65 35.6301 153.11 32.6201C146.4 24.7001 148.11 9.88014 156.11 0.140137" fill="white"/>
<path fill-rule="evenodd" clip-rule="evenodd" d="M180 117.57H169.44V53.8L169.78 53.5L179.08 93.26L193.49 79C189.49 92.15 177.97 102.23 179.99 117.55" fill="white"/>
<path fill-rule="evenodd" clip-rule="evenodd" d="M134.16 86.9999C142.68 84.0999 150.53 84.2399 157.91 89.0499C161.91 91.6399 165.11 98.2399 164.01 100.93C162.91 103.62 155.53 105.61 150.7 104.35C142.27 102.18 136.7 96.4899 134.16 86.9999Z" fill="white"/>
<path fill-rule="evenodd" clip-rule="evenodd" d="M217.85 57.3901C217.69 68.5701 211.19 75.9201 203.27 75.7301C199.66 75.6401 198.36 74.0701 198.62 70.5701C198.742 68.4741 199.468 66.4581 200.71 64.7653C201.952 63.0726 203.657 61.7753 205.62 61.0301C209.29 59.4301 213.34 58.6901 217.86 57.3901" fill="white"/>
<path d="M18.0002 136.45H18.3302C20.1796 133.057 22.9537 130.259 26.3302 128.38C30.3117 126.11 34.8385 124.972 39.4202 125.09C43.8546 125.011 48.2571 125.852 52.3502 127.56C56.1436 129.213 59.0802 132.45 61.1602 137.27C62.8002 133.977 65.9002 131.123 70.4602 128.71C75.2157 126.25 80.5067 125.006 85.8602 125.09C94.4202 125.09 101.17 127.423 106.11 132.09C111.05 136.757 113.52 143.04 113.52 150.94V211L97.7102 213.63V153.9C97.7764 150.22 96.7308 146.606 94.7102 143.53C92.7102 140.57 89.1969 139.09 84.1702 139.09C79.4482 138.937 74.8384 140.548 71.2402 143.61C69.5411 145.088 68.1941 146.927 67.2978 148.993C66.4015 151.059 65.9786 153.299 66.0602 155.55V211L50.2502 213.63V153.9C50.3163 150.22 49.2708 146.606 47.2502 143.53C45.2502 140.57 41.7369 139.09 36.7102 139.09C34.355 139.078 32.015 139.467 29.7902 140.24C27.6808 140.965 25.7267 142.081 24.0302 143.53C22.3556 144.968 20.9942 146.734 20.0302 148.72C19.0193 150.853 18.5129 153.19 18.5502 155.55V211L2.74023 213.63V127.63L18.0002 125.09V136.45Z" fill="white"/>
<path d="M170.83 213.67C164.716 213.728 158.652 212.555 153 210.22C147.649 208.003 142.784 204.759 138.68 200.67C134.625 196.614 131.36 191.84 129.05 186.59C126.666 181.169 125.459 175.303 125.51 169.38C125.465 163.432 126.671 157.542 129.05 152.09C133.65 141.397 142.271 132.942 153.05 128.55C161.412 125.083 170.607 124.147 179.496 125.859C188.385 127.571 196.575 131.855 203.05 138.18C207.129 142.217 210.397 146.996 212.68 152.26C215.044 157.657 216.25 163.489 216.22 169.38C216.242 175.193 215.094 180.95 212.845 186.31C210.596 191.67 207.293 196.523 203.13 200.58C198.937 204.637 194.023 207.876 188.64 210.13C183.005 212.505 176.946 213.71 170.83 213.67ZM170.83 198.85C174.85 198.882 178.833 198.071 182.52 196.47C186.032 194.956 189.217 192.775 191.9 190.05C194.553 187.337 196.676 184.152 198.16 180.66C199.665 177.108 200.446 173.291 200.46 169.433C200.474 165.575 199.719 161.753 198.24 158.19C196.779 154.707 194.688 151.524 192.07 148.8C189.379 146.024 186.159 143.814 182.6 142.3C178.827 140.69 174.763 139.876 170.66 139.91C166.73 139.885 162.836 140.668 159.22 142.21C155.734 143.698 152.572 145.851 149.91 148.55C147.261 151.264 145.141 154.449 143.66 157.94C142.111 161.554 141.325 165.448 141.35 169.38C141.333 173.251 142.092 177.087 143.58 180.66C146.484 187.772 152.075 193.453 159.14 196.47C162.827 198.073 166.81 198.884 170.83 198.85Z" fill="white"/>
<path d="M244.42 185.35C246.867 189.339 250.191 192.718 254.14 195.23C258.09 197.678 262.663 198.935 267.31 198.85C269.303 198.84 271.291 198.622 273.24 198.2C275.582 197.677 277.87 196.93 280.07 195.97C282.921 194.73 285.672 193.273 288.3 191.61C291.786 189.416 295.126 186.997 298.3 184.37L301.39 201C296.457 204.436 291.253 207.466 285.83 210.06C280.328 212.556 274.34 213.793 268.3 213.68C262.171 213.748 256.092 212.574 250.43 210.23C245.143 208.026 240.374 204.743 236.43 200.59C232.436 196.335 229.329 191.328 227.29 185.86C225.04 179.857 223.925 173.49 224 167.08C223.986 161.639 225.107 156.254 227.29 151.27C229.449 146.287 232.499 141.739 236.29 137.85C240.089 133.948 244.587 130.794 249.55 128.55C254.611 126.238 260.115 125.058 265.68 125.09C274.68 125.09 282.036 127.067 287.75 131.02C293.463 134.973 298.546 140.633 303 148L244.42 185.35ZM281.3 145.35C279.567 143.353 277.318 141.873 274.8 141.07C272.157 140.276 269.409 139.888 266.65 139.92C262.997 139.901 259.377 140.608 256 142C252.814 143.301 249.908 145.202 247.44 147.6C244.974 150.029 243.04 152.944 241.76 156.16C240.357 159.638 239.657 163.36 239.7 167.11V169.25C239.695 170.076 239.748 170.901 239.86 171.72L281.3 145.35Z" fill="white"/>
<path d="M331.19 137.44H331.52C333.864 133.226 337.554 129.92 342 128.05C346.488 126.077 351.337 125.056 356.24 125.05C366.24 125.05 374.2 127.573 380.12 132.62C386.04 137.667 389 144.653 389 153.58V211L373.19 213.63V154.89C373.19 149.95 371.6 146.08 368.42 143.28C365.24 140.48 360.683 139.083 354.75 139.09C347.716 139.09 342.05 141.283 337.75 145.67C333.45 150.057 331.263 156.167 331.19 164V211L315.39 213.63V127.63L331.19 125V137.44Z" fill="white"/>
<path d="M445.63 147.15C444.97 146.39 444.14 145.54 443.16 144.6C440.922 142.531 438.29 140.936 435.42 139.91C433.777 139.344 432.048 139.067 430.31 139.09C427.851 138.989 425.395 139.352 423.07 140.16C421.57 140.714 420.206 141.584 419.07 142.71C418.19 143.6 417.562 144.707 417.25 145.92C416.991 146.971 416.853 148.048 416.84 149.13C416.84 152.637 418.104 155.243 420.63 156.95C423.823 158.929 427.33 160.349 431 161.15C434.3 162.03 437.53 162.96 440.72 163.95C443.78 164.882 446.671 166.3 449.28 168.15C451.89 170.064 454.006 172.573 455.45 175.47C457.037 178.55 457.834 182.55 457.84 187.47C457.837 190.863 457.157 194.222 455.84 197.35C454.528 200.541 452.535 203.408 450 205.75C447.294 208.242 444.138 210.197 440.7 211.51C436.755 212.995 432.565 213.721 428.35 213.65C422.93 213.709 417.562 212.586 412.62 210.36C407.513 207.889 403.08 204.218 399.7 199.66L410.57 190.44C412.731 193.066 415.284 195.343 418.14 197.19C421.135 198.928 424.56 199.784 428.02 199.66C431.522 199.758 434.97 198.781 437.9 196.86C439.204 196.015 440.267 194.847 440.985 193.47C441.704 192.092 442.053 190.552 442 189C442 184.833 440.464 181.733 437.39 179.7C434.317 177.667 429.434 175.83 422.74 174.19C419.831 173.47 416.971 172.562 414.18 171.47C411.656 170.499 409.316 169.106 407.26 167.35C405.248 165.594 403.671 163.397 402.65 160.93C401.474 157.915 400.916 154.695 401.01 151.46C400.97 147.818 401.668 144.205 403.06 140.84C404.366 137.711 406.299 134.883 408.74 132.53C411.218 130.181 414.128 128.337 417.31 127.1C420.715 125.751 424.348 125.072 428.01 125.1C433.005 124.965 437.971 125.892 442.58 127.82C447.212 130.08 451.417 133.125 455.01 136.82L445.63 147.15Z" fill="white"/>
<path d="M34.3104 268.65L29.5304 269.01C31.4522 270.242 33.0338 271.937 34.1304 273.94C35.1542 275.814 35.6907 277.915 35.6904 280.05C35.7382 282.731 34.9558 285.361 33.4504 287.58C31.7184 289.923 29.3262 291.695 26.5804 292.67C29.3823 293.589 31.8286 295.358 33.5804 297.73C35.1394 300.013 35.9469 302.726 35.8904 305.49C35.9133 307.447 35.5143 309.387 34.7206 311.176C33.9268 312.966 32.7569 314.563 31.2904 315.86C28.2171 318.706 24.1538 320.133 19.1004 320.14C16.4744 320.199 13.8702 319.652 11.4904 318.54C9.1984 317.352 7.1947 315.676 5.62043 313.63L7.30043 309.91C8.27351 311.975 9.82669 313.712 11.7704 314.91C13.9719 316.313 16.5406 317.03 19.1504 316.97C22.6307 317.129 26.0322 315.903 28.6104 313.56C29.7581 312.538 30.6746 311.284 31.2988 309.88C31.9231 308.477 32.2407 306.956 32.2304 305.42C32.2689 303.915 31.9499 302.423 31.2998 301.065C30.6497 299.707 29.6869 298.523 28.4904 297.61C25.969 295.608 22.8291 294.547 19.6104 294.61C15.8177 294.554 12.1445 295.936 9.33043 298.48L7.15043 295.93C8.71531 294.325 10.6792 293.165 12.8404 292.57C10.4576 291.62 8.42054 289.966 7.00043 287.83C5.52064 285.66 4.74547 283.086 4.78043 280.46C4.75941 277.925 5.41162 275.43 6.67043 273.23C7.97984 270.957 9.94592 269.134 12.3104 268C14.8588 266.716 17.6773 266.061 20.5304 266.09C22.2144 266.109 23.8912 266.314 25.5304 266.7L35.9104 265.53L34.3104 268.65ZM19.3004 291C21.6222 291.033 23.9262 290.591 26.0704 289.7C27.9578 288.931 29.5467 287.574 30.6004 285.83C31.6261 284.082 32.152 282.086 32.1204 280.06C32.1204 276.6 30.9404 273.98 28.5604 272.2C26.1379 270.403 23.186 269.463 20.1704 269.53C16.9972 269.364 13.8842 270.44 11.4904 272.53C10.4406 273.495 9.6093 274.673 9.05221 275.985C8.49512 277.298 8.22516 278.714 8.26043 280.14C8.2134 281.581 8.46546 283.016 9.00072 284.355C9.53598 285.694 10.3428 286.908 11.3704 287.92C12.4155 288.942 13.6571 289.742 15.02 290.272C16.383 290.801 17.8391 291.049 19.3004 291Z" fill="white"/>
<path d="M67.2303 305.33V300.4C66.0137 302.238 64.3385 303.727 62.3703 304.72C60.5083 305.656 58.4541 306.145 56.3703 306.15C53.7003 306.136 51.094 305.333 48.8787 303.842C46.6634 302.352 44.9378 300.24 43.9186 297.772C42.8994 295.304 42.632 292.59 43.1501 289.971C43.6681 287.352 44.9484 284.944 46.8303 283.05C48.1199 281.762 49.6583 280.75 51.3518 280.076C53.0453 279.402 54.8583 279.08 56.6803 279.13C58.6982 279.057 60.7019 279.494 62.5059 280.401C64.3098 281.309 65.8557 282.656 67.0003 284.32V276.64C67.077 275.188 66.9423 273.733 66.6003 272.32C66.2858 271.492 65.667 270.816 64.8703 270.43C63.2677 269.734 61.5247 269.422 59.7803 269.52C58.1536 269.52 56.1536 269.637 53.7803 269.87L54.9503 266.52C56.8691 266.224 58.809 266.087 60.7503 266.11C64.2703 266.11 66.797 266.83 68.3303 268.27C69.8503 269.71 70.6203 272.06 70.6203 275.32V304.11L67.2303 305.33ZM56.5403 303C57.9449 303.034 59.342 302.786 60.6491 302.271C61.9562 301.755 63.1467 300.983 64.1503 300C65.1569 299.062 65.9556 297.923 66.4947 296.657C67.0339 295.391 67.3015 294.026 67.2803 292.65C67.2964 291.28 67.0294 289.922 66.4959 288.661C65.9625 287.4 65.1741 286.262 64.1803 285.32C63.1749 284.331 61.9798 283.555 60.6668 283.039C59.3539 282.524 57.9502 282.279 56.5403 282.32C55.1888 282.272 53.8419 282.503 52.5828 282.996C51.3238 283.49 50.1794 284.236 49.2203 285.19C48.272 286.158 47.5304 287.309 47.0405 288.572C46.5505 289.836 46.3225 291.186 46.3703 292.54C46.3275 293.927 46.5639 295.308 47.0655 296.601C47.5671 297.895 48.3237 299.075 49.2903 300.07C50.23 301.034 51.3596 301.792 52.6076 302.296C53.8557 302.801 55.1948 303.04 56.5403 303Z" fill="white"/>
<path d="M82.7001 267.84L86.3102 266.62V272.62C87.3651 270.701 88.8634 269.062 90.6801 267.84C92.6091 266.73 94.7766 266.098 97.0002 266V270.12C95.356 270.023 93.71 270.276 92.1702 270.86C90.8706 271.438 89.7412 272.34 88.8902 273.48C87.8375 274.872 87.0819 276.464 86.6702 278.16C86.3536 279.577 86.2192 281.029 86.2702 282.48V304.1L82.6602 305.32L82.7001 267.84Z" fill="white"/>
<path d="M137.59 230.8L141.25 229.58V304.11L137.59 305.33V297.55C135.82 300.23 133.416 302.432 130.59 303.96C126.807 305.965 122.481 306.704 118.247 306.066C114.013 305.429 110.095 303.45 107.07 300.42C103.335 296.575 101.245 291.426 101.245 286.065C101.245 280.704 103.335 275.555 107.07 271.71C109.724 268.976 113.116 267.074 116.834 266.237C120.551 265.401 124.431 265.666 128 267C130.051 267.744 131.966 268.818 133.67 270.18C135.161 271.485 136.502 272.95 137.67 274.55L137.59 230.8ZM121.16 269.26C118.331 269.27 115.552 270.007 113.09 271.4C110.484 272.835 108.353 275.001 106.96 277.63C105.498 280.25 104.727 283.2 104.72 286.2C104.716 289.146 105.463 292.044 106.89 294.62C108.276 297.235 110.396 299.387 112.99 300.81C115.498 302.229 118.329 302.98 121.21 302.99C125.17 303.005 129.003 301.588 132 299C133.924 297.461 135.466 295.499 136.506 293.267C137.547 291.035 138.058 288.592 138 286.13C138.01 283.918 137.582 281.726 136.743 279.679C135.904 277.632 134.669 275.771 133.109 274.202C131.55 272.633 129.696 271.387 127.654 270.536C125.612 269.684 123.423 269.244 121.21 269.24L121.16 269.26Z" fill="white"/>
<path d="M186.53 274.35L155.29 292.92C156.642 295.843 158.704 298.38 161.29 300.3C163.915 302.161 167.072 303.123 170.29 303.04C172.479 303.061 174.652 302.675 176.7 301.9C178.953 300.966 181.048 299.687 182.91 298.11V302.33C179.33 304.963 174.993 306.366 170.55 306.33C167.909 306.335 165.293 305.819 162.851 304.811C160.41 303.803 158.193 302.322 156.325 300.455C154.458 298.587 152.977 296.369 151.969 293.928C150.961 291.487 150.444 288.871 150.45 286.23C150.426 282.644 151.351 279.115 153.13 276C154.886 272.873 157.498 270.313 160.66 268.62C163.749 266.9 167.224 265.992 170.76 265.98C173.768 265.969 176.735 266.682 179.41 268.06C182.246 269.565 184.686 271.721 186.53 274.35ZM154.17 290L181.34 273.72C180.042 272.252 178.423 271.102 176.61 270.36C174.741 269.58 172.735 269.182 170.71 269.19C167.79 269.21 164.925 269.981 162.39 271.43C159.733 272.879 157.538 275.049 156.06 277.69C154.582 280.186 153.792 283.029 153.77 285.93C153.794 287.295 153.928 288.656 154.17 290Z" fill="white"/>
<path d="M221.33 304.11L217.72 305.33V279.13C217.794 277.799 217.59 276.468 217.122 275.219C216.653 273.971 215.931 272.834 215 271.88C212.991 270.066 210.344 269.123 207.64 269.26C205.452 269.278 203.31 269.886 201.44 271.02C199.519 272.105 197.968 273.743 196.99 275.72C196.031 277.65 195.535 279.776 195.54 281.93V304.11L191.92 305.33V267.84L195.54 266.62V272.52C198.833 268.014 202.937 265.757 207.85 265.75C211.204 265.708 214.479 266.762 217.18 268.75C219.947 270.75 221.33 273.81 221.33 277.93V304.11Z" fill="white"/>
<path d="M289.65 269.42L288.94 272.77C287.072 271.683 285.095 270.798 283.04 270.13C281.256 269.611 279.407 269.351 277.55 269.36C275.329 269.294 273.118 269.682 271.052 270.498C268.985 271.315 267.107 272.544 265.531 274.11C263.956 275.677 262.716 277.548 261.887 279.609C261.058 281.67 260.657 283.879 260.71 286.1C260.681 289.101 261.432 292.057 262.89 294.68C264.335 297.255 266.468 299.378 269.05 300.81C271.506 302.246 274.295 303.015 277.14 303.04C281.58 303.04 285.913 301.293 290.14 297.8V301.8C286.464 304.676 281.937 306.252 277.27 306.28C273.758 306.265 270.312 305.334 267.27 303.58C264.1 301.84 261.497 299.227 259.77 296.05C258.03 292.985 257.107 289.524 257.09 286C257.093 282.49 258.017 279.042 259.77 276C261.497 272.892 264.084 270.347 267.22 268.67C270.389 266.947 273.943 266.056 277.55 266.08C279.542 266.069 281.526 266.324 283.45 266.84C285.607 267.463 287.687 268.329 289.65 269.42Z" fill="white"/>
<path d="M329.29 274.35L298.05 292.92C299.399 295.845 301.462 298.383 304.05 300.3C306.675 302.163 309.833 303.124 313.05 303.04C315.239 303.06 317.413 302.674 319.46 301.9C321.71 300.963 323.801 299.685 325.66 298.11V302.33C322.081 304.964 317.744 306.368 313.3 306.33C310.66 306.334 308.045 305.817 305.605 304.808C303.165 303.799 300.949 302.319 299.082 300.451C297.216 298.584 295.736 296.366 294.729 293.926C293.721 291.486 293.205 288.87 293.21 286.23C293.187 282.644 294.112 279.115 295.89 276C297.646 272.873 300.259 270.313 303.42 268.62C306.509 266.899 309.984 265.99 313.52 265.98C316.526 265.968 319.49 266.681 322.16 268.06C325 269.565 327.443 271.72 329.29 274.35ZM296.93 290L324.1 273.72C322.801 272.254 321.183 271.105 319.37 270.36C317.498 269.58 315.489 269.182 313.46 269.19C310.544 269.212 307.682 269.983 305.15 271.43C302.493 272.882 300.296 275.051 298.81 277.69C297.337 280.188 296.548 283.03 296.52 285.93C296.549 287.296 296.686 288.656 296.93 290Z" fill="white"/>
<path d="M364.09 304.11L360.47 305.33V279.13C360.546 277.799 360.343 276.466 359.875 275.218C359.406 273.97 358.683 272.833 357.75 271.88C356.757 270.981 355.597 270.287 354.336 269.837C353.075 269.388 351.737 269.191 350.4 269.26C348.209 269.276 346.063 269.884 344.19 271.02C342.271 272.108 340.721 273.745 339.74 275.72C338.785 277.651 338.289 279.776 338.29 281.93V304.11L334.68 305.33V267.84L338.29 266.62V272.52C341.576 268.013 345.68 265.757 350.6 265.75C353.956 265.71 357.235 266.763 359.94 268.75C362.7 270.75 364.083 273.81 364.09 277.93V304.11Z" fill="white"/>
<path d="M377.87 255.63L381.48 254.46V267.46H392.93V270.82H381.48V293.36C381.48 296.747 382.1 299.103 383.34 300.43C384.58 301.757 386.523 302.423 389.17 302.43C390.766 302.422 392.354 302.217 393.9 301.82L392.83 305.33C391.497 305.654 390.131 305.826 388.76 305.84C385.16 305.84 382.446 304.917 380.62 303.07C378.793 301.223 377.876 298.28 377.87 294.24V270.84H374.26L375.26 267.48H377.9L377.87 255.63Z" fill="white"/>
<path d="M433.53 274.35L402.29 292.92C403.642 295.843 405.704 298.38 408.29 300.3C410.915 302.161 414.072 303.123 417.29 303.04C419.479 303.061 421.652 302.675 423.7 301.9C425.953 300.966 428.048 299.687 429.91 298.11V302.33C426.329 304.962 421.993 306.365 417.55 306.33C414.909 306.335 412.292 305.819 409.851 304.811C407.41 303.803 405.193 302.322 403.325 300.455C401.458 298.587 399.977 296.369 398.969 293.928C397.961 291.487 397.444 288.871 397.45 286.23C397.426 282.644 398.351 279.115 400.13 276C401.886 272.873 404.498 270.313 407.66 268.62C410.749 266.9 414.224 265.992 417.76 265.98C420.768 265.969 423.735 266.682 426.41 268.06C429.244 269.568 431.684 271.723 433.53 274.35ZM401.17 290L428.34 273.72C427.04 272.254 425.422 271.105 423.61 270.36C421.741 269.58 419.735 269.182 417.71 269.19C414.79 269.21 411.925 269.981 409.39 271.43C406.733 272.879 404.538 275.049 403.06 277.69C401.582 280.186 400.792 283.029 400.77 285.93C400.794 287.295 400.928 288.656 401.17 290Z" fill="white"/>
<path d="M439.53 267.84L443.15 266.62V272.62C444.202 270.699 445.701 269.059 447.52 267.84C449.462 266.727 451.644 266.099 453.88 266.01V270.13C452.236 270.033 450.59 270.285 449.05 270.87C447.751 271.448 446.621 272.35 445.77 273.49C444.718 274.881 443.962 276.474 443.55 278.17C443.234 279.587 443.099 281.039 443.15 282.49V304.11L439.53 305.33V267.84Z" fill="white"/>
<path d="M451.96 240.59H2.96973" stroke="white" stroke-width="5.23" stroke-miterlimit="10" stroke-linecap="round" stroke-dasharray="9.42 26.38"/>
<path d="M5.68 342.54L8.12 351.92C8.66 353.98 9.12 355.92 9.49 357.79H9.61C10.03 355.92 10.61 353.94 11.25 351.96L14.25 342.54H17.07L19.93 351.77C20.61 353.98 21.15 355.92 21.57 357.77H21.68C22.0401 355.746 22.5108 353.743 23.09 351.77L25.72 342.5H29.04L23.1 361H20.1L17.28 352.2C16.6313 350.209 16.084 348.186 15.64 346.14H15.57C15.127 348.204 14.566 350.24 13.89 352.24L10.89 361H7.82L2.25 342.55L5.68 342.54Z" fill="white"/>
<path d="M34.3102 342.54L36.7502 351.92C37.2802 353.98 37.7502 355.92 38.1202 357.79H38.2302C38.6502 355.92 39.2302 353.94 39.8702 351.96L42.8702 342.54H45.6902L48.5502 351.77C49.2402 353.98 49.7702 355.92 50.1902 357.77H50.3102C50.6656 355.745 51.1364 353.742 51.7202 351.77L54.3502 342.5H57.6602L51.7302 361H48.7302L45.9102 352.2C45.2615 350.209 44.7142 348.186 44.2702 346.14H44.1902C43.7472 348.204 43.1862 350.24 42.5102 352.24L39.5102 361H36.5102L30.9502 342.55L34.3102 342.54Z" fill="white"/>
<path d="M62.93 342.54L65.37 351.92C65.91 353.98 66.37 355.92 66.74 357.79H66.86C67.28 355.92 67.86 353.94 68.5 351.96L71.5 342.54H74.32L77.18 351.77C77.86 353.98 78.4 355.92 78.82 357.77H78.93C79.2901 355.746 79.7608 353.743 80.34 351.77L82.97 342.5H86.29L80.29 360.95H77.29L74.47 352.15C73.8213 350.159 73.2739 348.136 72.83 346.09H72.76C72.3169 348.154 71.756 350.19 71.08 352.19L68.08 360.95H65.03L59.46 342.5L62.93 342.54Z" fill="white"/>
<path d="M86.87 359C86.8492 358.689 86.8933 358.377 86.9995 358.083C87.1057 357.79 87.2718 357.522 87.4871 357.296C87.7025 357.071 87.9624 356.892 88.2504 356.772C88.5384 356.652 88.8482 356.594 89.16 356.6C89.7966 356.6 90.407 356.853 90.8571 357.303C91.3072 357.753 91.56 358.364 91.56 359C91.56 359.637 91.3072 360.247 90.8571 360.697C90.407 361.147 89.7966 361.4 89.16 361.4C88.8477 361.408 88.5373 361.35 88.2486 361.231C87.9598 361.112 87.6993 360.933 87.4836 360.707C87.268 360.481 87.102 360.212 86.9963 359.918C86.8906 359.624 86.8476 359.312 86.87 359Z" fill="white"/>
<path d="M110.65 342.54C110.58 343.88 110.5 345.36 110.5 347.61V358.32C110.5 362.55 109.66 365.15 107.87 366.75C105.988 368.299 103.594 369.087 101.16 368.96C99.0124 369.016 96.8899 368.487 95.0199 367.43L95.8599 364.88C97.5006 365.848 99.3749 366.35 101.28 366.33C104.71 366.33 107.22 364.54 107.22 359.89V357.83H107.15C106.531 358.816 105.661 359.622 104.631 360.164C103.6 360.707 102.444 360.968 101.28 360.92C96.6999 360.92 93.4199 357.03 93.4199 351.92C93.4199 345.67 97.4999 342.13 101.73 342.13C102.895 342.059 104.056 342.323 105.076 342.89C106.097 343.457 106.934 344.303 107.49 345.33H107.57L107.72 342.54H110.65ZM107.18 349.82C107.203 349.306 107.139 348.792 106.99 348.3C106.706 347.276 106.093 346.375 105.245 345.735C104.397 345.095 103.362 344.752 102.3 344.76C99.0999 344.76 96.8199 347.46 96.8199 351.76C96.8199 355.38 98.6499 358.39 102.27 358.39C103.308 358.385 104.319 358.05 105.154 357.433C105.99 356.817 106.608 355.951 106.92 354.96C107.099 354.38 107.187 353.776 107.18 353.17V349.82Z" fill="white"/>
<path d="M125.63 361L125.36 358.68H125.25C124.595 359.552 123.742 360.255 122.762 360.732C121.781 361.208 120.7 361.444 119.61 361.42C118.884 361.474 118.155 361.377 117.469 361.134C116.783 360.891 116.155 360.509 115.625 360.01C115.094 359.512 114.673 358.909 114.388 358.239C114.104 357.569 113.961 356.848 113.97 356.12C113.97 351.66 117.97 349.22 125.06 349.26V348.88C125.06 347.36 124.64 344.61 120.87 344.61C119.172 344.618 117.508 345.092 116.06 345.98L115.3 343.77C117.13 342.674 119.228 342.11 121.36 342.14C127 342.14 128.36 345.98 128.36 349.68V356.58C128.334 358.059 128.434 359.538 128.66 361H125.63ZM125.14 351.59C121.48 351.51 117.32 352.16 117.32 355.74C117.291 356.165 117.353 356.591 117.501 356.991C117.65 357.39 117.882 357.754 118.182 358.056C118.482 358.359 118.843 358.595 119.241 358.747C119.639 358.899 120.065 358.965 120.49 358.94C121.464 358.965 122.42 358.68 123.222 358.126C124.023 357.573 124.629 356.779 124.95 355.86C125.066 355.514 125.13 355.154 125.14 354.79V351.59Z" fill="white"/>
<path d="M133.1 348.3C133.1 346.13 133.1 344.3 132.95 342.54H135.88L136 346.17H136.15C136.472 345.05 137.139 344.06 138.057 343.341C138.974 342.623 140.096 342.213 141.26 342.17C141.597 342.157 141.934 342.194 142.26 342.28V345.44C141.885 345.363 141.503 345.326 141.12 345.33C138.75 345.33 137.12 347.12 136.62 349.64C136.525 350.155 136.475 350.676 136.47 351.2V361H133.1V348.3Z" fill="white"/>
<path d="M160.81 333.93V356.23C160.81 357.87 160.81 359.73 160.96 360.99H157.96L157.81 357.79H157.73C157.13 358.926 156.221 359.869 155.108 360.509C153.995 361.15 152.723 361.462 151.44 361.41C146.99 361.41 143.55 357.64 143.55 352.04C143.55 345.9 147.33 342.13 151.83 342.13C152.924 342.062 154.016 342.288 154.994 342.783C155.971 343.279 156.798 344.027 157.39 344.95H157.47V333.95L160.81 333.93ZM157.46 350.05C157.466 349.575 157.412 349.102 157.3 348.64C157.061 347.536 156.45 346.548 155.568 345.841C154.687 345.135 153.589 344.753 152.46 344.76C148.99 344.76 146.94 347.76 146.94 351.88C146.94 355.62 148.77 358.71 152.39 358.71C153.544 358.713 154.664 358.316 155.559 357.587C156.454 356.858 157.069 355.841 157.3 354.71C157.417 354.239 157.47 353.755 157.46 353.27V350.05Z" fill="white"/>
<path d="M167.75 352.38C167.83 356.91 170.75 358.78 174.08 358.78C175.828 358.835 177.568 358.511 179.18 357.83L179.75 360.23C177.809 361.035 175.72 361.423 173.62 361.37C167.94 361.37 164.55 357.64 164.55 352.07C164.55 346.5 167.83 342.13 173.2 342.13C179.2 342.13 180.82 347.42 180.82 350.82C180.816 351.342 180.779 351.863 180.71 352.38H167.75ZM177.58 349.98C177.58 347.84 176.71 344.53 172.93 344.53C169.54 344.53 168.05 347.65 167.79 349.98H177.58Z" fill="white"/>
<path d="M184.48 347.54C184.48 345.63 184.48 344.07 184.33 342.54H187.33L187.52 345.54H187.6C188.205 344.462 189.093 343.57 190.168 342.96C191.243 342.35 192.464 342.046 193.7 342.08C196.25 342.08 200.21 343.6 200.21 349.93V360.93H196.86V350.36C196.86 347.36 195.76 344.91 192.59 344.91C191.572 344.926 190.586 345.268 189.777 345.885C188.967 346.503 188.376 347.363 188.09 348.34C187.929 348.844 187.852 349.371 187.86 349.9V361H184.51L184.48 347.54Z" fill="white"/>
<path d="M218.29 360.31C216.622 361.046 214.813 361.407 212.99 361.37C207.43 361.37 203.8 357.6 203.8 351.96C203.8 346.32 207.69 342.16 213.72 342.16C215.324 342.156 216.909 342.497 218.37 343.16L217.6 345.75C216.405 345.124 215.068 344.82 213.72 344.87C209.48 344.87 207.2 348 207.2 351.87C207.2 356.14 209.94 358.77 213.6 358.77C215.025 358.775 216.432 358.461 217.72 357.85L218.29 360.31Z" fill="white"/>
<path d="M223 352.38C223.07 356.91 226 358.78 229.32 358.78C231.072 358.833 232.815 358.509 234.43 357.83L235 360.23C233.056 361.036 230.964 361.425 228.86 361.37C223.19 361.37 219.79 357.64 219.79 352.07C219.79 346.5 223.07 342.13 228.45 342.13C234.45 342.13 236.07 347.42 236.07 350.82C236.064 351.342 236.024 351.863 235.95 352.38H223ZM232.83 349.98C232.83 347.84 231.95 344.53 228.18 344.53C224.79 344.53 223.3 347.65 223.03 349.98H232.83Z" fill="white"/>
<path d="M239.75 347.54C239.75 345.63 239.75 344.07 239.59 342.54H242.59L242.78 345.54H242.85C243.455 344.463 244.344 343.571 245.419 342.962C246.494 342.352 247.714 342.047 248.95 342.08C251.51 342.08 255.47 343.6 255.47 349.93V360.93H252.1V350.36C252.1 347.36 250.99 344.91 247.83 344.91C246.811 344.925 245.825 345.266 245.015 345.884C244.205 346.501 243.614 347.362 243.33 348.34C243.169 348.844 243.091 349.371 243.1 349.9V361H239.75V347.54Z" fill="white"/>
<path d="M264 337.25V342.54H268.8V345.1H264V355.05C264 357.33 264.64 358.63 266.51 358.63C267.167 358.637 267.822 358.56 268.46 358.4L268.61 360.92C267.645 361.251 266.629 361.403 265.61 361.37C264.945 361.414 264.278 361.314 263.656 361.077C263.033 360.841 262.468 360.474 262 360C261 359 260.71 357.37 260.71 355.2V345.1H257.85V342.54H260.71V338.12L264 337.25Z" fill="white"/>
<path d="M273.52 352.38C273.59 356.91 276.52 358.78 279.84 358.78C281.592 358.835 283.335 358.511 284.95 357.83L285.52 360.23C283.579 361.035 281.491 361.423 279.39 361.37C273.71 361.37 270.32 357.64 270.32 352.07C270.32 346.5 273.59 342.13 278.97 342.13C284.97 342.13 286.59 347.42 286.59 350.82C286.581 351.341 286.545 351.862 286.48 352.38H273.52ZM283.35 349.98C283.35 347.84 282.47 344.53 278.7 344.53C275.31 344.53 273.82 347.65 273.56 349.98H283.35Z" fill="white"/>
<path d="M290.25 348.3C290.25 346.13 290.25 344.3 290.1 342.54H293L293.12 346.17H293.27C293.591 345.05 294.259 344.06 295.176 343.341C296.094 342.623 297.215 342.213 298.38 342.17C298.7 342.163 299.019 342.2 299.33 342.28V345.44C298.955 345.363 298.572 345.326 298.19 345.33C295.82 345.33 294.19 347.12 293.69 349.64C293.594 350.154 293.544 350.676 293.54 351.2V361H290.22L290.25 348.3Z" fill="white"/>
<path d="M302.26 347.54C302.26 345.63 302.26 344.07 302.1 342.54H305L305.15 345.54H305.27C305.82 344.489 306.655 343.614 307.679 343.015C308.702 342.415 309.874 342.116 311.06 342.15C312.208 342.135 313.331 342.484 314.269 343.147C315.206 343.81 315.91 344.753 316.28 345.84H316.36C316.867 344.902 317.569 344.083 318.42 343.44C319.583 342.546 321.024 342.09 322.49 342.15C324.93 342.15 328.55 343.75 328.55 350.15V361H325.28V350.55C325.28 347 323.98 344.87 321.28 344.87C320.379 344.9 319.509 345.21 318.793 345.756C318.076 346.303 317.547 347.059 317.28 347.92C317.105 348.463 317.014 349.029 317.01 349.6V361H313.74V349.94C313.74 347 312.44 344.87 309.89 344.87C308.933 344.924 308.018 345.277 307.272 345.877C306.526 346.478 305.987 347.297 305.73 348.22C305.542 348.746 305.451 349.301 305.46 349.86V361H302.19L302.26 347.54Z" fill="white"/>
<path d="M350.28 351.62C350.28 358.44 345.56 361.41 341.1 361.41C336.1 361.41 332.25 357.75 332.25 351.92C332.25 345.75 336.25 342.13 341.4 342.13C346.7 342.13 350.28 346 350.28 351.62ZM335.65 351.81C335.65 355.81 337.97 358.9 341.25 358.9C344.53 358.9 346.85 355.9 346.85 351.73C346.85 348.6 345.29 344.64 341.33 344.64C337.37 344.64 335.65 348.3 335.65 351.81Z" fill="white"/>
<path d="M356.11 352.38C356.19 356.91 359.11 358.78 362.44 358.78C364.192 358.833 365.935 358.509 367.55 357.83L368.12 360.23C366.176 361.036 364.084 361.425 361.98 361.37C356.3 361.37 352.91 357.64 352.91 352.07C352.91 346.5 356.19 342.13 361.56 342.13C367.56 342.13 369.19 347.42 369.19 350.82C369.184 351.342 369.144 351.863 369.07 352.38H356.11ZM366 350C366 347.86 365.12 344.55 361.35 344.55C357.95 344.55 356.47 347.67 356.2 350H366Z" fill="white"/>
<path d="M372.85 347.54C372.85 345.63 372.85 344.07 372.69 342.54H375.69L375.88 345.54H375.95C376.556 344.463 377.444 343.571 378.519 342.962C379.594 342.352 380.815 342.047 382.05 342.08C384.61 342.08 388.57 343.6 388.57 349.93V360.93H385.2V350.36C385.2 347.36 384.09 344.91 380.93 344.91C379.912 344.925 378.925 345.266 378.115 345.884C377.305 346.501 376.715 347.362 376.43 348.34C376.27 348.844 376.192 349.371 376.2 349.9V361H372.85V347.54Z" fill="white"/>
<path d="M392.66 357.56C393.991 358.393 395.52 358.855 397.09 358.9C399.53 358.9 400.67 357.68 400.67 356.15C400.67 354.62 399.72 353.67 397.24 352.76C393.92 351.58 392.36 349.76 392.36 347.54C392.36 344.54 394.76 342.13 398.73 342.13C400.313 342.114 401.873 342.507 403.26 343.27L402.42 345.71C401.288 345.009 399.982 344.638 398.65 344.64C396.65 344.64 395.56 345.78 395.56 347.16C395.56 348.54 396.67 349.37 399.07 350.28C402.27 351.5 403.91 353.1 403.91 355.85C403.91 359.09 401.39 361.37 397.01 361.37C395.205 361.405 393.421 360.975 391.83 360.12L392.66 357.56Z" fill="white"/>
<path d="M407.07 359C407.05 358.689 407.096 358.378 407.202 358.085C407.309 357.793 407.475 357.525 407.69 357.3C407.905 357.074 408.165 356.896 408.452 356.776C408.739 356.655 409.048 356.595 409.36 356.6C409.839 356.578 410.313 356.7 410.722 356.95C411.131 357.2 411.455 357.567 411.654 358.003C411.853 358.439 411.916 358.925 411.836 359.397C411.756 359.87 411.537 360.308 411.206 360.654C410.875 361.001 410.448 361.241 409.98 361.343C409.512 361.445 409.024 361.404 408.579 361.226C408.134 361.048 407.752 360.741 407.483 360.344C407.214 359.948 407.07 359.479 407.07 359Z" fill="white"/>
<path d="M415.42 361C415.5 359.74 415.57 357.88 415.57 356.24V333.94H418.89V345.53H419C419.637 344.443 420.561 343.552 421.67 342.954C422.78 342.357 424.032 342.075 425.29 342.14C429.87 342.14 433.11 345.95 433.07 351.55C433.07 358.14 428.91 361.42 424.8 361.42C423.546 361.49 422.299 361.201 421.204 360.586C420.109 359.972 419.212 359.057 418.62 357.95H418.51L418.36 361H415.42ZM418.89 353.61C418.898 354.021 418.948 354.429 419.04 354.83C419.32 355.946 419.963 356.937 420.868 357.647C421.774 358.356 422.89 358.745 424.04 358.75C427.55 358.75 429.65 355.9 429.65 351.66C429.65 347.97 427.74 344.8 424.16 344.8C422.972 344.823 421.825 345.24 420.9 345.986C419.976 346.732 419.325 347.764 419.05 348.92C418.937 349.368 418.873 349.828 418.86 350.29L418.89 353.61Z" fill="white"/>
<path d="M439 352.38C439.08 356.91 442 358.78 445.33 358.78C447.082 358.833 448.824 358.509 450.44 357.83L451.01 360.23C449.066 361.036 446.974 361.425 444.87 361.37C439.19 361.37 435.8 357.64 435.8 352.07C435.8 346.5 439.08 342.13 444.45 342.13C450.45 342.13 452.08 347.42 452.08 350.82C452.074 351.342 452.034 351.863 451.96 352.38H439ZM448.84 349.98C448.84 347.84 447.96 344.53 444.19 344.53C440.8 344.53 439.31 347.65 439.04 349.98H448.84Z" fill="white"/>
</g>
<defs>
<clipPath id="clip0_453_531">
<rect width="458" height="369" fill="white"/>
</clipPath>
</defs>
</svg>
