<svg id="Layer_1" data-name="Layer 1" xmlns="http://www.w3.org/2000/svg" viewBox="0 0 566.93 566.93"><path d="M248.57,118c8.8,12,6.47,30-4.72,36.82-7.27,4.44-9.64,3.59-12.7-4.56-1.4-3.73-1.12-8.7,0-12.64,2.62-9.1,9.09-15.29,17.39-19.62" fill="#fff" fill-rule="evenodd"/><path d="M184.8,139.61c9.39-3.12,18.6-3.45,27.24,2.35,5.83,3.92,9.22,12.46,6.94,16.68-1.78,3.3-10.59,5.27-16.42,3.66-9.75-2.7-17.92-13-17.76-22.69" fill="#fff" fill-rule="evenodd"/><path d="M212.09,98.16c12.42,6.64,18.81,18.21,15.23,29-1.23,3.71-4.55,8.73-7.61,9.29s-8.06-2.82-10.6-5.83c-6.71-7.92-5-22.74,3-32.48" fill="#fff" fill-rule="evenodd"/><path d="M236,215.57H225.44V151.8l.34-.3,9.3,39.76L249.49,177c-4,13.15-15.52,23.23-13.5,38.55" fill="#fff" fill-rule="evenodd"/><path d="M190.16,185c8.52-2.9,16.37-2.76,23.75,2.05,4,2.59,7.2,9.19,6.1,11.88s-8.48,4.68-13.31,3.42c-8.43-2.17-14-7.86-16.54-17.35" fill="#fff" fill-rule="evenodd"/><path d="M273.85,155.39c-.16,11.18-6.66,18.53-14.58,18.34-3.61-.09-4.91-1.66-4.65-5.16a10.88,10.88,0,0,1,7-9.54c3.67-1.6,7.72-2.34,12.24-3.64" fill="#fff" fill-rule="evenodd"/><path d="M74,234.45h.33a20.42,20.42,0,0,1,8-8.07,25.12,25.12,0,0,1,13.09-3.29,32.1,32.1,0,0,1,12.93,2.47q5.69,2.48,8.81,9.71,2.46-4.94,9.3-8.56a32.41,32.41,0,0,1,15.4-3.62q12.84,0,20.25,7t7.41,18.85V309l-15.81,2.63V251.9a18.29,18.29,0,0,0-3-10.37q-3-4.44-10.54-4.44a19,19,0,0,0-12.93,4.52,15.1,15.1,0,0,0-5.18,11.94V309l-15.81,2.63V251.9a18.29,18.29,0,0,0-3-10.37q-3-4.44-10.54-4.44a20.76,20.76,0,0,0-6.92,1.15,17.77,17.77,0,0,0-5.76,3.29,16.12,16.12,0,0,0-4,5.19,15.38,15.38,0,0,0-1.48,6.83V309l-15.81,2.63v-86L74,223.09Z" fill="#fff"/><path d="M226.83,311.67A45.57,45.57,0,0,1,209,308.22a44.32,44.32,0,0,1-14.32-9.55,46.27,46.27,0,0,1-9.63-14.08,41.84,41.84,0,0,1-3.54-17.21,42.42,42.42,0,0,1,3.54-17.29,44.34,44.34,0,0,1,24-23.54,46.22,46.22,0,0,1,50,9.63,45,45,0,0,1,9.63,14.08,42.16,42.16,0,0,1,3.54,17.12,43.35,43.35,0,0,1-13.09,31.2,46.89,46.89,0,0,1-14.49,9.55A45.11,45.11,0,0,1,226.83,311.67Zm0-14.82a28.79,28.79,0,0,0,11.69-2.38,29.63,29.63,0,0,0,9.38-6.42,30.51,30.51,0,0,0,6.26-9.39,29.06,29.06,0,0,0,.08-22.47,30.67,30.67,0,0,0-6.17-9.39,29,29,0,0,0-9.47-6.5,29.78,29.78,0,0,0-11.94-2.39,28.69,28.69,0,0,0-11.44,2.3,29.13,29.13,0,0,0-9.31,6.34,30.48,30.48,0,0,0-6.25,9.39,28.56,28.56,0,0,0-2.31,11.44,29,29,0,0,0,2.23,11.28,29.19,29.19,0,0,0,15.56,15.81A28.72,28.72,0,0,0,226.83,296.85Z" fill="#fff"/><path d="M300.42,283.35a30.81,30.81,0,0,0,9.72,9.88,24.17,24.17,0,0,0,13.17,3.62,28.74,28.74,0,0,0,5.93-.65,37.46,37.46,0,0,0,6.83-2.23,60.54,60.54,0,0,0,8.23-4.36,95.21,95.21,0,0,0,10-7.24L357.39,299a111,111,0,0,1-15.56,9.06,40.59,40.59,0,0,1-17.53,3.62,45.4,45.4,0,0,1-17.87-3.45,41.14,41.14,0,0,1-14-9.64,44,44,0,0,1-9.14-14.73A51.8,51.8,0,0,1,280,265.08a39.17,39.17,0,0,1,3.29-15.81,44.66,44.66,0,0,1,9-13.42,43.55,43.55,0,0,1,13.26-9.3,38.29,38.29,0,0,1,16.13-3.46q13.5,0,22.07,5.93T359,246Zm36.88-40a14.39,14.39,0,0,0-6.5-4.28,27.25,27.25,0,0,0-8.15-1.15A27.57,27.57,0,0,0,312,240a26.86,26.86,0,0,0-8.56,5.6,25,25,0,0,0-5.68,8.56,28.43,28.43,0,0,0-2.06,10.95v2.14a17.48,17.48,0,0,0,.16,2.47Z" fill="#fff"/><path d="M387.19,235.44h.33A21.56,21.56,0,0,1,398,226.05a35.49,35.49,0,0,1,14.24-3q15,0,23.88,7.57T445,251.58V309l-15.81,2.63V252.89q0-7.41-4.77-11.61t-13.67-4.19q-10.55,0-17,6.58T387.19,262V309l-15.8,2.63v-86l15.8-2.63Z" fill="#fff"/><path d="M501.63,245.15c-.66-.76-1.49-1.61-2.47-2.55a22.62,22.62,0,0,0-7.74-4.69,15.09,15.09,0,0,0-5.11-.82,19.6,19.6,0,0,0-7.24,1.07,11.19,11.19,0,0,0-4,2.55,7.06,7.06,0,0,0-1.82,3.21,14.12,14.12,0,0,0-.41,3.21q0,5.26,3.79,7.82a33.07,33.07,0,0,0,10.37,4.2c3.3.88,6.53,1.81,9.72,2.8a29.82,29.82,0,0,1,8.56,4.2,20.33,20.33,0,0,1,6.17,7.32q2.38,4.62,2.39,12a25.52,25.52,0,0,1-2,9.88,23.72,23.72,0,0,1-5.84,8.4,29,29,0,0,1-9.3,5.76,33.46,33.46,0,0,1-12.35,2.14,37.3,37.3,0,0,1-15.73-3.29,35.13,35.13,0,0,1-12.92-10.7l10.87-9.22a33,33,0,0,0,7.57,6.75,18.37,18.37,0,0,0,9.88,2.47,17.14,17.14,0,0,0,9.88-2.8A9,9,0,0,0,498,287q0-6.25-4.61-9.3t-14.65-5.51a68.87,68.87,0,0,1-8.56-2.72,23.83,23.83,0,0,1-6.92-4.12,17.29,17.29,0,0,1-4.61-6.42,24.13,24.13,0,0,1-1.64-9.47,27,27,0,0,1,2.05-10.62,24.81,24.81,0,0,1,5.68-8.31,26.32,26.32,0,0,1,8.57-5.43,28.48,28.48,0,0,1,10.7-2,35.28,35.28,0,0,1,14.57,2.72,44.67,44.67,0,0,1,12.43,9Z" fill="#fff"/><path d="M90.31,366.65l-4.78.36a13.64,13.64,0,0,1,4.6,4.93,12.74,12.74,0,0,1,1.56,6.11,13,13,0,0,1-2.24,7.53,14.63,14.63,0,0,1-6.87,5.09,14.21,14.21,0,0,1,7,5.06,13.28,13.28,0,0,1,2.31,7.76,13.63,13.63,0,0,1-4.6,10.37q-4.61,4.27-12.19,4.28a17.07,17.07,0,0,1-7.61-1.6,17.66,17.66,0,0,1-5.87-4.91l1.68-3.72a11.76,11.76,0,0,0,4.47,5,13.17,13.17,0,0,0,7.38,2.06,13.17,13.17,0,0,0,9.46-3.41,10.8,10.8,0,0,0,3.62-8.14,9.52,9.52,0,0,0-3.74-7.81,13.85,13.85,0,0,0-8.88-3,15,15,0,0,0-10.28,3.87l-2.18-2.55a12.63,12.63,0,0,1,5.69-3.36A12.63,12.63,0,0,1,63,385.83a12.78,12.78,0,0,1-2.22-7.37,14.32,14.32,0,0,1,1.89-7.23A13,13,0,0,1,68.31,366a17.88,17.88,0,0,1,8.22-1.91,22.94,22.94,0,0,1,5,.61l10.38-1.17ZM75.3,389a17,17,0,0,0,6.77-1.3,9.46,9.46,0,0,0,4.53-3.87,11.06,11.06,0,0,0,1.52-5.77c0-3.46-1.18-6.08-3.56-7.86a13.58,13.58,0,0,0-8.39-2.67,12.23,12.23,0,0,0-8.68,3,10,10,0,0,0-3.23,7.61,10.44,10.44,0,0,0,3.11,7.78A10.82,10.82,0,0,0,75.3,389Z" fill="#fff"/><path d="M123.23,403.33V398.4a12.67,12.67,0,0,1-4.86,4.32,13.43,13.43,0,0,1-6,1.43,13.55,13.55,0,0,1-9.54-23.1,13.42,13.42,0,0,1,9.85-3.92A12,12,0,0,1,123,382.32v-7.68a15,15,0,0,0-.4-4.32,3.47,3.47,0,0,0-1.73-1.89,11.21,11.21,0,0,0-5.09-.91q-2.44,0-6,.35l1.17-3.35a35.32,35.32,0,0,1,5.8-.41q5.28,0,7.58,2.16c1.52,1.44,2.29,3.79,2.29,7.05v28.79ZM112.54,401a10.51,10.51,0,0,0,7.61-3,9.84,9.84,0,0,0,3.13-7.35,9.94,9.94,0,0,0-3.1-7.33,10.46,10.46,0,0,0-7.64-3,9.89,9.89,0,0,0-7.32,2.87,10,10,0,0,0-2.85,7.35,10.35,10.35,0,0,0,2.92,7.53A9.72,9.72,0,0,0,112.54,401Z" fill="#fff"/><path d="M138.7,365.84l3.61-1.22v6a13.74,13.74,0,0,1,4.37-4.78A13.9,13.9,0,0,1,153,364v4.12a11.68,11.68,0,0,0-4.83.74,8.31,8.31,0,0,0-3.28,2.62,12.74,12.74,0,0,0-2.22,4.68,17.07,17.07,0,0,0-.4,4.32v21.62l-3.61,1.22Z" fill="#fff"/><path d="M193.59,328.8l3.66-1.22v74.53l-3.66,1.22v-7.78a19.51,19.51,0,0,1-7,6.41,20,20,0,0,1-23.52-3.54,20.6,20.6,0,0,1,0-28.71A19.6,19.6,0,0,1,184,365a20,20,0,0,1,5.67,3.18,26.85,26.85,0,0,1,4,4.37Zm-16.43,38.46a16.5,16.5,0,0,0-8.07,2.14,15.27,15.27,0,0,0-6.13,6.23,17.66,17.66,0,0,0-2.24,8.57,17.32,17.32,0,0,0,2.17,8.42,15.15,15.15,0,0,0,6.1,6.19,16.81,16.81,0,0,0,8.22,2.18A16.42,16.42,0,0,0,188,397a16,16,0,0,0,6-12.87,16.82,16.82,0,0,0-16.79-16.89Z" fill="#fff"/><path d="M242.53,372.35l-31.24,18.57a19.27,19.27,0,0,0,6,7.38,14.9,14.9,0,0,0,9,2.74,17.63,17.63,0,0,0,6.41-1.14,23.56,23.56,0,0,0,6.21-3.79v4.22a20.58,20.58,0,0,1-12.36,4,20.06,20.06,0,0,1-20.1-20.1A20.36,20.36,0,0,1,209.13,374a18.83,18.83,0,0,1,7.53-7.38,20.9,20.9,0,0,1,10.1-2.64,18.74,18.74,0,0,1,8.65,2.08A20.33,20.33,0,0,1,242.53,372.35ZM210.17,388l27.17-16.28a12.77,12.77,0,0,0-4.73-3.36,15.15,15.15,0,0,0-5.9-1.17,17,17,0,0,0-8.32,2.24,16.08,16.08,0,0,0-6.33,6.26,16.43,16.43,0,0,0-2.29,8.24A25.59,25.59,0,0,0,210.17,388Z" fill="#fff"/><path d="M277.33,402.11l-3.61,1.22v-26.2a9.62,9.62,0,0,0-2.72-7.25,10.21,10.21,0,0,0-7.36-2.62,12.14,12.14,0,0,0-6.2,1.76,11,11,0,0,0-4.45,4.7,13.88,13.88,0,0,0-1.45,6.21v22.18l-3.62,1.22V365.84l3.62-1.22v5.9q4.94-6.76,12.31-6.77a15.41,15.41,0,0,1,9.33,3q4.15,3,4.15,9.18Z" fill="#fff"/><path d="M345.65,367.42l-.71,3.35a30.44,30.44,0,0,0-5.9-2.64,19.32,19.32,0,0,0-5.49-.77,16.36,16.36,0,0,0-16.84,16.74,17.32,17.32,0,0,0,2.18,8.58,15.92,15.92,0,0,0,6.16,6.13,16.31,16.31,0,0,0,8.09,2.23q6.66,0,13-5.24v4a21.09,21.09,0,0,1-12.87,4.48,20.2,20.2,0,0,1-10-2.7,18.87,18.87,0,0,1-7.5-7.53A20.56,20.56,0,0,1,313.09,384a20.07,20.07,0,0,1,2.68-10,18.51,18.51,0,0,1,7.45-7.33,21.32,21.32,0,0,1,10.33-2.59,22.29,22.29,0,0,1,5.9.76A29.75,29.75,0,0,1,345.65,367.42Z" fill="#fff"/><path d="M385.29,372.35l-31.24,18.57a19.18,19.18,0,0,0,6,7.38,14.88,14.88,0,0,0,9,2.74,17.67,17.67,0,0,0,6.41-1.14,23.68,23.68,0,0,0,6.2-3.79v4.22a20.56,20.56,0,0,1-12.36,4,20.06,20.06,0,0,1-20.09-20.1A20.36,20.36,0,0,1,351.89,374a18.83,18.83,0,0,1,7.53-7.38,20.87,20.87,0,0,1,10.1-2.64,18.67,18.67,0,0,1,8.64,2.08A20.36,20.36,0,0,1,385.29,372.35ZM352.93,388l27.17-16.28a12.85,12.85,0,0,0-4.73-3.36,15.2,15.2,0,0,0-5.91-1.17,17,17,0,0,0-8.31,2.24,16.17,16.17,0,0,0-6.34,6.26,16.53,16.53,0,0,0-2.29,8.24A25.76,25.76,0,0,0,352.93,388Z" fill="#fff"/><path d="M420.09,402.11l-3.62,1.22v-26.2a9.58,9.58,0,0,0-2.72-7.25,10.17,10.17,0,0,0-7.35-2.62,12.15,12.15,0,0,0-6.21,1.76,11.06,11.06,0,0,0-4.45,4.7,14,14,0,0,0-1.45,6.21v22.18l-3.61,1.22V365.84l3.61-1.22v5.9q4.93-6.76,12.31-6.77a15.46,15.46,0,0,1,9.34,3q4.14,3,4.15,9.18Z" fill="#fff"/><path d="M433.87,353.63l3.61-1.17v13h11.45v3.36H437.48v22.54q0,5.08,1.86,7.07t5.83,2a19.37,19.37,0,0,0,4.73-.61l-1.07,3.51a18,18,0,0,1-4.07.51q-5.4,0-8.14-2.77t-2.75-8.83v-23.4h-3.61l1-3.36h2.64Z" fill="#fff"/><path d="M489.53,372.35l-31.24,18.57a19.27,19.27,0,0,0,6,7.38,14.9,14.9,0,0,0,9,2.74,17.63,17.63,0,0,0,6.41-1.14,23.56,23.56,0,0,0,6.21-3.79v4.22a20.6,20.6,0,0,1-12.36,4,20.06,20.06,0,0,1-20.1-20.1A20.36,20.36,0,0,1,456.13,374a18.83,18.83,0,0,1,7.53-7.38,20.9,20.9,0,0,1,10.1-2.64,18.74,18.74,0,0,1,8.65,2.08A20.42,20.42,0,0,1,489.53,372.35ZM457.17,388l27.17-16.28a12.85,12.85,0,0,0-4.73-3.36,15.15,15.15,0,0,0-5.9-1.17,17,17,0,0,0-8.32,2.24,16.08,16.08,0,0,0-6.33,6.26,16.43,16.43,0,0,0-2.29,8.24A25.59,25.59,0,0,0,457.17,388Z" fill="#fff"/><path d="M495.53,365.84l3.62-1.22v6a13.65,13.65,0,0,1,4.37-4.78,13.9,13.9,0,0,1,6.36-1.83v4.12a11.68,11.68,0,0,0-4.83.74,8.31,8.31,0,0,0-3.28,2.62,12.74,12.74,0,0,0-2.22,4.68,17.07,17.07,0,0,0-.4,4.32v21.62l-3.62,1.22Z" fill="#fff"/><line x1="507.96" y1="338.59" x2="58.97" y2="338.59" fill="none" stroke="#fff" stroke-linecap="round" stroke-miterlimit="10" stroke-width="5.23" stroke-dasharray="9.42 26.38"/><path d="M61.68,440.54l2.44,9.38c.54,2.06,1,4,1.37,5.87h.12c.42-1.87,1-3.85,1.64-5.83l3-9.42h2.82l2.86,9.23c.68,2.21,1.22,4.15,1.64,6h.11a56.32,56.32,0,0,1,1.41-6l2.63-9.27h3.32L79.1,459h-3l-2.82-8.8a62,62,0,0,1-1.64-6.06h-.07a55.26,55.26,0,0,1-1.68,6.1l-3,8.76H63.82l-5.57-18.45Z" fill="#fff"/><path d="M90.31,440.54l2.44,9.38c.53,2.06,1,4,1.37,5.87h.11c.42-1.87,1-3.85,1.64-5.83l3-9.42h2.82l2.86,9.23c.69,2.21,1.22,4.15,1.64,6h.12a54,54,0,0,1,1.41-6l2.63-9.27h3.31L107.73,459h-3l-2.82-8.8a62,62,0,0,1-1.64-6.06h-.08a55.26,55.26,0,0,1-1.68,6.1l-3,8.76h-3l-5.56-18.45Z" fill="#fff"/><path d="M118.93,440.54l2.44,9.38c.54,2.06,1,4,1.37,5.87h.12c.42-1.87,1-3.85,1.64-5.83l3-9.42h2.82l2.86,9.23c.68,2.21,1.22,4.15,1.64,6h.11a56.32,56.32,0,0,1,1.41-6l2.63-9.27h3.32l-6,18.45h-3l-2.82-8.8a62,62,0,0,1-1.64-6.06h-.07a55.26,55.26,0,0,1-1.68,6.1l-3,8.76h-3.05l-5.57-18.45Z" fill="#fff"/><path d="M142.87,457a2.25,2.25,0,0,1,2.29-2.4,2.4,2.4,0,0,1,0,4.8A2.24,2.24,0,0,1,142.87,457Z" fill="#fff"/><path d="M166.65,440.54c-.07,1.34-.15,2.82-.15,5.07v10.71c0,4.23-.84,6.83-2.63,8.43a9.76,9.76,0,0,1-6.71,2.21,11.84,11.84,0,0,1-6.14-1.53l.84-2.55a10.45,10.45,0,0,0,5.42,1.45c3.43,0,5.94-1.79,5.94-6.44v-2.06h-.07a6.61,6.61,0,0,1-5.87,3.09c-4.58,0-7.86-3.89-7.86-9,0-6.25,4.08-9.79,8.31-9.79a6.13,6.13,0,0,1,5.76,3.2h.08l.15-2.79Zm-3.47,7.28a4.56,4.56,0,0,0-.19-1.52,4.83,4.83,0,0,0-4.69-3.54c-3.2,0-5.48,2.7-5.48,7,0,3.62,1.83,6.63,5.45,6.63a4.9,4.9,0,0,0,4.65-3.43,5.83,5.83,0,0,0,.26-1.79Z" fill="#fff"/><path d="M181.63,459l-.27-2.32h-.11a6.86,6.86,0,0,1-5.64,2.74,5.25,5.25,0,0,1-5.64-5.3c0-4.46,4-6.9,11.09-6.86v-.38c0-1.52-.42-4.27-4.19-4.27a9.29,9.29,0,0,0-4.81,1.37l-.76-2.21a11.48,11.48,0,0,1,6.06-1.63c5.64,0,7,3.84,7,7.54v6.9a25.88,25.88,0,0,0,.3,4.42Zm-.49-9.41c-3.66-.08-7.82.57-7.82,4.15a3,3,0,0,0,3.17,3.2,4.6,4.6,0,0,0,4.46-3.08,3.71,3.71,0,0,0,.19-1.07Z" fill="#fff"/><path d="M189.1,446.3c0-2.17,0-4-.15-5.76h2.93l.12,3.63h.15a5.53,5.53,0,0,1,5.11-4,3.44,3.44,0,0,1,1,.11v3.16a5.37,5.37,0,0,0-1.14-.11c-2.37,0-4,1.79-4.5,4.31a9,9,0,0,0-.15,1.56V459H189.1Z" fill="#fff"/><path d="M216.81,431.93v22.3c0,1.64,0,3.5.15,4.76h-3l-.15-3.2h-.08a6.8,6.8,0,0,1-6.29,3.62c-4.45,0-7.89-3.77-7.89-9.37,0-6.14,3.78-9.91,8.28-9.91a6.15,6.15,0,0,1,5.56,2.82h.08v-11Zm-3.35,16.12a5.65,5.65,0,0,0-.16-1.41,4.92,4.92,0,0,0-4.84-3.88c-3.47,0-5.52,3-5.52,7.12,0,3.74,1.83,6.83,5.45,6.83a5,5,0,0,0,4.91-4,5.48,5.48,0,0,0,.16-1.44Z" fill="#fff"/><path d="M223.75,450.38c.08,4.53,3,6.4,6.33,6.4a12.13,12.13,0,0,0,5.1-.95l.57,2.4a15,15,0,0,1-6.13,1.14c-5.68,0-9.07-3.73-9.07-9.3s3.28-9.94,8.65-9.94c6,0,7.62,5.29,7.62,8.69a12.45,12.45,0,0,1-.11,1.56Zm9.83-2.4c0-2.14-.87-5.45-4.65-5.45-3.39,0-4.88,3.12-5.14,5.45Z" fill="#fff"/><path d="M240.48,445.54c0-1.91,0-3.47-.15-5h3l.19,3h.08a6.78,6.78,0,0,1,6.1-3.46c2.55,0,6.51,1.52,6.51,7.85v11h-3.35V448.36c0-3-1.1-5.45-4.27-5.45a4.77,4.77,0,0,0-4.5,3.43,4.88,4.88,0,0,0-.23,1.56V459h-3.35Z" fill="#fff"/><path d="M274.29,458.31a12.51,12.51,0,0,1-5.3,1.06c-5.56,0-9.19-3.77-9.19-9.41s3.89-9.8,9.92-9.8a11.18,11.18,0,0,1,4.65,1l-.77,2.59a7.74,7.74,0,0,0-3.88-.88c-4.24,0-6.52,3.13-6.52,7,0,4.27,2.74,6.9,6.4,6.9a9.54,9.54,0,0,0,4.12-.92Z" fill="#fff"/><path d="M279,450.38c.07,4.53,3,6.4,6.32,6.4a12.22,12.22,0,0,0,5.11-.95l.57,2.4a15,15,0,0,1-6.14,1.14c-5.67,0-9.07-3.73-9.07-9.3s3.28-9.94,8.66-9.94c6,0,7.62,5.29,7.62,8.69a12.06,12.06,0,0,1-.12,1.56Zm9.83-2.4c0-2.14-.88-5.45-4.65-5.45-3.39,0-4.88,3.12-5.15,5.45Z" fill="#fff"/><path d="M295.75,445.54c0-1.91,0-3.47-.16-5h3l.19,3h.07a6.79,6.79,0,0,1,6.1-3.46c2.56,0,6.52,1.52,6.52,7.85v11H308.1V448.36c0-3-1.11-5.45-4.27-5.45a4.76,4.76,0,0,0-4.5,3.43,4.88,4.88,0,0,0-.23,1.56V459h-3.35Z" fill="#fff"/><path d="M320,435.25v5.29h4.8v2.56H320v9.95c0,2.28.64,3.58,2.51,3.58a7.68,7.68,0,0,0,1.95-.23l.15,2.52a8.4,8.4,0,0,1-3,.45A4.65,4.65,0,0,1,318,458c-1-1-1.29-2.63-1.29-4.8V443.1h-2.86v-2.56h2.86v-4.42Z" fill="#fff"/><path d="M329.52,450.38c.07,4.53,3,6.4,6.32,6.4a12.18,12.18,0,0,0,5.11-.95l.57,2.4a15,15,0,0,1-6.13,1.14c-5.68,0-9.07-3.73-9.07-9.3s3.27-9.94,8.65-9.94c6,0,7.62,5.29,7.62,8.69a14.76,14.76,0,0,1-.11,1.56Zm9.83-2.4c0-2.14-.88-5.45-4.65-5.45-3.39,0-4.88,3.12-5.14,5.45Z" fill="#fff"/><path d="M346.25,446.3c0-2.17,0-4-.15-5.76H349l.12,3.63h.15a5.53,5.53,0,0,1,5.11-4,3.49,3.49,0,0,1,.95.11v3.16a5.44,5.44,0,0,0-1.14-.11c-2.37,0-4,1.79-4.5,4.31a9,9,0,0,0-.15,1.56V459h-3.32Z" fill="#fff"/><path d="M358.26,445.54c0-1.91,0-3.47-.16-5H361l.15,3h.12a6.33,6.33,0,0,1,5.79-3.39,5.44,5.44,0,0,1,5.22,3.69h.08a7.45,7.45,0,0,1,2.06-2.4,6.26,6.26,0,0,1,4.07-1.29c2.44,0,6.06,1.6,6.06,8V459h-3.27V448.55c0-3.55-1.3-5.68-4-5.68a4.34,4.34,0,0,0-4,3.05,5.63,5.63,0,0,0-.27,1.68V459h-3.27V447.94c0-2.94-1.3-5.07-3.85-5.07a4.59,4.59,0,0,0-4.16,3.35,4.67,4.67,0,0,0-.27,1.64V459h-3.27Z" fill="#fff"/><path d="M406.28,449.62c0,6.82-4.72,9.79-9.18,9.79-5,0-8.85-3.66-8.85-9.49,0-6.17,4-9.79,9.15-9.79C402.7,440.13,406.28,444,406.28,449.62Zm-14.63.19c0,4,2.32,7.09,5.6,7.09s5.6-3,5.6-7.17c0-3.13-1.56-7.09-5.52-7.09S391.65,446.3,391.65,449.81Z" fill="#fff"/><path d="M412.11,450.38c.08,4.53,3,6.4,6.33,6.4a12.22,12.22,0,0,0,5.11-.95l.57,2.4a15,15,0,0,1-6.14,1.14c-5.68,0-9.07-3.73-9.07-9.3s3.28-9.94,8.65-9.94c6,0,7.63,5.29,7.63,8.69a12.06,12.06,0,0,1-.12,1.56ZM422,448c0-2.14-.88-5.45-4.65-5.45-3.4,0-4.88,3.12-5.15,5.45Z" fill="#fff"/><path d="M428.85,445.54c0-1.91,0-3.47-.16-5h3l.19,3h.07a6.79,6.79,0,0,1,6.1-3.46c2.56,0,6.52,1.52,6.52,7.85v11H441.2V448.36c0-3-1.11-5.45-4.27-5.45a4.76,4.76,0,0,0-4.5,3.43,4.88,4.88,0,0,0-.23,1.56V459h-3.35Z" fill="#fff"/><path d="M448.66,455.56a8.82,8.82,0,0,0,4.43,1.34c2.44,0,3.58-1.22,3.58-2.75s-.95-2.48-3.43-3.39c-3.32-1.18-4.88-3-4.88-5.22,0-3,2.4-5.41,6.37-5.41a9.21,9.21,0,0,1,4.53,1.14l-.84,2.44a7.14,7.14,0,0,0-3.77-1.07c-2,0-3.09,1.14-3.09,2.52s1.11,2.21,3.51,3.12c3.2,1.22,4.84,2.82,4.84,5.57,0,3.24-2.52,5.52-6.9,5.52a10.51,10.51,0,0,1-5.18-1.25Z" fill="#fff"/><path d="M463.07,457a2.26,2.26,0,0,1,2.29-2.4,2.4,2.4,0,1,1-2.29,2.4Z" fill="#fff"/><path d="M471.42,459c.08-1.26.15-3.12.15-4.76v-22.3h3.32v11.59H475a6.88,6.88,0,0,1,6.29-3.39c4.58,0,7.82,3.81,7.78,9.41,0,6.59-4.16,9.87-8.27,9.87a6.59,6.59,0,0,1-6.18-3.47h-.11l-.15,3.05Zm3.47-7.39a6,6,0,0,0,.15,1.22,5.18,5.18,0,0,0,5,3.92c3.51,0,5.61-2.85,5.61-7.09,0-3.69-1.91-6.86-5.49-6.86a5.36,5.36,0,0,0-5.11,4.12,6.37,6.37,0,0,0-.19,1.37Z" fill="#fff"/><path d="M495,450.38c.08,4.53,3,6.4,6.33,6.4a12.22,12.22,0,0,0,5.11-.95l.57,2.4a15,15,0,0,1-6.14,1.14c-5.68,0-9.07-3.73-9.07-9.3s3.28-9.94,8.65-9.94c6,0,7.63,5.29,7.63,8.69a12.06,12.06,0,0,1-.12,1.56Zm9.84-2.4c0-2.14-.88-5.45-4.65-5.45-3.39,0-4.88,3.12-5.15,5.45Z" fill="#fff"/></svg>