<svg id="Calque_1" data-name="Calque 1" xmlns="http://www.w3.org/2000/svg" viewBox="0 0 799.94 255.27"><defs><style>.cls-1{fill:#fff;}</style></defs><title>Plan de travail 1 copie</title><path class="cls-1" d="M649.18,234.43c-34,.18-219.54,1.2-263.33,1.2s-229.35-1-263.34-1.2c-1.29,0-2.31.78,0,1.2,61.84,11.29,153.27,19.64,263.34,19.64s201.48-8.35,263.33-19.64c2.31-.42,1.31-1.2,0-1.2"/><path class="cls-1" d="M529.29,84.28c0-12.33,9.74-27.47,28.91-27.47,16.93,0,25.41,11.42,27.06,27.47Zm81.29,10.49c0-35.45-19.87-56.35-53.45-56.46-34.3,0-53.78,26.72-53.78,58.71,0,50,37.35,57.9,53.36,57.9,18.95,0,38.73-8.15,48.84-26.52l-2.1-1.83c-9.51-8-14.26-8-19.3-2.89-5.35,5.62-14,12-25.17,12-16.45,0-30.91-13-30.47-33.48h81.78c.18-2.6.29-5.09.29-7.45"/><path class="cls-1" d="M630.59,9.21V140.08c0,9.88,8.7,12.32,20,12.32h5.26V9.21Z"/><path class="cls-1" d="M746.37,128.05A58.81,58.81,0,0,1,716.69,137c-9.66,0-17.32-8-17.32-15.23,0-13.92,9.46-20.81,47-24.69Zm-25-89.75A92.94,92.94,0,0,0,684.18,46V65.83c11.9-5.52,22.68-9.07,36.85-9.07,14.62,0,25.3,7.22,25.34,20.45v3.06c-17.77,1.35-35.65,3.49-45.73,6.87-17.66,6-26.55,17.94-26.58,33.29.05,19.79,13.45,34.41,36.92,34.5,11.65-.05,26.11-4.29,35.61-10.69,2.33,9.32,10,8.15,23,8.15h1.55V77.12c0-29.71-22.89-38.82-49.75-38.82"/><path class="cls-1" d="M478.23,135.21c-12.49,0-14.55-4.88-14.61-19.55V60.05h20c6.33,0,9.14-5.23,9.14-16.23v-3H463.62V12.92H438.33V122.27c0,22,11.57,32.65,33.36,32.65a64.54,64.54,0,0,0,27-5.31l-10.14-15.67a45.45,45.45,0,0,1-10.29,1.27"/><path class="cls-1" d="M352.1,70.06c0-6.62,4.82-12.88,19-12.92a62,62,0,0,1,20.5,3.56c8.27,2.91,12.71,1.95,16.79-6.73a54.25,54.25,0,0,0,2.91-7.21c-9.78-4.3-25-8.48-37.85-8.48-37.13,0-46.64,18.56-46.64,31.1,0,19.93,12.41,27.09,26,30.64,11.33,2.94,20.08,5.71,33.17,8.21,6.68,1.25,8.93,5.75,9.08,11.19,0,7.45-4.49,15.57-20.2,15.57-13.26-.05-21-4.14-30.25-9.43-8.78-5-13-.65-17.52,4.36-2.27,2.49-4,4.94-5.3,6.68,14,11.38,30.47,18.31,48.37,18.31,34.56,0,50.19-14.29,50.19-34.41,0-17.39-8.23-28.2-27.55-32.83-9.33-2.24-17.2-4.13-27.95-6.48-7.32-1.61-12.77-4-12.77-11.13"/><path class="cls-1" d="M170.36,25.63c-6.61-11-20.59-17.81-36.47-17.81-21,0-31.21,9.87-38.77,16.49C88.21,14.13,74.72,7.82,59.46,7.82c-13.94,0-23.8,3.7-35.4,13.47-1.62-7.91-8.81-12.07-20-12.07H0V152.38H27.3V50.52C27.3,39,38.38,28.84,50.72,28.84c13,0,23.7,9.82,23.7,22.25V152.38h27.24V51.27c0-12.43,10.57-22.5,23.56-22.5s23.59,10.07,23.59,22.5V152.38h27.24V54.68c0-14.39-1.49-22-5.69-29"/><path class="cls-1" d="M278.61,40.82v70.26c0,13.46-10.91,24.38-25,24.38s-24.93-10.92-24.93-24.38V40.82H203.39V109.6c0,14.23,1.13,21.55,5.17,28.35,6.34,10.51,19.9,17.13,35.42,17.13,20.54,0,29.36-8.31,37.44-14.59.42,6.66,2.89,11.9,16.41,11.9h6.08V40.82Z"/><path class="cls-1" d="M781.09,17.37c2.7,0,5.21-.21,5.21-3.52,0-2.66-2.47-3.17-4.72-3.17h-4.39v6.69Zm-3.9,12.11h-3.32V7.94h8.23c5.13,0,7.57,1.88,7.57,6.1,0,3.85-2.38,5.54-5.59,5.95l6.13,9.49h-3.63l-5.68-9.36h-3.71Zm3.9,4.8c8.48,0,15.12-6.59,15.12-15.63,0-8.83-6.64-15.5-15.12-15.5a15.12,15.12,0,0,0-15.23,15.5c0,9,6.69,15.63,15.23,15.63m-19-15.63a18.92,18.92,0,1,1,19,18.74,18.7,18.7,0,0,1-19-18.74"/></svg>