<svg width="550" height="416" viewBox="0 0 550 416" fill="none" xmlns="http://www.w3.org/2000/svg">
<path d="M149.037 60.4674C149.07 60.452 149.096 60.426 149.111 60.3936C149.126 60.3612 149.129 60.3241 149.12 60.2885C149.111 60.2528 149.09 60.2205 149.06 60.1967C149.031 60.173 148.994 60.1591 148.957 60.1574C138.09 60.2108 127.677 61.4608 117.717 63.9074C117.534 63.9523 117.343 63.9557 117.159 63.9173C116.975 63.8789 116.802 63.7997 116.652 63.6856C116.502 63.5714 116.38 63.4252 116.295 63.2577C116.209 63.0902 116.162 62.9056 116.157 62.7174C116.047 57.9974 117.227 51.7974 122.537 50.5474C132.223 48.2541 142.21 47.1508 152.497 47.2374C152.774 47.2394 153.043 47.1469 153.258 46.9755C153.473 46.8041 153.621 46.5645 153.677 46.2974C158.257 24.5674 173.987 3.10743 196.977 0.237427C208.817 -1.23257 223.877 4.21742 231.067 13.9774C238.437 23.9974 239.837 36.0574 240.117 47.9574C240.118 48.0551 240.141 48.1513 240.183 48.2395C240.226 48.3277 240.287 48.4057 240.363 48.4683C240.439 48.531 240.528 48.5767 240.623 48.6024C240.719 48.6282 240.819 48.6333 240.917 48.6174C266.087 44.4474 296.047 47.5174 316.957 63.0074C320.21 65.4141 323.963 69.0441 328.217 73.8974C334.817 81.4308 340.583 89.1341 345.517 97.0074C348.543 101.841 350.53 106.624 351.477 111.357C351.543 111.676 351.56 112.006 351.527 112.337C351.433 113.384 351.063 114.477 350.417 115.617C350.374 115.697 350.36 115.79 350.377 115.879C350.394 115.968 350.44 116.048 350.508 116.108C350.577 116.167 350.664 116.201 350.754 116.205C350.845 116.208 350.934 116.181 351.007 116.127C369.493 101.887 386.88 87.1008 403.167 71.7674C421.413 54.5808 437.077 35.6074 450.157 14.8474C450.262 14.6757 450.418 14.5411 450.603 14.4621C450.788 14.383 450.994 14.3636 451.19 14.4065C451.387 14.4494 451.566 14.5524 451.701 14.7013C451.837 14.8502 451.922 15.0375 451.947 15.2374C452.797 21.5774 450.127 25.5974 446.217 31.4074C419.987 70.4274 384.197 100.967 347.257 129.897C347.11 130.013 346.928 130.075 346.74 130.071C346.553 130.067 346.371 129.999 346.227 129.877C345.773 129.491 345.447 128.957 345.247 128.277C340.187 111.037 331.937 96.7208 320.497 85.3274C297.637 62.5574 266.197 54.9174 234.887 62.2274C234.712 62.2686 234.53 62.2692 234.354 62.2293C234.179 62.1894 234.015 62.11 233.876 61.9971C233.736 61.8842 233.623 61.7409 233.547 61.5781C233.471 61.4152 233.433 61.2371 233.437 61.0574C233.857 38.4574 227.477 15.0474 200.107 13.4574C182.497 12.4274 166.277 20.9874 160.777 38.2874C159.277 42.9974 159.177 47.1674 158.377 53.0274C158.33 53.3462 158.243 53.6587 158.117 53.9574L157.297 55.8874C157.253 55.9913 157.239 56.1053 157.256 56.2167C157.272 56.3281 157.319 56.4326 157.39 56.5186C157.462 56.6046 157.555 56.6687 157.661 56.7038C157.766 56.7389 157.879 56.7436 157.987 56.7174L161.077 55.9874C161.229 55.9544 161.387 55.9708 161.529 56.034C161.671 56.0973 161.789 56.2042 161.866 56.3392C161.943 56.4742 161.975 56.6302 161.957 56.7845C161.939 56.9389 161.872 57.0835 161.767 57.1974C161.007 57.9908 160.43 58.4874 160.037 58.6874C146.077 65.7141 131.883 70.3041 117.457 72.4574C117.23 72.4974 117.033 72.4741 116.867 72.3874C116.772 72.342 116.69 72.2729 116.63 72.1867C116.57 72.1006 116.533 72.0003 116.523 71.8957C116.513 71.791 116.53 71.6856 116.573 71.5895C116.616 71.4935 116.682 71.4101 116.767 71.3474C119.14 69.5474 121.83 68.3241 124.837 67.6774C133.237 65.8774 141.277 64.1474 149.037 60.4674Z" fill="white"/>
<path d="M474.517 22.7776C474.606 22.746 474.704 22.7435 474.795 22.7707C474.886 22.7978 474.966 22.8531 475.024 22.9286C475.082 23.0041 475.114 23.096 475.116 23.191C475.119 23.286 475.091 23.3793 475.037 23.4576C471.757 28.2576 467.887 33.5309 463.427 39.2776C434.337 76.7676 399.107 110.388 361.827 140.158C360.64 141.104 359.33 141.794 357.897 142.228C357.737 142.275 357.566 142.273 357.407 142.223C357.248 142.172 357.108 142.074 357.005 141.942C356.903 141.81 356.842 141.651 356.832 141.484C356.821 141.317 356.861 141.151 356.947 141.008C357.787 139.581 359.047 138.188 360.727 136.828C384.327 117.794 405.923 97.8909 425.517 77.1176C439.083 62.7442 451.373 47.8876 462.387 32.5476C466.207 27.2276 469.117 24.5576 474.517 22.7776Z" fill="white"/>
<path d="M194.902 46.8333C196.943 40.2789 194.867 33.8033 190.263 32.3695C185.66 30.9357 180.273 35.0868 178.232 41.6411C176.19 48.1955 178.267 54.6711 182.87 56.1049C187.474 57.5386 192.86 53.3876 194.902 46.8333Z" fill="white"/>
<path d="M448.907 225.777C448.978 225.808 449.038 225.86 449.078 225.927C449.118 225.994 449.136 226.071 449.13 226.149C449.123 226.226 449.092 226.3 449.041 226.359C448.991 226.418 448.922 226.459 448.847 226.477C442.647 227.891 435.947 229.097 428.747 230.097C418.333 231.544 406.433 233.017 393.047 234.517C392.936 234.528 392.831 234.568 392.741 234.634C392.652 234.699 392.581 234.788 392.536 234.89C392.492 234.993 392.475 235.106 392.487 235.217C392.499 235.329 392.541 235.436 392.607 235.527C397.677 242.437 397.507 251.637 395.987 259.557C390.127 290.067 372.357 311.077 341.557 316.997C341.425 317.022 341.289 317.018 341.16 316.985C341.03 316.952 340.909 316.891 340.805 316.806C340.701 316.721 340.617 316.615 340.559 316.494C340.5 316.373 340.469 316.241 340.467 316.107C340.207 302.907 341.687 289.947 345.657 277.747C347.437 272.274 350.237 266.397 354.057 260.117C358.89 252.177 364.227 245.197 370.067 239.177C370.131 239.108 370.172 239.021 370.183 238.927C370.194 238.833 370.175 238.738 370.128 238.656C370.08 238.575 370.008 238.51 369.922 238.472C369.835 238.435 369.739 238.426 369.647 238.447C358.487 241.314 336.843 247.087 304.717 255.767C289.077 259.987 271.52 263.681 252.047 266.847C245.393 267.934 240.167 268.267 236.367 267.847C224.507 266.557 214.927 263.217 202.447 259.077C189.867 254.907 175.967 252.127 163.097 248.207C163.037 248.187 162.976 248.177 162.917 248.177C162.81 248.177 162.72 248.174 162.647 248.167C162.53 248.16 162.414 248.189 162.315 248.25C162.215 248.31 162.137 248.4 162.09 248.507C162.043 248.614 162.03 248.733 162.053 248.847C162.075 248.962 162.133 249.066 162.217 249.147C164.857 251.747 164.287 255.037 162.887 258.537C158.587 269.247 142.187 272.787 131.787 273.947C118.92 275.387 106.06 275.291 93.2068 273.657C84.5968 272.557 74.7067 269.027 68.5067 262.447C68.2216 262.144 68.0459 261.755 68.0078 261.341C67.9697 260.928 68.0715 260.515 68.2968 260.167C79.2468 243.217 100.987 238.877 120.037 239.187C120.108 239.184 120.177 239.157 120.231 239.11C120.285 239.063 120.322 239 120.336 238.929C120.35 238.859 120.34 238.786 120.307 238.722C120.275 238.658 120.222 238.607 120.157 238.577C116.957 237.337 113.16 235.487 108.767 233.027C91.2134 223.181 78.6201 208.681 70.9868 189.527C69.9134 186.834 69.4534 184.681 69.6068 183.067C69.7868 181.057 70.4068 175.727 72.5168 174.577C72.9634 174.337 73.7768 174.134 74.9568 173.967C89.7034 171.861 103.523 174.147 116.417 180.827C119.103 182.214 121.317 183.781 123.057 185.527C123.119 185.587 123.198 185.626 123.283 185.639C123.368 185.651 123.455 185.636 123.532 185.596C123.608 185.556 123.67 185.494 123.709 185.417C123.747 185.34 123.761 185.252 123.747 185.167C121.767 173.397 121.197 162.177 125.937 151.357C127.477 147.847 130.867 143.497 135.297 144.747C154.237 150.087 167.817 169.467 172.777 187.547C176.567 201.317 174.057 216.467 162.137 225.257C162.067 225.31 162.012 225.381 161.978 225.462C161.944 225.543 161.932 225.632 161.943 225.719C161.954 225.806 161.988 225.889 162.041 225.959C162.095 226.029 162.166 226.083 162.247 226.117C171.2 229.871 180.367 233.594 189.747 237.287C203.777 242.807 216.267 247.637 230.947 248.827C242.347 249.761 253.717 249.087 265.057 246.807C265.238 246.771 265.407 246.687 265.544 246.564C265.681 246.44 265.782 246.283 265.837 246.107C270.297 231.867 277.783 219.394 288.297 208.687C288.382 208.601 288.436 208.488 288.449 208.366C288.463 208.245 288.434 208.123 288.37 208.02C288.305 207.917 288.207 207.839 288.092 207.799C287.977 207.758 287.852 207.758 287.737 207.797C287.057 208.024 286.33 208.137 285.557 208.137C285.155 208.137 284.764 208.004 284.447 207.757C281.98 205.831 279.56 203.554 277.187 200.927C272.9 196.187 268.337 190.774 263.497 184.687C263.351 184.503 263.155 184.365 262.931 184.29C262.707 184.216 262.466 184.208 262.237 184.267C259.837 184.897 255.577 185.927 252.727 185.957C245.027 186.031 238.107 184.981 231.967 182.807C219.34 178.341 208.53 171.144 199.537 161.217C190.557 151.304 185.397 139.661 184.057 126.287C183.903 124.727 183.74 121.727 183.567 117.287C183.527 116.107 182.733 115.137 181.187 114.377C177.927 112.791 175.013 110.697 172.447 108.097C165.587 101.157 160.263 93.4739 156.477 85.0473C155.563 83.0206 154.917 81.2273 154.537 79.6673C154.392 79.0546 154.382 78.4199 154.507 77.8073C155.253 74.1739 156.92 71.2073 159.507 68.9073C159.628 68.8001 159.773 68.7224 159.929 68.6804C160.086 68.6384 160.25 68.6332 160.409 68.6652C160.568 68.6971 160.717 68.7654 160.845 68.8646C160.973 68.9639 161.076 69.0914 161.147 69.2373C162.887 72.8473 164.857 78.2073 167.177 81.8473C172.977 90.9406 180.54 98.5906 189.867 104.797C190.347 105.116 190.733 105.555 190.988 106.072C191.243 106.588 191.356 107.163 191.317 107.737C190.583 118.364 192.863 128.321 198.157 137.607C209.997 158.377 232.787 174.707 257.557 173.157C257.662 173.153 257.763 173.117 257.847 173.054C257.931 172.991 257.994 172.903 258.028 172.804C258.061 172.704 258.064 172.597 258.035 172.496C258.006 172.394 257.948 172.304 257.867 172.237C242.647 159.151 231.387 143.211 224.087 124.417C224.034 124.28 224.012 124.133 224.021 123.986C224.031 123.839 224.071 123.696 224.14 123.566C224.209 123.437 224.306 123.323 224.422 123.234C224.539 123.144 224.673 123.08 224.817 123.047C227.887 122.357 234.267 121.067 236.837 122.677C237.117 122.853 237.34 123.111 237.477 123.417C239.723 128.544 241.183 131.797 241.857 133.177C249.47 148.824 259.99 162.111 273.417 173.037C278.59 177.244 283.477 180.464 288.077 182.697C298.007 187.527 310.937 190.887 319.957 194.007C320.028 194.032 320.104 194.037 320.178 194.022C320.251 194.006 320.319 193.97 320.374 193.919C320.429 193.867 320.468 193.801 320.488 193.729C320.508 193.656 320.508 193.58 320.487 193.507C319.713 190.781 318.557 188.404 317.017 186.377C316.606 185.841 316.11 185.375 315.547 184.997C311.377 182.247 307.917 180.357 308.267 175.337C308.537 171.367 309.587 167.887 305.097 166.637C301.983 165.771 299.35 164.691 297.197 163.397C290.257 159.237 297.847 153.837 297.917 149.267C297.943 147.521 296.977 146.277 295.017 145.537C291.847 144.347 288.877 142.967 286.757 142.307C285.017 141.757 283.797 140.627 284.777 138.677C287.247 133.717 291.507 128.197 285.877 123.597C282.043 120.471 278.173 117.604 274.267 114.997C274.059 114.856 273.898 114.656 273.806 114.423C273.713 114.189 273.693 113.934 273.748 113.689C273.803 113.444 273.931 113.221 274.114 113.049C274.298 112.878 274.529 112.766 274.777 112.727L281.217 111.757C283.007 111.486 284.833 111.85 286.377 112.787C291.197 115.707 304.187 123.467 304.527 129.017C304.546 129.339 304.485 129.665 304.347 129.967C302.367 134.177 299.987 138.167 305.007 141.057C305.82 141.524 308.243 142.664 312.277 144.477C314.217 145.351 314.6 146.697 313.427 148.517C311.74 151.157 310.333 153.767 309.207 156.347C309.049 156.722 308.98 157.13 309.007 157.537C309.16 159.917 310.49 161.591 312.997 162.557C315.157 163.391 317.77 164.351 320.837 165.437C322.403 165.991 323.107 167.024 322.947 168.537C322.437 173.337 321.447 176.407 323.617 179.367C323.735 179.531 323.91 179.645 324.106 179.689C324.303 179.733 324.51 179.704 324.687 179.607C325.587 179.127 326.577 178.307 327.657 177.817C374.157 156.607 417.097 126.337 450.807 87.6473C461.693 75.1539 471.753 60.7973 480.987 44.5773C481.28 44.0573 481.62 43.7206 482.007 43.5673C482.108 43.5289 482.218 43.5154 482.326 43.528C482.434 43.5406 482.537 43.5788 482.627 43.6395C482.717 43.7003 482.791 43.7817 482.843 43.877C482.896 43.9723 482.924 44.0787 482.927 44.1873C482.967 47.0873 481.647 50.6873 480.057 53.4473C446.507 111.567 392.467 156.887 332.367 186.027C332.224 186.099 332.112 186.221 332.053 186.368C331.994 186.516 331.991 186.679 332.047 186.827L337.697 202.397C337.747 202.538 337.766 202.689 337.751 202.838C337.737 202.987 337.69 203.131 337.614 203.26C337.537 203.389 337.433 203.499 337.31 203.584C337.186 203.668 337.045 203.724 336.897 203.747C332.737 204.397 327.097 205.047 323.037 203.097C322.866 203.014 322.671 202.996 322.488 203.048C322.305 203.099 322.148 203.217 322.047 203.377L310.117 221.837C309.974 222.059 309.878 222.306 309.833 222.566C309.788 222.825 309.796 223.091 309.857 223.347L311.867 231.937C311.931 232.203 311.907 232.484 311.797 232.737L310.847 234.967C310.807 235.058 310.794 235.158 310.809 235.256C310.825 235.354 310.869 235.445 310.936 235.518C311.003 235.591 311.09 235.644 311.186 235.668C311.282 235.693 311.383 235.689 311.477 235.657C319.55 232.984 328.673 230.257 338.847 227.477C351.667 223.967 365.457 222.157 383.027 219.677C402.217 216.957 420.637 213.867 438.117 206.807C443.167 204.767 447.537 204.447 452.047 206.197C452.212 206.26 452.355 206.368 452.46 206.51C452.565 206.652 452.627 206.821 452.638 206.997C452.65 207.173 452.611 207.348 452.525 207.503C452.44 207.657 452.312 207.784 452.157 207.867C450.17 208.954 448.013 209.934 445.687 210.807C432.973 215.574 419.17 219.111 404.277 221.417C377.287 225.607 361.637 227.647 339.107 233.477C337.187 233.977 323.66 237.774 298.527 244.867C283.207 249.194 266.48 252.547 248.347 254.927C232.293 257.034 216.883 255.441 202.117 250.147C183.597 243.501 165.047 236.214 146.467 228.287C146.372 228.246 146.268 228.229 146.164 228.238C146.061 228.246 145.961 228.28 145.874 228.337C145.787 228.393 145.715 228.47 145.665 228.561C145.615 228.652 145.588 228.754 145.587 228.857C145.52 232.571 144.167 235.791 141.527 238.517C141.467 238.58 141.423 238.657 141.399 238.741C141.376 238.825 141.373 238.913 141.392 238.998C141.411 239.083 141.45 239.162 141.507 239.228C141.564 239.294 141.636 239.346 141.717 239.377C160.847 246.667 178.617 250.647 201.757 256.327C207.217 257.667 212.837 259.457 218.627 261.097C228.847 263.977 238.737 263.847 250.487 261.307C274.12 256.201 297.27 249.957 319.937 242.577C339.457 236.227 357.237 232.107 377.247 231.447C397.687 230.767 417.297 226.847 437.267 222.107C438.534 221.808 439.862 221.921 441.057 222.427L448.907 225.777ZM132.507 158.717C132.347 166.444 133.047 173.997 134.607 181.377C137.667 195.907 147.297 210.427 160.557 217.267C160.689 217.336 160.834 217.375 160.983 217.383C161.132 217.39 161.281 217.365 161.419 217.31C161.557 217.255 161.683 217.171 161.786 217.064C161.889 216.956 161.968 216.828 162.017 216.687C163.757 211.657 163.237 204.977 162.867 199.467C162.713 197.174 161.97 193.991 160.637 189.917C155.957 175.617 146.967 164.987 133.667 158.027C133.547 157.964 133.413 157.932 133.277 157.936C133.142 157.939 133.009 157.977 132.893 158.046C132.776 158.116 132.68 158.214 132.612 158.331C132.544 158.449 132.508 158.582 132.507 158.717ZM139.387 226.647C137.687 223.437 136.317 219.707 134.457 216.737C122.457 197.604 104.71 187.661 81.2168 186.907C80.7701 186.894 80.4201 186.961 80.1668 187.107C80.0997 187.149 80.051 187.214 80.0306 187.29C80.0101 187.367 80.0195 187.448 80.0568 187.517C88.8668 203.987 102.967 216.167 120.027 223.957C126.14 226.744 132.4 227.977 138.807 227.657C138.923 227.652 139.036 227.618 139.135 227.557C139.234 227.497 139.316 227.412 139.374 227.312C139.432 227.211 139.463 227.097 139.466 226.981C139.468 226.865 139.441 226.75 139.387 226.647ZM287.877 190.917C287.833 190.9 287.784 190.9 287.739 190.915C287.695 190.931 287.657 190.962 287.633 191.003C287.609 191.043 287.6 191.091 287.608 191.138C287.616 191.185 287.641 191.227 287.677 191.257C290.457 193.744 292.623 195.957 294.177 197.897C296.21 200.444 296.17 202.861 294.057 205.147C283.67 216.381 276.84 229.561 273.567 244.687C273.55 244.761 273.552 244.837 273.573 244.91C273.593 244.982 273.632 245.048 273.684 245.102C273.737 245.156 273.803 245.195 273.875 245.217C273.947 245.239 274.023 245.243 274.097 245.227C284.037 243.307 293.76 240.944 303.267 238.137C303.401 238.098 303.518 238.012 303.595 237.895C303.672 237.777 303.704 237.636 303.687 237.497C302.687 228.767 305.997 223.437 311.117 215.157C314.357 209.911 317.26 205.447 319.827 201.767C319.868 201.709 319.896 201.642 319.91 201.572C319.924 201.502 319.923 201.429 319.907 201.359C319.891 201.29 319.86 201.224 319.817 201.167C319.774 201.109 319.719 201.062 319.657 201.027C316.387 199.217 310.797 197.387 307.167 196.507C299.913 194.754 293.483 192.891 287.877 190.917ZM81.6467 262.857C94.3067 277.847 118.647 272.757 134.747 267.597C140.997 265.597 148.547 262.207 149.967 255.347C150.847 251.087 149.267 247.197 145.607 244.917C142.96 243.277 140.6 242.297 138.527 241.977C118.357 238.917 94.1268 243.787 81.5968 261.707C81.4766 261.88 81.4163 262.087 81.4253 262.295C81.4344 262.503 81.5123 262.701 81.6467 262.857ZM343.587 302.957C343.582 303.028 343.594 303.098 343.621 303.163C343.648 303.229 343.69 303.287 343.743 303.333C343.797 303.379 343.86 303.413 343.928 303.431C343.996 303.449 344.068 303.451 344.137 303.437C358.447 300.807 373.217 294.227 382.237 282.587C388.887 273.997 400.117 254.577 387.627 246.327C384.673 244.374 381.423 244.261 377.877 245.987C374.77 247.494 372.537 248.924 371.177 250.277C364.503 256.924 358.667 264.094 353.667 271.787C347.467 281.327 344.107 291.717 343.587 302.957Z" fill="white"/>
<path d="M544.978 370.933C543.83 370.933 542.99 370.79 542.457 370.503C541.944 370.216 541.688 369.775 541.688 369.181V364.783C541.688 364.189 541.955 363.748 542.488 363.461C543.021 363.154 543.851 363 544.978 363H546.485C547.613 363 548.433 363.154 548.945 363.461C549.478 363.748 549.745 364.189 549.745 364.783V369.181C549.745 369.775 549.478 370.216 548.945 370.503C548.433 370.79 547.613 370.933 546.485 370.933H544.978ZM541.78 415.828C540.305 415.828 539.157 415.736 538.337 415.551C537.517 415.387 536.932 415.1 536.584 414.69C536.235 414.28 536.061 413.717 536.061 412.999C536.061 412.548 536.153 412.015 536.338 411.4C536.502 410.806 536.738 410.293 537.045 409.863C537.353 409.432 537.691 409.217 538.06 409.217C538.162 409.217 538.408 409.248 538.798 409.309C539.187 409.391 539.495 409.432 539.72 409.432C540.417 409.432 540.92 409.248 541.227 408.879C541.534 408.51 541.688 407.905 541.688 407.064V377.268C541.688 376.694 541.955 376.263 542.488 375.976C543.021 375.689 543.851 375.546 544.978 375.546H546.485C547.613 375.546 548.433 375.689 548.945 375.976C549.478 376.263 549.745 376.694 549.745 377.268V406.972C549.745 408.899 549.396 410.529 548.699 411.861C548.023 413.194 547.09 414.188 545.901 414.844C544.712 415.5 543.338 415.828 541.78 415.828Z" fill="white"/>
<path d="M529.85 370.933C528.702 370.933 527.861 370.79 527.328 370.503C526.816 370.216 526.559 369.775 526.559 369.181V364.783C526.559 364.189 526.826 363.748 527.359 363.461C527.892 363.154 528.722 363 529.85 363H531.356C532.484 363 533.314 363.154 533.847 363.461C534.38 363.748 534.647 364.189 534.647 364.783V369.181C534.647 369.775 534.38 370.216 533.847 370.503C533.335 370.79 532.504 370.933 531.356 370.933H529.85ZM529.85 404.328C527.656 404.328 526.559 403.754 526.559 402.606V377.268C526.559 376.694 526.826 376.263 527.359 375.976C527.892 375.689 528.722 375.546 529.85 375.546H531.356C532.484 375.546 533.314 375.689 533.847 375.976C534.38 376.263 534.647 376.694 534.647 377.268V402.606C534.647 403.754 533.55 404.328 531.356 404.328H529.85Z" fill="white"/>
<path d="M510.016 404.328C507.843 404.328 506.756 403.754 506.756 402.606V385.263C506.756 382.639 506.582 380.456 506.234 378.713C506.131 378.16 506.08 377.77 506.08 377.545C506.08 377.135 506.459 376.807 507.218 376.561C507.997 376.295 508.868 376.1 509.831 375.977C510.815 375.854 511.605 375.792 512.199 375.792C512.835 375.792 513.275 376.028 513.521 376.499C513.788 376.971 514.024 377.658 514.229 378.56L514.413 379.359C515.11 378.088 515.91 377.084 516.812 376.346C517.734 375.587 518.913 375.208 520.348 375.208C521.537 375.208 522.357 375.516 522.808 376.131C523.259 376.725 523.484 377.401 523.484 378.16C523.484 378.57 523.413 379.154 523.269 379.913C523.126 380.651 522.921 381.307 522.654 381.881C522.388 382.455 522.09 382.742 521.762 382.742C521.537 382.742 521.199 382.68 520.748 382.557C520.133 382.393 519.61 382.311 519.179 382.311C518.175 382.311 517.293 382.598 516.535 383.172C515.797 383.726 515.233 384.351 514.844 385.048V402.606C514.844 403.754 513.737 404.328 511.523 404.328H510.016Z" fill="white"/>
<path d="M490.398 404.697C485.601 404.697 482.023 403.416 479.666 400.853C477.308 398.27 476.13 394.693 476.13 390.122C476.13 384.976 477.308 381.204 479.666 378.806C482.023 376.407 485.273 375.208 489.414 375.208C492.161 375.208 494.405 375.833 496.148 377.084C497.911 378.334 499.192 380.015 499.991 382.127C500.811 384.238 501.221 386.626 501.221 389.291C501.221 389.599 501.037 390.009 500.668 390.521C500.319 391.034 499.92 391.495 499.469 391.905C499.018 392.315 498.669 392.52 498.423 392.52H484.494C484.678 394.611 485.293 396.097 486.339 396.979C487.405 397.84 488.881 398.27 490.767 398.27C491.792 398.27 492.714 398.158 493.534 397.932C494.375 397.686 495.266 397.368 496.209 396.979C496.783 396.712 497.173 396.579 497.378 396.579C497.747 396.579 498.146 396.846 498.577 397.379C499.028 397.891 499.407 398.486 499.715 399.162C500.043 399.839 500.207 400.361 500.207 400.73C500.207 401.571 499.633 402.288 498.485 402.883C497.357 403.477 496.014 403.928 494.457 404.236C492.919 404.543 491.566 404.697 490.398 404.697ZM493.35 387.139C493.35 385.458 493.022 384.115 492.366 383.111C491.71 382.086 490.726 381.573 489.414 381.573C486.708 381.573 485.068 383.428 484.494 387.139H493.35Z" fill="white"/>
<path d="M458.264 415.828C449.593 415.828 445.257 413.307 445.257 408.264C445.257 406.85 445.677 405.599 446.518 404.513C447.379 403.426 448.619 402.565 450.238 401.93L450.269 401.714C449.531 401.325 448.957 400.771 448.547 400.054C448.137 399.336 447.932 398.527 447.932 397.625C447.932 396.702 448.209 395.851 448.762 395.072C449.336 394.293 450.156 393.627 451.222 393.074C449.828 392.295 448.732 391.229 447.932 389.876C447.153 388.523 446.764 386.872 446.764 384.925C446.764 381.604 447.84 379.154 449.992 377.576C452.165 375.997 455.015 375.208 458.541 375.208C460.017 375.208 461.421 375.352 462.753 375.639H471.548C472.122 375.639 472.542 375.864 472.809 376.315C473.075 376.745 473.208 377.432 473.208 378.375V379.298C473.208 381.02 472.768 381.881 471.886 381.881C471.579 381.881 471.158 381.86 470.625 381.819C470.113 381.778 469.744 381.727 469.518 381.665L469.426 381.881C469.672 382.209 469.877 382.67 470.041 383.264C470.205 383.838 470.287 384.392 470.287 384.925C470.287 388.184 469.262 390.614 467.212 392.213C465.162 393.791 462.477 394.58 459.156 394.58C456.921 394.58 455.804 395.083 455.804 396.087C455.804 396.538 456.03 396.897 456.481 397.163C456.932 397.409 457.505 397.604 458.202 397.748C458.92 397.891 459.935 398.045 461.247 398.209C462.19 398.311 463.071 398.434 463.891 398.578C466.474 399.09 468.534 399.931 470.072 401.099C471.609 402.247 472.378 404.062 472.378 406.542C472.378 408.408 471.794 410.037 470.625 411.431C469.457 412.825 467.807 413.901 465.675 414.66C463.543 415.439 461.072 415.828 458.264 415.828ZM458.541 388.769C459.75 388.769 460.734 388.451 461.493 387.815C462.272 387.18 462.661 386.216 462.661 384.925C462.661 383.633 462.272 382.67 461.493 382.034C460.734 381.378 459.75 381.05 458.541 381.05C457.331 381.05 456.337 381.378 455.558 382.034C454.8 382.67 454.42 383.633 454.42 384.925C454.42 386.216 454.8 387.18 455.558 387.815C456.337 388.451 457.331 388.769 458.541 388.769ZM458.879 409.433C460.724 409.433 462.118 409.197 463.061 408.725C464.024 408.254 464.506 407.598 464.506 406.757C464.506 406.183 464.229 405.722 463.676 405.374C463.143 405.046 462.272 404.769 461.062 404.543C459.873 404.338 458.202 404.164 456.05 404.021C455.128 404.349 454.41 404.779 453.898 405.312C453.385 405.845 453.129 406.399 453.129 406.973C453.129 407.752 453.6 408.356 454.543 408.787C455.486 409.217 456.932 409.433 458.879 409.433Z" fill="white"/>
<path d="M424.501 404.697C421.713 404.697 419.663 403.969 418.351 402.514C417.059 401.038 416.414 399.09 416.414 396.671C416.414 394.847 416.793 393.207 417.551 391.751C418.31 390.275 419.847 389.035 422.164 388.031C424.48 387.026 427.791 386.524 432.096 386.524V384.71C432.096 383.644 431.758 382.854 431.081 382.342C430.405 381.829 429.328 381.573 427.852 381.573C426.623 381.573 425.567 381.706 424.685 381.973C423.804 382.219 422.851 382.557 421.826 382.988C421.293 383.234 420.965 383.357 420.842 383.357C420.473 383.357 420.063 383.08 419.612 382.526C419.181 381.973 418.802 381.337 418.474 380.62C418.146 379.902 417.982 379.359 417.982 378.99C417.982 378.355 418.433 377.75 419.335 377.176C420.257 376.581 421.518 376.11 423.117 375.762C424.716 375.393 426.489 375.208 428.437 375.208C432.537 375.208 435.519 376.028 437.385 377.668C439.25 379.287 440.183 381.512 440.183 384.341V394.58C440.183 396.282 440.224 397.604 440.306 398.547C440.409 399.49 440.542 400.423 440.706 401.345C440.808 401.899 440.86 402.288 440.86 402.514C440.86 402.924 440.47 403.262 439.691 403.529C438.933 403.795 438.061 403.99 437.077 404.113C436.093 404.236 435.304 404.297 434.71 404.297C434.074 404.297 433.613 404.031 433.326 403.498C433.059 402.944 432.844 402.196 432.68 401.253C432.66 401.13 432.639 401.007 432.619 400.884C432.598 400.761 432.567 400.638 432.526 400.515C432.321 400.905 431.881 401.427 431.204 402.083C430.548 402.739 429.646 403.344 428.498 403.898C427.35 404.431 426.018 404.697 424.501 404.697ZM427.176 398.27C428.201 398.27 429.164 397.953 430.066 397.317C430.968 396.661 431.645 395.831 432.096 394.826V391.813C426.991 391.813 424.439 393.156 424.439 395.841C424.439 396.559 424.675 397.143 425.147 397.594C425.639 398.045 426.315 398.27 427.176 398.27Z" fill="white"/>
<path d="M409.249 404.697C406.645 404.697 404.657 403.969 403.283 402.513C401.93 401.037 401.254 398.803 401.254 395.81V364.783C401.254 363.594 402.351 363 404.544 363H406.082C407.209 363 408.029 363.154 408.542 363.461C409.075 363.748 409.341 364.189 409.341 364.783V395.902C409.341 396.743 409.495 397.348 409.802 397.717C410.11 398.086 410.622 398.27 411.34 398.27C411.524 398.27 411.801 398.229 412.17 398.147C412.273 398.127 412.375 398.106 412.478 398.086C412.58 398.065 412.693 398.055 412.816 398.055C413.123 398.055 413.4 398.332 413.646 398.885C413.913 399.418 414.118 400.023 414.261 400.699C414.405 401.355 414.476 401.786 414.476 401.991C414.476 403.795 412.734 404.697 409.249 404.697Z" fill="white"/>
<path d="M384.495 404.697C381.912 404.697 379.637 404.44 377.669 403.928C375.721 403.395 374.225 402.749 373.179 401.991C372.154 401.232 371.642 400.515 371.642 399.838C371.642 399.305 371.837 398.649 372.226 397.87C372.636 397.091 373.118 396.425 373.671 395.872C374.225 395.298 374.686 395.011 375.055 395.011C375.281 395.011 375.762 395.205 376.5 395.595C377.607 396.169 378.653 396.63 379.637 396.979C380.641 397.327 381.789 397.501 383.081 397.501C384.516 397.501 385.725 397.225 386.709 396.671C387.714 396.097 388.216 395.103 388.216 393.688C388.216 392.868 387.96 392.161 387.447 391.567C386.935 390.972 386.279 390.47 385.479 390.06C384.68 389.65 383.593 389.168 382.22 388.615L379.791 387.569C378.315 386.852 377.044 386.062 375.978 385.201C374.932 384.34 374.071 383.203 373.395 381.788C372.739 380.374 372.411 378.641 372.411 376.591C372.411 374.09 373.026 372.01 374.256 370.349C375.486 368.689 377.085 367.469 379.053 366.69C381.021 365.911 383.132 365.521 385.387 365.521C387.232 365.521 388.903 365.716 390.399 366.106C391.896 366.475 393.064 366.956 393.905 367.551C394.766 368.145 395.196 368.74 395.196 369.334C395.196 369.826 395.032 370.462 394.704 371.241C394.397 371.999 394.007 372.666 393.536 373.24C393.064 373.814 392.623 374.101 392.213 374.101C392.029 374.101 391.701 373.998 391.229 373.793C390.471 373.486 389.702 373.24 388.923 373.055C388.165 372.85 387.232 372.748 386.125 372.748C384.219 372.748 382.896 373.055 382.158 373.67C381.42 374.265 381.051 374.972 381.051 375.792C381.051 376.735 381.297 377.524 381.789 378.16C382.302 378.795 382.937 379.318 383.696 379.728C384.475 380.138 385.551 380.609 386.924 381.142C388.995 382.024 390.686 382.864 391.998 383.664C393.31 384.443 394.438 385.57 395.381 387.046C396.344 388.522 396.826 390.408 396.826 392.704C396.826 395.513 396.231 397.819 395.042 399.623C393.874 401.406 392.357 402.698 390.491 403.497C388.646 404.297 386.648 404.697 384.495 404.697Z" fill="white"/>
<path d="M352.423 404.697C349.82 404.697 347.831 403.969 346.458 402.513C345.105 401.037 344.428 398.803 344.428 395.81V364.783C344.428 363.594 345.525 363 347.718 363H349.256C350.383 363 351.203 363.154 351.716 363.461C352.249 363.748 352.515 364.189 352.515 364.783V395.902C352.515 396.743 352.669 397.348 352.977 397.717C353.284 398.086 353.797 398.27 354.514 398.27C354.699 398.27 354.975 398.229 355.344 398.147C355.447 398.127 355.549 398.106 355.652 398.086C355.754 398.065 355.867 398.055 355.99 398.055C356.298 398.055 356.574 398.332 356.82 398.885C357.087 399.418 357.292 400.023 357.435 400.699C357.579 401.355 357.651 401.786 357.651 401.991C357.651 403.795 355.908 404.697 352.423 404.697Z" fill="white"/>
<path d="M328.039 404.697C323.242 404.697 319.664 403.416 317.307 400.853C314.949 398.27 313.771 394.693 313.771 390.122C313.771 384.976 314.949 381.204 317.307 378.806C319.664 376.407 322.914 375.208 327.055 375.208C329.802 375.208 332.046 375.833 333.789 377.084C335.552 378.334 336.833 380.015 337.633 382.127C338.453 384.238 338.863 386.626 338.863 389.291C338.863 389.599 338.678 390.009 338.309 390.521C337.961 391.034 337.561 391.495 337.11 391.905C336.659 392.315 336.31 392.52 336.064 392.52H322.135C322.319 394.611 322.934 396.097 323.98 396.979C325.046 397.84 326.522 398.27 328.408 398.27C329.433 398.27 330.355 398.158 331.175 397.932C332.016 397.686 332.907 397.368 333.85 396.979C334.424 396.712 334.814 396.579 335.019 396.579C335.388 396.579 335.788 396.846 336.218 397.379C336.669 397.891 337.048 398.486 337.356 399.162C337.684 399.839 337.848 400.361 337.848 400.73C337.848 401.571 337.274 402.288 336.126 402.883C334.998 403.477 333.656 403.928 332.098 404.236C330.56 404.543 329.207 404.697 328.039 404.697ZM330.991 387.139C330.991 385.458 330.663 384.115 330.007 383.111C329.351 382.086 328.367 381.573 327.055 381.573C324.349 381.573 322.709 383.428 322.135 387.139H330.991Z" fill="white"/>
<path d="M292.031 404.697C289.243 404.697 287.193 403.969 285.881 402.514C284.589 401.038 283.944 399.09 283.944 396.671C283.944 394.847 284.323 393.207 285.081 391.751C285.84 390.275 287.377 389.035 289.694 388.031C292.01 387.026 295.321 386.524 299.626 386.524V384.71C299.626 383.644 299.288 382.854 298.611 382.342C297.935 381.829 296.859 381.573 295.383 381.573C294.153 381.573 293.097 381.706 292.215 381.973C291.334 382.219 290.381 382.557 289.356 382.988C288.823 383.234 288.495 383.357 288.372 383.357C288.003 383.357 287.593 383.08 287.142 382.526C286.711 381.973 286.332 381.337 286.004 380.62C285.676 379.902 285.512 379.359 285.512 378.99C285.512 378.355 285.963 377.75 286.865 377.176C287.787 376.581 289.048 376.11 290.647 375.762C292.246 375.393 294.019 375.208 295.967 375.208C300.067 375.208 303.049 376.028 304.915 377.668C306.78 379.287 307.713 381.512 307.713 384.341V394.58C307.713 396.282 307.754 397.604 307.836 398.547C307.939 399.49 308.072 400.423 308.236 401.345C308.338 401.899 308.39 402.288 308.39 402.514C308.39 402.924 308 403.262 307.221 403.529C306.463 403.795 305.591 403.99 304.607 404.113C303.623 404.236 302.834 404.297 302.24 404.297C301.604 404.297 301.143 404.031 300.856 403.498C300.589 402.944 300.374 402.196 300.21 401.253C300.19 401.13 300.169 401.007 300.149 400.884C300.128 400.761 300.097 400.638 300.056 400.515C299.851 400.905 299.411 401.427 298.734 402.083C298.078 402.739 297.176 403.344 296.028 403.898C294.88 404.431 293.548 404.697 292.031 404.697ZM294.706 398.27C295.731 398.27 296.695 397.953 297.597 397.317C298.499 396.661 299.175 395.831 299.626 394.826V391.813C294.522 391.813 291.969 393.156 291.969 395.841C291.969 396.559 292.205 397.143 292.677 397.594C293.169 398.045 293.845 398.27 294.706 398.27Z" fill="white"/>
<path d="M266.078 415.828C257.407 415.828 253.071 413.307 253.071 408.264C253.071 406.85 253.491 405.599 254.332 404.513C255.193 403.426 256.433 402.565 258.052 401.93L258.083 401.714C257.345 401.325 256.771 400.771 256.361 400.054C255.951 399.336 255.746 398.527 255.746 397.625C255.746 396.702 256.023 395.851 256.576 395.072C257.15 394.293 257.97 393.627 259.036 393.074C257.642 392.295 256.546 391.229 255.746 389.876C254.967 388.523 254.578 386.872 254.578 384.925C254.578 381.604 255.654 379.154 257.806 377.576C259.979 375.997 262.829 375.208 266.355 375.208C267.831 375.208 269.235 375.352 270.567 375.639H279.362C279.936 375.639 280.356 375.864 280.623 376.315C280.889 376.745 281.022 377.432 281.022 378.375V379.298C281.022 381.02 280.582 381.881 279.7 381.881C279.393 381.881 278.972 381.86 278.439 381.819C277.927 381.778 277.558 381.727 277.332 381.665L277.24 381.881C277.486 382.209 277.691 382.67 277.855 383.264C278.019 383.838 278.101 384.392 278.101 384.925C278.101 388.184 277.076 390.614 275.026 392.213C272.976 393.791 270.291 394.58 266.97 394.58C264.735 394.58 263.618 395.083 263.618 396.087C263.618 396.538 263.843 396.897 264.294 397.163C264.745 397.409 265.319 397.604 266.016 397.748C266.734 397.891 267.749 398.045 269.061 398.209C270.004 398.311 270.885 398.434 271.705 398.578C274.288 399.09 276.348 399.931 277.886 401.099C279.423 402.247 280.192 404.062 280.192 406.542C280.192 408.408 279.608 410.037 278.439 411.431C277.271 412.825 275.621 413.901 273.489 414.66C271.357 415.439 268.886 415.828 266.078 415.828ZM266.355 388.769C267.564 388.769 268.548 388.451 269.307 387.815C270.086 387.18 270.475 386.216 270.475 384.925C270.475 383.633 270.086 382.67 269.307 382.034C268.548 381.378 267.564 381.05 266.355 381.05C265.145 381.05 264.151 381.378 263.372 382.034C262.613 382.67 262.234 383.633 262.234 384.925C262.234 386.216 262.613 387.18 263.372 387.815C264.151 388.451 265.145 388.769 266.355 388.769ZM266.693 409.433C268.538 409.433 269.932 409.197 270.875 408.725C271.838 408.254 272.32 407.598 272.32 406.757C272.32 406.183 272.043 405.722 271.49 405.374C270.957 405.046 270.086 404.769 268.876 404.543C267.687 404.338 266.016 404.164 263.864 404.021C262.941 404.349 262.224 404.779 261.711 405.312C261.199 405.845 260.943 406.399 260.943 406.973C260.943 407.752 261.414 408.356 262.357 408.787C263.3 409.217 264.745 409.433 266.693 409.433Z" fill="white"/>
<path d="M238.803 404.697C234.006 404.697 230.429 403.416 228.071 400.853C225.714 398.27 224.535 394.693 224.535 390.122C224.535 384.976 225.714 381.204 228.071 378.806C230.429 376.407 233.678 375.208 237.819 375.208C240.566 375.208 242.811 375.833 244.553 377.084C246.316 378.334 247.597 380.015 248.397 382.127C249.217 384.238 249.627 386.626 249.627 389.291C249.627 389.599 249.442 390.009 249.073 390.521C248.725 391.034 248.325 391.495 247.874 391.905C247.423 392.315 247.075 392.52 246.829 392.52H232.899C233.083 394.611 233.698 396.097 234.744 396.979C235.81 397.84 237.286 398.27 239.172 398.27C240.197 398.27 241.119 398.158 241.939 397.932C242.78 397.686 243.672 397.368 244.615 396.979C245.189 396.712 245.578 396.579 245.783 396.579C246.152 396.579 246.552 396.846 246.982 397.379C247.433 397.891 247.812 398.486 248.12 399.162C248.448 399.839 248.612 400.361 248.612 400.73C248.612 401.571 248.038 402.288 246.89 402.883C245.763 403.477 244.42 403.928 242.862 404.236C241.324 404.543 239.971 404.697 238.803 404.697ZM241.755 387.139C241.755 385.458 241.427 384.115 240.771 383.111C240.115 382.086 239.131 381.573 237.819 381.573C235.113 381.573 233.473 383.428 232.899 387.139H241.755Z" fill="white"/>
<path d="M215.679 404.697C213.076 404.697 211.087 403.969 209.714 402.514C208.361 401.038 207.684 398.803 207.684 395.81V382.034H206.823C206.249 382.034 205.829 381.819 205.562 381.389C205.316 380.958 205.193 380.261 205.193 379.298V378.375C205.193 377.412 205.316 376.715 205.562 376.284C205.829 375.854 206.249 375.638 206.823 375.638H207.684L208.391 370.442C208.555 369.294 209.539 368.72 211.343 368.72H213.065C214.008 368.72 214.695 368.863 215.126 369.15C215.577 369.437 215.802 369.868 215.802 370.442V375.638H218.477C219.051 375.638 219.461 375.854 219.707 376.284C219.974 376.715 220.107 377.412 220.107 378.375V379.298C220.107 380.261 219.974 380.958 219.707 381.389C219.461 381.819 219.051 382.034 218.477 382.034H215.802V395.903C215.802 396.743 215.946 397.348 216.233 397.717C216.54 398.086 217.042 398.27 217.739 398.27C217.944 398.27 218.221 398.24 218.57 398.178C218.918 398.096 219.133 398.055 219.215 398.055C219.543 398.055 219.83 398.332 220.076 398.885C220.343 399.418 220.548 400.013 220.691 400.669C220.855 401.325 220.937 401.765 220.937 401.991C220.937 403.795 219.185 404.697 215.679 404.697Z" fill="white"/>
<path d="M179.456 404.328C177.262 404.328 176.166 403.754 176.166 402.606V364.783C176.166 364.189 176.432 363.748 176.965 363.461C177.498 363.154 178.328 363 179.456 363H180.962C183.156 363 184.253 363.594 184.253 364.783V378.898C185.155 377.811 186.272 376.93 187.604 376.253C188.957 375.556 190.403 375.208 191.94 375.208C194.687 375.208 196.747 375.935 198.121 377.391C199.494 378.826 200.181 381.04 200.181 384.033V402.606C200.181 403.754 199.095 404.328 196.922 404.328H195.415C193.201 404.328 192.094 403.754 192.094 402.606V385.263C192.094 383.008 190.925 381.88 188.588 381.88C187.604 381.88 186.733 382.208 185.975 382.864C185.237 383.5 184.663 384.228 184.253 385.048V402.606C184.253 403.754 183.156 404.328 180.962 404.328H179.456Z" fill="white"/>
<path d="M162.082 404.697C157.429 404.697 153.974 403.498 151.719 401.099C149.464 398.68 148.337 395.021 148.337 390.122C148.337 385.181 149.475 381.46 151.75 378.959C154.026 376.458 157.572 375.208 162.39 375.208C163.763 375.208 165.147 375.362 166.541 375.669C167.955 375.956 169.124 376.387 170.046 376.961C170.989 377.514 171.461 378.191 171.461 378.99C171.461 379.318 171.276 379.831 170.907 380.528C170.559 381.225 170.149 381.85 169.677 382.403C169.226 382.936 168.847 383.203 168.54 383.203C168.396 383.203 168.078 383.059 167.586 382.772C166.807 382.403 166.069 382.116 165.372 381.911C164.675 381.686 163.825 381.573 162.82 381.573C160.668 381.573 159.099 382.26 158.115 383.633C157.131 384.986 156.639 387.077 156.639 389.906C156.639 392.756 157.101 394.867 158.023 396.241C158.966 397.594 160.463 398.27 162.513 398.27C163.64 398.27 164.624 398.158 165.465 397.932C166.305 397.686 167.105 397.379 167.863 397.01C168.007 396.948 168.181 396.876 168.386 396.794C168.591 396.712 168.745 396.671 168.847 396.671C169.216 396.671 169.616 396.938 170.046 397.471C170.497 397.983 170.877 398.578 171.184 399.254C171.512 399.931 171.676 400.454 171.676 400.823C171.676 401.766 171.061 402.524 169.831 403.098C168.601 403.672 167.228 404.082 165.711 404.328C164.194 404.574 162.984 404.697 162.082 404.697Z" fill="white"/>
<path d="M126.597 404.697C123.809 404.697 121.759 403.969 120.447 402.514C119.156 401.038 118.51 399.09 118.51 396.671C118.51 394.847 118.889 393.207 119.648 391.751C120.406 390.275 121.943 389.035 124.26 388.031C126.576 387.026 129.887 386.524 134.192 386.524V384.71C134.192 383.644 133.854 382.854 133.177 382.342C132.501 381.829 131.425 381.573 129.949 381.573C128.719 381.573 127.663 381.706 126.781 381.973C125.9 382.219 124.947 382.557 123.922 382.988C123.389 383.234 123.061 383.357 122.938 383.357C122.569 383.357 122.159 383.08 121.708 382.526C121.277 381.973 120.898 381.337 120.57 380.62C120.242 379.902 120.078 379.359 120.078 378.99C120.078 378.355 120.529 377.75 121.431 377.176C122.353 376.581 123.614 376.11 125.213 375.762C126.812 375.393 128.585 375.208 130.533 375.208C134.633 375.208 137.616 376.028 139.481 377.668C141.347 379.287 142.279 381.512 142.279 384.341V394.58C142.279 396.282 142.32 397.604 142.402 398.547C142.505 399.49 142.638 400.423 142.802 401.345C142.905 401.899 142.956 402.288 142.956 402.514C142.956 402.924 142.566 403.262 141.787 403.529C141.029 403.795 140.158 403.99 139.174 404.113C138.19 404.236 137.4 404.297 136.806 404.297C136.17 404.297 135.709 404.031 135.422 403.498C135.156 402.944 134.94 402.196 134.776 401.253C134.756 401.13 134.735 401.007 134.715 400.884C134.694 400.761 134.664 400.638 134.623 400.515C134.418 400.905 133.977 401.427 133.3 402.083C132.644 402.739 131.742 403.344 130.594 403.898C129.446 404.431 128.114 404.697 126.597 404.697ZM129.272 398.27C130.297 398.27 131.261 397.953 132.163 397.317C133.065 396.661 133.741 395.831 134.192 394.826V391.813C129.088 391.813 126.535 393.156 126.535 395.841C126.535 396.559 126.771 397.143 127.243 397.594C127.735 398.045 128.411 398.27 129.272 398.27Z" fill="white"/>
<path d="M83.9777 404.328C81.7842 404.328 80.6875 403.754 80.6875 402.606V367.613C80.6875 367.018 80.954 366.577 81.487 366.29C82.02 365.983 82.8502 365.829 83.9777 365.829H86.3147C87.1962 365.829 87.9239 365.932 88.4979 366.137C89.0719 366.342 89.5434 366.741 89.9124 367.336L102.827 387.231L104.303 389.445V367.613C104.303 367.018 104.57 366.577 105.103 366.29C105.636 365.983 106.466 365.829 107.594 365.829H109.162C110.289 365.829 111.109 365.983 111.622 366.29C112.155 366.577 112.421 367.018 112.421 367.613V402.606C112.421 403.754 111.335 404.328 109.162 404.328H107.071C106.169 404.328 105.441 404.236 104.888 404.051C104.334 403.846 103.873 403.457 103.504 402.883L89.9739 382.188L88.8054 380.466V402.606C88.8054 403.754 87.7189 404.328 85.546 404.328H83.9777Z" fill="white"/>
<path d="M50.7987 404.697C46.0017 404.697 42.4245 403.416 40.067 400.853C37.7095 398.27 36.5308 394.693 36.5308 390.122C36.5308 384.976 37.7095 381.204 40.067 378.806C42.4245 376.407 45.6737 375.208 49.8147 375.208C52.5616 375.208 54.8064 375.833 56.5489 377.084C58.3119 378.334 59.5931 380.015 60.3926 382.127C61.2126 384.238 61.6226 386.626 61.6226 389.291C61.6226 389.599 61.4381 390.009 61.0691 390.521C60.7206 391.034 60.3208 391.495 59.8698 391.905C59.4188 392.315 59.0704 392.52 58.8244 392.52H44.8947C45.0792 394.611 45.6942 396.097 46.7397 396.979C47.8057 397.84 49.2817 398.27 51.1677 398.27C52.1927 398.27 53.1151 398.158 53.9351 397.932C54.7756 397.686 55.6674 397.368 56.6104 396.979C57.1844 396.712 57.5739 396.579 57.7789 396.579C58.1479 396.579 58.5476 396.846 58.9781 397.379C59.4291 397.891 59.8083 398.486 60.1158 399.162C60.4438 399.839 60.6078 400.361 60.6078 400.73C60.6078 401.571 60.0338 402.288 58.8859 402.883C57.7584 403.477 56.4156 403.928 54.8576 404.236C53.3201 404.543 51.9672 404.697 50.7987 404.697ZM53.7506 387.139C53.7506 385.458 53.4226 384.115 52.7666 383.111C52.1107 382.086 51.1267 381.573 49.8147 381.573C47.1087 381.573 45.4687 383.428 44.8947 387.139H53.7506Z" fill="white"/>
<path d="M2.18323 404.235C1.42474 404.235 0.871244 404.061 0.522746 403.712C0.174249 403.364 0 402.81 0 402.052V368.135C0 367.376 0.174249 366.833 0.522746 366.505C0.871244 366.157 1.42474 365.982 2.18323 365.982H14.4216C18.1731 365.982 21.3506 366.72 23.9541 368.196C26.5781 369.652 28.5563 371.804 29.8888 374.654C31.2418 377.503 31.9183 380.978 31.9183 385.078C31.9183 389.199 31.2418 392.683 29.8888 395.533C28.5563 398.382 26.5781 400.545 23.9541 402.021C21.3506 403.497 18.1731 404.235 14.4216 404.235H2.18323ZM14.4216 397.07C17.3326 397.07 19.5364 396.056 21.0329 394.026C22.5293 391.976 23.2776 388.994 23.2776 385.078C23.2776 381.183 22.5293 378.221 21.0329 376.191C19.5364 374.141 17.3326 373.116 14.4216 373.116H8.48694V397.07H14.4216Z" fill="white"/>
</svg>
