<?xml version="1.0" encoding="UTF-8"?>
<svg id="Layer_1" data-name="Layer 1" xmlns="http://www.w3.org/2000/svg" viewBox="0 0 601.38 189.79">
  <defs>
    <style>
      .cls-1 {
        fill: #fff;
      }
    </style>
  </defs>
  <g>
    <path class="cls-1" d="m193.09,167.15h17.95v-67.6h-17.95v67.6Zm49.51,1.34c14.51,0,25.83-10.06,25.83-25.08s-11.32-24.91-25.83-24.91-25.83,9.81-25.83,24.91,11.49,25.08,25.83,25.08m0-15.93c-3.94,0-7.72-3.36-7.72-9.14s3.86-8.97,7.72-8.97,7.71,3.19,7.71,8.97-3.77,9.14-7.71,9.14m51.74-43.61h-17.28v10.9h-6.46v14.59h6.46v13.17c0,12.49,6.88,20.88,21.13,20.88,3.77,0,6.04-.34,8.72-.92v-14.93c-1.51.25-2.93.42-4.27.42-4.7,0-8.3-1.76-8.3-6.54v-12.08h11.99v-14.59h-11.99v-10.9Zm63.51,33.8c0-15.85-10.32-24.24-22.98-24.24-14.01,0-24.57,10.32-24.57,25.08s9.9,24.91,28.01,24.91c5.95,0,11.49-1.17,16.35-3.52v-13.67c-4.19,1.85-8.72,3.52-13.84,3.52-5.62,0-10.82-2.1-13.08-6.63h29.69c.25-1.59.42-3.44.42-5.45m-30.78-4.45c1.26-3.77,4.19-6.12,7.72-6.12,3.86,0,6.04,2.85,6.12,6.12h-13.84Zm36.89,28.85h17.95v-20.3c0-8.47,4.78-10.99,10.06-10.99,1.42,0,2.94.17,4.45.5v-16.61c-1.17-.34-2.35-.5-3.86-.5-4.28,0-9.31,1.84-12.41,7.3h-.17l-1.76-6.71h-14.26v47.3Zm45.49-52.9c5.12,0,9.31-4.11,9.31-9.23s-4.19-9.23-9.31-9.23-9.31,4.11-9.31,9.23,4.11,9.23,9.31,9.23m-8.97,52.9h17.95v-47.3h-17.95v47.3Zm35.28-52.9c5.12,0,9.31-4.11,9.31-9.23s-4.19-9.23-9.31-9.23-9.31,4.11-9.31,9.23,4.11,9.23,9.31,9.23m-8.75,5.6v50.91c0,2.18-1.01,3.19-3.44,3.19h-3.6v15.85h6.21c11.07,0,19.46-4.7,19.46-19.37v-50.57h-18.62Z"/>
    <path class="cls-1" d="m223.16,22.71c-6.29,0-11.15,3.1-14.01,7.55h-.34l-1.76-6.21h-13.92v47.3h17.95v-27.42c0-3.02,2.1-5.28,5.53-5.28s4.95,1.68,4.95,5.53v27.17h17.95v-31.87c0-10.65-6.04-16.77-16.36-16.77m51.55,46.32c3.19,2.42,7.15,3.19,11.11,3.19,3.67,0,6.96-.68,8.99-1.84v-13.14c-.77.39-1.55.58-2.22.58-1.74,0-2.42-1.16-2.42-3.09v-13.72c0-5.99-1.64-10.44-5.89-13.63-4.06-3.09-10.34-4.64-17.2-4.64s-13.53,1.64-17.59,3.48v14.88c3.96-1.64,8.79-3.19,13.82-3.19,2.51,0,4.93.39,6.38,1.74.97.97,1.35,2.03,1.35,3.48v.68c-2.32-.48-4.64-.77-7.25-.77-4.64,0-9.66.87-13.34,3.57-3.19,2.32-5.6,6.28-5.6,11.4s2.32,8.89,6.09,11.4c3.09,2.03,6.86,3,11.21,3,4.73,0,8.89-1.25,12.37-3.38h.19Zm-4.84-9.95c-.97.39-2.22.68-3.38.68-2.22,0-4.25-1.06-4.25-3.38,0-2.51,2.32-3.48,4.83-3.48.68,0,1.93.1,2.8.29v5.89Zm51.1-45.93h-17.28v10.9h-6.46v14.59h6.46v13.17c0,12.49,6.88,20.88,21.13,20.88,3.77,0,6.04-.34,8.72-.92v-14.93c-1.51.25-2.94.42-4.28.42-4.7,0-8.3-1.76-8.3-6.54v-12.08h11.99v-14.59h-11.99v-10.9Zm28.24,5.3c5.12,0,9.31-4.11,9.31-9.23s-4.19-9.23-9.31-9.23-9.31,4.11-9.31,9.23,4.11,9.23,9.31,9.23m-8.97,52.9h17.95V24.05h-17.95v47.3Zm49.24,1.34c14.51,0,25.83-10.07,25.83-25.08s-11.32-24.91-25.83-24.91-25.83,9.81-25.83,24.91,11.49,25.08,25.83,25.08m0-15.94c-3.94,0-7.72-3.35-7.72-9.14s3.86-8.97,7.72-8.97,7.72,3.19,7.72,8.97-3.77,9.14-7.72,9.14m61.62-34.05c-6.29,0-11.16,3.1-14.01,7.55h-.34l-1.76-6.21h-13.92v47.3h17.95v-27.42c0-3.02,2.1-5.28,5.53-5.28s4.95,1.68,4.95,5.53v27.17h17.95v-31.87c0-10.65-6.04-16.77-16.35-16.77m51.55,46.32c3.19,2.42,7.15,3.19,11.11,3.19,3.67,0,6.96-.68,8.99-1.84v-13.14c-.77.39-1.55.58-2.22.58-1.74,0-2.42-1.16-2.42-3.09v-13.72c0-5.99-1.64-10.44-5.89-13.63-4.06-3.09-10.34-4.64-17.2-4.64s-13.53,1.64-17.59,3.48v14.88c3.96-1.64,8.79-3.19,13.82-3.19,2.51,0,4.93.39,6.38,1.74.97.97,1.35,2.03,1.35,3.48v.68c-2.32-.48-4.64-.77-7.25-.77-4.64,0-9.66.87-13.34,3.57-3.19,2.32-5.61,6.28-5.61,11.4s2.32,8.89,6.09,11.4c3.09,2.03,6.86,3,11.21,3,4.73,0,8.89-1.25,12.37-3.38h.19Zm-3.67-9.95c-.97.39-2.22.68-3.38.68-2.22,0-4.25-1.06-4.25-3.38,0-2.51,2.32-3.48,4.83-3.48.68,0,1.93.1,2.8.29v5.89Zm31.17,12.27h17.95V3.75h-17.95v67.6Zm71.23-24.41c0-15.85-10.32-24.24-22.98-24.24-14.01,0-24.57,10.32-24.57,25.08s9.9,24.91,28.01,24.91c5.95,0,11.49-1.18,16.35-3.52v-13.67c-4.19,1.85-8.72,3.52-13.84,3.52-5.62,0-10.82-2.1-13.08-6.63h29.69c.25-1.59.42-3.44.42-5.45m-29.62-4.45c1.26-3.77,4.19-6.12,7.72-6.12,3.86,0,6.04,2.85,6.12,6.12h-13.84Z"/>
  </g>
  <path class="cls-1" d="m76.83,13.06C34.4,13.06,0,47.46,0,89.89s34.4,76.83,76.83,76.83c26.27,0,47.56-21.29,47.56-47.56s-18.29-48.08-47.56-47.56c-10.1.18-18.61-6.69-18.29-18.29s11.6-17.3,22.22-17.77c25.56-1.13,44.42,13.87,55.21,35.54,4.29,8.96,6.81,19.87,6.81,30.48,0,15.42-5.56,28.85-14.26,40.13-.58.75-.71,1.91,0,2.62.71.71,1.85.71,2.56,0,6.68-6.66,22.59-25.15,22.59-54.42,0-42.43-34.4-76.83-76.83-76.83Zm0,76.83c16.16,0,29.27,13.1,29.27,29.27s-13.1,29.27-29.27,29.27-29.27-13.1-29.27-29.27,13.1-29.27,29.27-29.27Z"/>
</svg>