<?xml version="1.0" encoding="UTF-8"?><svg id="Layer_1" xmlns="http://www.w3.org/2000/svg" viewBox="0 0 501.75 501.75"><path d="M22.51,344.21c0,41.62,33.97,39.8,46.88,37.18,12.91-2.62,46.88-14.58,46.88-56.2s-33.97-39.8-46.88-37.18c-12.91,2.62-46.88,14.58-46.88,56.2m20.38-4.13c0-24.83,15.49-34.15,26.5-36.38,11-2.23,26.5,.8,26.5,25.63s-15.49,34.14-26.5,36.38c-11,2.23-26.5-.8-26.5-25.63m112.78-9.92c0-10.5,3.12-21.76,16.17-24.4,12.09-2.45,16.17,6.48,16.17,16.85,0,7.78-3.4,20.57-15.63,23.06-12.09,2.45-16.71-5.75-16.71-15.51m0-34.34l-18.21,3.7v91.28l19.02-3.86v-33.97l.27-.06c2.31,3.11,7.07,8.69,20.39,5.99,21.46-4.35,30.43-23.47,30.43-41.5,0-22.73-14.13-30.98-30.02-27.75-12.77,2.59-18.07,9.72-21.61,15.62l-.27,.05v-9.51h0Zm93.34-36.73l-19.02,3.86v17.79l-9.78,1.98v12.35l9.78-1.98v39.9c0,8.52,2.99,13.6,19.43,10.26l2.45-.5c2.99-.6,5.98-1.33,8.97-2.07v-13.09c-1.36,.4-2.72,.8-3.94,1.05-7.74,1.57-7.88,.11-7.88-3.71v-35.7l11.82-2.4v-12.35l-11.82,2.4v-17.79h0Zm31.25,77.17l19.02-3.86v-65.71l-19.02,3.86v65.71h0Zm19.02-93.41l-19.02,3.86v16.06l19.02-3.86v-16.06h0Zm67.53,56.58c-1.5,5-6.93,8.57-12.23,9.65-15.35,3.12-16.44-7.78-16.98-12.61l49.6-10.06v-3.09c0-30.02-19.7-32.19-33.97-29.3-31.66,6.42-34.65,32.35-34.65,40.25,0,27.05,15.63,32.78,36.01,28.64,12.37-2.51,26.77-10.62,31.8-27.45l-19.56,3.97h0Zm-28.67-14.31c1.09-8.87,5.84-15.02,14.81-16.84,6.12-1.24,13.59,.45,14.67,10.86l-29.49,5.99h0Zm88.05,.78l7.88-9.01,17.26,24.66,22.83-4.63-26.22-34.95,25.54-30.62-23.37,4.74-23.91,29.8v-47.93l-19.02,3.86v88.69l19.02-3.86v-20.76h0Z" fill="#fff"/><path d="M210.3,397.54l29.49-5.98v-15.69l-79.35,16.1v15.69l29.49-5.99v73l20.38-4.13v-73h0Zm46.74,63.52l19.02-3.86v-34.22c0-7.29,2.71-16.24,17.53-19.24,1.77-.36,3.81-.77,5.43-.85v-17.54c-1.22,.12-2.44,.25-3.67,.5-11.55,2.34-15.9,9.65-19.84,17.12l-.27,.05v-11.36l-18.21,3.69v65.71h0Zm118.35-72.43c0-16.18-18.62-15.25-28.8-13.18-14.81,3-30.17,8.96-32.34,29.54l18.34-3.72c.55-3.94,2.18-9.58,11.69-11.51,4.89-.99,12.5-2.17,12.5,5.12,0,3.71-3.67,5.56-6.66,6.54l-17.12,5.82c-12.09,4.06-21.06,12.42-21.06,25.27,0,13.59,11.15,16.88,22.01,14.68,12.91-2.62,19.02-9.29,23.37-14.25,.41,3.62,.68,4.55,1.77,7.42l20.52-4.16v-2.59c-2.31-.27-4.21-1.62-4.21-9.4v-35.57h0Zm-18.62,28.6c0,8.03-8.56,14.71-16.98,16.42-3.67,.74-8.83-.06-8.83-6.11,0-7.17,5.84-9.95,12.91-12.5,7.88-2.71,11.01-4.46,12.91-6.2v8.4h0Zm60.19-20c0-10.5,3.12-21.75,16.17-24.4,12.1-2.45,16.17,6.48,16.17,16.85,0,7.78-3.39,20.57-15.63,23.06-12.09,2.45-16.71-5.75-16.71-15.51m0-34.34l-18.21,3.7v91.28l19.03-3.86v-33.97l.27-.06c2.31,3.11,7.07,8.7,20.39,5.99,21.47-4.36,30.43-23.47,30.43-41.51,0-22.73-14.13-30.98-30.03-27.75-12.77,2.59-18.07,9.72-21.6,15.63l-.27,.05v-9.51h0Z" fill="#fff"/><path d="M134.53,221.61c48.09,0,87.08-38.99,87.08-87.08s-38.99-87.07-87.08-87.07S47.46,86.44,47.46,134.53s38.99,87.08,87.08,87.08M57.91,134.53c0-42.32,34.3-76.62,76.62-76.62s76.62,34.3,76.62,76.62-34.3,76.62-76.62,76.62-76.62-34.31-76.62-76.62" fill="#fff"/><path d="M0,501.75H501.75V0H0V501.75H0ZM11.5,11.5H490.26V490.25H11.5V11.5h0Z" fill="#fff"/><polygon points="107.46 140.71 164.8 140.71 164.8 266.74 177.74 266.74 177.74 140.71 234.22 140.71 234.22 129.67 107.46 129.67 107.46 140.71 107.46 140.71" fill="#fff"/></svg>