<svg id="_层_1" xmlns="http://www.w3.org/2000/svg" viewBox="0 0 549.959 203.049">
    <defs>
        <style>.cls-1{fill:#fff;}</style>
    </defs>
    <path class="cls-1" d="M101.529,0C45.485,0,0,45.442,0,101.525c0,56.046,45.484,101.524,101.529,101.524s101.525-45.478,101.525-101.524C203.054,45.442,157.589,0,101.529,0ZM22.046,149.493c-8.46-14.023-13.348-30.407-13.348-47.968C8.698,50.244,50.276,8.686,101.529,8.686c20.622,0,39.686,6.748,55.09,18.128-18.932,62.737-70.711,105.253-134.573,122.679Zm79.483,44.85c-28.602,0-54.15-12.926-71.165-33.243,56.425-17.679,97.312-17.806,125.449-38.521,16.194-11.954,26.877-31.03,26.877-52.72,0-6.046-.844-11.867-2.4-17.461,8.889,14.253,14.071,31.099,14.071,49.126,0,51.253-41.552,92.819-92.832,92.819Z" />
    <g>
        <path class="cls-1" d="M303.074,25.922v-.071c-.011-.277-.049-.766-.131-1.233-.13-.935-.316-1.828-.597-2.704-2.074-6.563-7.639-10.778-14.186-10.778-.664,0-1.321,.035-1.988,.116-8.4,1.089-14.089,8.688-12.964,17.301,1.004,7.813,7.267,13.16,14.935,13.16,.622,0,1.306-.048,1.993-.119,4.078-.52,7.625-2.224,10.329-5.546,.14-.187,.211-.443,.186-.647-.021-.189-.128-.372-.345-.529-.432-.325-2.039-1.103-2.925-1.502-.264-.14-.469-.239-.563-.299-.274-.133-.468-.196-.647-.196-.201,0-.403,.087-.596,.334-1.758,2.025-3.922,3.073-6.158,3.389-.464,.042-.868,.059-1.276,.059-4.082,0-8.192-2.723-9.394-6.46l-.023-.107,.083-.039c.216-.101,2.106-.998,4.935-.998,.368,0,.716,.017,1.08,.052,.798,.06,1.61,.176,2.471,.268,1.571,.224,3.235,.435,5.152,.435,1.172,0,2.329-.095,3.524-.246,4.659-.911,6.504-2.211,6.504-2.222,.694-.427,.664-.775,.601-1.418m-5.27-1.901c-.759,.233-1.811,.468-3.111,.632-.622,.064-1.313,.099-2.129,.099-1.377,0-2.842-.092-4.263-.208h-.053c-1.336-.121-2.584-.201-3.779-.201-.849,0-1.638,.043-2.394,.152-2.257,.263-4.02,.98-4.02,.98l.016-.179c.45-4.511,4.229-8.35,8.794-8.96,.43-.044,.863-.072,1.295-.072,4.296,0,8.494,3.275,9.746,7.607l.024,.106-.126,.044Z" />
        <path class="cls-1" d="M376.109,12.845c0-.384-.309-.703-.692-.703h-3.862c-.374,0-.7,.319-.7,.703v27.432c0,.375,.325,.709,.7,.709h3.862c.383,0,.692-.334,.692-.709V12.845Z" />
        <path class="cls-1" d="M373.496,2.356c-1.924,0-3.489,1.572-3.489,3.47,0,1.934,1.566,3.488,3.489,3.488,1.9,0,3.489-1.553,3.489-3.488-.001-1.897-1.589-3.47-3.489-3.47" />
        <path class="cls-1" d="M322.224,41.722h.748c3.946,0,7.656-1.498,10.385-4.272,2.777-2.809,4.314-6.658,4.314-10.863,0-8.66-6.683-15.451-15.21-15.451-6.921,0-12.802,4.558-14.567,11.355-.32,1.139-.64,4.097-.64,7.018v21.54c0,.39,.32,.707,.709,.707l3.844-.009c.4,0,.722-.312,.722-.697l-.021-13.585,.216,.222c1.887,1.811,5.347,3.845,9.5,4.035m.176-25.385c5.489,0,9.779,4.493,9.779,10.25,0,5.782-4.08,10.132-9.48,10.132-2.728,0-5.244-.969-7.109-2.746-1.909-1.799-2.943-4.377-2.943-7.214,0-5.744,4.375-10.422,9.753-10.422" />
        <path class="cls-1" d="M253.463,41.722h.733c3.967,0,7.657-1.498,10.395-4.272,2.777-2.809,4.305-6.658,4.305-10.863,0-8.66-6.688-15.451-15.21-15.451-6.936,0-12.793,4.558-14.576,11.355-.302,1.139-.618,4.097-.618,7.018v21.54c0,.39,.323,.707,.707,.707l3.836-.009c.383,0,.707-.312,.707-.697v-13.586l.2,.222c1.875,1.812,5.346,3.846,9.521,4.036m.171-25.385c5.474,0,9.735,4.493,9.735,10.25,0,5.782-4.053,10.132-9.448,10.132-2.733,0-5.243-.969-7.096-2.746-1.916-1.799-2.943-4.377-2.943-7.214-.001-5.744,4.377-10.422,9.752-10.422" />
        <path class="cls-1" d="M341.352,36.921c3.333,3.035,6.973,4.792,11.718,4.792h.123c8.17-.061,11.806-4.519,11.806-8.904,0-6.088-5.741-7.762-7.492-8.113-.544-.107-1.139-.207-1.744-.338-1.424-.295-2.89-.548-4.231-.932-.944-.242-4.003-1.294-4.003-3.571,0-2.498,2.783-3.867,5.446-3.867,2.192,0,4.02,.369,6.388,2.204,.165,.168,.443,.302,.738,.302,.222,0,.479-.056,.696-.244,.675-.487,1.853-1.483,2.651-2.277,.176-.172,.267-.384,.267-.622-.026-.317-.267-.587-.392-.686-3.175-2.496-6.21-3.526-10.464-3.529h-.039c-6.101,0-10.716,3.92-10.716,9.133,0,4.118,3.384,7.046,9.524,8.258l3.874,.753c2.53,.457,3.927,1.809,3.901,3.673-.04,1.845-2.297,3.73-6.003,3.73-3.002,0-5.681-1.167-7.903-3.181l-.035-.049c-.139-.123-.346-.317-.598-.317-.169,0-.361,.092-.566,.242-.223,.198-2.812,2.225-3.076,2.521-.133,.13-.169,.287-.169,.427,0,.245,.155,.445,.299,.595" />
    </g>
    <g>
        <path class="cls-1" d="M482.385,64.064c-12.568,0-22.184,4.528-30.46,9.337-1.753,.994-7.242,4.095-12.085,6.829-1.394-1.656-2.871-3.355-4.195-4.89l-.012-.013c-5.628-6.311-13.862-11.207-23.298-11.375h-.092c-3.87,0-20.267,.111-23.013,.111h-.404l-6.74,.056-3.554-.056h-1.838c-3.119-.032-9.482-.111-11.686-.111h-.046c-4.071,0-7.946,.962-11.386,2.833-5.117,2.822-8.245,7.084-10.304,10.82l-.019,.027c-1.933,3.587-3.226,7.272-4.279,10.371l-.025,.01-.024,.085-.013,.116v.019h-.012l-1.455,3.961c-.039-.631-.074-1.253-.119-1.862-.111-1.379-.2-2.665-.285-3.911-.513-6.908-.861-11.631-.861-11.783v-.063l-.042-.053-.505-7.112-.188-2.225-.079-1.102h-25.8831c-10.515,.068-18.531,6.121-23.063,12.862v.029c-.39,.595-.645,1.055-.787,1.326l-.06,.157-.035,.027v.044h-.014l-.024,.021-.032,.052c-.552,1.091-1.487,3.016-2.656,5.408-.346-1.464-.797-3.017-1.369-4.563-1.299-3.484-3.491-7.629-7.562-10.852-3.263-2.568-6.803-3.636-9.682-4.145-2.95-.55-5.715-.615-8.164-.615-.907,0-1.847,0-2.703,.028h-.035c-.392,.02-.797,.02-1.142,.021-.707,0-5.017,0-5.931,.016h-.023l-5.669,.041h-2.682l-.264,.859-.475,1.732-1.615,5.467c-.36,1.208-8.733,29.563-16.377,55.472l-.132,.361c-6.369,21.667-12.233,41.493-12.44,42.196v.009l-2.936,9.898-.879,3.091-.475,1.55,1.636-.014,3.226-.024,10.272-.029h8.979c1.656,0,3.642-.017,5.684-.218,2.131-.227,4.381-.652,6.76-1.555,5.228-1.911,9.419-5.452,12.205-9.702,2.674-4.012,4.168-8.29,5.444-12.484v-.015l.517-1.708,.214,1.001,.183,.819,.834,.135,1.671,.209,5.307,.73c2.12,.291,4.194,.458,6.196,.458h.269c8.726,0,16.063-3.338,21.041-8.484l.021-.032,.805-.86c.721,11.411,1.463,23.006,2.061,31.165l.502,6.631,.151,2.085,.109,1.041,1.029,.058,2.072,.131,6.631,.44c1.589,.13,3.228,.179,4.938,.179,5.156-.014,11.011-.534,16.805-2.714,3.986-1.465,8-3.826,11.287-7.477,12.69-.686,22.447-6.237,30.241-10.994l14.771-8.91c.575,1.461,1.222,2.994,1.953,4.565,1.023,2.258,2.275,4.597,3.86,6.873,1.895,2.736,4.407,5.507,7.84,7.64,3.495,2.174,7.713,3.413,12.181,3.413h.074l20.929-.014h18.467l-.887-1.761-1.802-3.508-5.727-11.205c-3.405-6.577-7.137-13.278-10.695-19.675-1.547-2.726-3.834-6.945-5.934-10.812l2.517-1.534c.77,.957,1.609,1.934,2.486,2.992l.404,.481,.197,.225,.125,.144c1.397,1.7,2.913,3.506,4.463,5.33,7.373,8.8,15.592,18.643,19.088,22.802,7.253,8.934,18.505,16.847,33.778,16.847h.125l20.816-.043h25.425l-1.691-2-3.372-3.948-10.763-12.641c-7.195-8.459-34.539-39.175-48.971-55.368,15.423-9.213,41.255-24.659,47.123-28.28l23.021-14.211,7.218-4.453,3.593-2.229h-67.574v-.0031Zm-30.347,46.528s48.127,53.877,57.783,65.247c-7.281,0-21.728,.024-21.728,.024-11.305,0-19.197-5.447-25.246-12.719-7.009-8.425-32.94-39.309-32.94-39.309l-20.001,11.94s7.506,13.942,11.145,20.472c3.559,6.356,7.206,12.916,10.48,19.293-3.474,0-17.459,.036-20.918,.036-9.854,0-13.388-10.145-16.84-19.024-1.125-2.84-3.718-8.529-3.718-8.529l-25.954,15.639c-8.803,5.391-17.736,10.162-29.778,9.283l-.395-.028-.216,.417c-4.366,9.111-16.501,10.329-26.138,9.695-1.672-21.966-4.247-69.756-4.247-69.756l-10.87,21.104c-4.556,9.421-8.875,18.311-24.926,16.109-.208-.811-4.12-18.811-4.12-18.811l-3.908-18.128-12.994,43.698c-2.34,7.72-4.836,12.64-10.76,14.871-3.229,1.226-7.176,1.041-11.665,1.041-1.424,0-5.829,.038-5.829,.038,.44-1.617,28.621-97.024,28.906-97.941,.868-.002,6.005-.017,6.005-.017,5.857-.126,11.355-.236,14.519,2.277,3.736,2.964,4.876,8.269,6.072,13.875l6.585,26.095s15.342-32.842,16.235-34.218c2.932-4.35,7.827-7.831,13.669-7.831h15.375c.077,1.02,5.166,70.184,5.166,70.184l19.404-53.602c2.885-8.313,5.987-16.7,15.502-16.7,2.816,0,13.346,.113,13.346,.113,5.591,9.732,21.818,41.108,21.818,41.108l15.476-8.706s-22.813-27.218-26.821-32.402c0,0,19.16-.113,23.291-.113,5.288,0,11.169,3.196,14.906,7.504,4.23,4.868,10.021,11.872,10.021,11.872,0,0,16.919-9.508,20.355-11.459,7.782-4.506,15.054-7.805,24.896-7.805h27.664c-8.2601,5.0911-58.6071,35.1631-58.6071,35.1631Z" />
        <polygon class="cls-1" points="352.015 145.27 380.81 128.743 369.625 104.412 352.015 145.27" />
    </g>
</svg>