<svg width="516" height="356" viewBox="0 0 516 356" fill="none" xmlns="http://www.w3.org/2000/svg">
<g clip-path="url(#clip0_950_1593)">
<path d="M514.92 0.265625H0.743556C0.690214 0.265625 0.646973 0.308934 0.646973 0.362358V1.49836C0.646973 1.55178 0.690214 1.59509 0.743556 1.59509H514.92C514.974 1.59509 515.017 1.55178 515.017 1.49836V0.362358C515.017 0.308934 514.974 0.265625 514.92 0.265625Z" fill="white"/>
<path d="M68.097 152.212C68.097 152.251 68.0816 152.288 68.0542 152.315C68.0268 152.343 67.9897 152.358 67.9509 152.358L10.1171 152.356C10.0725 152.356 10.0296 152.338 9.99805 152.307C9.96647 152.276 9.94873 152.234 9.94873 152.19V147.814C9.94873 147.799 9.95168 147.784 9.9574 147.771C9.96313 147.757 9.97152 147.744 9.9821 147.734C9.99267 147.723 10.0052 147.715 10.0191 147.709C10.0329 147.703 10.0477 147.7 10.0626 147.7H21.4744C21.5 147.7 21.5246 147.69 21.5427 147.673C21.5608 147.655 21.571 147.631 21.571 147.606L21.5759 26.6865C21.5759 26.6695 21.5726 26.6527 21.5661 26.6371C21.5596 26.6214 21.5502 26.6072 21.5382 26.5953C21.5262 26.5833 21.512 26.5738 21.4964 26.5673C21.4808 26.5608 21.464 26.5575 21.4471 26.5575L10.0899 26.555C10.0538 26.555 10.0191 26.5406 9.99358 26.515C9.96803 26.4895 9.95368 26.4548 9.95368 26.4186V22.0581C9.95368 22.0147 9.97064 21.9731 10.0008 21.9424C10.031 21.9117 10.072 21.8944 10.1147 21.8944C29.9812 21.8911 43.947 21.8936 52.0121 21.9019C54.4787 21.9035 57.1278 21.8589 59.9592 21.7679C66.418 21.5596 72.544 21.7464 78.3374 22.3285C88.2261 23.3231 98.1494 25.6025 106.597 30.6997C115.428 36.0299 121.213 44.1357 123.444 54.387C124.23 58.0033 124.622 61.8131 124.621 65.8164C124.618 73.2153 123.053 80.1255 119.234 86.2545C113.187 95.9626 102.429 101.727 91.6362 104.433C80.2839 107.28 68.2877 107.799 56.559 107.161C56.5472 107.161 56.5354 107.162 56.5243 107.166C56.5132 107.171 56.5031 107.177 56.4945 107.185C56.4859 107.193 56.4791 107.203 56.4744 107.214C56.4697 107.225 56.4674 107.236 56.4674 107.248L56.4649 147.636C56.4649 147.644 56.4666 147.653 56.47 147.661C56.4733 147.669 56.4783 147.677 56.4845 147.683C56.4907 147.689 56.4981 147.694 56.5062 147.698C56.5143 147.701 56.523 147.703 56.5318 147.703H67.9484C67.9879 147.703 68.0256 147.718 68.0535 147.746C68.0814 147.774 68.097 147.812 68.097 147.851V152.212ZM56.5838 102.491C62.8369 102.56 69.3823 101.861 75.2616 99.4599C79.6334 97.6757 82.8669 94.7331 84.962 90.6323C88.0676 84.5629 89.1077 77.1566 89.3801 70.3877C89.5815 65.4121 89.5122 60.869 89.1721 56.7582C88.6644 50.6168 87.5029 44.2746 84.593 38.8228C82.3014 34.5285 78.9028 31.4421 74.3973 29.5637C68.8474 27.252 62.671 26.4905 56.5194 26.5823C56.5047 26.5829 56.4909 26.589 56.4807 26.5991C56.4706 26.6093 56.4649 26.6228 56.4649 26.6369V102.369C56.4649 102.401 56.4773 102.432 56.4996 102.454C56.5218 102.477 56.552 102.49 56.5838 102.491Z" fill="white"/>
<path d="M475.553 107.923C475.54 105.093 475.383 102.63 475.08 100.531C474.652 97.5622 473.847 94.2956 472.081 92.1154C470.954 90.7214 469.419 89.7169 467.478 89.1018C464.874 88.2783 462.118 87.7483 459.209 87.5119C452.901 86.9959 445.771 87.115 440.783 87.1274C440.754 87.1274 440.725 87.1392 440.705 87.1601C440.684 87.181 440.672 87.2094 440.672 87.239V147.616C440.672 147.637 440.68 147.657 440.694 147.672C440.709 147.687 440.728 147.695 440.749 147.695C453.537 147.715 461.837 147.707 465.647 147.673C468.167 147.651 470.952 147.334 474.003 146.72C482.042 145.108 488.892 140.753 493.114 133.624C497.575 126.096 498.82 116.968 498.82 108.248C498.82 108.207 498.836 108.169 498.864 108.141C498.893 108.112 498.931 108.096 498.971 108.096H503.332C503.372 108.096 503.411 108.112 503.439 108.14C503.468 108.168 503.483 108.206 503.483 108.245V152.274C503.483 152.296 503.474 152.318 503.458 152.333C503.442 152.349 503.42 152.358 503.397 152.358H394.294C394.267 152.358 394.24 152.369 394.221 152.389C394.201 152.409 394.19 152.436 394.19 152.465V152.326C394.19 152.343 394.187 152.36 394.18 152.375C394.174 152.391 394.164 152.405 394.152 152.417C394.14 152.429 394.125 152.438 394.109 152.445C394.093 152.451 394.076 152.455 394.059 152.455C388.967 152.463 385.197 152.462 382.749 152.452C375.206 152.418 367.37 152.623 360.262 150.595C353.841 148.764 347.885 145.215 343.353 140.239C337.095 133.366 333.179 126.2 331.354 117.162C330.39 112.391 329.233 107.702 327.884 103.093C327.544 101.938 327.016 100.68 326.3 99.3208C324.264 95.4663 321.267 92.7826 316.941 91.7309C315.698 91.4283 313.532 91.2919 310.442 91.3217C308.124 91.3432 305.633 91.3481 302.968 91.3366C302.918 91.3366 302.871 91.3564 302.835 91.3918C302.8 91.4271 302.78 91.4751 302.78 91.5251V147.598C302.78 147.626 302.791 147.652 302.811 147.672C302.83 147.691 302.857 147.702 302.884 147.702H314.298C314.313 147.702 314.328 147.705 314.341 147.711C314.355 147.717 314.367 147.725 314.377 147.735C314.388 147.746 314.396 147.758 314.401 147.771C314.407 147.785 314.41 147.799 314.41 147.814V152.224C314.41 152.26 314.396 152.294 314.371 152.319C314.346 152.344 314.312 152.358 314.276 152.358H256.37C256.354 152.358 256.337 152.355 256.322 152.348C256.307 152.342 256.293 152.333 256.281 152.321C256.269 152.309 256.26 152.295 256.254 152.28C256.247 152.265 256.244 152.248 256.244 152.232V147.819C256.244 147.788 256.256 147.758 256.278 147.737C256.299 147.715 256.328 147.702 256.358 147.702H267.77C267.799 147.702 267.826 147.691 267.847 147.67C267.867 147.65 267.879 147.622 267.879 147.593V26.6913C267.879 26.674 267.875 26.6569 267.869 26.6409C267.862 26.625 267.852 26.6105 267.84 26.5983C267.827 26.5861 267.812 26.5764 267.796 26.5698C267.78 26.5632 267.763 26.5598 267.745 26.5598H246.925C246.914 26.5598 246.902 26.562 246.892 26.5664C246.881 26.5708 246.872 26.5772 246.864 26.5852C246.856 26.5933 246.849 26.6029 246.845 26.6134C246.841 26.6239 246.838 26.6352 246.838 26.6466C246.852 58.7043 246.848 82.113 246.829 96.8727C246.817 104.17 246.106 111.14 244.696 117.784C243.287 124.417 240.89 130.968 237.264 136.573C232.186 144.426 225.118 149.871 216.06 152.909C212.484 154.108 208.923 154.906 205.377 155.305C196.681 156.28 188.054 155.976 179.495 154.392C167.001 152.08 154.901 146.13 147.105 135.876C140.193 126.786 137.377 115.763 136.57 104.502C136.428 102.521 136.357 99.5002 136.359 95.439C136.364 76.7587 136.365 53.8246 136.362 26.6367C136.362 26.6156 136.353 26.5954 136.338 26.5806C136.322 26.5657 136.302 26.5573 136.28 26.5573H124.831C124.805 26.5573 124.78 26.5469 124.761 26.5283C124.742 26.5097 124.732 26.4844 124.732 26.4581V21.9687C124.732 21.9489 124.74 21.93 124.754 21.9161C124.768 21.9021 124.787 21.8943 124.806 21.8943H185.082C185.117 21.8943 185.15 21.9081 185.175 21.9328C185.199 21.9574 185.213 21.9909 185.213 22.0257V26.4432C185.213 26.4582 185.21 26.473 185.204 26.4869C185.199 26.5007 185.19 26.5133 185.18 26.5239C185.169 26.5345 185.157 26.5429 185.143 26.5486C185.129 26.5544 185.114 26.5573 185.099 26.5573H173.643C173.626 26.5573 173.611 26.5636 173.599 26.5748C173.587 26.5859 173.581 26.6011 173.581 26.6168C173.576 59.6534 173.578 85.2018 173.586 103.262C173.586 103.351 173.649 104.778 173.777 107.543C174.021 112.942 174.765 118.219 176.008 123.375C177.417 129.216 179.926 135.169 183.826 139.716C188.982 145.726 195.716 148.447 203.502 149.017C210.201 149.511 216.576 147.797 221.907 143.855C229.094 138.543 234.246 131.66 237.363 123.209C239.979 116.113 241.026 108.287 241.029 100.658C241.034 64.2809 241.034 39.6263 241.031 26.6937C241.031 26.6576 241.017 26.6229 240.991 26.5973C240.966 26.5717 240.931 26.5573 240.895 26.5573H222.811C222.77 26.5573 222.73 26.5409 222.701 26.5115C222.672 26.4822 222.655 26.4425 222.655 26.4011V22.0604C222.655 22.0389 222.66 22.0177 222.668 21.9978C222.676 21.9779 222.688 21.9599 222.703 21.9447C222.718 21.9295 222.736 21.9174 222.756 21.9092C222.776 21.901 222.797 21.8967 222.819 21.8967C262.809 21.8918 294.739 21.8926 318.608 21.8992C325.299 21.9025 331.841 22.3374 338.234 23.2039C342.741 23.8157 347.105 24.7599 351.325 26.0364C357.461 27.8917 363.62 30.8582 368.244 35.308C374.673 41.4989 377.145 49.694 376.694 58.4943C376.385 64.5149 374.554 69.7592 371.201 74.2271C364.185 83.5805 352.803 87.6334 341.359 87.5912C341.333 87.5909 341.306 87.5959 341.282 87.606C341.257 87.6161 341.235 87.631 341.216 87.6499C341.197 87.6688 341.182 87.6914 341.172 87.7162C341.161 87.741 341.156 87.7677 341.156 87.7946V88.9951C341.156 89.0532 341.179 89.109 341.22 89.1503C341.261 89.1917 341.316 89.2152 341.374 89.2159C350.535 89.3101 357.992 92.919 363.744 100.043C367.558 104.765 370.359 110.5 372.214 115.976C372.663 117.304 373.435 119.803 374.529 123.472C376.521 130.149 378.712 136.248 381.89 141.822C384.391 146.212 388.7 147.737 393.99 147.799C394.011 147.8 394.032 147.796 394.052 147.788C394.072 147.78 394.09 147.768 394.105 147.754C394.12 147.739 394.133 147.721 394.141 147.702C394.149 147.682 394.153 147.661 394.153 147.64V147.839C394.153 147.803 394.167 147.768 394.192 147.742C394.218 147.717 394.252 147.702 394.287 147.702H405.622C405.661 147.702 405.698 147.687 405.725 147.659C405.753 147.631 405.768 147.593 405.768 147.554V26.6838C405.768 26.6503 405.755 26.6181 405.731 26.5944C405.707 26.5706 405.675 26.5573 405.642 26.5573H394.297C394.257 26.5573 394.22 26.5416 394.192 26.5137C394.164 26.4858 394.148 26.448 394.148 26.4085V22.0084C394.148 21.9781 394.16 21.9491 394.182 21.9277C394.203 21.9063 394.232 21.8943 394.262 21.8943H501.012C501.048 21.8943 501.083 21.9086 501.108 21.9342C501.134 21.9598 501.148 21.9945 501.148 22.0307V61.3888C501.148 61.4178 501.136 61.4455 501.116 61.466C501.095 61.4865 501.066 61.498 501.037 61.498H496.643C496.617 61.498 496.591 61.4927 496.566 61.4824C496.542 61.4721 496.52 61.4571 496.502 61.4381C496.483 61.4192 496.469 61.3967 496.459 61.372C496.449 61.3474 496.445 61.3211 496.445 61.2946C496.534 56.2777 496.075 51.436 495.068 46.7697C494.472 44.0049 493.551 41.4336 492.305 39.0558C486.943 28.8219 473.446 26.664 463.171 26.5846C459.07 26.5532 451.59 26.5466 440.731 26.5648C440.716 26.5648 440.7 26.5713 440.689 26.5829C440.678 26.5945 440.672 26.6103 440.672 26.6268V82.3999C440.672 82.409 440.674 82.418 440.677 82.4264C440.68 82.4349 440.685 82.4425 440.692 82.449C440.698 82.4554 440.705 82.4605 440.713 82.464C440.721 82.4675 440.73 82.4693 440.739 82.4693C446.744 82.4743 453.097 82.633 459.456 82.0353C462.433 81.7558 465.128 81.1977 467.542 80.361C470.477 79.3424 472.511 77.3639 473.642 74.4255C475.199 70.3851 475.464 66.2156 475.566 61.6245C475.567 61.592 475.58 61.5611 475.603 61.5384C475.626 61.5157 475.657 61.5029 475.69 61.5029H480.066C480.106 61.5029 480.144 61.5189 480.172 61.5472C480.201 61.5756 480.217 61.6141 480.217 61.6542V107.93C480.217 107.974 480.199 108.016 480.168 108.048C480.137 108.079 480.095 108.096 480.051 108.096H475.727C475.681 108.096 475.638 108.078 475.605 108.046C475.573 108.013 475.554 107.969 475.553 107.923ZM302.78 86.4329C302.78 86.4622 302.786 86.4912 302.797 86.5183C302.808 86.5454 302.825 86.57 302.845 86.5908C302.866 86.6115 302.891 86.6279 302.918 86.6391C302.945 86.6504 302.974 86.6561 303.003 86.6561C307.537 86.6809 311.989 86.442 316.361 85.9393C319.828 85.5408 323.129 84.8587 326.262 83.893C328.823 83.1043 331.042 82.0386 332.919 80.6959C339.237 76.1742 341.386 67.9419 341.763 60.5951C342.352 49.059 340.128 35.938 328.449 30.6152C326.615 29.7785 324.725 29.1187 322.78 28.6358C316.297 27.0236 309.489 26.5449 302.84 26.5648C302.824 26.5648 302.809 26.5708 302.798 26.5815C302.786 26.5922 302.78 26.6067 302.78 26.6218V86.4329Z" fill="white"/>
<path d="M142.127 330.622C142.121 330.636 142.118 330.652 142.119 330.667C142.121 330.682 142.126 330.697 142.134 330.71C142.142 330.723 142.154 330.733 142.167 330.74C142.181 330.748 142.196 330.751 142.211 330.751H160.339C160.366 330.751 160.392 330.762 160.411 330.781C160.43 330.8 160.441 330.826 160.441 330.853V335.283C160.441 335.316 160.428 335.347 160.404 335.371C160.381 335.394 160.35 335.407 160.317 335.407H120.74C120.719 335.407 120.699 335.399 120.684 335.384C120.669 335.369 120.661 335.349 120.661 335.328V330.851C120.661 330.824 120.671 330.799 120.689 330.78C120.707 330.762 120.732 330.751 120.757 330.751H136.126C136.161 330.751 136.195 330.741 136.223 330.722C136.252 330.703 136.274 330.676 136.287 330.645L189.46 202.726C189.474 202.694 189.496 202.667 189.524 202.648C189.553 202.629 189.587 202.619 189.621 202.619H195.166C195.214 202.619 195.261 202.633 195.302 202.659C195.342 202.685 195.374 202.722 195.394 202.765L254.367 330.67C254.378 330.694 254.396 330.715 254.418 330.729C254.441 330.744 254.467 330.751 254.493 330.751H265.432C265.471 330.751 265.508 330.767 265.535 330.794C265.563 330.822 265.578 330.859 265.578 330.898V335.251C265.578 335.292 265.562 335.332 265.532 335.361C265.503 335.391 265.464 335.407 265.422 335.407H204.54C204.502 335.407 204.466 335.392 204.44 335.366C204.414 335.339 204.399 335.303 204.399 335.266V330.841C204.399 330.817 204.408 330.794 204.425 330.778C204.441 330.761 204.464 330.751 204.488 330.751H217.972C217.985 330.751 217.998 330.748 218.009 330.742C218.02 330.736 218.03 330.727 218.037 330.716C218.044 330.705 218.048 330.692 218.049 330.68C218.049 330.667 218.047 330.654 218.042 330.642L202.603 298.455C202.591 298.428 202.571 298.405 202.546 298.39C202.521 298.374 202.492 298.365 202.462 298.365H155.624C155.598 298.366 155.572 298.373 155.55 298.388C155.529 298.403 155.512 298.423 155.503 298.447L142.127 330.622ZM177.489 246.102C177.482 246.088 177.471 246.076 177.458 246.068C177.444 246.06 177.429 246.056 177.413 246.057C177.397 246.057 177.382 246.062 177.369 246.071C177.356 246.08 177.346 246.093 177.34 246.107L157.697 293.363C157.691 293.375 157.689 293.389 157.69 293.402C157.692 293.415 157.696 293.428 157.703 293.44C157.711 293.451 157.721 293.46 157.733 293.467C157.744 293.473 157.758 293.477 157.771 293.477H200.08C200.093 293.476 200.106 293.473 200.118 293.466C200.13 293.459 200.14 293.449 200.147 293.438C200.154 293.426 200.158 293.413 200.159 293.4C200.16 293.386 200.157 293.372 200.151 293.36L177.489 246.102Z" fill="white"/>
<path d="M330.453 335.407H272.619C272.575 335.407 272.532 335.39 272.5 335.359C272.469 335.327 272.451 335.285 272.451 335.241V330.866C272.451 330.835 272.463 330.806 272.484 330.785C272.506 330.764 272.535 330.752 272.565 330.752H283.977C284.002 330.752 284.027 330.742 284.045 330.724C284.063 330.706 284.073 330.682 284.073 330.657V209.735C284.073 209.701 284.06 209.668 284.035 209.644C284.011 209.62 283.979 209.606 283.944 209.606H272.587C272.569 209.606 272.552 209.603 272.535 209.596C272.518 209.589 272.503 209.579 272.491 209.567C272.478 209.554 272.468 209.539 272.461 209.522C272.454 209.506 272.451 209.488 272.451 209.47V205.11C272.451 205.066 272.468 205.025 272.498 204.994C272.528 204.963 272.569 204.946 272.612 204.946C292.478 204.941 306.444 204.943 314.509 204.951C316.976 204.953 319.625 204.908 322.456 204.817C328.915 204.607 335.041 204.793 340.835 205.375C350.723 206.37 360.647 208.649 369.094 213.746C377.925 219.076 383.71 227.18 385.942 237.431C386.729 241.047 387.122 244.857 387.12 248.86C387.118 256.262 385.553 263.172 381.734 269.301C375.686 279.009 364.929 284.773 354.136 287.479C342.784 290.327 330.787 290.848 319.059 290.21C319.047 290.21 319.035 290.211 319.024 290.215C319.013 290.22 319.003 290.226 318.994 290.234C318.986 290.242 318.979 290.252 318.974 290.263C318.969 290.274 318.967 290.285 318.967 290.297V330.685C318.967 330.702 318.974 330.719 318.987 330.732C318.999 330.745 319.016 330.752 319.034 330.752H330.451C330.47 330.752 330.489 330.755 330.507 330.763C330.526 330.77 330.542 330.781 330.556 330.795C330.57 330.809 330.58 330.825 330.588 330.843C330.595 330.862 330.599 330.881 330.599 330.9V335.261C330.599 335.28 330.595 335.299 330.588 335.317C330.581 335.335 330.57 335.351 330.556 335.364C330.543 335.378 330.527 335.389 330.509 335.396C330.491 335.403 330.472 335.407 330.453 335.407ZM319.086 285.54C325.339 285.609 331.885 284.91 337.764 282.509C342.136 280.725 345.369 277.782 347.464 273.681C350.57 267.612 351.61 260.206 351.882 253.437C352.084 248.461 352.014 243.918 351.674 239.807C351.167 233.666 350.005 227.324 347.095 221.872C344.804 217.577 341.405 214.491 336.899 212.613C331.35 210.301 325.173 209.539 319.022 209.631C319.007 209.632 318.993 209.638 318.983 209.648C318.973 209.658 318.967 209.672 318.967 209.686V285.418C318.967 285.45 318.98 285.481 319.002 285.503C319.024 285.526 319.054 285.539 319.086 285.54Z" fill="white"/>
<path d="M91.2992 287.512C91.3033 287.521 91.3102 287.529 91.319 287.535C91.3277 287.541 91.338 287.543 91.3484 287.543C91.3588 287.543 91.3688 287.54 91.3773 287.533C91.3858 287.527 91.3922 287.519 91.3958 287.509L122.023 209.735C122.028 209.721 122.031 209.705 122.029 209.69C122.027 209.675 122.021 209.66 122.013 209.647C122.004 209.634 121.992 209.624 121.978 209.617C121.964 209.61 121.949 209.606 121.934 209.606H103.528C103.505 209.606 103.482 209.597 103.465 209.58C103.448 209.564 103.439 209.541 103.439 209.517V205.087C103.439 205.049 103.454 205.012 103.481 204.985C103.508 204.959 103.545 204.943 103.583 204.943H143.811C143.84 204.943 143.868 204.955 143.888 204.975C143.908 204.996 143.92 205.024 143.92 205.052V209.453C143.92 209.493 143.904 209.533 143.876 209.561C143.847 209.59 143.809 209.606 143.769 209.606H128.207C128.177 209.606 128.149 209.615 128.124 209.631C128.1 209.648 128.081 209.671 128.07 209.698L78.6071 335.308C78.5954 335.337 78.5752 335.362 78.5492 335.38C78.5231 335.397 78.4925 335.407 78.461 335.407H72.6338C72.5989 335.407 72.5647 335.397 72.5353 335.378C72.5059 335.359 72.4825 335.332 72.4679 335.301L14.2032 209.748C14.1831 209.706 14.1515 209.67 14.1121 209.645C14.0727 209.62 14.027 209.607 13.9803 209.606H3.07377C3.04553 209.606 3.01845 209.595 2.99848 209.575C2.97851 209.555 2.96729 209.528 2.96729 209.5V205.035C2.96729 205.011 2.97694 204.987 2.99412 204.97C3.01131 204.953 3.03461 204.943 3.05892 204.943H68.6788C68.715 204.943 68.7496 204.958 68.7752 204.983C68.8007 205.009 68.815 205.044 68.815 205.08V209.515C68.815 209.539 68.8054 209.562 68.7882 209.58C68.771 209.597 68.7477 209.606 68.7234 209.606H57.5098C57.4977 209.606 57.4857 209.609 57.4749 209.615C57.4642 209.62 57.455 209.629 57.4483 209.639C57.4417 209.649 57.4377 209.661 57.4367 209.673C57.4358 209.685 57.4379 209.697 57.4429 209.708L91.2992 287.512Z" fill="white"/>
<path d="M482.451 291.143H478.09C478.052 291.143 478.016 291.128 477.99 291.102C477.963 291.076 477.948 291.041 477.948 291.004C477.939 287.264 477.666 283.332 476.663 279.746C475.715 276.345 474.045 273.743 470.635 272.441C468.256 271.532 465.396 270.921 462.054 270.611C455.682 270.018 448.51 270.147 443.154 270.179C443.131 270.179 443.11 270.188 443.094 270.204C443.078 270.221 443.069 270.243 443.069 270.266V330.682C443.069 330.699 443.076 330.716 443.088 330.728C443.1 330.74 443.117 330.747 443.134 330.747C450.669 330.755 458.587 330.754 466.888 330.744C473.072 330.739 479.514 329.621 484.937 326.758C498.112 319.806 501.126 304.906 501.205 291.297C501.205 291.257 501.221 291.218 501.25 291.19C501.278 291.161 501.316 291.145 501.356 291.145H505.722C505.759 291.145 505.794 291.16 505.821 291.186C505.847 291.212 505.861 291.247 505.861 291.284V335.348C505.861 335.363 505.855 335.379 505.843 335.39C505.831 335.401 505.816 335.407 505.799 335.407H396.662C396.629 335.407 396.598 335.394 396.575 335.371C396.551 335.348 396.538 335.316 396.538 335.283V330.853C396.538 330.826 396.549 330.8 396.568 330.781C396.587 330.762 396.613 330.752 396.64 330.752H408.089C408.108 330.752 408.127 330.744 408.141 330.73C408.155 330.716 408.163 330.697 408.163 330.677V209.733C408.163 209.699 408.15 209.667 408.126 209.643C408.102 209.62 408.07 209.606 408.037 209.606H396.692C396.651 209.606 396.612 209.59 396.583 209.561C396.554 209.531 396.538 209.492 396.538 209.45V205.072C396.538 205.038 396.552 205.005 396.576 204.981C396.6 204.957 396.633 204.943 396.667 204.943H503.454C503.475 204.943 503.495 204.952 503.51 204.967C503.525 204.983 503.533 205.004 503.533 205.025V244.378C503.533 244.424 503.515 244.467 503.483 244.499C503.451 244.532 503.408 244.55 503.362 244.55H499.016C498.996 244.55 498.977 244.546 498.959 244.538C498.94 244.53 498.924 244.519 498.91 244.505C498.896 244.491 498.885 244.474 498.878 244.456C498.871 244.438 498.867 244.418 498.867 244.398C498.917 237.051 498.154 229.308 495.019 222.732C489.86 211.918 475.903 209.678 465.276 209.629C458.741 209.596 451.359 209.592 443.129 209.616C443.113 209.616 443.098 209.623 443.087 209.634C443.076 209.645 443.069 209.66 443.069 209.676V265.451C443.069 265.468 443.076 265.484 443.087 265.495C443.098 265.507 443.113 265.513 443.129 265.513C449.914 265.543 458.32 265.796 465.536 264.563C468.171 264.115 470.893 263.323 472.948 261.803C474.526 260.635 475.653 258.63 476.297 256.768C477.614 252.965 477.891 248.9 477.939 244.706C477.939 244.664 477.956 244.624 477.986 244.595C478.015 244.566 478.055 244.55 478.097 244.55H482.537C482.553 244.55 482.568 244.556 482.579 244.568C482.591 244.579 482.597 244.595 482.597 244.612V290.997C482.597 291.035 482.581 291.073 482.554 291.1C482.527 291.127 482.489 291.143 482.451 291.143Z" fill="white"/>
<path d="M514.92 354.38H0.748509C0.692432 354.38 0.646973 354.425 0.646973 354.482V355.613C0.646973 355.669 0.692432 355.714 0.748509 355.714H514.92C514.976 355.714 515.022 355.669 515.022 355.613V354.482C515.022 354.425 514.976 354.38 514.92 354.38Z" fill="white"/>
</g>
<defs>
<clipPath id="clip0_950_1593">
<rect width="516" height="356" fill="white"/>
</clipPath>
</defs>
</svg>
