<svg width="175" height="66" viewBox="0 0 175 66" fill="none" xmlns="http://www.w3.org/2000/svg">
<g clip-path="url(#clip0_954_2309)">
<path fill-rule="evenodd" clip-rule="evenodd" d="M0 54.0352C10.224 66.8952 28.995 69.2582 42.134 59.2562C55.273 49.2562 57.831 30.6562 47.955 17.5312L0 54.0352Z" fill="white"/>
<path fill-rule="evenodd" clip-rule="evenodd" d="M57.4795 11.4181C47.2545 -1.44187 28.4835 -3.80387 15.3445 6.19713C2.20654 16.1991 -0.351466 34.7971 9.52353 47.9221L57.4795 11.4181Z" fill="white" fill-opacity="0.66"/>
<path fill-rule="evenodd" clip-rule="evenodd" d="M99.1035 24.2198C96.5665 20.8378 92.5885 18.7048 86.3405 18.7048C78.1085 18.5748 72.7305 23.4628 72.7305 28.9368C72.7305 35.9108 78.7065 37.9308 84.6805 38.9738C88.5335 39.6908 91.7855 40.2128 91.7855 41.9718C91.7855 43.5368 90.1925 44.9058 87.2055 44.9058C84.0655 44.9058 81.6175 43.5558 80.3755 40.7658L72.9825 46.4358C75.6755 50.4478 80.1255 52.5958 86.8075 52.5958C96.3675 52.7268 100.882 46.4698 100.882 41.7118C100.882 34.6718 94.4425 32.7178 88.8645 31.6098C83.8845 30.6318 81.9595 30.1098 81.9595 28.6768C81.9595 27.2428 83.2875 26.0038 86.2755 26.0038C89.1875 26.0038 91.3955 27.3718 92.3055 29.4328L99.1035 24.2198ZM157.729 44.1158C155.339 44.1158 153.096 43.2218 151.415 41.5988C149.76 40.0008 149.095 37.8828 149.096 35.6358C149.096 30.9588 152.832 27.1548 157.729 27.1548C162.626 27.1548 166.609 30.9598 166.609 35.6348C166.609 40.3118 162.626 44.1158 157.729 44.1158ZM157.219 18.6728C154.112 18.6728 151.681 19.4268 149.809 20.7558V4.67578H140.766V52.3538H149.808V50.4368C151.627 51.7738 154.034 52.5978 157.218 52.5978C166.919 52.5978 174.784 45.0038 174.784 35.6358C174.784 26.2668 166.919 18.6728 157.219 18.6728ZM121.365 44.1158C118.975 44.1158 116.731 43.2218 115.05 41.5988C113.396 40.0008 112.731 37.8828 112.732 35.6358C112.732 30.9588 116.468 27.1548 121.365 27.1548C126.261 27.1548 130.245 30.9598 130.245 35.6348C130.245 40.3118 126.261 44.1158 121.365 44.1158ZM120.855 18.6728C117.748 18.6728 115.317 19.4268 113.444 20.7558V4.67578H104.401V52.3538H113.444V50.4368C115.262 51.7738 117.67 52.5978 120.854 52.5978C130.555 52.5978 138.419 45.0038 138.419 35.6358C138.419 26.2668 130.556 18.6728 120.855 18.6728Z" fill="white"/>
</g>
<defs>
<clipPath id="clip0_954_2309">
<rect width="175" height="66" fill="white"/>
</clipPath>
</defs>
</svg>
