<svg width="120" height="15" viewBox="0 0 120 15" fill="none" xmlns="http://www.w3.org/2000/svg">
    <path
        d="M13.3496 0.455078V5.04492H12.9688C12.6823 3.84701 12.1484 2.92904 11.3672 2.29102C10.5859 1.65299 9.70052 1.33398 8.71094 1.33398C7.88411 1.33398 7.12565 1.57161 6.43555 2.04688C5.74544 2.52214 5.24089 3.14388 4.92188 3.91211C4.51172 4.89518 4.30664 5.98893 4.30664 7.19336C4.30664 8.37826 4.45638 9.45898 4.75586 10.4355C5.05534 11.4056 5.52409 12.1413 6.16211 12.6426C6.80013 13.1374 7.62695 13.3848 8.64258 13.3848C9.47591 13.3848 10.2376 13.2025 10.9277 12.8379C11.6243 12.4733 12.3568 11.8451 13.125 10.9531V12.0957C12.3828 12.8704 11.6081 13.4336 10.8008 13.7852C10 14.1302 9.0625 14.3027 7.98828 14.3027C6.57552 14.3027 5.31901 14.0195 4.21875 13.4531C3.125 12.8867 2.27865 12.0729 1.67969 11.0117C1.08724 9.95052 0.791016 8.82096 0.791016 7.62305C0.791016 6.36003 1.11979 5.16211 1.77734 4.0293C2.44141 2.89648 3.33333 2.01758 4.45312 1.39258C5.57943 0.767578 6.77409 0.455078 8.03711 0.455078C8.9681 0.455078 9.95117 0.656901 10.9863 1.06055C11.5853 1.29492 11.9661 1.41211 12.1289 1.41211C12.3372 1.41211 12.5163 1.33724 12.666 1.1875C12.8223 1.03125 12.9232 0.787109 12.9688 0.455078H13.3496Z"
        fill="white" />
    <path
        d="M20.166 12.6523C19.0527 13.6354 18.0534 14.127 17.168 14.127C16.6471 14.127 16.2142 13.9577 15.8691 13.6191C15.5241 13.2741 15.3516 12.8444 15.3516 12.3301C15.3516 11.6335 15.651 11.0085 16.25 10.4551C16.849 9.89518 18.1543 9.15299 20.166 8.22852V7.31055C20.166 6.62044 20.127 6.1875 20.0488 6.01172C19.9772 5.82943 19.8372 5.67318 19.6289 5.54297C19.4206 5.40625 19.1862 5.33789 18.9258 5.33789C18.5026 5.33789 18.1543 5.43229 17.8809 5.62109C17.7116 5.73828 17.627 5.875 17.627 6.03125C17.627 6.16797 17.7181 6.33724 17.9004 6.53906C18.1478 6.81901 18.2715 7.08919 18.2715 7.34961C18.2715 7.66862 18.151 7.94206 17.9102 8.16992C17.6758 8.39128 17.3665 8.50195 16.9824 8.50195C16.5723 8.50195 16.2272 8.37826 15.9473 8.13086C15.6738 7.88346 15.5371 7.59375 15.5371 7.26172C15.5371 6.79297 15.7227 6.34701 16.0938 5.92383C16.4648 5.49414 16.9824 5.16536 17.6465 4.9375C18.3105 4.70964 19.0007 4.5957 19.7168 4.5957C20.5827 4.5957 21.2663 4.78125 21.7676 5.15234C22.2754 5.51693 22.6042 5.91406 22.7539 6.34375C22.8451 6.61719 22.8906 7.24544 22.8906 8.22852V11.7734C22.8906 12.1901 22.9069 12.4538 22.9395 12.5645C22.972 12.6686 23.0208 12.7467 23.0859 12.7988C23.151 12.8509 23.2259 12.877 23.3105 12.877C23.4798 12.877 23.6523 12.7565 23.8281 12.5156L24.1211 12.75C23.7956 13.2318 23.457 13.5833 23.1055 13.8047C22.7604 14.0195 22.3665 14.127 21.9238 14.127C21.403 14.127 20.9961 14.0065 20.7031 13.7656C20.4102 13.5182 20.2311 13.1471 20.166 12.6523ZM20.166 11.9395V8.88281C19.3783 9.34505 18.7923 9.83984 18.4082 10.3672C18.1543 10.7188 18.0273 11.0736 18.0273 11.4316C18.0273 11.7311 18.1348 11.9948 18.3496 12.2227C18.5124 12.3984 18.7402 12.4863 19.0332 12.4863C19.3587 12.4863 19.7363 12.304 20.166 11.9395Z"
        fill="white" />
    <path
        d="M29.1309 5.82617V12.1641C29.1309 12.776 29.196 13.1602 29.3262 13.3164C29.5345 13.5573 29.9186 13.668 30.4785 13.6484V14H25.0977V13.6484C25.5078 13.6419 25.7975 13.5964 25.9668 13.5117C26.1426 13.4206 26.263 13.2969 26.3281 13.1406C26.3932 12.9844 26.4258 12.6589 26.4258 12.1641V5.82617H25.0977V4.86914H26.4258V4.19531L26.416 3.73633C26.416 2.79883 26.7578 2.01758 27.4414 1.39258C28.1315 0.767578 29.0625 0.455078 30.2344 0.455078C31.0352 0.455078 31.6276 0.604818 32.0117 0.904297C32.4023 1.20378 32.5977 1.53581 32.5977 1.90039C32.5977 2.19336 32.4772 2.44727 32.2363 2.66211C31.9954 2.87695 31.6764 2.98438 31.2793 2.98438C30.9408 2.98438 30.6706 2.89648 30.4688 2.7207C30.2734 2.54492 30.1758 2.34961 30.1758 2.13477C30.1758 2.07617 30.1953 1.95573 30.2344 1.77344C30.2604 1.66276 30.2734 1.55859 30.2734 1.46094C30.2734 1.32422 30.2344 1.22331 30.1562 1.1582C30.0521 1.06055 29.9251 1.01172 29.7754 1.01172C29.5866 1.01172 29.4271 1.08984 29.2969 1.24609C29.1732 1.40234 29.1113 1.65299 29.1113 1.99805L29.1309 3.70703V4.86914H30.4785V5.82617H29.1309Z"
        fill="white" />
    <path
        d="M39.5215 9.10742H34.5117C34.5703 10.3184 34.8926 11.2754 35.4785 11.9785C35.9277 12.5189 36.4681 12.7891 37.0996 12.7891C37.4902 12.7891 37.8451 12.6816 38.1641 12.4668C38.4831 12.2454 38.8249 11.8516 39.1895 11.2852L39.5215 11.5C39.0267 12.5091 38.4798 13.2253 37.8809 13.6484C37.2819 14.0651 36.5885 14.2734 35.8008 14.2734C34.4466 14.2734 33.4212 13.7526 32.7246 12.7109C32.1647 11.8711 31.8848 10.8294 31.8848 9.58594C31.8848 8.0625 32.2949 6.85156 33.1152 5.95312C33.9421 5.04818 34.9089 4.5957 36.0156 4.5957C36.9401 4.5957 37.7409 4.97656 38.418 5.73828C39.1016 6.49349 39.4694 7.61654 39.5215 9.10742ZM37.1191 8.45312C37.1191 7.40495 37.0605 6.68555 36.9434 6.29492C36.8327 5.9043 36.6569 5.60807 36.416 5.40625C36.2793 5.28906 36.097 5.23047 35.8691 5.23047C35.5306 5.23047 35.2539 5.39648 35.0391 5.72852C34.6549 6.30794 34.4629 7.10221 34.4629 8.11133V8.45312H37.1191ZM38.5547 0.308594L35.3223 3.69727H34.4824L35.6152 0.308594H38.5547Z"
        fill="white" />
    <path
        d="M54.3945 0.455078L54.502 4.86914H54.1016C53.9128 3.76237 53.4473 2.8737 52.7051 2.20312C51.9694 1.52604 51.1719 1.1875 50.3125 1.1875C49.6484 1.1875 49.1211 1.36654 48.7305 1.72461C48.3464 2.07617 48.1543 2.48307 48.1543 2.94531C48.1543 3.23828 48.2227 3.4987 48.3594 3.72656C48.5482 4.03255 48.8509 4.33529 49.2676 4.63477C49.5736 4.84961 50.2799 5.23047 51.3867 5.77734C52.9362 6.53906 53.9811 7.25846 54.5215 7.93555C55.0553 8.61263 55.3223 9.38737 55.3223 10.2598C55.3223 11.3665 54.8893 12.3203 54.0234 13.1211C53.1641 13.9154 52.0703 14.3125 50.7422 14.3125C50.3255 14.3125 49.9316 14.2702 49.5605 14.1855C49.1895 14.1009 48.724 13.9414 48.1641 13.707C47.8516 13.5768 47.5944 13.5117 47.3926 13.5117C47.2233 13.5117 47.0443 13.5768 46.8555 13.707C46.6667 13.8372 46.5137 14.0358 46.3965 14.3027H46.0352V9.30273H46.3965C46.6829 10.709 47.2331 11.7832 48.0469 12.5254C48.8672 13.2611 49.7493 13.6289 50.6934 13.6289C51.4225 13.6289 52.002 13.4303 52.4316 13.0332C52.8678 12.6361 53.0859 12.1738 53.0859 11.6465C53.0859 11.334 53.0013 11.0312 52.832 10.7383C52.6693 10.4453 52.4186 10.1686 52.0801 9.9082C51.7415 9.64128 51.1426 9.29622 50.2832 8.87305C49.0788 8.2806 48.2129 7.77604 47.6855 7.35938C47.1582 6.94271 46.7513 6.47721 46.4648 5.96289C46.1849 5.44857 46.0449 4.88216 46.0449 4.26367C46.0449 3.20898 46.4323 2.31055 47.207 1.56836C47.9818 0.826172 48.9583 0.455078 50.1367 0.455078C50.5664 0.455078 50.9831 0.507161 51.3867 0.611328C51.6927 0.689453 52.0638 0.835938 52.5 1.05078C52.9427 1.25911 53.252 1.36328 53.4277 1.36328C53.597 1.36328 53.7305 1.3112 53.8281 1.20703C53.9258 1.10286 54.0169 0.852214 54.1016 0.455078H54.3945Z"
        fill="white" />
    <path
        d="M60.4297 1.5293V4.86914H62.5977V5.83594H60.4297V11.4707C60.4297 11.998 60.4525 12.3398 60.498 12.4961C60.5501 12.6458 60.638 12.7695 60.7617 12.8672C60.8854 12.9583 60.9993 13.0039 61.1035 13.0039C61.5267 13.0039 61.9271 12.6816 62.3047 12.0371L62.5977 12.252C62.0703 13.502 61.2142 14.127 60.0293 14.127C59.4499 14.127 58.9583 13.9674 58.5547 13.6484C58.1576 13.3229 57.9036 12.9616 57.793 12.5645C57.7279 12.3431 57.6953 11.7441 57.6953 10.7676V5.83594H56.5039V5.49414C57.3242 4.91471 58.0208 4.30599 58.5938 3.66797C59.1732 3.02995 59.6777 2.31706 60.1074 1.5293H60.4297Z"
        fill="white" />
    <path
        d="M65.293 10.9922C65.7487 10.9922 66.1328 11.1517 66.4453 11.4707C66.7643 11.7897 66.9238 12.1738 66.9238 12.623C66.9238 13.0723 66.7643 13.4564 66.4453 13.7754C66.1263 14.0879 65.7422 14.2441 65.293 14.2441C64.8438 14.2441 64.4596 14.0879 64.1406 13.7754C63.8281 13.4564 63.6719 13.0723 63.6719 12.623C63.6719 12.1738 63.8281 11.7897 64.1406 11.4707C64.4596 11.1517 64.8438 10.9922 65.293 10.9922Z"
        fill="white" />
    <path
        d="M81.1133 10.2305H76.4355L75.8789 11.5195C75.6966 11.9492 75.6055 12.304 75.6055 12.584C75.6055 12.9551 75.7552 13.2285 76.0547 13.4043C76.2305 13.5085 76.6634 13.5866 77.3535 13.6387V14H72.9492V13.6387C73.4245 13.5671 73.8151 13.3717 74.1211 13.0527C74.4271 12.7272 74.8047 12.0599 75.2539 11.0508L79.9902 0.484375H80.1758L84.9512 11.3438C85.4069 12.3724 85.7812 13.0202 86.0742 13.2871C86.2956 13.4889 86.6081 13.6061 87.0117 13.6387V14H80.6055V13.6387H80.8691C81.3835 13.6387 81.7448 13.5671 81.9531 13.4238C82.0964 13.3197 82.168 13.1699 82.168 12.9746C82.168 12.8574 82.1484 12.737 82.1094 12.6133C82.0964 12.5547 81.9987 12.3105 81.8164 11.8809L81.1133 10.2305ZM80.7812 9.50781L78.8086 4.94727L76.7773 9.50781H80.7812Z"
        fill="white" />
    <path
        d="M91.6504 4.86914V6.05078C92.1191 5.54297 92.5684 5.17513 92.998 4.94727C93.4277 4.71289 93.89 4.5957 94.3848 4.5957C94.9772 4.5957 95.4688 4.76172 95.8594 5.09375C96.25 5.41927 96.5104 5.82617 96.6406 6.31445C96.7448 6.68555 96.7969 7.39844 96.7969 8.45312V12.0078C96.7969 12.7109 96.8587 13.1504 96.9824 13.3262C97.1126 13.4954 97.3796 13.6029 97.7832 13.6484V14H93.1641V13.6484C93.5091 13.6029 93.7565 13.4596 93.9062 13.2188C94.0104 13.056 94.0625 12.6523 94.0625 12.0078V7.94531C94.0625 7.19661 94.0332 6.72461 93.9746 6.5293C93.916 6.33398 93.8151 6.18424 93.6719 6.08008C93.5352 5.9694 93.3822 5.91406 93.2129 5.91406C92.653 5.91406 92.1322 6.31445 91.6504 7.11523V12.0078C91.6504 12.6914 91.7122 13.1243 91.8359 13.3066C91.9661 13.4889 92.2038 13.6029 92.5488 13.6484V14H87.9297V13.6484C88.3138 13.6094 88.5872 13.4857 88.75 13.2773C88.8607 13.1341 88.916 12.7109 88.916 12.0078V6.85156C88.916 6.16146 88.8509 5.73177 88.7207 5.5625C88.597 5.39323 88.3333 5.28255 87.9297 5.23047V4.86914H91.6504Z"
        fill="white" />
    <path
        d="M102.783 4.86914V6.05078C103.252 5.54297 103.701 5.17513 104.131 4.94727C104.561 4.71289 105.023 4.5957 105.518 4.5957C106.11 4.5957 106.602 4.76172 106.992 5.09375C107.383 5.41927 107.643 5.82617 107.773 6.31445C107.878 6.68555 107.93 7.39844 107.93 8.45312V12.0078C107.93 12.7109 107.992 13.1504 108.115 13.3262C108.245 13.4954 108.512 13.6029 108.916 13.6484V14H104.297V13.6484C104.642 13.6029 104.889 13.4596 105.039 13.2188C105.143 13.056 105.195 12.6523 105.195 12.0078V7.94531C105.195 7.19661 105.166 6.72461 105.107 6.5293C105.049 6.33398 104.948 6.18424 104.805 6.08008C104.668 5.9694 104.515 5.91406 104.346 5.91406C103.786 5.91406 103.265 6.31445 102.783 7.11523V12.0078C102.783 12.6914 102.845 13.1243 102.969 13.3066C103.099 13.4889 103.337 13.6029 103.682 13.6484V14H99.0625V13.6484C99.4466 13.6094 99.7201 13.4857 99.8828 13.2773C99.9935 13.1341 100.049 12.7109 100.049 12.0078V6.85156C100.049 6.16146 99.9837 5.73177 99.8535 5.5625C99.7298 5.39323 99.4661 5.28255 99.0625 5.23047V4.86914H102.783Z"
        fill="white" />
    <path
        d="M115.225 12.6523C114.111 13.6354 113.112 14.127 112.227 14.127C111.706 14.127 111.273 13.9577 110.928 13.6191C110.583 13.2741 110.41 12.8444 110.41 12.3301C110.41 11.6335 110.71 11.0085 111.309 10.4551C111.908 9.89518 113.213 9.15299 115.225 8.22852V7.31055C115.225 6.62044 115.186 6.1875 115.107 6.01172C115.036 5.82943 114.896 5.67318 114.688 5.54297C114.479 5.40625 114.245 5.33789 113.984 5.33789C113.561 5.33789 113.213 5.43229 112.939 5.62109C112.77 5.73828 112.686 5.875 112.686 6.03125C112.686 6.16797 112.777 6.33724 112.959 6.53906C113.206 6.81901 113.33 7.08919 113.33 7.34961C113.33 7.66862 113.21 7.94206 112.969 8.16992C112.734 8.39128 112.425 8.50195 112.041 8.50195C111.631 8.50195 111.286 8.37826 111.006 8.13086C110.732 7.88346 110.596 7.59375 110.596 7.26172C110.596 6.79297 110.781 6.34701 111.152 5.92383C111.523 5.49414 112.041 5.16536 112.705 4.9375C113.369 4.70964 114.059 4.5957 114.775 4.5957C115.641 4.5957 116.325 4.78125 116.826 5.15234C117.334 5.51693 117.663 5.91406 117.812 6.34375C117.904 6.61719 117.949 7.24544 117.949 8.22852V11.7734C117.949 12.1901 117.965 12.4538 117.998 12.5645C118.031 12.6686 118.079 12.7467 118.145 12.7988C118.21 12.8509 118.285 12.877 118.369 12.877C118.538 12.877 118.711 12.7565 118.887 12.5156L119.18 12.75C118.854 13.2318 118.516 13.5833 118.164 13.8047C117.819 14.0195 117.425 14.127 116.982 14.127C116.462 14.127 116.055 14.0065 115.762 13.7656C115.469 13.5182 115.29 13.1471 115.225 12.6523ZM115.225 11.9395V8.88281C114.437 9.34505 113.851 9.83984 113.467 10.3672C113.213 10.7188 113.086 11.0736 113.086 11.4316C113.086 11.7311 113.193 11.9948 113.408 12.2227C113.571 12.3984 113.799 12.4863 114.092 12.4863C114.417 12.4863 114.795 12.304 115.225 11.9395Z"
        fill="white" />
</svg>