<?xml version="1.0" encoding="utf-8"?>
<!-- Generator: Adobe Illustrator 27.5.0, SVG Export Plug-In . SVG Version: 6.00 Build 0)  -->
<svg version="1.1" id="Laag_1" xmlns="http://www.w3.org/2000/svg" xmlns:xlink="http://www.w3.org/1999/xlink" x="0px" y="0px"
	 viewBox="0 0 1464 442.8" style="enable-background:new 0 0 1464 442.8;" xml:space="preserve">
<style type="text/css">
	.st0{fill:#FFFFFF;}
	.st1{enable-background:new    ;}
</style>
<g>
	<g>
		<path class="st0" d="M358,109c-4.3-4.6-9.4-8.2-15.4-10.9c-5.9-2.6-12.4-4-19.5-4s-13.5,1.3-19.4,4s-11,6.3-15.3,10.9
			c-4.3,4.6-7.6,10-10,16.2c-2.4,6.2-3.6,12.8-3.6,19.8s1.2,13.7,3.6,19.9c2.4,6.1,5.7,11.5,10,16.1c4.3,4.6,9.4,8.1,15.3,10.8
			c5.9,2.6,12.4,3.9,19.4,3.9s13.6-1.3,19.5-3.9c5.9-2.6,11-6.2,15.4-10.8c4.3-4.6,7.6-9.9,10-16.1c2.4-6.1,3.6-12.8,3.6-19.9
			s-1.2-13.6-3.6-19.8C365.6,119,362.3,113.6,358,109z"/>
		<path class="st0" d="M961.1,109.6c-4.6-4.4-10-7.8-16.2-10.2c-6.2-2.4-12.8-3.7-19.8-3.7h-16.9v98.5H919c2,0,3.9-0.1,5.8-0.2
			c1.9-0.1,3.8-0.3,5.6-0.4c6.4-0.5,12.4-2.1,17.9-4.7c5.5-2.6,10.4-6,14.5-10.2c4.1-4.2,7.4-9.2,9.7-14.9s3.5-11.9,3.5-18.7
			c0-7.2-1.3-13.8-4-19.8C969.3,119.2,965.7,114,961.1,109.6L961.1,109.6z"/>
		<path class="st0" d="M0,0v288.7h1080.4V0H0z M197.7,206c-3.8,7.6-9.1,14.1-15.8,19.5s-14.6,9.5-23.6,12.5s-18.8,4.4-29.2,4.4
			c-9.8,0-19.5-1.8-28.9-5.3c-9.5-3.5-18.3-8.2-26.5-14.1c-3.4-2.5-6.3-4.9-8.6-7.3c-2.3-2.4-4.2-4.3-5.6-5.8l-0.4-0.4
			c-0.1-0.2-0.2-0.3-0.3-0.3c-0.1,0-0.2-0.1-0.3-0.2c-0.1-0.2-0.2-0.3-0.3-0.3c-0.1,0-0.2-0.1-0.3-0.2c-2-2.1-2.9-3.9-2.9-5.1
			c0-1.4,1-3.1,2.9-4.9l22.1-21.1c1.8-1.3,3.2-1.9,4.3-1.9c0.8,0,1.6,0.3,2.4,0.8c0.9,0.5,1.9,1.3,3.1,2.3c1.4,1.2,3.3,2.8,5.6,4.8
			c2.3,2,4.8,4,7.8,6c4.3,2.9,8.7,5.2,12.9,6.8c4.3,1.6,8.8,2.4,13.5,2.4c4.4,0,8-0.5,10.9-1.5c2.9-1,5.3-2.3,7-3.9
			c1.7-1.6,2.9-3.5,3.6-5.6c0.7-2.1,1.1-4.4,1.1-6.8c0-2.6-1-5-3-7.1c-2-2.1-4.5-3.9-7.4-5.6c-2.9-1.6-5.9-3-9.1-4.2
			c-3.2-1.1-5.9-2.1-8.2-2.9c-10.2-3.6-19.2-7.4-26.9-11.6s-14.1-8.7-19.2-13.8c-5.1-5.1-9-10.7-11.5-16.8
			c-2.6-6.1-3.8-12.9-3.8-20.4c0-7.9,1.6-15.1,4.8-21.6c3.2-6.5,7.8-12,13.7-16.6s13.1-8.2,21.5-10.7c8.4-2.5,17.7-3.8,28-3.8
			c7.8,0,15.2,0.9,22.4,2.6c7.1,1.8,14.1,4.5,21.1,8.4c2.9,1.7,5.6,3.5,8.3,5.3c2.6,1.8,4.9,3.6,6.9,5.3c2,1.7,3.5,3.3,4.7,4.9
			c1.2,1.5,1.7,2.9,1.7,4s-0.3,2.1-0.8,3.1c-0.6,0.9-1.4,2-2.5,3.2l-19.6,20.9c-1.5,1.4-2.9,2.2-4.4,2.2c-1.2,0-2.3-0.3-3.3-1
			s-2.1-1.5-3.3-2.6l-1.1-1c-1.7-1.4-3.6-2.9-5.7-4.5s-4.3-2.9-6.7-4.2c-2.4-1.2-4.9-2.3-7.6-3.1c-2.6-0.8-5.3-1.2-8.1-1.2
			s-5.5,0.2-7.9,0.7s-4.7,1.2-6.5,2.2c-1.9,1-3.4,2.4-4.5,4c-1.1,1.7-1.7,3.7-1.7,6.1s0.6,4.5,1.8,6.2s3,3.4,5.4,4.9
			c2.4,1.5,5.4,2.9,8.9,4.2c3.5,1.3,7.7,2.8,12.4,4.3c9.1,3,17.4,6.1,25,9.4c7.6,3.3,14.2,7.2,19.8,11.6s9.9,9.8,13,16.1
			c3.1,6.2,4.7,13.8,4.7,22.7C203.4,189.8,201.5,198.3,197.7,206L197.7,206z M417.6,171.1c-2.3,8.3-5.6,16.1-9.9,23.3
			c-4.2,7.2-9.3,13.8-15.3,19.7c-6,5.9-12.6,11-19.9,15.3c-7.3,4.3-15.1,7.6-23.5,9.9s-17,3.5-26,3.5s-17.7-1.1-26.1-3.5
			c-8.3-2.3-16.1-5.6-23.4-9.9s-13.9-9.4-19.8-15.3c-5.9-5.9-11.1-12.5-15.3-19.7c-4.3-7.2-7.6-15-9.9-23.3
			c-2.3-8.3-3.5-17-3.5-26.1s1.2-17.7,3.5-26.1c2.3-8.3,5.6-16.1,9.9-23.4c4.3-7.3,9.4-13.9,15.3-19.9c5.9-6,12.5-11.1,19.8-15.3
			c7.3-4.2,15.1-7.5,23.4-9.9c8.3-2.3,17-3.5,26.1-3.5s17.6,1.2,26,3.5c8.4,2.3,16.2,5.6,23.5,9.9c7.3,4.2,13.9,9.3,19.9,15.3
			c6,6,11.1,12.6,15.3,19.9c4.2,7.3,7.5,15.1,9.9,23.4c2.4,8.3,3.5,17,3.5,26.1S420,162.8,417.6,171.1L417.6,171.1z M613.7,163.4
			c0,14.9-2.2,27.5-6.6,37.6c-4.4,10.2-10.3,18.3-17.7,24.5s-16,10.6-25.8,13.3c-9.8,2.7-20,4-30.8,4s-21-1.4-30.9-4.2
			c-9.8-2.8-18.4-7.3-25.9-13.6s-13.3-14.5-17.7-24.6c-4.4-10.1-6.6-22.5-6.6-37.2V55.5c0-1.5,0.5-2.8,1.5-3.9
			c1-1.2,2.2-1.7,3.6-1.7h38.3c1.3,0,2.6,0.5,4,1.6c1.4,1.1,2.1,2.4,2.1,4v108.7c0,6.3,0.9,11.7,2.6,16.1c1.8,4.4,4.1,8,6.9,10.8
			c2.9,2.8,6.2,4.8,10,6.1c3.8,1.3,7.8,1.9,11.9,1.9s8.3-0.8,12.1-2.2c3.8-1.5,7.1-3.7,10-6.7c2.9-2.9,5.1-6.6,6.8-11
			s2.5-9.4,2.5-15V55.5c0-1.5,0.5-2.9,1.6-4c1.1-1.1,2.5-1.7,4.3-1.7h37.4c2,0,3.5,0.6,4.6,1.7c1.1,1.2,1.7,2.5,1.7,3.9L613.7,163.4
			L613.7,163.4z M819,235c0,1.7-0.5,3-1.5,3.8c-1,0.8-2.4,1.2-4.2,1.2h-40.8c-1.1,0-2.1-0.4-2.9-1.1c-0.9-0.8-1.8-1.8-2.7-3.1
			c-11.3-18.8-22.6-37.3-33.7-55.7c-11.1-18.4-22.4-36.9-33.8-55.7v110c0,1.9-0.4,3.3-1.3,4.2c-0.9,0.9-2.4,1.4-4.6,1.4H657
			c-2,0-3.4-0.5-4.3-1.6c-0.9-1.1-1.3-2.4-1.3-3.9v-179c0-1.5,0.5-2.9,1.4-4s2.3-1.7,4.2-1.7h41.9c1.2,0,2.4,0.3,3.7,0.9
			c1.3,0.6,2.4,1.6,3.3,3.1c10.8,17.5,21.6,34.7,32.3,51.7c10.7,17,21.5,34.2,32.4,51.7V54.7c0.3-1.5,1-2.7,2-3.6
			c1-0.8,2.2-1.3,3.6-1.3h36.5c1.8,0,3.3,0.5,4.5,1.5c1.2,1,1.8,2.4,1.8,4.2L819,235L819,235z M1021.9,170.9
			c-2.3,8.1-5.6,15.8-9.9,22.8c-4.3,7-9.4,13.4-15.3,19.1s-12.5,10.6-19.7,14.6c-7.2,4-15,7.1-23.4,9.3c-8.4,2.2-17,3.3-26,3.3
			h-63.1c-1.5,0-2.9-0.3-4.1-1c-1.2-0.7-1.8-2.1-1.8-4.4V55.7c0-1.8,0.5-3.2,1.5-4.4c1-1.1,2.5-1.7,4.4-1.7h63.1
			c9,0,17.6,1.1,25.9,3.3s16.1,5.4,23.3,9.5c7.2,4.1,13.8,9,19.8,14.7c6,5.7,11.1,12.1,15.3,19.2c4.2,7.1,7.5,14.7,9.9,22.9
			c2.3,8.2,3.5,16.8,3.5,25.7S1024.2,162.7,1021.9,170.9z"/>
	</g>
	<g>
		<path class="st0" d="M1147.4,154.9c3.8,3.2,8.2,5.7,13.2,7.5c5,1.8,10.3,2.7,15.8,2.7c3.3,0,6.6-0.2,9.9-0.5
			c3.3-0.3,6.6-0.9,9.7-1.8s6-2.1,8.8-3.6c2.7-1.6,5.2-3.6,7.3-6.1c2.1-2.5,3.9-5.5,5.2-9.1c1.4-3.5,2.2-7.7,2.6-12.5l5.1,0.9
			c1.7,0.3,3.4,0.5,5,0.5c3.6,0,7.1-0.6,10.4-1.9s6.3-3.1,9-5.4c2.7-2.3,4.9-5.1,6.8-8.3c1.8-3.3,3.1-6.9,3.8-10.9
			c0.1-0.2,0.1-0.4,0.1-0.8c0-0.8-0.3-1.6-0.9-2.4c-0.6-0.8-1.2-1.2-2-1.2l-17.2-3.4c-0.1-0.1-0.3-0.1-0.7-0.1
			c-0.7,0-1.3,0.3-1.8,0.8c-0.5,0.5-0.9,1.3-1.1,2.2c0,0.4-0.1,0.9-0.3,1.3s-0.5,0.9-0.9,1.2c-0.6,1.5-1.6,2.6-2.8,3.5
			s-2.7,1.2-4.2,1.2c-0.5,0-0.8,0-0.9-0.1l-33.4-6.5c-0.1-0.1-0.3-0.1-0.7-0.1c-0.7,0-1.3,0.2-1.9,0.7s-0.9,1.1-1,1.9
			c-0.6,2.9-1.1,5.8-1.7,8.5c-0.6,2.8-1.1,5.6-1.6,8.4c-0.1,0.1-0.1,0.4-0.1,0.8c0,0.7,0.2,1.4,0.7,2c0.4,0.6,1,1,1.7,1.1l4.5,0.9
			c-0.1,2.3-0.6,4.2-1.5,5.9s-2.1,3.1-3.5,4.3c-1.4,1.1-3.1,2-4.9,2.6c-1.8,0.6-3.8,0.9-5.8,0.9c-3,0-5.5-0.5-7.5-1.6
			c-2-1.1-3.5-2.4-4.7-3.9c-1.1-1.6-1.9-3.3-2.3-5.1c-0.4-1.8-0.7-3.5-0.7-5c0-0.8,0.1-1.9,0.3-3.1c0.2-1.3,0.7-2.5,1.3-3.7
			s1.4-2.2,2.5-3.1s2.4-1.3,4-1.3c0.4,0,0.7,0,1.1,0.1s0.7,0.1,1.2,0.1c0.7,0,1.3-0.2,1.9-0.6c0.6-0.4,0.9-1.1,1-2l3-14.5
			c0.1-0.2,0.1-0.4,0.1-0.8c0-1.7-0.9-2.8-2.7-3.1c-1.6-0.3-2.9-0.9-4-1.9c-1.1-1-1.9-2-2.6-3.2c-0.6-1.2-1.1-2.3-1.4-3.3
			c-0.3-1.1-0.4-1.9-0.4-2.4c0-0.9,0.1-1.9,0.3-3s0.7-2.1,1.3-3.1c0.6-0.9,1.5-1.7,2.7-2.4s2.7-1,4.5-1c1.6,0,3,0.2,4.1,0.7
			c1.1,0.4,2,1,2.7,1.8c0.7,0.8,1.1,1.7,1.4,2.7s0.4,2.2,0.4,3.5c0,1.9,1.1,2.9,3.3,2.9c2.6,0,5.3,0,7.9,0c2.7,0,5.3,0,7.9,0
			c0.9,0,1.7-0.3,2.4-0.9c0.7-0.6,1-1.5,1-2.7c0-5.8-0.9-10.8-2.7-14.8c-1.8-4-4.2-7.3-7.2-9.8c-3-2.5-6.5-4.3-10.5-5.5
			s-8.1-1.7-12.3-1.7s-8.4,0.8-12.3,2.4s-7.4,3.8-10.5,6.6c-3,2.8-5.4,6.1-7.3,9.9c-1.8,3.8-2.7,7.9-2.7,12.3c0,4,0.8,7.7,2.3,11.1
			c1.5,3.4,3.4,6.3,5.8,8.8c-2.4,1.6-4.5,3.4-6.4,5.2c-1.9,1.8-3.6,3.9-5,6.3c-1.4,2.3-2.4,5-3.2,7.9s-1.1,6.3-1.1,10.2
			c0,5.3,1.1,10.1,3.3,14.6C1140.7,147.8,1143.7,151.7,1147.4,154.9L1147.4,154.9z"/>
		<path class="st0" d="M1278.1,140.8c2.2,3.7,4.8,7.1,7.8,10.2s6.5,5.7,10.2,7.9c3.7,2.2,7.7,3.9,12,5c4.3,1.2,8.7,1.8,13.3,1.8
			c5.6,0,10.9-0.9,15.9-2.6c5-1.8,9.6-4.1,13.8-7c0.9-0.6,1.7-1.2,2.4-2s1.1-1.7,1.1-2.9c0-0.3-0.1-0.7-0.3-1.2s-0.5-1-0.7-1.4
			l-8.6-13c-0.8-1.2-1.5-1.9-2.2-2.3s-1.5-0.5-2.4-0.5c-0.4,0-0.9,0.1-1.5,0.2c-0.6,0.1-1.3,0.4-2,1c-2.3,1.6-4.7,2.9-7.3,3.9
			c-2.6,1-5.3,1.5-8.2,1.5c-3.2,0-6.2-0.6-8.9-1.9c-2.7-1.3-5-3-7-5.1c-1.9-2.1-3.4-4.7-4.5-7.7c-1.1-2.9-1.6-6.1-1.6-9.5
			s0.5-6.4,1.6-9.4c1.1-3,2.6-5.6,4.5-7.8c1.9-2.3,4.2-4,7-5.3c2.7-1.3,5.7-2,8.9-2c2.9,0,5.7,0.5,8.3,1.4c2.6,0.9,5,2.2,7.3,3.7
			c0.8,0.6,1.6,1,2.2,1.2c0.7,0.2,1.2,0.3,1.7,0.3c2.1,0,3.8-1.3,5.2-3.8l6.8-11.6c0.6-1,0.9-1.9,0.9-2.8c0-1.3-0.3-2.4-1-3.3
			s-1.6-1.7-2.7-2.3l0.2,0.2c-4.2-2.9-8.6-5.1-13.3-6.6c-4.7-1.5-9.9-2.2-15.5-2.2c-4.6,0-9.1,0.6-13.3,1.8s-8.3,2.8-12,5
			s-7.1,4.8-10.2,7.8c-3.1,3.1-5.7,6.4-7.8,10.2c-2.2,3.7-3.8,7.8-5,12.1c-1.2,4.4-1.8,8.9-1.8,13.6s0.6,9.2,1.8,13.6
			C1274.3,133,1275.9,137,1278.1,140.8L1278.1,140.8z"/>
		<path class="st0" d="M1369.9,140.8c2.2,3.7,4.8,7.1,7.8,10.2c3.1,3.1,6.4,5.7,10.2,7.9c3.7,2.2,7.8,3.9,12.1,5s8.9,1.8,13.6,1.8
			s9.1-0.6,13.4-1.8c4.3-1.2,8.3-2.9,12-5c3.7-2.2,7.1-4.8,10.2-7.9c3.1-3.1,5.7-6.4,7.8-10.2c2.2-3.7,3.9-7.8,5.1-12.1
			s1.8-8.9,1.8-13.6c0-7.1-1.3-13.8-4-19.9s-6.2-11.5-10.8-16s-9.9-8.1-16-10.7c-6.1-2.6-12.7-3.9-19.7-3.9c-4.7,0-9.2,0.6-13.6,1.8
			c-4.3,1.2-8.4,2.8-12.1,5s-7.1,4.8-10.2,7.8c-3.1,3.1-5.7,6.4-7.8,10.2c-2.2,3.7-3.9,7.8-5.1,12.1c-1.2,4.4-1.8,8.9-1.8,13.6
			s0.6,9.2,1.8,13.6C1366.1,133,1367.8,137,1369.9,140.8L1369.9,140.8z M1392.7,105.7c1.1-3,2.5-5.6,4.5-7.8c1.9-2.3,4.3-4,7-5.3
			c2.7-1.3,5.8-2,9.3-2s6.3,0.7,9,2c2.7,1.3,5,3.1,6.8,5.3c1.9,2.3,3.3,4.9,4.3,7.8c1,3,1.5,6.1,1.5,9.4s-0.5,6.6-1.5,9.5
			s-2.4,5.5-4.3,7.7c-1.9,2.1-4.2,3.9-6.8,5.1c-2.7,1.3-5.7,1.9-9,1.9s-6.5-0.6-9.3-1.9c-2.8-1.3-5.1-3-7-5.1s-3.4-4.7-4.5-7.7
			c-1.1-2.9-1.6-6.1-1.6-9.5S1391.6,108.6,1392.7,105.7z"/>
		<rect x="1136.5" y="210.9" class="st0" width="326.1" height="29.5"/>
	</g>
</g>
<g class="st1">
	<path class="st0" d="M2.2,357.5v-15.1h61.1v15.1H40.9v57.4H24.5v-57.4H2.2z"/>
</g>
<g class="st1">
	<path class="st0" d="M124.5,342.4v15.1H86.8v13.3h31.7v15.1H86.8v13.9H125v15.1H70.3v-72.5H124.5z"/>
</g>
<g class="st1">
	<path class="st0" d="M187.9,346.7c6.1,3.7,10.8,8.8,13.8,15.1l-16,5.9c-3.6-6.7-10.4-11-18.5-11c-5.9,0-10.9,2.1-14.9,6.3
		c-4,4.1-6,9.3-6,15.5s2,11.4,6,15.6c4,4.1,9,6.2,14.9,6.2c8.2,0,14.9-4.2,18.5-11l16,5.9c-3,6.3-7.7,11.4-13.8,15.2
		c-6.1,3.7-13.1,5.6-20.7,5.6c-10.9,0-19.9-3.6-27.1-10.8c-7.2-7.1-10.9-16.2-10.9-26.8c0-10.7,3.6-19.7,10.9-26.8
		c7.3-7.1,16.3-10.8,27.1-10.8C174.9,341,181.8,342.9,187.9,346.7z"/>
	<path class="st0" d="M209.2,414.9v-72.5h16.5v28.3h31.4v-28.3h16.4v72.5h-16.4v-29.1h-31.4v29.1H209.2z"/>
	<path class="st0" d="M283.2,414.9v-72.5h14.6l34.5,44.4v-44.4h15.8v72.5h-14.6L299,370.6v44.2H283.2z"/>
	<path class="st0" d="M357.9,414.9v-72.5h16.5v72.5H357.9z"/>
</g>
<g class="st1">
	<path class="st0" d="M441.3,346.7c6.1,3.7,10.8,8.8,13.8,15.1l-16,5.9c-3.6-6.7-10.4-11-18.5-11c-5.9,0-10.9,2.1-14.9,6.3
		c-4,4.1-6,9.3-6,15.5s2,11.4,6,15.6c4,4.1,9,6.2,14.9,6.2c8.2,0,14.9-4.2,18.5-11l16,5.9c-3,6.3-7.7,11.4-13.8,15.2
		c-6.1,3.7-13.1,5.6-20.7,5.6c-10.9,0-19.9-3.6-27.1-10.8c-7.3-7.1-10.9-16.2-10.9-26.8c0-10.7,3.6-19.7,10.9-26.8
		s16.3-10.8,27.1-10.8C428.4,341,435.2,342.9,441.3,346.7z"/>
</g>
<g class="st1">
	<path class="st0" d="M456.3,414.9l30.6-72.5h13.6l30.5,72.5h-17.1l-5-12.2h-30.3l-5,12.2H456.3z M493.7,365.7l-9.1,22.3h18.2
		L493.7,365.7z"/>
	<path class="st0" d="M552.9,342.4v57.4h35v15.1h-51.5v-72.5H552.9z"/>
	<path class="st0" d="M674.5,342.4v15.1h-37.7v13.3h31.7v15.1h-31.7v13.9H675v15.1h-54.7v-72.5H674.5z"/>
	<path class="st0" d="M708.5,414.9l-30-72.5h17.2l19.7,49l0.9-2.6l18.6-46.4H752L722,414.9H708.5z"/>
	<path class="st0" d="M811.7,342.4v15.1H774v13.3h31.7v15.1H774v13.9h38.2v15.1h-54.7v-72.5H811.7z"/>
	<path class="st0" d="M819.9,414.9v-72.5h14.6l34.5,44.4v-44.4h15.8v72.5h-14.6l-34.5-44.2v44.2H819.9z"/>
	<path class="st0" d="M891.9,357.5v-15.1H953v15.1h-22.4v57.4h-16.4v-57.4H891.9z"/>
</g>
<g class="st1">
	<path class="st0" d="M1020.4,361.8c-0.9-3.2-4.8-5.7-9.6-5.7c-5,0-8.7,2.5-8.7,5.9c0,2.2,2,4.1,6,5.8c1.5,0.5,5.1,1.7,10.9,3.4
		c4.5,1.3,6.7,2.1,10.9,4.6c6,3.2,9.5,8.3,9.9,17.2c0,7-2.5,12.6-7.6,16.9s-11.6,6.3-19.6,6.3c-7.4,0-13.7-1.8-19-5.2
		s-8.6-7.9-10.2-13.4l16.5-3.9c1.1,4.1,6.1,7.4,12.6,7.4c5.9,0,10.7-2.8,10.7-6.6c0-1.3-0.6-2.5-1.9-3.5c-2.4-2.1-4.9-2.9-9-4.2
		l-1-0.3c-2.4-0.7-4.2-1.3-5.5-1.7l-5.1-1.9c-2.2-0.9-3.8-1.7-5-2.4c-2.2-1.6-5.8-4-7.4-6.6c-1.6-2.6-2.9-6.3-2.9-10.6
		c0-6.6,2.3-12,6.8-16.1c4.7-4.1,10.7-6.2,18-6.2c6.5,0,12.2,1.7,17,4.9c4.9,3.2,7.9,7.3,9.2,12.1L1020.4,361.8z"/>
</g>
<g class="st1">
	<path class="st0" d="M1094.7,342.4h16.4v43.2c0,8.7-3.1,16-9.2,21.9c-6.1,5.9-13.8,8.8-22.9,8.8c-9.1,0-16.8-2.9-22.9-8.8
		c-6.1-5.9-9.2-13.2-9.2-21.9v-43.2h16.4v43.1c0,4.5,1.5,8.2,4.5,11.2s6.8,4.5,11.3,4.5c4.5,0,8.2-1.5,11.2-4.5
		c3-3,4.6-6.7,4.6-11.2V342.4z"/>
	<path class="st0" d="M1136.7,414.9h-16.5v-72.5h32.9c7.5,0,13.7,2.4,18.6,7c5.1,4.7,7.6,10.4,7.6,17.3s-2.5,12.7-7.6,17.4
		c-5,4.7-11.2,6.9-18.6,6.9h-16.5V414.9z M1136.7,357.5v18.4h16.5c5.3,0,9.1-3.9,9.1-9.2s-3.8-9.2-9.1-9.2H1136.7z"/>
</g>
<g class="st1">
	<path class="st0" d="M1203.6,414.9h-16.5v-72.5h32.9c7.5,0,13.7,2.4,18.6,7c5.1,4.7,7.6,10.4,7.6,17.3s-2.5,12.7-7.6,17.4
		c-5,4.7-11.2,6.9-18.6,6.9h-16.5V414.9z M1203.6,357.5v18.4h16.5c5.3,0,9.1-3.9,9.1-9.2s-3.8-9.2-9.1-9.2H1203.6z"/>
</g>
<g class="st1">
	<path class="st0" d="M1250.5,378.6c0-10.7,3.6-19.7,10.9-26.8c7.3-7.1,16.3-10.8,27.1-10.8c10.9,0,19.9,3.6,27.1,10.8
		c7.4,7.1,11,16.2,11,26.8c0,10.7-3.6,19.7-11,26.8c-7.2,7.1-16.3,10.8-27.1,10.8c-10.9,0-19.9-3.6-27.1-10.8
		C1254.1,398.3,1250.5,389.3,1250.5,378.6z M1303.5,394.3c4-4.2,6-9.4,6-15.6s-2-11.4-6-15.5c-4-4.2-9-6.3-15-6.3
		c-5.9,0-10.9,2.1-14.9,6.3c-4,4.1-6,9.3-6,15.5s2,11.4,6,15.6c4,4.1,9,6.2,14.9,6.2C1294.5,400.5,1299.5,398.4,1303.5,394.3z"/>
</g>
<g class="st1">
	<path class="st0" d="M1368.8,342.4c7.5,0,13.7,2.4,18.6,7c5.1,4.7,7.6,10.4,7.6,17.3c0,9.2-5.1,17.1-13.1,21.2l15.6,26.9h-18.2
		l-14-23.8h-14.1v23.8h-16.5v-72.5H1368.8z M1351.3,357.5v18.4h17.5c5.3,0,9.1-3.9,9.1-9.2s-3.8-9.2-9.1-9.2H1351.3z"/>
</g>
<g class="st1">
	<path class="st0" d="M1399.3,357.5v-15.1h61.1v15.1h-22.4v57.4h-16.4v-57.4H1399.3z"/>
</g>
</svg>
