<svg id="Layer_1" xmlns="http://www.w3.org/2000/svg" viewBox="0 0 800.001 319.611">
    <defs>
        <style>.cls-1{stroke-miterlimit:10;}.cls-1,.cls-2{fill:#fff;stroke:#fff;}.cls-2{stroke-linecap:round;stroke-linejoin:round;stroke-width:.709px;}</style>
    </defs>
    <path class="cls-1" d="M48.62,35.569c0,3.582-.64,7.101-1.919,10.556-1.279,3.454-3.051,6.547-5.31,9.276-2.261,2.73-4.948,4.925-8.061,6.589-3.114,1.662-6.546,2.495-10.299,2.495-5.374,0-9.66-1.578-12.859-4.734-3.198-3.155-4.798-7.422-4.798-12.795,0-4.265,.938-8.401,2.815-12.411,1.875-4.008,4.434-7.761,7.677-11.259,3.241-3.497,7.037-6.674,11.387-9.532,4.35-2.857,8.998-5.31,13.946-7.357,4.946-2.047,10.086-3.625,15.418-4.734,5.329-1.108,10.555-1.663,15.673-1.663,3.666,0,7.441,.299,11.324,.895,3.88,.598,7.229,1.622,10.043,3.07,.852-.339,1.834-.723,2.943-1.15,1.107-.427,2.281-.832,3.519-1.217,1.235-.383,2.45-.723,3.646-1.023C104.958,.277,106.068,.085,107.092,0l.128,.767c-2.047,.256-4.075,.768-6.078,1.535-2.005,.768-3.86,1.622-5.565,2.559,6.481,3.668,9.724,8.957,9.724,15.866,0,4.522-.876,8.381-2.623,11.579-1.749,3.199-4.052,5.802-6.909,7.805-2.859,2.005-6.122,3.454-9.788,4.35-3.669,.895-7.422,1.343-11.26,1.343v.256c2.644,1.11,4.627,2.581,5.95,4.414,1.321,1.835,1.983,4.202,1.983,7.101,0,1.878-.406,4.181-1.215,6.91-.812,2.73-1.728,5.545-2.752,8.444-1.023,2.815-1.962,5.523-2.814,8.125-.854,2.602-1.28,4.756-1.28,6.461,0,2.731,1.235,4.095,3.711,4.095,2.559,0,5.521-.874,8.892-2.624,3.369-1.747,6.929-4.456,10.683-8.125,6.568-6.396,12.751-14.202,18.553-23.414l1.151,.512c-1.963,3.071-4.286,6.506-6.972,10.3-2.687,3.796-5.95,7.657-9.788,11.58-8.445,8.871-16.25,13.306-23.415,13.306-2.987,0-5.354-.726-7.101-2.175-1.749-1.45-2.623-3.625-2.623-6.526,0-1.875,.49-4.136,1.472-6.781,.979-2.643,2.067-5.374,3.262-8.189,1.194-2.815,2.26-5.629,3.199-8.444,.938-2.815,1.407-5.288,1.407-7.421,0-3.24-.875-5.374-2.623-6.397-1.748-1.024-4.03-1.747-6.844-2.175l.511-1.28c.938,.172,1.833,.3,2.687,.384,.851,.086,1.747,.128,2.687,.128,3.753,0,7.165-.704,10.236-2.111,3.07-1.407,5.693-3.327,7.869-5.758,2.175-2.431,3.858-5.266,5.053-8.508,1.194-3.241,1.791-6.696,1.791-10.364,0-2.131-.405-4.178-1.215-6.142-.811-1.961-2.027-3.538-3.646-4.734-4.35,2.56-8.509,6.462-12.475,11.708-3.967,5.246-7.933,11.089-11.899,17.529-3.967,6.441-8.019,13.03-12.155,19.767-4.139,6.739-8.509,12.903-13.115,18.489-4.606,5.587-9.512,10.151-14.714,13.69-5.203,3.538-10.875,5.31-17.016,5.31-1.367,0-2.774-.172-4.223-.513-1.451-.341-2.751-.875-3.902-1.599-1.152-.723-2.111-1.663-2.879-2.815-.767-1.15-1.152-2.494-1.152-4.029,0-1.536,.468-2.771,1.408-3.711,.938-.938,2.217-1.408,3.838-1.408,1.194,0,2.153,.384,2.879,1.152,.724,.767,1.087,1.707,1.087,2.815,0,1.024-.3,2.005-.895,2.943-.598,.94-1.493,1.365-2.687,1.279,.256,1.109,1.152,2.111,2.687,3.007,1.535,.896,3.282,1.344,5.246,1.344,4.434,0,8.592-1.728,12.475-5.183,3.88-3.454,7.719-7.91,11.515-13.37,3.794-5.458,7.59-11.515,11.387-18.169,3.794-6.653,7.847-13.178,12.155-19.575,4.307-6.398,8.956-12.284,13.946-17.657,4.99-5.374,10.512-9.51,16.569-12.411-2.815-1.449-5.971-2.43-9.468-2.943-3.499-.511-6.909-.767-10.236-.767-4.266,0-8.764,.47-13.498,1.407-4.734,.94-9.384,2.303-13.946,4.095-4.564,1.79-8.937,4.01-13.114,6.653-4.181,2.646-7.849,5.693-11.004,9.148-3.157,3.455-5.674,7.251-7.549,11.387-1.877,4.138-2.815,8.636-2.815,13.498,0,4.693,1.152,8.403,3.455,11.132,2.303,2.731,5.543,4.094,9.724,4.094,3.667,0,6.973-.852,9.916-2.559,2.942-1.705,5.457-3.88,7.548-6.525,2.09-2.643,3.689-5.586,4.799-8.828,1.107-3.241,1.663-6.398,1.663-9.468h1.535Z" />
    <path class="cls-2" d="M48.62,35.569c0,3.582-.64,7.101-1.919,10.556-1.279,3.454-3.051,6.547-5.31,9.276-2.261,2.73-4.948,4.925-8.061,6.589-3.114,1.662-6.546,2.495-10.299,2.495-5.374,0-9.66-1.578-12.859-4.734-3.198-3.155-4.798-7.422-4.798-12.795,0-4.265,.938-8.401,2.815-12.411,1.875-4.008,4.434-7.761,7.677-11.259,3.241-3.497,7.037-6.674,11.387-9.532,4.35-2.857,8.998-5.31,13.946-7.357,4.946-2.047,10.086-3.625,15.418-4.734,5.329-1.108,10.555-1.663,15.673-1.663,3.666,0,7.441,.299,11.324,.895,3.88,.598,7.229,1.622,10.043,3.07,.852-.339,1.834-.723,2.943-1.15,1.107-.427,2.281-.832,3.519-1.217,1.235-.383,2.45-.723,3.646-1.023C104.958,.277,106.068,.085,107.092,0l.128,.767c-2.047,.256-4.075,.768-6.078,1.535-2.005,.768-3.86,1.622-5.565,2.559,6.481,3.668,9.724,8.957,9.724,15.866,0,4.522-.876,8.381-2.623,11.579-1.749,3.199-4.052,5.802-6.909,7.805-2.859,2.005-6.122,3.454-9.788,4.35-3.669,.895-7.422,1.343-11.26,1.343v.256c2.644,1.11,4.627,2.581,5.95,4.414,1.321,1.835,1.983,4.202,1.983,7.101,0,1.878-.406,4.181-1.215,6.91-.812,2.73-1.728,5.545-2.752,8.444-1.023,2.815-1.962,5.523-2.814,8.125-.854,2.602-1.28,4.756-1.28,6.461,0,2.731,1.235,4.095,3.711,4.095,2.559,0,5.521-.874,8.892-2.624,3.369-1.747,6.929-4.456,10.683-8.125,6.568-6.396,12.751-14.202,18.553-23.414l1.151,.512c-1.963,3.071-4.286,6.506-6.972,10.3-2.687,3.796-5.95,7.657-9.788,11.58-8.445,8.871-16.25,13.306-23.415,13.306-2.987,0-5.354-.726-7.101-2.175-1.749-1.45-2.623-3.625-2.623-6.526,0-1.875,.49-4.136,1.472-6.781,.979-2.643,2.067-5.374,3.262-8.189,1.194-2.815,2.26-5.629,3.199-8.444,.938-2.815,1.407-5.288,1.407-7.421,0-3.24-.875-5.374-2.623-6.397-1.748-1.024-4.03-1.747-6.844-2.175l.511-1.28c.938,.172,1.833,.3,2.687,.384,.851,.086,1.747,.128,2.687,.128,3.753,0,7.165-.704,10.236-2.111,3.07-1.407,5.693-3.327,7.869-5.758,2.175-2.431,3.858-5.266,5.053-8.508,1.194-3.241,1.791-6.696,1.791-10.364,0-2.131-.405-4.178-1.215-6.142-.811-1.961-2.027-3.538-3.646-4.734-4.35,2.56-8.509,6.462-12.475,11.708-3.967,5.246-7.933,11.089-11.899,17.529-3.967,6.441-8.019,13.03-12.155,19.767-4.139,6.739-8.509,12.903-13.115,18.489-4.606,5.587-9.512,10.151-14.714,13.69-5.203,3.538-10.875,5.31-17.016,5.31-1.367,0-2.774-.172-4.223-.513-1.451-.341-2.751-.875-3.902-1.599-1.152-.723-2.111-1.663-2.879-2.815-.767-1.15-1.152-2.494-1.152-4.029,0-1.536,.468-2.771,1.408-3.711,.938-.938,2.217-1.408,3.838-1.408,1.194,0,2.153,.384,2.879,1.152,.724,.767,1.087,1.707,1.087,2.815,0,1.024-.3,2.005-.895,2.943-.598,.94-1.493,1.365-2.687,1.279,.256,1.109,1.152,2.111,2.687,3.007,1.535,.896,3.282,1.344,5.246,1.344,4.434,0,8.592-1.728,12.475-5.183,3.88-3.454,7.719-7.91,11.515-13.37,3.794-5.458,7.59-11.515,11.387-18.169,3.794-6.653,7.847-13.178,12.155-19.575,4.307-6.398,8.956-12.284,13.946-17.657,4.99-5.374,10.512-9.51,16.569-12.411-2.815-1.449-5.971-2.43-9.468-2.943-3.499-.511-6.909-.767-10.236-.767-4.266,0-8.764,.47-13.498,1.407-4.734,.94-9.384,2.303-13.946,4.095-4.564,1.79-8.937,4.01-13.114,6.653-4.181,2.646-7.849,5.693-11.004,9.148-3.157,3.455-5.674,7.251-7.549,11.387-1.877,4.138-2.815,8.636-2.815,13.498,0,4.693,1.152,8.403,3.455,11.132,2.303,2.731,5.543,4.094,9.724,4.094,3.667,0,6.973-.852,9.916-2.559,2.942-1.705,5.457-3.88,7.548-6.525,2.09-2.643,3.689-5.586,4.799-8.828,1.107-3.241,1.663-6.398,1.663-9.468h1.535Z" />
    <path class="cls-1" d="M160.573,57.959c-1.28,2.133-2.879,4.478-4.799,7.037-1.919,2.559-4.094,5.098-6.525,7.613-2.431,2.516-5.034,4.948-7.804,7.293-2.773,2.347-5.652,4.436-8.637,6.269-2.986,1.836-5.993,3.284-9.02,4.351-3.029,1.065-5.994,1.598-8.892,1.598-3.583,0-6.356-.917-8.318-2.75s-2.942-4.457-2.942-7.869c0-3.752,1.13-7.697,3.391-11.835,2.259-4.136,5.138-7.952,8.636-11.451,3.497-3.497,7.335-6.398,11.515-8.701,4.179-2.302,8.189-3.454,12.027-3.454,2.132,0,3.795,.448,4.991,1.344,1.193,.895,1.791,2.197,1.791,3.902,0,2.047-1.11,4.03-3.327,5.949-2.219,1.92-4.926,3.669-8.125,5.246-3.198,1.579-6.633,2.987-10.3,4.222-3.668,1.238-6.909,2.155-9.723,2.751-.94,1.707-1.708,3.626-2.303,5.758-.598,2.133-.896,4.266-.896,6.397,0,1.024,.106,2.027,.32,3.007,.212,.981,.554,1.877,1.024,2.687,.467,.812,1.107,1.471,1.919,1.982,.81,.513,1.811,.769,3.007,.769,2.814,0,6.119-.917,9.915-2.751,3.794-1.833,7.655-4.287,11.579-7.357,3.923-3.071,7.677-6.568,11.26-10.492,3.582-3.922,6.653-7.975,9.212-12.154l1.024,.639Zm-20.728-6.78c0-1.194-.32-2.089-.959-2.687-.641-.596-1.43-.896-2.368-.896-1.791,0-3.732,.704-5.821,2.111-2.092,1.408-4.158,3.157-6.206,5.246-2.046,2.091-3.901,4.33-5.565,6.717-1.664,2.389-2.923,4.522-3.775,6.398,1.876-.34,4.222-1.002,7.037-1.983,2.815-.98,5.522-2.196,8.125-3.647,2.601-1.449,4.84-3.134,6.717-5.054,1.876-1.92,2.815-3.987,2.815-6.205" />
    <path class="cls-2" d="M160.573,57.959c-1.28,2.133-2.879,4.478-4.799,7.037-1.919,2.559-4.094,5.098-6.525,7.613-2.431,2.516-5.034,4.948-7.804,7.293-2.773,2.347-5.652,4.436-8.637,6.269-2.986,1.836-5.993,3.284-9.02,4.351-3.029,1.065-5.994,1.598-8.892,1.598-3.583,0-6.356-.917-8.318-2.75s-2.942-4.457-2.942-7.869c0-3.752,1.13-7.697,3.391-11.835,2.259-4.136,5.138-7.952,8.636-11.451,3.497-3.497,7.335-6.398,11.515-8.701,4.179-2.302,8.189-3.454,12.027-3.454,2.132,0,3.795,.448,4.991,1.344,1.193,.895,1.791,2.197,1.791,3.902,0,2.047-1.11,4.03-3.327,5.949-2.219,1.92-4.926,3.669-8.125,5.246-3.198,1.579-6.633,2.987-10.3,4.222-3.668,1.238-6.909,2.155-9.723,2.751-.94,1.707-1.708,3.626-2.303,5.758-.598,2.133-.896,4.266-.896,6.397,0,1.024,.106,2.027,.32,3.007,.212,.981,.554,1.877,1.024,2.687,.467,.812,1.107,1.471,1.919,1.982,.81,.513,1.811,.769,3.007,.769,2.814,0,6.119-.917,9.915-2.751,3.794-1.833,7.655-4.287,11.579-7.357,3.923-3.071,7.677-6.568,11.26-10.492,3.582-3.922,6.653-7.975,9.212-12.154l1.024,.639Zm-20.728-6.78c0-1.194-.32-2.089-.959-2.687-.641-.596-1.43-.896-2.368-.896-1.791,0-3.732,.704-5.821,2.111-2.092,1.408-4.158,3.157-6.206,5.246-2.046,2.091-3.901,4.33-5.565,6.717-1.664,2.389-2.923,4.522-3.775,6.398,1.876-.34,4.222-1.002,7.037-1.983,2.815-.98,5.522-2.196,8.125-3.647,2.601-1.449,4.84-3.134,6.717-5.054,1.876-1.92,2.815-3.987,2.815-6.205Z" />
    <path class="cls-1" d="M202.794,58.088c-2.559,4.094-5.524,8.168-8.893,12.219-3.37,4.052-7.059,7.698-11.067,10.939-4.01,3.242-8.38,5.865-13.115,7.869-4.734,2.003-9.787,3.006-15.161,3.006-2.048,0-3.966-.256-5.758-.767-1.791-.512-3.348-1.279-4.67-2.303-1.321-1.024-2.387-2.323-3.198-3.902-.81-1.578-1.216-3.433-1.216-5.566,0-2.218,.725-4.223,2.175-6.014,1.452-1.791,3.411-2.687,5.885-2.687,1.28,0,2.324,.32,3.136,.96,.809,.64,1.215,1.599,1.215,2.879,0,1.196-.3,2.219-.896,3.071-.598,.853-1.493,1.279-2.687,1.279-.939,0-1.685-.256-2.239-.768-.555-.511-.917-1.151-1.087-1.919-.94,.512-1.577,1.26-1.92,2.239-.339,.982-.511,1.984-.511,3.007,0,2.986,1.131,5.226,3.391,6.717,2.259,1.493,4.797,2.239,7.612,2.239,1.792,0,3.347-.361,4.671-1.087,1.321-.724,2.43-1.663,3.326-2.815,.896-1.152,1.555-2.495,1.983-4.031,.426-1.535,.64-3.07,.64-4.606,0-1.619-.278-3.304-.832-5.054-.556-1.747-1.174-3.474-1.855-5.181-.684-1.705-1.324-3.391-1.919-5.054-.598-1.663-.896-3.219-.896-4.67,0-1.875,.384-3.561,1.151-5.054,.769-1.492,1.812-2.751,3.135-3.775,1.322-1.024,2.835-1.811,4.542-2.366,1.706-.555,3.496-.832,5.374-.832,3.411,0,6.184,.747,8.317,2.239,2.131,1.493,3.198,3.476,3.198,5.949,0,2.219-.831,3.839-2.495,4.862-1.663,1.024-3.518,1.535-5.565,1.535,.511-.937,.959-2.066,1.343-3.39,.384-1.322,.575-2.537,.575-3.647,0-1.705-.533-3.134-1.598-4.286-1.068-1.151-2.581-1.727-4.543-1.727-2.475,0-4.308,.748-5.502,2.239-1.194,1.494-1.79,3.307-1.79,5.438,0,1.877,.32,3.668,.959,5.373,.64,1.708,1.386,3.413,2.239,5.119,.768,1.707,1.471,3.454,2.111,5.245s.96,3.797,.96,6.014c0,1.621-.364,3.178-1.088,4.67-.726,1.493-1.685,2.859-2.878,4.094-1.196,1.237-2.539,2.283-4.031,3.135-1.493,.853-3.007,1.407-4.542,1.663l.256,.256c4.606-.512,8.998-1.856,13.178-4.03,4.179-2.176,8.081-4.818,11.708-7.933,3.624-3.113,6.973-6.525,10.043-10.235,3.072-3.711,5.758-7.358,8.061-10.94l.768,.384Z" />
    <path class="cls-2" d="M202.794,58.088c-2.559,4.094-5.524,8.168-8.893,12.219-3.37,4.052-7.059,7.698-11.067,10.939-4.01,3.242-8.38,5.865-13.115,7.869-4.734,2.003-9.787,3.006-15.161,3.006-2.048,0-3.966-.256-5.758-.767-1.791-.512-3.348-1.279-4.67-2.303-1.321-1.024-2.387-2.323-3.198-3.902-.81-1.578-1.216-3.433-1.216-5.566,0-2.218,.725-4.223,2.175-6.014,1.452-1.791,3.411-2.687,5.885-2.687,1.28,0,2.324,.32,3.136,.96,.809,.64,1.215,1.599,1.215,2.879,0,1.196-.3,2.219-.896,3.071-.598,.853-1.493,1.279-2.687,1.279-.939,0-1.685-.256-2.239-.768-.555-.511-.917-1.151-1.087-1.919-.94,.512-1.577,1.26-1.92,2.239-.339,.982-.511,1.984-.511,3.007,0,2.986,1.131,5.226,3.391,6.717,2.259,1.493,4.797,2.239,7.612,2.239,1.792,0,3.347-.361,4.671-1.087,1.321-.724,2.43-1.663,3.326-2.815,.896-1.152,1.555-2.495,1.983-4.031,.426-1.535,.64-3.07,.64-4.606,0-1.619-.278-3.304-.832-5.054-.556-1.747-1.174-3.474-1.855-5.181-.684-1.705-1.324-3.391-1.919-5.054-.598-1.663-.896-3.219-.896-4.67,0-1.875,.384-3.561,1.151-5.054,.769-1.492,1.812-2.751,3.135-3.775,1.322-1.024,2.835-1.811,4.542-2.366,1.706-.555,3.496-.832,5.374-.832,3.411,0,6.184,.747,8.317,2.239,2.131,1.493,3.198,3.476,3.198,5.949,0,2.219-.831,3.839-2.495,4.862-1.663,1.024-3.518,1.535-5.565,1.535,.511-.937,.959-2.066,1.343-3.39,.384-1.322,.575-2.537,.575-3.647,0-1.705-.533-3.134-1.598-4.286-1.068-1.151-2.581-1.727-4.543-1.727-2.475,0-4.308,.748-5.502,2.239-1.194,1.494-1.79,3.307-1.79,5.438,0,1.877,.32,3.668,.959,5.373,.64,1.708,1.386,3.413,2.239,5.119,.768,1.707,1.471,3.454,2.111,5.245s.96,3.797,.96,6.014c0,1.621-.364,3.178-1.088,4.67-.726,1.493-1.685,2.859-2.878,4.094-1.196,1.237-2.539,2.283-4.031,3.135-1.493,.853-3.007,1.407-4.542,1.663l.256,.256c4.606-.512,8.998-1.856,13.178-4.03,4.179-2.176,8.081-4.818,11.708-7.933,3.624-3.113,6.973-6.525,10.043-10.235,3.072-3.711,5.758-7.358,8.061-10.94l.768,.384Z" />
    <path class="cls-1" d="M224.544,32.243l-10.107,14.842h16.888l-.767,1.535h-17.145c-3.412,5.546-6.461,10.343-9.148,14.394-2.687,4.052-4.948,7.548-6.782,10.492-1.835,2.942-3.22,5.417-4.158,7.421-.939,2.004-1.407,3.774-1.407,5.309,0,1.622,.554,2.751,1.663,3.39,1.108,.64,2.387,.96,3.839,.96,3.07,0,6.461-1.171,10.171-3.518,3.711-2.345,7.399-5.224,11.068-8.637,3.666-3.41,7.165-7.037,10.491-10.875,3.327-3.838,6.142-7.293,8.445-10.364l.768,.512c-2.901,3.668-6.078,7.529-9.532,11.58-3.455,4.052-7.017,7.762-10.684,11.131-3.669,3.37-7.357,6.163-11.068,8.38-3.71,2.219-7.228,3.326-10.556,3.326-2.644,0-4.925-.811-6.844-2.43-1.919-1.62-2.879-3.881-2.879-6.781,0-1.961,.554-4.159,1.663-6.59,1.107-2.431,2.559-5.054,4.351-7.869,1.791-2.814,3.816-5.885,6.077-9.212,2.259-3.327,4.584-6.865,6.973-10.619h-6.909l.768-1.535h7.165l9.979-14.842h7.677Z" />
    <path class="cls-2" d="M224.544,32.243l-10.107,14.842h16.888l-.767,1.535h-17.145c-3.412,5.546-6.461,10.343-9.148,14.394-2.687,4.052-4.948,7.548-6.782,10.492-1.835,2.942-3.22,5.417-4.158,7.421-.939,2.004-1.407,3.774-1.407,5.309,0,1.622,.554,2.751,1.663,3.39,1.108,.64,2.387,.96,3.839,.96,3.07,0,6.461-1.171,10.171-3.518,3.711-2.345,7.399-5.224,11.068-8.637,3.666-3.41,7.165-7.037,10.491-10.875,3.327-3.838,6.142-7.293,8.445-10.364l.768,.512c-2.901,3.668-6.078,7.529-9.532,11.58-3.455,4.052-7.017,7.762-10.684,11.131-3.669,3.37-7.357,6.163-11.068,8.38-3.71,2.219-7.228,3.326-10.556,3.326-2.644,0-4.925-.811-6.844-2.43-1.919-1.62-2.879-3.881-2.879-6.781,0-1.961,.554-4.159,1.663-6.59,1.107-2.431,2.559-5.054,4.351-7.869,1.791-2.814,3.816-5.885,6.077-9.212,2.259-3.327,4.584-6.865,6.973-10.619h-6.909l.768-1.535h7.165l9.979-14.842h7.677Z" />
    <path class="cls-1" d="M271.757,47.084h8.316c-3.156,4.436-6.185,8.744-9.084,12.922-2.901,4.181-5.482,8.042-7.74,11.58-2.262,3.54-4.075,6.653-5.439,9.34-1.365,2.687-2.047,4.798-2.047,6.333,0,2.219,1.152,3.327,3.455,3.327,1.791,0,4.072-.874,6.845-2.623,2.771-1.747,5.778-4.158,9.02-7.229,3.241-3.071,6.568-6.653,9.98-10.748,3.411-4.094,6.653-8.444,9.724-13.05l.767,.256c-2.303,3.498-5.011,7.273-8.124,11.323-3.115,4.053-6.378,7.827-9.788,11.324-3.412,3.498-6.825,6.419-10.236,8.764-3.412,2.347-6.611,3.518-9.596,3.518-2.475,0-4.286-.62-5.437-1.855-1.152-1.236-1.727-2.707-1.727-4.415,0-1.192,.191-2.366,.575-3.518,.384-1.151,.788-2.322,1.216-3.518l-.256-.128c-1.11,1.195-2.495,2.58-4.159,4.158-1.663,1.58-3.454,3.051-5.374,4.414-1.918,1.366-3.902,2.517-5.949,3.455-2.047,.937-4.01,1.407-5.885,1.407-3.157,0-5.374-.981-6.653-2.942-1.28-1.961-1.92-4.179-1.92-6.654,0-3.496,1.108-7.357,3.327-11.579,2.217-4.222,5.032-8.188,8.444-11.899,3.41-3.711,7.121-6.801,11.132-9.277,4.008-2.472,7.804-3.71,11.387-3.71,1.705,0,3.199,.237,4.478,.704,1.28,.47,2.345,1.11,3.199,1.919,.852,.812,1.513,1.727,1.983,2.751,.468,1.023,.832,2.091,1.087,3.199h.256l4.2229-7.549Zm-41.839,35.825c0,1.963,.404,3.477,1.216,4.542,.809,1.068,1.939,1.6,3.39,1.6,1.45,0,3.155-.532,5.118-1.6,1.961-1.065,4.008-2.495,6.141-4.286,2.132-1.791,4.242-3.859,6.334-6.205,2.089-2.345,3.944-4.84,5.566-7.486,1.619-2.643,2.942-5.329,3.966-8.06,1.023-2.729,1.535-5.33,1.535-7.805,0-1.961-.556-3.454-1.663-4.478-1.109-1.023-2.475-1.535-4.094-1.535-2.559,0-5.418,1.109-8.573,3.326-3.157,2.219-6.141,5.054-8.956,8.509-2.815,3.454-5.182,7.273-7.101,11.451-1.92,4.18-2.879,8.189-2.879,12.027" />
    <path class="cls-2" d="M271.757,47.084h8.316c-3.156,4.436-6.185,8.744-9.084,12.922-2.901,4.181-5.482,8.042-7.74,11.58-2.262,3.54-4.075,6.653-5.439,9.34-1.365,2.687-2.047,4.798-2.047,6.333,0,2.219,1.152,3.327,3.455,3.327,1.791,0,4.072-.874,6.845-2.623,2.771-1.747,5.778-4.158,9.02-7.229,3.241-3.071,6.568-6.653,9.98-10.748,3.411-4.094,6.653-8.444,9.724-13.05l.767,.256c-2.303,3.498-5.011,7.273-8.124,11.323-3.115,4.053-6.378,7.827-9.788,11.324-3.412,3.498-6.825,6.419-10.236,8.764-3.412,2.347-6.611,3.518-9.596,3.518-2.475,0-4.286-.62-5.437-1.855-1.152-1.236-1.727-2.707-1.727-4.415,0-1.192,.191-2.366,.575-3.518,.384-1.151,.788-2.322,1.216-3.518l-.256-.128c-1.11,1.195-2.495,2.58-4.159,4.158-1.663,1.58-3.454,3.051-5.374,4.414-1.918,1.366-3.902,2.517-5.949,3.455-2.047,.937-4.01,1.407-5.885,1.407-3.157,0-5.374-.981-6.653-2.942-1.28-1.961-1.92-4.179-1.92-6.654,0-3.496,1.108-7.357,3.327-11.579,2.217-4.222,5.032-8.188,8.444-11.899,3.41-3.711,7.121-6.801,11.132-9.277,4.008-2.472,7.804-3.71,11.387-3.71,1.705,0,3.199,.237,4.478,.704,1.28,.47,2.345,1.11,3.199,1.919,.852,.812,1.513,1.727,1.983,2.751,.468,1.023,.832,2.091,1.087,3.199h.256l4.2229-7.549Zm-41.839,35.825c0,1.963,.404,3.477,1.216,4.542,.809,1.068,1.939,1.6,3.39,1.6,1.45,0,3.155-.532,5.118-1.6,1.961-1.065,4.008-2.495,6.141-4.286,2.132-1.791,4.242-3.859,6.334-6.205,2.089-2.345,3.944-4.84,5.566-7.486,1.619-2.643,2.942-5.329,3.966-8.06,1.023-2.729,1.535-5.33,1.535-7.805,0-1.961-.556-3.454-1.663-4.478-1.109-1.023-2.475-1.535-4.094-1.535-2.559,0-5.418,1.109-8.573,3.326-3.157,2.219-6.141,5.054-8.956,8.509-2.815,3.454-5.182,7.273-7.101,11.451-1.92,4.18-2.879,8.189-2.879,12.027Z" />
    <path class="cls-1" d="M308.731,47.084c-3.326,4.522-6.525,8.828-9.596,12.922-3.071,4.094-5.801,7.849-8.189,11.26-2.388,3.412-4.285,6.377-5.693,8.892-1.407,2.517-2.111,4.5-2.111,5.949,0,1.366,.34,2.368,1.023,3.007,.682,.64,1.578,.96,2.687,.96,1.62,0,3.391-.512,5.31-1.536,1.92-1.023,3.881-2.345,5.885-3.966,2.003-1.619,3.967-3.411,5.886-5.373,1.92-1.962,3.711-3.903,5.374-5.822s3.112-3.689,4.35-5.31c1.236-1.619,2.153-2.899,2.751-3.838l11.259-17.145h8.829c-4.607,6.313-8.509,11.665-11.707,16.057-3.199,4.394-5.802,8.125-7.805,11.195-2.005,3.071-3.435,5.566-4.287,7.485-.853,1.92-1.279,3.605-1.279,5.054,0,1.023,.298,1.899,.896,2.623,.596,.726,1.449,1.087,2.558,1.087,1.706,0,3.667-.617,5.886-1.855,2.217-1.235,4.52-2.856,6.909-4.862,2.387-2.003,4.754-4.264,7.101-6.781,2.345-2.515,4.563-5.01,6.653-7.484s3.987-4.799,5.694-6.974c1.706-2.175,3.027-3.944,3.967-5.309l1.279,.383c-1.024,1.452-2.389,3.307-4.094,5.566-1.708,2.261-3.627,4.65-5.758,7.165-2.133,2.517-4.394,5.076-6.781,7.676-2.389,2.603-4.842,4.927-7.357,6.974-2.517,2.047-4.99,3.732-7.421,5.054-2.431,1.321-4.714,1.983-6.845,1.983-2.389,0-4.286-.662-5.693-1.983-1.409-1.322-2.112-3.091-2.112-5.31,0-1.705,.276-3.347,.832-4.926,.554-1.577,.96-2.579,1.215-3.007l-.255-.255c-1.792,2.047-3.669,4.009-5.631,5.884-1.962,1.878-3.924,3.519-5.885,4.927-1.963,1.407-3.946,2.539-5.949,3.391-2.005,.851-3.988,1.279-5.95,1.279-2.731,0-4.692-.62-5.885-1.855-1.194-1.236-1.791-2.707-1.791-4.415,0-2.131,.575-4.434,1.727-6.909,1.151-2.473,2.751-5.245,4.798-8.316s4.498-6.526,7.357-10.364c2.857-3.838,5.991-8.231,9.404-13.178h8.4439Z" />
    <path class="cls-2" d="M308.731,47.084c-3.326,4.522-6.525,8.828-9.596,12.922-3.071,4.094-5.801,7.849-8.189,11.26-2.388,3.412-4.285,6.377-5.693,8.892-1.407,2.517-2.111,4.5-2.111,5.949,0,1.366,.34,2.368,1.023,3.007,.682,.64,1.578,.96,2.687,.96,1.62,0,3.391-.512,5.31-1.536,1.92-1.023,3.881-2.345,5.885-3.966,2.003-1.619,3.967-3.411,5.886-5.373,1.92-1.962,3.711-3.903,5.374-5.822s3.112-3.689,4.35-5.31c1.236-1.619,2.153-2.899,2.751-3.838l11.259-17.145h8.829c-4.607,6.313-8.509,11.665-11.707,16.057-3.199,4.394-5.802,8.125-7.805,11.195-2.005,3.071-3.435,5.566-4.287,7.485-.853,1.92-1.279,3.605-1.279,5.054,0,1.023,.298,1.899,.896,2.623,.596,.726,1.449,1.087,2.558,1.087,1.706,0,3.667-.617,5.886-1.855,2.217-1.235,4.52-2.856,6.909-4.862,2.387-2.003,4.754-4.264,7.101-6.781,2.345-2.515,4.563-5.01,6.653-7.484s3.987-4.799,5.694-6.974c1.706-2.175,3.027-3.944,3.967-5.309l1.279,.383c-1.024,1.452-2.389,3.307-4.094,5.566-1.708,2.261-3.627,4.65-5.758,7.165-2.133,2.517-4.394,5.076-6.781,7.676-2.389,2.603-4.842,4.927-7.357,6.974-2.517,2.047-4.99,3.732-7.421,5.054-2.431,1.321-4.714,1.983-6.845,1.983-2.389,0-4.286-.662-5.693-1.983-1.409-1.322-2.112-3.091-2.112-5.31,0-1.705,.276-3.347,.832-4.926,.554-1.577,.96-2.579,1.215-3.007l-.255-.255c-1.792,2.047-3.669,4.009-5.631,5.884-1.962,1.878-3.924,3.519-5.885,4.927-1.963,1.407-3.946,2.539-5.949,3.391-2.005,.851-3.988,1.279-5.95,1.279-2.731,0-4.692-.62-5.885-1.855-1.194-1.236-1.791-2.707-1.791-4.415,0-2.131,.575-4.434,1.727-6.909,1.151-2.473,2.751-5.245,4.798-8.316s4.498-6.526,7.357-10.364c2.857-3.838,5.991-8.231,9.404-13.178h8.4439Z" />
    <path class="cls-1" d="M364.258,47.084l-16.25,23.669,.256,.257c1.194-1.449,2.707-3.135,4.542-5.054,1.834-1.919,3.839-3.881,6.014-5.886,2.175-2.003,4.456-3.986,6.845-5.949,2.387-1.962,4.735-3.711,7.037-5.246,.426-.852,.896-1.536,1.408-2.047,.511-.512,1.535-.768,3.071-.768,.937,0,1.768,.022,2.494,.065,.724,.042,1.472,.107,2.239,.191-1.451,1.451-2.858,3.221-4.222,5.31-1.365,2.091-2.047,4.372-2.047,6.845,0,1.963,.489,3.498,1.471,4.606,.98,1.11,2.196,1.663,3.647,1.663,1.28,0,2.537-.256,3.774-.767,1.236-.512,2.409-1.152,3.518-1.92,1.108-.767,2.176-1.576,3.2-2.43,1.023-.852,1.919-1.62,2.686-2.303l.768,.511c-.853,.854-1.835,1.772-2.943,2.751-1.109,.982-2.302,1.899-3.582,2.751-1.28,.854-2.645,1.558-4.094,2.111-1.452,.556-2.943,.832-4.479,.832-2.731,0-4.926-.832-6.589-2.496-1.663-1.663-2.495-3.986-2.495-6.972,0-2.047,.468-3.881,1.408-5.502l-.257-.256c-3.498,2.389-7.337,5.523-11.514,9.404-4.181,3.882-8.617,8.466-13.307,13.754-1.707,1.877-3.477,4.351-5.31,7.421-1.835,3.071-3.434,6.228-4.798,9.468h-8.317c4.607-7.334,9.213-14.628,13.819-21.879,4.606-7.249,9.34-14.628,14.202-22.134h7.8049Z" />
    <path class="cls-2" d="M364.258,47.084l-16.25,23.669,.256,.257c1.194-1.449,2.707-3.135,4.542-5.054,1.834-1.919,3.839-3.881,6.014-5.886,2.175-2.003,4.456-3.986,6.845-5.949,2.387-1.962,4.735-3.711,7.037-5.246,.426-.852,.896-1.536,1.408-2.047,.511-.512,1.535-.768,3.071-.768,.937,0,1.768,.022,2.494,.065,.724,.042,1.472,.107,2.239,.191-1.451,1.451-2.858,3.221-4.222,5.31-1.365,2.091-2.047,4.372-2.047,6.845,0,1.963,.489,3.498,1.471,4.606,.98,1.11,2.196,1.663,3.647,1.663,1.28,0,2.537-.256,3.774-.767,1.236-.512,2.409-1.152,3.518-1.92,1.108-.767,2.176-1.576,3.2-2.43,1.023-.852,1.919-1.62,2.686-2.303l.768,.511c-.853,.854-1.835,1.772-2.943,2.751-1.109,.982-2.302,1.899-3.582,2.751-1.28,.854-2.645,1.558-4.094,2.111-1.452,.556-2.943,.832-4.479,.832-2.731,0-4.926-.832-6.589-2.496-1.663-1.663-2.495-3.986-2.495-6.972,0-2.047,.468-3.881,1.408-5.502l-.257-.256c-3.498,2.389-7.337,5.523-11.514,9.404-4.181,3.882-8.617,8.466-13.307,13.754-1.707,1.877-3.477,4.351-5.31,7.421-1.835,3.071-3.434,6.228-4.798,9.468h-8.317c4.607-7.334,9.213-14.628,13.819-21.879,4.606-7.249,9.34-14.628,14.202-22.134h7.8049Z" />
    <path class="cls-1" d="M427.975,47.084h8.316c-3.156,4.436-6.186,8.744-9.084,12.922-2.9,4.181-5.481,8.042-7.74,11.58-2.262,3.54-4.075,6.653-5.438,9.34-1.365,2.687-2.047,4.798-2.047,6.333,0,2.219,1.151,3.327,3.454,3.327,1.792,0,4.072-.874,6.847-2.623,2.77-1.747,5.776-4.158,9.019-7.229,3.241-3.071,6.568-6.653,9.981-10.748,3.409-4.094,6.652-8.444,9.724-13.05l.767,.256c-2.302,3.498-5.012,7.273-8.124,11.323-3.115,4.053-6.378,7.827-9.788,11.324-3.412,3.498-6.825,6.419-10.236,8.764-3.412,2.347-6.611,3.518-9.596,3.518-2.475,0-4.286-.62-5.438-1.855-1.151-1.236-1.727-2.707-1.727-4.415,0-1.192,.19-2.366,.575-3.518,.384-1.151,.787-2.322,1.215-3.518l-.256-.128c-1.109,1.195-2.494,2.58-4.159,4.158-1.662,1.58-3.453,3.051-5.373,4.414-1.919,1.366-3.902,2.517-5.95,3.455-2.047,.937-4.01,1.407-5.885,1.407-3.157,0-5.374-.981-6.653-2.942-1.28-1.961-1.92-4.179-1.92-6.654,0-3.496,1.108-7.357,3.327-11.579,2.217-4.222,5.032-8.188,8.444-11.899,3.411-3.711,7.122-6.801,11.132-9.277,4.008-2.472,7.804-3.71,11.387-3.71,1.705,0,3.199,.237,4.479,.704,1.279,.47,2.346,1.11,3.198,1.919,.852,.812,1.514,1.727,1.983,2.751,.468,1.023,.832,2.091,1.087,3.199h.256l4.2229-7.549Zm-41.839,35.825c0,1.963,.404,3.477,1.216,4.542,.809,1.068,1.939,1.6,3.39,1.6,1.45,0,3.155-.532,5.118-1.6,1.962-1.065,4.008-2.495,6.141-4.286,2.132-1.791,4.242-3.859,6.334-6.205,2.089-2.345,3.944-4.84,5.565-7.486,1.62-2.643,2.942-5.329,3.967-8.06,1.023-2.729,1.535-5.33,1.535-7.805,0-1.961-.557-3.454-1.663-4.478-1.109-1.023-2.476-1.535-4.095-1.535-2.559,0-5.418,1.109-8.571,3.326-3.158,2.219-6.143,5.054-8.958,8.509-2.814,3.454-5.182,7.273-7.101,11.451-1.918,4.18-2.878,8.189-2.878,12.027" />
    <path class="cls-2" d="M427.975,47.084h8.316c-3.156,4.436-6.186,8.744-9.084,12.922-2.9,4.181-5.481,8.042-7.74,11.58-2.262,3.54-4.075,6.653-5.438,9.34-1.365,2.687-2.047,4.798-2.047,6.333,0,2.219,1.151,3.327,3.454,3.327,1.792,0,4.072-.874,6.847-2.623,2.77-1.747,5.776-4.158,9.019-7.229,3.241-3.071,6.568-6.653,9.981-10.748,3.409-4.094,6.652-8.444,9.724-13.05l.767,.256c-2.302,3.498-5.012,7.273-8.124,11.323-3.115,4.053-6.378,7.827-9.788,11.324-3.412,3.498-6.825,6.419-10.236,8.764-3.412,2.347-6.611,3.518-9.596,3.518-2.475,0-4.286-.62-5.438-1.855-1.151-1.236-1.727-2.707-1.727-4.415,0-1.192,.19-2.366,.575-3.518,.384-1.151,.787-2.322,1.215-3.518l-.256-.128c-1.109,1.195-2.494,2.58-4.159,4.158-1.662,1.58-3.453,3.051-5.373,4.414-1.919,1.366-3.902,2.517-5.95,3.455-2.047,.937-4.01,1.407-5.885,1.407-3.157,0-5.374-.981-6.653-2.942-1.28-1.961-1.92-4.179-1.92-6.654,0-3.496,1.108-7.357,3.327-11.579,2.217-4.222,5.032-8.188,8.444-11.899,3.411-3.711,7.122-6.801,11.132-9.277,4.008-2.472,7.804-3.71,11.387-3.71,1.705,0,3.199,.237,4.479,.704,1.279,.47,2.346,1.11,3.198,1.919,.852,.812,1.514,1.727,1.983,2.751,.468,1.023,.832,2.091,1.087,3.199h.256l4.2229-7.549Zm-41.839,35.825c0,1.963,.404,3.477,1.216,4.542,.809,1.068,1.939,1.6,3.39,1.6,1.45,0,3.155-.532,5.118-1.6,1.962-1.065,4.008-2.495,6.141-4.286,2.132-1.791,4.242-3.859,6.334-6.205,2.089-2.345,3.944-4.84,5.565-7.486,1.62-2.643,2.942-5.329,3.967-8.06,1.023-2.729,1.535-5.33,1.535-7.805,0-1.961-.557-3.454-1.663-4.478-1.109-1.023-2.476-1.535-4.095-1.535-2.559,0-5.418,1.109-8.571,3.326-3.158,2.219-6.143,5.054-8.958,8.509-2.814,3.454-5.182,7.273-7.101,11.451-1.918,4.18-2.878,8.189-2.878,12.027Z" />
    <path class="cls-1" d="M463.414,47.084l-16.89,23.414,.257,.255c1.791-2.13,3.881-4.625,6.27-7.484,2.387-2.857,4.945-5.566,7.675-8.125,2.73-2.559,5.566-4.712,8.51-6.461,2.943-1.747,5.863-2.623,8.764-2.623,2.56,0,4.543,.704,5.95,2.111,1.407,1.408,2.11,3.221,2.11,5.438,0,1.365-.491,2.987-1.471,4.862-.981,1.877-2.196,3.883-3.646,6.013-1.452,2.134-3.028,4.309-4.733,6.526-1.708,2.219-3.285,4.33-4.734,6.333-1.451,2.006-2.668,3.839-3.646,5.502-.982,1.663-1.472,3.051-1.472,4.158,0,2.389,1.193,3.582,3.583,3.582,2.729,0,5.629-.915,8.699-2.75,3.072-1.834,6.738-4.926,11.004-9.276,1.705-1.705,3.433-3.583,5.183-5.63,1.746-2.048,3.432-4.073,5.054-6.077,1.619-2.004,3.091-3.903,4.414-5.694,1.321-1.791,2.366-3.283,3.135-4.478l.896,.511c-1.708,2.56-3.903,5.61-6.589,9.148-2.688,3.541-5.609,7.018-8.765,10.428-1.878,2.047-3.797,4.011-5.758,5.886-1.964,1.877-3.925,3.518-5.885,4.926-1.964,1.407-3.903,2.517-5.822,3.326-1.92,.81-3.82,1.216-5.695,1.216-2.474,0-4.521-.683-6.14-2.047-1.622-1.364-2.431-3.241-2.431-5.63,0-2.559,1.022-5.352,3.07-8.381,2.047-3.026,4.306-6.077,6.78-9.147,2.474-3.071,4.734-6.014,6.782-8.829,2.047-2.815,3.07-5.288,3.07-7.42,0-1.024-.342-1.792-1.023-2.304-.685-.511-1.579-.768-2.687-.768-2.134,0-4.522,.79-7.166,2.367-2.645,1.58-5.354,3.669-8.124,6.269-2.772,2.604-5.546,5.502-8.316,8.701-2.772,3.199-5.354,6.398-7.74,9.596-2.39,3.199-4.522,6.269-6.398,9.213-1.877,2.942-3.284,5.395-4.222,7.356h-7.933c2.219-3.752,4.586-7.569,7.101-11.45s5.01-7.72,7.485-11.516c2.473-3.795,4.84-7.463,7.1-11.004,2.26-3.538,4.288-6.758,6.079-9.66l8.315-.383Z" />
    <path class="cls-2" d="M463.414,47.084l-16.89,23.414,.257,.255c1.791-2.13,3.881-4.625,6.27-7.484,2.387-2.857,4.945-5.566,7.675-8.125,2.73-2.559,5.566-4.712,8.51-6.461,2.943-1.747,5.863-2.623,8.764-2.623,2.56,0,4.543,.704,5.95,2.111,1.407,1.408,2.11,3.221,2.11,5.438,0,1.365-.491,2.987-1.471,4.862-.981,1.877-2.196,3.883-3.646,6.013-1.452,2.134-3.028,4.309-4.733,6.526-1.708,2.219-3.285,4.33-4.734,6.333-1.451,2.006-2.668,3.839-3.646,5.502-.982,1.663-1.472,3.051-1.472,4.158,0,2.389,1.193,3.582,3.583,3.582,2.729,0,5.629-.915,8.699-2.75,3.072-1.834,6.738-4.926,11.004-9.276,1.705-1.705,3.433-3.583,5.183-5.63,1.746-2.048,3.432-4.073,5.054-6.077,1.619-2.004,3.091-3.903,4.414-5.694,1.321-1.791,2.366-3.283,3.135-4.478l.896,.511c-1.708,2.56-3.903,5.61-6.589,9.148-2.688,3.541-5.609,7.018-8.765,10.428-1.878,2.047-3.797,4.011-5.758,5.886-1.964,1.877-3.925,3.518-5.885,4.926-1.964,1.407-3.903,2.517-5.822,3.326-1.92,.81-3.82,1.216-5.695,1.216-2.474,0-4.521-.683-6.14-2.047-1.622-1.364-2.431-3.241-2.431-5.63,0-2.559,1.022-5.352,3.07-8.381,2.047-3.026,4.306-6.077,6.78-9.147,2.474-3.071,4.734-6.014,6.782-8.829,2.047-2.815,3.07-5.288,3.07-7.42,0-1.024-.342-1.792-1.023-2.304-.685-.511-1.579-.768-2.687-.768-2.134,0-4.522,.79-7.166,2.367-2.645,1.58-5.354,3.669-8.124,6.269-2.772,2.604-5.546,5.502-8.316,8.701-2.772,3.199-5.354,6.398-7.74,9.596-2.39,3.199-4.522,6.269-6.398,9.213-1.877,2.942-3.284,5.395-4.222,7.356h-7.933c2.219-3.752,4.586-7.569,7.101-11.45s5.01-7.72,7.485-11.516c2.473-3.795,4.84-7.463,7.1-11.004,2.26-3.538,4.288-6.758,6.079-9.66l8.315-.383Z" />
    <path class="cls-1" d="M529.944,32.243l-10.107,14.842h16.888l-.767,1.535h-17.146c-3.413,5.546-6.461,10.343-9.148,14.394-2.686,4.052-4.948,7.548-6.78,10.492-1.836,2.942-3.222,5.417-4.158,7.421-.939,2.004-1.408,3.774-1.408,5.309,0,1.622,.554,2.751,1.663,3.39,1.107,.64,2.387,.96,3.839,.96,3.07,0,6.461-1.171,10.172-3.518,3.711-2.345,7.399-5.224,11.066-8.637,3.668-3.41,7.166-7.037,10.492-10.875,3.327-3.838,6.143-7.293,8.444-10.364l.769,.512c-2.9,3.668-6.078,7.529-9.532,11.58-3.455,4.052-7.018,7.762-10.684,11.131-3.669,3.37-7.357,6.163-11.067,8.38-3.711,2.219-7.229,3.326-10.557,3.326-2.644,0-4.926-.811-6.845-2.43-1.918-1.62-2.878-3.881-2.878-6.781,0-1.961,.553-4.159,1.662-6.59,1.108-2.431,2.56-5.054,4.351-7.869,1.792-2.814,3.817-5.885,6.077-9.212,2.26-3.327,4.585-6.865,6.974-10.619h-6.909l.769-1.535h7.165l9.979-14.842h7.6761Z" />
    <path class="cls-2" d="M529.944,32.243l-10.107,14.842h16.888l-.767,1.535h-17.146c-3.413,5.546-6.461,10.343-9.148,14.394-2.686,4.052-4.948,7.548-6.78,10.492-1.836,2.942-3.222,5.417-4.158,7.421-.939,2.004-1.408,3.774-1.408,5.309,0,1.622,.554,2.751,1.663,3.39,1.107,.64,2.387,.96,3.839,.96,3.07,0,6.461-1.171,10.172-3.518,3.711-2.345,7.399-5.224,11.066-8.637,3.668-3.41,7.166-7.037,10.492-10.875,3.327-3.838,6.143-7.293,8.444-10.364l.769,.512c-2.9,3.668-6.078,7.529-9.532,11.58-3.455,4.052-7.018,7.762-10.684,11.131-3.669,3.37-7.357,6.163-11.067,8.38-3.711,2.219-7.229,3.326-10.557,3.326-2.644,0-4.926-.811-6.845-2.43-1.918-1.62-2.878-3.881-2.878-6.781,0-1.961,.553-4.159,1.662-6.59,1.108-2.431,2.56-5.054,4.351-7.869,1.792-2.814,3.817-5.885,6.077-9.212,2.26-3.327,4.585-6.865,6.974-10.619h-6.909l.769-1.535h7.165l9.979-14.842h7.6761Z" />
    <path class="cls-1" d="M171.981,126.961c-6.094,1.096-11.911,3.047-17.455,5.849-5.546,2.804-10.573,6.337-15.08,10.601,2.802,2.681,5.178,5.729,7.129,9.139,1.948,3.413,3.533,6.977,4.752,10.693,1.217,3.718,2.102,7.525,2.651,11.423,.548,3.902,.822,7.677,.822,11.333,0,10.967-2.376,21.174-7.128,30.616-4.752,9.444-10.998,17.609-18.736,24.492-7.739,6.886-16.481,12.309-26.228,16.268-9.751,3.959-19.621,5.94-29.611,5.94-3.778,0-7.128-.091-10.053-.274-2.925-.183-5.575-.428-7.951-.73-2.376-.305-4.57-.671-6.58-1.097-2.011-.429-4.053-.883-6.124-1.37-1.707,.245-3.32,.519-4.843,.821-1.525,.304-3.047,.577-4.569,.822-1.525,.243-3.231,.426-5.118,.548-1.89,.121-4.053,.185-6.489,.185-2.925,0-5.181-.275-6.763-.824-1.585-.547-2.376-1.552-2.376-3.015,0-1.462,.639-2.469,1.919-3.017,1.279-.548,2.953-.821,5.027-.821,1.461,0,2.893,.092,4.295,.273,1.399,.183,2.984,.457,4.752,.823,1.765,.365,3.747,.762,5.94,1.188,2.194,.429,4.873,.886,8.043,1.37,6.215-1.582,11.909-4.811,17.09-9.686,5.178-4.873,10.113-10.662,14.805-17.366,4.69-6.699,9.291-14.073,13.8-22.116,4.507-8.042,9.168-16.053,13.983-24.035,4.813-7.98,9.93-15.628,15.354-22.939,5.42-7.312,11.361-13.646,17.821-19.01-5.118-4.263-10.816-7.28-17.091-9.048-6.277-1.764-12.034-2.65-17.272-2.65-9.871,0-19.466,1.708-28.788,5.118-9.322,3.413-17.61,8.165-24.858,14.257-7.251,6.095-13.069,13.283-17.456,21.568-4.387,8.289-6.58,17.304-6.58,27.052,0,3.901,.365,7.586,1.097,11.058,.731,3.473,2.01,6.552,3.838,9.23,1.828,2.682,4.204,4.784,7.129,6.307,2.924,1.524,6.579,2.284,10.967,2.284,5.483,0,10.509-1.307,15.079-3.93,4.569-2.619,8.468-6.151,11.698-10.601,3.227-4.446,5.757-9.625,7.585-15.536,1.828-5.909,2.742-12.092,2.742-18.553v-6.214h2.193v5.3c0,7.558-1.036,14.532-3.107,20.929-2.073,6.397-4.997,11.943-8.773,16.633-3.779,4.692-8.225,8.348-13.344,10.967-5.117,2.622-10.723,3.929-16.815,3.929-4.633,0-8.682-.881-12.155-2.65-3.473-1.765-6.337-4.112-8.591-7.037-2.256-2.924-3.961-6.335-5.118-10.235-1.159-3.899-1.737-7.98-1.737-12.247,0-7.554,2.163-15.414,6.49-23.578,4.323-8.163,10.264-15.689,17.821-22.574,7.554-6.883,16.478-12.549,26.777-16.998,10.296-4.447,21.414-6.672,33.358-6.672,7.066,0,13.708,1.068,19.923,3.198,6.214,2.134,11.88,5.15,16.999,9.048,5.117-3.898,10.538-7.279,16.267-10.144,5.726-2.862,11.818-4.78,18.278-5.758l.365,1.463Zm-101.991,134.161c8.528,0,16.327-1.278,23.396-3.839,7.065-2.558,13.434-6,19.1-10.327,5.666-4.322,10.57-9.411,14.714-15.262,4.142-5.849,7.614-12.032,10.419-18.552,2.801-6.518,4.903-13.221,6.306-20.106,1.399-6.883,2.102-13.555,2.102-20.015,0-4.872-.672-9.778-2.011-14.714-1.342-4.935-3.536-9.047-6.58-12.337-4.998,5.606-9.596,11.944-13.8,19.009-4.204,7.068-8.38,14.38-12.521,21.934-4.144,7.557-8.407,15.051-12.794,22.481-4.387,7.435-9.139,14.38-14.257,20.838-5.118,6.46-10.815,12.217-17.091,17.273-6.277,5.057-13.433,8.863-21.476,11.424v.365c3.776,.73,7.585,1.217,11.424,1.463,3.838,.242,8.194,.365,13.069,.365" />
    <path class="cls-2" d="M171.981,126.961c-6.094,1.096-11.911,3.047-17.455,5.849-5.546,2.804-10.573,6.337-15.08,10.601,2.802,2.681,5.178,5.729,7.129,9.139,1.948,3.413,3.533,6.977,4.752,10.693,1.217,3.718,2.102,7.525,2.651,11.423,.548,3.902,.822,7.677,.822,11.333,0,10.967-2.376,21.174-7.128,30.616-4.752,9.444-10.998,17.609-18.736,24.492-7.739,6.886-16.481,12.309-26.228,16.268-9.751,3.959-19.621,5.94-29.611,5.94-3.778,0-7.128-.091-10.053-.274-2.925-.183-5.575-.428-7.951-.73-2.376-.305-4.57-.671-6.58-1.097-2.011-.429-4.053-.883-6.124-1.37-1.707,.245-3.32,.519-4.843,.821-1.525,.304-3.047,.577-4.569,.822-1.525,.243-3.231,.426-5.118,.548-1.89,.121-4.053,.185-6.489,.185-2.925,0-5.181-.275-6.763-.824-1.585-.547-2.376-1.552-2.376-3.015,0-1.462,.639-2.469,1.919-3.017,1.279-.548,2.953-.821,5.027-.821,1.461,0,2.893,.092,4.295,.273,1.399,.183,2.984,.457,4.752,.823,1.765,.365,3.747,.762,5.94,1.188,2.194,.429,4.873,.886,8.043,1.37,6.215-1.582,11.909-4.811,17.09-9.686,5.178-4.873,10.113-10.662,14.805-17.366,4.69-6.699,9.291-14.073,13.8-22.116,4.507-8.042,9.168-16.053,13.983-24.035,4.813-7.98,9.93-15.628,15.354-22.939,5.42-7.312,11.361-13.646,17.821-19.01-5.118-4.263-10.816-7.28-17.091-9.048-6.277-1.764-12.034-2.65-17.272-2.65-9.871,0-19.466,1.708-28.788,5.118-9.322,3.413-17.61,8.165-24.858,14.257-7.251,6.095-13.069,13.283-17.456,21.568-4.387,8.289-6.58,17.304-6.58,27.052,0,3.901,.365,7.586,1.097,11.058,.731,3.473,2.01,6.552,3.838,9.23,1.828,2.682,4.204,4.784,7.129,6.307,2.924,1.524,6.579,2.284,10.967,2.284,5.483,0,10.509-1.307,15.079-3.93,4.569-2.619,8.468-6.151,11.698-10.601,3.227-4.446,5.757-9.625,7.585-15.536,1.828-5.909,2.742-12.092,2.742-18.553v-6.214h2.193v5.3c0,7.558-1.036,14.532-3.107,20.929-2.073,6.397-4.997,11.943-8.773,16.633-3.779,4.692-8.225,8.348-13.344,10.967-5.117,2.622-10.723,3.929-16.815,3.929-4.633,0-8.682-.881-12.155-2.65-3.473-1.765-6.337-4.112-8.591-7.037-2.256-2.924-3.961-6.335-5.118-10.235-1.159-3.899-1.737-7.98-1.737-12.247,0-7.554,2.163-15.414,6.49-23.578,4.323-8.163,10.264-15.689,17.821-22.574,7.554-6.883,16.478-12.549,26.777-16.998,10.296-4.447,21.414-6.672,33.358-6.672,7.066,0,13.708,1.068,19.923,3.198,6.214,2.134,11.88,5.15,16.999,9.048,5.117-3.898,10.538-7.279,16.267-10.144,5.726-2.862,11.818-4.78,18.278-5.758l.365,1.463Zm-101.991,134.161c8.528,0,16.327-1.278,23.396-3.839,7.065-2.558,13.434-6,19.1-10.327,5.666-4.322,10.57-9.411,14.714-15.262,4.142-5.849,7.614-12.032,10.419-18.552,2.801-6.518,4.903-13.221,6.306-20.106,1.399-6.883,2.102-13.555,2.102-20.015,0-4.872-.672-9.778-2.011-14.714-1.342-4.935-3.536-9.047-6.58-12.337-4.998,5.606-9.596,11.944-13.8,19.009-4.204,7.068-8.38,14.38-12.521,21.934-4.144,7.557-8.407,15.051-12.794,22.481-4.387,7.435-9.139,14.38-14.257,20.838-5.118,6.46-10.815,12.217-17.091,17.273-6.277,5.057-13.433,8.863-21.476,11.424v.365c3.776,.73,7.585,1.217,11.424,1.463,3.838,.242,8.194,.365,13.069,.365Z" />
    <path class="cls-1" d="M237.233,213.051c-1.828,3.047-4.112,6.397-6.854,10.052-2.742,3.656-5.85,7.283-9.322,10.876-3.473,3.595-7.191,7.069-11.15,10.419-3.961,3.352-8.074,6.338-12.337,8.956-4.267,2.622-8.563,4.691-12.886,6.215-4.327,1.521-8.563,2.284-12.704,2.284-5.118,0-9.079-1.312-11.88-3.931-2.805-2.619-4.205-6.364-4.205-11.239,0-5.362,1.614-10.997,4.844-16.908,3.227-5.909,7.34-11.361,12.338-16.359,4.995-4.994,10.478-9.138,16.45-12.429,5.969-3.29,11.698-4.935,17.181-4.935,3.045,0,5.421,.64,7.128,1.919,1.706,1.28,2.559,3.139,2.559,5.575,0,2.924-1.585,5.757-4.752,8.499-3.169,2.742-7.037,5.241-11.606,7.494-4.569,2.257-9.476,4.267-14.714,6.032-5.241,1.768-9.87,3.079-13.891,3.93-1.343,2.439-2.439,5.181-3.291,8.227-.853,3.047-1.279,6.094-1.279,9.138,0,1.462,.152,2.896,.457,4.295,.303,1.403,.791,2.682,1.462,3.839,.669,1.159,1.582,2.103,2.742,2.833,1.157,.731,2.588,1.097,4.295,1.097,4.022,0,8.742-1.308,14.165-3.93,5.422-2.619,10.936-6.123,16.543-10.51,5.603-4.387,10.967-9.382,16.084-14.988,5.118-5.603,9.505-11.392,13.161-17.365l1.462,.914Zm-29.611-9.688c0-1.705-.457-2.984-1.371-3.838-.914-.851-2.042-1.28-3.381-1.28-2.559,0-5.332,1.006-8.317,3.016-2.987,2.011-5.94,4.51-8.865,7.494-2.924,2.987-5.574,6.186-7.95,9.596-2.377,3.413-4.176,6.461-5.392,9.139,2.678-.485,6.031-1.43,10.052-2.833,4.021-1.399,7.889-3.135,11.607-5.209,3.716-2.07,6.914-4.479,9.596-7.22,2.679-2.742,4.021-5.695,4.021-8.865" />
    <path class="cls-2" d="M237.233,213.051c-1.828,3.047-4.112,6.397-6.854,10.052-2.742,3.656-5.85,7.283-9.322,10.876-3.473,3.595-7.191,7.069-11.15,10.419-3.961,3.352-8.074,6.338-12.337,8.956-4.267,2.622-8.563,4.691-12.886,6.215-4.327,1.521-8.563,2.284-12.704,2.284-5.118,0-9.079-1.312-11.88-3.931-2.805-2.619-4.205-6.364-4.205-11.239,0-5.362,1.614-10.997,4.844-16.908,3.227-5.909,7.34-11.361,12.338-16.359,4.995-4.994,10.478-9.138,16.45-12.429,5.969-3.29,11.698-4.935,17.181-4.935,3.045,0,5.421,.64,7.128,1.919,1.706,1.28,2.559,3.139,2.559,5.575,0,2.924-1.585,5.757-4.752,8.499-3.169,2.742-7.037,5.241-11.606,7.494-4.569,2.257-9.476,4.267-14.714,6.032-5.241,1.768-9.87,3.079-13.891,3.93-1.343,2.439-2.439,5.181-3.291,8.227-.853,3.047-1.279,6.094-1.279,9.138,0,1.462,.152,2.896,.457,4.295,.303,1.403,.791,2.682,1.462,3.839,.669,1.159,1.582,2.103,2.742,2.833,1.157,.731,2.588,1.097,4.295,1.097,4.022,0,8.742-1.308,14.165-3.93,5.422-2.619,10.936-6.123,16.543-10.51,5.603-4.387,10.967-9.382,16.084-14.988,5.118-5.603,9.505-11.392,13.161-17.365l1.462,.914Zm-29.611-9.688c0-1.705-.457-2.984-1.371-3.838-.914-.851-2.042-1.28-3.381-1.28-2.559,0-5.332,1.006-8.317,3.016-2.987,2.011-5.94,4.51-8.865,7.494-2.924,2.987-5.574,6.186-7.95,9.596-2.377,3.413-4.176,6.461-5.392,9.139,2.678-.485,6.031-1.43,10.052-2.833,4.021-1.399,7.889-3.135,11.607-5.209,3.716-2.07,6.914-4.479,9.596-7.22,2.679-2.742,4.021-5.695,4.021-8.865Z" />
    <path class="cls-1" d="M265.197,213.416c2.802,0,4.903,.64,6.306,1.919,1.399,1.28,2.102,2.956,2.102,5.026,0,1.828-.549,3.382-1.646,4.661-1.096,1.28-2.558,1.92-4.386,1.92-.611,0-1.311-.151-2.102-.457-.794-.302-1.371-.76-1.737-1.371-1.342,1.462-2.225,3.23-2.649,5.301-.43,2.073-.64,4.267-.64,6.58,0,3.17,.759,6.215,2.284,9.14,1.522,2.925,3.716,5.482,6.581,7.677,2.861,2.192,6.305,3.96,10.326,5.3,4.022,1.339,8.468,2.011,13.343,2.011,8.286,0,15.291-1.888,21.02-5.666,5.727-3.774,10.356-8.619,13.891-14.53,3.534-5.909,6.092-12.458,7.678-19.649,1.582-7.189,2.435-14.134,2.558-20.838,.12-10.844,1.188-20.591,3.199-29.245,2.011-8.65,4.872-15.993,8.591-22.025,3.715-6.031,8.345-10.692,13.891-13.982,5.543-3.29,11.91-4.936,19.101-4.936,6.457,0,11.698,1.555,15.719,4.662,4.021,3.107,6.032,7.16,6.032,12.154,0,3.902-1.371,6.827-4.113,8.774-2.742,1.951-6.002,2.925-9.779,2.925,1.34-2.071,2.345-4.081,3.016-6.033,.668-1.947,1.005-4.386,1.005-7.31,0-4.387-1.279-7.646-3.838-9.779-2.559-2.131-5.606-3.199-9.139-3.199-4.753,0-8.804,.946-12.155,2.833-3.353,1.89-6.186,4.478-8.499,7.768-2.316,3.29-4.176,7.129-5.575,11.516-1.403,4.386-2.53,9.047-3.382,13.982-.854,4.935-1.493,10.025-1.919,15.263-.428,5.24-.822,10.418-1.188,15.536-.854,12.552-3.079,22.939-6.671,31.164-3.596,8.225-8.014,14.777-13.252,19.649-5.241,4.875-11.09,8.288-17.547,10.236-6.46,1.948-13.1,2.924-19.923,2.924-5.483,0-10.51-.885-15.08-2.65-4.569-1.765-8.499-4.204-11.789-7.311-3.29-3.108-5.818-6.792-7.585-11.06-1.765-4.264-2.651-8.956-2.651-14.074,0-4.264,.977-7.797,2.925-10.601,1.948-2.803,4.507-4.205,7.677-4.205" />
    <path class="cls-2" d="M265.197,213.416c2.802,0,4.903,.64,6.306,1.919,1.399,1.28,2.102,2.956,2.102,5.026,0,1.828-.549,3.382-1.646,4.661-1.096,1.28-2.558,1.92-4.386,1.92-.611,0-1.311-.151-2.102-.457-.794-.302-1.371-.76-1.737-1.371-1.342,1.462-2.225,3.23-2.649,5.301-.43,2.073-.64,4.267-.64,6.58,0,3.17,.759,6.215,2.284,9.14,1.522,2.925,3.716,5.482,6.581,7.677,2.861,2.192,6.305,3.96,10.326,5.3,4.022,1.339,8.468,2.011,13.343,2.011,8.286,0,15.291-1.888,21.02-5.666,5.727-3.774,10.356-8.619,13.891-14.53,3.534-5.909,6.092-12.458,7.678-19.649,1.582-7.189,2.435-14.134,2.558-20.838,.12-10.844,1.188-20.591,3.199-29.245,2.011-8.65,4.872-15.993,8.591-22.025,3.715-6.031,8.345-10.692,13.891-13.982,5.543-3.29,11.91-4.936,19.101-4.936,6.457,0,11.698,1.555,15.719,4.662,4.021,3.107,6.032,7.16,6.032,12.154,0,3.902-1.371,6.827-4.113,8.774-2.742,1.951-6.002,2.925-9.779,2.925,1.34-2.071,2.345-4.081,3.016-6.033,.668-1.947,1.005-4.386,1.005-7.31,0-4.387-1.279-7.646-3.838-9.779-2.559-2.131-5.606-3.199-9.139-3.199-4.753,0-8.804,.946-12.155,2.833-3.353,1.89-6.186,4.478-8.499,7.768-2.316,3.29-4.176,7.129-5.575,11.516-1.403,4.386-2.53,9.047-3.382,13.982-.854,4.935-1.493,10.025-1.919,15.263-.428,5.24-.822,10.418-1.188,15.536-.854,12.552-3.079,22.939-6.671,31.164-3.596,8.225-8.014,14.777-13.252,19.649-5.241,4.875-11.09,8.288-17.547,10.236-6.46,1.948-13.1,2.924-19.923,2.924-5.483,0-10.51-.885-15.08-2.65-4.569-1.765-8.499-4.204-11.789-7.311-3.29-3.108-5.818-6.792-7.585-11.06-1.765-4.264-2.651-8.956-2.651-14.074,0-4.264,.977-7.797,2.925-10.601,1.948-2.803,4.507-4.205,7.677-4.205Z" />
    <path class="cls-1" d="M426.409,162.055c-6.459,9.869-13.159,19.557-20.105,29.062-6.945,9.504-13.588,19.254-19.923,29.244l.366,.366c1.828-2.436,3.958-5.087,6.397-7.951,2.436-2.861,5.056-5.543,7.86-8.042,2.802-2.496,5.849-4.57,9.139-6.215s6.64-2.467,10.053-2.467c3.898,0,7.188,1.036,9.87,3.107,2.678,2.073,4.021,5.667,4.021,10.784,0,3.17-.429,6.186-1.279,9.048-.854,2.864-1.982,5.546-3.382,8.042-1.402,2.499-2.987,4.815-4.752,6.945-1.768,2.134-3.564,4.113-5.393,5.941l.366,.365c8.773-1.582,16.724-4.569,23.853-8.957,7.128-4.386,14.226-10.967,21.293-19.74l1.464,.732c-5.483,6.702-10.602,11.943-15.354,15.718-4.752,3.779-9.139,6.612-13.16,8.5-4.021,1.891-7.739,3.198-11.149,3.93-3.413,.73-6.643,1.462-9.688,2.192-2.073,1.585-4.418,3.474-7.038,5.666-2.621,2.193-5.391,4.297-8.315,6.308-2.925,2.01-5.972,3.717-9.139,5.117-3.17,1.398-6.397,2.101-9.687,2.101-1.708,0-3.382-.457-5.027-1.37-1.645-.914-2.467-2.405-2.467-4.478,0-2.56,1.248-4.69,3.746-6.398,2.496-1.704,5.544-3.075,9.14-4.112,3.592-1.033,7.339-1.826,11.241-2.376,3.898-.549,7.188-.941,9.87-1.188,1.582-1.829,3.198-4.05,4.844-6.672,1.645-2.619,3.136-5.392,4.478-8.316,1.34-2.925,2.437-5.941,3.291-9.048,.851-3.108,1.279-6,1.279-8.682,0-4.264-.611-7.037-1.828-8.317-1.219-1.279-2.682-1.919-4.387-1.919-2.805,0-5.758,1.006-8.864,3.016-3.108,2.01-6.246,4.632-9.415,7.86-3.17,3.23-6.305,6.826-9.413,10.784-3.107,3.961-6.003,7.891-8.681,11.789-2.683,3.901-5.119,7.525-7.312,10.876-2.193,3.353-4.021,6.003-5.483,7.951-1.097,1.585-2.682,3.9-4.753,6.944-2.07,3.045-4.386,6.519-6.945,10.419-2.559,3.898-5.27,8.103-8.134,12.612-2.862,4.506-5.695,9.047-8.5,13.617-2.801,4.569-5.483,8.984-8.041,13.252-2.559,4.262-4.813,8.101-6.764,11.514h-11.332c16.45-26.441,33.237-52.672,50.356-78.686,17.118-26.015,34.026-52.304,50.722-78.87h12.0611v.002Zm-41.124,97.605c1.827,0,3.867-.607,6.123-1.827,2.253-1.218,4.446-2.68,6.58-4.388,2.129-1.705,4.049-3.41,5.757-5.118,1.705-1.704,2.925-2.983,3.655-3.838l-.366-.365c-2.072,.365-4.66,.763-7.768,1.188-3.107,.428-6.095,1.005-8.956,1.737-2.864,.73-5.301,1.735-7.311,3.015-2.011,1.281-3.016,3.016-3.016,5.21,0,1.462,.549,2.56,1.646,3.289,1.097,.731,2.312,1.097,3.656,1.097" />
    <path class="cls-2" d="M426.409,162.055c-6.459,9.869-13.159,19.557-20.105,29.062-6.945,9.504-13.588,19.254-19.923,29.244l.366,.366c1.828-2.436,3.958-5.087,6.397-7.951,2.436-2.861,5.056-5.543,7.86-8.042,2.802-2.496,5.849-4.57,9.139-6.215s6.64-2.467,10.053-2.467c3.898,0,7.188,1.036,9.87,3.107,2.678,2.073,4.021,5.667,4.021,10.784,0,3.17-.429,6.186-1.279,9.048-.854,2.864-1.982,5.546-3.382,8.042-1.402,2.499-2.987,4.815-4.752,6.945-1.768,2.134-3.564,4.113-5.393,5.941l.366,.365c8.773-1.582,16.724-4.569,23.853-8.957,7.128-4.386,14.226-10.967,21.293-19.74l1.464,.732c-5.483,6.702-10.602,11.943-15.354,15.718-4.752,3.779-9.139,6.612-13.16,8.5-4.021,1.891-7.739,3.198-11.149,3.93-3.413,.73-6.643,1.462-9.688,2.192-2.073,1.585-4.418,3.474-7.038,5.666-2.621,2.193-5.391,4.297-8.315,6.308-2.925,2.01-5.972,3.717-9.139,5.117-3.17,1.398-6.397,2.101-9.687,2.101-1.708,0-3.382-.457-5.027-1.37-1.645-.914-2.467-2.405-2.467-4.478,0-2.56,1.248-4.69,3.746-6.398,2.496-1.704,5.544-3.075,9.14-4.112,3.592-1.033,7.339-1.826,11.241-2.376,3.898-.549,7.188-.941,9.87-1.188,1.582-1.829,3.198-4.05,4.844-6.672,1.645-2.619,3.136-5.392,4.478-8.316,1.34-2.925,2.437-5.941,3.291-9.048,.851-3.108,1.279-6,1.279-8.682,0-4.264-.611-7.037-1.828-8.317-1.219-1.279-2.682-1.919-4.387-1.919-2.805,0-5.758,1.006-8.864,3.016-3.108,2.01-6.246,4.632-9.415,7.86-3.17,3.23-6.305,6.826-9.413,10.784-3.107,3.961-6.003,7.891-8.681,11.789-2.683,3.901-5.119,7.525-7.312,10.876-2.193,3.353-4.021,6.003-5.483,7.951-1.097,1.585-2.682,3.9-4.753,6.944-2.07,3.045-4.386,6.519-6.945,10.419-2.559,3.898-5.27,8.103-8.134,12.612-2.862,4.506-5.695,9.047-8.5,13.617-2.801,4.569-5.483,8.984-8.041,13.252-2.559,4.262-4.813,8.101-6.764,11.514h-11.332c16.45-26.441,33.237-52.672,50.356-78.686,17.118-26.015,34.026-52.304,50.722-78.87h12.0611v.002Zm-41.124,97.605c1.827,0,3.867-.607,6.123-1.827,2.253-1.218,4.446-2.68,6.58-4.388,2.129-1.705,4.049-3.41,5.757-5.118,1.705-1.704,2.925-2.983,3.655-3.838l-.366-.365c-2.072,.365-4.66,.763-7.768,1.188-3.107,.428-6.095,1.005-8.956,1.737-2.864,.73-5.301,1.735-7.311,3.015-2.011,1.281-3.016,3.016-3.016,5.21,0,1.462,.549,2.56,1.646,3.289,1.097,.731,2.312,1.097,3.656,1.097Z" />
    <path class="cls-1" d="M512.863,197.514h11.881c-4.51,6.337-8.837,12.492-12.978,18.461-4.144,5.972-7.831,11.486-11.059,16.541-3.229,5.059-5.82,9.505-7.769,13.344-1.95,3.839-2.924,6.854-2.924,9.048,0,3.17,1.645,4.753,4.936,4.753,2.559,0,5.816-1.248,9.777-3.748,3.959-2.496,8.254-5.94,12.886-10.327,4.63-4.386,9.383-9.505,14.259-15.353,4.871-5.85,9.504-12.064,13.891-18.644l1.097,.365c-3.29,4.998-7.159,10.39-11.606,16.177-4.449,5.789-9.11,11.18-13.983,16.175-4.875,4.998-9.75,9.171-14.622,12.522-4.875,3.352-9.444,5.024-13.709,5.024-3.535,0-6.123-.885-7.768-2.649-1.645-1.766-2.468-3.866-2.468-6.307,0-1.705,.273-3.381,.823-5.025,.546-1.646,1.124-3.319,1.736-5.027l-.366-.182c-1.585,1.708-3.564,3.686-5.941,5.939-2.375,2.256-4.934,4.359-7.676,6.307-2.741,1.95-5.575,3.596-8.498,4.935-2.926,1.339-5.73,2.01-8.409,2.01-4.51,0-7.677-1.401-9.505-4.203s-2.741-5.969-2.741-9.505c0-4.995,1.582-10.51,4.752-16.541,3.167-6.033,7.188-11.699,12.063-16.999,4.872-5.301,10.172-9.716,15.902-13.251,5.727-3.534,11.149-5.301,16.268-5.301,2.436,0,4.569,.337,6.397,1.005,1.827,.671,3.351,1.585,4.569,2.741,1.217,1.16,2.162,2.468,2.832,3.93,.669,1.463,1.189,2.987,1.555,4.57h.365l6.033-10.785Zm-59.769,51.179c0,2.806,.576,4.967,1.736,6.488,1.156,1.525,2.77,2.285,4.844,2.285,2.07,0,4.506-.76,7.311-2.285,2.803-1.521,5.727-3.563,8.774-6.123,3.044-2.558,6.061-5.512,9.048-8.865,2.984-3.351,5.635-6.914,7.95-10.691,2.313-3.776,4.204-7.615,5.666-11.516,1.462-3.898,2.193-7.614,2.193-11.149,0-2.802-.794-4.935-2.377-6.398-1.582-1.462-3.534-2.193-5.848-2.193-3.656,0-7.74,1.585-12.246,4.752-4.51,3.17-8.774,7.22-12.796,12.155-4.02,4.935-7.402,10.39-10.143,16.359-2.741,5.971-4.112,11.698-4.112,17.181" />
    <path class="cls-2" d="M512.863,197.514h11.881c-4.51,6.337-8.837,12.492-12.978,18.461-4.144,5.972-7.831,11.486-11.059,16.541-3.229,5.059-5.82,9.505-7.769,13.344-1.95,3.839-2.924,6.854-2.924,9.048,0,3.17,1.645,4.753,4.936,4.753,2.559,0,5.816-1.248,9.777-3.748,3.959-2.496,8.254-5.94,12.886-10.327,4.63-4.386,9.383-9.505,14.259-15.353,4.871-5.85,9.504-12.064,13.891-18.644l1.097,.365c-3.29,4.998-7.159,10.39-11.606,16.177-4.449,5.789-9.11,11.18-13.983,16.175-4.875,4.998-9.75,9.171-14.622,12.522-4.875,3.352-9.444,5.024-13.709,5.024-3.535,0-6.123-.885-7.768-2.649-1.645-1.766-2.468-3.866-2.468-6.307,0-1.705,.273-3.381,.823-5.025,.546-1.646,1.124-3.319,1.736-5.027l-.366-.182c-1.585,1.708-3.564,3.686-5.941,5.939-2.375,2.256-4.934,4.359-7.676,6.307-2.741,1.95-5.575,3.596-8.498,4.935-2.926,1.339-5.73,2.01-8.409,2.01-4.51,0-7.677-1.401-9.505-4.203s-2.741-5.969-2.741-9.505c0-4.995,1.582-10.51,4.752-16.541,3.167-6.033,7.188-11.699,12.063-16.999,4.872-5.301,10.172-9.716,15.902-13.251,5.727-3.534,11.149-5.301,16.268-5.301,2.436,0,4.569,.337,6.397,1.005,1.827,.671,3.351,1.585,4.569,2.741,1.217,1.16,2.162,2.468,2.832,3.93,.669,1.463,1.189,2.987,1.555,4.57h.365l6.033-10.785Zm-59.769,51.179c0,2.806,.576,4.967,1.736,6.488,1.156,1.525,2.77,2.285,4.844,2.285,2.07,0,4.506-.76,7.311-2.285,2.803-1.521,5.727-3.563,8.774-6.123,3.044-2.558,6.061-5.512,9.048-8.865,2.984-3.351,5.635-6.914,7.95-10.691,2.313-3.776,4.204-7.615,5.666-11.516,1.462-3.898,2.193-7.614,2.193-11.149,0-2.802-.794-4.935-2.377-6.398-1.582-1.462-3.534-2.193-5.848-2.193-3.656,0-7.74,1.585-12.246,4.752-4.51,3.17-8.774,7.22-12.796,12.155-4.02,4.935-7.402,10.39-10.143,16.359-2.741,5.971-4.112,11.698-4.112,17.181Z" />
    <path class="cls-1" d="M563.489,197.514l-24.126,33.449,.365,.365c2.56-3.044,5.544-6.608,8.957-10.692,3.409-4.081,7.065-7.951,10.967-11.607,3.897-3.656,7.95-6.731,12.154-9.23,4.204-2.496,8.376-3.747,12.521-3.747,3.654,0,6.488,1.005,8.498,3.016,2.011,2.01,3.017,4.601,3.017,7.768,0,1.95-.703,4.266-2.103,6.946-1.401,2.681-3.139,5.546-5.209,8.59-2.074,3.048-4.327,6.155-6.763,9.322-2.439,3.17-4.692,6.187-6.763,9.048-2.073,2.864-3.81,5.483-5.209,7.859-1.403,2.376-2.102,4.359-2.102,5.941,0,3.411,1.703,5.117,5.116,5.117,3.899,0,8.043-1.309,12.43-3.931,4.388-2.618,9.625-7.036,15.72-13.251,2.436-2.436,4.903-5.118,7.402-8.042,2.496-2.924,4.902-5.818,7.22-8.683,2.312-2.861,4.414-5.574,6.307-8.134,1.888-2.558,3.381-4.688,4.478-6.397l1.278,.731c-2.438,3.656-5.573,8.014-9.412,13.069-3.839,5.058-8.014,10.025-12.521,14.897-2.681,2.925-5.423,5.729-8.225,8.407-2.805,2.683-5.605,5.026-8.408,7.037-2.805,2.012-5.574,3.597-8.315,4.753-2.742,1.156-5.456,1.735-8.135,1.735-3.536,0-6.459-.976-8.772-2.923-2.316-1.948-3.474-4.63-3.474-8.043,0-3.656,1.462-7.646,4.387-11.972,2.926-4.324,6.152-8.683,9.687-13.069,3.534-4.387,6.764-8.591,9.689-12.612,2.924-4.021,4.386-7.553,4.386-10.601,0-1.463-.488-2.559-1.462-3.29-.978-.731-2.257-1.097-3.839-1.097-3.048,0-6.46,1.128-10.236,3.382-3.778,2.256-7.649,5.24-11.606,8.956-3.961,3.718-7.922,7.86-11.88,12.429-3.962,4.569-7.648,9.139-11.059,13.709-3.413,4.569-6.46,8.956-9.14,13.16-2.681,4.204-4.691,7.708-6.031,10.509h-11.332c3.17-5.36,6.552-10.812,10.145-16.358,3.592-5.544,7.157-11.027,10.692-16.451,3.532-5.42,6.914-10.661,10.144-15.719,3.228-5.055,6.124-9.656,8.683-13.8l11.879-.546Z" />
    <path class="cls-2" d="M563.489,197.514l-24.126,33.449,.365,.365c2.56-3.044,5.544-6.608,8.957-10.692,3.409-4.081,7.065-7.951,10.967-11.607,3.897-3.656,7.95-6.731,12.154-9.23,4.204-2.496,8.376-3.747,12.521-3.747,3.654,0,6.488,1.005,8.498,3.016,2.011,2.01,3.017,4.601,3.017,7.768,0,1.95-.703,4.266-2.103,6.946-1.401,2.681-3.139,5.546-5.209,8.59-2.074,3.048-4.327,6.155-6.763,9.322-2.439,3.17-4.692,6.187-6.763,9.048-2.073,2.864-3.81,5.483-5.209,7.859-1.403,2.376-2.102,4.359-2.102,5.941,0,3.411,1.703,5.117,5.116,5.117,3.899,0,8.043-1.309,12.43-3.931,4.388-2.618,9.625-7.036,15.72-13.251,2.436-2.436,4.903-5.118,7.402-8.042,2.496-2.924,4.902-5.818,7.22-8.683,2.312-2.861,4.414-5.574,6.307-8.134,1.888-2.558,3.381-4.688,4.478-6.397l1.278,.731c-2.438,3.656-5.573,8.014-9.412,13.069-3.839,5.058-8.014,10.025-12.521,14.897-2.681,2.925-5.423,5.729-8.225,8.407-2.805,2.683-5.605,5.026-8.408,7.037-2.805,2.012-5.574,3.597-8.315,4.753-2.742,1.156-5.456,1.735-8.135,1.735-3.536,0-6.459-.976-8.772-2.923-2.316-1.948-3.474-4.63-3.474-8.043,0-3.656,1.462-7.646,4.387-11.972,2.926-4.324,6.152-8.683,9.687-13.069,3.534-4.387,6.764-8.591,9.689-12.612,2.924-4.021,4.386-7.553,4.386-10.601,0-1.463-.488-2.559-1.462-3.29-.978-.731-2.257-1.097-3.839-1.097-3.048,0-6.46,1.128-10.236,3.382-3.778,2.256-7.649,5.24-11.606,8.956-3.961,3.718-7.922,7.86-11.88,12.429-3.962,4.569-7.648,9.139-11.059,13.709-3.413,4.569-6.46,8.956-9.14,13.16-2.681,4.204-4.691,7.708-6.031,10.509h-11.332c3.17-5.36,6.552-10.812,10.145-16.358,3.592-5.544,7.157-11.027,10.692-16.451,3.532-5.42,6.914-10.661,10.144-15.719,3.228-5.055,6.124-9.656,8.683-13.8l11.879-.546Z" />
    <path class="cls-1" d="M646.835,197.514c-4.751,6.46-9.321,12.612-13.708,18.461s-8.288,11.212-11.698,16.084c-3.412,4.875-6.124,9.112-8.134,12.704-2.01,3.595-3.017,6.428-3.017,8.5,0,1.95,.486,3.381,1.463,4.294,.975,.915,2.254,1.372,3.839,1.372,2.313,0,4.843-.732,7.585-2.194,2.741-1.462,5.544-3.349,8.407-5.667,2.863-2.312,5.668-4.871,8.409-7.676,2.742-2.801,5.3-5.575,7.676-8.316,2.377-2.742,4.447-5.27,6.216-7.586,1.765-2.313,3.075-4.142,3.929-5.483l16.085-24.493h12.612c-6.581,9.019-12.154,16.665-16.725,22.938-4.569,6.278-8.288,11.607-11.15,15.994-2.863,4.387-4.906,7.951-6.123,10.693-1.219,2.742-1.827,5.149-1.827,7.22,0,1.462,.426,2.713,1.279,3.747,.852,1.036,2.069,1.554,3.655,1.554,2.437,0,5.237-.883,8.409-2.649,3.167-1.767,6.457-4.081,9.869-6.947,3.411-2.861,6.792-6.091,10.145-9.686,3.351-3.595,6.518-7.158,9.505-10.694,2.984-3.532,5.695-6.854,8.133-9.961s4.325-5.635,5.666-7.586l1.829,.549c-1.462,2.073-3.413,4.724-5.851,7.951-2.438,3.23-5.179,6.643-8.225,10.235-3.046,3.596-6.276,7.252-9.688,10.968-3.412,3.717-6.916,7.037-10.509,9.961-3.596,2.924-7.129,5.332-10.603,7.219-3.472,1.889-6.733,2.833-9.777,2.833-3.413,0-6.123-.944-8.135-2.833-2.01-1.887-3.015-4.415-3.015-7.585,0-2.436,.393-4.78,1.188-7.037,.791-2.253,1.37-3.684,1.736-4.296l-.366-.365c-2.558,2.925-5.24,5.73-8.042,8.408-2.804,2.682-5.607,5.027-8.408,7.037-2.805,2.011-5.637,3.627-8.498,4.844-2.866,1.217-5.698,1.827-8.5,1.827-3.901,0-6.702-.884-8.409-2.65-1.704-1.765-2.558-3.865-2.558-6.306,0-3.044,.822-6.335,2.467-9.869,1.646-3.534,3.931-7.494,6.855-11.882,2.924-4.386,6.425-9.321,10.51-14.805,4.08-5.483,8.559-11.758,13.434-18.826h12.0649v-.001Z" />
    <path class="cls-2" d="M646.835,197.514c-4.751,6.46-9.321,12.612-13.708,18.461s-8.288,11.212-11.698,16.084c-3.412,4.875-6.124,9.112-8.134,12.704-2.01,3.595-3.017,6.428-3.017,8.5,0,1.95,.486,3.381,1.463,4.294,.975,.915,2.254,1.372,3.839,1.372,2.313,0,4.843-.732,7.585-2.194,2.741-1.462,5.544-3.349,8.407-5.667,2.863-2.312,5.668-4.871,8.409-7.676,2.742-2.801,5.3-5.575,7.676-8.316,2.377-2.742,4.447-5.27,6.216-7.586,1.765-2.313,3.075-4.142,3.929-5.483l16.085-24.493h12.612c-6.581,9.019-12.154,16.665-16.725,22.938-4.569,6.278-8.288,11.607-11.15,15.994-2.863,4.387-4.906,7.951-6.123,10.693-1.219,2.742-1.827,5.149-1.827,7.22,0,1.462,.426,2.713,1.279,3.747,.852,1.036,2.069,1.554,3.655,1.554,2.437,0,5.237-.883,8.409-2.649,3.167-1.767,6.457-4.081,9.869-6.947,3.411-2.861,6.792-6.091,10.145-9.686,3.351-3.595,6.518-7.158,9.505-10.694,2.984-3.532,5.695-6.854,8.133-9.961s4.325-5.635,5.666-7.586l1.829,.549c-1.462,2.073-3.413,4.724-5.851,7.951-2.438,3.23-5.179,6.643-8.225,10.235-3.046,3.596-6.276,7.252-9.688,10.968-3.412,3.717-6.916,7.037-10.509,9.961-3.596,2.924-7.129,5.332-10.603,7.219-3.472,1.889-6.733,2.833-9.777,2.833-3.413,0-6.123-.944-8.135-2.833-2.01-1.887-3.015-4.415-3.015-7.585,0-2.436,.393-4.78,1.188-7.037,.791-2.253,1.37-3.684,1.736-4.296l-.366-.365c-2.558,2.925-5.24,5.73-8.042,8.408-2.804,2.682-5.607,5.027-8.408,7.037-2.805,2.011-5.637,3.627-8.498,4.844-2.866,1.217-5.698,1.827-8.5,1.827-3.901,0-6.702-.884-8.409-2.65-1.704-1.765-2.558-3.865-2.558-6.306,0-3.044,.822-6.335,2.467-9.869,1.646-3.534,3.931-7.494,6.855-11.882,2.924-4.386,6.425-9.321,10.51-14.805,4.08-5.483,8.559-11.758,13.434-18.826h12.0649v-.001Z" />
    <path class="cls-1" d="M727.987,197.515c-6.703,9.627-12.369,17.73-16.998,24.31-4.634,6.579-8.379,12.063-11.241,16.45-2.865,4.387-4.937,7.858-6.216,10.419-1.279,2.558-1.919,4.632-1.919,6.214,0,3.17,1.279,4.753,3.839,4.753,2.437,0,5.269-.883,8.499-2.651,3.227-1.765,6.608-4.05,10.145-6.854,3.533-2.803,7.065-5.97,10.602-9.505,3.533-3.532,6.854-7.038,9.961-10.51,3.108-3.473,5.85-6.823,8.225-10.053,2.377-3.227,4.113-5.878,5.211-7.951l1.462,.914c-1.462,2.439-3.445,5.363-5.94,8.774-2.499,3.412-5.333,6.916-8.5,10.509-3.171,3.596-6.52,7.16-10.053,10.694-3.536,3.533-7.128,6.702-10.784,9.504-3.656,2.804-7.22,5.057-10.692,6.762-3.474,1.705-6.672,2.559-9.597,2.559-3.289,0-5.729-.912-7.311-2.74-1.583-1.828-2.376-3.838-2.376-6.032,0-2.56,.579-5.27,1.736-8.134,1.155-2.862,3.017-6.366,5.574-10.51,2.559-4.141,5.878-9.168,9.962-15.079,4.081-5.909,8.984-13.189,14.713-21.842h11.698v-.001Zm10.602-33.998c1.705,0,3.105,.58,4.203,1.737,1.098,1.159,1.646,2.59,1.646,4.295,0,1.708-.548,3.138-1.646,4.295-1.098,1.16-2.498,1.737-4.203,1.737-1.708,0-3.107-.577-4.204-1.737-1.097-1.157-1.645-2.587-1.645-4.295,0-1.705,.548-3.136,1.645-4.295,1.096-1.157,2.496-1.737,4.204-1.737" />
    <path class="cls-2" d="M727.987,197.515c-6.703,9.627-12.369,17.73-16.998,24.31-4.634,6.579-8.379,12.063-11.241,16.45-2.865,4.387-4.937,7.858-6.216,10.419-1.279,2.558-1.919,4.632-1.919,6.214,0,3.17,1.279,4.753,3.839,4.753,2.437,0,5.269-.883,8.499-2.651,3.227-1.765,6.608-4.05,10.145-6.854,3.533-2.803,7.065-5.97,10.602-9.505,3.533-3.532,6.854-7.038,9.961-10.51,3.108-3.473,5.85-6.823,8.225-10.053,2.377-3.227,4.113-5.878,5.211-7.951l1.462,.914c-1.462,2.439-3.445,5.363-5.94,8.774-2.499,3.412-5.333,6.916-8.5,10.509-3.171,3.596-6.52,7.16-10.053,10.694-3.536,3.533-7.128,6.702-10.784,9.504-3.656,2.804-7.22,5.057-10.692,6.762-3.474,1.705-6.672,2.559-9.597,2.559-3.289,0-5.729-.912-7.311-2.74-1.583-1.828-2.376-3.838-2.376-6.032,0-2.56,.579-5.27,1.736-8.134,1.155-2.862,3.017-6.366,5.574-10.51,2.559-4.141,5.878-9.168,9.962-15.079,4.081-5.909,8.984-13.189,14.713-21.842h11.698v-.001Zm10.602-33.998c1.705,0,3.105,.58,4.203,1.737,1.098,1.159,1.646,2.59,1.646,4.295,0,1.708-.548,3.138-1.646,4.295-1.098,1.16-2.498,1.737-4.203,1.737-1.708,0-3.107-.577-4.204-1.737-1.097-1.157-1.645-2.587-1.645-4.295,0-1.705,.548-3.136,1.645-4.295,1.096-1.157,2.496-1.737,4.204-1.737Z" />
    <path class="cls-1" d="M780.261,176.312l-14.44,21.203h24.128l-1.097,2.193h-24.493c-4.875,7.922-9.23,14.776-13.068,20.562-3.84,5.79-7.069,10.785-9.688,14.989-2.622,4.203-4.601,7.74-5.94,10.603-1.343,2.863-2.012,5.391-2.012,7.585,0,2.315,.792,3.929,2.377,4.844,1.583,.913,3.41,1.371,5.483,1.371,4.386,0,9.23-1.674,14.53-5.027,5.301-3.35,10.57-7.464,15.811-12.339,5.238-4.872,10.236-10.052,14.988-15.535,4.753-5.484,8.774-10.419,12.063-14.806l1.098,.732c-4.144,5.24-8.683,10.755-13.617,16.541-4.937,5.789-10.024,11.089-15.263,15.902-5.24,4.815-10.51,8.805-15.811,11.972-5.301,3.171-10.327,4.752-15.08,4.752-3.777,0-7.036-1.158-9.777-3.473-2.742-2.313-4.113-5.543-4.113-9.686,0-2.803,.791-5.942,2.376-9.414,1.582-3.474,3.656-7.22,6.214-11.241,2.56-4.021,5.452-8.408,8.683-13.161,3.228-4.752,6.549-9.806,9.961-15.17h-9.869l1.097-2.193h10.235l14.258-21.203h10.9661v-.001Z" />
    <path class="cls-2" d="M780.261,176.312l-14.44,21.203h24.128l-1.097,2.193h-24.493c-4.875,7.922-9.23,14.776-13.068,20.562-3.84,5.79-7.069,10.785-9.688,14.989-2.622,4.203-4.601,7.74-5.94,10.603-1.343,2.863-2.012,5.391-2.012,7.585,0,2.315,.792,3.929,2.377,4.844,1.583,.913,3.41,1.371,5.483,1.371,4.386,0,9.23-1.674,14.53-5.027,5.301-3.35,10.57-7.464,15.811-12.339,5.238-4.872,10.236-10.052,14.988-15.535,4.753-5.484,8.774-10.419,12.063-14.806l1.098,.732c-4.144,5.24-8.683,10.755-13.617,16.541-4.937,5.789-10.024,11.089-15.263,15.902-5.24,4.815-10.51,8.805-15.811,11.972-5.301,3.171-10.327,4.752-15.08,4.752-3.777,0-7.036-1.158-9.777-3.473-2.742-2.313-4.113-5.543-4.113-9.686,0-2.803,.791-5.942,2.376-9.414,1.582-3.474,3.656-7.22,6.214-11.241,2.56-4.021,5.452-8.408,8.683-13.161,3.228-4.752,6.549-9.806,9.961-15.17h-9.869l1.097-2.193h10.235l14.258-21.203h10.9661v-.001Z" />
</svg>