<?xml version="1.0" encoding="UTF-8" standalone="no"?>
<!DOCTYPE svg PUBLIC "-//W3C//DTD SVG 1.1//EN" "http://www.w3.org/Graphics/SVG/1.1/DTD/svg11.dtd">
<svg xmlns="http://www.w3.org/2000/svg" version="1.1" viewBox="0.00 0.00 300.00 50.00">
<path stroke="#a0a0a0" stroke-width="2.00" fill="none" stroke-linecap="butt" vector-effect="non-scaling-stroke" d="
  M 2.54 18.65
  Q 2.73 19.43 4.05 19.94
  Q 15.28 24.27 26.55 28.46
  Q 27.23 28.71 27.96 29.44"
/>
<path fill="#ffffff" d="
  M 61.09 10.54
  L 56.57 10.54
  A 0.82 0.81 -9.6 0 1 55.80 10.00
  C 55.52 9.20 55.45 8.67 54.92 8.01
  C 52.95 5.60 46.30 5.73 46.27 9.93
  A 1.28 1.26 -65.6 0 0 46.59 10.80
  C 50.22 14.86 60.95 11.90 62.09 21.00
  Q 62.43 23.77 60.57 26.51
  C 57.79 30.59 49.27 30.63 45.54 29.03
  Q 40.46 26.85 40.01 21.69
  A 0.88 0.87 87.6 0 1 40.88 20.74
  L 44.92 20.74
  A 0.74 0.73 88.8 0 1 45.65 21.45
  Q 45.72 23.36 46.93 24.07
  Q 51.32 26.65 55.09 24.37
  A 2.44 2.42 -35.2 0 0 55.73 20.75
  Q 54.71 19.51 52.69 19.00
  C 48.36 17.89 44.36 17.86 41.45 13.67
  A 3.01 2.97 19.6 0 1 41.02 12.78
  Q 39.81 8.51 42.12 5.50
  C 45.31 1.35 50.98 1.05 55.50 2.58
  Q 60.57 4.29 61.51 10.04
  A 0.43 0.42 -5.1 0 1 61.09 10.54
  Z"
/>
<path fill="#ffffff" d="
  M 153.55 15.93
  Q 153.56 18.86 154.57 21.18
  C 156.80 26.26 164.97 26.82 166.27 20.78
  A 0.39 0.38 -83.3 0 1 166.64 20.48
  L 171.71 20.48
  A 0.28 0.28 0.0 0 1 171.98 20.81
  Q 170.47 28.69 163.50 29.75
  C 153.88 31.22 147.82 25.43 147.80 15.95
  C 147.77 6.47 153.79 0.64 163.42 2.06
  Q 170.40 3.09 171.95 10.96
  A 0.28 0.28 0.0 0 1 171.69 11.29
  L 166.62 11.32
  A 0.39 0.38 82.9 0 1 166.24 11.02
  C 164.91 4.98 156.74 5.59 154.55 10.68
  Q 153.54 13.00 153.55 15.93
  Z"
/>
<path fill="#ffffff" d="
  M 186.8212 1.6708
  A 14.21 12.96 -90.6 0 1 199.9293 15.7443
  A 14.21 12.96 -90.6 0 1 187.1188 30.0892
  A 14.21 12.96 -90.6 0 1 174.0107 16.0157
  A 14.21 12.96 -90.6 0 1 186.8212 1.6708
  Z
  M 187.0000 6.4600
  A 9.46 7.20 -90.0 0 0 179.8000 15.9200
  A 9.46 7.20 -90.0 0 0 187.0000 25.3800
  A 9.46 7.20 -90.0 0 0 194.2000 15.9200
  A 9.46 7.20 -90.0 0 0 187.0000 6.4600
  Z"
/>
<path fill="#ffffff" d="
  M 238.69 10.06
  A 0.43 0.42 -5.0 0 1 238.27 10.56
  L 233.75 10.55
  A 0.82 0.81 -9.5 0 1 232.99 10.01
  C 232.71 9.21 232.64 8.68 232.11 8.02
  C 230.15 5.62 223.51 5.73 223.47 9.93
  A 1.27 1.26 -65.5 0 0 223.79 10.80
  C 227.41 14.86 238.12 11.92 239.25 21.01
  Q 239.58 23.77 237.72 26.51
  C 234.94 30.57 226.43 30.60 222.71 29.00
  Q 217.64 26.81 217.20 21.66
  A 0.88 0.87 87.7 0 1 218.07 20.71
  L 222.10 20.72
  A 0.74 0.73 88.9 0 1 222.83 21.43
  Q 222.90 23.33 224.10 24.05
  Q 228.48 26.63 232.25 24.36
  A 2.44 2.42 -35.1 0 0 232.90 20.75
  Q 231.88 19.51 229.86 18.99
  C 225.54 17.88 221.55 17.84 218.65 13.65
  A 3.01 2.97 19.7 0 1 218.22 12.76
  Q 217.02 8.50 219.34 5.50
  C 222.53 1.36 228.19 1.07 232.70 2.60
  Q 237.76 4.32 238.69 10.06
  Z"
/>
<path fill="#ffffff" d="
  M 96.70 2.12
  Q 98.04 2.12 99.35 2.20
  A 0.82 0.82 0.0 0 1 100.08 2.75
  L 109.25 29.00
  A 0.20 0.20 0.0 0 1 109.06 29.27
  L 103.64 29.27
  A 0.36 0.35 -9.0 0 1 103.30 29.03
  L 101.64 24.31
  A 0.79 0.78 80.7 0 0 100.90 23.77
  Q 98.79 23.75 96.66 23.75
  Q 94.52 23.74 92.42 23.75
  A 0.79 0.78 -80.5 0 0 91.67 24.29
  L 89.99 29.00
  A 0.36 0.35 9.2 0 1 89.65 29.24
  L 84.23 29.22
  A 0.20 0.20 0.0 0 1 84.04 28.95
  L 93.31 2.74
  A 0.82 0.82 0.0 0 1 94.05 2.19
  Q 95.35 2.11 96.70 2.12
  Z
  M 96.61 19.00
  Q 99.09 19.01 99.19 18.99
  A 0.53 0.52 76.2 0 0 99.58 18.33
  L 96.86 8.45
  A 0.20 0.14 85.5 0 0 96.74 8.31
  Q 96.68 8.29 96.64 8.29
  Q 96.60 8.29 96.55 8.31
  A 0.20 0.14 -85.1 0 0 96.43 8.45
  L 93.64 18.31
  A 0.53 0.52 -75.8 0 0 94.03 18.97
  Q 94.12 18.99 96.61 19.00
  Z"
/>
<path fill="#ffffff" d="
  M 251.88 29.18
  Q 250.69 29.18 249.52 29.17
  A 0.54 0.54 0.0 0 1 248.98 28.63
  L 249.04 7.74
  A 0.48 0.47 -89.8 0 0 248.58 7.26
  L 241.19 7.24
  A 0.25 0.24 0.2 0 1 240.95 7.00
  L 240.96 2.54
  A 0.30 0.29 -0.1 0 1 241.26 2.25
  Q 246.41 2.30 251.87 2.27
  Q 257.33 2.29 262.49 2.24
  A 0.30 0.29 0.0 0 1 262.79 2.53
  L 262.80 6.99
  A 0.25 0.24 -0.2 0 1 262.56 7.23
  L 255.17 7.26
  A 0.48 0.47 89.8 0 0 254.71 7.74
  L 254.79 28.63
  A 0.54 0.54 0.0 0 1 254.25 29.17
  Q 253.07 29.18 251.88 29.18
  Z"
/>
<rect fill="#dedede" x="1.50" y="2.21" width="27.04" height="10.96" rx="0.26"/>
<path fill="#ffffff" d="
  M 74.70 2.24
  Q 80.19 2.29 85.38 2.26
  A 0.30 0.29 0.3 0 1 85.68 2.55
  L 85.68 7.04
  A 0.25 0.24 0.0 0 1 85.43 7.28
  L 78.00 7.28
  A 0.48 0.47 -90.0 0 0 77.53 7.76
  L 77.53 28.79
  A 0.54 0.54 0.0 0 1 76.99 29.33
  Q 75.80 29.33 74.60 29.33
  Q 73.41 29.32 72.22 29.31
  A 0.54 0.54 0.0 0 1 71.68 28.77
  L 71.83 7.74
  A 0.48 0.47 -89.6 0 0 71.36 7.26
  L 63.93 7.21
  A 0.25 0.24 0.4 0 1 63.68 6.96
  L 63.71 2.48
  A 0.30 0.29 0.1 0 1 64.01 2.18
  Q 69.20 2.25 74.70 2.24
  Z"
/>
<path fill="#ffffff" d="
  M 113.35 2.26
  Q 121.75 2.22 125.47 2.31
  C 130.42 2.44 134.05 5.23 133.27 10.27
  Q 132.81 13.17 129.42 14.24
  A 0.29 0.29 0.0 0 0 129.43 14.79
  C 135.59 16.57 135.60 23.99 131.10 27.69
  Q 129.20 29.25 124.17 29.27
  Q 120.31 29.29 113.41 29.22
  A 0.68 0.68 0.0 0 1 112.74 28.54
  L 112.74 2.87
  A 0.62 0.61 -0.5 0 1 113.35 2.26
  Z
  M 118.47 7.34
  L 118.47 12.46
  A 0.31 0.31 0.0 0 0 118.79 12.77
  L 124.59 12.76
  A 3.13 2.76 -0.1 0 0 127.71 9.99
  L 127.71 9.77
  A 3.13 2.76 -0.1 0 0 124.57 7.02
  L 118.77 7.03
  A 0.31 0.31 0.0 0 0 118.47 7.34
  Z
  M 118.33 17.57
  L 118.37 24.29
  A 0.28 0.28 0.0 0 0 118.66 24.56
  L 124.88 24.52
  A 3.90 3.47 -0.4 0 0 128.75 21.02
  L 128.75 20.68
  A 3.90 3.47 -0.4 0 0 124.82 17.24
  L 118.60 17.28
  A 0.28 0.28 0.0 0 0 118.33 17.57
  Z"
/>
<rect fill="#ffffff" x="138.39" y="2.28" width="5.70" height="27.00" rx="0.26"/>
<rect fill="#ffffff" x="265.96" y="2.28" width="5.70" height="27.00" rx="0.26"/>
<path fill="#ffffff" d="
  M 293.54 16.68
  Q 293.94 17.21 294.13 17.20
  A 2.67 1.96 82.6 0 1 296.20 19.37
  Q 296.74 22.13 297.75 28.94
  A 0.28 0.27 85.5 0 1 297.48 29.26
  L 292.23 29.26
  A 0.43 0.42 87.8 0 1 291.81 28.86
  Q 291.31 23.17 291.26 22.50
  C 290.88 17.77 285.99 18.80 282.87 18.70
  A 0.60 0.60 0.0 0 0 282.25 19.30
  L 282.25 28.57
  A 0.69 0.69 0.0 0 1 281.56 29.26
  L 277.01 29.26
  A 0.52 0.52 0.0 0 1 276.49 28.74
  L 276.49 2.78
  A 0.54 0.53 -0.6 0 1 277.02 2.25
  Q 288.49 2.19 290.77 2.40
  Q 293.52 2.64 295.82 4.39
  A 2.13 2.00 7.4 0 1 296.42 5.12
  Q 300.04 12.51 293.69 15.98
  A 0.47 0.47 0.0 0 0 293.54 16.68
  Z
  M 282.25 7.26
  L 282.27 14.00
  A 0.27 0.27 0.0 0 0 282.54 14.27
  L 288.17 14.26
  A 4.08 3.52 -0.1 0 0 292.24 10.73
  L 292.24 10.49
  A 4.08 3.52 -0.1 0 0 288.15 6.98
  L 282.52 6.99
  A 0.27 0.27 0.0 0 0 282.25 7.26
  Z"
/>
<rect fill="#ffffff" x="203.02" y="13.16" width="10.70" height="4.70" rx="0.27"/>
<path fill="#b8b8b8" d="
  M 2.54 18.65
  Q 2.73 19.43 4.05 19.94
  Q 15.28 24.27 26.55 28.46
  Q 27.23 28.71 27.96 29.44
  L 1.97 29.29
  A 0.49 0.49 0.0 0 1 1.48 28.80
  Q 1.56 23.72 1.30 18.73
  Q 1.26 18.02 2.54 18.65
  Z"
/>
<path fill="#878787" d="
  M 27.96 29.44
  Q 27.23 28.71 26.55 28.46
  Q 15.28 24.27 4.05 19.94
  Q 2.73 19.43 2.54 18.65
  L 28.00 18.71
  A 0.56 0.55 1.9 0 1 28.56 19.30
  Q 28.30 24.15 28.72 28.95
  Q 28.74 29.24 28.48 29.36
  Q 28.26 29.46 27.96 29.44
  Z"
/>
<path fill="#ffffff" d="
  M 246.36 41.04
  A 0.66 0.66 0.0 0 1 245.22 41.68
  Q 243.44 39.41 241.39 40.61
  A 0.99 0.98 39.6 0 0 241.56 42.39
  Q 242.66 42.77 244.57 43.18
  A 2.75 2.74 -80.8 0 1 246.72 46.18
  C 246.30 49.91 240.45 49.53 239.20 46.31
  A 0.71 0.70 -20.3 0 1 239.63 45.39
  L 239.89 45.29
  A 0.44 0.43 -24.8 0 1 240.41 45.48
  Q 241.98 48.12 244.10 47.22
  A 1.35 1.34 41.7 0 0 243.95 44.69
  L 240.36 43.61
  A 1.23 1.23 0.0 0 1 239.50 42.70
  C 238.36 37.95 245.01 37.43 246.36 41.04
  Z"
/>
<path fill="#ffffff" d="
  M 293.1458 38.7501
  A 5.13 4.56 -89.6 0 1 297.6699 43.9118
  A 5.13 4.56 -89.6 0 1 293.0742 49.0099
  A 5.13 4.56 -89.6 0 1 288.5501 43.8482
  A 5.13 4.56 -89.6 0 1 293.1458 38.7501
  Z
  M 293.0973 40.2200
  A 3.65 2.97 -90.2 0 0 290.1400 43.8804
  A 3.65 2.97 -90.2 0 0 293.1227 47.5200
  A 3.65 2.97 -90.2 0 0 296.0800 43.8596
  A 3.65 2.97 -90.2 0 0 293.0973 40.2200
  Z"
/>
<path fill="#ffffff" d="
  M 224.52 43.88
  Q 226.45 45.32 224.67 47.86
  A 1.48 1.47 17.4 0 1 223.46 48.49
  L 218.89 48.49
  A 1.04 1.04 0.0 0 1 217.85 47.45
  L 217.85 40.03
  A 1.04 1.04 0.0 0 1 218.89 38.99
  L 222.95 38.99
  A 1.68 1.60 60.6 0 1 223.86 39.27
  Q 226.20 40.82 224.42 43.07
  A 0.57 0.56 -52.2 0 0 224.52 43.88
  Z
  M 223.3198 40.9903
  A 0.77 0.77 0.0 0 0 222.5030 40.2701
  L 220.2075 40.4146
  A 0.77 0.77 0.0 0 0 219.4874 41.2314
  L 219.5402 42.0697
  A 0.77 0.77 0.0 0 0 220.3570 42.7899
  L 222.6525 42.6454
  A 0.77 0.77 0.0 0 0 223.3726 41.8286
  L 223.3198 40.9903
  Z
  M 219.56 44.63
  L 219.56 46.59
  A 0.40 0.40 0.0 0 0 219.96 46.99
  L 222.40 47.00
  A 1.42 1.24 0.2 0 0 223.82 45.77
  L 223.82 45.49
  A 1.42 1.24 0.2 0 0 222.40 44.24
  L 219.96 44.23
  A 0.40 0.40 0.0 0 0 219.56 44.63
  Z"
/>
<path fill="#ffffff" d="
  M 230.38 42.94
  Q 230.43 42.94 230.48 42.93
  A 0.22 0.20 -79.9 0 0 230.63 42.81
  L 232.36 39.53
  A 0.99 0.99 0.0 0 1 233.23 39.01
  L 234.00 39.01
  A 0.35 0.35 0.0 0 1 234.30 39.54
  C 231.98 43.47 231.13 43.98 231.23 47.80
  A 0.68 0.68 0.0 0 1 230.69 48.49
  Q 230.58 48.51 230.39 48.51
  Q 230.19 48.51 230.08 48.49
  A 0.68 0.68 0.0 0 1 229.54 47.80
  C 229.63 43.98 228.78 43.48 226.44 39.55
  A 0.35 0.35 0.0 0 1 226.74 39.02
  L 227.51 39.02
  A 0.99 0.99 0.0 0 1 228.38 39.54
  L 230.13 42.81
  A 0.22 0.20 79.7 0 0 230.28 42.93
  Q 230.33 42.94 230.38 42.94
  Z"
/>
<path fill="#ffffff" d="
  M 251.52 39.00
  Q 253.26 38.94 254.90 39.07
  A 0.61 0.60 -87.7 0 1 255.46 39.68
  L 255.46 39.94
  A 0.56 0.56 0.0 0 1 254.90 40.50
  L 252.88 40.50
  A 0.51 0.51 0.0 0 0 252.37 41.01
  L 252.37 47.83
  A 0.68 0.68 0.0 0 1 251.81 48.50
  Q 251.67 48.53 251.52 48.53
  Q 251.38 48.53 251.23 48.50
  A 0.68 0.68 0.0 0 1 250.68 47.83
  L 250.67 41.01
  A 0.51 0.51 0.0 0 0 250.16 40.50
  L 248.14 40.51
  A 0.56 0.56 0.0 0 1 247.57 39.95
  L 247.57 39.69
  A 0.61 0.60 87.6 0 1 248.13 39.08
  Q 249.77 38.94 251.52 39.00
  Z"
/>
<path fill="#ffffff" d="
  M 260.39 47.24
  Q 261.09 47.24 261.13 47.24
  A 1.25 1.25 0.0 0 0 262.41 46.00
  L 262.47 39.49
  A 0.48 0.48 0.0 0 1 262.95 39.01
  L 263.64 39.01
  A 0.53 0.52 90.0 0 1 264.16 39.54
  Q 264.16 43.99 264.10 45.75
  A 3.07 3.06 80.6 0 1 262.11 48.53
  Q 261.40 48.80 260.39 48.79
  Q 259.37 48.79 258.66 48.52
  A 3.07 3.06 -80.3 0 1 256.69 45.73
  Q 256.64 43.97 256.66 39.52
  A 0.53 0.52 -89.7 0 1 257.19 38.99
  L 257.88 39.00
  A 0.48 0.48 0.0 0 1 258.35 39.48
  L 258.38 45.99
  A 1.25 1.25 0.0 0 0 259.65 47.24
  Q 259.69 47.24 260.39 47.24
  Z"
/>
<path fill="#ffffff" d="
  M 266.19 39.50
  A 0.51 0.51 0.0 0 1 266.69 38.99
  L 269.86 38.98
  A 4.33 4.28 89.8 0 1 274.16 43.30
  L 274.16 44.16
  A 4.33 4.28 89.8 0 1 269.90 48.50
  L 266.73 48.51
  A 0.51 0.51 0.0 0 1 266.21 48.00
  L 266.19 39.50
  Z
  M 267.91 40.75
  L 267.87 46.87
  A 0.32 0.32 0.0 0 0 268.19 47.19
  L 269.65 47.20
  A 2.76 2.51 0.3 0 0 272.43 44.70
  L 272.43 42.96
  A 2.76 2.51 0.3 0 0 269.69 40.44
  L 268.23 40.43
  A 0.32 0.32 0.0 0 0 267.91 40.75
  Z"
/>
<rect fill="#ffffff" x="-0.86" y="-4.85" transform="translate(276.68,43.79) rotate(-0.1)" width="1.72" height="9.70" rx="0.27"/>
<path fill="#ffffff" d="
  M 286.12 43.07
  A 0.57 0.56 -52.3 0 0 286.22 43.88
  Q 288.15 45.31 286.38 47.85
  A 1.48 1.47 17.3 0 1 285.17 48.49
  L 280.60 48.49
  A 1.04 1.04 0.0 0 1 279.56 47.46
  L 279.55 40.04
  A 1.04 1.04 0.0 0 1 280.59 39.00
  L 284.64 38.99
  A 1.68 1.60 60.5 0 1 285.55 39.27
  Q 287.90 40.82 286.12 43.07
  Z
  M 285.0879 41.1123
  A 0.81 0.81 0.0 0 0 284.2542 40.3267
  L 281.9752 40.3943
  A 0.81 0.81 0.0 0 0 281.1896 41.2280
  L 281.2121 41.9877
  A 0.81 0.81 0.0 0 0 282.0458 42.7733
  L 284.3248 42.7057
  A 0.81 0.81 0.0 0 0 285.1104 41.8720
  L 285.0879 41.1123
  Z
  M 281.28 44.60
  L 281.24 46.58
  A 0.39 0.39 0.0 0 0 281.63 46.97
  L 284.10 47.01
  A 1.42 1.24 0.9 0 0 285.54 45.79
  L 285.54 45.51
  A 1.42 1.24 0.9 0 0 284.14 44.25
  L 281.67 44.21
  A 0.39 0.39 0.0 0 0 281.28 44.60
  Z"
/>
</svg>
