<svg width="3321" height="332" viewBox="0 0 3321 332" fill="none" xmlns="http://www.w3.org/2000/svg">
<g clip-path="url(#clip0_448_1201)">
<path d="M1676.06 14.1719H1695.09L1695.2 174.135L1695.15 215.492V231.977H1676.01L1676.1 69.1449L1676.06 29.8579C1676.05 25.1579 1676.06 14.1719 1676.06 14.1719Z" fill="white"/>
<path d="M265.034 14.4681L416.497 14.4551L416.453 33.3521L349.975 33.3831L349.939 164.5L349.988 231.987L331.01 231.986L331.005 33.3021L264.993 33.3101L265.034 14.4681Z" fill="white"/>
<path d="M2620.03 14.5156L2771.47 14.5158L2771.49 33.4098L2704.93 33.2938L2705.07 121.469C2705.07 135.2 2704.95 163.5 2704.95 163.5V168.5C2704.95 168.5 2705.03 221.873 2704.99 232.021L2686 231.997V33.3778L2620.03 33.4078L2620.03 14.5156Z" fill="white"/>
<path d="M1816.59 14.4998L1966.44 14.4668L1966.45 33.3938L1899.98 33.4228L1900.11 120.831C1900.11 134.442 1899.98 162.5 1899.98 162.5V166.5C1899.98 166.5 1900.03 221.722 1899.97 231.969L1880.96 231.998L1880.97 33.3768L1815 33.4148C1815.02 28.8938 1813.68 17.4218 1816.59 14.4998Z" fill="white"/>
<path d="M1169.16 12.5011C1182.54 11.8691 1195.46 12.5561 1208.55 15.6091C1226.13 19.7111 1238.32 28.9591 1247.68 44.0921L1230.7 52.1791C1227.41 47.1761 1224.02 42.6621 1218.85 39.4551C1200.72 28.1911 1170.81 29.5651 1150.69 34.4171C1140.96 36.7621 1131.64 42.7701 1126.54 51.5001C1124.62 54.7821 1123.5 59.3791 1123.13 63.1541C1121.46 80.1501 1122.9 98.7381 1122.89 115.879L1122.93 159.991C1122.95 169.335 1122.1 179.368 1124.42 188.46C1126.43 196.352 1133.17 203.153 1140.06 207.131C1156.46 216.596 1184.4 217.417 1202.41 212.501L1203.68 212.394C1216.04 211.061 1223.58 203.005 1230.91 193.99L1247.21 203.145L1242.22 210.215C1229.84 225.165 1211.95 231.81 1193 233.641C1170.08 235.855 1140.81 233.814 1122.36 218.561C1111.8 209.83 1105.35 197.629 1104.13 183.926C1103.38 175.472 1103.94 166.399 1103.93 157.873L1103.96 107.025L1104.01 76.6111C1104.02 71.5201 1103.5 65.5631 1104.35 60.5791C1106.01 50.8241 1108.73 42.1991 1115.16 34.4721C1128.76 18.1281 1149.11 14.2551 1169.16 12.5011Z" fill="white"/>
<path d="M2428.67 12.4988C2441.43 11.6138 2455.13 12.1858 2467.54 15.4328C2485.17 20.0468 2498.18 27.9188 2507.57 43.8778L2490.77 52.3938C2487.57 47.2368 2483.05 41.4398 2477.64 38.4998C2459.75 28.7858 2427.97 28.6938 2408.84 34.7748C2399.31 37.8028 2390.62 43.5048 2386.05 52.6628C2384.58 55.6058 2383.41 59.9038 2383.13 63.1508C2381.7 80.1508 2382.92 98.2718 2382.91 115.403L2382.94 161.834C2382.96 170.631 2381.77 181.027 2384.63 189.349C2387.58 197.939 2394.71 204.521 2402.74 208.441C2418.54 216.151 2446.56 218.042 2463.2 212.312C2475.93 210.465 2483.21 203.805 2490.69 194.018L2506.84 203.015C2502.25 210.607 2497.47 216.732 2489.99 221.692C2469.08 235.566 2436.4 236.862 2412.5 231.871C2396.86 228.604 2381.1 221.192 2372.23 207.392C2368.03 200.873 2365.36 193.254 2364.39 185.578C2363.27 176.861 2363.97 167.403 2363.95 158.571L2363.97 106.254L2364.02 76.0008C2364.03 70.5868 2363.48 64.2788 2364.67 59.0168C2366.59 50.5718 2368.46 42.8098 2374.02 35.8348C2387.91 18.3958 2407.8 14.7638 2428.67 12.4988Z" fill="white"/>
<path d="M65.1108 12.4052C82.3458 10.6992 100.946 13.2902 116.861 19.9622C130.028 25.4822 138.802 35.3812 144.227 48.3282L127.293 56.1852C124.909 51.4132 122.612 46.6232 118.426 43.1452C101.817 29.3442 77.2268 30.2262 57.0188 32.1022C46.5968 33.0692 33.2788 38.1972 26.5268 46.5002C20.1368 54.3582 18.9328 65.8002 20.1118 75.6382C24.0628 108.585 63.8938 106.549 88.6128 110.875C102.079 113.231 118.111 117.826 128.847 126.534C141.573 136.856 148.151 150.129 149.734 166.312C151.251 181.832 149.041 199.054 138.733 211.369C124.737 228.09 105.944 232.088 85.2468 233.895C70.2258 234.864 55.3818 234.069 40.8288 230.053C23.2048 225.191 10.5588 215.414 1.51381 199.504C3.72381 196.49 14.3058 193.07 18.2138 191.275C22.6118 197.576 26.4988 202.874 33.3808 206.717C53.2828 217.828 83.4178 217.295 104.845 211.272C113.751 208.768 122.381 203.595 126.929 195.322C132.387 185.394 132.331 169.469 129.119 158.809C120.488 130.164 87.9718 130.847 63.9998 126.839C51.6288 124.77 37.5228 121.96 26.4548 115.959C13.9818 109.197 6.3078 99.3632 2.7058 85.6412C1.9918 82.9242 2.2798 79.9962 1.4908 77.3762C1.3038 76.7532 1.12281 76.1552 1.07581 75.5002C-0.0171914 60.1612 2.71981 44.5442 12.9548 32.5902C25.7938 17.5952 46.4608 13.8282 65.1108 12.4052Z" fill="white"/>
<path d="M1384.36 14.4998L1402.16 14.4238L1402.13 109.018L1512.92 109.015V14.5568L1531.52 14.4348C1531.71 15.0928 1531.9 15.7828 1531.92 16.4718L1531.94 71.0498L1531.9 180.183L1531.88 219.403C1531.88 222.328 1531.5 232 1531.5 232L1530.5 231.979L1519.75 232.019L1513 231.979C1513 231.979 1512.99 138.507 1513 128.009L1402.16 127.928V231.98L1383 232.001V57.2978L1383.05 25.7908C1383.06 23.2568 1383.05 14.4998 1383.05 14.4998H1384.36Z" fill="white"/>
<path d="M2891.08 14.4859L3034.02 14.4858L3034 33.3369L2910.09 33.3988L2910.11 109L2999.28 109.013L2999.2 127.954L2910.11 127.965V135.5V144L2910.23 163.919L2910.11 213.03L3034 213.077L3033.99 232.02L2891.01 231.986L2891.08 75.3849L2891.04 32.8768L2891.08 14.4859Z" fill="white"/>
<path d="M2088.57 14.5L2230.02 14.499L2230.01 33.378L2106.09 33.356L2106.11 109.034L2195.21 109.004L2195.32 127.974L2106.13 127.906V143.5C2106.13 143.5 2106.22 158.623 2106.23 163.925L2106.11 213.055L2230.02 213.042L2230.04 232.002L2087.01 231.985V54.67L2087.07 24.417C2087.08 22.593 2087.07 14.5 2087.07 14.5H2088.57Z" fill="white"/>
<path d="M3168.08 14.4762L3189.65 14.4762L3301.11 197.766L3301.24 14.4762L3319 14.4761L3320.13 14.4762C3320.13 14.4762 3320.13 25.3812 3320.13 29.5382L3320.11 70.4152L3320.24 177.528C3320.24 194.322 3320.15 228.5 3320.15 228.5C3320.06 229.741 3320 232 3320 232L3299.54 232.009L3188.06 48.4272L3188.18 231.98L3168.96 232L3169.07 70.4412C3169.07 61.4612 3168.08 14.9812 3168.08 14.9812L3168.08 14.4762Z" fill="white"/>
<path fill-rule="evenodd" clip-rule="evenodd" d="M874.29 14.4481L820.098 14.4481V14.9871C820.098 14.9871 821.063 60.109 821.066 69.097L820.982 231.995L840.193 231.997L840.122 137.87L899.07 137.823C904.04 146.046 941.5 210 941.5 210L943.5 213C943.5 213 950.99 223.77 953.83 228.368C953.935 228.535 954.11 228.851 954.321 229.231C954.896 230.269 955.734 231.78 956.1 232.001C956.384 232.171 958.054 232.097 959.225 232.045C959.662 232.026 960.029 232.01 960.23 232.01L978.37 232.048L920.19 135.911C936.94 130.38 948.27 124.148 956.4 108.047C957.63 105.619 958.65 103.314 959.35 100.673C964.4 81.8571 965.64 58.8011 955.53 41.2391C948.69 29.3441 938.55 21.6831 925.32 18.1811C910.633 14.2937 895.778 14.3615 880.754 14.4301C878.603 14.44 876.448 14.4498 874.29 14.4481ZM883.72 33.3501L838.872 33.4311L839.142 33.9461C839.142 33.9461 840.153 107.349 840.124 118.97L878.26 119.008C880.358 119.006 882.671 119.049 885.132 119.095C900.354 119.38 921.219 119.77 931.48 110.153C931.613 110.027 932.109 109.648 932.74 109.165C934.194 108.054 936.368 106.391 936.5 106C938.75 102.849 939.08 101.974 940.24 98.9003C940.369 98.5593 940.507 98.1913 940.66 97.7901C945.52 84.9991 946.14 65.5701 940.36 52.9871C936.72 45.0501 930.6 39.5331 922.39 36.6121C912.426 33.0632 900.711 33.1906 889.825 33.3089C887.754 33.3314 885.713 33.3536 883.72 33.3501Z" fill="white"/>
<path fill-rule="evenodd" clip-rule="evenodd" d="M616 0.124776C613.522 -0.0382239 611.396 -0.104218 608.972 0.489782C606.907 5.56636 603.97 10.4744 601.096 15.2774C600.193 16.7859 599.296 18.284 598.435 19.7738L581.357 49.6048L497.5 196.172L482.379 222.609C481.965 223.319 481.406 224.185 480.795 225.132C479.033 227.861 476.841 231.257 476.46 233.5C476.368 234.04 476.487 234.857 476.594 235.586C476.643 235.921 476.689 236.237 476.711 236.5C477.536 237.85 478.511 239.133 479.782 240.09L555.005 292.054L598.294 322.199C599.228 322.845 600.364 323.73 601.606 324.697C605.015 327.351 609.217 330.624 612.201 331.274C612.948 331.437 613.739 331.459 614.5 331.442L616.213 330.045C621.07 328.25 625.34 325.039 629.543 321.878C631.122 320.69 632.692 319.51 634.279 318.415L670.421 293.421L746.931 240.956C747.05 240.87 747.169 240.786 747.287 240.701C748.832 239.601 750.324 238.538 751.152 236.746C751.777 235.394 751.701 233.772 751.175 232.377C749.863 228.897 747.57 225.318 745.357 221.865C744.235 220.113 743.133 218.394 742.19 216.736L714.888 169.464L638.707 37.2328L624.015 11.7398C623.495 10.8582 622.998 9.96133 622.502 9.06558C620.697 5.80549 618.9 2.56052 616 0.124776ZM720.931 203.689C688.855 147.454 616.08 19.866 612.383 18.1411L612.277 18.4521C609.742 25.7176 605.25 32.9483 600.939 39.8883C599.309 42.5127 597.704 45.0956 596.241 47.6231L570.492 92.7081L493.142 227.688C495.306 229.204 564.267 228.586 597.948 228.284C606.093 228.211 612.175 228.156 614.75 228.155L734.906 228.141C732.877 224.631 727.851 215.82 720.931 203.689Z" fill="white"/>
</g>
<defs>
<clipPath id="clip0_448_1201">
<rect width="3321" height="332" fill="white"/>
</clipPath>
</defs>
</svg>
