<svg width="490" height="423" viewBox="0 0 490 423" fill="none" xmlns="http://www.w3.org/2000/svg">
<g clip-path="url(#clip0_452_399)">
<path fill-rule="evenodd" clip-rule="evenodd" d="M489.025 0.319496L0.52013 0.287598L0.44043 361.417L488.267 361.41C488.613 360.885 488.967 360.275 489.028 359.636C489.266 357.133 489.192 354.475 489.118 351.856C489.083 350.58 489.047 349.314 489.048 348.079L489.065 324.255L489.081 247.08L489.025 0.319496ZM10.0698 9.57861L171.284 9.81701L146.238 16.8547C124.112 24.0765 102.56 34.8001 83.0671 47.4573C55.8081 65.9768 33.477 88.6428 18.099 118.013C16.3638 121.327 14.9247 124.795 13.4853 128.265C12.3741 130.943 11.2627 133.622 10.0146 136.231L10.0698 9.57861ZM10.1272 225.443C13.9413 235.818 19.4763 246.952 25.2998 256.321C29.3818 262.888 34.2518 268.787 39.181 274.717C39.658 275.291 40.1344 275.866 40.6113 276.442L40.6164 276.449C43.8767 280.387 47.1584 284.352 50.7641 287.966C82.5801 319.853 127.523 341.529 171.091 351.721L10.1271 351.812L10.1272 225.443ZM479.715 9.65021L318.271 9.73031C338.707 15.3757 359.29 22.0186 378.45 31.2258C406.061 44.4934 431.104 63.3458 450.44 87.1548C456.515 94.6348 462.297 102.195 467.059 110.595C470.058 115.884 472.584 121.427 475.105 126.957L475.48 127.779L475.676 128.21C475.96 128.832 476.291 129.482 476.632 130.15L476.633 130.152C477.877 132.593 479.248 135.284 478.904 137.759C479.32 136.78 479.671 135.714 479.747 134.647C479.948 131.823 479.866 128.931 479.785 126.055C479.743 124.568 479.701 123.086 479.698 121.619L479.715 9.65021ZM479.106 223.22C479.434 223.705 479.737 224.255 479.803 224.848C480.004 226.665 479.887 228.737 479.773 230.761V230.761V230.761V230.762C479.705 231.966 479.638 233.154 479.639 234.261L479.687 261.422L479.669 351.848L319.155 351.793L319.085 351.251C323.161 349.977 327.279 348.897 331.399 347.817L331.401 347.817C336.505 346.479 341.612 345.14 346.643 343.43C355.553 340.401 363.976 336.595 372.484 332.608C373.074 332.331 373.665 332.055 374.257 331.778C380.751 328.74 387.36 325.648 393.551 322.095C409.702 312.828 424.336 301.428 437.726 288.54C453.466 273.389 464.807 256.285 474.201 236.62C474.494 236.007 474.813 235.364 475.142 234.7L475.146 234.692L475.147 234.69C476.93 231.093 479.029 226.859 479.106 223.22ZM245.453 10.7725L243.916 10.8514C241.751 10.9566 239.583 11.0562 237.414 11.1559C223.844 11.7795 210.231 12.405 196.797 14.4242C141.687 22.7074 86.9281 47.2727 49.1271 88.9978C35.8267 103.679 23.6989 124.1 18.0277 143.092C15.6334 151.11 14.4983 158.989 13.597 167.267C12.9372 173.327 12.347 179.337 12.6684 185.442C13.0548 192.782 13.6875 200.876 15.2626 208.057C21.6878 237.35 40.1354 266.014 62.3731 285.913C104.128 323.277 156.784 342.931 211.975 348.596C223.593 349.788 235.077 350.884 246.783 350.492C304.801 349.176 362.817 335.241 409.978 300.007C418.582 293.579 427.126 286.603 434.546 278.822C460.037 252.094 477.963 216.811 477.047 179.166C476.102 140.328 457.3 104.026 429.382 77.4988C416.207 64.9798 400.276 53.3758 384.267 44.7628C378.189 41.4931 371.881 38.759 365.559 36.0193L365.556 36.0179L365.552 36.0165C364.591 35.5999 363.629 35.1831 362.668 34.7643C346.802 27.8519 330.812 22.1536 313.897 18.3547C306.65 16.7272 299.255 15.6896 291.891 14.6562C290.485 14.4589 289.079 14.2616 287.676 14.0605C273.714 12.0589 259.596 10.362 245.453 10.7725Z" fill="#FEFEFE"/>
<path d="M239.902 280.582C240.766 284.122 240.132 288.692 240.007 292.347C238.042 289.879 236.413 286.083 233.773 284.336C232.689 283.617 230.771 283.416 229.531 283.753C228.357 284.073 228.143 284.45 227.61 285.475C228.51 290.886 236.483 292.358 239.833 296.435C241.53 298.502 241.936 300.382 241.689 302.998C241.435 305.702 240.335 308.054 238.173 309.763C232.902 313.931 230.525 310.059 225.56 309.686C225.088 309.651 223.252 311.507 222.798 311.912L222.627 311.722C220.896 309.556 221.999 302.139 222.154 299.462C224.184 302.007 225.853 306.384 228.714 307.917C229.854 308.527 232.138 308.464 233.351 308.07C235.011 307.529 235.167 307.241 235.94 305.769C234.863 300.688 226.759 299.23 223.657 295.003C222.267 293.109 221.827 290.172 222.267 287.901C222.721 285.552 223.899 283.493 225.971 282.198C229.31 280.112 233.798 281.806 237.328 282.537L239.902 280.582Z" fill="#FEFEFE"/>
<path d="M387.017 265.098C387.774 265.022 388.616 265.203 389.374 265.299C389.942 265.76 390.581 266.27 390.947 266.914C391.564 267.998 391.718 269.247 391.383 270.444C390.975 271.902 390.106 273.061 388.768 273.784C386.66 274.924 383.422 273.502 381.25 272.89C380.715 276.897 380.894 281.037 380.896 285.077C380.897 287.765 380.674 290.623 381.303 293.242L384.105 294.996C380.6 296.846 375.862 297.368 372.007 298.122C371.071 298.314 370.404 298.599 369.484 298.253C370.082 296.753 370.939 295.296 371.266 293.71C371.805 291.105 371.61 288.256 371.605 285.611L371.374 272.447C370.469 271.849 369.858 271.334 369.234 270.442C369.426 270.207 369.522 270.054 369.754 269.876C371.526 268.514 378.199 267.614 380.402 267.937C380.5 268.713 380.593 268.965 381.108 269.553C382.86 267.773 384.947 266.474 387.017 265.098Z" fill="#FEFEFE"/>
<path d="M191.244 279.569C194.711 279.564 198.802 279.778 202.193 280.464C202.421 281.283 202.625 281.85 203.137 282.534C204.236 281.718 206.429 280.027 207.756 279.789C208.858 279.592 209.881 280.047 210.776 280.692C212.204 281.72 212.647 283.342 212.992 284.974C212.662 286.467 212.535 287.313 211.255 288.301C207.807 290.961 206.51 287.106 203.762 286.783C202.167 289.429 202.988 295.834 202.997 299.004C203.007 300.607 202.567 304.489 203.036 305.872C203.349 306.794 205.901 308.997 206.676 309.844L196.213 309.038C194.788 308.922 192.973 309.012 191.739 308.266L191.627 307.272C192.35 306.731 192.949 306.216 193.525 305.519L193.609 290.011C193.595 288.05 193.866 285.26 193.361 283.394C193.001 282.068 191.996 280.711 191.244 279.569Z" fill="#FEFEFE"/>
<path d="M146.652 264.053C148.011 265.518 147.538 270.233 147.557 272.248C147.559 272.494 147.505 273.86 147.57 273.952C148.259 274.932 151.083 275.232 152.21 276.762C151.062 278.51 149.317 276.662 147.653 277.908L147.625 293.118C147.65 295.341 147.377 298.089 148.154 300.183L149.406 300.356C150.149 299.651 150.686 299.157 151.661 298.815L152.72 299.894L152.423 301.009C150.889 302.811 149.58 303.544 147.399 304.397C145.45 304.303 143.707 303.832 142.011 302.836C140.451 301.921 139.026 300.541 138.39 298.817C137.703 296.952 137.906 294.679 137.892 292.712L137.848 281.216C137.843 279.913 138.105 277.72 137.705 276.521C137.351 275.457 135.283 275.242 134.274 274.739C134.307 274.476 134.236 274.177 134.373 273.95C135.084 272.766 138.61 271.158 139.888 270.143C142.236 268.277 144.388 266.038 146.652 264.053Z" fill="#FEFEFE"/>
<path d="M245.335 269.116L258.773 269.001L258.741 293.308C258.741 297.747 258.417 302.493 259.014 306.882C259.239 308.534 260.884 308.929 261.129 310.529L259.245 310.757L246.307 310.799C247.319 309.999 248.68 309.081 249.486 308.081C250.083 307.338 250.36 275.681 249.862 272.704C249.647 271.418 246.49 269.874 245.335 269.116Z" fill="#FEFEFE"/>
<path fill-rule="evenodd" clip-rule="evenodd" d="M171.183 276.744L170.753 276.746C166.864 277.838 164.081 279.556 162.016 283.171C159.833 286.994 160.112 293.242 161.277 297.368C162.337 301.125 165.241 304.432 168.651 306.247C171.234 307.622 174.166 307.798 176.942 306.913C180.033 305.927 182.401 303.812 183.945 301.009L183.836 299.669L183.148 299.15C183.061 299.222 182.974 299.294 182.887 299.367C180.993 300.941 178.98 302.614 176.346 302.294C174.689 302.092 173.043 300.926 172.061 299.61C170.705 297.794 169.511 294.184 169.917 291.926L169.958 291.739C170.915 291.33 172.14 291.494 173.267 291.645C173.574 291.687 173.873 291.727 174.158 291.754L184.507 292.884C184.524 288.31 184.256 284.607 180.868 281.112C178.387 278.553 174.762 276.751 171.183 276.744ZM174.205 280.297L171.245 279.878C170.391 282.448 169.784 284.775 169.547 287.479C170.371 288.546 171.874 288.663 173.29 288.772C173.635 288.799 173.974 288.825 174.298 288.865L175.037 288.937L176.069 288.481C176.027 288.024 175.998 287.533 175.967 287.024C175.825 284.68 175.659 281.947 174.205 280.297Z" fill="#FEFEFE"/>
<path fill-rule="evenodd" clip-rule="evenodd" d="M357.274 273.462C355.404 272.259 352.603 272.191 350.432 272.303C345.861 273.302 342.205 275.538 339.66 279.542C337.19 283.428 336.523 290.421 337.507 294.818C337.642 295.421 337.89 295.949 338.161 296.499L338.3 296.789C339.652 299.565 342.182 301.832 345.102 302.823C347.933 303.784 350.624 302.972 353.189 301.638C356.528 299.9 358.844 297.234 360.911 294.152L361.415 292.49L360.818 291.706C359.482 292.222 358.502 293.287 357.541 294.331C355.836 296.185 354.192 297.971 350.727 296.487C348.953 295.727 347.833 294.162 347.2 292.396C346.69 290.97 346.421 289.424 346.16 287.924C346.136 287.782 346.111 287.64 346.086 287.499L362.094 285.007C361.966 284.414 361.846 283.781 361.722 283.127C361.051 279.574 360.258 275.383 357.274 273.462ZM350.121 275.055C350.098 275.043 350.073 275.032 350.046 275.019C347.524 276.995 346.68 278.052 346.296 281.291C346.19 282.187 346.193 283.072 346.237 283.972C347.223 284.411 347.935 284.319 348.929 284.19C348.992 284.182 349.056 284.173 349.121 284.165C349.418 284.099 349.724 284.044 350.03 283.989C351.206 283.777 352.398 283.562 353.221 282.719C353.209 282.608 353.198 282.495 353.187 282.382C352.934 279.87 352.635 276.888 350.533 275.296C350.366 275.169 350.272 275.125 350.121 275.055Z" fill="#FEFEFE"/>
<path fill-rule="evenodd" clip-rule="evenodd" d="M284.169 279.753L282.3 279.847C278.21 280.493 273.681 281.209 271.097 284.837C269.747 286.731 269.488 288.472 269.75 290.736C270.537 292.264 271.09 292.878 272.646 293.622C274.71 293.63 275.152 293.492 276.962 292.49C278.085 290.98 277.818 289.288 277.577 287.763C277.234 285.589 276.945 283.755 280.81 283.275C281.559 283.182 282.227 283.402 282.917 283.675C283.893 284.803 284.094 286.275 284.031 287.73C283.975 289.029 283.663 291.052 282.654 291.978C281.569 292.974 280.069 293.715 278.631 294.426C277.997 294.739 277.375 295.047 276.806 295.367C272.827 297.608 270.157 301.243 269.233 305.731C270.14 307.89 271.322 310.055 273.614 310.995C274.664 311.426 275.95 311.518 276.992 311.031C278.827 310.172 280.655 308.851 282.408 307.583C283.112 307.075 283.803 306.575 284.478 306.117C284.621 306.319 284.761 306.526 284.902 306.734C285.771 308.012 286.667 309.329 288.11 309.956C290.068 310.248 291.587 309.544 293.154 308.396C294.467 307.434 295.941 306.054 296.443 304.455L295.691 303.949L293.437 304.395C292.703 303.602 292.755 302.374 292.803 301.222C292.816 300.917 292.829 300.617 292.826 300.332L292.735 288.198C292.733 287.937 292.737 287.657 292.741 287.365C292.761 286.01 292.784 284.403 292.155 283.326C290.608 280.675 286.994 279.842 284.169 279.753ZM283.561 295.279L282.433 295.079L282.31 295.174C280.327 296.702 278.533 298.084 278.183 300.761C278.082 301.538 278.239 302.312 278.408 303.068L279.691 304.598C279.981 304.495 280.263 304.403 280.536 304.313C281.752 303.916 282.813 303.57 283.721 302.512C283.742 302.012 283.782 301.476 283.824 300.922C283.966 299.022 284.125 296.907 283.561 295.279Z" fill="#FEFEFE"/>
<path d="M105.284 254.257C107.374 254.094 109.727 253.969 111.785 254.403C113.827 254.833 121.516 258.723 122.604 258.286C123.612 257.881 123.666 256.984 125.109 256.657C125.209 256.809 125.391 257.059 125.463 257.246C125.872 258.3 125.712 260.172 125.722 261.313C125.754 264.741 126.093 268.68 124.68 271.879C123.363 268.839 123.017 265.493 120.946 262.812C118.703 259.91 114.755 257.616 111.082 257.26C108.735 257.032 107.399 256.988 105.571 258.512C105.206 259.28 104.76 260.153 104.749 261.017C104.683 265.956 111.072 268.162 114.72 270.177C117.564 271.748 120.495 273.444 122.842 275.719C125.994 278.775 128.363 283.542 128.327 287.98C128.301 291.154 126.761 294.243 124.481 296.399C121.957 298.785 119.741 298.862 116.472 298.783C114.527 298.305 112.549 297.801 110.687 297.057C108.455 296.166 103.775 293.475 101.563 293.642C100.562 293.718 99.9474 295.104 98.5044 294.996L98.2094 293.891C97.6394 290.979 97.4434 282.125 98.9134 279.904C100.377 280.939 100.722 283.749 101.454 285.44C102.285 287.36 103.441 289.149 104.925 290.631C108.1 293.803 112.461 295.423 116.917 295.266C119.09 295.189 119.74 294.533 121.141 293.048C121.262 292.302 121.599 291.213 121.557 290.486C121.157 283.581 102.304 279.085 98.8194 270.226C97.4954 266.861 97.5114 263.039 98.9764 259.717C100.353 256.593 102.256 255.41 105.284 254.257Z" fill="#FEFEFE"/>
<path fill-rule="evenodd" clip-rule="evenodd" d="M316.516 276.806L320.687 277.625C322.151 278.029 323.788 277.818 325.362 277.615C327.093 277.392 328.747 277.179 330.008 277.805C330.161 278.887 329.917 279.753 329.635 280.755C329.61 280.843 329.584 280.933 329.559 281.024C328.654 281.146 327.859 281.278 327.002 281.602C326.675 283.002 327.295 284.98 327.814 286.633C327.961 287.102 328.1 287.545 328.207 287.941C327.78 289.423 326.999 290.961 326.184 292.276C323.382 296.802 319.027 297.755 314.453 298.756C313.631 298.936 312.802 299.117 311.973 299.321C311.846 299.465 311.729 299.592 311.624 299.708C310.942 300.452 310.702 300.715 310.75 302.011C312.85 302.6 315.351 302.268 317.879 301.933C321.477 301.456 325.129 300.972 327.755 303.127C329.451 304.518 330.424 306.28 330.593 308.473C330.79 311.038 329.41 312.751 327.839 314.613L326.275 315.766C320.905 319.552 312.278 320.21 305.961 318.702C304.748 318.412 304.233 317.553 303.666 316.61C303.578 316.463 303.489 316.313 303.395 316.164C303.25 313.493 304.167 312.785 305.199 311.987C305.913 311.436 306.682 310.841 307.194 309.527L305.898 308.495C305.085 307.771 304.681 307.034 304.636 305.921C304.527 303.183 306.649 300.969 308.546 298.99C308.906 298.614 309.257 298.247 309.584 297.887L309.413 297.777C307.491 296.532 305.811 295.444 304.458 293.515C303.759 290.585 303.839 286.254 305.485 283.648C308.046 279.592 312.049 277.825 316.516 276.806ZM315.139 310.413C315.468 310.392 315.835 310.364 316.228 310.334C318.764 310.143 322.396 309.87 324.283 310.708C324.663 311.733 324.716 312.032 324.292 313.056C323.626 314.663 321.705 315.457 320.122 316.111C320.018 316.154 319.915 316.196 319.815 316.238C319.722 316.277 319.63 316.316 319.541 316.354C317.315 316.75 313.85 317.205 311.725 316.377C310.294 315.819 309.551 314.924 308.978 313.536L309.613 312.178C311.302 310.978 312.971 310.732 314.939 310.442L315.139 310.413ZM317.734 279.796L315.59 278.975C313.123 281.163 312.749 282.318 312.558 285.6C312.547 285.796 312.534 286.005 312.52 286.225C312.356 288.787 312.1 292.796 313.682 294.592C314.239 295.223 315.027 295.587 315.785 295.937C315.859 295.971 315.934 296.006 316.007 296.04C317.928 294.327 318.973 293.315 319.131 290.684C319.31 287.713 319.418 282.092 317.734 279.796Z" fill="#FEFEFE"/>
<path d="M244.635 28.7725C248.422 36.2969 250.876 45.1696 253.852 53.0782L275.953 112.903L375.919 113.002L294.789 165.427L326.085 249.528L244.804 197.544C237.642 201.018 230.712 206.44 223.998 210.755L177.278 240.902L168.012 246.849C166.754 247.653 165.227 248.949 163.792 249.276L194.379 165.185L113.647 112.897L213.916 112.875L244.635 28.7725Z" fill="#FEFEFE"/>
<path d="M61.1523 413.432C60.3123 413.432 59.3883 413.348 58.3803 413.18C57.3963 413.036 56.4243 412.82 55.4643 412.532C54.5283 412.22 53.6883 411.884 52.9443 411.524L53.8803 405.872C54.2163 405.56 54.6723 405.404 55.2483 405.404C55.3923 405.404 55.5363 405.416 55.6803 405.44C55.8483 405.44 55.9803 405.464 56.0763 405.512L56.4363 410.408L55.6803 409.076C56.1363 409.46 56.6643 409.796 57.2643 410.084C57.8883 410.372 58.5243 410.6 59.1723 410.768C59.8203 410.912 60.4563 410.984 61.0803 410.984C62.2563 410.984 63.2163 410.672 63.9603 410.048C64.7043 409.4 65.0763 408.596 65.0763 407.636C65.0763 407.036 64.9443 406.52 64.6803 406.088C64.4163 405.632 63.9243 405.176 63.2043 404.72C62.5083 404.264 61.4643 403.736 60.0723 403.136C58.5603 402.416 57.3483 401.708 56.4363 401.012C55.5243 400.316 54.8763 399.548 54.4923 398.708C54.1083 397.844 53.9163 396.848 53.9163 395.72C53.9163 393.8 54.5763 392.276 55.8963 391.148C57.2403 389.996 59.0283 389.42 61.2603 389.42C62.3883 389.42 63.5763 389.576 64.8243 389.888C66.0723 390.176 67.2003 390.584 68.2083 391.112L67.5963 396.44C67.0443 396.44 66.6003 396.38 66.2643 396.26C65.9283 396.14 65.7363 395.972 65.6883 395.756L65.1483 391.94L66.1563 393.74C65.7003 393.164 65.0403 392.708 64.1763 392.372C63.3123 392.012 62.3763 391.832 61.3683 391.832C60.2403 391.832 59.3403 392.108 58.6683 392.66C58.0203 393.188 57.6963 393.908 57.6963 394.82C57.6963 395.372 57.8283 395.864 58.0923 396.296C58.3563 396.728 58.8483 397.16 59.5683 397.592C60.2883 398.024 61.2963 398.54 62.5923 399.14C64.2723 399.884 65.5923 400.616 66.5523 401.336C67.5123 402.056 68.1963 402.836 68.6043 403.676C69.0123 404.492 69.2163 405.464 69.2163 406.592C69.2163 407.984 68.8923 409.196 68.2443 410.228C67.5963 411.26 66.6723 412.052 65.4723 412.604C64.2723 413.156 62.8323 413.432 61.1523 413.432Z" fill="white"/>
<path d="M80.2152 413.432C78.8232 413.432 77.7912 412.988 77.1192 412.1C76.4712 411.212 76.1472 409.952 76.1472 408.32V394.064C76.4832 393.824 76.9032 393.596 77.4072 393.38C77.9112 393.164 78.4512 392.984 79.0272 392.84C79.6032 392.672 80.1552 392.564 80.6832 392.516V407.672C80.6832 408.584 80.8272 409.268 81.1152 409.724C81.4272 410.156 81.9432 410.372 82.6632 410.372C83.1192 410.372 83.6112 410.288 84.1392 410.12C84.6672 409.928 85.1952 409.64 85.7232 409.256L86.4072 410.552C86.0952 411.008 85.6152 411.464 84.9672 411.92C84.3192 412.352 83.5872 412.712 82.7712 413C81.9552 413.288 81.1032 413.432 80.2152 413.432ZM84.5712 399.5L73.8072 399.212C73.8072 398.756 73.8552 398.324 73.9512 397.916C74.0712 397.484 74.2272 397.196 74.4192 397.052L85.3992 396.512C85.4712 396.656 85.5192 396.8 85.5432 396.944C85.5672 397.088 85.5792 397.232 85.5792 397.376C85.5792 397.928 85.4952 398.396 85.3272 398.78C85.1592 399.14 84.9072 399.38 84.5712 399.5Z" fill="white"/>
<path d="M97.0741 413.432C95.4901 413.432 94.0981 413.096 92.8981 412.424C91.6981 411.752 90.7621 410.816 90.0901 409.616C89.4421 408.416 89.1181 407.024 89.1181 405.44C89.1181 403.712 89.5021 402.164 90.2701 400.796C91.0381 399.428 92.0701 398.348 93.3661 397.556C94.6861 396.764 96.1501 396.368 97.7581 396.368C99.1501 396.368 100.362 396.668 101.394 397.268C102.426 397.844 103.218 398.66 103.77 399.716C104.346 400.748 104.634 401.972 104.634 403.388C104.634 403.988 104.55 404.384 104.382 404.576C104.214 404.744 103.95 404.828 103.59 404.828H92.3581V403.136L100.854 402.92L100.458 403.46C100.482 402.308 100.374 401.336 100.134 400.544C99.8941 399.728 99.5461 399.116 99.0901 398.708C98.6341 398.276 98.0821 398.06 97.4341 398.06C96.4261 398.06 95.5981 398.6 94.9501 399.68C94.3021 400.736 93.9781 402.212 93.9781 404.108C93.9781 405.524 94.1821 406.748 94.5901 407.78C94.9981 408.812 95.5981 409.604 96.3901 410.156C97.1821 410.684 98.1541 410.948 99.3061 410.948C100.194 410.948 101.034 410.756 101.826 410.372C102.618 409.988 103.386 409.436 104.13 408.716L104.706 410.012C104.154 410.684 103.47 411.284 102.654 411.812C101.838 412.316 100.95 412.712 99.9901 413C99.0541 413.288 98.0821 413.432 97.0741 413.432Z" fill="white"/>
<path d="M109.31 413C109.31 411.944 109.502 411.332 109.886 411.164L111.938 410.336L111.542 410.948V399.032L111.974 399.572L109.85 399.032C109.682 398.984 109.55 398.816 109.454 398.528C109.358 398.216 109.31 397.796 109.31 397.268C110.486 397.076 111.386 396.944 112.01 396.872C112.634 396.8 113.15 396.764 113.558 396.764C114.398 396.764 114.986 396.944 115.322 397.304C115.658 397.664 115.826 398.288 115.826 399.176V400.4L115.502 400.04H116.042C116.594 398.936 117.314 398.048 118.202 397.376C119.09 396.704 119.966 396.368 120.83 396.368C121.838 396.368 122.582 396.596 123.062 397.052C123.542 397.508 123.782 398.132 123.782 398.924C123.782 399.524 123.566 400.052 123.134 400.508C122.726 400.94 122.21 401.156 121.586 401.156C121.298 400.58 120.974 400.184 120.614 399.968C120.278 399.728 119.882 399.608 119.426 399.608C118.85 399.608 118.226 399.836 117.554 400.292C116.882 400.748 116.306 401.324 115.826 402.02L116.078 401.156V410.984L115.574 410.192L118.886 411.02C118.886 411.452 118.838 411.812 118.742 412.1C118.646 412.388 118.466 412.688 118.202 413H109.31Z" fill="white"/>
<path d="M133.163 413.432C131.195 413.432 129.587 413.06 128.339 412.316C127.115 411.572 126.503 410.648 126.503 409.544C126.503 408.92 126.695 408.44 127.079 408.104C127.487 407.744 128.003 407.564 128.627 407.564C129.371 407.564 129.983 407.768 130.463 408.176C130.463 409.424 130.703 410.348 131.183 410.948C131.687 411.548 132.443 411.848 133.451 411.848C134.315 411.848 134.999 411.644 135.503 411.236C136.007 410.804 136.259 410.228 136.259 409.508C136.259 408.908 136.079 408.428 135.719 408.068C135.359 407.684 134.891 407.372 134.315 407.132C133.763 406.868 133.151 406.616 132.479 406.376C131.663 406.088 130.847 405.752 130.031 405.368C129.239 404.96 128.567 404.432 128.015 403.784C127.487 403.112 127.223 402.26 127.223 401.228C127.223 399.74 127.823 398.564 129.023 397.7C130.223 396.812 131.867 396.368 133.955 396.368C135.131 396.368 136.163 396.512 137.051 396.8C137.963 397.064 138.671 397.448 139.175 397.952C139.703 398.456 139.967 399.032 139.967 399.68C139.967 400.256 139.763 400.712 139.355 401.048C138.971 401.384 138.467 401.552 137.843 401.552C137.243 401.552 136.727 401.36 136.295 400.976C136.295 400.016 136.055 399.272 135.575 398.744C135.095 398.216 134.411 397.952 133.523 397.952C132.803 397.952 132.227 398.12 131.795 398.456C131.387 398.792 131.183 399.248 131.183 399.824C131.183 400.352 131.351 400.796 131.687 401.156C132.023 401.492 132.467 401.78 133.019 402.02C133.595 402.236 134.195 402.464 134.819 402.704C135.707 403.016 136.583 403.376 137.447 403.784C138.335 404.192 139.067 404.732 139.643 405.404C140.219 406.076 140.507 406.976 140.507 408.104C140.507 409.208 140.207 410.156 139.607 410.948C139.007 411.74 138.155 412.352 137.051 412.784C135.947 413.216 134.651 413.432 133.163 413.432Z" fill="white"/>
<path d="M144.401 413C144.401 412.424 144.449 411.992 144.545 411.704C144.641 411.416 144.785 411.236 144.977 411.164L147.245 410.336L146.849 410.876V388.844L147.281 389.384L144.941 388.844C144.581 388.748 144.401 388.16 144.401 387.08C145.313 386.936 146.153 386.816 146.921 386.72C147.713 386.624 148.529 386.576 149.369 386.576C150.713 386.576 151.385 387.344 151.385 388.88V410.768L150.953 410.264L154.085 411.02C154.085 411.476 154.037 411.848 153.941 412.136C153.845 412.4 153.665 412.688 153.401 413H144.401Z" fill="white"/>
<path d="M161.834 413.432C160.706 413.432 159.782 413.096 159.062 412.424C158.342 411.728 157.982 410.828 157.982 409.724C157.982 408.38 158.426 407.264 159.314 406.376C160.226 405.464 161.558 404.816 163.31 404.432L168.062 403.316L167.594 403.856V401.48C167.594 400.256 167.414 399.38 167.054 398.852C166.718 398.3 166.154 398.024 165.362 398.024C164.426 398.024 163.706 398.336 163.202 398.96C162.698 399.584 162.446 400.52 162.446 401.768C162.278 401.936 162.038 402.08 161.726 402.2C161.438 402.296 161.114 402.344 160.754 402.344C160.154 402.344 159.686 402.188 159.35 401.876C159.014 401.564 158.846 401.144 158.846 400.616C158.846 399.8 159.158 399.08 159.782 398.456C160.406 397.808 161.258 397.304 162.338 396.944C163.442 396.56 164.666 396.368 166.01 396.368C168.05 396.368 169.586 396.836 170.618 397.772C171.65 398.708 172.166 400.124 172.166 402.02V409.616C172.166 410.048 172.238 410.372 172.382 410.588C172.55 410.78 172.826 410.876 173.21 410.876C173.45 410.876 173.702 410.828 173.966 410.732C174.254 410.612 174.482 410.492 174.65 410.372L175.01 411.776C174.506 412.256 173.87 412.652 173.102 412.964C172.358 413.276 171.65 413.432 170.978 413.432C170.018 413.432 169.262 413.168 168.71 412.64C168.158 412.088 167.882 411.344 167.882 410.408H167.666C166.946 411.344 166.058 412.088 165.002 412.64C163.946 413.168 162.89 413.432 161.834 413.432ZM164.102 410.84C164.774 410.84 165.47 410.636 166.19 410.228C166.934 409.82 167.546 409.304 168.026 408.68L167.666 409.58V404.864L168.242 404.936L164.57 405.836C163.754 406.004 163.118 406.34 162.662 406.844C162.23 407.324 162.014 407.912 162.014 408.608C162.014 409.28 162.206 409.82 162.59 410.228C162.974 410.636 163.478 410.84 164.102 410.84Z" fill="white"/>
<path d="M186.187 422.72C183.883 422.72 182.035 422.264 180.643 421.352C179.275 420.464 178.591 419.276 178.591 417.788C178.591 416.42 179.323 415.736 180.787 415.736C181.147 415.736 181.507 415.772 181.867 415.844C182.251 415.94 182.611 416.06 182.947 416.204C182.947 417.836 183.283 419.06 183.955 419.876C184.651 420.692 185.683 421.1 187.051 421.1C188.275 421.1 189.259 420.8 190.003 420.2C190.747 419.6 191.119 418.796 191.119 417.788C191.119 417.092 190.963 416.528 190.651 416.096C190.363 415.688 189.835 415.376 189.067 415.16C188.323 414.944 187.279 414.776 185.935 414.656C184.015 414.488 182.671 414.2 181.903 413.792C181.159 413.384 180.787 412.748 180.787 411.884C180.787 411.068 181.087 410.288 181.687 409.544C182.287 408.8 183.115 408.212 184.171 407.78L184.819 408.176C184.579 408.44 184.387 408.716 184.243 409.004C184.123 409.268 184.063 409.544 184.063 409.832C184.063 410.168 184.147 410.432 184.315 410.624C184.483 410.792 184.819 410.936 185.323 411.056C185.851 411.152 186.631 411.248 187.663 411.344C190.159 411.56 191.995 412.076 193.171 412.892C194.371 413.708 194.971 414.896 194.971 416.456C194.971 417.704 194.611 418.796 193.891 419.732C193.171 420.692 192.151 421.424 190.831 421.928C189.535 422.456 187.987 422.72 186.187 422.72ZM185.575 408.752C183.511 408.752 181.879 408.236 180.679 407.204C179.479 406.148 178.879 404.732 178.879 402.956C178.879 401.66 179.203 400.52 179.851 399.536C180.523 398.528 181.435 397.748 182.587 397.196C183.739 396.644 185.083 396.368 186.619 396.368C188.035 396.368 189.259 396.62 190.291 397.124C191.323 397.604 192.127 398.288 192.703 399.176C193.279 400.064 193.567 401.096 193.567 402.272C193.567 403.544 193.231 404.66 192.559 405.62C191.887 406.58 190.951 407.348 189.751 407.924C188.551 408.476 187.159 408.752 185.575 408.752ZM186.295 407.024C187.183 407.024 187.879 406.652 188.383 405.908C188.911 405.164 189.175 404.144 189.175 402.848C189.175 401.336 188.911 400.172 188.383 399.356C187.855 398.516 187.075 398.096 186.043 398.096C185.203 398.096 184.531 398.468 184.027 399.212C183.547 399.956 183.307 400.988 183.307 402.308C183.307 403.868 183.559 405.044 184.063 405.836C184.567 406.628 185.311 407.024 186.295 407.024ZM193.351 398.744C193.015 398.744 192.607 398.732 192.127 398.708C191.647 398.66 191.179 398.6 190.723 398.528C190.291 398.456 189.931 398.372 189.643 398.276L189.319 397.52L194.935 395.648C195.079 395.888 195.199 396.164 195.295 396.476C195.391 396.788 195.439 397.064 195.439 397.304C195.439 398.264 194.743 398.744 193.351 398.744Z" fill="white"/>
<path d="M206.03 413.432C204.446 413.432 203.054 413.096 201.854 412.424C200.654 411.752 199.718 410.816 199.046 409.616C198.398 408.416 198.074 407.024 198.074 405.44C198.074 403.712 198.458 402.164 199.226 400.796C199.994 399.428 201.026 398.348 202.322 397.556C203.642 396.764 205.106 396.368 206.714 396.368C208.106 396.368 209.318 396.668 210.35 397.268C211.382 397.844 212.174 398.66 212.726 399.716C213.302 400.748 213.59 401.972 213.59 403.388C213.59 403.988 213.506 404.384 213.338 404.576C213.17 404.744 212.906 404.828 212.546 404.828H201.314V403.136L209.81 402.92L209.414 403.46C209.438 402.308 209.33 401.336 209.09 400.544C208.85 399.728 208.502 399.116 208.046 398.708C207.59 398.276 207.038 398.06 206.39 398.06C205.382 398.06 204.554 398.6 203.906 399.68C203.258 400.736 202.934 402.212 202.934 404.108C202.934 405.524 203.138 406.748 203.546 407.78C203.954 408.812 204.554 409.604 205.346 410.156C206.138 410.684 207.11 410.948 208.262 410.948C209.15 410.948 209.99 410.756 210.782 410.372C211.574 409.988 212.342 409.436 213.086 408.716L213.662 410.012C213.11 410.684 212.426 411.284 211.61 411.812C210.794 412.316 209.906 412.712 208.946 413C208.01 413.288 207.038 413.432 206.03 413.432Z" fill="white"/>
<path d="M218.266 413C218.266 411.944 218.458 411.332 218.842 411.164L220.894 410.336L220.498 410.948V399.032L220.93 399.572L218.806 399.032C218.638 398.984 218.506 398.816 218.41 398.528C218.314 398.216 218.266 397.796 218.266 397.268C219.442 397.076 220.342 396.944 220.966 396.872C221.59 396.8 222.106 396.764 222.514 396.764C223.354 396.764 223.942 396.944 224.278 397.304C224.614 397.664 224.782 398.288 224.782 399.176V400.4L224.458 400.04H224.998C225.55 398.936 226.27 398.048 227.158 397.376C228.046 396.704 228.922 396.368 229.786 396.368C230.794 396.368 231.538 396.596 232.018 397.052C232.498 397.508 232.738 398.132 232.738 398.924C232.738 399.524 232.522 400.052 232.09 400.508C231.682 400.94 231.166 401.156 230.542 401.156C230.254 400.58 229.93 400.184 229.57 399.968C229.234 399.728 228.838 399.608 228.382 399.608C227.806 399.608 227.182 399.836 226.51 400.292C225.838 400.748 225.262 401.324 224.782 402.02L225.034 401.156V410.984L224.53 410.192L227.842 411.02C227.842 411.452 227.794 411.812 227.698 412.1C227.602 412.388 227.422 412.688 227.158 413H218.266Z" fill="white"/>
<path d="M251.468 413.432C250.244 413.432 249.152 413.12 248.192 412.496C247.256 411.848 246.524 410.948 245.996 409.796C245.492 408.62 245.24 407.264 245.24 405.728C245.24 403.88 245.588 402.26 246.284 400.868C247.004 399.452 247.988 398.348 249.236 397.556C250.484 396.764 251.924 396.368 253.556 396.368C254.252 396.368 254.96 396.44 255.68 396.584C256.4 396.728 257.108 396.944 257.804 397.232L257.48 397.664V388.808L257.912 389.348L255.572 388.844C255.212 388.772 255.032 388.184 255.032 387.08C256.136 386.888 257.024 386.756 257.696 386.684C258.368 386.612 258.92 386.576 259.352 386.576C260.264 386.576 260.936 386.756 261.368 387.116C261.8 387.476 262.016 388.064 262.016 388.88V409.616C262.016 410.048 262.1 410.372 262.268 410.588C262.436 410.78 262.7 410.876 263.06 410.876C263.324 410.876 263.588 410.828 263.852 410.732C264.14 410.636 264.356 410.528 264.5 410.408L264.86 411.776C264.332 412.28 263.696 412.688 262.952 413C262.208 413.288 261.476 413.432 260.756 413.432C259.82 413.432 259.088 413.156 258.56 412.604C258.032 412.052 257.768 411.296 257.768 410.336H257.516C256.916 411.224 256.076 411.968 254.996 412.568C253.94 413.144 252.764 413.432 251.468 413.432ZM253.88 410.624C254.528 410.624 255.092 410.516 255.572 410.3C256.076 410.06 256.52 409.748 256.904 409.364C257.312 408.956 257.672 408.536 257.984 408.104L257.552 409.076V398.816L257.984 399.86C257.528 399.38 257.024 399.008 256.472 398.744C255.92 398.48 255.26 398.348 254.492 398.348C253.1 398.348 252.008 398.924 251.216 400.076C250.448 401.204 250.064 402.812 250.064 404.9C250.064 406.772 250.388 408.2 251.036 409.184C251.684 410.144 252.632 410.624 253.88 410.624Z" fill="white"/>
<path d="M276.547 413.432C274.963 413.432 273.571 413.096 272.371 412.424C271.171 411.752 270.235 410.816 269.563 409.616C268.915 408.416 268.591 407.024 268.591 405.44C268.591 403.712 268.975 402.164 269.743 400.796C270.511 399.428 271.543 398.348 272.839 397.556C274.159 396.764 275.623 396.368 277.231 396.368C278.623 396.368 279.835 396.668 280.867 397.268C281.899 397.844 282.691 398.66 283.243 399.716C283.819 400.748 284.107 401.972 284.107 403.388C284.107 403.988 284.023 404.384 283.855 404.576C283.687 404.744 283.423 404.828 283.063 404.828H271.831V403.136L280.327 402.92L279.931 403.46C279.955 402.308 279.847 401.336 279.607 400.544C279.367 399.728 279.019 399.116 278.563 398.708C278.107 398.276 277.555 398.06 276.907 398.06C275.899 398.06 275.071 398.6 274.423 399.68C273.775 400.736 273.451 402.212 273.451 404.108C273.451 405.524 273.655 406.748 274.063 407.78C274.471 408.812 275.071 409.604 275.863 410.156C276.655 410.684 277.627 410.948 278.779 410.948C279.667 410.948 280.507 410.756 281.299 410.372C282.091 409.988 282.859 409.436 283.603 408.716L284.179 410.012C283.627 410.684 282.943 411.284 282.127 411.812C281.311 412.316 280.423 412.712 279.463 413C278.527 413.288 277.555 413.432 276.547 413.432Z" fill="white"/>
<path d="M305.37 413.36C305.106 413.36 304.806 413.324 304.47 413.252C304.158 413.204 303.894 413.144 303.678 413.072L298.998 399.14L299.79 399.752L297.09 399.032C297.09 398.576 297.138 398.204 297.234 397.916C297.33 397.628 297.51 397.34 297.774 397.052H305.766C305.766 398.228 305.574 398.876 305.19 398.996L302.958 399.68L303.462 398.924L307.062 409.76H305.838L309.762 398.6H312.03L316.422 409.76H315.414L318.726 399.032L318.978 399.68L316.566 399.032C316.566 398.432 316.614 398 316.71 397.736C316.806 397.472 316.986 397.244 317.25 397.052H323.118C323.118 397.628 323.07 398.06 322.974 398.348C322.878 398.636 322.734 398.816 322.542 398.888L320.49 399.644L321.246 398.924L316.998 412.136C316.71 412.952 316.05 413.36 315.018 413.36C314.754 413.36 314.454 413.324 314.118 413.252C313.806 413.204 313.542 413.144 313.326 413.072L309.366 402.992H310.59L307.35 412.136C307.062 412.952 306.402 413.36 305.37 413.36Z" fill="white"/>
<path d="M329.417 413.432C328.289 413.432 327.365 413.096 326.645 412.424C325.925 411.728 325.565 410.828 325.565 409.724C325.565 408.38 326.009 407.264 326.897 406.376C327.809 405.464 329.141 404.816 330.893 404.432L335.645 403.316L335.177 403.856V401.48C335.177 400.256 334.997 399.38 334.637 398.852C334.301 398.3 333.737 398.024 332.945 398.024C332.009 398.024 331.289 398.336 330.785 398.96C330.281 399.584 330.029 400.52 330.029 401.768C329.861 401.936 329.621 402.08 329.309 402.2C329.021 402.296 328.697 402.344 328.337 402.344C327.737 402.344 327.269 402.188 326.933 401.876C326.597 401.564 326.429 401.144 326.429 400.616C326.429 399.8 326.741 399.08 327.365 398.456C327.989 397.808 328.841 397.304 329.921 396.944C331.025 396.56 332.249 396.368 333.593 396.368C335.633 396.368 337.169 396.836 338.201 397.772C339.233 398.708 339.749 400.124 339.749 402.02V409.616C339.749 410.048 339.821 410.372 339.965 410.588C340.133 410.78 340.409 410.876 340.793 410.876C341.033 410.876 341.285 410.828 341.549 410.732C341.837 410.612 342.065 410.492 342.233 410.372L342.593 411.776C342.089 412.256 341.453 412.652 340.685 412.964C339.941 413.276 339.233 413.432 338.561 413.432C337.601 413.432 336.845 413.168 336.293 412.64C335.741 412.088 335.465 411.344 335.465 410.408H335.249C334.529 411.344 333.641 412.088 332.585 412.64C331.529 413.168 330.473 413.432 329.417 413.432ZM331.685 410.84C332.357 410.84 333.053 410.636 333.773 410.228C334.517 409.82 335.129 409.304 335.609 408.68L335.249 409.58V404.864L335.825 404.936L332.153 405.836C331.337 406.004 330.701 406.34 330.245 406.844C329.813 407.324 329.597 407.912 329.597 408.608C329.597 409.28 329.789 409.82 330.173 410.228C330.557 410.636 331.061 410.84 331.685 410.84Z" fill="white"/>
<path d="M354.202 413.432C352.618 413.432 351.214 413.108 349.99 412.46C348.766 411.788 347.818 410.852 347.146 409.652C346.498 408.452 346.174 407.048 346.174 405.44C346.174 403.664 346.558 402.104 347.326 400.76C348.094 399.392 349.138 398.324 350.458 397.556C351.802 396.764 353.326 396.368 355.03 396.368C356.254 396.368 357.358 396.56 358.342 396.944C359.35 397.328 360.142 397.856 360.718 398.528C361.294 399.176 361.582 399.896 361.582 400.688C361.582 401.264 361.39 401.72 361.006 402.056C360.622 402.392 360.082 402.56 359.386 402.56C359.098 402.56 358.81 402.524 358.522 402.452C358.258 402.356 357.994 402.236 357.73 402.092C357.73 400.772 357.478 399.776 356.974 399.104C356.494 398.408 355.774 398.06 354.814 398.06C353.59 398.06 352.642 398.6 351.97 399.68C351.322 400.76 350.998 402.296 350.998 404.288C350.998 406.52 351.418 408.188 352.258 409.292C353.098 410.396 354.37 410.948 356.074 410.948C356.962 410.948 357.826 410.792 358.666 410.48C359.506 410.144 360.346 409.64 361.186 408.968L361.762 410.264C361.21 410.888 360.526 411.44 359.71 411.92C358.918 412.4 358.042 412.772 357.082 413.036C356.146 413.3 355.186 413.432 354.202 413.432Z" fill="white"/>
<path d="M365.653 413C365.653 411.896 365.845 411.284 366.229 411.164L368.281 410.336L367.885 410.948V388.844L368.281 389.384L366.193 388.844C365.833 388.748 365.653 388.16 365.653 387.08C366.781 386.888 367.657 386.756 368.281 386.684C368.929 386.612 369.457 386.576 369.865 386.576C370.681 386.576 371.269 386.756 371.629 387.116C371.989 387.476 372.169 388.052 372.169 388.844V400.112L371.917 399.788H372.421C373.453 398.732 374.581 397.904 375.805 397.304C377.053 396.68 378.229 396.368 379.333 396.368C382.093 396.368 383.473 398.24 383.473 401.984V410.768L383.077 410.264L385.705 411.02C385.705 411.476 385.657 411.848 385.561 412.136C385.489 412.4 385.321 412.688 385.057 413H377.137C377.137 411.896 377.329 411.284 377.713 411.164L379.297 410.588L378.937 411.2V402.524C378.937 400.484 378.181 399.464 376.669 399.464C376.045 399.464 375.445 399.584 374.869 399.824C374.317 400.064 373.813 400.364 373.357 400.724C372.925 401.06 372.577 401.384 372.313 401.696L372.421 401.228V410.984L371.989 410.48L374.185 411.02C374.185 411.476 374.137 411.848 374.041 412.136C373.969 412.4 373.801 412.688 373.537 413H365.653Z" fill="white"/>
<path d="M395.44 413.432C394.048 413.432 393.016 412.988 392.344 412.1C391.696 411.212 391.372 409.952 391.372 408.32V394.064C391.708 393.824 392.128 393.596 392.632 393.38C393.136 393.164 393.676 392.984 394.252 392.84C394.828 392.672 395.38 392.564 395.908 392.516V407.672C395.908 408.584 396.052 409.268 396.34 409.724C396.652 410.156 397.168 410.372 397.888 410.372C398.344 410.372 398.836 410.288 399.364 410.12C399.892 409.928 400.42 409.64 400.948 409.256L401.632 410.552C401.32 411.008 400.84 411.464 400.192 411.92C399.544 412.352 398.812 412.712 397.996 413C397.18 413.288 396.328 413.432 395.44 413.432ZM399.796 399.5L389.032 399.212C389.032 398.756 389.08 398.324 389.176 397.916C389.296 397.484 389.452 397.196 389.644 397.052L400.624 396.512C400.696 396.656 400.744 396.8 400.768 396.944C400.792 397.088 400.804 397.232 400.804 397.376C400.804 397.928 400.72 398.396 400.552 398.78C400.384 399.14 400.132 399.38 399.796 399.5Z" fill="white"/>
<path d="M412.299 413.432C410.715 413.432 409.323 413.096 408.123 412.424C406.923 411.752 405.987 410.816 405.315 409.616C404.667 408.416 404.343 407.024 404.343 405.44C404.343 403.712 404.727 402.164 405.495 400.796C406.263 399.428 407.295 398.348 408.591 397.556C409.911 396.764 411.375 396.368 412.983 396.368C414.375 396.368 415.587 396.668 416.619 397.268C417.651 397.844 418.443 398.66 418.995 399.716C419.571 400.748 419.859 401.972 419.859 403.388C419.859 403.988 419.775 404.384 419.607 404.576C419.439 404.744 419.175 404.828 418.815 404.828H407.583V403.136L416.079 402.92L415.683 403.46C415.707 402.308 415.599 401.336 415.359 400.544C415.119 399.728 414.771 399.116 414.315 398.708C413.859 398.276 413.307 398.06 412.659 398.06C411.651 398.06 410.823 398.6 410.175 399.68C409.527 400.736 409.203 402.212 409.203 404.108C409.203 405.524 409.407 406.748 409.815 407.78C410.223 408.812 410.823 409.604 411.615 410.156C412.407 410.684 413.379 410.948 414.531 410.948C415.419 410.948 416.259 410.756 417.051 410.372C417.843 409.988 418.611 409.436 419.355 408.716L419.931 410.012C419.379 410.684 418.695 411.284 417.879 411.812C417.063 412.316 416.175 412.712 415.215 413C414.279 413.288 413.307 413.432 412.299 413.432Z" fill="white"/>
<path d="M424.535 413C424.535 411.944 424.727 411.332 425.111 411.164L427.163 410.336L426.767 410.948V399.032L427.199 399.572L425.075 399.032C424.907 398.984 424.775 398.816 424.679 398.528C424.583 398.216 424.535 397.796 424.535 397.268C425.711 397.076 426.611 396.944 427.235 396.872C427.859 396.8 428.375 396.764 428.783 396.764C429.623 396.764 430.211 396.944 430.547 397.304C430.883 397.664 431.051 398.288 431.051 399.176V400.4L430.727 400.04H431.267C431.819 398.936 432.539 398.048 433.427 397.376C434.315 396.704 435.191 396.368 436.055 396.368C437.063 396.368 437.807 396.596 438.287 397.052C438.767 397.508 439.007 398.132 439.007 398.924C439.007 399.524 438.791 400.052 438.359 400.508C437.951 400.94 437.435 401.156 436.811 401.156C436.523 400.58 436.199 400.184 435.839 399.968C435.503 399.728 435.107 399.608 434.651 399.608C434.075 399.608 433.451 399.836 432.779 400.292C432.107 400.748 431.531 401.324 431.051 402.02L431.303 401.156V410.984L430.799 410.192L434.111 411.02C434.111 411.452 434.063 411.812 433.967 412.1C433.871 412.388 433.691 412.688 433.427 413H424.535Z" fill="white"/>
</g>
<defs>
<clipPath id="clip0_452_399">
<rect width="490" height="423" fill="white"/>
</clipPath>
</defs>
</svg>
