<svg width="479" height="50" viewBox="0 0 479 50" fill="none" xmlns="http://www.w3.org/2000/svg">
<path d="M29.3121 3.96796L28.6081 8.83196H17.7921V48H11.8401V8.83196H0.704102V3.96796H29.3121Z" fill="white"/>
<path d="M67.0851 30.144C67.0851 31.04 67.0424 32.0426 66.9571 33.152H47.3731C47.5438 37.0773 48.3331 39.9146 49.7411 41.664C51.1491 43.3706 53.0691 44.224 55.5011 44.224C57.0371 44.224 58.4024 43.9893 59.5971 43.52C60.8344 43.0506 62.1144 42.2826 63.4371 41.216L65.9971 44.608C62.8398 47.424 59.2558 48.832 55.2451 48.832C50.8504 48.832 47.4371 47.3173 45.0051 44.288C42.6158 41.216 41.4211 36.928 41.4211 31.424C41.4211 25.92 42.5731 21.568 44.8771 18.368C47.1811 15.1253 50.3811 13.504 54.4771 13.504C58.5304 13.504 61.6451 14.9546 63.8211 17.856C65.9971 20.7146 67.0851 24.8106 67.0851 30.144ZM61.5171 28.416C61.5171 21.376 59.1918 17.856 54.5411 17.856C52.4078 17.856 50.7224 18.752 49.4851 20.544C48.2478 22.2933 47.5438 25.152 47.3731 29.12H61.5171V28.416Z" fill="white"/>
<path d="M98.9156 29.952L109.284 48H102.948L95.3956 33.408L87.9076 48H81.7636L92.1316 30.208L82.9156 14.336H89.1876L95.5236 26.88L101.86 14.336H107.94L98.9156 29.952Z" fill="white"/>
<path d="M142.85 46.528C140.717 48.064 138.349 48.832 135.746 48.832C133.015 48.832 130.903 48.0426 129.41 46.464C127.959 44.8853 127.234 42.6666 127.234 39.808V18.688H122.434V14.336H127.234V6.59196L132.994 5.88796V14.336H140.418L139.778 18.688H132.994V39.744C132.994 42.6453 134.21 44.096 136.642 44.096C137.367 44.096 138.029 43.9893 138.626 43.776C139.266 43.5626 139.97 43.2426 140.738 42.816L142.85 46.528Z" fill="white"/>
<path d="M183.116 48H178.124L177.804 42.944C175.457 46.8693 172.321 48.832 168.396 48.832C165.708 48.832 163.596 47.9573 162.06 46.208C160.524 44.4586 159.756 42.0906 159.756 39.104V14.336H165.516V38.592C165.516 40.5546 165.878 42.0053 166.604 42.944C167.372 43.84 168.502 44.288 169.996 44.288C172.854 44.288 175.308 42.4106 177.356 38.656V14.336H183.116V48Z" fill="white"/>
<path d="M219.496 13.568C220.605 13.568 221.565 13.696 222.376 13.952L221.416 19.52C220.605 19.264 219.73 19.136 218.792 19.136C216.914 19.136 215.378 19.8826 214.184 21.376C213.032 22.8693 212.114 25.152 211.432 28.224V48H205.672V14.336H210.664L211.112 20.992C212.776 16.0426 215.57 13.568 219.496 13.568Z" fill="white"/>
<path d="M261.948 30.144C261.948 31.04 261.905 32.0426 261.82 33.152H242.236C242.406 37.0773 243.196 39.9146 244.604 41.664C246.012 43.3706 247.932 44.224 250.364 44.224C251.9 44.224 253.265 43.9893 254.46 43.52C255.697 43.0506 256.977 42.2826 258.3 41.216L260.86 44.608C257.702 47.424 254.118 48.832 250.108 48.832C245.713 48.832 242.3 47.3173 239.868 44.288C237.478 41.216 236.284 36.928 236.284 31.424C236.284 25.92 237.436 21.568 239.74 18.368C242.044 15.1253 245.244 13.504 249.34 13.504C253.393 13.504 256.508 14.9546 258.684 17.856C260.86 20.7146 261.948 24.8106 261.948 30.144ZM256.38 28.416C256.38 21.376 254.054 17.856 249.404 17.856C247.27 17.856 245.585 18.752 244.348 20.544C243.11 22.2933 242.406 25.152 242.236 29.12H256.38V28.416Z" fill="white"/>
<path d="M306.053 0.703964V48H300.933L300.549 43.584C298.373 47.0826 295.45 48.832 291.781 48.832C288.111 48.832 285.253 47.2746 283.205 44.16C281.199 41.0453 280.197 36.7573 280.197 31.296C280.197 27.7546 280.687 24.64 281.669 21.952C282.693 19.264 284.122 17.1946 285.957 15.744C287.791 14.2506 289.903 13.504 292.293 13.504C295.493 13.504 298.159 14.848 300.293 17.536V0.0639648L306.053 0.703964ZM293.125 44.288C294.661 44.288 295.983 43.8613 297.093 43.008C298.245 42.1546 299.311 40.896 300.293 39.232V22.336C298.373 19.4773 296.133 18.048 293.573 18.048C291.311 18.048 289.519 19.136 288.197 21.312C286.874 23.488 286.234 26.7733 286.277 31.168C286.277 35.648 286.874 38.9546 288.069 41.088C289.263 43.2213 290.949 44.288 293.125 44.288Z" fill="white"/>
<path d="M363.982 3.45596V48H351.054V3.45596H363.982Z" fill="white"/>
<path d="M401.453 12.544C404.055 12.544 406.103 13.4186 407.597 15.168C409.09 16.9173 409.837 19.3493 409.837 22.464V48H397.421V24.128C397.421 22.5493 396.994 21.76 396.141 21.76C395.33 21.76 394.263 22.784 392.941 24.832V48H380.525V13.824H391.405L392.237 17.344C393.602 15.68 395.01 14.464 396.461 13.696C397.911 12.928 399.575 12.544 401.453 12.544Z" fill="white"/>
<path d="M441.359 12.544C445.753 12.544 449.551 14.0373 452.751 17.024L447.695 24C445.86 22.5493 444.132 21.824 442.511 21.824C440.847 21.824 439.631 22.5066 438.863 23.872C438.095 25.1946 437.711 27.6266 437.711 31.168C437.711 34.496 438.116 36.7573 438.927 37.952C439.737 39.1466 440.911 39.744 442.447 39.744C443.3 39.744 444.089 39.5946 444.815 39.296C445.54 38.9973 446.415 38.5066 447.439 37.824L452.751 45.12C449.551 47.8933 445.839 49.28 441.615 49.28C436.367 49.28 432.249 47.68 429.263 44.48C426.276 41.28 424.783 36.8426 424.783 31.168C424.783 27.456 425.465 24.192 426.831 21.376C428.196 18.56 430.116 16.384 432.591 14.848C435.108 13.312 438.031 12.544 441.359 12.544Z" fill="white"/>
<path d="M472.157 36.288C473.991 36.288 475.506 36.928 476.701 38.208C477.938 39.488 478.557 41.024 478.557 42.816C478.557 44.5653 477.938 46.08 476.701 47.36C475.506 48.64 473.991 49.28 472.157 49.28C470.322 49.28 468.786 48.64 467.549 47.36C466.354 46.08 465.757 44.5653 465.757 42.816C465.757 41.024 466.354 39.488 467.549 38.208C468.786 36.928 470.322 36.288 472.157 36.288Z" fill="white"/>
</svg>
