<svg width="2300" height="837" viewBox="0 0 2300 837" fill="none" xmlns="http://www.w3.org/2000/svg">
<g clip-path="url(#clip0_9_2)">
<path d="M244.55 435.88C242.66 420.9 243.75 403.48 243.57 389.27C243.35 371.763 243.247 358.927 243.26 350.76C243.293 330.26 243.25 316.87 243.13 310.59C242.63 283.87 243.56 253.92 243.7 227.5C243.74 220.59 243.37 213.85 243.47 207.16C243.603 197.68 243.627 181.71 243.54 159.25C243.41 128.27 243.43 100.02 242.77 68.1701C242.13 36.9801 241.28 23.8 242.61 2.84005C242.631 2.47687 242.781 2.13302 243.032 1.86944C243.282 1.60586 243.618 1.43957 243.98 1.40004C258.3 -0.186622 272.81 -0.163281 287.51 1.47005C289.103 1.64339 289.913 2.42004 289.94 3.80004C290.22 17.6867 290.363 25.0034 290.37 25.7501C290.497 41.6634 290.243 80.6234 289.61 142.63C289.49 154.49 289.49 161.907 289.61 164.88C289.91 172.313 290.083 179.72 290.13 187.1C290.16 191.1 289.8 195.9 295.26 194.95C297.92 194.483 300.19 192.943 302.07 190.33C308.25 181.73 313.933 174.91 319.12 169.87C337.09 152.41 357.53 139.46 382.11 133.86C389.33 132.22 396.37 132.88 403.51 132.81C408.463 132.757 412.45 132.99 415.47 133.51C425.54 135.24 436.28 137.41 444.49 143.22C458.52 153.17 470.99 165.36 476.84 182.02C478.82 187.653 479.823 190.517 479.85 190.61C481.78 197.1 483.17 205.83 483.34 213.47C484.04 245.55 484.21 280.13 484.09 322.25C483.917 382.637 483.76 420.687 483.62 436.4C483.618 436.783 483.483 437.154 483.239 437.449C482.995 437.744 482.656 437.946 482.28 438.02C479 438.66 475.49 438.913 471.75 438.78C456.48 438.24 449.15 438.01 440.51 436.98C438.497 436.747 437.483 435.673 437.47 433.76C437.14 358.9 436.97 307.93 437.44 249.75C437.54 237.103 436.747 224.67 435.06 212.45C434.46 208.11 433.193 203.547 431.26 198.76C426.06 185.907 416.87 178.253 403.69 175.8C399.077 174.94 392.587 174.663 384.22 174.97C369.5 175.51 354.06 182.19 342.19 189.75C337.89 192.49 332.42 197.03 328.03 200.52C315.39 210.56 304.62 223.08 295.19 237.23C291.677 242.503 289.917 248.177 289.91 254.25C289.903 269.583 289.977 330.123 290.13 435.87C290.129 436.142 290.036 436.405 289.865 436.616C289.694 436.827 289.456 436.973 289.19 437.03C279.78 438.99 270.69 437.51 261.17 438.24C256.037 438.627 250.823 438.203 245.53 436.97C245.275 436.912 245.044 436.776 244.869 436.581C244.694 436.386 244.582 436.141 244.55 435.88Z" fill="white"/>
<path d="M75.87 430.55C76.0833 430.477 76.12 430.37 75.98 430.23C75.9734 430.217 75.9629 430.207 75.95 430.2C75.5967 430.007 75.2633 429.92 74.95 429.94C74.7683 429.953 74.5883 429.903 74.44 429.8C64.1 422.42 56.89 413.58 50.69 402.06C47.8034 396.693 45.3134 390.353 43.22 383.04C42.0267 378.853 41.2834 372.11 40.99 362.81C40.4967 346.877 40.4134 331.383 40.74 316.33C40.87 310.05 40.59 303 40.64 298C40.8267 279.873 40.8967 258.043 40.85 232.51C40.83 220.4 41.49 210.88 40.84 199.85C40.4933 193.97 40.3367 187.207 40.37 179.56C40.3767 177.713 39.5167 176.687 37.79 176.48C33.55 175.99 31.58 175.68 28.07 175.82C22.7967 176.027 18.1833 176.13 14.23 176.13C10.08 176.13 7.66002 175.69 3.66002 174.88C3.20682 174.787 2.79393 174.554 2.47858 174.216C2.16323 173.877 1.96102 173.449 1.90001 172.99L0.220019 160.49C0.173425 160.111 0.156703 159.729 0.170016 159.35L0.830019 140.37C0.840796 140.021 0.964627 139.685 1.18286 139.413C1.4011 139.141 1.70191 138.947 2.04001 138.86C4.61334 138.213 7.43668 137.94 10.51 138.04C17.15 138.26 23.81 138.523 30.49 138.83C33.2167 138.957 35.9034 138.687 38.55 138.02C38.9843 137.909 39.3729 137.664 39.6615 137.319C39.9502 136.975 40.1245 136.549 40.16 136.1C40.4667 131.773 40.4367 127.317 40.07 122.73C39.7634 118.983 39.73 115 39.97 110.78C40.5767 100.193 40.9133 92.1 40.98 86.5C41.02 83.39 43.19 83.52 45.96 83.24C69.84 80.8267 82.2934 79.5534 83.32 79.42C84.68 79.24 86.3467 79.2367 88.32 79.41C88.4466 79.4222 88.5694 79.46 88.681 79.5211C88.7925 79.5821 88.8905 79.6652 88.969 79.7652C89.0476 79.8652 89.105 79.9802 89.1378 80.103C89.1706 80.2259 89.1782 80.3542 89.16 80.48C88.53 84.87 89.04 90.28 89.08 95.95C89.1934 113.117 89.2 125.983 89.1 134.55C89.07 136.66 89.83 138.5 92.43 138.36C94.33 138.267 103.18 138.293 118.98 138.44C134.92 138.58 151.34 137.98 167.26 139.83C167.584 139.867 167.884 140.022 168.102 140.265C168.319 140.509 168.44 140.823 168.44 141.15V174.68C168.44 174.952 168.344 175.216 168.169 175.426C167.993 175.636 167.75 175.779 167.48 175.83C163.507 176.577 159.847 176.857 156.5 176.67C134.373 175.443 112.73 175.413 91.57 176.58C91.0824 176.61 90.6159 176.788 90.2333 177.09C89.8506 177.392 89.5703 177.804 89.43 178.27C89.01 179.657 88.7133 181.15 88.54 182.75C88.24 185.55 88.1833 191.267 88.37 199.9C89.09 233.91 88.65 298.08 89.04 348.75C89.11 357.68 89.42 366.83 92.44 374.88C95.14 382.08 97.59 389.2 103.35 394.21C110.15 400.13 116.64 403.99 125.06 406.14C134.97 408.67 142.75 410.26 152.04 407.75C156.933 406.43 161.84 405.733 166.76 405.66C166.913 405.657 167.064 405.685 167.206 405.742C167.348 405.8 167.477 405.885 167.586 405.993C167.695 406.101 167.782 406.229 167.841 406.371C167.9 406.513 167.93 406.666 167.93 406.82V437.07C167.93 437.605 167.76 438.127 167.443 438.557C167.126 438.987 166.68 439.304 166.17 439.46C158.69 441.727 149.543 443.413 138.73 444.52C128.03 445.613 117.14 445.07 106.06 442.89C105.4 442.757 102.727 441.893 98.04 440.3C97.7273 440.194 97.406 440.117 97.08 440.07C93.48 439.51 90.6267 438.723 88.52 437.71C84.3134 435.683 80.0933 433.34 75.86 430.68C75.8492 430.671 75.8406 430.66 75.8349 430.647C75.8292 430.634 75.8268 430.62 75.8278 430.607C75.8288 430.594 75.8333 430.582 75.8407 430.572C75.8481 430.562 75.8582 430.554 75.87 430.55Z" fill="white"/>
<path d="M813.86 391.83C813.956 391.828 814.052 391.848 814.14 391.888C814.228 391.928 814.306 391.987 814.368 392.061C814.43 392.134 814.475 392.221 814.5 392.314C814.524 392.408 814.528 392.505 814.51 392.6C813.897 395.84 813.673 399.643 813.84 404.01C814.127 411.637 814.247 418.72 814.2 425.26C814.193 426.64 813.99 427.743 813.59 428.57C813.436 428.885 813.171 429.128 812.85 429.25C809.63 430.497 807.433 431.257 806.26 431.53C798.307 433.383 790.927 435.163 784.12 436.87C771.15 440.12 759.06 441.6 748.25 443.5C742.63 444.49 736.89 444.31 730.17 444.77C725.703 445.083 721.593 445.087 717.84 444.78C712.98 444.39 706.6 444.44 701.46 443.67C683.2 440.923 667.267 435.987 653.66 428.86C645.753 424.72 637.247 418.793 628.14 411.08C618.66 403.047 609.63 392.73 601.05 380.13C598.183 375.917 595.437 371.113 592.81 365.72C587.2 354.17 582.93 343.68 580.63 330.42C579.903 326.233 578.56 319.283 576.6 309.57C576.093 307.05 575.817 302.193 575.77 295C575.75 291.727 575.777 285.707 575.85 276.94C575.93 267.22 577.62 257.45 579.2 247.06C579.94 242.233 580.77 238.377 581.69 235.49C584.37 227.12 586.51 218.54 590.28 210.76C604.29 181.84 624.44 157.67 653.2 143.3C661.63 139.09 668.75 137.32 678.47 134.94C683.897 133.613 688.74 132.88 693 132.74C706.84 132.28 718.85 132.69 732.09 135.92C762.7 143.38 786.53 165.79 798.48 194.75C802.26 203.91 804.39 208.2 806.61 216.59C809.95 229.24 813.07 241.76 813.72 254C814.047 260.22 814.383 265.06 814.73 268.52C815.62 277.52 815.3 285.2 815.86 294.52C815.87 294.675 815.847 294.831 815.794 294.978C815.741 295.124 815.659 295.258 815.552 295.372C815.445 295.485 815.316 295.575 815.173 295.637C815.03 295.699 814.876 295.73 814.72 295.73C745.82 295.397 684.747 295.293 631.5 295.42C628.427 295.427 625.347 295.573 622.26 295.86C622.099 295.875 621.944 295.927 621.807 296.011C621.669 296.095 621.552 296.209 621.465 296.345C621.379 296.481 621.324 296.635 621.306 296.795C621.287 296.956 621.306 297.118 621.36 297.27L622.96 301.81C623.073 302.136 623.15 302.471 623.19 302.81C624.03 310.177 625.31 318.14 627.03 326.7C628.18 332.37 631 339.7 632.99 344.76C635.837 351.993 639.82 359.597 644.94 367.57C652.47 379.31 662.42 388.82 674.74 395.39C684.753 400.717 695.253 404.343 706.24 406.27C707.713 406.53 713.05 407.3 722.25 408.58C729.457 409.587 736.247 409.513 742.62 408.36C749.65 407.08 757.14 406.89 762.26 405.81C778.547 402.377 794.267 397.993 809.42 392.66C810.887 392.14 812.367 391.863 813.86 391.83ZM768.44 254.72C768.127 253.2 767.95 251.92 767.91 250.88C767.443 238.88 766.07 228.033 763.79 218.34C762.817 214.193 761.737 210.6 760.55 207.56C758.24 201.65 755.16 194.02 750.79 189C741.82 178.69 729.69 171.12 715.92 169.63C707.767 168.743 699.883 168.56 692.27 169.08C683.163 169.7 675.477 171.313 669.21 173.92C650.78 181.6 638.98 197.82 632.69 216.65C631.177 221.183 630.127 224.327 629.54 226.08C626.3 235.69 626.63 245.73 623.86 255.32C623.819 255.472 623.822 255.632 623.87 255.783C623.918 255.934 624.008 256.068 624.13 256.17C625.163 257.037 626.373 257.483 627.76 257.51C635.8 257.67 646.92 258.08 658.08 258.05C682.493 257.977 708.55 258.037 736.25 258.23C747.637 258.303 755.97 258.227 761.25 258C763.517 257.9 765.383 257.66 766.85 257.28C767.394 257.14 767.862 256.796 768.159 256.319C768.455 255.842 768.556 255.269 768.44 254.72Z" fill="white"/>
<path d="M2263.46 660.27C2263.49 660.352 2263.49 660.44 2263.47 660.524C2263.45 660.608 2263.4 660.682 2263.33 660.739C2263.27 660.795 2263.19 660.83 2263.1 660.839C2263.01 660.848 2262.93 660.831 2262.85 660.79C2258.39 658.38 2253.22 655.47 2248.57 652.13C2243.18 648.27 2239.34 645.517 2237.05 643.87C2225.73 635.743 2217.01 627.23 2210.89 618.33C2205.94 611.137 2202.33 602.333 2200.06 591.92C2199.25 588.213 2198.88 583.64 2198.93 578.2C2198.98 572.27 2198.32 566.46 2198.43 559.94C2198.66 546.313 2198.72 530.98 2198.63 513.94C2198.31 452.29 2198.43 390.18 2198.12 333.33C2198.06 322.11 2198.69 309.03 2198.51 300C2198.26 286.89 2198.13 264.48 2198.72 246.59C2198.97 238.943 2198.87 231.49 2198.41 224.23C2197.69 212.757 2194.84 201.967 2189.87 191.86C2189.08 190.247 2187.83 188.573 2186.13 186.84C2179.08 179.66 2170.7 175.813 2161 175.3C2150.77 174.77 2139.46 174.67 2129.56 177.82C2121.93 180.24 2115.4 182.943 2109.95 185.93C2091.11 196.25 2074.92 211.87 2062.18 228.91C2057.82 234.73 2053.15 240.99 2052.43 247.88C2052.14 250.587 2052.03 255.793 2052.08 263.5C2052.33 296.78 2052.42 329.947 2052.37 363C2052.32 397.647 2052.3 414.98 2052.3 415C2051.99 427.473 2051.82 434.137 2051.78 434.99C2051.76 435.406 2051.62 435.806 2051.38 436.142C2051.13 436.479 2050.8 436.735 2050.41 436.88C2049.02 437.413 2047.54 437.677 2045.99 437.67C2039.57 437.65 2033.24 437.633 2027.01 437.62C2022.36 437.6 2009.76 437.27 2007.19 434.07C2006.99 433.814 2006.85 433.512 2006.79 433.19C2006.36 430.91 2006.63 428.91 2006.22 426.31C2005.48 421.703 2005.12 415.69 2005.15 408.27C2005.27 370.59 2005.24 335.167 2005.07 302C2005.03 294.82 2005.17 257.767 2005.5 190.84C2005.56 179.72 2004.71 168.45 2005.2 156.5C2005.29 154.313 2005.82 149.903 2006.79 143.27C2007.09 141.21 2007.5 140.47 2009.66 140.1C2023.13 137.82 2036.7 138.227 2050.36 141.32C2050.74 141.404 2051.08 141.632 2051.3 141.955C2051.52 142.279 2051.6 142.674 2051.54 143.06C2050.68 148.44 2051.48 153.41 2051.57 158.75C2051.64 163.063 2051.9 171.977 2052.34 185.49C2052.43 188.123 2052.82 190.357 2053.53 192.19C2055.35 196.88 2060.25 194.68 2062.67 191.92C2065.04 189.207 2068.52 185.067 2073.09 179.5C2077.59 174.033 2081.21 170.03 2083.94 167.49C2090.59 161.317 2095.43 157.14 2098.47 154.96C2098.95 154.613 2102.5 152.32 2109.13 148.08C2121.66 140.07 2137.06 134.92 2150.51 133.18C2159.84 131.967 2169.92 132.43 2180.73 134.57C2200.52 138.48 2216.91 148.96 2228.31 165.38C2232.82 171.88 2236.39 176.65 2238.89 183.54C2241.23 189.98 2243.59 198.64 2244.53 206.71C2246.17 220.67 2246.57 232.68 2245.73 242.74C2244.75 254.4 2244.3 264.573 2244.37 273.26C2244.38 274.793 2244.37 302.29 2244.33 355.75C2244.32 366.3 2245.15 378.5 2245.28 388.42C2245.51 407.447 2245.67 418.42 2245.76 421.34C2246.41 443.23 2246.04 456.17 2245.91 482C2245.9 483.367 2246.29 489.367 2247.08 500C2247.53 506.167 2247.86 515.68 2248.06 528.54C2248.15 534.24 2248.5 541.917 2249.1 551.57C2249.57 559.063 2249.73 566.75 2249.58 574.63C2249.55 576.083 2250.14 580.03 2251.34 586.47C2252.33 591.82 2251.99 600.8 2252.81 606.17C2253.4 610.063 2253.7 613.727 2253.72 617.16C2253.73 619.087 2254.27 622.793 2255.34 628.28C2256.45 633.96 2257.08 638.78 2257.21 642.74C2257.25 644.08 2258.73 648.55 2259.65 650.54C2260.92 653.287 2262.19 656.53 2263.46 660.27Z" fill="white"/>
<path d="M1341.07 436.25C1340.47 436.051 1339.95 435.673 1339.58 435.166C1339.21 434.659 1339 434.049 1338.99 433.42C1338.82 424.08 1338.77 415.86 1338.86 408.76C1339.08 390.81 1338.71 379.96 1338.84 364.75C1338.97 348.77 1339.07 327.757 1339.12 301.71C1339.17 276.49 1338.49 256.41 1339.3 235.9C1339.61 228.22 1338.84 218.97 1338.11 212.09C1337.3 204.357 1335.06 197.19 1331.4 190.59C1326.04 180.91 1318.23 176.6 1307.75 172.98C1300.23 170.387 1292.23 169.89 1283.76 171.49C1269.55 174.17 1256.73 179.857 1245.3 188.55C1231.29 199.21 1217.82 211.08 1207.18 225.41C1203.7 230.083 1201.41 233.787 1200.3 236.52C1199.46 238.587 1199.01 241.497 1198.96 245.25C1198.86 251.39 1198.83 259.057 1198.88 268.25C1198.93 278.437 1199.07 329.853 1199.28 422.5C1199.3 427.15 1199.79 431.68 1199.53 435.59C1199.49 436.213 1199.26 436.807 1198.86 437.29C1198.47 437.773 1197.93 438.119 1197.33 438.28C1194.98 438.9 1191.66 439.16 1189.19 438.92C1179.94 438.007 1171.34 437.933 1163.39 438.7C1159.8 439.05 1156.53 438.63 1153.94 438.03C1153.59 437.95 1153.27 437.758 1153.03 437.482C1152.8 437.207 1152.66 436.863 1152.63 436.5C1152.1 429.31 1151.55 420.97 1151.51 412.49C1151.32 365.577 1151.31 330.337 1151.46 306.77C1151.67 274.55 1151.03 235.89 1151.29 208.72C1151.42 193.87 1151 177.24 1151.13 161.84C1151.19 155.29 1152.36 149.29 1152.87 142.62C1152.92 142.03 1153.15 141.47 1153.54 141.021C1153.92 140.571 1154.44 140.256 1155.02 140.12C1161.16 138.7 1166.27 138.31 1173.38 138.6C1181.43 138.93 1189.09 138.8 1196.7 140.78C1197.14 140.893 1197.52 141.155 1197.78 141.52C1198.04 141.885 1198.17 142.331 1198.14 142.78C1197.97 145.26 1197.87 147.633 1197.84 149.9C1197.79 154.06 1199.59 160.08 1199.4 164.5C1199.15 170.307 1199.08 177.477 1199.19 186.01C1199.22 188.037 1199.54 189.923 1200.17 191.67C1200.38 192.248 1200.77 192.739 1201.3 193.064C1201.82 193.389 1202.44 193.528 1203.05 193.46C1205.35 193.207 1207.35 192.077 1209.06 190.07C1218.35 179.163 1223.06 173.623 1223.21 173.45C1227.16 168.977 1232.06 164.13 1237.91 158.91C1242.79 154.557 1247 151.28 1250.55 149.08C1260.15 143.12 1270.56 138.607 1281.78 135.54C1288.26 133.77 1292.85 132.84 1299.5 132.88C1316.21 132.97 1334.06 133.94 1348.24 144.03C1358.29 151.177 1366.91 159.96 1374.08 170.38C1378.33 176.55 1380.55 182.27 1384.46 190.65C1387.48 197.11 1392.71 196.7 1396.43 191.37C1404.2 180.217 1411.59 171.13 1418.62 164.11C1419.89 162.837 1423.09 159.96 1428.24 155.48C1434.34 150.17 1442.16 145.96 1450.33 141.58C1458.07 137.43 1467.08 135.2 1475.38 133.72C1483.15 132.33 1491.54 133 1499.22 133.05C1517.01 133.15 1532.25 139.91 1545.97 150.83C1548.39 152.75 1550.2 154.507 1551.4 156.1C1557.8 164.587 1562.79 173.877 1566.38 183.97C1567.85 188.117 1569.03 193.607 1569.94 200.44C1571.8 214.5 1571.91 228.16 1571.94 240.92C1572.01 277.193 1572.06 309.887 1572.1 339C1572.11 346.853 1572.11 351.02 1572.1 351.5C1571.9 360.993 1571.89 369.41 1572.06 376.75C1572.1 378.317 1572.07 391.357 1571.97 415.87C1571.94 423 1571.5 426.68 1570.89 434.38C1570.87 434.703 1570.76 435.014 1570.58 435.284C1570.4 435.554 1570.15 435.773 1569.86 435.92C1568.52 436.607 1566.92 437 1565.07 437.1C1552.54 437.81 1540.81 437.97 1528.83 436.04C1528.37 435.965 1527.94 435.737 1527.63 435.393C1527.31 435.048 1527.12 434.607 1527.08 434.14C1526.17 422.72 1525.63 413.54 1525.8 401.26C1525.99 386.74 1525.28 369 1525.59 352.84C1525.76 344.39 1525.48 336.76 1525.44 326.39C1525.33 299.117 1525.46 275.903 1525.82 256.75C1526 247.03 1526.02 237.697 1525.87 228.75C1525.81 225.13 1525.21 220.62 1524.99 218.15C1524.31 210.577 1522.37 203.13 1519.17 195.81C1513.76 183.43 1503 177.01 1489.52 175.21C1487.19 174.897 1481.76 174.913 1473.23 175.26C1455.13 176.01 1437.05 186.46 1423.38 197.4C1414.24 204.707 1405.92 212.47 1398.43 220.69C1392.43 227.26 1386.18 234.58 1386.13 243.93C1386.04 264.083 1386.03 311.07 1386.12 384.89C1386.13 399.34 1385.67 420.07 1386.06 436.33C1386.07 436.713 1385.94 437.085 1385.69 437.376C1385.44 437.666 1385.09 437.853 1384.71 437.9C1372.82 439.35 1361.76 438.54 1347.51 437.5C1345.24 437.333 1343.09 436.917 1341.07 436.25Z" fill="white"/>
<path d="M1901.78 391.44C1901.89 391.439 1902 391.463 1902.1 391.511C1902.2 391.558 1902.29 391.627 1902.36 391.714C1902.44 391.8 1902.49 391.901 1902.51 392.009C1902.54 392.117 1902.54 392.231 1902.52 392.34C1902.14 394.133 1901.86 396.52 1901.67 399.5C1901.57 401.133 1901.53 409.333 1901.56 424.1C1901.57 427.147 1900.24 429.057 1897.59 429.83C1884.82 433.543 1870.87 436.843 1855.72 439.73C1851.59 440.517 1847.77 441.103 1844.24 441.49C1839.19 442.04 1833.86 443.29 1828.89 443.72C1820.44 444.467 1811.36 444.647 1801.64 444.26C1791.89 443.88 1782.91 442.613 1774.68 440.46C1762.69 437.327 1752.3 433.64 1743.5 429.4C1733.53 424.593 1723.21 417.447 1712.54 407.96C1692.42 390.05 1678.57 366.08 1670.98 340.29C1669.67 335.85 1668.04 329.42 1666.09 321C1664.98 316.207 1664.35 311.837 1664.21 307.89C1664 301.69 1663.79 297.26 1663.6 294.6C1662.96 285.89 1663.65 276.27 1664.11 267.63C1664.73 255.9 1667.01 246.45 1671.15 231.74C1680.11 199.9 1697.52 174.123 1723.37 154.41C1731.48 148.223 1739.93 143.5 1748.72 140.24C1756.89 137.2 1765.64 134.63 1774.22 133.22C1776.07 132.92 1779.09 132.783 1783.3 132.81C1800.42 132.92 1811.05 132.48 1824.93 137.23C1832.92 139.97 1841.06 144.02 1849.34 149.38C1855.82 153.58 1861.63 158.677 1866.78 164.67C1881.28 181.53 1891.14 201.41 1896.09 223.8C1900.65 244.38 1901.78 263.67 1901.99 286C1902.02 288.54 1901.9 291.12 1901.65 293.74C1901.62 294.034 1901.5 294.311 1901.3 294.526C1901.1 294.742 1900.83 294.884 1900.54 294.93C1898.32 295.283 1895.97 295.453 1893.5 295.44C1835.73 295.127 1777.57 295.033 1719.02 295.16C1715.29 295.17 1708.19 295 1709.11 300.68C1710.13 307.013 1711.65 314.673 1713.68 323.66C1715.86 333.313 1718.08 340.797 1720.33 346.11C1723.84 354.39 1727.92 362.027 1732.55 369.02C1735.55 373.55 1739.81 377.6 1743.01 380.75C1756.8 394.283 1773.58 402.753 1793.35 406.16C1795.88 406.6 1801.94 407.523 1811.53 408.93C1815.93 409.577 1820.42 409.617 1825 409.05C1837.43 407.51 1849.93 406.5 1861.56 403.58C1873.13 400.687 1879.85 398.907 1881.72 398.24C1885.65 396.847 1890.31 395.02 1895.69 392.76C1897.76 391.893 1899.79 391.453 1901.78 391.44ZM1712.95 257.78C1714.3 258.153 1715.9 258.347 1717.75 258.36C1726.23 258.4 1761.57 258.447 1823.76 258.5C1832.61 258.51 1841.99 257.82 1849.77 257.57C1851.48 257.517 1853.27 257.097 1855.12 256.31C1855.58 256.114 1855.96 255.773 1856.21 255.338C1856.46 254.903 1856.56 254.398 1856.5 253.9C1855.61 246.84 1854.93 240.837 1854.44 235.89C1852.42 215.26 1847 195.97 1831 181.72C1826.93 178.087 1821.8 174.99 1815.62 172.43C1810.95 170.497 1805.09 169.26 1798.03 168.72C1788.8 168.02 1780.12 168.25 1771.99 169.41C1753.19 172.1 1737.17 182.83 1727.67 199.49C1724.12 205.73 1721.8 210.29 1720.71 213.17C1718.05 220.23 1716.52 225.037 1716.11 227.59C1715.12 233.837 1713.95 240.03 1712.6 246.17C1711.97 249.02 1711.53 253.08 1711.34 255.49C1711.3 255.998 1711.44 256.504 1711.73 256.921C1712.03 257.339 1712.46 257.642 1712.95 257.78Z" fill="white"/>
<path d="M1079.05 178.23C1077.51 178.62 1073.86 177.59 1070.24 176.78C1067.29 176.113 1064.77 175.707 1062.7 175.56C1052.73 174.86 1043.34 174.88 1033.63 177.91C1028.43 179.537 1022.48 181.987 1015.78 185.26C1005.67 190.2 997.89 196.51 990.29 204.15C980.06 214.44 972.05 224.57 965.85 237.33C964.91 239.263 964.387 241.737 964.28 244.75C964.24 246.003 964.123 251.743 963.93 261.97C963.75 271.23 964.38 283.91 964.19 293C963.93 304.873 963.893 313.847 964.08 319.92C964.34 328.37 963.68 338.48 963.91 345.25C964.23 354.623 964.283 363.233 964.07 371.08C963.903 376.887 963.993 385.5 964.34 396.92C964.62 406.027 964.507 419.04 964 435.96C963.988 436.298 963.865 436.622 963.649 436.881C963.434 437.14 963.138 437.319 962.81 437.39C958.9 438.23 955.77 438.38 951.38 438.11C942.48 437.577 935.667 437.313 930.94 437.32C927.42 437.327 923.79 436.86 920.05 435.92C919.409 435.761 918.84 435.391 918.434 434.869C918.028 434.346 917.808 433.702 917.81 433.04C917.83 426.55 916.98 420.83 917.17 414.28C917.563 400.5 917.713 387.41 917.62 375.01C917.24 322.38 917.7 227.67 917.43 159.92C917.41 153.54 918.29 147.81 919.22 142.31C919.319 141.732 919.599 141.199 920.02 140.79C920.44 140.38 920.979 140.114 921.56 140.03C929.88 138.85 935.01 137.85 942.55 138.32C949.903 138.787 956.103 139.457 961.15 140.33C964.74 140.95 964.06 143.93 963.89 146.84C963.817 148.013 963.837 149.29 963.95 150.67C964.957 162.77 965.257 174.963 964.85 187.25C964.79 189.017 965.087 190.703 965.74 192.31C965.99 192.921 966.453 193.421 967.043 193.717C967.633 194.013 968.311 194.085 968.95 193.92C972.67 192.96 974.8 190.78 977.1 187.01C982.007 179.01 988.48 170.677 996.52 162.01C1003.69 154.29 1011.37 148.14 1019.56 143.56C1023.73 141.227 1030.14 138.667 1038.79 135.88C1044.58 134.013 1050.76 133.047 1057.33 132.98C1064.85 132.907 1071.39 133.18 1076.96 133.8C1077.32 133.839 1077.66 134.008 1077.91 134.277C1078.15 134.546 1078.29 134.895 1078.3 135.26C1078.39 138.273 1078.39 141.603 1078.31 145.25C1078.02 158.263 1077.99 165.517 1078.24 167.01C1078.99 171.483 1079.5 174.873 1079.77 177.18C1079.79 177.413 1079.74 177.648 1079.6 177.841C1079.47 178.033 1079.28 178.171 1079.05 178.23Z" fill="white"/>
<path d="M1158.34 754.1C1152.69 755.68 1143.68 756.24 1143.14 748.5C1143.13 748.413 1143.12 748.326 1143.1 748.24C1142.37 744.593 1142.6 740.557 1143.79 736.13C1144.08 735.07 1144.04 733.57 1143.68 731.63C1143.65 731.451 1143.57 731.284 1143.44 731.145C1143.32 731.006 1143.17 730.901 1142.99 730.84C1140.9 730.14 1138.95 729.953 1137.14 730.28C1136.71 730.359 1136.3 730.552 1135.96 730.84C1134.63 731.98 1133.34 733.477 1132.09 735.33C1131.87 735.649 1131.62 735.944 1131.33 736.21C1127.12 740.163 1124 743.173 1121.97 745.24C1115.85 751.5 1106.5 754.61 1098.15 756.51C1095 757.223 1090.86 757.56 1085.75 757.52C1081.33 757.487 1075.55 757.487 1068.42 757.52C1061.14 757.56 1055.4 757.123 1051.2 756.21C1043.01 754.43 1035.62 751.507 1029.04 747.44C1023.01 743.72 1018.11 738.217 1014.34 730.93C1011.61 725.643 1009.9 721.687 1009.21 719.06C1007.88 713.987 1006.55 708.473 1005.22 702.52C1004.16 697.75 1004.27 692.89 1003.28 688.36C1001.85 681.86 1002.53 673.91 1002.1 667.55C1001.64 660.557 1001.58 654.517 1001.91 649.43C1002.3 643.41 1002.5 639.003 1002.5 636.21C1002.49 631.25 1002.66 627.79 1003.03 625.83C1003.85 621.45 1003.76 616.52 1004.75 612.05C1006.81 602.817 1009.21 595.427 1011.94 589.88C1019.92 573.687 1033.02 563.78 1051.25 560.16C1053.26 559.76 1056.59 559.417 1061.26 559.13C1065.35 558.88 1069.66 557.7 1074.17 557.37C1074.59 557.337 1075.01 557.35 1075.42 557.41C1080.09 558.017 1084.13 558.413 1087.54 558.6C1104.98 559.52 1124.15 565.98 1132.71 583.53C1133.38 584.9 1135.21 585.76 1136.84 585.72C1145.79 585.48 1142.87 576.89 1142.79 571.46C1142.38 544.747 1142.19 520.343 1142.23 498.25C1142.24 490.45 1143.03 483.257 1144.6 476.67C1144.93 475.27 1145.71 474.37 1146.93 473.97C1151.32 472.53 1160.47 471.96 1161.12 478.44C1162.07 487.967 1162.52 494.433 1162.45 497.84C1162.2 511.093 1162.07 519.147 1162.06 522C1161.99 570.693 1161.99 600.443 1162.05 611.25C1162.1 622.68 1162.5 635.75 1162.42 646.26C1162.21 673.31 1161.78 700.96 1162.26 728.8C1162.39 736.367 1162.19 743.28 1161.66 749.54C1161.45 752.02 1160.34 753.54 1158.34 754.1ZM1133.19 598.63C1131.08 593.96 1126.16 588.65 1121.72 586.12C1113.58 581.48 1103.98 577.56 1094.26 577.3C1087.93 577.133 1078.02 577.273 1064.53 577.72C1053.1 578.11 1037.26 585.77 1032.23 596.73C1024.47 613.64 1025.23 633.36 1023.96 651.17C1023.44 658.56 1024.82 667.41 1024.6 674.49C1024.51 677.47 1024.71 681.15 1025.2 685.53C1026.01 692.67 1026.43 696.333 1026.46 696.52C1027.18 701.78 1028.89 707.837 1031.58 714.69C1035.26 724.037 1041.49 730.547 1050.27 734.22C1056.77 736.94 1063.84 738.313 1071.49 738.34C1083.86 738.38 1094.14 738.89 1104.73 736.72C1111.92 735.247 1118.6 732.443 1124.79 728.31C1130.68 724.377 1134.4 719.017 1135.96 712.23C1137.08 707.343 1138.23 700.993 1139.4 693.18C1140.44 686.27 1140.03 680.18 1140.42 674.32C1140.92 666.7 1140.3 657.48 1140.66 649.05C1140.81 645.53 1140.81 641.827 1140.65 637.94C1140.34 630.52 1140.13 626.21 1140.02 625.01C1139.17 615.59 1136.89 606.797 1133.19 598.63Z" fill="white"/>
<path d="M1313.95 474.9C1315.14 474.9 1316.27 475.371 1317.11 476.209C1317.95 477.047 1318.42 478.184 1318.42 479.37V743.05C1318.42 746.23 1317.81 749.28 1316.73 751.528C1315.65 753.777 1314.19 755.04 1312.66 755.04H1305.84C1304.31 755.04 1302.85 753.777 1301.77 751.528C1300.69 749.28 1300.08 746.23 1300.08 743.05V479.37C1300.08 478.184 1300.55 477.047 1301.39 476.209C1302.23 475.371 1303.36 474.9 1304.55 474.9H1313.95Z" fill="white"/>
<path d="M1394.85 753.88C1390.32 755.82 1385.28 755.913 1379.71 754.16C1379.38 754.055 1379.08 753.857 1378.86 753.589C1378.63 753.322 1378.49 752.995 1378.45 752.65C1377.8 747.123 1377.54 742.317 1377.69 738.23C1378.54 714.54 1377.64 684.4 1377.91 664.26C1378.15 645.73 1377.24 601.15 1378.07 565.88C1378.31 555.673 1378.4 545.8 1378.35 536.26C1378.21 511.64 1378.08 497.503 1377.97 493.85C1377.81 488.52 1378.43 485.19 1379.05 478.53C1379.36 475.15 1381.27 475.23 1384.32 474.78C1388.48 474.167 1392.62 474.42 1396.75 475.54C1397.28 475.684 1397.75 476.015 1398.06 476.473C1398.38 476.931 1398.52 477.487 1398.46 478.04C1398.14 481.087 1398.16 484.177 1398.52 487.31C1399.38 494.78 1399.34 502.81 1398.92 508.42C1398.13 518.83 1398.91 529.26 1398.51 539.56C1398.35 543.52 1398.38 547.507 1398.61 551.52C1398.92 557.14 1398.32 564.54 1398.85 571.19C1399.04 573.623 1399.05 576.197 1398.88 578.91C1398.77 580.65 1398.92 581.933 1399.34 582.76C1402.44 588.92 1407.74 583.43 1409.74 580.11C1415.79 570.08 1426.43 564.81 1436.74 561.79C1443.74 559.73 1452.33 559.49 1459.17 558.24C1466.8 556.84 1474.92 558.19 1483.16 559.13C1488.98 559.79 1494.05 561.31 1499.32 563.25C1513.74 568.55 1523.71 577.87 1528.76 592.26C1531.89 601.167 1534.31 610.73 1536.02 620.95C1536.86 626.01 1537.24 631.567 1537.17 637.62C1536.98 653.39 1537.46 665.54 1537.18 682.9C1537.04 691.48 1535.34 700.68 1534.11 707.14C1532.96 713.18 1530.72 719.843 1527.39 727.13C1525.36 731.557 1522.29 736.01 1518.17 740.49C1510.08 749.31 1498.7 753.59 1486.89 756.2C1483.22 757.007 1478.26 757.334 1472 757.18C1468.45 757.1 1461.41 757.05 1454.83 757.12C1444.8 757.227 1435.34 755.037 1426.45 750.55C1418 746.28 1411.28 739.78 1406.52 731.78C1404.28 728.03 1398.84 728.13 1398.73 733.06C1398.53 741.72 1398.64 746.4 1395.84 752.89C1395.65 753.34 1395.29 753.695 1394.85 753.88ZM1510.42 602.01C1508.73 597.85 1507.3 594.897 1506.13 593.15C1501.85 586.76 1495.76 582.64 1487.96 580.25C1481.02 578.123 1474.61 577.113 1468.74 577.22C1460.35 577.367 1454.79 577.443 1452.07 577.45C1444.84 577.457 1439.32 577.923 1435.51 578.85C1427 580.91 1419.25 584.94 1412.26 590.94C1411.7 591.432 1411.19 591.982 1410.74 592.58C1409.31 594.527 1407.64 597.527 1405.75 601.58C1404.58 604.087 1403.66 607.75 1402.97 612.57C1402.42 616.37 1401.54 621.033 1400.32 626.56C1398.72 633.84 1399.11 641.67 1398.86 650.52C1398.63 658.92 1399.28 666.66 1399.09 675.44C1398.97 681.11 1401.25 686.87 1401.57 692.47C1401.94 699.05 1402.81 702.21 1403.58 708.46C1404.11 712.72 1406.52 719.88 1409.93 723.51C1419.86 734.07 1433.52 738.21 1447.75 738.4C1459.97 738.57 1471.57 739.54 1483.27 737.27C1487.94 736.363 1493.87 733.537 1501.05 728.79C1506.39 725.27 1509.1 718.63 1511.38 712.35C1513.22 707.31 1513.19 701.62 1514.47 696.37C1515.27 693.11 1515.76 689.21 1515.94 684.67C1516.42 672.63 1516.67 661.147 1516.69 650.22C1516.7 644.84 1515.89 639.7 1515.96 634.79C1516.01 630.757 1515.59 626.933 1514.69 623.32C1514.4 622.167 1513.82 618.22 1512.95 611.48C1512.55 608.347 1511.71 605.19 1510.42 602.01Z" fill="white"/>
<path d="M1224.22 501.15C1221.83 499.363 1220.92 496.857 1221.48 493.63C1221.54 493.279 1221.55 492.921 1221.5 492.57C1220.97 488.79 1221.16 484.293 1222.09 479.08C1222.3 477.88 1222.61 476.997 1223.01 476.43C1223.29 476.029 1223.71 475.736 1224.19 475.6C1227.42 474.673 1231.49 474.677 1236.39 475.61C1239.06 476.11 1240.42 477.61 1240.48 480.11C1240.57 484.203 1240.71 488.953 1240.88 494.36C1240.96 496.713 1240.25 499.1 1238.76 501.52C1238.58 501.804 1238.3 502.013 1237.98 502.11C1233.56 503.45 1227.9 503.9 1224.22 501.15Z" fill="white"/>
<path d="M2163.22 754.58C2163.31 754.638 2163.38 754.723 2163.41 754.822C2163.45 754.921 2163.45 755.03 2163.42 755.131C2163.39 755.232 2163.33 755.321 2163.24 755.384C2163.16 755.447 2163.06 755.48 2162.95 755.48C2158.22 755.487 2152.07 755.547 2144.51 755.66C2138.88 755.74 2133.34 755.68 2129.43 751.35C2127.51 749.23 2122.47 743.16 2114.31 733.14C2100.06 715.65 2085.15 699.47 2070.38 681.32C2067.47 677.74 2063.25 672.81 2057.72 666.53C2057.07 665.79 2055.4 664.223 2052.72 661.83C2047.19 656.9 2040.28 656.28 2033.26 657.33C2032.84 657.394 2032.45 657.609 2032.18 657.935C2031.91 658.262 2031.77 658.676 2031.78 659.1C2031.95 664.26 2032.25 668.54 2031.85 673.95C2031.4 680.257 2031.25 685.767 2031.41 690.48C2031.78 701.53 2031.3 711.94 2031.81 722.75C2032.35 734.29 2032.19 743.37 2030.57 751.33C2030.26 752.843 2029.04 753.887 2026.9 754.46C2022.44 755.653 2018.14 755.463 2014 753.89C2013.57 753.727 2013.2 753.431 2012.95 753.043C2012.69 752.656 2012.56 752.196 2012.58 751.73C2012.67 749.383 2012.61 747.67 2012.4 746.59C2011.48 742.02 2011.84 739.1 2011.38 732.97C2011.22 730.863 2011.21 728.057 2011.36 724.55C2011.71 716.037 2011.85 705.1 2011.77 691.74C2011.68 676.693 2011.68 667.193 2011.77 663.24C2012.08 650.25 2011.54 638.9 2011.84 625.26C2011.91 622.153 2012 602.65 2012.13 566.75C2012.19 548.83 2012.11 537.997 2011.88 534.25C2011.61 529.76 2012.25 522.37 2011.99 516.92C2011.36 503.34 2011.72 490.193 2013.09 477.48C2013.13 477.114 2013.27 476.765 2013.49 476.471C2013.71 476.177 2014.01 475.949 2014.35 475.81C2018.73 474.02 2024.85 475.03 2029.51 476.35C2029.93 476.469 2030.29 476.725 2030.54 477.076C2030.79 477.426 2030.91 477.851 2030.89 478.28C2030.76 480.58 2030.49 482.57 2030.77 485.09C2031.02 487.31 2031.29 489.73 2031.6 492.35C2032.16 497.16 2031.76 501.15 2031.36 507.71C2030.74 518.03 2031.33 529.99 2031.15 536.25C2030.78 549.23 2031.47 558.9 2031.11 572.26C2030.84 582.47 2031.55 593.33 2031.28 603.75C2031.12 609.95 2031.15 613.78 2031.37 615.24C2032.12 620.213 2032.19 625.42 2031.59 630.86C2031.19 634.45 2030.8 639.57 2033.99 641.84C2034.45 642.167 2035.48 642.333 2037.07 642.34C2041.18 642.367 2044.12 642.223 2045.91 641.91C2051.14 641.01 2054.72 637.23 2058.94 632.94C2064.75 627.05 2070.87 619.26 2075.77 613.74C2090.48 597.167 2104.47 580.917 2117.75 564.99C2119.78 562.557 2122.45 561.303 2125.76 561.23C2131.37 561.097 2138.16 561.103 2146.14 561.25C2146.25 561.251 2146.35 561.286 2146.44 561.349C2146.53 561.413 2146.6 561.502 2146.63 561.604C2146.67 561.707 2146.67 561.818 2146.64 561.923C2146.62 562.028 2146.55 562.121 2146.47 562.19C2140.58 567.19 2134.63 573.79 2125.43 583.24C2121.87 586.9 2117.9 591.203 2113.51 596.15C2099.82 611.58 2085.26 626.96 2072.59 641.34C2071.81 642.227 2069.79 644.287 2066.52 647.52C2065.21 648.82 2065.18 650.167 2066.44 651.56C2084.06 670.94 2101.82 689.91 2119.31 709.2C2128.64 719.493 2136.54 728.083 2143.03 734.97C2143.76 735.743 2146.84 739.073 2152.29 744.96C2156.04 749.013 2159.68 752.22 2163.22 754.58Z" fill="white"/>
<path d="M1614.25 661.09C1611.78 661.24 1606.82 661.1 1606.63 664.29C1606.38 668.597 1606.85 674.95 1608.04 683.35C1608.85 689.137 1609.45 694.053 1609.82 698.1C1610.21 702.353 1611.01 707.24 1612.24 712.76C1612.88 715.627 1614.08 718.663 1615.84 721.87C1620.84 730.99 1632.83 736.2 1642.78 737.44C1648.69 738.18 1653.94 738.56 1658.51 738.58C1678.8 738.68 1688.14 739.16 1703.48 736.96C1713.88 735.47 1723.51 729.47 1725.84 718.66C1726.5 715.607 1727.35 710.457 1728.39 703.21C1728.6 701.71 1729.26 700.78 1730.35 700.42C1735.84 698.607 1741.4 698.693 1747.01 700.68C1747.35 700.8 1747.64 701.029 1747.83 701.329C1748.02 701.629 1748.11 701.985 1748.08 702.34C1747.71 706.74 1747.37 710.73 1747.06 714.31C1745.58 731.47 1737.69 744.3 1721.08 750.87C1706.8 756.51 1692.32 757.59 1677.06 757.19C1667.53 756.94 1656.89 757.66 1647.5 757.04C1632.47 756.05 1617.14 751.65 1605.45 741.88C1600.48 737.73 1597.71 731.99 1594.76 725.98C1593.49 723.38 1592.29 719.563 1591.18 714.53C1589.66 707.637 1588.84 703.72 1588.72 702.78C1587.65 694.28 1586.56 688.2 1586.37 680.38C1585.96 663.673 1586.03 647.997 1586.56 633.35C1586.85 625.303 1587.38 619.257 1588.13 615.21C1589.17 609.657 1590.64 603.753 1592.54 597.5C1594.93 589.62 1598.93 582.35 1604.53 575.69C1611.86 566.97 1626.16 562.24 1637.33 560.37C1640.42 559.85 1645.47 559.357 1652.48 558.89C1653.15 558.843 1653.81 558.756 1654.46 558.63C1660.93 557.33 1665.45 556.867 1668.01 557.24C1674.35 558.173 1679.84 558.8 1684.48 559.12C1695.97 559.91 1704 561.34 1713.4 564.6C1722.43 567.73 1729.22 571.42 1734.43 579.28C1737.4 583.767 1739.44 587.93 1740.55 591.77C1742.22 597.603 1743.76 604.243 1745.16 611.69C1746.56 619.143 1747.33 625.893 1747.46 631.94C1747.65 640.467 1747.4 649.147 1746.73 657.98C1746.71 658.282 1746.6 658.572 1746.42 658.819C1746.25 659.065 1746.01 659.259 1745.73 659.38C1744.3 660.007 1742.73 660.39 1741 660.53C1737.85 660.777 1734.1 660.94 1729.75 661.02C1720.82 661.18 1690.4 661.103 1638.5 660.79C1626.8 660.717 1618.72 660.817 1614.25 661.09ZM1727.81 641.92C1728.1 639.933 1728.14 638.287 1727.95 636.98C1727.05 630.827 1726.55 623.353 1726.45 614.56C1726.4 609.92 1725.25 604.4 1723 598C1720.22 590.11 1714.42 584.42 1707 581.74C1699.68 579.1 1691.93 577.623 1683.74 577.31C1675.31 576.99 1664.98 577.047 1652.75 577.48C1643.3 577.813 1635.35 579.503 1628.92 582.55C1623.86 584.943 1620.17 587.413 1617.86 589.96C1614.93 593.187 1612.95 597.157 1611.92 601.87C1610.7 607.457 1610.02 611.317 1609.88 613.45C1609.86 613.723 1609.39 621.577 1608.46 637.01C1608.3 639.72 1608.06 643.07 1611.49 643.08C1621.78 643.1 1633.4 643.81 1643.2 643.84C1692.66 644.033 1719.32 644.127 1723.17 644.12C1724.7 644.12 1726.08 643.67 1727.3 642.77C1727.44 642.669 1727.56 642.541 1727.64 642.395C1727.73 642.249 1727.79 642.087 1727.81 641.92Z" fill="white"/>
<path d="M1818.21 662.17C1816.92 663.623 1816.38 665.41 1816.61 667.53C1817.59 676.62 1817.32 683.74 1818.59 692.48C1818.96 695.033 1819.41 699.483 1819.94 705.83C1820.36 710.91 1823.1 717.22 1825.53 721.35C1833.94 735.62 1853.04 738.64 1868.01 738.75C1884.62 738.87 1894.36 738.89 1897.25 738.81C1903.36 738.637 1909.55 737.893 1915.81 736.58C1922.04 735.28 1928.82 733.05 1932.15 727.78C1933.44 725.74 1934.68 722.693 1935.87 718.64C1937.35 713.613 1938.01 708.143 1937.84 702.23C1937.82 701.71 1937.99 701.201 1938.32 700.794C1938.64 700.387 1939.1 700.109 1939.61 700.01C1945.79 698.81 1951.75 698.953 1957.48 700.44C1957.73 700.504 1957.95 700.658 1958.1 700.874C1958.24 701.09 1958.3 701.352 1958.27 701.61C1957.69 705.87 1957.23 710.623 1956.9 715.87C1956.84 716.823 1956.1 719.89 1954.69 725.07C1946.89 753.74 1917.61 755.9 1892.55 757.68C1888.34 757.98 1883.64 758.047 1878.46 757.88C1869.31 757.587 1860.42 757.01 1851.78 756.15C1832.11 754.18 1812.15 746.06 1804.93 726.13C1802.02 718.117 1800.13 710.187 1799.24 702.34C1798.74 697.84 1797.03 693.14 1796.75 689.26C1795.94 677.7 1795.73 667.637 1796.14 659.07C1796.47 652.03 1795.51 646.8 1796.3 640.06C1797.08 633.38 1796.38 625.63 1798.15 619.42C1798.53 618.087 1798.98 615.38 1799.49 611.3C1799.76 609.16 1800.33 606.473 1801.19 603.24C1803.18 595.807 1806.09 588.95 1809.93 582.67C1812.64 578.243 1815.56 574.807 1818.7 572.36C1825.63 566.95 1834.21 563.42 1842.63 561.38C1846.12 560.533 1851.75 559.8 1859.51 559.18C1866.24 558.65 1872.66 556.93 1879.62 557.64C1885.59 558.247 1892.14 558.843 1899.27 559.43C1911.55 560.45 1929.34 564.58 1938.55 573.3C1943.55 578.033 1946.94 582.957 1948.73 588.07C1952.19 597.97 1954.15 604.843 1954.6 608.69C1955.29 614.517 1955.85 618.75 1956.27 621.39C1957.23 627.43 1956.51 632.83 1957.17 638.97C1957.78 644.73 1957.13 651.1 1957.08 657.13C1957.08 657.537 1956.95 657.934 1956.72 658.269C1956.49 658.604 1956.17 658.862 1955.79 659.01C1953.76 659.797 1951.66 660.24 1949.5 660.34C1941.53 660.687 1935.01 660.86 1929.94 660.86C1897.57 660.827 1865.42 660.877 1833.5 661.01C1827.36 661.037 1822.55 661.27 1819.07 661.71C1818.74 661.755 1818.44 661.918 1818.21 662.17ZM1817.26 637.98C1817.03 640.75 1819.12 642.7 1821.75 642.8C1825.35 642.94 1827.33 643.02 1827.68 643.04C1840.39 643.693 1850.91 644.027 1859.25 644.04C1879.44 644.073 1897.19 644.14 1912.5 644.24C1920.67 644.287 1927.73 644.1 1933.7 643.68C1938.66 643.33 1939.38 640.09 1938.52 635.58C1937.73 631.473 1937.2 626.143 1936.91 619.59C1936.65 613.35 1935.49 608.94 1934.03 601.44C1933.42 598.287 1932.15 595.177 1930.23 592.11C1926.49 586.12 1918.7 581.73 1912.12 579.92C1898.22 576.08 1886 577 1869.24 577.09C1855.32 577.17 1844.48 579.08 1833.01 584.98C1829.68 586.693 1827.25 589.017 1825.7 591.95C1822.62 597.79 1819.99 603.43 1819.44 610.5C1818.43 623.453 1817.7 632.613 1817.26 637.98Z" fill="white"/>
<path d="M1225.6 754.96C1224.36 754.96 1223.16 754.466 1222.28 753.586C1221.4 752.707 1220.91 751.514 1220.91 750.27V580.17C1220.91 575.24 1221.44 570.511 1222.37 567.025C1223.31 563.539 1224.58 561.58 1225.9 561.58H1235.32C1236.64 561.58 1237.91 563.539 1238.85 567.025C1239.78 570.511 1240.31 575.24 1240.31 580.17V750.27C1240.31 751.514 1239.82 752.707 1238.94 753.586C1238.06 754.466 1236.86 754.96 1235.62 754.96H1225.6Z" fill="white"/>
<path d="M2269.99 693.14C2270.05 693.2 2270.08 693.367 2270.09 693.64C2270.45 707.25 2272.71 721.68 2277.36 734.64C2279.38 740.26 2280.06 744.38 2282.09 749.07C2282.1 749.117 2284.36 755.49 2288.87 768.19C2290.34 772.33 2291.49 776.06 2292.33 779.38C2293.68 784.68 2296.09 789.32 2296.96 794.31C2298.11 800.923 2298.91 805.67 2299.38 808.55C2299.58 809.853 2299.55 811.18 2299.29 812.47C2298.41 816.73 2297.74 820.63 2295.86 824.19C2293.45 828.723 2289.16 832.073 2282.97 834.24C2273.43 837.593 2263.18 837.777 2252.21 834.79C2245.85 833.063 2241.11 830.47 2237.98 827.01C2237.76 826.777 2237.57 826.519 2237.41 826.24C2234.78 821.807 2233.7 817.563 2234.17 813.51C2234.36 811.79 2234.9 808.8 2235.78 804.54C2237.09 798.16 2240.04 791.28 2241.67 785.56C2243.28 779.89 2245.29 775.81 2247.2 770.19C2247.6 769.023 2248.43 767.007 2249.68 764.14C2253.85 754.6 2256.83 748.61 2258.91 740.79C2260.03 736.62 2261.64 732.81 2262.86 727.76C2265.38 717.327 2267.2 708.37 2268.32 700.89C2268.65 698.71 2268.76 696.37 2268.66 693.87C2268.65 693.702 2268.69 693.532 2268.77 693.383C2268.85 693.234 2268.97 693.112 2269.12 693.034C2269.26 692.955 2269.42 692.923 2269.58 692.942C2269.73 692.961 2269.88 693.03 2269.99 693.14Z" fill="white"/>
</g>
<defs>
<clipPath id="clip0_9_2">
<rect width="2300" height="837" fill="white"/>
</clipPath>
</defs>
</svg>
