<?xml version="1.0" encoding="UTF-8"?><svg id="Layer_1" xmlns="http://www.w3.org/2000/svg" viewBox="0 0 317.49 108.99"><rect x="2.54" y="81.31" width="309.03" height="1.7" fill="#fff"/><rect x="2.54" y="107.28" width="309.03" height="1.7" fill="#fff"/><path d="M24.01,6.76l-2.94,14.5h11.17l-1.76,8.82h-10.78l-4.21,20.78c-.1,.49-.2,1.18-.2,2.06,0,2.35,.59,4.41,4.41,4.41,1.96,0,3.92-.49,5.49-1.57l-2.35,10.58c-4.02,1.57-7.25,1.57-8.13,1.57-7.94,0-12.15-4.12-12.15-11.37,0-1.37,.29-2.74,.29-3.04L7.64,30.09H0l1.76-8.82H9.9L14.11,6.76h9.9Z" fill="#fff"/><path d="M55.79,0l-5.59,27.54,.2,.2c2.06-2.55,6.37-7.55,14.11-7.55s12.94,4.61,12.94,13.33c0,1.76-.29,3.63-.49,4.51l-5.88,28.81h-11.96l5.59-28.23c.2-.98,.2-1.76,.2-2.16,0-3.14-2.06-5.1-4.8-5.1-7.35,0-12.45,8.82-14.11,16.86l-3.72,18.62h-11.96L43.74,0h12.06Z" fill="#fff"/><path d="M96.47,47.63c1.37,9.7,10.88,9.7,11.66,9.7,1.76,0,8.33,0,17.54-6.96l-2.74,13.43c-5.78,2.45-10.19,4.12-16.86,4.12-15.58,0-21.86-11.37-21.86-21.56,0-14.8,12.84-26.17,27.05-26.17,10.49,0,18.82,5.68,18.82,14.5,0,8.04-6.27,12.94-17.05,12.94h-16.56Zm11.47-7.55c5.88,0,10.68-1.08,10.68-5.29,0-3.23-3.53-5.39-7.35-5.39-6.47,0-12.15,4.8-13.92,10.68h10.58Z" fill="#fff"/><path d="M171.83,35.77c-2.55-2.06-7.15-5.88-13.82-5.88-5.1,0-6.96,2.55-6.96,4.41,0,2.35,2.65,3.53,7.35,4.8,8.14,2.25,12.94,5.88,12.94,12.54,0,7.84-7.25,16.27-21.46,16.27-8.43,0-13.52-2.74-18.13-5.59l2.25-10.98c4.31,3.92,9.7,6.96,15.58,6.96,4.7,0,8.43-2.65,8.43-5.68s-3.04-4.51-8.33-5.98c-1.27-.39-1.76-.49-2.45-.69-6.37-2.25-9.6-5.78-9.6-10.98,0-8.04,7.35-14.8,19.6-14.8,8.33,0,13.72,3.14,16.76,4.9l-2.16,10.68Z" fill="#fff"/><path d="M265.88,32.24c-1.08-.49-2.25-1.08-4.12-1.08-6.27,0-13.33,7.15-15.88,19.31l-3.33,16.37h-11.86l9.12-45.57h10.98l-.49,6.86,.2,.2c1.37-2.45,5-7.74,12.25-7.74,2.16,0,3.43,.49,5.29,1.37l-2.16,10.29Z" fill="#fff"/><path d="M308.67,21.27h8.82l-6.08,30.87c-.29,1.76-.79,4.41-.79,7.15,0,4.02,.69,5.68,1.27,7.55h-12.35c-.69-2.06-.98-3.82-.98-7.45-2.45,2.55-8.04,8.53-15.58,8.53-9.21,0-15.58-7.94-15.58-18.91,0-15.39,12.25-28.81,24.6-28.81,6.27,0,9.41,2.94,12.74,6.27l3.92-5.19Zm-14.6,9.51c-7.74,0-14.02,8.53-14.02,16.76,0,6.47,3.82,9.21,7.35,9.21,2.15,0,6.17-1.18,10-6.37,4.02-5.49,4.7-10.68,5.19-15.09-2.74-3.53-5.78-4.51-8.53-4.51Z" fill="#fff"/><g><path d="M226.56,43.52v-.7h-13s0,.04,0,.06l10.21,11.23c1.61-3.18,2.59-6.76,2.8-10.59Z" fill="#fff"/><path d="M213.31,45.6c-1.13,6.83-5.88,11.73-12.19,11.73s-9.61-5.29-9.61-11.56c0-7.55,4.51-15,12.54-15,4.9,0,8.86,3.53,9.43,10.03h13.09c-.57-14.92-12.38-20.62-22.52-20.62-13.62,0-25.48,11.08-25.48,26.07,0,10.98,6.57,21.66,21.76,21.66,9.84,0,17.89-4.72,22.38-11.97l-9.41-10.35Z" fill="#fff"/></g><polygon points="226.56 42.82 213.5 42.82 226.56 57.18 226.56 42.82" fill="#fff"/><g><path d="M8.79,89.6l3.78,10.44h-2.76l-.64-2.13h-3.34l-.67,2.13H2.49l3.81-10.44h2.5Zm-1.26,2.82h-.03l-1.07,3.52h2.16l-1.06-3.52Z" fill="#fff"/><path d="M24.03,92.85c-.51-.4-1.56-1.26-2.91-1.26-1.67,0-2.86,1.46-2.86,3.28,0,2.07,1.42,3.18,2.71,3.18,.27,0,1.55,0,3.06-1.24v2.48c-.69,.34-1.9,.92-3.31,.92-2.97,0-5.01-2.34-5.01-5.33s2.14-5.45,5.11-5.45c1.65,0,2.72,.66,3.2,.95v2.46Z" fill="#fff"/><path d="M36.28,92.85c-.51-.4-1.56-1.26-2.91-1.26-1.67,0-2.86,1.46-2.86,3.28,0,2.07,1.42,3.18,2.71,3.18,.27,0,1.55,0,3.06-1.24v2.48c-.69,.34-1.9,.92-3.31,.92-2.97,0-5.01-2.34-5.01-5.33s2.14-5.45,5.11-5.45c1.65,0,2.72,.66,3.2,.95v2.46Z" fill="#fff"/><path d="M50.88,94.79c0,2.94-2.17,5.42-5.37,5.42s-5.28-2.51-5.28-5.39c0-3.26,2.54-5.39,5.22-5.39,3.29,0,5.43,2.45,5.43,5.36Zm-8.11,.03c0,1.76,1.13,3.32,2.79,3.32s2.79-1.55,2.79-3.32-1.2-3.32-2.74-3.32c-1.73,0-2.83,1.61-2.83,3.32Z" fill="#fff"/><path d="M57.55,89.6v6.11c0,1.32,.41,2.44,1.93,2.44s1.96-1.03,1.96-1.98v-6.57h2.43v6.28c0,3.21-2.04,4.33-4.36,4.33-1.87,0-2.74-.66-3.17-1.06-1.01-.92-1.22-2.02-1.22-4.03v-5.53h2.43Z" fill="#fff"/><path d="M71.13,89.6l4.1,6.46h.03v-6.46h2.42v10.44h-2.42l-4.1-6.43h-.03v6.43h-2.43v-10.44h2.43Z" fill="#fff"/><path d="M89.95,89.6v2.14h-2.97v8.3h-2.43v-8.3h-2.95v-2.14h8.36Z" fill="#fff"/><path d="M98.37,89.6l3.78,10.44h-2.75l-.64-2.13h-3.34l-.67,2.13h-2.68l3.81-10.44h2.5Zm-1.25,2.82h-.03l-1.07,3.52h2.16l-1.06-3.52Z" fill="#fff"/><path d="M108.54,89.6l4.1,6.46h.03v-6.46h2.42v10.44h-2.42l-4.1-6.43h-.03v6.43h-2.43v-10.44h2.43Z" fill="#fff"/><path d="M160.22,94.13c-.09,1.09-.32,2.17-1.36,3.44l1.84,2.47h-2.96l-.58-.83c-.63,.43-1.52,1-2.97,1-2.79,0-3.75-1.94-3.75-3.23,0-1.82,1.78-2.75,2.63-3.2-.23-.32-.73-1.03-.73-1.93,0-1.61,1.64-2.42,3.38-2.42,1.13,0,1.96,.29,2.46,.48v1.85c-.75-.32-1.39-.57-2.16-.57-.55,0-1.26,.2-1.26,.67,0,.14,.03,.32,.26,.61l2.71,3.61c.26-.57,.4-1.01,.44-1.96h2.04Zm-6.18,.93c-.38,.28-1.06,.75-1.06,1.68,0,1.04,.81,1.56,1.68,1.56,.63,0,1.1-.26,1.47-.46l-2.1-2.79Z" fill="#fff"/><path d="M180.35,89.6v2.14h-2.97v8.3h-2.43v-8.3h-2.95v-2.14h8.36Z" fill="#fff"/><path d="M127.54,89.6v2.14h-2.97v8.3h-2.43v-8.3h-2.95v-2.14h8.36Z" fill="#fff"/><path d="M188.77,89.6l3.78,10.44h-2.75l-.64-2.13h-3.34l-.67,2.13h-2.68l3.81-10.44h2.5Zm-1.26,2.82h-.03l-1.07,3.52h2.16l-1.06-3.52Z" fill="#fff"/><path d="M199.37,89.6l1.54,3.02,1.5-3.02h3l-3.05,4.87,3.49,5.57h-3l-2.1-3.93-1.79,3.93h-2.89l3.41-5.57-3.09-4.87h2.97Z" fill="#fff"/><path d="M223.42,89.6l3.78,10.44h-2.76l-.64-2.13h-3.34l-.67,2.13h-2.68l3.81-10.44h2.5Zm-1.25,2.82h-.03l-1.07,3.52h2.16l-1.05-3.52Z" fill="#fff"/><path d="M235.07,89.6c2.13,0,3.31,.31,4.33,1.33,.51,.5,1.39,1.67,1.39,3.55,0,3.23-2.13,5.56-5.89,5.56h-3.75v-10.44h3.92Zm-1.49,2.07v6.31h1.06c2.27,0,3.57-1.18,3.57-3.32,0-1.39-.66-2.99-3.05-2.99h-1.58Z" fill="#fff"/><path d="M246.41,89.6l2.3,7.64h.03l2.34-7.64h2.74l-3.83,10.44h-2.51l-3.78-10.44h2.71Z" fill="#fff"/><path d="M260.08,89.6v10.44h-2.48v-10.44h2.48Z" fill="#fff"/><path d="M272.15,92.93c-.43-.35-1.62-1.33-3.12-1.33-.9,0-1.73,.37-1.73,.99,0,.26,.12,.41,.24,.49,.37,.27,1.38,.49,1.93,.61l.26,.06c.69,.15,3.06,.69,3.06,2.92,0,2.04-1.96,3.54-4.47,3.54-1.33,0-2.48-.38-3.61-1.12v-2.6c1.53,1.3,2.77,1.56,3.58,1.56s1.9-.44,1.9-1.32c0-.66-.66-.96-1.99-1.22-.98-.2-3.49-.72-3.49-2.94s2.1-3.14,4.15-3.14c1.44,0,2.48,.5,3.29,.9v2.59Z" fill="#fff"/><path d="M287.31,94.79c0,2.94-2.17,5.42-5.37,5.42s-5.28-2.51-5.28-5.39c0-3.26,2.54-5.39,5.22-5.39,3.29,0,5.44,2.45,5.44,5.36Zm-8.11,.03c0,1.76,1.13,3.32,2.79,3.32s2.79-1.55,2.79-3.32-1.2-3.32-2.74-3.32c-1.73,0-2.83,1.61-2.83,3.32Z" fill="#fff"/><path d="M295.75,89.59c1.85,0,2.94,.34,3.6,.98,.44,.43,.71,1.01,.71,1.64,0,.93-.49,1.59-1.06,2.05-.61,.49-1.16,.64-1.81,.79v.03c.81,.2,1.56,.55,2.1,2.05l1.01,2.91h-2.74l-.73-2.34c-.55-1.76-1.21-1.85-2.65-1.87v4.21h-2.43v-10.46h4.01Zm-1.58,4.23h1.7c.95,0,1.64-.45,1.64-1.18,0-.87-.9-.98-1.68-.98h-1.66v2.16Z" fill="#fff"/><path d="M311.55,92.93c-.43-.35-1.62-1.33-3.12-1.33-.9,0-1.73,.37-1.73,.99,0,.26,.12,.41,.25,.49,.37,.27,1.38,.49,1.93,.61l.26,.06c.69,.15,3.06,.69,3.06,2.92,0,2.04-1.96,3.54-4.47,3.54-1.33,0-2.48-.38-3.61-1.12v-2.6c1.53,1.3,2.77,1.56,3.58,1.56s1.9-.44,1.9-1.32c0-.66-.66-.96-1.99-1.22-.98-.2-3.49-.72-3.49-2.94s2.1-3.14,4.15-3.14c1.44,0,2.48,.5,3.29,.9v2.59Z" fill="#fff"/><path d="M138.36,92.93c-.43-.35-1.62-1.33-3.12-1.33-.9,0-1.73,.37-1.73,.99,0,.26,.12,.41,.25,.49,.37,.27,1.38,.49,1.93,.61l.26,.06c.69,.15,3.06,.69,3.06,2.92,0,2.04-1.96,3.54-4.47,3.54-1.33,0-2.48-.38-3.61-1.12v-2.6c1.53,1.3,2.77,1.56,3.58,1.56s1.9-.44,1.9-1.32c0-.66-.66-.96-1.99-1.22-.98-.2-3.49-.72-3.49-2.94s2.1-3.14,4.15-3.14c1.44,0,2.48,.5,3.29,.9v2.59Z" fill="#fff"/></g></svg>