<svg id="Calque_1" data-name="Calque 1" xmlns="http://www.w3.org/2000/svg" viewBox="0 0 409.32 80.72"><path d="M11.54,11H.45V.78H33.64V11H22.55V60h-11Z" fill="#fff"/><path d="M39.68.78h11V60h-11Z" fill="#fff"/><path d="M60.42.78h9.94L81.51,25.14,92.67.78h10V60H92.24V22.11H92.1L82.58,44.56H80.45L70.93,22.11h-.14V60H60.42Z" fill="#fff"/><path d="M112.21.78h9.94L133.3,25.14,144.46.78h9.94V60H144V22.11h-.14l-9.52,22.45h-2.12l-9.52-22.45h-.15V60H112.21Z" fill="#fff"/><path d="M163.85.78h28.28V11H174.87V24.8h16.06V35H174.87V49.76h17.9V60H163.85Z" fill="#fff"/><path d="M200.09.78h15.84c9.94,0,15.63,6.85,15.63,16.56,0,6.67-2.42,10.92-8.17,13.87,4.33,2.95,6,16.2,10.15,28.78H222.11l-2.63-11.1c-3-12.83-3.76-13.87-8.38-13.87V60h-11Zm14.49,24c3.69,0,6-2.43,6-7.12S218.48,11,214.43,11H211.1V24.8Z" fill="#fff"/><path d="M239.44.78h9.95l11.16,24.36L271.7.78h9.95V60H271.27V22.11h-.14l-9.52,22.45h-2.13L250,22.11h-.14V60H239.44Z" fill="#fff"/><path d="M299.55.43H311L323.69,60H313l-2.27-12.31H299.82L297.48,60H286.83Zm9.58,37.63-3.76-21.5h-.15l-3.83,21.5Z" fill="#fff"/><path d="M329,.78h10.23L352.4,34.24h.14V.78h10.38V60h-9.6L339.54,25.05h-.14V60H329Z" fill="#fff"/><path d="M370.94,43.34c4.62,4.6,7.32,6.24,10.23,6.24,2.63,0,4.48-2.07,4.48-4.94,0-8.66-15.14-15.16-15.14-29.56C370.51,6.59,376.56,0,384.44,0c3.48,0,6.82,1.13,10.59,3.64v11.1c-4.83-3.3-7-4.25-9.38-4.25-2.63,0-4.48,1.64-4.48,4.07,0,7,15.7,15.61,15.7,29.65,0,9.46-6,16.56-14.06,16.56-3.77,0-7.32-1.39-11.87-4.68Z" fill="#fff"/><path d="M8.46,78.24H3l-.9,2.18H0L4.67,68.86H6.81l4.66,11.56H9.33ZM5.74,71.29,3.8,76.21H7.67Z" fill="#fff"/><path d="M19.21,68.85h2V80.42H20v0l-5.46-7.81v7.79h-2V68.86h1.59L19.21,76Z" fill="#fff"/><path d="M29.82,68.85h2V80.42H30.56v0l-5.47-7.81v7.79h-2V68.86h1.59L29.82,76Z" fill="#fff"/><path d="M44,74.71c0,3-1.68,6-5.33,6s-5.35-2.92-5.35-6,1.75-6.09,5.35-6.09S44,71.69,44,74.71Zm-8.75.05c0,1.9,1,3.93,3.42,3.93s3.37-2,3.4-4-1-4.13-3.4-4.13S35.16,72.81,35.21,74.76Z" fill="#fff"/><path d="M47.82,78.57h1.56V70.84H47.76v-2h3.57v9.71h1.44v1.85h-5Z" fill="#fff"/><path d="M54.29,80.42l4.26-9.48H53.48V68.86h7.64l.1,1.16-4.67,10.4Z" fill="#fff"/><path d="M62.11,73.8c0-6.9,9.12-6.89,9.12,0v1.67c0,6.88-9.12,6.9-9.12,0Zm1.94,1.67c0,4.19,5.23,4.19,5.23,0V73.8c0-4.13-5.23-4.18-5.23,0Z" fill="#fff"/><path d="M72.15,72.21c0-2.44,2.09-3.5,4-3.5,2.08,0,4.34.94,4.34,3.69,0,2.94-2,3.5-4.18,3.5-.86,0-2.26.24-2.26,1.5v1h6.47v2H72.1v-3c0-2.66,2.17-3.45,4.22-3.45.79,0,2.23-.15,2.23-1.49s-1-1.84-2.36-1.84c-1,0-2.08.57-2.1,1.61Z" fill="#fff"/><path d="M84.82,74.11H90.3V76H84.82Z" fill="#fff"/><path d="M97.54,70.84h-3.3v-2h8.56v2H99.5v9.58h-2Z" fill="#fff"/><path d="M111.08,80.44V75.76H106v4.68h-2V68.88h2v4.87h5.11V68.88h2V80.44Z" fill="#fff"/><path d="M122.64,80.42h-7.79V68.86h7.79V71H116.8v2.65h5.63v2H116.8v2.6h5.84Z" fill="#fff"/><path d="M138.41,80.42h-1.67l-1.29-3.63-1.1-3.65-1.09,3.68L132,80.42h-1.66l-3.82-11.56h2.2l2.45,8.34,2.53-8.34H135l2.6,8.34L140,68.86h2.2Z" fill="#fff"/><path d="M153.6,74.71c0,3-1.68,6-5.34,6s-5.35-2.92-5.35-6,1.75-6.09,5.35-6.09S153.63,71.69,153.6,74.71Zm-8.76.05c0,1.9,1,3.93,3.42,3.93s3.37-2,3.4-4-.95-4.13-3.4-4.13S144.8,72.81,144.84,74.76Z" fill="#fff"/><path d="M164.28,80.42h-2.34l-3-3.86H157v3.86h-2V68.85H160a3.64,3.64,0,0,1,3.75,3.83,3.37,3.37,0,0,1-2.63,3.63l3.15,4ZM157,70.89v3.7h3a1.85,1.85,0,0,0,0-3.7Z" fill="#fff"/><path d="M167.05,68.86v9.55h5.35v2h-7.31V68.86Z" fill="#fff"/><path d="M183,74.54c0,2.92-1.56,5.88-5.2,5.88h-4.09V68.86h4.09C181.31,68.86,182.9,71.69,183,74.54Zm-7.34,3.78h2.14c2.36,0,3.29-1.91,3.25-3.79s-1-3.6-3.25-3.6h-2.14Z" fill="#fff"/><path d="M184.21,68.86h1.87l-1.16,3.72h-1.43Z" fill="#fff"/><path d="M193.67,71.65a2.87,2.87,0,0,0-2.46-1.29c-1.46,0-2.16.68-2.16,1.54s1.07,1.29,2.32,1.45c2.17.3,4.19.93,4.19,3.69,0,2.57-2.05,3.68-4.37,3.68-2.12,0-3.76-.73-4.53-2.84l1.64-.94a2.92,2.92,0,0,0,2.92,1.83c1.24,0,2.4-.48,2.4-1.73,0-1.09-1-1.54-2.41-1.7-2.13-.29-4.09-.91-4.09-3.5,0-2.38,2.11-3.36,4-3.37a4.1,4.1,0,0,1,4.09,2.29Z" fill="#fff"/><path d="M210.32,74.71c0,3-1.68,6-5.34,6s-5.35-2.92-5.35-6,1.76-6.09,5.35-6.09S210.35,71.69,210.32,74.71Zm-8.76.05c.05,1.9,1,3.93,3.42,3.93s3.38-2,3.41-4-.95-4.13-3.41-4.13S201.52,72.81,201.56,74.76Z" fill="#fff"/><path d="M213.73,68.86v9.55h5.35v2h-7.31V68.86Z" fill="#fff"/><path d="M229.63,74.54c0,2.92-1.56,5.88-5.2,5.88h-4.09V68.86h4.09C228,68.86,229.58,71.69,229.63,74.54Zm-7.34,3.78h2.14c2.36,0,3.3-1.91,3.25-3.79s-1-3.6-3.25-3.6h-2.14Z" fill="#fff"/><path d="M238.69,80.42H230.9V68.86h7.79V71h-5.84v2.65h5.63v2h-5.63v2.6h5.84Z" fill="#fff"/><path d="M247,71.65a2.9,2.9,0,0,0-2.47-1.29c-1.46,0-2.16.68-2.16,1.54s1.07,1.29,2.32,1.45c2.17.3,4.19.93,4.19,3.69,0,2.57-2.05,3.68-4.37,3.68-2.12,0-3.76-.73-4.53-2.84l1.64-.94a2.92,2.92,0,0,0,2.92,1.83c1.24,0,2.4-.48,2.4-1.73,0-1.09-1-1.54-2.41-1.7-2.13-.29-4.09-.91-4.09-3.5,0-2.38,2.11-3.36,4-3.37a4.1,4.1,0,0,1,4.09,2.29Z" fill="#fff"/><path d="M253.05,70.84h-3.3v-2h8.56v2H255v9.58h-2Z" fill="#fff"/><path d="M264.47,68.86v9.55h5.35v2h-7.31V68.86Z" fill="#fff"/><path d="M278.6,78.24h-5.44l-.89,2.18h-2.12l4.66-11.56H277l4.67,11.56h-2.14Zm-2.72-6.95L274,76.21h3.86Z" fill="#fff"/><path d="M291.42,72.05l-3.39,5h-.38l-3.32-5v8.41h-2V68.88h2.26l3.26,5,3.25-5h2.24V80.44h-2Z" fill="#fff"/><path d="M303.7,72.21a2.37,2.37,0,0,1-1.36,2.23A2.84,2.84,0,0,1,304,77c0,2.58-1.74,3.4-3.9,3.4h-4.93V68.86h4.93C302.16,68.86,303.7,69.89,303.7,72.21Zm-6.59,1.29h3c1.24,0,1.64-.58,1.64-1.24a1.48,1.48,0,0,0-1.64-1.42h-3Zm0,4.89h3c.81,0,1.95-.3,1.95-1.39s-1.14-1.58-1.95-1.58h-3Z" fill="#fff"/><path d="M305.41,80.42V68.86h1.95V80.42Z" fill="#fff"/><path d="M318.38,79a5.19,5.19,0,0,1-3.95,1.71c-3.87,0-5.5-3-5.52-6s1.76-6.09,5.52-6.09a5.09,5.09,0,0,1,3.81,1.77l-1.3,1.4a3.41,3.41,0,0,0-2.51-1.09c-2.52,0-3.6,2.08-3.59,4s1,3.92,3.59,3.92A3.64,3.64,0,0,0,317,77.46Z" fill="#fff"/><path d="M330.49,72.21a2.37,2.37,0,0,1-1.35,2.23A2.85,2.85,0,0,1,330.8,77c0,2.58-1.74,3.4-3.89,3.4H322V68.86h4.94C329,68.86,330.49,69.89,330.49,72.21ZM323.9,73.5h3c1.23,0,1.63-.58,1.63-1.24a1.48,1.48,0,0,0-1.63-1.42h-3Zm0,4.89h3c.8,0,1.94-.3,1.94-1.39s-1.14-1.58-1.94-1.58h-3Z" fill="#fff"/><path d="M341.42,80.42h-2.33l-3-3.86h-1.89v3.86h-2V68.85h5a3.64,3.64,0,0,1,3.74,3.83,3.36,3.36,0,0,1-2.63,3.63l3.15,4Zm-7.25-9.53v3.7h3a1.85,1.85,0,0,0,0-3.7Z" fill="#fff"/><path d="M350,80.42H342.2V68.86H350V71h-5.84v2.65h5.63v2h-5.63v2.6H350Z" fill="#fff"/><path d="M362.9,80.42h-1.66l-1.3-3.63-1.1-3.65-1.08,3.68-1.26,3.6h-1.67L351,68.86h2.2l2.45,8.34,2.53-8.34h1.28l2.6,8.34,2.38-8.34h2.2Z" fill="#fff"/><path d="M375.62,80.42h-7.78V68.86h7.78V71h-5.84v2.65h5.64v2h-5.64v2.6h5.84Z" fill="#fff"/><path d="M386.38,80.42H384l-3-3.86h-1.88v3.86h-2V68.85h4.95a3.64,3.64,0,0,1,3.75,3.83,3.37,3.37,0,0,1-2.63,3.63l3.15,4Zm-7.25-9.53v3.7h3a1.85,1.85,0,0,0,0-3.7Z" fill="#fff"/><path d="M391.57,73.63l2.77-4.77h2.36V69l-4.15,6.69v4.77h-2V75.65l-4-6.69v-.1h2.33Z" fill="#fff"/><path d="M404.18,1a5.19,5.19,0,0,1,5.14,5.26,5.14,5.14,0,1,1-10.28,0A5.2,5.2,0,0,1,404.18,1Zm0,9.49a4.19,4.19,0,0,0,4.14-4.23,4.14,4.14,0,1,0-8.27,0A4.19,4.19,0,0,0,404.18,10.44Zm-2.32-7h2.58c1.31,0,1.85.71,1.85,1.57a1.55,1.55,0,0,1-1.48,1.55v0c.46.16.68.47,1.05,1.12L406.62,9h-1.38l-.45-.9c-.55-1.1-.88-1.39-1.53-1.39H403V9h-1.11Zm2.32,2.4c.58,0,.94-.32.94-.77s-.37-.75-1.14-.75h-1V5.84Z" fill="#fff"/></svg>