<svg width="1467" height="1043" viewBox="0 0 1467 1043" fill="none"
    xmlns="http://www.w3.org/2000/svg">
    <g clip-path="url(#clip0_113_344)">
        <path d="M126.488 588.405H0.921387V604.697H41.9839V734.33H85.4256V604.697H126.488V588.405Z"
            fill="white" />
        <path d="M151 588.401H194.438V734.33H151V588.401Z" fill="white" />
        <path
            d="M369.813 588.405H326.534L326.376 588.755L294.463 658.13L268.713 588.405H219.113V734.33H235.405V623.601L268.78 713.972L268.763 714.01L269.072 714.755L276.301 734.33H284.801L326.376 642.547V734.33H369.813V588.405Z"
            fill="white" />
        <path
            d="M545.097 588.405H501.817L501.659 588.755L469.747 658.13L443.997 588.405H394.396V734.33H410.688V623.601L444.063 713.972L444.047 714.01L444.355 714.755L451.584 734.33H460.084L501.659 642.547V734.33H545.097V588.405Z"
            fill="white" />
        <path
            d="M613.101 718.043V671.36H661.893V655.072H613.101V604.693H661.893V588.405H569.664V734.33H668.172V718.043H613.101Z"
            fill="white" />
        <path
            d="M791.13 665.738C806.943 657.968 817.272 645.397 817.272 631.163C817.272 607.547 788.968 588.401 754.051 588.401C753.701 588.401 753.359 588.434 753.014 588.438L736.064 588.401H692.626V734.33H736.064V604.722H746.868C753.476 604.722 760.084 606.526 765.33 610.547C771.589 615.347 775.518 622.247 775.518 629.922C775.518 644.43 761.501 656.188 744.209 656.188C743.301 656.188 742.405 656.138 741.518 656.076L752.697 673.876C752.722 673.893 752.743 673.901 752.764 673.913C753.284 673.922 753.789 673.884 754.301 673.884L754.314 673.922H752.747L790.551 734.105H833.989L791.13 665.738Z"
            fill="white" />
        <path
            d="M1003.97 588.405H960.688L960.53 588.755L928.618 658.13L902.868 588.405H853.268V734.33H869.559V623.601L902.934 713.972L902.918 714.01L903.226 714.755L910.455 734.33H918.955L960.53 642.547V734.33H1003.97V588.405Z"
            fill="white" />
        <path
            d="M1082.1 671.739L1098.44 635.801L1111.71 671.739H1082.1ZM1095.03 589.047V589.164L1094.92 589.389L1095.03 589.047ZM1181.45 733.993L1127.24 588.405H1095.23L1028.49 733.993H1053.8L1053.83 733.926L1074.69 688.03H1117.73L1134.71 733.993H1181.45Z"
            fill="white" />
        <path
            d="M1330.69 588.405H1314.4V667.843L1247.27 588.534L1247.2 588.601L1247.23 588.405H1206.07V734.33H1222.36V626.339L1314.43 734.33H1330.69V588.405Z"
            fill="white" />
        <path
            d="M1439.42 660.355L1439.43 660.343C1439.43 660.343 1425.59 650.28 1417.01 646.526C1411.34 644.043 1404.99 642.401 1399.82 639.934C1399.35 639.747 1398.93 639.48 1398.48 639.259C1398.22 639.122 1397.94 638.997 1397.69 638.855C1396.82 638.376 1396 637.839 1395.22 637.239L1395.21 637.226C1390.87 633.88 1388.04 628.83 1388.04 623.101C1388.04 613.026 1396.61 604.859 1407.18 604.859C1414.34 604.859 1421.48 609.897 1425.58 614.876C1427.96 617.759 1433.3 625.397 1433.3 625.397L1445.23 615.78L1439.57 607.964C1437.49 605.093 1435.23 602.33 1432.57 599.997C1424.36 592.801 1413.53 588.405 1401.63 588.405C1400.6 588.405 1399.59 588.493 1398.58 588.555C1394.51 588.976 1390.58 589.714 1386.87 590.784C1367.71 597.055 1354.09 615.151 1355.2 636.218C1355.23 636.447 1355.26 636.68 1355.29 636.905C1359.53 655.197 1377.09 672.126 1401.26 679.235C1400.99 679.218 1400.73 679.201 1400.46 679.193C1409.88 680.764 1417.03 688.097 1417.03 696.939C1417.03 706.922 1407.93 715.022 1396.7 715.022C1390.35 715.022 1384.43 712.468 1380.71 708.401L1380.61 708.476L1370.91 695.622L1357.69 705.139L1362.83 713.21C1366.42 718.218 1370.7 722.776 1375.86 726.139C1383.62 731.193 1392.91 734.335 1403.4 734.335C1430.87 734.335 1453.13 714.718 1453.13 690.514C1453.13 678.814 1447.9 668.214 1439.42 660.355Z"
            fill="white" />
        <path
            d="M1120.67 375.992C1120.67 375.992 1144.61 339.58 1145.4 325.417C1146.08 312.563 1139.81 301.522 1128.12 297.697C1125.85 297.038 1123.46 296.592 1120.97 296.334C1120.35 296.292 1119.74 296.242 1119.11 296.242C1111.85 296.242 1105.24 298.926 1100.24 303.313C1098.61 304.738 1097.23 306.426 1095.96 308.176L1092.51 312.947L1099.79 318.817C1099.79 318.817 1103.05 314.155 1104.5 312.397C1107 309.355 1111.36 306.284 1115.73 306.284C1122.18 306.284 1127.4 311.267 1127.4 317.413C1127.4 336.372 1095.75 375.992 1095.75 375.992H1095.69V386.572H1153.11V375.992H1120.67Z"
            fill="white" />
        <path
            d="M365.546 307.367H407.142C386.788 339.055 382.659 386.572 382.659 386.572H402.867C406.259 344.338 428.384 307.367 428.384 307.367V296.822H365.546V307.367Z"
            fill="white" />
        <path
            d="M1045.56 375.992C1032.65 375.992 1030.36 360.367 1030.36 341.097C1030.36 321.826 1032.65 306.201 1045.56 306.201C1058.46 306.201 1060.75 321.826 1060.75 341.097C1060.75 360.367 1058.46 375.992 1045.56 375.992ZM1045.56 296.242C1022.01 296.242 1011.1 316.634 1011.1 341.788C1011.1 366.942 1022.01 387.334 1045.56 387.334C1069.1 387.334 1080.01 366.942 1080.01 341.788C1080.01 316.634 1069.1 296.242 1045.56 296.242Z"
            fill="white" />
        <path
            d="M310.492 316.288L317.971 323.767C325.646 318.588 330.167 311.576 330.167 311.576V386.572H349.026V296.863L329.963 296.817C320.609 309.23 310.492 316.288 310.492 316.288Z"
            fill="white" />
        <path
            d="M729.338 91.2505C731.526 92.163 733.876 91.2796 735.184 90.113C740.322 85.5171 739.78 72.1796 733.076 69.9046C732.455 69.7004 731.317 69.6421 730.638 69.7421C729.847 69.8629 729.322 70.0338 728.93 70.2296C722.538 73.5171 722.434 88.3671 729.338 91.2505Z"
            fill="white" />
        <path
            d="M922.247 436.318C922.13 437.101 921.197 438.197 920.864 439.076C920.493 440.088 920.285 441.259 920.055 442.322C919.564 444.638 919.005 446.809 918.272 448.651C916.668 452.676 913.884 455.305 910.48 457.009C910.83 454.993 910.522 453.038 910.801 451.33C910.98 450.268 911.622 449.501 911.86 448.734C912.385 447.022 912.384 444.959 911.614 443.459C911.439 443.109 911.134 442.747 911.047 442.243C910.759 440.53 911.047 438.472 911.047 436.643C911.047 423.976 909.843 412.134 908.126 400.934C903.247 369.097 893.014 342.534 877.451 321.076C874.314 316.755 870.73 312.605 867.143 308.901C867.159 308.813 867.226 308.859 867.226 308.901C871.776 310.751 877.109 313.005 881.505 315.234C882.318 315.647 883.197 317.03 884.026 318.076C901.105 339.717 912.51 367.105 918.514 399.713C920.293 409.372 921.609 420.138 922.085 431.447C922.155 433.138 922.435 435.018 922.247 436.318ZM894.814 442.972C893.939 440.518 891.589 438.647 888.568 438.509C885.743 438.376 883.434 439.988 882.48 442.405C881.943 443.759 881.918 445.251 881.505 446.705C880.584 449.993 879.026 453.018 876.959 455.305C876.601 455.709 876.151 456.376 875.501 456.28C875.443 454.355 875.843 452.405 876.068 450.438C877.655 436.63 877.964 420.301 876.718 405.801C875.322 389.501 872.172 374.255 867.955 361.005C861.522 340.784 852.447 323.038 840.364 308.255C836.272 303.255 831.593 298.584 826.889 294.542C826.876 294.472 826.922 294.463 826.972 294.459C834.043 296.513 841.601 299.267 848.48 301.601C849.447 301.93 850.718 303.597 851.726 304.684C865.78 319.917 876.43 339.005 884.105 360.438C892.435 383.705 897.335 410.43 896.926 441.43C896.322 442.047 895.526 442.463 894.814 442.972ZM864.384 445.243C861.98 446.759 860.251 449.113 858.293 451.409C857.743 452.063 856.955 453.272 856.351 453.359C855.676 453.455 854.759 453.151 853.997 453.034C851.764 452.697 849.464 452.405 847.259 451.98C847.23 451.276 847.647 450.58 847.826 449.788C848.509 446.784 847.714 444.03 845.555 442.972C842.597 441.518 838.139 442.622 835.897 444.026C833.239 445.688 831.418 447.942 829.164 449.301C820.843 448.017 812.593 446.78 804.084 445.651C802.914 445.497 801.63 445.426 800.514 445.163C799.714 444.976 799.068 444.584 798.159 444.513C796.93 444.418 795.714 444.509 794.514 444.351C787.039 443.368 778.384 442.53 770.001 443.134C742.255 445.143 724.022 457.53 712.868 476.001C711.751 473.693 709.897 471.743 708.893 469.593C710.814 455.047 711.218 438.868 710.514 423.413C709.818 408.105 707.539 393.522 704.751 380.563C699.047 354.001 688.88 331.08 675.859 312.397C680.864 312.88 686.026 313.213 691.201 313.53C690.739 314.634 690.155 315.484 689.659 316.455C689.184 317.376 688.322 318.567 688.359 319.78C688.443 322.597 689.68 325.551 690.713 327.813C691.551 329.651 692.376 331.209 693.634 332.68C694.018 333.134 694.689 333.563 694.851 333.98C695.122 334.663 695.059 335.797 695.176 336.659C695.53 339.338 695.893 341.98 696.23 344.613C698.814 342.659 701.793 339.967 704.509 337.472C705.13 336.901 706.339 335.163 707.184 335.034C707.909 334.926 708.997 335.651 709.784 335.851C710.784 336.097 711.755 336.172 712.947 336.255C714.001 339.988 715.439 343.338 716.601 346.967C717.176 346.634 717.555 345.976 717.98 345.422C720.626 341.98 723.251 338.713 725.526 334.63C725.884 333.997 726.239 332.955 727.072 333.172C727.534 333.288 727.505 333.705 727.722 334.384C728.722 337.555 729.993 340.572 730.964 343.638C734.251 339.53 737.601 335.597 740.139 330.738C740.493 330.055 740.726 329.309 741.109 328.626C741.647 327.672 742.38 326.934 742.814 325.947C744.114 323.013 744.864 319.505 745.409 315.642C766.143 315.476 786.126 312.68 803.193 308.417C804.347 308.13 805.605 307.917 806.605 307.526C807.026 307.359 807.376 307.03 807.822 306.876C809.13 306.417 810.526 306.267 811.797 305.901C815.601 304.805 819.314 303.401 822.589 301.68C837.714 317.505 848.734 337.83 856.105 361.738C863.247 384.892 867.114 414.609 864.384 445.243ZM694.201 455.468C693.868 455.58 693.63 455.226 693.393 455.063C688.918 452.063 683.572 449.38 677.968 447.434C680.751 408.442 673.259 374.892 660.443 349.401C647.418 323.492 629.313 302.476 602.338 290.726C607.272 289.659 612.597 288.438 617.838 287.397C619.588 287.051 621.472 286.467 623.109 286.422C623.634 286.409 624.022 286.613 624.572 286.83C624.976 288.267 625.534 289.547 626.113 290.805C624.247 292.38 620.343 293.484 620.513 296.892C620.651 299.617 623.976 301.459 626.193 302.576C631.451 305.213 637.201 306.501 643.643 307.851C645.78 308.297 648.334 308.801 650.784 309.23C651.63 309.38 652.609 309.392 653.218 309.634C654.009 309.942 655.168 311.776 655.98 312.801C668.826 329.072 678.343 349.23 684.705 371.801C691.626 396.334 695.48 423.884 694.201 455.468ZM657.763 443.297C654.926 443.051 652.005 442.888 648.918 442.888C651.505 409.597 645.872 379.409 635.609 356.863C630.434 345.501 624.068 335.047 615.318 326.842C611.093 322.876 606.363 319.155 600.547 316.455C594.909 313.826 587.822 311.751 579.613 312.397C577.738 312.538 575.88 312.784 574.013 313.126C572.143 313.467 570.234 313.476 568.413 313.776C557.834 315.505 549.755 320.376 543.009 326.109C525.134 341.313 513.947 364.342 508.197 391.926C505.313 405.747 503.972 421.617 504.868 438.347C504.826 438.563 504.388 437.738 504.222 437.455C502.801 435.093 500.018 432.638 495.942 433.234C494.888 433.388 493.997 433.797 493.263 434.126C492.73 397.684 499.972 368.588 512.497 344.692C518.668 332.926 526.23 322.372 536.034 313.855C545.738 305.422 557.138 298.413 574.176 297.626C583.463 297.192 591.901 299.734 598.193 302.576C604.984 305.638 610.513 309.48 615.563 313.934C625.843 323.009 633.726 334.338 640.072 346.967C646.484 359.717 651.301 374.059 654.518 390.059C657.68 405.776 659.043 424.726 657.763 443.297ZM642.263 443.134C638.393 443.48 635.088 443.876 631.472 444.351C630.247 444.513 629.005 444.393 627.655 444.513C626.493 444.618 625.309 445.143 624.001 445.322C615.618 446.505 607.218 447.668 598.684 448.976C598.001 449.08 597.209 449.355 596.818 449.301C595.847 449.172 593.809 447.034 593.084 446.38C591.951 445.359 590.609 444.243 589.268 443.538C586.276 441.98 581.047 441.651 578.963 444.026C577.393 445.813 577.688 449.797 578.801 451.901C575.905 452.601 572.534 452.83 569.547 453.443C567.772 451.968 566.434 449.876 564.68 448.001C562.934 446.143 561.159 444.184 557.943 444.513C554.793 444.834 552.434 447.776 551.859 450.763C551.43 452.972 552.276 454.818 553.155 455.876C552.168 456.051 551.088 456.138 550.155 456.359C547.551 454.263 545.613 450.83 544.472 447.03C544.08 445.722 544.097 444.276 543.659 442.888C542.951 440.647 541.213 438.992 538.793 438.588C535.572 438.051 532.022 440.001 531.163 442.888C528.722 441.518 526.318 439.405 522.155 439.48C520.251 409.655 525.155 383.217 533.759 362.467C538.093 352.022 543.563 342.701 550.801 334.792C557.747 327.209 566.743 320.005 579.776 319.051C594.98 317.93 605.176 326.03 612.563 333.413C620.484 341.334 626.084 351.342 630.738 362.142C639.918 383.438 644.713 412.122 642.263 443.134ZM724.393 322.376C722.189 321.876 719.768 321.159 717.009 321.484C717.143 318.538 717.155 315.226 716.847 312.476C714.514 312.576 711.68 312.884 709.218 313.126C709.314 315.755 709.568 319.392 709.139 322.134C708.826 322.259 708.589 321.947 708.322 321.809C706.434 320.834 703.539 319.584 700.776 319.617C699.001 319.638 697.572 320.451 696.476 321.159C696.114 320.267 696.822 319.601 697.205 318.884C697.589 318.167 697.822 317.272 698.259 316.692C698.847 315.926 699.568 315.542 700.126 314.667C700.722 313.738 701.314 312.455 701.184 310.605C700.855 305.992 696.801 303.217 692.984 301.359C692.88 301.022 693.338 300.888 693.551 300.709C694.255 300.105 695.134 299.126 695.989 298.597C699.259 296.572 705.234 296.113 710.109 295.755C714.193 295.459 718.189 295.251 722.526 295.43C723.922 295.492 725.372 295.376 726.584 295.592C728.747 295.992 730.959 297.297 732.589 298.597C734.326 299.984 735.601 301.667 736.48 303.63C738.272 307.592 738.38 314.092 736.972 319.13C735.73 318.859 734.472 318.601 732.993 318.563C733.559 313.584 732.534 308.942 731.047 305.492C728.647 306.422 726.418 307.522 723.984 308.417C725.63 312.092 725.893 318.322 724.393 322.376ZM628.384 231.726C629.009 225.092 630.726 219.113 632.118 213.222C633.538 207.209 634.959 201.105 636.255 195.046C637.584 188.88 638.626 182.688 640.234 176.784C644.176 162.296 649.968 149.334 655.488 136.288C656.634 133.592 657.434 130.813 658.172 127.846C659.634 121.955 660.738 115.584 661.58 108.942C661.997 105.638 662.576 102.201 662.713 98.8756C662.863 95.2964 662.959 91.8631 663.443 88.4881C664.376 82.0172 665.909 76.3464 668.151 70.9589C672.434 60.6672 678.789 51.9672 686.98 45.2339C694.864 38.7464 705.772 33.1214 719.118 32.4922C727.33 32.1047 734.83 33.4089 741.351 35.3339C747.889 37.2589 753.693 39.8755 758.88 42.8797C764.197 45.9547 769.147 49.4172 773.326 53.513C777.547 57.638 781.043 62.4381 784.284 67.3881C774.18 71.1547 769.651 81.1922 767.243 92.9506C766.076 98.6547 765.297 105.442 765.297 112.267C765.297 119.046 765.28 126.017 766.751 131.905C763.218 138.301 760.001 145.063 758.476 153.413C756.818 162.509 758.026 171.876 760.993 179.055C763.926 186.159 768.064 191.73 773.089 196.751C775.584 199.246 778.384 201.401 780.955 203.809C788.618 210.992 795.305 219.084 800.272 229.13C803.564 235.792 805.905 243.176 807.739 251.447C808.622 255.442 809.43 259.763 809.764 264.351C810.843 278.988 806.676 291.151 801.897 300.788C785.114 305.084 766.259 307.734 745.493 307.767C744.176 298.188 739.247 292.276 731.534 289.184C730.239 288.667 728.847 288.067 727.397 287.888C725.855 287.692 724.13 287.722 722.201 287.722C721.455 287.722 719.568 285.551 719.034 284.963C712.668 277.955 707.047 270.426 704.43 259.805C701.151 246.513 704.355 231.38 707.918 220.772C709.759 215.284 711.826 209.672 713.843 203.892C714.818 201.088 715.776 198.246 716.522 195.209C718.901 185.455 715.73 174.271 711.001 168.426C707.676 164.313 703.059 161.105 696.23 160.471C696.064 162.876 696.193 165.571 696.151 168.101C704.739 169.567 708.239 176.663 709.376 185.63C709.78 188.805 709.476 191.63 708.647 194.638C704.28 210.501 696.547 223.822 695.422 242.842C694.255 262.488 701.251 276.205 710.189 286.588C710.384 286.813 710.564 287.08 710.755 287.317C710.868 287.455 711.293 287.592 711.08 287.888C704.039 288.467 697.826 289.063 692.905 291.538C690.563 292.713 688.643 294.672 686.739 296.326C684.764 298.038 682.955 299.813 681.218 301.517C671.555 296.897 666.597 287.563 663.363 276.605C660.13 265.642 658.718 252.459 658.576 238.626C656.193 238.542 653.326 238.68 650.784 238.705C651.418 262.638 654.576 284.655 665.393 298.517C665.68 298.884 666.334 299.309 666.205 299.734C657.463 297.53 646.672 295.651 638.368 292.43C637.184 291.972 635.255 291.388 634.634 290.647C633.993 289.88 633.318 288.234 632.768 286.913C626.984 272.984 626.638 250.255 628.384 231.726ZM612.722 130.609C614.313 125.113 615.913 119.626 617.676 114.296C628.947 116.959 640.193 119.642 651.518 122.251C650.513 128.088 648.668 133.088 646.48 137.751C635.188 135.409 624.038 132.93 612.722 130.609ZM595.276 153.817C594.976 153.909 594.397 153.488 593.976 153.171C591.176 151.042 588.693 148.184 586.351 145.459C583.676 142.359 580.959 139.042 578.963 135.313C577.943 133.413 577.268 131.301 576.368 129.146C574.193 123.963 572.655 118.58 572.305 111.292C572.243 109.871 571.955 108.146 572.147 107.071C572.251 106.492 573.372 105.288 573.93 104.559C577.101 100.417 580.659 97.1589 584.884 94.1714C586.593 92.9672 588.209 91.7464 589.838 90.5964C593.176 88.2506 597.026 86.4214 601.122 84.8381C605.959 82.9589 610.88 81.2839 617.184 81.4297C609.826 105.501 602.659 129.767 595.276 153.817ZM587.405 180.109C575.397 175.455 563.488 170.696 551.534 165.992C552.051 153.442 554.638 143.509 558.105 133.934C558.751 132.155 559.638 130.759 559.809 128.496C561.055 126.117 562.138 123.576 563.38 121.192C563.451 121.18 563.459 121.226 563.463 121.276C564.151 125.984 566.193 130.134 567.68 134.259C570.63 142.434 575.905 148.805 581.397 154.792C584.034 157.659 587.226 160.888 590.568 162.742C591.147 163.067 591.768 163.276 592.434 163.392C590.755 168.963 589.059 174.517 587.405 180.109ZM548.934 130.121C548.697 130.171 548.547 129.838 548.447 129.717C543.326 122.959 538.322 115.759 533.272 108.859C528.693 102.596 524.193 96.3214 519.559 90.0297C518.934 89.1839 518.101 88.3881 517.772 87.3506C533.993 82.2047 550.122 76.9589 566.305 71.7714C564.851 81.0839 563.038 91.1839 562.326 101.634C562.276 102.359 562.372 103.142 562.243 103.742C562.105 104.413 561.213 105.384 560.705 106.18C558.018 110.409 555.73 114.292 553.48 118.838C552.288 121.246 551.122 123.055 550.722 125.901C549.955 127.134 549.588 128.771 548.934 130.121ZM491.968 123.792C491.913 116.159 496.684 111.171 500.972 107.642C500.993 107.555 501.138 107.584 501.138 107.48C501.205 107.463 501.213 107.509 501.218 107.559C501.876 110.392 502.597 113.196 502.597 116.484C502.597 120.251 501.268 122.63 499.351 124.846C497.538 126.942 495.401 128.88 493.184 130.121C492.555 128.121 491.984 126.259 491.968 123.792ZM541.793 162.176C524.938 155.496 508.084 148.817 491.155 142.213C494.147 141.821 496.147 140.263 498.459 138.726C503.276 135.513 508.418 130.905 510.793 125.413C513.584 118.959 512.272 110.034 510.388 103.584C509.338 99.9922 508.497 94.5839 503.326 95.1422C501.23 95.3714 498.872 97.1131 497.159 98.2256C491.601 101.838 487.072 106.73 484.338 112.996C482.426 117.371 481.518 123.188 482.551 128.659C483.393 133.117 485.343 137.73 487.905 140.588C488.013 140.705 488.393 140.796 488.23 141.076C474.263 135.459 460.192 129.946 446.113 124.438C448.522 116.405 450.984 108.43 453.334 100.338C471.876 97.6964 490.384 95.0256 508.847 92.3006C521.026 108.846 533.155 125.451 545.201 142.134C543.505 148.255 542.28 154.846 541.793 162.176ZM434.184 93.1131C440.038 73.0297 446.122 53.1672 451.955 33.0589C454.059 34.7339 456.326 37.2839 458.609 39.388C459.292 40.0214 460.626 40.9089 460.722 41.5005C460.813 42.088 460.022 43.738 459.747 44.663C455.138 60.1505 450.242 76.3006 445.709 91.4922C441.788 91.9547 438.038 92.5881 434.184 93.1131ZM430.205 71.7714C428.555 69.7131 427.155 67.3547 425.663 65.1172C424.172 62.8797 422.551 60.7381 421.363 58.463C426.059 57.0714 430.609 55.538 435.238 54.0797H435.401C433.705 60.0131 431.855 65.7881 430.205 71.7714ZM468.755 49.1297C479.868 59.638 491.018 70.3339 502.03 80.9422C502.73 81.6172 503.555 82.2089 504.059 83.0506C488.122 85.2381 472.397 87.6381 456.501 89.8672C460.613 76.3172 464.722 62.7589 468.755 49.1297ZM523.618 47.9922C523.626 51.4214 522.163 53.6505 520.53 55.7839C518.901 57.9172 517.08 59.8922 515.176 61.3006C513.747 57.1464 513.263 51.7714 514.447 47.4255C515.538 43.4089 518.393 40.0505 521.263 38.0922H521.343C521.413 38.0755 521.422 38.1214 521.426 38.1714C522.422 41.2172 523.605 44.3297 523.618 47.9922ZM478.576 16.6672C478.572 16.5297 478.634 16.4547 478.738 16.4255C493.501 19.6755 508.105 23.088 522.884 26.3255C512.476 30.2797 504.451 37.9964 503.813 52.0505C503.551 57.9047 505.026 62.7422 506.818 66.9006C507.663 68.8631 508.584 71.3297 509.98 72.6631C511.034 73.6714 513.201 74.3297 515.013 73.7172C516.776 73.1256 518.513 71.5381 520.126 70.2297C524.809 66.4172 529.226 61.8547 531.813 56.188C533.751 51.938 533.863 46.5339 532.784 41.5005C531.805 36.9214 530.147 32.5172 528.159 29.0005C527.763 28.3005 527.226 27.788 526.701 27.2172C544.376 31.2339 562.138 35.1714 579.776 39.2297C579.843 39.688 579.426 40.013 579.205 40.363C575.513 46.2672 572.205 53.1422 569.713 60.3255C551.747 66.2006 533.593 71.6214 515.501 77.6964C514.884 77.9006 514.084 78.2839 513.793 78.2631C513.168 78.2131 511.722 76.5422 511.034 75.9089C508.401 73.4797 505.759 70.7172 503.247 68.3631C497.918 63.3672 492.818 58.388 487.584 53.3464C483.276 49.2005 478.963 44.9297 474.517 40.8505C473.651 40.0547 472.759 39.2797 472.084 38.3339C474.188 31.0505 476.405 23.8839 478.576 16.6672ZM626.68 49.7755C624.543 57.1589 622.238 64.3756 620.109 71.7714C609.509 70.7589 600.88 74.0506 593.488 77.3714C585.947 80.7589 579.588 85.5672 573.605 90.3547C573.651 90.5256 573.288 90.5256 573.526 90.4339C574.143 85.7922 574.843 80.6047 575.634 76.0714C578.009 62.4839 583.922 51.1047 590.326 41.5797C602.451 44.3047 614.559 47.0464 626.68 49.7755ZM788.176 74.3672C790.114 74.4964 792.226 75.3214 794.268 75.8297C800.209 77.3047 806.426 78.8506 812.284 80.2922C811.393 85.8547 813.809 90.1714 817.23 92.4672C818.08 93.0297 819.764 93.5797 820.234 94.4964C820.83 95.6506 820.868 98.1381 821.047 99.6881C821.255 101.496 821.384 103.263 821.934 104.801C818.684 107.226 815.055 109.196 811.064 110.971C807.055 112.751 802.689 113.892 798.239 115.188C789.472 117.742 780.668 120.476 773.409 124.196C772.401 109.055 773.401 92.1631 779.089 81.9131C781.076 78.3339 783.676 75.3672 787.855 74.4506C787.984 74.4214 788.043 74.3589 788.176 74.3672ZM823.968 80.2131C827.314 79.9631 831.039 80.4881 832.409 82.2381C832.726 82.6464 833.03 83.3714 832.897 83.7839C832.734 84.2756 831.568 84.7756 831.026 85.1631C829.089 86.5464 827.759 88.1797 826.889 90.5172C826.022 89.0589 824.884 88.1339 823.401 87.1922C822.543 86.6422 821.397 86.1506 820.722 85.4047C820.159 84.7881 819.393 82.8922 819.83 81.7547C820.193 80.8006 822.468 80.3214 823.968 80.2131ZM804.493 158.284C803.709 163.301 803.159 169.188 803.601 174.917C790.959 171.838 778.318 168.767 765.618 165.746C765.047 159.813 765.951 154.042 767.405 149.596C779.83 152.426 792.109 155.409 804.493 158.284ZM808.064 185.955C807.884 186.617 807.618 187.188 807.493 187.901C804.347 185.888 801.422 183.642 798.239 181.655C800.659 181.996 803.239 182.884 805.793 183.359C806.43 184.342 807.393 185.001 808.064 185.955ZM814.959 189.605C816.147 190.146 817.664 190.205 818.855 190.742C819.968 191.251 820.939 192.526 821.855 193.259C824.739 195.559 828.472 197.917 833.709 197.884C834.422 197.88 835.164 197.513 836.064 197.642C836.739 197.738 838.18 198.88 838.818 199.263C841.472 200.871 843.959 202.909 848.397 202.43C853.43 201.884 856.439 199.242 859.839 196.667C861.051 197.051 862.359 197.338 863.651 197.642C857.359 214.109 847.814 230.005 837.276 242.926C835.951 244.547 834.751 246.717 832.001 246.742C830.493 246.755 829.759 245.842 828.755 244.955C824.072 240.801 817.28 238.659 811.393 235.784C806.551 222.663 800.247 212.251 791.343 203.159C782.664 194.292 771.551 187.267 767.405 174.105C769.022 174.613 770.968 174.805 772.68 175.405C774.143 175.917 775.601 176.867 777.064 177.68C786.98 183.192 796.105 189.405 805.143 195.776C804.184 199.226 803.472 202.921 803.439 207.296C806.064 206.951 808.497 206.409 811.147 206.084C811.455 199.63 813.614 195.026 814.959 189.605ZM813.418 153.817C815.647 146.567 819.43 140.351 827.055 139.696C827.205 139.684 827.251 139.696 827.297 139.696C830.289 139.717 833.422 140.351 836.384 140.834C842.205 141.784 847.518 142.855 852.697 144.813C855.026 145.688 857.805 146.888 859.193 148.463C860.597 150.059 861.489 152.621 862.109 155.034C862.764 157.546 863.33 160.338 863.247 163.313C858.968 163.463 856.139 165.501 853.672 168.017C851.589 170.142 849.809 172.671 848.639 175.242C847.305 178.167 846.451 182.055 847.18 185.551C847.859 188.826 849.697 191.126 851.726 193.096C850.193 193.846 848.705 195.134 846.447 194.721C845.422 194.534 843.759 193.271 842.797 192.692C841.505 191.917 840.318 191.126 839.309 190.501C837.518 184.696 839.214 177.259 840.447 171.996C838.089 171.238 835.439 170.78 833.055 170.046C831.497 175.601 830.214 182.705 831.109 189.688C829.714 189.292 828.514 188.63 827.376 187.821C826.555 187.234 824.884 186.08 824.455 185.142C824.126 184.421 824.126 183.238 823.968 182.221C822.88 175.071 824.176 166.705 827.055 162.501C824.868 161.196 822.664 159.913 820.401 158.688C816.947 164.259 815.072 172.476 816.018 181.655C814.451 180.926 812.526 180.059 811.876 178.571C811.197 177.017 811.247 174.496 811.147 172.321C810.826 165.576 811.905 158.759 813.418 153.817ZM867.793 147.892C870.639 149.905 873.347 152.688 873.634 157.309C873.83 160.442 872.98 163.284 872.659 166.313C872.134 166.417 871.459 166.013 870.797 165.992C871.455 158.93 869.884 152.742 867.709 147.976C867.697 147.909 867.743 147.901 867.793 147.892ZM903.176 181.492C910.097 183.13 917.118 184.855 924.601 185.955C932.11 187.059 939.935 187.78 948.297 188.067C944.435 197.071 945.593 212.613 948.785 221.417C935.247 215.505 922.143 209.455 907.801 203.405C900.78 200.438 893.876 197.617 886.13 195.53C880.38 193.98 874.464 192.484 868.526 190.988C866.58 190.496 864.497 190.151 862.764 189.446C862.109 189.18 861.609 188.496 860.814 188.146C860.164 187.859 859.359 187.688 858.622 187.496C857.889 187.305 856.939 187.23 856.43 186.93C855.439 186.334 854.676 184.367 854.643 182.788C854.555 177.996 858.497 173.626 861.301 171.671C875.505 175.034 889.126 178.167 903.176 181.492ZM388.576 53.2672C384.476 51.9839 381.43 49.4422 379.405 46.3672C382.651 45.263 385.834 43.9547 390.359 44.2589C393.217 44.4505 395.576 46.0172 397.501 47.588C399.517 49.2297 401.351 51.1255 402.534 52.863C398.438 54.3005 392.759 54.5755 388.576 53.2672ZM954.872 192.526C955.28 191.126 956.118 188.596 957.143 188.309C958.305 187.984 959.789 190.446 960.389 191.476C962.71 195.434 964.014 200.651 964.689 206.001C965.36 211.263 965.164 218.459 963.635 223.042C963.218 224.288 962.293 226.872 961.28 226.938C960.305 227.005 958.947 224.834 958.28 223.692C954.151 216.651 951.918 202.613 954.872 192.526ZM1063.46 477.463C1063.39 476.851 1063.59 476.343 1063.53 475.755C1063.11 471.255 1056.88 471.397 1052.42 472.43C1052 472.668 1053.13 471.668 1053.39 471.376C1053.98 470.718 1054.7 469.959 1054.45 468.534C1053.7 464.259 1044.76 465.951 1041.13 466.668C1036.11 467.668 1032.01 469.101 1027.5 470.159C1018.22 472.334 1005.69 472.584 997.393 469.509C1002.4 469.268 1006.89 468.351 1010.78 466.83C1014.51 465.38 1018.15 463.263 1019.96 460.013C1022.48 455.468 1017.96 452.022 1014.6 450.763C1010.64 449.28 1004.46 449.359 1001.21 451.251C1002.23 448.113 1000.31 446.405 998.451 445.243C996.443 443.993 993.822 443.13 990.989 443.134C985.53 443.143 981.343 446.613 978.326 449.626C973.543 454.409 968.21 458.359 960.226 460.259C959.026 460.543 957.739 460.801 956.33 461.151C954.926 461.497 950.047 462.305 950.735 459.934C951.068 458.763 952.743 458.584 954.06 458.23C959.63 456.73 965.626 454.472 968.751 450.355C971.043 447.33 970.914 443.488 968.097 441.347C966.126 439.843 962.797 438.605 959.172 439.238C958.843 439.297 958.414 439.438 958.035 439.318C959.572 436.726 960.176 432.959 958.847 430.393C956.701 426.255 948.876 422.872 942.86 425.28C940.205 426.347 938.518 428.563 937.097 430.717C937.255 408.322 934.31 388.755 929.147 371.555C922.055 347.947 910.73 328.417 894.247 314.18C892.722 312.859 891.184 311.513 889.543 310.526C887.784 309.472 885.784 308.672 883.859 307.767C863.143 298.03 840.126 290.001 816.176 283.342C819.159 271.284 817.218 256.226 814.314 245.688C814.734 245.626 815.159 245.917 815.53 246.092C818.339 247.401 821.647 248.88 823.889 250.959C826.464 253.351 830.468 255.33 835.089 254.047C836.943 253.526 838.747 252.53 840.118 251.447C841.472 250.38 842.505 248.747 843.609 247.392C854.734 233.672 864.389 217.43 871.364 199.667C876.418 200.938 881.314 202.155 886.051 203.484C890.814 204.822 895.264 206.555 899.689 208.355C908.468 211.93 916.926 215.726 925.493 219.555C935.951 224.226 947.001 228.809 957.551 233.755C959.901 234.859 962.676 234.988 964.935 233.838C968.855 231.838 970.743 227.305 971.835 222.313C974.293 211.042 972.047 198.505 968.589 190.501C966.889 186.571 964.176 182.184 959.743 180.842C957.405 180.138 954.147 180.434 951.055 180.434C942.272 180.434 933.472 179.396 925.572 178.246C909.697 175.934 895.372 171.321 880.209 168.184C881.009 162.996 881.968 158.355 880.859 153.576C879.889 149.396 877.484 145.967 874.609 143.43C867.33 137.013 856.076 134.351 843.772 133.367C841.284 133.167 838.659 133.28 835.98 132.959C833.559 132.676 831.118 132.238 828.755 131.988C826.322 131.73 823.801 132.192 821.697 132.88C813.518 135.546 808.922 142.796 806.359 150.817C794.384 147.934 782.309 145.163 770.326 142.292C770.018 142.092 770.472 141.605 770.568 141.401C772.209 137.942 773.809 135.259 775.522 132.392C776.259 131.146 778.272 130.301 779.743 129.634C787.609 126.055 796.664 123.755 806.034 121.03C813.48 118.867 819.472 115.655 825.022 112.105C828.172 110.092 830.264 108.417 831.759 104.884C832.826 102.363 833.447 99.7589 833.793 96.4422C833.884 95.5006 833.755 94.3172 834.03 93.2756C834.43 91.7756 836.03 91.2881 837.118 90.5172C838.768 89.3464 840.205 87.4506 840.609 84.9172C841.222 81.0256 839.326 78.3256 837.276 76.3172C833.814 72.9172 827.039 71.4672 820.48 72.9881C819.743 73.1589 818.98 73.6089 818.209 73.7172C817.589 73.8047 816.422 73.3922 815.447 73.1506C809.855 71.7631 804.493 70.4214 798.814 69.0131C797.855 68.7756 796.768 68.6381 796.13 68.2797C795.422 67.8839 794.614 66.8964 793.859 66.1714C793.13 65.4672 792.33 64.7506 791.668 64.0631C790.218 62.5506 789.093 60.7505 788.018 59.1089C781.23 48.7589 771.734 40.8797 760.422 34.8464C749.647 29.0922 735.689 24.038 718.793 24.7839C713.618 25.0089 708.634 26.0255 704.101 27.3797C695.384 29.988 687.989 34.3589 681.784 39.6339C669.28 50.2672 660.33 64.2047 656.463 83.4589C655.959 85.9797 655.568 88.4339 655.33 91.0006C655.08 93.6297 655.134 96.3339 654.926 99.2006C654.559 104.167 653.609 109.296 652.897 114.459C651.63 114.517 650.243 114.059 648.838 113.726C639.33 111.496 629.463 109.109 619.868 106.913C625.322 88.5339 630.876 70.2547 636.422 51.9672C637.955 52.3672 640.072 52.763 641.938 53.188C643.793 53.6089 645.718 54.313 647.459 54.4047C650.005 54.538 651.768 52.9505 652.409 51.238C653.263 48.9505 652.297 46.6255 650.705 45.4755C649.18 44.3797 646.855 44.1547 644.455 43.6089C585.13 30.1589 525.947 16.9839 466.563 3.51717C462.063 2.50051 457.513 1.45051 453.172 0.433838H451.634C446.651 1.13384 446.117 8.33384 450.659 10.013C452.042 10.5255 453.638 10.7088 455.201 11.0672C459.701 12.1047 464.567 13.2338 468.917 14.1505C467.53 19.013 466.155 23.5255 464.697 28.4339C464.509 29.0672 464.309 30.1797 464.051 30.463C463.759 30.7755 463.83 30.5339 463.397 30.138C460.359 27.3422 457.826 24.8047 454.876 22.1047C453.805 21.1214 452.83 19.7964 451.634 19.263C448.888 18.0505 445.992 19.7089 445.059 21.6964C444.701 22.4547 444.497 23.4297 444.247 24.2964C442.409 30.6089 440.526 36.8005 438.726 43.0422C436.484 43.0839 434.363 43.9214 432.317 44.5839C426.042 46.613 419.801 48.6547 413.492 50.588C409.147 44.988 404.284 38.7797 397.097 35.8172C388.692 32.3547 378.255 35.738 371.859 38.7422C368.559 37.813 365.584 36.8922 362.28 35.9005C360.592 35.3922 358.884 34.8797 357.251 35.4922C355.913 35.9964 354.747 36.9714 354.242 38.6589C353.697 40.5089 354.326 42.263 355.301 43.3672C356.317 44.5172 357.872 44.9255 359.442 45.3964C362.722 46.3797 365.855 47.3505 369.097 48.2339C372.392 54.7672 377.567 60.1172 385.163 62.6006C393.222 65.2339 404.138 63.8881 410.405 60.2464C413.909 65.3339 417.609 70.8922 421.117 76.1547C422.78 78.6506 424.092 81.6381 426.88 82.7256C425.547 87.3631 424.13 91.9714 422.738 96.6839C422.226 98.4381 422.022 100.105 422.901 101.634C423.684 102.992 424.997 103.888 426.476 104.067C428.251 104.292 430.055 103.676 431.909 103.421C435.601 102.913 439.022 102.43 442.542 101.959C440.68 108.213 438.738 114.384 436.942 120.709C431.559 118.751 426.684 116.726 421.442 114.621C418.155 113.301 415.384 114.238 414.217 116.892C412.767 120.205 414.872 122.742 417.222 123.709C427.309 127.851 437.734 131.721 448.305 135.884C500.047 156.246 551.588 176.917 603.226 197.076C604.434 197.542 605.863 198.213 607.122 198.534C610.33 199.351 613.03 197.067 613.293 194.23C613.618 190.671 610.859 189.388 608.343 188.392C604.318 186.792 600.659 185.434 596.655 183.763C601.163 168.605 605.801 153.576 610.288 138.401C621.197 140.805 632.259 143.046 643.155 145.459C639.359 154.596 635.576 164.346 632.768 174.834C631.347 180.138 630.359 185.659 629.197 191.151C626.863 202.18 624.084 212.684 621.809 223.613C620.655 229.172 620.313 235.172 619.947 241.63C619.226 254.292 619.918 267.588 622.218 278.713C602.18 282.467 583.009 287.255 565.409 293.159C556.568 296.13 547.788 299.384 540.659 304.038C533.555 308.667 527.322 314.351 521.83 320.913C510.997 333.863 503.105 349.734 497.484 367.901C491.851 386.109 488.697 406.763 488.718 430.472C488.559 430.672 488.368 430.117 488.23 429.905C486.905 427.83 485.301 426.213 482.876 425.28C476.897 422.984 469.076 426.251 466.972 430.472C465.647 433.126 466.522 436.776 467.859 439.48C465.455 438.747 462.759 439.042 460.638 439.809C458.326 440.638 455.897 442.263 455.609 444.593C454.905 450.276 459.734 453.118 462.992 454.822C465.751 456.259 469.176 457.701 472.572 458.472C473.755 458.743 475.305 459.03 475.247 460.259C475.147 462.318 470.984 461.459 469.73 461.151C468.309 460.801 467.159 460.58 466.076 460.338C458.547 458.659 453.313 455.034 448.709 450.763C445.617 447.888 442.509 444.697 437.997 443.538C435.388 442.872 432.609 443.234 430.288 443.947C427.105 444.922 423.372 447.184 424.772 451.251C417.988 447.872 407.009 450.218 405.376 456.201C404.592 459.059 406.892 461.647 408.455 463.018C413.322 467.272 420.226 468.98 428.584 469.426C420.413 472.601 407.767 472.334 398.476 470.243C394.097 469.255 389.892 467.638 385.005 466.668C381.209 465.918 372.601 464.318 371.53 468.372C371.072 470.13 372.38 471.422 373.155 472.105C373.284 472.222 373.717 472.255 373.559 472.513C368.788 470.98 360.959 471.605 362.522 477.463C330.772 478.501 364.434 489.676 385.976 489.959H403.83C406.959 489.876 410.584 489.797 413.892 489.797C423.876 489.797 433.701 489.351 443.434 488.905C469.588 487.718 494.88 486.547 520.288 484.768C532.938 483.88 545.63 483.109 558.268 482.168C583.247 480.313 608.663 478.393 634.393 477.218C637.526 477.08 640.705 476.78 643.968 476.897C647.259 477.005 650.638 476.976 654.03 476.976C670.934 476.976 687.376 477.38 704.347 477.38C707.655 477.38 711.672 477.951 714.247 477.301C715.609 476.955 716.834 476.509 718.147 476.163C719.593 475.78 721.051 475.743 722.689 475.676C739.084 475.022 756.434 475.655 772.351 476.247C778.922 476.488 785.376 476.884 791.668 477.218C843.022 479.963 892.893 484.293 943.914 487.122C969.572 488.543 995.664 489.609 1022.15 489.959H1039.92C1061.66 489.676 1095.18 478.501 1063.46 477.463Z"
            fill="white" />
        <path
            d="M1044.28 438.651C1044.53 438.58 1044.97 438.522 1045.61 438.522C1047.12 438.522 1047.81 439.159 1047.81 440.097C1047.81 441.172 1046.74 441.613 1045.41 441.613H1044.28V438.651ZM1044.22 443.313H1045.34C1046.67 443.313 1047.31 443.813 1047.5 444.893C1047.81 446.147 1048 447.034 1048.31 447.418H1050.84C1050.66 447.034 1050.39 446.476 1050.08 444.893C1049.76 443.505 1049.26 442.684 1048.25 442.372V442.247C1049.46 441.868 1050.39 441.043 1050.39 439.78C1050.39 438.776 1049.95 438.018 1049.33 437.572C1048.64 437.072 1047.76 436.751 1045.79 436.751C1044.09 436.751 1042.76 436.943 1041.82 437.072V447.418H1044.22V443.313Z"
            fill="white" />
        <path
            d="M1045.79 433.78C1050.39 433.78 1053.8 437.501 1053.8 442.113C1053.8 446.655 1050.39 450.376 1045.92 450.318C1041.32 450.318 1037.84 446.655 1037.84 442.051C1037.84 437.501 1041.32 433.78 1045.79 433.78ZM1045.86 452.459C1051.79 452.459 1056.45 447.851 1056.45 442.051C1056.45 436.247 1051.79 431.697 1045.92 431.697C1039.93 431.697 1035.19 436.247 1035.19 442.051C1035.19 447.851 1039.93 452.459 1045.86 452.459Z"
            fill="white" />
        <path
            d="M1455.72 594.147C1455.95 594.08 1456.36 594.026 1456.94 594.026C1458.33 594.026 1458.96 594.613 1458.96 595.476C1458.96 596.463 1457.98 596.868 1456.76 596.868H1455.72V594.147ZM1455.67 598.43H1456.7C1457.92 598.43 1458.5 598.893 1458.68 599.884C1458.96 601.038 1459.14 601.851 1459.43 602.201H1461.75C1461.58 601.851 1461.34 601.338 1461.06 599.884C1460.76 598.609 1460.31 597.855 1459.37 597.563V597.451C1460.48 597.101 1461.34 596.347 1461.34 595.184C1461.34 594.263 1460.93 593.563 1460.36 593.155C1459.72 592.697 1458.92 592.401 1457.11 592.401C1455.55 592.401 1454.33 592.576 1453.46 592.693V602.201H1455.67V598.43Z"
            fill="white" />
        <path
            d="M1457.11 589.672C1461.34 589.672 1464.48 593.089 1464.48 597.33C1464.48 601.505 1461.34 604.926 1457.24 604.872C1453 604.872 1449.81 601.505 1449.81 597.272C1449.81 593.089 1453 589.672 1457.11 589.672ZM1457.18 606.839C1462.63 606.839 1466.91 602.605 1466.91 597.272C1466.91 591.939 1462.63 587.755 1457.24 587.755C1451.72 587.755 1447.38 591.939 1447.38 597.272C1447.38 602.605 1451.72 606.839 1457.18 606.839Z"
            fill="white" />
        <path d="M185.142 881.335V935.16H173.771V881.335H153.259V871.385H205.659V881.335H185.142Z"
            fill="white" />
        <path
            d="M276.967 871.389V935.164H265.597V907.272H235.047V935.164H223.676V871.389H235.047V897.326H265.597V871.389H276.967Z"
            fill="white" />
        <path
            d="M342.851 871.389V881.339H310.876V897.326H337.788V907.272H310.876V925.214H342.851V935.164H299.684V871.389H342.851Z"
            fill="white" />
        <path
            d="M432.53 871.389L444.43 918.197L456.509 871.389H467.88L450.651 935.164H439.459L427.38 890.222L415.389 935.164H404.197L386.876 871.389H398.601L410.68 918.197L422.493 871.389H432.53Z"
            fill="white" />
        <path
            d="M509.601 880.451C498.851 880.451 491.301 889.422 491.301 903.28C491.301 917.134 498.851 926.105 509.601 926.105C520.347 926.105 527.897 917.134 527.897 903.28C527.897 889.422 520.347 880.451 509.601 880.451ZM509.601 870.414C526.83 870.414 539.267 883.914 539.267 903.28C539.267 922.639 526.83 936.139 509.601 936.139C492.367 936.139 479.934 922.639 479.934 903.28C479.934 883.914 492.367 870.414 509.601 870.414Z"
            fill="white" />
        <path
            d="M583.563 900.701C591.734 900.701 596.088 897.147 596.088 890.93C596.088 884.626 591.734 881.16 583.563 881.16H570.063V900.701H583.563ZM570.063 935.164H558.697V871.389H584.184C598.397 871.389 607.28 878.051 607.28 890.93C607.28 900.964 601.772 907.364 592.447 909.585L608.876 935.164H595.909L580.368 910.472H570.063V935.164Z"
            fill="white" />
        <path d="M627.334 871.389H638.705V925.214H668.722V935.164H627.334V871.389Z" fill="white" />
        <path
            d="M708.051 925.393C721.197 925.393 728.922 916.689 728.922 903.276C728.922 889.776 721.197 881.16 707.964 881.16H697.839V925.393H708.051ZM686.734 871.389H708.051C727.855 871.389 740.114 883.822 740.114 903.276C740.114 922.726 727.855 935.164 708.051 935.164H686.734V871.389Z"
            fill="white" />
        <path
            d="M750.339 868.922H757.843V876.789C757.843 881.134 754.893 883.772 750.339 883.826V880.359C752.668 880.201 753.756 879.114 753.756 876.839V876.426H750.339V868.922Z"
            fill="white" />
        <path
            d="M778.53 915.531C782.972 922.46 789.635 926.456 796.918 926.456C804.11 926.456 809.526 923.168 809.526 917.039C809.526 910.56 802.868 909.668 793.364 907.36C783.772 905.047 773.468 902.21 773.468 889.772C773.468 877.96 783.593 870.41 796.472 870.41C807.397 870.41 815.922 875.56 820.189 882.222L811.839 889.418C808.285 883.91 803.576 880.093 796.118 880.093C789.276 880.093 784.572 883.556 784.572 888.618C784.572 894.214 789.455 895.368 798.068 897.322C808.376 899.635 820.718 902.031 820.718 915.885C820.718 928.41 809.705 936.135 796.56 936.135C785.639 936.135 774.797 930.897 769.826 922.726L778.53 915.531Z"
            fill="white" />
        <path
            d="M894.68 880.451C883.93 880.451 876.38 889.422 876.38 903.28C876.38 917.134 883.93 926.105 894.68 926.105C905.426 926.105 912.976 917.134 912.976 903.28C912.976 889.422 905.426 880.451 894.68 880.451ZM894.68 870.414C911.91 870.414 924.347 883.914 924.347 903.28C924.347 922.639 911.91 936.139 894.68 936.139C877.447 936.139 865.014 922.639 865.014 903.28C865.014 883.914 877.447 870.414 894.68 870.414Z"
            fill="white" />
        <path d="M943.776 871.389H955.147V925.214H985.164V935.164H943.776V871.389Z" fill="white" />
        <path
            d="M1024.49 925.393C1037.64 925.393 1045.36 916.689 1045.36 903.276C1045.36 889.776 1037.64 881.16 1024.4 881.16H1014.28V925.393H1024.49ZM1003.18 871.389H1024.49C1044.3 871.389 1056.55 883.822 1056.55 903.276C1056.55 922.726 1044.3 935.164 1024.49 935.164H1003.18V871.389Z"
            fill="white" />
        <path
            d="M1119.24 871.389V881.339H1087.27V897.326H1114.18V907.272H1087.27V925.214H1119.24V935.164H1076.08V871.389H1119.24Z"
            fill="white" />
        <path
            d="M1141.7 915.531C1146.14 922.46 1152.8 926.456 1160.08 926.456C1167.28 926.456 1172.69 923.168 1172.69 917.039C1172.69 910.56 1166.03 909.668 1156.53 907.36C1146.94 905.047 1136.63 902.21 1136.63 889.772C1136.63 877.96 1146.76 870.41 1159.64 870.41C1170.56 870.41 1179.09 875.56 1183.36 882.222L1175.01 889.418C1171.45 883.91 1166.74 880.093 1159.28 880.093C1152.44 880.093 1147.74 883.556 1147.74 888.618C1147.74 894.214 1152.62 895.368 1161.23 897.322C1171.54 899.635 1183.88 902.031 1183.88 915.885C1183.88 928.41 1172.87 936.135 1159.73 936.135C1148.81 936.135 1137.96 930.897 1132.99 922.726L1141.7 915.531Z"
            fill="white" />
        <path d="M1228.36 881.335V935.16H1216.99V881.335H1196.48V871.385H1248.88V881.335H1228.36Z"
            fill="white" />
        <path d="M271.613 977.943H282.984V1031.77H313.001V1041.72H271.613V977.943Z" fill="white" />
        <path
            d="M347.18 1017.2H367.255L357.13 990.555L347.18 1017.2ZM363.788 977.943L387.951 1041.72H376.492L370.984 1027.15H343.451L338.034 1041.72H326.755L350.913 977.943H363.788Z"
            fill="white" />
        <path
            d="M432.784 1041.72L416.088 992.422V1041.72H405.518V977.943H421.151L437.58 1026.8L454.013 977.943H469.288V1041.72H458.722V992.422L442.022 1041.72H432.784Z"
            fill="white" />
        <path
            d="M502.922 1032.13H518.288C525.484 1032.13 529.392 1028.39 529.392 1022.98C529.392 1017.65 525.484 1013.92 518.288 1013.92H502.922V1032.13ZM516.247 1004.32C523.53 1004.32 527.526 1001.48 527.526 995.889C527.526 990.293 523.53 987.539 516.247 987.539H502.922V1004.32H516.247ZM491.997 977.943H517.313C530.988 977.943 538.272 983.897 538.272 994.73C538.272 1002.64 533.651 1006.72 529.213 1008.5C535.876 1010.63 540.317 1016.13 540.317 1023.95C540.317 1035.15 532.055 1041.72 518.909 1041.72H491.997V977.943Z"
            fill="white" />
        <path d="M559.393 977.943H570.764V1041.72H559.393V977.943Z" fill="white" />
        <path
            d="M619.514 1032.66C626.976 1032.66 632.393 1028.13 634.347 1020.67L645.005 1024.31C641.276 1035.59 632.393 1042.69 619.514 1042.69C602.551 1042.69 590.201 1029.19 590.201 1009.83C590.201 990.468 602.551 976.968 619.514 976.968C632.393 976.968 641.276 984.076 645.005 995.355L634.347 998.997C632.393 991.534 626.976 987.005 619.514 987.005C609.03 987.005 601.572 996.064 601.572 1009.83C601.572 1023.6 609.03 1032.66 619.514 1032.66Z"
            fill="white" />
        <path
            d="M703.242 1032.13H718.609C725.805 1032.13 729.713 1028.39 729.713 1022.98C729.713 1017.65 725.805 1013.92 718.609 1013.92H703.242V1032.13ZM716.567 1004.32C723.851 1004.32 727.847 1001.48 727.847 995.889C727.847 990.293 723.851 987.539 716.567 987.539H703.242V1004.32H716.567ZM692.317 977.943H717.634C731.309 977.943 738.592 983.897 738.592 994.73C738.592 1002.64 733.972 1006.72 729.534 1008.5C736.197 1010.63 740.638 1016.13 740.638 1023.95C740.638 1035.15 732.376 1041.72 719.23 1041.72H692.317V977.943Z"
            fill="white" />
        <path
            d="M784.584 1007.26C792.755 1007.26 797.109 1003.7 797.109 997.485C797.109 991.18 792.755 987.718 784.584 987.718H771.084V1007.26H784.584ZM771.084 1041.72H759.718V977.943H785.205C799.418 977.943 808.301 984.605 808.301 997.485C808.301 1007.52 802.793 1013.92 793.468 1016.13L809.897 1041.72H796.93L781.389 1017.03H771.084V1041.72Z"
            fill="white" />
        <path
            d="M871.518 977.943V987.893H839.543V1003.88H866.455V1013.83H839.543V1031.77H871.518V1041.72H828.351V977.943H871.518Z"
            fill="white" />
        <path
            d="M932.255 977.943L944.155 1024.75L956.234 977.943H967.605L950.376 1041.72H939.184L927.105 996.776L915.114 1041.72H903.922L886.601 977.943H898.326L910.405 1024.75L922.218 977.943H932.255Z"
            fill="white" />
        <path
            d="M1028.33 977.943V987.893H996.356V1003.88H1023.27V1013.83H996.356V1031.77H1028.33V1041.72H985.164V977.943H1028.33Z"
            fill="white" />
        <path
            d="M1073.43 1007.26C1081.6 1007.26 1085.96 1003.7 1085.96 997.485C1085.96 991.18 1081.6 987.718 1073.43 987.718H1059.93V1007.26H1073.43ZM1059.93 1041.72H1048.56V977.943H1074.05C1088.26 977.943 1097.15 984.605 1097.15 997.485C1097.15 1007.52 1091.64 1013.92 1082.31 1016.13L1098.74 1041.72H1085.78L1070.24 1017.03H1059.93V1041.72Z"
            fill="white" />
        <path
            d="M1153.44 977.943H1165.52L1142.51 1015.43V1041.72H1131.15V1015.43L1108.05 977.943H1120.4L1136.92 1005.03L1153.44 977.943Z"
            fill="white" />
    </g>
    <defs>
        <clipPath id="clip0_113_344">
            <rect width="1467" height="1043" fill="white" />
        </clipPath>
    </defs>
</svg>