<?xml version="1.0" encoding="UTF-8"?>
<svg id="Laag_2" xmlns="http://www.w3.org/2000/svg" viewBox="0 0 595.28 595.28">
    <defs>
        <style>.cls-1{fill:#fff;stroke-width:0px;}</style>
    </defs>
    <path class="cls-1"
        d="M5.3,217.28v51.53h43.96v119.19h51.54v-119.69l102.57.76s31.83.51,31.83,31.33-29.56,33.09-29.56,33.09c0,0-36.13.5-35.62-32.08-.25-21.22,15.41-27.03,15.41-27.03h-62.65s-18.69,38.65,10.36,77.05,67.83,36.54,70.99,36.58c4.42.06,82.48-.95,82.48-89.12,0-79.58-77.18-81.6-77.18-81.6H5.3Z" />
    <rect class="cls-1" x="392.84" y="217.28" width="52.55" height="170.52" />
    <polygon class="cls-1"
        points="449.68 217.28 449.68 273.87 468.88 297.64 449.68 323.63 449.68 388 472.92 387.8 501.22 345.61 530.52 387.8 593.55 388 533.05 297.64 591.15 217.28 526.48 217.28 500.71 251.63 476.71 217.28 449.68 217.28" />
    <path class="cls-1"
        d="M387.28,269.83v-52.55h-120.51v18.99c17.51,17.24,24.16,36.69,24.16,63.08,0,28.91-8.15,53.31-24.16,67.61v21.04h53.05v-62.34l46.99.25v-42.44h-46.99v-13.39l67.45-.25Z" />
</svg>