<svg width="3562" height="1374" viewBox="0 0 3562 1374" fill="none" xmlns="http://www.w3.org/2000/svg">
<g clip-path="url(#clip0_949_1558)">
<mask id="mask0_949_1558" style="mask-type:luminance" maskUnits="userSpaceOnUse" x="3442" y="322" width="120" height="121">
<path d="M3442.53 322.909H3562V442.61H3442.53V322.909Z" fill="white"/>
</mask>
<g mask="url(#mask0_949_1558)">
<path fill-rule="evenodd" clip-rule="evenodd" d="M3489.7 357.348H3507.2C3514.84 357.348 3519.62 361.865 3519.62 369.484C3519.62 376.55 3514.84 381.067 3507.2 381.067H3489.7V357.348ZM3489.7 390.102H3500.72L3518.51 417.206H3531.21L3512.85 389.819C3516.81 389.819 3530.36 384.735 3530.36 369.484C3530.36 356.781 3520.47 348.596 3507.2 348.596H3479.24V417.206H3489.7V390.102ZM3502.4 332.793C3530.08 332.793 3552.39 354.813 3552.39 382.752C3552.39 410.139 3530.08 432.726 3502.4 432.726C3474.73 432.726 3452.42 410.139 3452.42 382.752C3452.42 354.813 3474.73 332.793 3502.4 332.793ZM3502.4 442.61C3535.73 442.61 3562.27 415.79 3562.27 382.752C3562.27 349.446 3535.73 322.909 3502.4 322.909C3469.37 322.909 3442.53 349.446 3442.53 382.752C3442.53 415.79 3469.37 442.61 3502.4 442.61Z" fill="white"/>
</g>
<path fill-rule="evenodd" clip-rule="evenodd" d="M954.222 238.694L951.63 240.379C863.687 296.866 780.602 361.284 702.233 431.933L701.412 432.641V433.717V1077.81H774.823C774.837 1075.74 774.823 750.056 774.823 678.176C774.823 667.187 775.375 656.184 777.061 645.322C791.763 550.388 858.942 451.8 954.222 409.091V238.694ZM401.096 1077.82L232.717 1077.81L233.878 1075.23C281.412 971.305 336.354 872.038 398.519 781.72L401.096 778.094V780.842V781.479V782.555V1077.82Z" fill="white" fill-opacity="0.6"/>
<mask id="mask1_949_1558" style="mask-type:luminance" maskUnits="userSpaceOnUse" x="0" y="0" width="3562" height="1374">
<path d="M0 0H3562V1374H0V0Z" fill="white"/>
</mask>
<g mask="url(#mask1_949_1558)">
<path fill-rule="evenodd" clip-rule="evenodd" d="M1609.17 749.335C1609.17 660.773 1537.36 588.992 1448.79 588.992C1360.21 588.992 1288.41 660.773 1288.41 749.335C1288.41 837.897 1360.21 909.679 1448.79 909.679C1537.36 909.679 1609.17 837.897 1609.17 749.335ZM1786.58 424.443V1076.3H1619.08V1029.99C1569.51 1060.19 1511.28 1077.61 1448.97 1077.61C1268.2 1077.61 1121.66 931.104 1121.66 750.369C1121.66 569.634 1268.2 423.126 1448.97 423.126C1511.28 423.126 1569.51 440.544 1619.08 470.763V424.443H1786.58ZM3397.32 749.689C3397.32 662.289 3326.46 591.428 3239.03 591.428C3151.59 591.428 3080.73 662.289 3080.73 749.689C3080.73 837.104 3151.59 907.965 3239.03 907.965C3326.46 907.965 3397.32 837.104 3397.32 749.689ZM3562.27 750.709C3562.27 929.107 3417.63 1073.7 3239.2 1073.7C3060.79 1073.7 2916.13 929.107 2916.13 750.709C2916.13 572.325 3060.79 427.714 3239.2 427.714C3417.63 427.714 3562.27 572.325 3562.27 750.709ZM2862.25 883.934L2862.23 883.962L2862.2 883.92C2564.26 1025.73 2534.82 487.176 2862.2 619.919L2862.21 619.877L2862.25 619.905C2862.57 619.155 2950.03 477.121 2951.51 474.714L2951.43 474.657L2951.47 474.558C2951.25 474.36 2951.77 474.87 2949.32 473.355L2949.25 473.454C2733.19 341.928 2445.84 496.012 2453.61 765.436C2463.56 1006.55 2730.35 1161.84 2949.31 1030.12C2949.5 1030 2949.12 1030.23 2951.51 1028.79C2951.51 1028.79 2862.2 883.92 2862.25 883.934ZM2307.49 424.443L2180.96 677.511C2180.78 677.143 2055.07 425.845 2054.36 424.443H1840.32L2074.08 891.411C2071.13 897.33 1834.73 1369.42 1832.45 1374H2046.13C2047 1372.26 2520.21 426.383 2521.18 424.443H2307.49ZM1110.87 423.239H1108.29C987.134 423.763 871.727 510.102 839.32 631.545L838.598 634.038C835.057 646.513 833.3 680.145 832.578 729.963C830.694 858.501 834.349 1077.81 834.349 1077.81H1012.81V670.913H1012.78C1013.27 667.74 1013.66 658.465 1016.18 652.546C1029.36 616.322 1070.16 592.391 1110.87 588.723V423.239ZM940.379 184.785C848.966 241.23 758.813 307.432 675.204 381.422C666.734 388.559 654.213 399.959 642.202 411.174V1077.81H460.268V603.663C445.013 622.426 431.331 638.98 412.989 663.549C317.227 788.929 236.451 927.535 172.487 1076.83L172.02 1077.85L0 1077.81L1.04812 1075.22C72.1222 895.461 166.411 724.865 286.308 567.114C286.308 567.114 287.54 565.443 287.851 565.046C369.237 458.061 464.276 355.862 567.941 263.576L567.899 263.533C681.365 164.436 803.245 76.4969 938.679 1.34528L941.271 0V184.218L940.379 184.785Z" fill="white"/>
</g>
</g>
<defs>
<clipPath id="clip0_949_1558">
<rect width="3562" height="1374" fill="white"/>
</clipPath>
</defs>
</svg>
