<svg id="Layer_1" xmlns="http://www.w3.org/2000/svg" viewBox="0 0 86.5361 120.2252">
    <defs>
        <style>.cls-1{fill:#fff;}</style>
    </defs>
    <path class="cls-1" d="M74.9043,38.8015l-1.2383-12.1265c-.168-1.5551-1.5737-2.6982-3.1299-2.5454l-15.7563,1.6304c-1.5562,.1533-2.313-.8784-1.67-2.311l6.4747-14.4478c.642-1.4326-.003-3.1289-1.4356-3.7705L47.0356,.2488c-1.4326-.6426-3.1289,.0029-3.771,1.4355l-6.4746,14.4468c-.6421,1.4326-1.9096,1.5718-2.8222,.2925L24.6846,3.592c-.9141-1.2646-2.7134-1.5556-3.98-.6303l-9.8736,7.1337c-1.2651,.9273-1.5551,2.7154-.6421,3.98l9.2828,12.8311c.913,1.2646,.3901,2.4355-1.168,2.603l-15.7432,1.6157c-1.5634,.1533-2.7104,1.5591-2.5444,3.1294l1.2388,12.1118c.1665,1.5708,1.5737,2.7134,3.1289,2.5454l15.7549-1.6147c1.5566-.1685,2.3012,.8779,1.6694,2.3105l-6.4741,14.4463c-.6407,1.4331,.0044,3.128,1.435,3.7569l11.1143,4.9824c1.4326,.6426,3.1289-.0029,3.7705-1.4356l6.4751-14.4477c.6343-1.4331,1.9097-1.5566,2.8227-.292l9.2837,12.832c.9121,1.2798,2.7007,1.5552,3.9795,.6426l9.874-7.145c1.2657-.9126,1.5552-2.7007,.6431-3.9653l-9.2837-12.8326c-.9131-1.2793-.3969-2.4497,1.169-2.603l15.7422-1.6152c1.5703-.168,2.7133-1.5738,2.5449-3.1299Z" />
    <g>
        <path class="cls-1" d="M6.8598,89.6276l-1.7856,6.9258h-.3272l-1.7856-6.9258v-6.8218H0v7.2002l2.7519,9.2598H7.0683l2.7525-9.2598v-7.2002h-2.961v6.8218Zm2.1128,19.3682v-1.3697c0-2.1518-1.787-3.8467-4.2782-3.8467H0v16.4458H4.6303c2.3473,0,4.5127-1.644,4.5127-4.1084v-1.7602c0-1.1357-.522-2.0752-1.2265-2.8052,.5864-.7041,1.0561-1.5903,1.0561-2.5556Zm-5.9585-2.4649h1.7066c.7315,0,1.3183,.5083,1.3183,1.1475v1.4087c0,.6391-.5868,1.1474-1.3183,1.1474h-1.7066v-3.7036Zm3.1045,9.5859c0,.73-.6406,1.3682-1.4883,1.3682h-1.6162v-4.499h1.6162c1.0288,0,1.4883,.9277,1.4883,1.3965v1.7343Zm62.6074-29.1767c0-.9121,.8218-1.6157,1.8263-1.6157,1.057,0,1.8393,.938,1.8393,2.1108h2.9614c0-2.9336-2.1157-4.8643-4.8007-4.8643-2.6729,0-4.812,1.9693-4.812,4.5777,0,5.1782,6.8168,4.5122,6.8168,7.9043,0,.874-.8486,1.6953-1.9092,1.6953h-.2559c-1.0576,0-1.9257-.8745-1.9257-1.8648v-.7436h-2.9873v.7436c0,2.5171,2.1655,4.6163,4.8642,4.6163h.3804c2.6982,0,4.8354-2.0992,4.8354-4.6163,0-5.3989-6.833-5.2304-6.833-7.9433Zm-47.1942,23.751v-2.9488c0-2.2026-1.8663-3.9629-4.1871-3.9629h-4.8648v16.4458h2.961v-5.5844h1.2251l2.3868,5.5844h3.2465l-2.6988-6.1835c1.1476-.7027,1.9313-1.9947,1.9313-3.3506Zm-3.0406,.0918c0,.6123-.5346,1.1093-1.1993,1.1093h-1.851v-5.3613h1.851c.6647,0,1.1993,.4932,1.1993,1.0952v3.1568Zm58.3305-7.0035v2.7515h3.3399v13.6943h3.0127v-13.6943h3.3618v-2.7515h-9.7144Zm-55.4673-7.2661h-5.1508v-13.7075h-2.9878v16.46h8.1386v-2.7525Zm5.5987-2.1377h3.9913v4.8902h2.9223v-7.1997l-2.5708-9.2603h-4.6944l-2.5702,9.2603v7.1997h2.9218v-4.8902Zm1.7353-8.8178h.5221l1.4745,6.0649h-3.4701l1.4735-6.0649Zm24.7857,18.2216l-2.5537,9.2603v7.1855h2.9135v-4.8779h3.9977v4.8779h2.9082v-7.1855l-2.5553-9.2603h-4.7104Zm.6142,8.816l1.4878-6.0645h.5196l1.476,6.0645h-3.4834Zm-14.036-18.2198h3.995v4.8902h2.9176v-7.1997l-2.567-9.2603h-4.6982l-2.5552,9.2603v7.1997h2.9078v-4.8902Zm1.7431-8.8178h.5141l1.4864,6.0649h-3.482l1.4815-6.0649Zm-13.8969,18.2216l-2.5563,9.2603v7.1855h2.9097v-4.8779h4.0029v4.8779h2.9087v-7.1855l-2.5556-9.2603h-4.7094Zm.6132,8.816l1.4869-6.0645h.5072l1.4878,6.0645h-3.4819Zm27.8335-23.7242h-.0899l-2.5835-6.0654h-3.312v16.46h2.9077v-9.7813l-.1557-2.1128h.0909l1.9306,4.6294h2.3471l1.9312-4.6294h.0913l-.1713,2.1128v9.7813h2.9228v-16.46h-3.313l-2.5962,6.0654Zm-8.7998,20.1246v-1.3697c0-2.1518-1.7862-3.8467-4.2784-3.8467h-4.7085v16.4458h4.6294c2.3482,0,4.5127-1.644,4.5127-4.1084v-1.7602c0-1.1357-.5127-2.0752-1.2177-2.8052,.5927-.7041,1.0625-1.5903,1.0625-2.5556Zm-5.9756-2.4649h1.7099c.7295,0,1.316,.5083,1.316,1.1475v1.4087c0,.6391-.5865,1.1474-1.316,1.1474h-1.7099v-3.7036Zm3.1059,9.5859c0,.73-.64,1.3682-1.4878,1.3682h-1.6181v-4.499h1.6181c1.0353,0,1.4878,.9277,1.4878,1.3965v1.7343Zm26.3727-4.5781l.164,2.7412h-.0899l-.8696-2.7285-3.0396-7.772h-3.0775v16.4458h2.917v-7.7734l-.1656-2.7256h.0904l.849,2.6348,3.0532,7.8642h3.0835v-16.4458h-2.9149v7.7593Z" />
        <rect class="cls-1" x="78.4545" y="91.4123" width="6.5367" height="2.7495" />
    </g>
</svg>