<?xml version="1.0" encoding="utf-8"?>
<!-- Generator: Adobe Illustrator 26.3.1, SVG Export Plug-In . SVG Version: 6.00 Build 0)  -->
<svg version="1.1" id="Layer_1" xmlns="http://www.w3.org/2000/svg" xmlns:xlink="http://www.w3.org/1999/xlink" x="0px" y="0px"
	 viewBox="0 0 213.2 30" style="enable-background:new 0 0 213.2 30;" xml:space="preserve">
<style type="text/css">
	.st0{fill:#FFFFFF;}
</style>
<g id="Group_3" transform="translate(-117.289 -254.906)">
	<g id="Group_1" transform="translate(117.289 254.906)">
		<path id="Path_1" class="st0" d="M30.3,30c-0.2,0-0.5-0.1-0.6-0.3l-8.4-12.5l-8.2,12.5C13,29.9,12.8,30,12.5,30
			c-0.3,0-0.5-0.2-0.6-0.5L0.1,1.2c-0.2-0.4,0-0.9,0.4-1.1c0.4-0.2,0.8,0,1,0.3c0,0,0,0,0,0.1l11.3,27l8-12.3
			c0.1-0.2,0.4-0.3,0.6-0.3l0,0c0.2,0,0.5,0.1,0.6,0.3l8.2,12.3L41.5,0.5C41.6,0.1,42-0.1,42.4,0c0,0,0,0,0.1,0
			c0.4,0.2,0.5,0.7,0.4,1.1L31,29.5C30.9,29.8,30.6,30,30.3,30L30.3,30"/>
		<path id="Path_2" class="st0" d="M28.8,15.2c-0.2,0-0.5-0.1-0.6-0.3L21.4,4.6l-6.9,10.3c-0.1,0.2-0.4,0.4-0.7,0.3
			c-0.3,0-0.5-0.2-0.6-0.5L7.7,1.2c-0.2-0.4,0-0.9,0.4-1.1c0.4-0.2,0.8,0,1,0.3c0,0,0,0,0,0.1L14,12.8l6.7-10
			c0.1-0.2,0.4-0.3,0.6-0.3l0,0c0.2,0,0.5,0.1,0.6,0.3l6.7,10l5.1-12.2c0.1-0.4,0.5-0.6,0.9-0.4c0,0,0,0,0.1,0
			c0.4,0.2,0.5,0.7,0.4,1.1l-5.6,13.5C29.3,15,29.1,15.2,28.8,15.2L28.8,15.2"/>
	</g>
	<g id="Group_2" transform="translate(172.148 261.383)">
		<path id="Path_3" class="st0" d="M13.6,10.6L9.6-0.3L5.5,10.6L1.6,0.5h-2.5l6.4,16.1L9.6,5.8l3.9,10.7l6.8-16.1h-2.5
			C17.8,0.5,13.6,10.6,13.6,10.6z"/>
		<path id="Path_4" class="st0" d="M31.3,11.9l1.6,3.7h2.5L28.2-0.5l-7.5,16.1h2.5l1.7-3.7H31.3z M28.1,4.6l2.2,5.1h-4.6L28.1,4.6z"
			/>
		<path id="Path_5" class="st0" d="M38.9,15.6h8.3v-2.1h-6.1V8.4h5.9V6.3h-5.9V2.6h6.1V0.5h-8.3L38.9,15.6z"/>
		<path id="Path_6" class="st0" d="M57,9.2c1-0.2,1.8-0.7,2.4-1.5c0.6-0.8,0.9-1.8,0.9-2.8c0-1.3-0.5-2.5-1.5-3.3
			c-1.3-0.9-2.8-1.3-4.3-1.1h-2.7v15.1h2.3V9.4h0.4l4.3,6.2h2.8C61.7,15.6,57,9.2,57,9.2z M54.1,7.4V2.6h0.8c2.1,0,3.2,0.8,3.2,2.3
			c0,1.7-1.1,2.5-3.2,2.5C54.9,7.4,54.1,7.4,54.1,7.4z"/>
		<path id="Path_7" class="st0" d="M82.1,5.8L86,16.6l6.8-16.1h-2.5l-4.2,10.1L82.1-0.3L78,10.6L74.1,0.5h-2.5L78,16.6
			C78,16.6,82.1,5.9,82.1,5.8z"/>
		<path id="Path_8" class="st0" d="M107.9,15.6l-7.2-16.1l-7.5,16.1h2.5l1.7-3.7h6.5l1.6,3.7H107.9L107.9,15.6z M98.3,9.8l2.4-5.1
			l2.2,5.1H98.3L98.3,9.8z"/>
		<path id="Path_9" class="st0" d="M109,2.6h3.5v13h2.3v-13h3.5V0.5H109V2.6z"/>
		<path id="Path_10" class="st0" d="M121.8,15.6h8.3v-2.1h-6.1V8.4h5.9V6.3h-5.9V2.6h6.1V0.5h-8.3L121.8,15.6L121.8,15.6z"/>
		<path id="Path_11" class="st0" d="M142.3,7.7c0.6-0.8,0.9-1.8,0.9-2.8c0-1.3-0.5-2.5-1.5-3.3c-1.3-0.9-2.8-1.3-4.3-1.1h-2.7v15.1
			h2.3V9.4h0.4l4.3,6.2h2.8l-4.7-6.4C140.9,9,141.7,8.4,142.3,7.7L142.3,7.7z M137.1,7.4V2.6h0.8c2.1,0,3.2,0.8,3.2,2.3
			c0,1.7-1.1,2.5-3.2,2.5L137.1,7.4z"/>
		<path id="Path_12" class="st0" d="M156.6,8.4c-0.7-0.8-1.7-1.5-2.7-1.8L152.4,6c-1.1-0.5-1.6-1-1.6-1.8c0-0.5,0.2-1,0.6-1.3
			c0.4-0.4,1-0.6,1.6-0.5c0.4,0,0.9,0.1,1.3,0.3c0.4,0.3,0.8,0.7,1,1.2l1.9-1.1c-0.8-1.6-2.3-2.6-4.1-2.5c-1.2,0-2.3,0.4-3.2,1.2
			c-0.8,0.7-1.3,1.8-1.3,2.9c0,1.7,1,3,3.1,3.8l1.5,0.6c0.3,0.1,0.7,0.3,1,0.5c0.2,0.2,0.5,0.4,0.7,0.6c0.2,0.2,0.3,0.4,0.4,0.7
			c0.1,0.3,0.1,0.5,0.1,0.8c0,0.7-0.2,1.3-0.7,1.8c-1,1-2.7,0.9-3.7-0.1c-0.1-0.1-0.1-0.1-0.1-0.2c-0.3-0.6-0.5-1.2-0.5-1.8
			l-2.3,0.5c0.1,1.2,0.7,2.4,1.6,3.3c0.9,0.8,2.1,1.2,3.3,1.2c1.3,0,2.6-0.5,3.5-1.4c0.9-0.9,1.4-2.2,1.4-3.4
			C157.5,10.1,157.2,9.2,156.6,8.4L156.6,8.4z"/>
	</g>
</g>
</svg>
