<?xml version="1.0" encoding="UTF-8"?><svg id="Layer_1" xmlns="http://www.w3.org/2000/svg" viewBox="0 0 391.59 95.71"><g><path d="M77.18,40.19l7.55,1.87c4.62,.81,9.94,1.36,14.91,.81-2.63-18.2-15.04-33.23-31.74-39.6-3.86,4.26-4.64,9.47-6.02,17.35l-.41,2.34c9.1,2.39,16.09,9.24,15.71,17.22Z" fill="#fff"/><path d="M29.38,32.12l6.67,1.16c4.25-7.31,9.95-11.95,20.35-11.2l1.04-5.99c1.25-7.19,1.28-11.49-1.04-15.68C54.33,.15,52.22,0,50.08,0,32.21,0,16.54,9.36,7.68,23.44c5.46,5.49,11,6.81,21.7,8.67Z" fill="#fff"/><path d="M19.34,89.61c3.89-3.64,9.17-6.34,15.01-8.86,4.23-1.68,8.1-3.42,10.7-6.98,2.24-3.37,4.08-10.01,4.76-13.92l.47-4.75c-8.92-3.17-14.46-9.24-14.69-17.33l-8.57-1.5c-14.85-1.66-17.25-1.95-26.04,3.96-.64,3.19-.97,6.48-.97,9.85,0,16.07,7.58,30.36,19.34,39.53Z" fill="#fff"/><path d="M98.97,50.7c-3.91-2.01-12.08-4.25-16.52-5.02l-6.09-.8c-1.98,7.71-11.07,12.56-20.66,11.16l-1.23,5.15c-2.04,11.71-1.52,16.37,8.36,25.59,3.13,3.05,5.82,5.94,7.88,8.93,17.04-7.71,28.97-24.67,29.42-44.49-.37-.18-.75-.35-1.16-.52Z" fill="#fff"/></g><g><path d="M143.92,50.5c-1.44,3.56-2.71,4.66-5.59,4.66-2.46,0-4.32-1.27-5.16-3.56l-.34-1.1-10.25-27.69-.42-1.19c-.34-.93-.51-1.86-.51-2.71,0-2.88,2.54-5.25,5.5-5.25,2.54,0,4.49,1.52,5.42,4.4l.34,1.1,5.42,16.6,6.35-17.27c1.19-3.3,2.88-4.74,5.76-4.74,2.62,0,4.4,1.35,5.5,4.23l6.52,17.78,5-16.26,.34-1.27c1.02-2.96,2.96-4.57,5.59-4.57,3.05,0,5.67,2.46,5.67,5.5,0,.85-.17,1.78-.51,2.71l-.42,1.19-9.82,27.52c-1.27,3.39-2.71,4.57-5.5,4.57s-4.32-1.19-5.76-4.57l-6.69-16.68-6.44,16.6Z" fill="#fff"/><path d="M210.64,19.34l.51-1.27c1.27-2.79,3.13-4.15,5.67-4.15,3.05,0,5.84,2.63,5.84,5.59,0,1.27-.34,2.37-1.36,4.49l-16.17,34.04c-1.52,3.22-2.2,4.32-3.39,5.84-2.2,2.8-5.93,4.57-9.48,4.57-5.42,0-9.99-3.39-9.99-7.37,0-2.96,2.29-5.5,5-5.5,.76,0,1.52,.09,2.37,.34l1.61,.42c.59,.17,1.19,.26,1.69,.26,1.27,0,2.46-1.19,3.3-3.39l1.19-3.05-12.87-26.42-.59-1.1c-.51-1.19-.85-2.37-.85-3.39,0-2.88,2.71-5.34,5.67-5.34,2.46,0,4.23,1.27,5.42,3.9l.51,1.1,8.3,18.37,7.62-17.95Z" fill="#fff"/><path d="M255.18,34.67c0-3.39-.17-4.4-.76-5.84-1.02-2.29-3.56-3.9-6.18-3.9-3.89,0-6.86,3.22-6.86,7.28v16.68c-.09,3.81-2.29,6.27-5.67,6.27s-5.59-2.54-5.59-6.27v-15.58c0-5.5,1.19-9.31,3.98-12.87,3.39-4.23,8.64-6.78,14.06-6.78,6.27,0,12.45,3.47,15.83,8.98,1.61,2.63,2.46,6.52,2.46,11.01v15.24c-.09,3.81-2.29,6.27-5.59,6.27s-5.67-2.54-5.67-6.27v-14.23Z" fill="#fff"/><path d="M289.56,55.33c-7.87,0-13.97-6.35-13.97-14.48s6.43-14.82,14.73-14.82c2.79,0,5.33,.76,8.38,2.37,0-4.15-1.44-5.67-5-5.67-.76,0-2.03,.17-3.05,.42l-2.71,.76c-1.61,.51-2.54,.68-3.47,.68-2.62,0-4.4-1.86-4.4-4.49,0-4.4,5.5-7.28,13.46-7.28,5.5,0,10.33,1.61,13.21,4.49,2.54,2.63,3.56,6.44,3.47,12.96v17.36c0,2.88-.25,3.98-1.27,5.33-1.1,1.44-2.71,2.2-4.57,2.2-2.37,0-3.98-1.02-5.25-3.47-3.3,2.54-6.18,3.64-9.57,3.64Zm3.56-20.66c-3.05,0-5.5,2.54-5.5,5.67s2.45,5.67,5.67,5.67,5.42-2.37,5.42-5.5c0-3.3-2.37-5.84-5.59-5.84Z" fill="#fff"/><path d="M347.05,34.67c0-3.39-.17-4.4-.76-5.84-1.02-2.29-3.56-3.9-6.18-3.9-3.89,0-6.86,3.22-6.86,7.28v16.68c-.08,3.81-2.29,6.27-5.67,6.27s-5.59-2.54-5.59-6.27v-15.58c0-5.5,1.19-9.31,3.98-12.87,3.39-4.23,8.64-6.77,14.05-6.77,6.27,0,12.45,3.47,15.83,8.98,1.61,2.63,2.46,6.52,2.46,11.01v15.24c-.08,3.81-2.29,6.27-5.59,6.27s-5.67-2.54-5.67-6.27v-14.23Z" fill="#fff"/><path d="M372.28,8.5v-1.27c.08-3.9,2.29-6.27,5.67-6.27s5.59,2.54,5.59,6.27v7.28h2.46c3.39,.09,5.59,2.03,5.59,5.08s-2.29,5.08-5.59,5.08h-2.46v24.22c-.08,3.81-2.29,6.27-5.67,6.27s-5.59-2.54-5.59-6.27V24.68h-.59c-3.64,0-5.84-1.95-5.84-5.08,0-3.39,2.29-5.17,6.43-5.08v-6.01Z" fill="#fff"/></g><g><path d="M137.5,91.67l-3.52-10.77h1.5l1.68,5.31c.46,1.45,.86,2.77,1.15,4.03h.03c.3-1.25,.75-2.61,1.23-4.01l1.82-5.32h1.49l-3.85,10.77h-1.53Z" fill="#fff"/><path d="M152.83,86.62h-4.19v3.89h4.67v1.17h-6.06v-10.77h5.82v1.17h-4.43v3.4h4.19v1.15Z" fill="#fff"/><path d="M158.32,81.04c.7-.14,1.71-.22,2.67-.22,1.49,0,2.45,.27,3.12,.88,.54,.48,.85,1.22,.85,2.05,0,1.42-.9,2.37-2.03,2.75v.05c.83,.29,1.33,1.05,1.58,2.17,.35,1.5,.61,2.54,.83,2.96h-1.44c-.18-.32-.42-1.23-.72-2.57-.32-1.49-.9-2.04-2.16-2.09h-1.31v4.67h-1.39v-10.63Zm1.39,4.91h1.42c1.49,0,2.43-.82,2.43-2.05,0-1.39-1.01-2-2.48-2.01-.67,0-1.15,.06-1.37,.13v3.93Z" fill="#fff"/><path d="M172.13,91.67l-2.73-10.77h1.47l1.28,5.45c.32,1.34,.61,2.69,.8,3.72h.03c.17-1.07,.51-2.35,.88-3.74l1.44-5.43h1.46l1.31,5.47c.3,1.28,.59,2.56,.75,3.69h.03c.22-1.18,.53-2.38,.86-3.72l1.42-5.43h1.42l-3.05,10.77h-1.45l-1.36-5.61c-.33-1.38-.56-2.43-.7-3.52h-.03c-.19,1.07-.43,2.13-.83,3.52l-1.54,5.61h-1.45Z" fill="#fff"/><path d="M187.93,88.28l-1.12,3.39h-1.44l3.66-10.77h1.68l3.68,10.77h-1.49l-1.15-3.39h-3.82Zm3.53-1.09l-1.05-3.1c-.24-.7-.4-1.34-.56-1.97h-.03c-.16,.64-.34,1.3-.54,1.95l-1.06,3.12h3.25Z" fill="#fff"/><path d="M199.17,81.04c.7-.14,1.71-.22,2.67-.22,1.49,0,2.45,.27,3.12,.88,.54,.48,.85,1.22,.85,2.05,0,1.42-.9,2.37-2.03,2.75v.05c.83,.29,1.33,1.05,1.58,2.17,.35,1.5,.61,2.54,.83,2.96h-1.44c-.18-.32-.42-1.23-.72-2.57-.32-1.49-.89-2.04-2.16-2.09h-1.31v4.67h-1.39v-10.63Zm1.39,4.91h1.42c1.49,0,2.43-.82,2.43-2.05,0-1.39-1.01-2-2.48-2.01-.67,0-1.15,.06-1.37,.13v3.93Z" fill="#fff"/><path d="M220.05,86.94c-.08-1.5-.18-3.31-.16-4.65h-.05c-.37,1.26-.82,2.62-1.36,4.09l-1.9,5.23h-1.06l-1.74-5.13c-.51-1.52-.94-2.91-1.25-4.19h-.03c-.03,1.34-.11,3.15-.21,4.76l-.29,4.62h-1.33l.75-10.77h1.77l1.84,5.21c.45,1.33,.82,2.51,1.09,3.63h.05c.27-1.09,.65-2.27,1.13-3.63l1.92-5.21h1.77l.67,10.77h-1.36l-.27-4.73Z" fill="#fff"/><path d="M228.42,80.9v10.77h-1.39v-10.77h1.39Z" fill="#fff"/><path d="M234.05,91.67v-10.77h1.52l3.45,5.45c.8,1.26,1.42,2.4,1.93,3.5l.03-.02c-.13-1.44-.16-2.75-.16-4.43v-4.51h1.31v10.77h-1.41l-3.42-5.47c-.75-1.2-1.47-2.43-2.02-3.6l-.05,.02c.08,1.36,.11,2.65,.11,4.44v4.6h-1.31Z" fill="#fff"/><path d="M255.97,91.19c-.62,.22-1.85,.59-3.31,.59-1.63,0-2.97-.41-4.03-1.42-.93-.9-1.5-2.33-1.5-4.01,.02-3.21,2.22-5.56,5.83-5.56,1.25,0,2.22,.27,2.68,.49l-.33,1.14c-.58-.26-1.29-.46-2.38-.46-2.62,0-4.33,1.63-4.33,4.33s1.65,4.35,4.16,4.35c.91,0,1.53-.13,1.85-.29v-3.21h-2.19v-1.12h3.55v5.18Z" fill="#fff"/><path d="M261.1,89.98c.62,.38,1.53,.7,2.49,.7,1.42,0,2.25-.75,2.25-1.84,0-1.01-.58-1.58-2.03-2.14-1.76-.62-2.85-1.53-2.85-3.05,0-1.68,1.39-2.93,3.49-2.93,1.1,0,1.9,.26,2.38,.53l-.38,1.14c-.35-.19-1.07-.51-2.04-.51-1.47,0-2.03,.88-2.03,1.62,0,1.01,.65,1.5,2.14,2.08,1.82,.7,2.75,1.58,2.75,3.17s-1.23,3.12-3.77,3.12c-1.04,0-2.17-.32-2.75-.7l.35-1.17Z" fill="#fff"/><path d="M274.42,82.08h-3.28v-1.18h7.98v1.18h-3.29v9.59h-1.41v-9.59Z" fill="#fff"/><path d="M289.1,86.62h-4.19v3.89h4.67v1.17h-6.06v-10.77h5.82v1.17h-4.43v3.4h4.19v1.15Z" fill="#fff"/><path d="M302.12,91.32c-.51,.26-1.54,.53-2.85,.53-3.04,0-5.32-1.93-5.32-5.46s2.29-5.66,5.63-5.66c1.34,0,2.19,.29,2.56,.48l-.33,1.13c-.53-.26-1.28-.45-2.17-.45-2.53,0-4.2,1.61-4.2,4.44,0,2.64,1.52,4.33,4.14,4.33,.85,0,1.71-.18,2.27-.45l.29,1.1Z" fill="#fff"/><path d="M308.45,80.9v4.51h5.21v-4.51h1.41v10.77h-1.41v-5.05h-5.21v5.05h-1.39v-10.77h1.39Z" fill="#fff"/><path d="M320.68,91.67v-10.77h1.52l3.45,5.45c.8,1.26,1.42,2.4,1.93,3.5l.03-.02c-.13-1.44-.16-2.75-.16-4.43v-4.51h1.31v10.77h-1.41l-3.42-5.47c-.75-1.2-1.47-2.43-2.01-3.6l-.05,.02c.08,1.36,.11,2.65,.11,4.44v4.6h-1.31Z" fill="#fff"/><path d="M335.79,80.9v10.77h-1.39v-10.77h1.39Z" fill="#fff"/><path d="M347,86.62h-4.19v3.89h4.67v1.17h-6.06v-10.77h5.82v1.17h-4.43v3.4h4.19v1.15Z" fill="#fff"/><path d="M352.49,80.9h1.39v5.19h.05c.29-.42,.58-.8,.85-1.15l3.29-4.04h1.73l-3.9,4.57,4.21,6.2h-1.65l-3.55-5.29-1.02,1.18v4.11h-1.39v-10.77Z" fill="#fff"/><path d="M369.93,86.62h-4.19v3.89h4.67v1.17h-6.06v-10.77h5.82v1.17h-4.43v3.4h4.19v1.15Z" fill="#fff"/><path d="M375.42,91.67v-10.77h1.52l3.45,5.45c.8,1.26,1.42,2.4,1.93,3.5l.03-.02c-.13-1.44-.16-2.75-.16-4.43v-4.51h1.31v10.77h-1.41l-3.42-5.47c-.75-1.2-1.47-2.43-2.01-3.6l-.05,.02c.08,1.36,.11,2.65,.11,4.44v4.6h-1.31Z" fill="#fff"/></g></svg>